<svg xmlns="http://www.w3.org/2000/svg" xmlns:xlink="http://www.w3.org/1999/xlink" width="0" height="0" style="position:absolute">
	
		<symbol id="fb" viewBox="0 0 35 36">
			<path clip-rule="evenodd" d="M30.398.188H4.602C2.159.188.156 2.244.156 4.753v26.492c0 2.51 2.003 4.567 4.446 4.567h25.796c2.443 0 4.446-2.058 4.446-4.567V4.755c0-2.51-2.003-4.566-4.446-4.566zm-7.753 15.947L22.48 18h-3.462v11.875h-4.625V18H12.08v-4.75h2.313v-2.155c0-1.946.905-4.985 4.875-4.985l3.58.017v4.08h-2.602c-.423 0-1.012.209-1.012 1.134v1.909h3.667l-.256 2.885z"></path>
		</symbol>
	
		<symbol id="in" viewBox="0 0 36 36">
			<path clip-rule="evenodd" d="M31.246.188H4.754C2.244.188.188 2.244.188 4.753v26.492c0 2.509 2.057 4.567 4.566 4.567h26.492c2.51 0 4.567-2.058 4.567-4.567V4.755c0-2.51-2.058-4.566-4.567-4.566zM12.434 17.392v10.999H7.609V14.512h4.825v2.88zm-2.422-4.949a2.431 2.431 0 1 1 0-4.863 2.431 2.431 0 0 1 0 4.863zM28.39 20.82v7.57h-4.157v-6.74c0-1.615-.174-3.691-2.387-3.691-2.246 0-2.585 1.757-2.585 3.574v6.858h-4.008V14.512h3.86v1.855h.04c.576-1.039 1.986-1.857 4.086-1.857 3.538 0 4.74 1.673 5.07 4.291.078.614.108 1.277.108 2.02h-.027z"></path>
		</symbol>
	
		<symbol id="play" viewBox="0 0 14 22">
			<path d="M.791 2.025C.816.257 2.955-.611 4.205.639l8.713 8.713a2 2 0 0 1 0 2.828l-8.962 8.962c-1.27 1.27-3.44.353-3.414-1.442l.25-17.675z" fill="#fff"></path>
		</symbol>
	
		<symbol id="sound" viewBox="0 0 16 21">
			<path d="M15.855 18.86V.748c0-.286-.143-.5-.357-.642a.65.65 0 0 0-.714 0l-8.429 4.92H.501l15.354 13.832z" fill="#fff"></path><path d="M15.854 1.924v18.11c0 .286-.143.5-.357.643a.65.65 0 0 1-.714 0l-8.429-4.92-5.854-1L15.854 1.924z" fill="#fff"></path><path d="M.143 14.74C.07 14.599 0 14.457 0 14.314V5.757c0-.428.286-.713.714-.713h5.5l8.429 5.08c.071 0 .143-.071.143-.071L.143 14.74z" fill="#fff"></path><path d="M.143 5.757C.07 5.899 0 6.042 0 6.185v8.556c0 .428.286.713.714.713h5.5l8.429 4.92c.071 0 .143.07.143.07L.143 5.758z" fill="#fff"></path>
		</symbol>
	
		<symbol id="sound_off" viewBox="0 0 21 21">
			<g opacity=".7" fill="#fff"><path d="M20.284 20.243a.649.649 0 0 1-.5-.214L1.212 1.491a.688.688 0 0 1 0-.998.691.691 0 0 1 1 0L20.784 19.03a.688.688 0 0 1 0 .998.65.65 0 0 1-.5.214z"></path><path d="M18.854 19.102V.992c0-.285-.143-.5-.357-.642a.65.65 0 0 0-.714 0L9.354 5.27H4.997l13.857 13.832zM3.283 5.555c-.07.143-.142.285-.142.428v8.556c0 .428.285.713.714.713h5.5l8.428 4.92c.072 0 .143.071.143.071L3.283 5.555z"></path></g>
		</symbol>
	
		<symbol id="square" viewBox="0 0 291 290">
			<rect x="145.267" width="205" height="205" rx="30" transform="rotate(45 145.267 0)"></rect>
		</symbol>
	
		<symbol id="triangle" viewBox="0 0 76 76">
			<path d="M3.039 17.066C-3.253 10.764 1.21 0 10.115 0h55.762c5.523 0 10 4.477 10 10v55.85c0 8.912-10.779 13.372-17.076 7.065L3.039 17.065z"></path>
		</symbol>
	
		<symbol id="twitter" viewBox="0 0 36 36">
			<path clip-rule="evenodd" d="M31.246.188H4.753C2.245.188.187 2.244.187 4.753v26.492c0 2.51 2.058 4.567 4.566 4.567h26.493c2.51 0 4.567-2.058 4.567-4.567V4.755c0-2.51-2.058-4.566-4.567-4.566zm-3.79 13.038a13.19 13.19 0 0 1-.319 3.52c-1.236 5.48-5.922 10.763-13.548 10.763-2.753 0-5.317-.794-7.479-2.157.383.045.77.067 1.166.067a9.874 9.874 0 0 0 6.058-2.056c-2.135-.038-3.935-1.426-4.556-3.334a4.958 4.958 0 0 0 2.204-.081 4.854 4.854 0 0 1-3.569-2.971 4.694 4.694 0 0 1-.323-1.74v-.06c.668.36 1.4.576 2.199.601-1.308-.861-2.176-2.332-2.176-3.996 0-.88.24-1.705.658-2.415a13.92 13.92 0 0 0 10.052 5.018 4.875 4.875 0 0 1-.126-1.094c0-2.652 2.183-4.802 4.878-4.802 1.403 0 2.67.582 3.558 1.516a9.807 9.807 0 0 0 3.1-1.167 4.83 4.83 0 0 1-2.146 2.658 9.88 9.88 0 0 0 2.801-.755 9.81 9.81 0 0 1-2.432 2.485z"></path>
		</symbol>
	
		<symbol id="vk" viewBox="0 0 36 36">
			<path clip-rule="evenodd" d="M31.246.188H4.754C2.244.188.188 2.244.188 4.753v26.492c0 2.51 2.057 4.567 4.566 4.567h26.492c2.51 0 4.567-2.058 4.567-4.567V4.755c0-2.51-2.058-4.566-4.567-4.566zm-5.154 18.806c.118 1.116 4.03 3.456 3.737 5.256-.131.807-1.485.664-2.686.702-1.109.036-2.193-.036-2.684-.233-.812-.325-2.943-3.146-3.504-3.036-1.247.243-.795 2.853-1.167 3.036-.533.261-2.261.183-2.917.116-3.513-.59-5.55-2.945-7.473-5.956-2.352-3.68-3.743-6.444-3.152-6.773.649-.36 2.466-.284 4.32-.235.551.017 2.156 4.011 2.568 4.674 1.672 2.676 2.195.7 2.219.467.453-4.8-.722-4.583-1.402-4.673.513-1.556 4.086-1.284 4.086-1.284s1.195.29 1.634.584c.181.122.384.51.35 1.753-.048 1.871-.238 4.424.585 4.436.634.01 1.64-1.483 2.452-3.036.718-1.374 1.271-2.706 1.516-2.802.266-.105 1.414-.112 2.57-.119 1.13-.005 2.271-.014 2.568.235.599.505-.442 2.143-1.402 3.503-.786 1.118-2.302 2.589-2.218 3.385z"></path>
		</symbol>
	
</svg>
