<svg width="64" height="79" viewBox="0 0 64 79" fill="none" xmlns="http://www.w3.org/2000/svg">
<path d="M41.9093 1C35.4601 4.47065 23.7272 8.8478 22.1732 13.6653C21.4712 15.8414 22.5617 20.4253 22.7948 21.0469C22.9813 21.5442 23.8049 23.5851 24.1934 24.5434M24.1934 24.5434C24.1675 26.8744 23.8515 32.8885 22.7948 38.2965C21.4739 45.0565 18.4435 56.6339 17.0449 58.188C15.6463 59.742 13.1599 63.0831 12.7714 65.1811C12.3829 67.279 9.81872 70.2316 8.65321 71.2417C7.48769 72.2518 6.94379 74.4275 7.7985 74.6606C8.65321 74.8937 9.66333 74.7383 12.1498 73.8836C14.6362 73.0289 15.2578 73.4174 16.501 71.2417C16.6046 70.5424 17.2314 68.7864 18.9098 67.3567C21.0077 65.5696 24.1934 65.1811 25.4366 65.1811C25.9861 65.1811 28.8555 64.0932 27.7677 61.9953C26.6799 59.8974 25.4366 57.4109 25.4366 56.7116C25.4366 56.0123 25.2812 54.4583 27.2238 50.9618C28.2479 49.1183 29.9416 46.2382 31.5533 43.3689M24.1934 24.5434C24.7891 21.5649 24.3706 15.8409 28.1562 13.6653C31.9418 11.4896 42.3755 12.1889 47.7368 12.6552M45.2504 27.6515C45.2504 27.6515 42.2775 26.7874 39.6574 26.2455M39.6574 26.2455C38.1201 25.9276 36.7042 25.7207 36.0817 25.8643C36.9364 28.3508 36.781 32.6243 35.1493 36.4317C34.3778 38.2317 32.9985 40.7959 31.5533 43.3689M39.6574 26.2455L41.443 50.9618C41.5466 51.6093 42.5775 53.3239 45.872 55.0022C49.1665 56.6806 46.8303 59.5348 45.2504 60.7521C44.2921 61.4255 42.2822 63.3473 41.9093 65.6473C41.443 68.5222 42.764 67.8229 40.8991 71.2417C39.4073 73.9768 38.3091 76.7844 37.558 77.6132C36.7033 77.924 34.4033 77.2403 35.1493 73.8836C36.0817 69.6877 36.2371 67.9006 35.6932 65.1811C35.1493 62.4615 35.1493 56.5562 35.1493 56.0123C35.1493 55.4684 35.1493 52.0496 33.5952 48.4753C32.352 45.6159 31.7159 43.8796 31.5533 43.3689" stroke="white" stroke-width="2" stroke-linecap="round" stroke-linejoin="round"/>
<path d="M7.39091 35.1496V31.1479M7.39091 43.6578V39.7728M1 37.4806H5.15701M9.74137 37.4806H13.7624" stroke="white" stroke-width="2" stroke-linecap="round" stroke-linejoin="round"/>
<path d="M58.7937 7.58207V4.94031M58.7937 13.199V10.6342M54.5746 9.12097H57.3189M60.3454 9.12097H63" stroke="white" stroke-width="2" stroke-linecap="round" stroke-linejoin="round"/>
<circle cx="57.6658" cy="51.7556" r="3.09118" stroke="white" stroke-width="2"/>
</svg>
