<svg width="63" height="80" viewBox="0 0 63 80" fill="none" xmlns="http://www.w3.org/2000/svg">
<path d="M7.37017 39.2874V35.2988M7.37017 47.7681V43.8956M1 41.6109H5.14351M9.71299 41.6109H13.721" stroke="white" stroke-width="2" stroke-linecap="round" stroke-linejoin="round"/>
<path d="M57.4882 15.9254V13.2922M57.4882 21.5242V18.9677M53.2828 17.4593H56.0182M59.0349 17.4593H61.6809" stroke="white" stroke-width="2" stroke-linecap="round" stroke-linejoin="round"/>
<circle cx="58.5996" cy="63.8941" r="3.08114" stroke="white" stroke-width="2"/>
<circle cx="34.7697" cy="10.9628" r="9.82995" stroke="white" stroke-width="2"/>
<path d="M30.3462 70.9956C27.5377 73.9726 28.7547 76.2148 29.7143 76.9637C31.6244 78.3281 33.0313 77.7401 34.9293 75.6999M30.3462 70.9956C31.4533 69.822 33.119 68.083 34.9293 65.884M30.3462 70.9956C27.9969 68.2324 24.8329 63.3452 22.3914 58.0533M45.4422 36.7312C45.4422 42.0674 44.5294 46.1398 44.5294 46.1398C43.4718 54.1679 38.8597 61.1098 34.9293 65.884M38.958 70.7359C38.958 70.7359 40.2278 69.1346 40.9485 68.2572C42.7959 66.0082 45.1177 62.3561 47.0882 58.0533M38.958 70.7359C38.958 70.7359 42.2124 73.0318 40.9485 75.6999C39.6847 78.368 36.774 77.9467 34.9293 75.6999M38.958 70.7359C38.958 70.7359 36.0383 74.5078 34.9293 75.6999M34.9293 65.884C31.1782 61.6431 23.8023 49.8752 24.3078 36.7312M22.3914 58.0533C20.5521 54.0667 19.1229 49.8505 18.7609 46.1398C18.5268 41.5525 18.129 31.8864 18.4098 29.9204C18.7609 27.4629 21.4291 25.0054 24.9397 25.0054H44.0379C46.4252 24.9586 51.1998 25.9604 51.1998 30.3417C51.1998 32.9447 52.0812 40.8548 50.4274 48.3165C49.6755 51.7089 48.468 55.0406 47.0882 58.0533M22.3914 58.0533L15.18 78.9999M47.0882 58.0533L54.7104 78.9999" stroke="white" stroke-width="2" stroke-linecap="round" stroke-linejoin="round"/>
</svg>
