<svg 
 xmlns="http://www.w3.org/2000/svg"
 xmlns:xlink="http://www.w3.org/1999/xlink"
 width="35px" height="29px">
<path fill-rule="evenodd"  fill="rgb(23, 174, 16)"
 d="M34.451,0.753 C33.907,0.046 32.893,-0.086 32.186,0.458 C30.037,2.112 27.943,3.841 25.960,5.679 C23.980,7.518 22.043,9.408 20.203,11.381 C18.355,13.348 16.561,15.364 14.826,17.433 C13.979,18.448 13.152,19.460 12.335,20.493 C11.664,19.600 10.985,18.714 10.288,17.840 C8.754,15.906 7.148,14.020 5.463,12.180 C4.352,10.966 2.467,10.883 1.252,11.994 C0.037,13.104 -0.047,14.988 1.064,16.203 L1.077,16.216 C2.644,17.928 4.163,19.710 5.621,21.548 C6.352,22.465 7.070,23.396 7.773,24.336 C8.469,25.268 9.177,26.243 9.808,27.158 L9.890,27.277 C10.116,27.598 10.411,27.879 10.769,28.096 C12.146,28.928 13.937,28.487 14.770,27.111 C16.064,24.972 17.532,22.765 19.014,20.646 C20.508,18.516 22.065,16.429 23.679,14.387 C25.285,12.336 26.983,10.368 28.727,8.443 C30.475,6.519 32.325,4.706 34.233,2.954 L34.269,2.922 C34.876,2.361 34.965,1.420 34.451,0.753 Z"/>
</svg>