<svg id="Layer_1" data-name="Layer 1" xmlns="http://www.w3.org/2000/svg" viewBox="0 0 314.7 132.4"><defs><style>.cls-3{fill:#a7a9ac}.cls-4{fill:#ffc20e}</style></defs><path d="M58.3 26.8a49 49 0 0 0 0 98h204.1a49 49 0 0 0 0-98z" transform="translate(-.8 -.7)" fill="#fff"/><path d="M262.4 128.9H58.3a53.15 53.15 0 0 1 0-106.3h204.1a53.15 53.15 0 0 1 0 106.3M58.3 26.8a49 49 0 0 0 0 98h204.1a49 49 0 0 0 0-98z" transform="translate(-.8 -.7)" fill="#c7c8ca"/><path d="M237.9 46a14.35 14.35 0 1 0 14.3 14.4A14.32 14.32 0 0 0 237.9 46m0 21.7a7.4 7.4 0 1 1 7.4-7.4 7.38 7.38 0 0 1-7.4 7.4M172.1 46a14.35 14.35 0 1 0 14.4 14.4A14.32 14.32 0 0 0 172.1 46m0 21.7a7.4 7.4 0 1 1 7.4-7.4 7.38 7.38 0 0 1-7.4 7.4" transform="translate(-.8 -.7)"/><path d="M222.7 68.1a11.86 11.86 0 0 1-2.8.5c-2.5 0-3-.8-3-3.2V52.2h5.9v-5.5h-5.9v-7.8h-6.6l-1.4 7.8h-5c-3.8 0-6.6 2.3-8.4 5.9l-2.3-5.9h-4.7v27.5h8.1v-12c0-6 3.6-9.9 7.8-10h4.4v13.7c0 6.4 3.3 8.8 8.7 8.8a20.28 20.28 0 0 0 6.2-1z" transform="translate(-.8 -.7)"/><path d="M261.3 54.7v18.8h-7.9V46h4.8l1.6 4.2"/><path d="M260.6 50.9c2.4-2.8 5.7-4.9 9.5-4.9 6.6 0 9.2 5.2 9.2 10.1v18.1h-8.1V56.3c0-2.4-2-3.6-4.1-3.6-2.3 0-3.7 1.3-5 2.7" transform="translate(-.8 -.7)"/><path d="M125.4 36h9l12.4 23.6V36h7.5v37.5h-8.2l-13.2-25.9v25.9h-7.5V36z"/><path class="cls-3" d="M302.4 21.9v1.4h-2v6.6h-1.5v-6.6H297v-1.4h5.4zM303.5 29.9v-8h2.1l1.3 5.2 1.4-5.2h2.1v8h-1.2v-6.2h-.1l-1.6 6.2h-1.1l-1.6-6.2v6.2h-1.3z"/><path class="cls-3" d="M124 107.4l1.9-2.9a11.27 11.27 0 0 0 6.6 2.2c2.7 0 4.4-1.2 4.4-3.4 0-2.4-2.1-3.1-5.6-4.3-3.1-1.1-6.2-2.7-6.2-7.1 0-4.1 3.3-6.4 7.6-6.4a13.14 13.14 0 0 1 6.8 1.6l-1.5 3.1a10.53 10.53 0 0 0-5.2-1.3c-2.4 0-3.9.9-3.9 2.9 0 2.3 1.7 2.8 4.9 3.9s7 2.6 7 7.5c0 4.1-3 6.8-8.2 6.8a12.94 12.94 0 0 1-8.6-2.6" transform="translate(-.8 -.7)"/><path class="cls-3" d="M147 85.3h14.2v3.3h-10.1v6.5h8v3.2h-8v7.5h10.7v3.3H147V85.3z"/><path class="cls-3" d="M168.4 97.9c0-7 3.3-12.3 10-12.3a8.59 8.59 0 0 1 7 2.9l-2.4 2.7a5.88 5.88 0 0 0-4.6-2.1c-3.9 0-5.7 3.2-5.7 9.1 0 5.5 1.9 8.3 5.7 8.3a6.56 6.56 0 0 0 4.9-2.5l2.4 2.6a9 9 0 0 1-7.4 3.4c-6.7.1-9.9-5.1-9.9-12.1M192.4 100.7V86h4.1v15.4c0 3.3.8 5.4 4.3 5.4s4.3-2.1 4.3-5.4V86h4.1v14.7c0 5.9-2.3 9.4-8.4 9.4s-8.4-3.5-8.4-9.4M233.9 109.8h-4.4l-4.6-10.1h-3.8v10.1h-4V86h7.8c4.8 0 8.6 1.7 8.6 6.9a6.1 6.1 0 0 1-4.5 6.2zm-9.1-13.2c3 0 4.6-1 4.6-3.7s-1.6-3.6-4.3-3.6h-3.8v7.3z" transform="translate(-.8 -.7)"/><path class="cls-3" d="M240 85.3h14.2v3.3h-10.1v6.5h8v3.2h-8v7.5h10.7v3.3H240V85.3z"/><path class="cls-3" d="M262.4 86h5.9c7.8 0 11.5 4.2 11.5 11.8 0 7.8-3.8 12-11.3 12h-6.2V86zm5.7 20.5c5.6 0 7.5-2.6 7.5-8.7 0-5.4-1.5-8.5-7-8.5h-2.2v17.2z" transform="translate(-.8 -.7)"/><path class="cls-4" d="M58.1 133.1a57.3 57.3 0 1 1 57.3-57.3 57.36 57.36 0 0 1-57.3 57.3m0-96.5a39.26 39.26 0 1 0 27.7 11.5 38.88 38.88 0 0 0-27.7-11.5" transform="translate(-.8 -.7)"/><path class="cls-4" d="M119.7 8.9h4.5v4.5h-4.5zM119.7 0h4.5v4.5h-4.5zM107.2 13.3h4.2v4.4h-4.2z"/><path d="M98.9 21.9h4.2v4.2h-4.2zM111.3 17.7h4.7v4.2h-4.7zM94.7 17.9h4.2v4h-4.2zM107.2 21.9h4.2v4.2h-4.2zM115.3 4.5h4.4v4.4h-4.4zM107.2 8.9h8.2v4.4h-8.2zM103.1 13.3h4.1v8.6h-4.1z"/><path d="M103.9 26.8V31h-4.2v-4.2h-7v3H89v3.7h4.2v4.2H89v-4.2h-4.4V40h-4.2v4.2h-2.8v4.2h-3.1C71 53.6 62.4 69.5 59.8 76c-9.4-13.1-16.7-18.3-22.5-20.2-3.1-.9-6.8 2.4-1.7 7.8 11.8 13 15.6 23.8 19.2 32.4 1.9 4.5 10.4 5.2 12.1.6a134.55 134.55 0 0 1 15.2-29.7v-4.7h3.3V58H89v-4.9h4.2v-4.7H89v-4.3h4.2v4.3h4.1v-4.2h3.3v-5.1h3.7v-3.5h3.6v-8.9h-4z" transform="translate(-.8 -.7)"/></svg>