<!DOCTYPE svg PUBLIC "-//W3C//DTD SVG 20010904//EN" "http://www.w3.org/TR/2001/REC-SVG-20010904/DTD/svg10.dtd">
<svg version="1.0" xmlns="http://www.w3.org/2000/svg" width="100%" height="auto" viewBox="0 0 1010 770" preserveAspectRatio="xMidYMid meet">
<g id="layer101" fill="#e09f65" stroke="none">
 <path d="M808 719 c-42 -32 -68 -58 -68 -70 0 -27 13 -24 71 18 l51 37 -7 -35 c-22 -104 -94 -248 -167 -336 -134 -161 -368 -274 -600 -290 -77 -5 -88 -8 -88 -24 0 -17 8 -19 63 -19 144 0 350 65 480 150 171 111 280 263 341 472 l22 77 37 -49 c38 -50 67 -65 67 -32 -1 26 -98 152 -118 152 -9 0 -47 -23 -84 -51z"/>
 </g>

</svg>