<svg 
 xmlns="http://www.w3.org/2000/svg"
 xmlns:xlink="http://www.w3.org/1999/xlink"
 width="14px" height="15px">
<path fill-rule="evenodd"  fill="rgb(247, 90, 0)"
 d="M11.500,10.312 L10.188,10.312 L10.188,11.656 C10.188,13.037 9.068,14.156 7.688,14.156 L6.312,14.156 C4.932,14.156 3.812,13.037 3.812,11.656 L3.812,10.312 L2.500,10.312 C1.119,10.312 -0.000,9.193 -0.000,7.813 L-0.000,6.375 C-0.000,4.994 1.119,3.875 2.500,3.875 L3.812,3.875 L3.812,2.500 C3.812,1.119 4.932,0.000 6.312,0.000 L7.688,0.000 C9.068,0.000 10.188,1.119 10.188,2.500 L10.188,3.875 L11.500,3.875 C12.881,3.875 14.000,4.994 14.000,6.375 L14.000,7.813 C14.000,9.193 12.881,10.312 11.500,10.312 Z"/>
</svg>