<svg width="1760" height="163" viewBox="0 0 1760 163" fill="none" xmlns="http://www.w3.org/2000/svg">
<path opacity="0.5" d="M19.5 161.3C24.3 161.3 36.5 157.6 43.5 149.9C50.5 142.2 57.9 131.1 65.3 130C72.7 128.9 77.1 132.9 83 135.9C88.9 138.9 90.6 131.8 98.8 124.1C107 116.4 113.2 110.8 122.8 111.2C132.4 111.6 136.4 118.6 145.7 127.4C154.9 136.2 158.2 138.5 165.6 132.9C173 127.4 175.2 122.9 182.9 126.6C190.6 130.3 192.1 135.4 196.9 134C201.7 132.5 204.6 128.8 209.8 131.4C215 134 217.9 133.6 221.6 130.3C225.3 127 232.3 128.4 243.7 136.2C255.1 144 268.8 151 282 154.6C295.2 158.2 324.4 161.2 324.4 161.2H19.5" fill="url(#paint0_linear)"/>
<path opacity="0.5" d="M1445.6 162H1570C1570 162 1557.4 158.2 1551.2 151.8C1545 145.4 1540.5 142.9 1537.1 143.1C1533.6 143.3 1528.9 148.8 1524.7 145.3C1520.5 141.8 1516 139.4 1512.1 139.6C1508.2 139.8 1502.9 146 1500.5 145.8C1498.1 145.6 1495 140.6 1491.6 137.1C1488.1 133.6 1480 133.9 1476 138.8C1472 143.7 1466.5 151.5 1462.4 154.4C1455.3 159.4 1445.6 162 1445.6 162Z" fill="url(#paint1_linear)"/>
<g opacity="0.5">
<path opacity="0.5" d="M935.4 148.2C928.1 142.7 921.8 141.9 917.1 145.3C912.3 148.6 908.1 148 903.5 146C899 144 892.9 146.5 886.9 152.3C880.9 158.1 872.8 161.7 872.1 161.7H949.5C949.5 161.6 942.7 153.7 935.4 148.2Z" fill="url(#paint2_linear)"/>
<path opacity="0.5" d="M973.9 161.6V107.9C973.9 106.3 975.2 104.9 976.9 104.9H1059.2C1060.8 104.9 1062.2 106.2 1062.2 107.9V161.6H973.9Z" fill="url(#paint3_linear)"/>
<path opacity="0.5" d="M1093.3 133.3V128.8C1093.3 127.8 1092.5 127 1091.5 127H1050.3C1049.3 127 1048.5 127.8 1048.5 128.8V161.6H1142.5V134.8C1142.5 134 1141.8 133.3 1141 133.3H1093.3Z" fill="url(#paint4_linear)"/>
<path opacity="0.5" d="M1208.4 133.1H1182.7V161.6H1208.4V133.1Z" fill="url(#paint5_linear)"/>
<path opacity="0.5" d="M1224.7 133.1H1208.4V161.6H1224.7V133.1Z" fill="url(#paint6_linear)"/>
<path opacity="0.5" d="M976.9 104.9C975.3 104.9 973.9 106.2 973.9 107.9V161.6H1030.6V109C1030.6 106.8 1028.8 105 1026.6 105H976.9V104.9Z" fill="url(#paint7_linear)"/>
<path opacity="0.5" d="M1093.3 161.6H1142.6V134.8C1142.6 134 1141.9 133.3 1141.1 133.3H1093.4V161.6H1093.3Z" fill="url(#paint8_linear)"/>
</g>
<path d="M737.5 47.2H745.5C747.4 47.2 748.9 45.7 748.9 43.8C748.9 41.9 747.4 40.4 745.5 40.4H737.5V47.2Z" fill="url(#paint9_linear)"/>
<path d="M624.4 116.8H618.4V117.6C608.8 120.2 601.8 129 601.8 139.4C601.8 149.8 608.8 158.6 618.4 161.2V162H624.4C636.9 162 647 151.9 647 139.4C647 126.9 636.9 116.8 624.4 116.8Z" fill="#9DA2AB"/>
<path d="M618.4 162C630.882 162 641 151.882 641 139.4C641 126.918 630.882 116.8 618.4 116.8C605.918 116.8 595.8 126.918 595.8 139.4C595.8 151.882 605.918 162 618.4 162Z" fill="url(#paint10_linear)"/>
<path d="M630.1 158.8C626.7 160.8 622.7 162 618.5 162C606 162 595.9 151.9 595.9 139.4" stroke="#6D737D" stroke-width="0.7" stroke-miterlimit="10" stroke-linecap="round" stroke-linejoin="round"/>
<path d="M617.8 153.7C625.698 153.7 632.1 147.298 632.1 139.4C632.1 131.502 625.698 125.1 617.8 125.1C609.902 125.1 603.5 131.502 603.5 139.4C603.5 147.298 609.902 153.7 617.8 153.7Z" fill="#9DA2AB"/>
<path d="M617.8 143.4C620.009 143.4 621.8 141.609 621.8 139.4C621.8 137.191 620.009 135.4 617.8 135.4C615.591 135.4 613.8 137.191 613.8 139.4C613.8 141.609 615.591 143.4 617.8 143.4Z" fill="#6D737D"/>
<path d="M625.8 120.3L616.2 136.9C615.5 138.1 615.8 139.7 617 140.4C618.2 141.1 619.8 140.8 620.5 139.6L630 123.3" stroke="#6D737D" stroke-width="1.2" stroke-miterlimit="10" stroke-linecap="round" stroke-linejoin="round"/>
<path d="M754.1 116.8H748.1V117.6C738.5 120.2 731.5 129 731.5 139.4C731.5 149.8 738.5 158.6 748.1 161.2V162H754.1C766.6 162 776.7 151.9 776.7 139.4C776.7 126.9 766.6 116.8 754.1 116.8Z" fill="#9DA2AB"/>
<path d="M652.5 97.9L644.3 114.5C643.5 116.2 643.8 118.3 645.2 119.6L664.9 139.1H679.6L662 119.7C660.7 118.3 660.5 116.2 661.4 114.5L670.8 97.9H652.5Z" fill="url(#paint11_linear)"/>
<path d="M658.3 97.9H683.2V94.6C683.2 87.1 677.1 81 669.6 81H641.7L658.3 97.9Z" fill="url(#paint12_linear)"/>
<path d="M704.1 139.1H726.1L752.8 110.6L736.9 102.7L704.1 139.1Z" fill="url(#paint13_linear)"/>
<path d="M683.9 27.8C683.9 27.8 687.2 26.7 690.6 28.4C694 30.1 697.6 34.9 699.8 36.8C702 38.7 708.1 44.2 713.2 43.6C718.3 43 729.4 38.4 733 37.5999C736.6 36.7999 742.5 34.2999 744.5 38.0999C746.5 41.7999 744.6 44.1999 742.5 42.5999C740.3 41.0999 737.9 40.2999 736.2 41.0999C734.5 41.9 733.5 40.8 731.8 41.8C730.1 42.7 717.3 50.8 713.3 52.2C709.3 53.6 705.7 53.1 697 48C687.8 42.6 686.2 40.8 685.5 40.2C684.8 39.6 680.5 37.8 681.3 33.3C682.1 28.8 683.9 27.8 683.9 27.8Z" fill="white"/>
<path d="M720.8 38.1C722 36.2 723.5 33.1 729.9 33.1C736.3 33.1 737.8 33.4 739.7 39.5C741.6 45.7 741.1 49.3 741.1 49.3H718.1C718.1 49.3 717.8 42.9 720.8 38.1Z" fill="url(#paint14_linear)"/>
<path d="M719.3 40.1H707.4V40.2C705.5 40.2 703.9 41.7 703.9 43.7C703.9 45.7 705.4 47.2 707.4 47.2V47.4H719.3C721.3 47.4 722.9 45.8 722.9 43.8C722.9 41.8 721.3 40.1 719.3 40.1Z" fill="url(#paint15_linear)"/>
<path d="M742.6 42.9C743.7 43.3 744.8 43.1 745.6 42C746.6 40.4 744.5 37.4 742.5 36.5C742 36.3 741.6 36.2 741.2 36.1" stroke="#6D737D" stroke-width="1.2" stroke-miterlimit="10" stroke-linecap="round" stroke-linejoin="round"/>
<path d="M707.3 40.4001L718.6 40.3C720.2 40.3 722.9 41.1001 722.9 43.7001" stroke="#6D737D" stroke-width="1.2" stroke-miterlimit="10" stroke-linecap="round" stroke-linejoin="round"/>
<path d="M707.5 47.2L719.8 47.1" stroke="#6D737D" stroke-width="1.2" stroke-miterlimit="10" stroke-linecap="round" stroke-linejoin="round"/>
<path d="M719.6 40.2999C719.6 40.2999 721.2 36.4 723.9 34.7C726.6 33 727.6 32.9999 733.1 33.0999C737.8 33.1999 741.1 39.4999 741.1 49.2999H718.7" stroke="#6D737D" stroke-width="1.2" stroke-miterlimit="10" stroke-linecap="round" stroke-linejoin="round"/>
<path d="M726.1 43C726.1 43 725.9 39.7 727.3 36.9C728.7 34.1 730 33.1 733.1 33.1" stroke="#6D737D" stroke-width="1.2" stroke-miterlimit="10" stroke-linecap="round" stroke-linejoin="round"/>
<path d="M741 47.1H745.5C745.5 47.1 747.9 46.8 748.6 44.1C749.1 42.5 748.6 41.2 748.1 40.4" stroke="#6D737D" stroke-width="1.2" stroke-miterlimit="10" stroke-linecap="round" stroke-linejoin="round"/>
<path d="M649 25.5H605.3V67.6H649V25.5Z" fill="url(#paint16_linear)"/>
<path d="M667.6 25.5H649V67.6H667.6V25.5Z" fill="#F9A932"/>
<path d="M632.5 47.6C632.2 47.3 631.6 47.3 631.3 47.6L628.2 50.7C627.9 51 627.9 51.6 628.2 51.9L631.3 55C631.6 55.3 632.2 55.3 632.5 55L635.6 51.9C635.9 51.6 635.9 51 635.6 50.7L632.5 47.6Z" fill="#6D737D"/>
<path d="M631.3 45.5C631.6 45.8 632.2 45.8 632.5 45.5L635.6 42.4C635.9 42.1 635.9 41.5 635.6 41.2L632.5 38.1C632.2 37.8 631.6 37.8 631.3 38.1L628.9 40.5C628.7 40.6 628 41.2 627.2 41.2C626.2 41.2 625.5 40.5 625.5 40.5L623.1 38.1C622.8 37.8 622.2 37.8 621.9 38.1L618.8 41.2C618.5 41.5 618.5 42.1 618.8 42.4L621.2 44.8C621.3 44.9 621.9 45.6 621.9 46.5C621.9 47.4 621.4 48 621.2 48.2L618.7 50.7C618.4 51 618.4 51.6 618.7 51.9L621.9 55C622.2 55.3 622.8 55.3 623.1 55L626.2 51.9C626.5 51.6 626.5 51 626.2 50.7L623.8 48.3C623.7 48.1 623.1 47.4 623.1 46.6C623.1 45.8 623.6 45.1 623.8 44.9L625.5 43.2C625.5 43.2 626.2 42.5 627.2 42.5C628.1 42.5 628.7 43 628.9 43.2L631.3 45.5Z" fill="#6D737D"/>
<path d="M605.3 25.9H649V35.2" stroke="#6D737D" stroke-width="0.7" stroke-miterlimit="10" stroke-linecap="round" stroke-linejoin="round"/>
<path d="M669.8 63.9C669.8 63.9 686.9 72.1 692 75.5C697.1 78.9 696.6 80.9 697.3 83.9C698 86.9 706.2 110.7 707.4 113.5C708.6 116.3 711.5 115.1 715 113.5C718.5 111.9 720.5 110 721.8 111.1C721.8 111.1 716.9 119.2 711.7 123.2C706.4 127.2 704.6 126.9 703.7 122.6C702.8 118.3 700.4 117.9 695.8 108.8C691.2 99.7 684.1 87 684.1 87L659.5 78.2C659.5 78.2 653.8 75.7 657.3 70.6C660.7 65.4 669.8 63.9 669.8 63.9Z" fill="url(#paint17_linear)"/>
<path d="M721.8 67.6V93C721.8 93.4 721.7 93.8 721.6 94.2L712.1 117.8L715.1 120L734.4 98.1L721.8 67.6Z" fill="url(#paint18_linear)"/>
<path d="M706 37C701.8 38.2 687.3 48.1 684.1 48.5C685.9 45.1 688.3 43.1 688.5 37C688.6 34.2 688 31.8 686.9 29C686.4 27.9 685.9 27.1 686.2 26.1C686.5 24.9 686.9 25.1 688 24.5C689.1 23.8 689.8 23.2 690.6 22.1C691.4 20.9 692.2 19.5 693 16.4C694.6 10 693.2 2.99999 687.6 2.49999C682 2.09999 677.8 5 678 11.2C678.2 15.6 679 19 678.5 20.9C678.3 21.9 676.7 23.4 674.8 23.9C672.9 24.3 670.2 24.6 667.8 25.3C664.3 26.4 660.6 29 656.9 34.8C654.2 39 651.5 43.1 646.2 52.8C643.2 58.2 638.2 63.2 638.9 71.7C639.3 77.5 641.8 80.7 648.6 81.6C654.6 82.4 671.7 89.5 675.1 91.4C678.5 93.3 680.8 95.7 684.2 102.4C687.6 109.1 698.6 125.5 699.2 126.3C701.4 129.1 703.7 132.3 705.5 130.3C707.6 128 715.9 119 718.1 116.6C720.3 114.2 719.9 113.2 716.6 115.3C713.3 117.5 706.7 121.5 704.2 118.9C702.1 116.7 695.6 101.2 692.4 91.9C689.1 82.7 689.5 80.4 682.2 77.1C678.6 75.4 672.6 72.8 667.4 70.6C667.6 70.4 670.4 67.5 673.6 63.1C675.3 60.7 676 58.8 677.8 56.4C677.8 56.4 679.5 59.2 683.3 58.7C687.1 58.2 694.8 51.7 698.5 49.2C702.2 46.6 704.4 44.7 705.1 43.2C705.8 41.7 705 40.2 707.5 40.2C710 40.2 710.2 43.4 710.5 44.1C710.8 44.8 713.1 44.8 714.6 44.1C716.1 43.4 716.6 40.8 715.3 39C713.9 37.1 711.1 35.5 706 37Z" fill="url(#paint19_linear)"/>
<path d="M703.9 10.5H677.4C677.4 10.5 677.1 1.09998 686.2 1.09998C695.2 1.09998 695.3 10.5 695.3 10.5" stroke="#6D737D" stroke-width="1.2" stroke-miterlimit="10" stroke-linecap="round" stroke-linejoin="round"/>
<path d="M687.6 27.8C687.6 27.8 690.2 27.5 692.7 29.8C695.2 32.1 700.7 37.7 700.7 37.7" stroke="#6D737D" stroke-width="1.2" stroke-miterlimit="10" stroke-linecap="round" stroke-linejoin="round"/>
<path d="M701.5 50.6C701.5 50.6 707.3 53.1 709.8 53.1C712.4 53.1 715.6 51.3 715.6 51.3" stroke="#6D737D" stroke-width="1.2" stroke-miterlimit="10" stroke-linecap="round" stroke-linejoin="round"/>
<path d="M665.3 42.8C665.3 42.8 673.3 52.3001 677.7 56.2001C682.1 60.2001 684 59.0001 687.6 56.7001C691.1 54.4001 694.1 52.2001 694.1 52.2001" stroke="#6D737D" stroke-width="1.2" stroke-miterlimit="10" stroke-linecap="round" stroke-linejoin="round"/>
<path d="M670.2 32.1C670.2 32.1 675.8 38.6 678.8 42.8C681.7 47 682.9 48.8 684.2 48.5C685.5 48.2 692.5 44.4 692.5 44.4" stroke="#6D737D" stroke-width="1.2" stroke-miterlimit="10" stroke-linecap="round" stroke-linejoin="round"/>
<path d="M649.4 26.3H667.6C673.2 26.3 675.1 28.7001 676.9 31.0001C680.2 35.3001 678.1 41.9001 678.1 41.9001" stroke="#6D737D" stroke-width="1.2" stroke-miterlimit="10" stroke-linecap="round" stroke-linejoin="round"/>
<path d="M641.7 58.6C641.7 58.6 644.7 59.8 655.1 58.6C667.6 57.2 672.4 50.8 672.4 50.8" stroke="#6D737D" stroke-width="1.2" stroke-miterlimit="10" stroke-linecap="round" stroke-linejoin="round"/>
<path d="M658.8 67.6C658.8 67.6 666.2 69.5 675.9 74.2C685.6 78.9 688 79 690 84.7C692 90.4 697.2 106 701.4 113.7C704.8 119.9 706.2 120.2 709.4 119.1C711.7 118.2 714 116.8 716.8 115.2" stroke="#6D737D" stroke-width="1.2" stroke-miterlimit="10" stroke-linecap="round" stroke-linejoin="round"/>
<path d="M667.4 70.5C667.4 70.5 671.1 67.1 673.6 63" stroke="#6D737D" stroke-width="1.2" stroke-miterlimit="10" stroke-linecap="round" stroke-linejoin="round"/>
<path d="M704.7 41.7999C705.9 39.8999 709.3 39.7999 710.2 42.0999C710.9 43.8999 710.6 46.3 707.8 46.9C705.2 47.5 704.1 44.7999 704.1 44.7999" stroke="#6D737D" stroke-width="1.2" stroke-miterlimit="10" stroke-linecap="round" stroke-linejoin="round"/>
<path d="M747.8 89.6L728.9 53.1L722.5 59.4C722.1 59.8 721.9 60.3 721.9 60.8V67.6L733.8 96.4C734.3 97.5 734 98.8 733.2 99.6L702.6 133.5L658.8 132.9L645.3 119.5C643.9 118.2 643.6 116.1 644.4 114.4L652.6 97.8H658.4V93.7C658.4 86.6 652.7 80.9 645.6 80.9H618.8C618.4 80.9 618.1 81 617.8 81.3L606.2 92.9C605.7 93.4 605.4 94.1 605.4 94.8V97.8V98.1C605.4 98.9 605.8 99.7 606.4 100.2L627.8 117L642 128.3C645.4 131.6 647.1 134.5 647.1 139.1H704.1L735.6 104.2C736.4 103.3 737.6 103.1 738.7 103.6L764.8 116.5C765.2 116.7 765.7 116.8 766.2 116.8H769.9L747.8 89.6Z" fill="url(#paint20_linear)"/>
<path d="M728.8 53.1H740C740.7 53.1 741.3 53.5 741.6 54.1L759.4 92.5L778 115C778.6 115.7 778.1 116.7 777.2 116.7H766.7C765.9 116.7 765.1 116.3 764.6 115.7L746.6 92.5L728.8 53.1Z" fill="url(#paint21_linear)"/>
<path d="M610.6 92.2L628.6 107.8" stroke="#6D737D" stroke-width="1.2" stroke-miterlimit="10" stroke-linecap="round" stroke-linejoin="round"/>
<path d="M675.2 97.9H631.6" stroke="#6D737D" stroke-width="1.2" stroke-miterlimit="10" stroke-linecap="round" stroke-linejoin="round"/>
<path d="M658.3 97.9C658.3 97.9 658.3 97.2999 658.3 93.7999C658.3 90.0999 656.7 87.7 656.7 87.7" stroke="#6D737D" stroke-width="1.2" stroke-miterlimit="10" stroke-linecap="round" stroke-linejoin="round"/>
<path d="M652.5 97.9L648.9 105.2" stroke="#6D737D" stroke-width="0.7" stroke-miterlimit="10" stroke-linecap="round" stroke-linejoin="round"/>
<path d="M651.4 125.1L658.7 133L680.5 133.3" stroke="#6D737D" stroke-width="0.7" stroke-miterlimit="10" stroke-linecap="round" stroke-linejoin="round"/>
<path d="M630.4 132.8L625.4 139.3C624.8 140.1 623.7 140.2 623 139.6L598 120.4C597.2 119.8 597.1 118.7 597.7 118L602.7 111.5C603.3 110.7 604.4 110.6 605.1 111.2L630.1 130.4C630.9 131 631 132.1 630.4 132.8Z" fill="url(#paint22_linear)"/>
<path d="M598 120.4C597.2 119.8 597.1 118.7 597.7 118L602.7 111.5" stroke="#6D737D" stroke-width="1.2" stroke-miterlimit="10" stroke-linecap="round" stroke-linejoin="round"/>
<path d="M748.1 162C760.582 162 770.7 151.882 770.7 139.4C770.7 126.918 760.582 116.8 748.1 116.8C735.618 116.8 725.5 126.918 725.5 139.4C725.5 151.882 735.618 162 748.1 162Z" fill="url(#paint23_linear)"/>
<path d="M741.2 117.9C743.4 117.2 745.7 116.8 748.1 116.8C760.6 116.8 770.7 126.9 770.7 139.4" stroke="#6D737D" stroke-width="0.7" stroke-miterlimit="10" stroke-linecap="round" stroke-linejoin="round"/>
<path d="M727.7 149.2C726.3 146.2 725.5 142.9 725.5 139.4C725.5 133.1 728.1 127.4 732.2 123.3" stroke="#6D737D" stroke-width="0.7" stroke-miterlimit="10" stroke-linecap="round" stroke-linejoin="round"/>
<path d="M747.5 153.7C755.398 153.7 761.8 147.298 761.8 139.4C761.8 131.502 755.398 125.1 747.5 125.1C739.603 125.1 733.2 131.502 733.2 139.4C733.2 147.298 739.603 153.7 747.5 153.7Z" fill="#9DA2AB"/>
<path d="M747.5 143.4C749.709 143.4 751.5 141.609 751.5 139.4C751.5 137.191 749.709 135.4 747.5 135.4C745.291 135.4 743.5 137.191 743.5 139.4C743.5 141.609 745.291 143.4 747.5 143.4Z" fill="#6D737D"/>
<path d="M735.9 114.4L748.9 136.9C749.6 138.1 749.3 139.7 748.1 140.4C746.9 141.1 745.3 140.8 744.6 139.6L732.2 118.3" stroke="#6D737D" stroke-width="1.2" stroke-miterlimit="10" stroke-linecap="round" stroke-linejoin="round"/>
<path d="M619.1 121.9L646.4 142.5C648.2 143.8 650.8 143.5 652.2 141.7C653.6 139.9 653.3 137.3 651.5 135.9L612.7 105.2" stroke="#6D737D" stroke-width="1.2" stroke-miterlimit="10" stroke-linecap="round" stroke-linejoin="round"/>
<path d="M606.3 126.8L622.8 139.5C623.7 140.2 625 140 625.7 139.1L630.5 132.8C630.5 132.8 631.4 131.8 631 130.9" stroke="#6D737D" stroke-width="1.2" stroke-miterlimit="10" stroke-linecap="round" stroke-linejoin="round"/>
<path d="M628.6 135.2L643.5 146.1C647.3 148.9 652.7 148.2 655.7 144.5C655.7 144.5 657.3 142.8 657.9 141.5" stroke="#6D737D" stroke-width="1.2" stroke-miterlimit="10" stroke-linecap="round" stroke-linejoin="round"/>
<path d="M737.5 72.3L746.6 92.6L761.8 112.1" stroke="#6D737D" stroke-width="1.2" stroke-miterlimit="10" stroke-linecap="round" stroke-linejoin="round"/>
<path d="M732.7 93.8L721.9 67.6V60.8C721.9 60.8 721.7 60.2 722.5 59.4C723.3 58.6 728.9 53.1 728.9 53.1L733 62.3" stroke="#6D737D" stroke-width="0.7" stroke-miterlimit="10" stroke-linecap="round" stroke-linejoin="round"/>
<path d="M728.8 53.1H738.9" stroke="#6D737D" stroke-width="0.7" stroke-miterlimit="10" stroke-linecap="round" stroke-linejoin="round"/>
<path d="M696.1 139.1H704.1L727.6 113.1" stroke="#6D737D" stroke-width="1.2" stroke-miterlimit="10" stroke-linecap="round" stroke-linejoin="round"/>
<path d="M495.1 162H1168.1" stroke="#6D737D" stroke-width="1.2" stroke-miterlimit="10" stroke-linecap="round" stroke-linejoin="round"/>
<path d="M0.599976 162H371.5" stroke="#6D737D" stroke-width="1.2" stroke-miterlimit="10" stroke-linecap="round" stroke-linejoin="round"/>
<path d="M1401 162H1759.4" stroke="#6D737D" stroke-width="1.2" stroke-miterlimit="10" stroke-linecap="round" stroke-linejoin="round"/>
<path d="M1324.4 162H1374.9" stroke="#6D737D" stroke-width="1.2" stroke-miterlimit="10" stroke-linecap="round" stroke-linejoin="round"/>
<defs>
<linearGradient id="paint0_linear" x1="171.934" y1="160.616" x2="171.934" y2="124.484" gradientUnits="userSpaceOnUse">
<stop stop-color="#D8E0E3"/>
<stop offset="0.3563" stop-color="#DDE5E8"/>
<stop offset="0.8244" stop-color="#EAF1F5"/>
</linearGradient>
<linearGradient id="paint1_linear" x1="1507.82" y1="162.114" x2="1506.83" y2="135.604" gradientUnits="userSpaceOnUse">
<stop stop-color="#D8E0E3"/>
<stop offset="0.672" stop-color="#EAF1F5"/>
</linearGradient>
<linearGradient id="paint2_linear" x1="910.823" y1="158.403" x2="910.823" y2="150.52" gradientUnits="userSpaceOnUse">
<stop stop-color="#D8E0E3"/>
<stop offset="0.672" stop-color="#EAF1F5"/>
</linearGradient>
<linearGradient id="paint3_linear" x1="1056.13" y1="133.491" x2="1006.01" y2="133.218" gradientUnits="userSpaceOnUse">
<stop stop-color="#C5CCCF"/>
<stop offset="0.672" stop-color="#D1D8DB"/>
</linearGradient>
<linearGradient id="paint4_linear" x1="1110.85" y1="155.674" x2="1054.16" y2="126.369" gradientUnits="userSpaceOnUse">
<stop stop-color="#D8E0E3"/>
<stop offset="0.672" stop-color="#EAF1F5"/>
</linearGradient>
<linearGradient id="paint5_linear" x1="1187.7" y1="137.12" x2="1205.93" y2="160.871" gradientUnits="userSpaceOnUse">
<stop stop-color="#D8E0E3"/>
<stop offset="0.672" stop-color="#EAF1F5"/>
</linearGradient>
<linearGradient id="paint6_linear" x1="1208.4" y1="147.361" x2="1224.74" y2="147.361" gradientUnits="userSpaceOnUse">
<stop stop-color="#C5CCCF"/>
<stop offset="0.672" stop-color="#D1D8DB"/>
</linearGradient>
<linearGradient id="paint7_linear" x1="1020.3" y1="151.243" x2="983.432" y2="116.881" gradientUnits="userSpaceOnUse">
<stop stop-color="#D8E0E3"/>
<stop offset="0.672" stop-color="#EAF1F5"/>
</linearGradient>
<linearGradient id="paint8_linear" x1="1093.26" y1="147.448" x2="1142.51" y2="147.448" gradientUnits="userSpaceOnUse">
<stop stop-color="#D8E0E3"/>
<stop offset="0.672" stop-color="#EAF1F5"/>
</linearGradient>
<linearGradient id="paint9_linear" x1="752.635" y1="43.4615" x2="745.155" y2="43.6439" gradientUnits="userSpaceOnUse">
<stop offset="0.2238" stop-color="#E7EEF2"/>
<stop offset="0.2497" stop-color="#E4EBEF"/>
<stop offset="0.5667" stop-color="#C3CACD"/>
<stop offset="0.8281" stop-color="#AFB5B8"/>
<stop offset="1" stop-color="#A8AEB0"/>
</linearGradient>
<linearGradient id="paint10_linear" x1="634.361" y1="152.877" x2="602.857" y2="126.238" gradientUnits="userSpaceOnUse">
<stop stop-color="#D1D8DB"/>
<stop offset="0.2546" stop-color="#E1E8EC"/>
<stop offset="0.4799" stop-color="#EAF1F5"/>
<stop offset="0.6808" stop-color="#E5ECF0"/>
<stop offset="0.9151" stop-color="#D8DFE2"/>
<stop offset="1" stop-color="#D1D8DB"/>
</linearGradient>
<linearGradient id="paint11_linear" x1="661.181" y1="103.96" x2="662.156" y2="142.756" gradientUnits="userSpaceOnUse">
<stop stop-color="#3A9BE0"/>
<stop offset="0.2024" stop-color="#3D9DE1"/>
<stop offset="0.3446" stop-color="#46A2E3"/>
<stop offset="0.4683" stop-color="#56ABE8"/>
<stop offset="0.5808" stop-color="#6BB8EE"/>
<stop offset="0.668" stop-color="#82C5F5"/>
<stop offset="0.7499" stop-color="#7EC3F4"/>
<stop offset="0.8264" stop-color="#73BCF1"/>
<stop offset="0.9007" stop-color="#60B1EB"/>
<stop offset="0.9733" stop-color="#46A2E3"/>
<stop offset="1" stop-color="#3A9BE0"/>
</linearGradient>
<linearGradient id="paint12_linear" x1="641.669" y1="89.454" x2="683.174" y2="89.454" gradientUnits="userSpaceOnUse">
<stop offset="0.4171" stop-color="#82C5F5"/>
<stop offset="1" stop-color="#3A9BE0"/>
</linearGradient>
<linearGradient id="paint13_linear" x1="700.034" y1="152.969" x2="726.807" y2="125.69" gradientUnits="userSpaceOnUse">
<stop offset="0.603" stop-color="#CED5E0"/>
<stop offset="1" stop-color="#AFB5BF"/>
</linearGradient>
<linearGradient id="paint14_linear" x1="729.572" y1="33.1462" x2="729.572" y2="45.5743" gradientUnits="userSpaceOnUse">
<stop offset="0.4171" stop-color="#82C5F5"/>
<stop offset="1" stop-color="#3A9BE0"/>
</linearGradient>
<linearGradient id="paint15_linear" x1="703.889" y1="43.7042" x2="722.897" y2="43.7042" gradientUnits="userSpaceOnUse">
<stop offset="0.2238" stop-color="#E7EEF2"/>
<stop offset="0.2497" stop-color="#E4EBEF"/>
<stop offset="0.5667" stop-color="#C3CACD"/>
<stop offset="0.8281" stop-color="#AFB5B8"/>
<stop offset="1" stop-color="#A8AEB0"/>
</linearGradient>
<linearGradient id="paint16_linear" x1="625.378" y1="38.4582" x2="631.589" y2="66.6658" gradientUnits="userSpaceOnUse">
<stop offset="0.4268" stop-color="#FFCF7D"/>
<stop offset="1" stop-color="#F9B032"/>
</linearGradient>
<linearGradient id="paint17_linear" x1="687.578" y1="63.0447" x2="690.686" y2="126.754" gradientUnits="userSpaceOnUse">
<stop offset="0.00415427" stop-color="#FC77A8"/>
<stop offset="0.3458" stop-color="#F370A1"/>
<stop offset="0.8989" stop-color="#DB5E8C"/>
<stop offset="1" stop-color="#D65A88"/>
</linearGradient>
<linearGradient id="paint18_linear" x1="702.219" y1="91.3358" x2="726.274" y2="95.0164" gradientUnits="userSpaceOnUse">
<stop offset="0.4812" stop-color="#82C5F5"/>
<stop offset="0.5842" stop-color="#6DB9EF"/>
<stop offset="0.7482" stop-color="#51A8E7"/>
<stop offset="0.8924" stop-color="#409EE2"/>
<stop offset="1" stop-color="#3A9BE0"/>
</linearGradient>
<linearGradient id="paint19_linear" x1="674.859" y1="2.96999" x2="681.153" y2="131.99" gradientUnits="userSpaceOnUse">
<stop offset="0.00415427" stop-color="#FC77A8"/>
<stop offset="0.3458" stop-color="#F370A1"/>
<stop offset="0.8989" stop-color="#DB5E8C"/>
<stop offset="1" stop-color="#D65A88"/>
</linearGradient>
<linearGradient id="paint20_linear" x1="605.311" y1="96.0992" x2="780.053" y2="96.0992" gradientUnits="userSpaceOnUse">
<stop offset="0.4171" stop-color="#82C5F5"/>
<stop offset="1" stop-color="#3A9BE0"/>
</linearGradient>
<linearGradient id="paint21_linear" x1="742.591" y1="64.0969" x2="761.36" y2="101.896" gradientUnits="userSpaceOnUse">
<stop offset="0.4171" stop-color="#82C5F5"/>
<stop offset="1" stop-color="#3A9BE0"/>
</linearGradient>
<linearGradient id="paint22_linear" x1="617.223" y1="121.367" x2="611.427" y2="128.803" gradientUnits="userSpaceOnUse">
<stop offset="0.2238" stop-color="#E7EEF2"/>
<stop offset="0.2497" stop-color="#E4EBEF"/>
<stop offset="0.5667" stop-color="#C3CACD"/>
<stop offset="0.8281" stop-color="#AFB5B8"/>
<stop offset="1" stop-color="#A8AEB0"/>
</linearGradient>
<linearGradient id="paint23_linear" x1="762.594" y1="153.086" x2="734.334" y2="126.447" gradientUnits="userSpaceOnUse">
<stop stop-color="#D1D8DB"/>
<stop offset="0.2546" stop-color="#E1E8EC"/>
<stop offset="0.4799" stop-color="#EAF1F5"/>
<stop offset="0.6808" stop-color="#E5ECF0"/>
<stop offset="0.9151" stop-color="#D8DFE2"/>
<stop offset="1" stop-color="#D1D8DB"/>
</linearGradient>
</defs>
</svg>
