<svg width="1655" height="801" viewBox="0 0 1655 801" fill="none" xmlns="http://www.w3.org/2000/svg">
<path d="M177.1 320.2H48.8C48.8 320.2 59.3001 316.3 65.9001 310.5C72.5001 304.7 78.0001 297.1 85.9001 298.4C93.8001 299.7 100.3 308.8 104 309.2C107.7 309.7 110 304.4 112.9 303.1C115.8 301.8 120.5 303.1 124.5 307C128.4 310.9 131.6 314.1 135 311.5C138.4 308.9 141 304.7 148.9 306.8C156.8 308.9 158.4 311.9 162.6 314.4C169.1 318.4 177.1 320.2 177.1 320.2Z" fill="url(#paint0_linear)"/>
<path d="M170.6 521.5H262.8C262.8 521.5 253.1 520 246.2 515.3C241 511.7 238.5 507.4 235.7 504.2C232.5 500.6 227 500.2 223.7 504C220.4 507.8 216.7 511.3 213.4 510.9C210.2 510.5 208.8 508.7 205.6 504.9C201.6 500.2 195.4 500.2 191.6 505.2C187.8 510.2 183.2 514.6 179.6 517.2C175.8 519.8 170.6 521.5 170.6 521.5Z" fill="url(#paint1_linear)"/>
<path d="M1463.1 514.2H1555.3C1555.3 514.2 1545.6 512.7 1538.7 508C1533.5 504.4 1531 500.1 1528.2 496.9C1525 493.3 1519.5 492.9 1516.2 496.7C1512.8 500.5 1509.2 504 1505.9 503.6C1502.7 503.2 1501.3 501.4 1498.1 497.6C1494.1 492.9 1487.9 492.9 1484.1 497.9C1480.3 502.9 1475.7 507.3 1472.1 509.9C1468.4 512.5 1463.1 514.2 1463.1 514.2Z" fill="url(#paint2_linear)"/>
<path d="M975.9 151.5H1068.1C1068.1 151.5 1058.4 150 1051.5 145.3C1046.3 141.7 1043.8 137.4 1041 134.2C1037.8 130.6 1032.3 130.2 1029 134C1025.6 137.8 1022 141.3 1018.7 140.9C1015.5 140.5 1014.1 138.7 1010.9 134.9C1006.9 130.2 1000.7 130.2 996.9 135.2C993.1 140.2 988.5 144.6 984.9 147.2C981.1 149.9 975.9 151.5 975.9 151.5Z" fill="url(#paint3_linear)"/>
<path d="M1582.2 286.7H1654.3C1654.3 286.7 1644.1 285.2 1639.2 281.4C1636.2 279.1 1632.8 278.8 1630.7 278.9C1629.3 279 1627.9 278.5 1626.8 277.5C1625.7 276.6 1624.1 275.4 1622.3 274.6C1619.2 273.2 1615.2 274.4 1613.6 276.1C1612.1 277.8 1610.5 278.6 1607.3 275.6C1604.1 272.5 1599.2 275 1595.1 278.1C1588.4 283.1 1582.2 286.7 1582.2 286.7Z" fill="url(#paint4_linear)"/>
<path d="M944.6 706.4H1025C1025 706.4 1005.3 701.6 1000.4 698.8C995.5 696 989.2 698.2 987.3 698.8C985.4 699.4 984 696.8 980.2 694.3C976.4 691.8 967.9 695.1 964.3 697.4C960.7 699.6 944.6 706.4 944.6 706.4Z" fill="url(#paint5_linear)"/>
<path d="M710.1 800.6H760.3C760.3 800.6 753.5 797.4 751 795.9C748.5 794.4 746.9 796.1 745.7 796.4C744.5 796.7 743.5 794.1 742.1 792.7C740.7 791.3 738.2 793.4 737 794.3C735.8 795.2 734.8 794.3 732.8 792.2C730.8 790.1 726.8 791.1 724.2 793.3C721.5 795.5 710.1 800.6 710.1 800.6Z" fill="url(#paint6_linear)"/>
<path d="M233.5 676.8H280C280 676.8 273.7 673.9 271.4 672.5C269.1 671.1 267.6 672.7 266.4 673C265.3 673.3 264.3 670.8 263 669.5C261.7 668.2 259.4 670.2 258.2 671C257.1 671.8 256.1 671 254.3 669.1C252.4 667.2 248.8 668 246.3 670.1C243.8 672.2 233.5 676.8 233.5 676.8Z" fill="url(#paint7_linear)"/>
<path d="M369.7 530.3H416.3C416.3 530.3 410 527.4 407.7 526C405.4 524.6 403.9 526.2 402.7 526.5C401.6 526.8 400.6 524.3 399.3 523C398 521.7 395.7 523.7 394.5 524.5C393.4 525.3 392.4 524.5 390.6 522.6C388.8 520.7 385.1 521.5 382.6 523.6C380.3 525.6 369.7 530.3 369.7 530.3Z" fill="url(#paint8_linear)"/>
<path d="M383.5 134.2H474.2C474.2 134.2 462 128.5 457.4 125.7C452.8 123 449.9 126.1 447.7 126.6C445.5 127.1 443.7 122.4 441.1 119.9C438.5 117.3 434 121.2 431.8 122.8C429.6 124.4 427.8 122.7 424.1 119C420.5 115.3 413.3 116.9 408.6 120.9C403.9 124.9 383.5 134.2 383.5 134.2Z" fill="url(#paint9_linear)"/>
<path d="M1465 16.8001H1553.3C1553.3 16.8001 1541.4 11.2001 1537 8.60008C1532.6 6.00008 1529.7 9.00008 1527.6 9.50008C1525.5 10.0001 1523.7 5.40008 1521.2 2.90008C1518.7 0.400076 1514.3 4.10008 1512.2 5.70008C1510.1 7.30008 1508.3 5.60008 1504.7 2.00008C1501.1 -1.59992 1494.2 7.55787e-05 1489.6 3.90008C1485 7.80008 1465 16.8001 1465 16.8001Z" fill="url(#paint10_linear)"/>
<path d="M67.0001 767.2H181.3C181.3 767.2 165.5 763.1 154.4 752.3C143.3 741.5 136 740.8 129.8 745.8C123.6 750.8 120.6 748.9 114.8 746.2C109 743.5 105.2 745.4 100.2 751.6C95.2001 757.7 89.1001 753.1 81.4001 757C73.7001 760.8 67.0001 767.2 67.0001 767.2Z" fill="url(#paint11_linear)"/>
<path d="M1092.1 765H1058.8C1058.8 765 1062.8 759 1066.8 757C1070.8 755 1073.3 758.7 1075.1 759.6C1076.8 760.5 1079.7 758.2 1081.6 758.5C1085.2 758.9 1092.1 765 1092.1 765Z" fill="url(#paint12_linear)"/>
<path d="M1425.9 389.3H1371.7C1371.7 389.3 1378.2 379.6 1384.7 376.3C1391.2 373 1395.4 379.1 1398.1 380.5C1400.9 381.9 1405.5 378.3 1408.8 378.6C1414.6 379.3 1425.9 389.3 1425.9 389.3Z" fill="url(#paint13_linear)"/>
<path d="M1178 280.7H1145.5C1145.5 280.7 1149.4 274.9 1153.3 272.9C1157.2 271 1159.7 274.6 1161.4 275.4C1163.1 276.2 1165.9 274.1 1167.8 274.3C1171.2 274.7 1178 280.7 1178 280.7Z" fill="url(#paint14_linear)"/>
<path d="M0.500061 721.3H33.8C33.8 721.3 29.8 715.3 25.8 713.3C21.8 711.3 19.3001 715 17.5001 715.9C15.8001 716.8 12.9001 714.5 11.0001 714.8C7.40006 715.1 0.500061 721.3 0.500061 721.3Z" fill="url(#paint15_linear)"/>
<defs>
<linearGradient id="paint0_linear" x1="113.237" y1="308.459" x2="113.02" y2="316.945" gradientUnits="userSpaceOnUse">
<stop offset="0.000578704" stop-color="#E3F8FC"/>
<stop offset="1" stop-color="#AFEBF6"/>
</linearGradient>
<linearGradient id="paint1_linear" x1="216.673" y1="506.192" x2="216.673" y2="519.764" gradientUnits="userSpaceOnUse">
<stop offset="0.000578704" stop-color="#E3F8FC"/>
<stop offset="1" stop-color="#AFEBF6"/>
</linearGradient>
<linearGradient id="paint2_linear" x1="1509.2" y1="498.941" x2="1509.2" y2="512.514" gradientUnits="userSpaceOnUse">
<stop offset="0.000578704" stop-color="#E3F8FC"/>
<stop offset="1" stop-color="#AFEBF6"/>
</linearGradient>
<linearGradient id="paint3_linear" x1="1021.98" y1="136.262" x2="1021.98" y2="149.834" gradientUnits="userSpaceOnUse">
<stop offset="0.000578704" stop-color="#E3F8FC"/>
<stop offset="1" stop-color="#AFEBF6"/>
</linearGradient>
<linearGradient id="paint4_linear" x1="1618.02" y1="279.585" x2="1618.16" y2="284.686" gradientUnits="userSpaceOnUse">
<stop offset="0.000578704" stop-color="#E3F8FC"/>
<stop offset="1" stop-color="#AFEBF6"/>
</linearGradient>
<linearGradient id="paint5_linear" x1="984.564" y1="699.066" x2="984.7" y2="704.373" gradientUnits="userSpaceOnUse">
<stop offset="0.000578704" stop-color="#E3F8FC"/>
<stop offset="1" stop-color="#AFEBF6"/>
</linearGradient>
<linearGradient id="paint6_linear" x1="735.087" y1="795.176" x2="735.185" y2="799.008" gradientUnits="userSpaceOnUse">
<stop offset="0.000578704" stop-color="#E3F8FC"/>
<stop offset="1" stop-color="#AFEBF6"/>
</linearGradient>
<linearGradient id="paint7_linear" x1="256.632" y1="671.839" x2="256.723" y2="675.391" gradientUnits="userSpaceOnUse">
<stop offset="0.000578704" stop-color="#E3F8FC"/>
<stop offset="1" stop-color="#AFEBF6"/>
</linearGradient>
<linearGradient id="paint8_linear" x1="392.872" y1="525.293" x2="392.963" y2="528.845" gradientUnits="userSpaceOnUse">
<stop offset="0.000578704" stop-color="#E3F8FC"/>
<stop offset="1" stop-color="#AFEBF6"/>
</linearGradient>
<linearGradient id="paint9_linear" x1="428.558" y1="124.466" x2="428.736" y2="131.385" gradientUnits="userSpaceOnUse">
<stop offset="0.000578704" stop-color="#E3F8FC"/>
<stop offset="1" stop-color="#AFEBF6"/>
</linearGradient>
<linearGradient id="paint10_linear" x1="1508.88" y1="7.26398" x2="1509.05" y2="13.9989" gradientUnits="userSpaceOnUse">
<stop offset="0.000578704" stop-color="#E3F8FC"/>
<stop offset="1" stop-color="#AFEBF6"/>
</linearGradient>
<linearGradient id="paint11_linear" x1="123.785" y1="753.706" x2="124.028" y2="763.17" gradientUnits="userSpaceOnUse">
<stop offset="0.000578704" stop-color="#E3F8FC"/>
<stop offset="1" stop-color="#AFEBF6"/>
</linearGradient>
<linearGradient id="paint12_linear" x1="1075.29" y1="760.099" x2="1075.38" y2="763.494" gradientUnits="userSpaceOnUse">
<stop offset="0.000578704" stop-color="#E3F8FC"/>
<stop offset="1" stop-color="#AFEBF6"/>
</linearGradient>
<linearGradient id="paint13_linear" x1="1398.57" y1="381.287" x2="1398.71" y2="386.815" gradientUnits="userSpaceOnUse">
<stop offset="0.000578704" stop-color="#E3F8FC"/>
<stop offset="1" stop-color="#AFEBF6"/>
</linearGradient>
<linearGradient id="paint14_linear" x1="1161.62" y1="275.925" x2="1161.71" y2="279.237" gradientUnits="userSpaceOnUse">
<stop offset="0.000578704" stop-color="#E3F8FC"/>
<stop offset="1" stop-color="#AFEBF6"/>
</linearGradient>
<linearGradient id="paint15_linear" x1="17.2655" y1="716.367" x2="17.1785" y2="719.761" gradientUnits="userSpaceOnUse">
<stop offset="0.000578704" stop-color="#E3F8FC"/>
<stop offset="1" stop-color="#AFEBF6"/>
</linearGradient>
</defs>
</svg>
