<svg width="1554" height="182" viewBox="0 0 1554 182" fill="none" xmlns="http://www.w3.org/2000/svg">
<path opacity="0.5" d="M19.5 180.3C24.3 180.3 36.5 176.6 43.5 168.9C50.5 161.2 57.9 150.1 65.3 149C72.7 147.9 77.1 151.9 83 154.9C88.9 157.9 90.6 150.8 98.8 143.1C107 135.4 113.2 129.8 122.8 130.2C132.4 130.6 136.4 137.6 145.7 146.4C154.9 155.2 158.2 157.5 165.6 151.9C173 146.4 175.2 141.9 182.9 145.6C190.6 149.3 192.1 154.4 196.9 153C201.7 151.5 204.6 147.8 209.8 150.4C215 153 217.9 152.6 221.6 149.3C225.3 146 232.3 147.4 243.7 155.2C255.1 163 268.8 170 282 173.6C295.2 177.2 324.4 180.2 324.4 180.2H19.5" fill="url(#paint0_linear)"/>
<path opacity="0.5" d="M1257.3 181H1381.7C1381.7 181 1369.1 177.2 1362.9 170.8C1356.7 164.4 1352.2 161.9 1348.8 162.1C1345.3 162.3 1340.6 167.8 1336.4 164.3C1332.2 160.8 1327.7 158.4 1323.8 158.6C1319.9 158.8 1314.6 165 1312.2 164.8C1309.7 164.6 1306.7 159.6 1303.3 156.1C1299.8 152.6 1291.7 152.9 1287.7 157.8C1283.7 162.7 1278.2 170.5 1274.1 173.4C1267 178.4 1257.3 181 1257.3 181Z" fill="url(#paint1_linear)"/>
<g opacity="0.5">
<path opacity="0.5" d="M725.5 167.2C718.2 161.7 711.9 160.9 707.2 164.3C702.4 167.6 698.2 167 693.6 165C689.1 163 683 165.5 677 171.3C671 177.1 662.9 180.7 662.2 180.7H739.6C739.6 180.6 732.8 172.7 725.5 167.2Z" fill="url(#paint2_linear)"/>
<path opacity="0.5" d="M764 180.6V126.9C764 125.3 765.3 123.9 767 123.9H849.3C850.9 123.9 852.3 125.2 852.3 126.9V180.6H764Z" fill="url(#paint3_linear)"/>
<path opacity="0.5" d="M883.3 152.3V147.8C883.3 146.8 882.5 146 881.5 146H840.3C839.3 146 838.5 146.8 838.5 147.8V180.6H932.5V153.8C932.5 153 931.8 152.3 931 152.3H883.3Z" fill="url(#paint4_linear)"/>
<path opacity="0.5" d="M998.5 152.1H972.8V180.6H998.5V152.1Z" fill="url(#paint5_linear)"/>
<path opacity="0.5" d="M1014.8 152.1H998.5V180.6H1014.8V152.1Z" fill="url(#paint6_linear)"/>
<path opacity="0.5" d="M766.9 123.9C765.3 123.9 763.9 125.2 763.9 126.9V180.6H820.6V128C820.6 125.8 818.8 124 816.6 124H766.9V123.9Z" fill="url(#paint7_linear)"/>
<path opacity="0.5" d="M883.3 180.6H932.6V153.8C932.6 153 931.9 152.3 931.1 152.3H883.4V180.6H883.3Z" fill="url(#paint8_linear)"/>
</g>
<path d="M577.3 181H1553.3" stroke="#6D737D" stroke-width="1.2" stroke-miterlimit="10" stroke-linecap="round" stroke-linejoin="round"/>
<path d="M0.600098 181H371.5" stroke="#6D737D" stroke-width="1.2" stroke-miterlimit="10" stroke-linecap="round" stroke-linejoin="round"/>
<path d="M392.2 181H420.2" stroke="#6D737D" stroke-width="1.2" stroke-miterlimit="10" stroke-linecap="round" stroke-linejoin="round"/>
<path d="M1156.6 27.2C1156.4 27.3 1151.6 26.3 1148.5 29.1C1145.4 31.9 1131.3 51.4 1131.3 51.4C1131.3 51.4 1126 53.5 1123.3 53.3C1120.6 53.1 1112.8 50.7 1109.7 50.7C1106.5 50.6 1104.5 53 1104.8 55.8C1105.1 58.6 1108.2 58.6 1109.1 57.2C1110 55.7 1109.8 53.7 1114 53.7C1118.2 53.8 1122 53.7 1122 53.7C1122 53.7 1125.7 62 1131.9 60.8C1138.1 59.6 1149 45.9 1149 45.9L1156.6 27.2Z" fill="white"/>
<path d="M1153.3 26.8C1150.2 27.4 1146.2 30.2 1140.9 37.7C1135.6 45.2 1132.9 49.3 1132.9 49.3" stroke="#6D737D" stroke-width="1.2" stroke-miterlimit="10" stroke-linecap="round" stroke-linejoin="round"/>
<path d="M1118.2 58.1V163.7C1118.2 164.1 1118.5 164.4 1118.9 164.4H1214.3C1215.5 164.4 1216.5 165.4 1216.5 166.6C1216.5 167.8 1215.5 168.8 1214.3 168.8H1118.2H1117.2C1114.8 168.8 1112.9 166.9 1112.9 164.5V58.1H1118.2Z" fill="white"/>
<path d="M1111.2 58.1H1131.8" stroke="#6D737D" stroke-width="1.2" stroke-miterlimit="10" stroke-linecap="round" stroke-linejoin="round"/>
<path d="M1176.8 68H1219.8V26.5H1176.8V68Z" fill="url(#paint9_linear)"/>
<path d="M1158.45 67.9937L1176.75 67.9937L1176.75 26.4937L1158.45 26.4937L1158.45 67.9937Z" fill="#F9A932"/>
<path d="M1203.6 48.3C1203.3 48 1202.8 48 1202.4 48.3L1199.3 51.4C1199 51.7 1199 52.2 1199.3 52.6L1202.4 55.7C1202.7 56 1203.2 56 1203.6 55.7L1206.7 52.6C1207 52.3 1207 51.8 1206.7 51.4L1203.6 48.3Z" fill="#6D737D"/>
<path d="M1202.4 46.2C1202.7 46.5 1203.2 46.5 1203.6 46.2L1206.7 43.1C1207 42.8 1207 42.3 1206.7 41.9L1203.6 38.8C1203.3 38.5 1202.8 38.5 1202.4 38.8L1200 41.2C1199.8 41.3 1199.2 41.9 1198.3 41.9C1197.3 41.9 1196.6 41.2 1196.6 41.2L1194.3 38.8C1194 38.5 1193.5 38.5 1193.1 38.8L1190 41.9C1189.7 42.2 1189.7 42.7 1190 43.1L1192.4 45.5C1192.5 45.6 1193.1 46.3 1193.1 47.2C1193.1 48 1192.6 48.7 1192.4 48.9L1190 51.3C1189.7 51.6 1189.7 52.1 1190 52.5L1193.1 55.6C1193.4 55.9 1193.9 55.9 1194.3 55.6L1197.4 52.5C1197.7 52.2 1197.7 51.7 1197.4 51.3L1195 48.9C1194.9 48.7 1194.3 48.1 1194.3 47.2C1194.3 46.3 1194.8 45.7 1195 45.5L1196.7 43.8C1196.7 43.8 1197.4 43.1 1198.4 43.1C1199.2 43.1 1199.9 43.6 1200.1 43.8L1202.4 46.2Z" fill="#6D737D"/>
<path d="M1219.8 26.9H1176.8V36.1" stroke="#6D737D" stroke-width="0.7" stroke-miterlimit="10" stroke-linecap="round" stroke-linejoin="round"/>
<path d="M1143.9 80.5C1144.1 93.3 1151.4 151.6 1151 156.2C1150.7 159.6 1146 160.5 1142 161.9C1138.3 163.1 1137.7 164.5 1141.4 164.5C1144.7 164.5 1154.4 164.6 1158 164.5C1160.7 164.4 1157.8 159.5 1157.8 156C1157.8 152.8 1158.1 150.2 1158.5 147.3C1161.3 124.2 1162.1 101.2 1163.7 87.3C1165.3 73.4 1152.9 58.9 1148.6 57.3C1144.3 55.7 1143.8 57.8 1143.8 57.8C1143.8 57.8 1143.7 68.9 1143.9 80.5Z" fill="url(#paint10_linear)"/>
<path d="M1158.1 164.5C1160.8 164.4 1157.9 159.5 1157.9 156C1157.9 154.6 1158 153.3 1158.1 152.1" stroke="#6D737D" stroke-width="1.2" stroke-miterlimit="10" stroke-linecap="round" stroke-linejoin="round"/>
<path d="M1143.9 61C1143.5 55.8 1143.9 49 1145.1 42C1146 36.4 1146.4 33.8 1149.1 30.5C1151.8 27.1 1154.2 26 1153.7 23C1153.4 21.5 1152 21.3 1151.1 20.5C1150 19.5 1149.1 17.9 1148.4 15.7C1146.4 9.49999 1148.2 2.49995 1153.7 2.09995C1159.2 1.69995 1162.9 4.49999 1163.2 10.7C1163.4 16.3 1161.5 18.1 1162.1 20.8C1162.6 23 1164.4 23.6 1165.7 25C1168.5 27.3 1173.6 27.9 1174.1 38.4C1174.6 48.9 1173.5 59.8 1173.6 65.8C1173.7 71.5 1175 74.8 1174.9 80C1174.9 82.3 1174.4 85.5 1174.2 86.6C1174.1 87.2 1174.1 87.9 1174.1 88.5C1175.2 98.6 1181.2 149.4 1182 153.9C1183.1 159.9 1186.8 164.3 1184.1 164.5C1184.1 164.5 1169.6 164.5 1166.4 164.5C1163.4 164.5 1162.9 163.5 1165.6 162.3C1170.4 160 1175.4 159.3 1174.7 156C1173.8 151.3 1158.1 101.6 1155.2 88.6C1155.2 88.6 1150.8 86.5 1148.8 83.4C1147.3 80.7 1143.9 76.1 1143.9 61Z" fill="url(#paint11_linear)"/>
<path d="M1179.1 60.4C1179.1 60.4 1173.7 64 1165.8 61C1157.4 57.8 1154.7 48.7 1154.7 48.7" stroke="#6D737D" stroke-width="1.2" stroke-miterlimit="10" stroke-linecap="round" stroke-linejoin="round"/>
<path d="M1167.6 33.1C1164.5 31.2 1161 29.7 1155.8 36.2C1150.7 42.7 1146.4 50.4 1144.4 51.8C1142.4 53.2 1141.1 52.8 1136.1 51.8C1131.1 50.8 1125.5 50 1122.9 51.4C1120.3 52.8 1118.9 55.8 1118.8 56.8C1118.7 57.8 1121 59.2 1122.6 58.3C1124.2 57.4 1125.1 54 1127.5 54.5C1129.9 54.9 1144.3 61.9 1148.3 61C1152.3 60.1 1158.7 52.6 1163.8 47.2C1168.9 41.7 1170.4 34.8 1167.6 33.1Z" fill="url(#paint12_linear)"/>
<path d="M1176.5 27.3H1168.4C1162.9 27.3 1158.1 30.3 1156.3 32.5C1155.8 33.2 1155.4 33.8 1155.1 34.3" stroke="#6D737D" stroke-width="1.2" stroke-miterlimit="10" stroke-linecap="round" stroke-linejoin="round"/>
<path d="M1154.2 38.3C1149.8 44.3 1146.1 50.6 1144.4 51.8C1142.4 53.1 1141.1 52.8 1136.1 51.8C1131.1 50.8 1125.5 50 1122.9 51.4C1120.3 52.8 1118.9 55.8 1118.8 56.8C1118.7 57.8 1121 59.2 1122.6 58.3C1124.2 57.4 1126 54 1128.3 54.5C1130.7 54.9 1143 61.2 1147.1 61.2C1148.7 61.2 1149.8 60.4 1149.8 60.4" stroke="#6D737D" stroke-width="1.2" stroke-miterlimit="10" stroke-linecap="round" stroke-linejoin="round"/>
<path d="M1137.7 9.90002H1163.8C1163.8 9.90002 1164.1 0.599976 1155.1 0.599976C1146.2 0.599976 1146.1 9.90002 1146.1 9.90002" stroke="#6D737D" stroke-width="1.2" stroke-miterlimit="10" stroke-linecap="round" stroke-linejoin="round"/>
<path d="M1154.7 84.1C1154.7 84.1 1158.5 103.2 1165.3 123.8C1172 144.5 1172.5 146.2 1173.7 150.7C1174.8 154.6 1175.6 157.6 1172.9 159.1C1170.2 160.6 1167.7 161.4 1165.6 162.2" stroke="#6D737D" stroke-width="1.2" stroke-miterlimit="10" stroke-linecap="round" stroke-linejoin="round"/>
<path d="M1136.5 58.4C1136.5 58.4 1134.5 61 1130.6 60.8" stroke="#6D737D" stroke-width="1.2" stroke-miterlimit="10" stroke-linecap="round" stroke-linejoin="round"/>
<path d="M1112.9 51.7C1112.1 51.2 1111 50.8 1109.8 50.7C1106.7 50.6 1104.8 51.9 1104.8 55.1C1104.8 58.2 1107.1 58.5 1108.4 57.8C1109.7 57.2 1110.6 54.7 1110.8 53.7" stroke="#6D737D" stroke-width="1.2" stroke-miterlimit="10" stroke-linecap="round" stroke-linejoin="round"/>
<path d="M1193.3 168.8H1134.3" stroke="#6D737D" stroke-width="1.2" stroke-miterlimit="10" stroke-linecap="round" stroke-linejoin="round"/>
<path d="M1118.2 58.1V163.5C1118.2 164 1118.6 164.5 1119.2 164.5H1214.3C1215.5 164.5 1216.5 165.5 1216.5 166.7C1216.5 167.9 1215.5 168.9 1214.3 168.9H1204" stroke="#6D737D" stroke-width="1.2" stroke-miterlimit="10" stroke-linecap="round" stroke-linejoin="round"/>
<path d="M1122.9 168.8H1117C1114.7 168.8 1112.9 166.9 1112.9 164.7V58.1" stroke="#6D737D" stroke-width="1.2" stroke-miterlimit="10" stroke-linecap="round" stroke-linejoin="round"/>
<path d="M1210.7 171.3H1214.9C1216.3 171.3 1217.5 172.5 1217.5 173.9V175.2" stroke="#6D737D" stroke-width="1.2" stroke-miterlimit="10" stroke-linecap="round" stroke-linejoin="round"/>
<path d="M1141.5 171.3H1191.2" stroke="#6D737D" stroke-width="1.2" stroke-miterlimit="10" stroke-linecap="round" stroke-linejoin="round"/>
<path d="M1112.9 171.3H1124.3" stroke="#6D737D" stroke-width="1.2" stroke-miterlimit="10" stroke-linecap="round" stroke-linejoin="round"/>
<path d="M1130.8 180.6C1134.67 180.6 1137.8 177.466 1137.8 173.6C1137.8 169.734 1134.67 166.6 1130.8 166.6C1126.93 166.6 1123.8 169.734 1123.8 173.6C1123.8 177.466 1126.93 180.6 1130.8 180.6Z" fill="url(#paint13_linear)"/>
<path d="M1137.2 170.8C1136.1 168.3 1133.7 166.6 1130.8 166.6C1127 166.6 1123.8 169.7 1123.8 173.6C1123.8 174.4 1123.9 175.2 1124.2 175.9C1124.6 176.9 1125.1 177.8 1125.9 178.5C1127.2 179.7 1128.9 180.5 1130.8 180.5C1133 180.5 1134.9 179.5 1136.2 177.9" stroke="#6D737D" stroke-width="0.7" stroke-miterlimit="10" stroke-linecap="round" stroke-linejoin="round"/>
<path d="M1200.9 180.6C1204.77 180.6 1207.9 177.466 1207.9 173.6C1207.9 169.734 1204.77 166.6 1200.9 166.6C1197.03 166.6 1193.9 169.734 1193.9 173.6C1193.9 177.466 1197.03 180.6 1200.9 180.6Z" fill="url(#paint14_linear)"/>
<path d="M1130.6 175.3C1131.54 175.3 1132.3 174.539 1132.3 173.6C1132.3 172.661 1131.54 171.9 1130.6 171.9C1129.66 171.9 1128.9 172.661 1128.9 173.6C1128.9 174.539 1129.66 175.3 1130.6 175.3Z" fill="#6D737D"/>
<path d="M1207.6 170.8C1206.5 168.3 1204.1 166.6 1201.2 166.6C1197.4 166.6 1194.2 169.7 1194.2 173.6C1194.2 174.4 1194.3 175.2 1194.6 175.9C1195 176.9 1195.5 177.8 1196.3 178.5C1197.6 179.7 1199.3 180.5 1201.2 180.5C1203.4 180.5 1205.3 179.5 1206.6 177.9" stroke="#6D737D" stroke-width="0.7" stroke-miterlimit="10" stroke-linecap="round" stroke-linejoin="round"/>
<path d="M1200.9 175.3C1201.84 175.3 1202.6 174.539 1202.6 173.6C1202.6 172.661 1201.84 171.9 1200.9 171.9C1199.96 171.9 1199.2 172.661 1199.2 173.6C1199.2 174.539 1199.96 175.3 1200.9 175.3Z" fill="#6D737D"/>
<path d="M1117.2 53.7H1110.8" stroke="#6D737D" stroke-width="1.2" stroke-miterlimit="10" stroke-linecap="round" stroke-linejoin="round"/>
<path d="M1161.8 112.5C1161.8 112.5 1160.3 131.7 1160 134.9" stroke="#6D737D" stroke-width="1.2" stroke-miterlimit="10" stroke-linecap="round" stroke-linejoin="round"/>
<path d="M1163.8 47.1C1163.8 47.1 1158.5 53.9 1154.1 57.2" stroke="#6D737D" stroke-width="1.2" stroke-miterlimit="10" stroke-linecap="round" stroke-linejoin="round"/>
<path d="M1104.8 53.7H1101.7V58.1" stroke="#6D737D" stroke-width="1.2" stroke-miterlimit="10" stroke-linecap="round" stroke-linejoin="round"/>
<defs>
<linearGradient id="paint0_linear" x1="171.934" y1="179.616" x2="171.934" y2="143.484" gradientUnits="userSpaceOnUse">
<stop stop-color="#D8E0E3"/>
<stop offset="0.3563" stop-color="#DDE5E8"/>
<stop offset="0.8244" stop-color="#EAF1F5"/>
</linearGradient>
<linearGradient id="paint1_linear" x1="1319.53" y1="181.114" x2="1318.53" y2="154.604" gradientUnits="userSpaceOnUse">
<stop stop-color="#D8E0E3"/>
<stop offset="0.672" stop-color="#EAF1F5"/>
</linearGradient>
<linearGradient id="paint2_linear" x1="700.891" y1="177.403" x2="700.891" y2="169.52" gradientUnits="userSpaceOnUse">
<stop stop-color="#D8E0E3"/>
<stop offset="0.672" stop-color="#EAF1F5"/>
</linearGradient>
<linearGradient id="paint3_linear" x1="846.199" y1="152.492" x2="796.08" y2="152.218" gradientUnits="userSpaceOnUse">
<stop stop-color="#C5CCCF"/>
<stop offset="0.672" stop-color="#D1D8DB"/>
</linearGradient>
<linearGradient id="paint4_linear" x1="900.921" y1="174.674" x2="844.229" y2="145.369" gradientUnits="userSpaceOnUse">
<stop stop-color="#D8E0E3"/>
<stop offset="0.672" stop-color="#EAF1F5"/>
</linearGradient>
<linearGradient id="paint5_linear" x1="977.772" y1="156.12" x2="995.999" y2="179.871" gradientUnits="userSpaceOnUse">
<stop stop-color="#D8E0E3"/>
<stop offset="0.672" stop-color="#EAF1F5"/>
</linearGradient>
<linearGradient id="paint6_linear" x1="998.467" y1="166.361" x2="1014.8" y2="166.361" gradientUnits="userSpaceOnUse">
<stop stop-color="#C5CCCF"/>
<stop offset="0.672" stop-color="#D1D8DB"/>
</linearGradient>
<linearGradient id="paint7_linear" x1="810.365" y1="170.243" x2="773.5" y2="135.881" gradientUnits="userSpaceOnUse">
<stop stop-color="#D8E0E3"/>
<stop offset="0.672" stop-color="#EAF1F5"/>
</linearGradient>
<linearGradient id="paint8_linear" x1="883.326" y1="166.448" x2="932.578" y2="166.448" gradientUnits="userSpaceOnUse">
<stop stop-color="#D8E0E3"/>
<stop offset="0.672" stop-color="#EAF1F5"/>
</linearGradient>
<linearGradient id="paint9_linear" x1="1200.06" y1="39.2836" x2="1193.95" y2="67.0639" gradientUnits="userSpaceOnUse">
<stop offset="0.4268" stop-color="#FFCF7D"/>
<stop offset="1" stop-color="#F9B032"/>
</linearGradient>
<linearGradient id="paint10_linear" x1="1130.75" y1="107.135" x2="1151.37" y2="112.678" gradientUnits="userSpaceOnUse">
<stop offset="0.00415427" stop-color="#FC77A8"/>
<stop offset="0.3458" stop-color="#F370A1"/>
<stop offset="0.8989" stop-color="#DB5E8C"/>
<stop offset="1" stop-color="#D65A88"/>
</linearGradient>
<linearGradient id="paint11_linear" x1="1157.53" y1="43.4141" x2="1171.49" y2="126.693" gradientUnits="userSpaceOnUse">
<stop offset="0.00415427" stop-color="#FC77A8"/>
<stop offset="0.3458" stop-color="#F370A1"/>
<stop offset="0.8989" stop-color="#DB5E8C"/>
<stop offset="1" stop-color="#D65A88"/>
</linearGradient>
<linearGradient id="paint12_linear" x1="1155.33" y1="32.9094" x2="1140.55" y2="52.4548" gradientUnits="userSpaceOnUse">
<stop offset="0.00415427" stop-color="#FC77A8"/>
<stop offset="0.3458" stop-color="#F370A1"/>
<stop offset="0.8989" stop-color="#DB5E8C"/>
<stop offset="1" stop-color="#D65A88"/>
</linearGradient>
<linearGradient id="paint13_linear" x1="1133.86" y1="169.508" x2="1128.47" y2="176.813" gradientUnits="userSpaceOnUse">
<stop offset="0.1561" stop-color="#E7EEF2"/>
<stop offset="0.4148" stop-color="#E2E9ED"/>
<stop offset="0.7226" stop-color="#D4DCDF"/>
<stop offset="0.7315" stop-color="#D3DBDE"/>
</linearGradient>
<linearGradient id="paint14_linear" x1="1204.35" y1="169.727" x2="1198.51" y2="176.302" gradientUnits="userSpaceOnUse">
<stop offset="0.1561" stop-color="#E7EEF2"/>
<stop offset="0.4148" stop-color="#E2E9ED"/>
<stop offset="0.7226" stop-color="#D4DCDF"/>
<stop offset="0.7315" stop-color="#D3DBDE"/>
</linearGradient>
</defs>
</svg>
