<svg width="1108" height="229" viewBox="0 0 1108 229" fill="none" xmlns="http://www.w3.org/2000/svg">
<path d="M459.3 218.3C452.7 213.3 447.1 212.6 442.8 215.6C438.5 218.6 434.7 218 430.6 216.2C426.5 214.4 421.1 216.7 415.7 221.9C410.3 227.1 403 230.4 402.4 230.4H472C472 230.4 465.9 223.3 459.3 218.3Z" fill="url(#paint0_linear)"/>
<path d="M493.9 230.4V182.1C493.9 180.6 495.1 179.4 496.6 179.4H570.7C572.2 179.4 573.4 180.6 573.4 182.1V230.4H493.9Z" fill="url(#paint1_linear)"/>
<path d="M601.3 204.9V200.9C601.3 200 600.6 199.3 599.7 199.3H562.6C561.7 199.3 561 200 561 200.9V230.4H645.5V206.3C645.5 205.5 644.9 204.9 644.1 204.9H601.3Z" fill="url(#paint2_linear)"/>
<path d="M704.8 204.8H681.7V230.5H704.8V204.8Z" fill="url(#paint3_linear)"/>
<path d="M719.5 204.8H704.8V230.5H719.5V204.8Z" fill="url(#paint4_linear)"/>
<path d="M496.6 179.4C495.1 179.4 493.9 180.6 493.9 182.1V230.4H544.9V183C544.9 181 543.3 179.4 541.3 179.4H496.6Z" fill="url(#paint5_linear)"/>
<path d="M601.3 230.4H645.6V206.3C645.6 205.5 645 204.9 644.2 204.9H601.3V230.4Z" fill="url(#paint6_linear)"/>
<path d="M1076.5 230.6C1076.5 230.6 1061.8 226.8 1049.7 218.7C1042 213.6 1039 207.3 1024.4 203C1009.8 198.7 1004.9 207.3 998.6 212.7C992.3 218.1 986.4 211.6 979.1 203.5C971.8 195.4 963.1 192.7 957.7 195.4C952.4 198.1 948 208.9 941.2 208C934.4 207 922.2 188.4 907.6 185.7C896.2 183.6 887.5 192.7 878.5 202.4C875 206.2 868.8 206.2 865.2 202.5C862.2 199.4 859.1 196.6 855.2 195.4C846.6 192.8 837.5 201.4 832.5 209.4C821 227.8 805.8 229.1 804.8 230.6H957.7H1076.5Z" fill="url(#paint7_linear)"/>
<path d="M1107.9 56.9996H989.8C989.8 56.9996 999.5 53.3996 1005.5 48.0996C1011.5 42.7996 1016.6 35.7996 1023.9 36.9996C1031.2 38.1996 1037.2 46.4996 1040.6 46.9996C1044 47.3996 1046.2 42.5996 1048.8 41.3996C1051.4 40.1996 1055.8 41.3996 1059.4 44.9996C1063 48.5996 1065.9 51.4996 1069.1 49.0996C1072.2 46.6996 1074.7 42.7996 1081.9 44.6996C1089.2 46.5996 1090.7 49.3996 1094.5 51.6996C1100.6 55.2996 1107.9 56.9996 1107.9 56.9996Z" fill="url(#paint8_linear)"/>
<path d="M242.3 102.6H378.4C378.4 102.6 360 97.0999 350 90.9999C340 84.7999 333.3 80.0999 324.1 82.0999C314.9 84.1999 309.1 87.9999 301.6 81.5999C294.1 75.1999 284.1 73.1999 275.7 78.6999C267.4 84.1999 265.1 90.0999 254.8 96.6999C249.1 100.3 242.3 102.6 242.3 102.6Z" fill="url(#paint9_linear)"/>
<path d="M0 20.2998H124.9C124.9 20.2998 94.3 12.7998 86.7 8.49978C79.1 4.19978 69.3 7.59978 66.3 8.49978C63.3 9.39978 61.2 5.39978 55.3 1.49978C49.4 -2.40022 36.1 2.69978 30.6 6.19978C25.1 9.69978 0 20.2998 0 20.2998Z" fill="url(#paint10_linear)"/>
<defs>
<linearGradient id="paint0_linear" x1="437.157" y1="227.522" x2="437.157" y2="220.431" gradientUnits="userSpaceOnUse">
<stop stop-color="#D8E0E3"/>
<stop offset="0.672" stop-color="#EAF1F5"/>
</linearGradient>
<linearGradient id="paint1_linear" x1="567.863" y1="205.114" x2="522.781" y2="204.868" gradientUnits="userSpaceOnUse">
<stop stop-color="#C5CCCF"/>
<stop offset="0.672" stop-color="#D1D8DB"/>
</linearGradient>
<linearGradient id="paint2_linear" x1="617.086" y1="225.067" x2="566.091" y2="198.708" gradientUnits="userSpaceOnUse">
<stop stop-color="#D8E0E3"/>
<stop offset="0.672" stop-color="#EAF1F5"/>
</linearGradient>
<linearGradient id="paint3_linear" x1="686.214" y1="208.378" x2="702.61" y2="229.742" gradientUnits="userSpaceOnUse">
<stop stop-color="#D8E0E3"/>
<stop offset="0.672" stop-color="#EAF1F5"/>
</linearGradient>
<linearGradient id="paint4_linear" x1="704.83" y1="217.59" x2="719.525" y2="217.59" gradientUnits="userSpaceOnUse">
<stop stop-color="#C5CCCF"/>
<stop offset="0.672" stop-color="#D1D8DB"/>
</linearGradient>
<linearGradient id="paint5_linear" x1="535.63" y1="221.081" x2="502.47" y2="190.173" gradientUnits="userSpaceOnUse">
<stop stop-color="#D8E0E3"/>
<stop offset="0.672" stop-color="#EAF1F5"/>
</linearGradient>
<linearGradient id="paint6_linear" x1="601.259" y1="217.668" x2="645.562" y2="217.668" gradientUnits="userSpaceOnUse">
<stop stop-color="#D8E0E3"/>
<stop offset="0.672" stop-color="#EAF1F5"/>
</linearGradient>
<linearGradient id="paint7_linear" x1="940.649" y1="221.2" x2="940.649" y2="186.103" gradientUnits="userSpaceOnUse">
<stop stop-color="#D3DBDE"/>
<stop offset="0.0117034" stop-color="#D4DCDF"/>
<stop offset="0.2646" stop-color="#E2E9ED"/>
<stop offset="0.4799" stop-color="#E7EEF2"/>
</linearGradient>
<linearGradient id="paint8_linear" x1="1049.11" y1="46.1824" x2="1048.91" y2="53.9951" gradientUnits="userSpaceOnUse">
<stop offset="0.000578704" stop-color="#E3F8FC"/>
<stop offset="1" stop-color="#AFEBF6"/>
</linearGradient>
<linearGradient id="paint9_linear" x1="310.383" y1="80.5015" x2="310.383" y2="102.443" gradientUnits="userSpaceOnUse">
<stop offset="0.000578704" stop-color="#E3F8FC"/>
<stop offset="1" stop-color="#AFEBF6"/>
</linearGradient>
<linearGradient id="paint10_linear" x1="62.151" y1="8.87108" x2="62.3624" y2="17.1181" gradientUnits="userSpaceOnUse">
<stop offset="0.000578704" stop-color="#E3F8FC"/>
<stop offset="1" stop-color="#AFEBF6"/>
</linearGradient>
</defs>
</svg>
