<svg width="283" height="200" viewBox="0 0 283 200" fill="none" xmlns="http://www.w3.org/2000/svg">
<path d="M113.4 38.5H39.1V110.1H113.4V38.5Z" fill="url(#paint0_linear)"/>
<path d="M145.1 38.5H113.4V110.1H145.1V38.5Z" fill="#F9A932"/>
<path d="M85.4 76.0003C84.8 75.4003 83.9 75.4003 83.4 76.0003L78.1 81.3003C77.5 81.9003 77.5 82.8003 78.1 83.3003L83.4 88.6003C84 89.2003 84.9 89.2003 85.4 88.6003L90.7 83.3003C91.3 82.7003 91.3 81.8003 90.7 81.3003L85.4 76.0003Z" fill="#6D737D"/>
<path d="M83.3 72.5002C83.9 73.1002 84.8 73.1002 85.3 72.5002L90.6 67.2002C91.2 66.6002 91.2 65.7002 90.6 65.2002L85.3 59.9002C84.7 59.3002 83.8 59.3002 83.3 59.9002L79.2 64.0002C78.9 64.3002 77.7 65.2002 76.2 65.2002C74.4 65.2002 73.2 64.0002 73.2 64.0002L69.2 59.9002C68.6 59.3002 67.7 59.3002 67.2 59.9002L61.9 65.2002C61.3 65.8002 61.3 66.7002 61.9 67.2002L66 71.3002C66.3 71.6002 67.2 72.7002 67.2 74.2002C67.2 75.7002 66.3 76.8002 66 77.1002L61.8 81.3002C61.2 81.9002 61.2 82.8002 61.8 83.3002L67.2 88.6002C67.8 89.2002 68.7 89.2002 69.2 88.6002L74.5 83.3002C75.1 82.7002 75.1 81.8002 74.5 81.3002L70.4 77.2002C70.1 76.9002 69.2 75.7002 69.2 74.2002C69.2 72.7002 70.1 71.6002 70.4 71.3002L73.3 68.4002C73.3 68.4002 74.5 67.2002 76.3 67.2002C77.8 67.2002 78.9 68.1002 79.2 68.4002L83.3 72.5002Z" fill="#6D737D"/>
<path d="M39.1 39.1997H113.4V54.9997" stroke="#6D737D" stroke-width="0.7" stroke-miterlimit="10" stroke-linecap="round" stroke-linejoin="round"/>
<path d="M125.7 105.3C129.3 102.3 141.7 103.2 153.8 105.3C166 107.4 176.1 113.1 179.2 118.6C182.3 124.1 177.7 130.3 172.2 138.5C166.6 146.7 153.1 166 151.1 169.6C149 173.2 143.7 179.1 150.1 182.1C156.5 185.1 170.6 192.3 170.6 192.3H137.8C137.8 192.3 133.1 192.2 133.6 186.9C134.1 181.6 137.2 164.4 144.3 147.6C151.4 130.8 152.2 129.1 152.2 129.1C152.2 129.1 148.4 128.9 139.6 129.2C130.8 129.5 124.4 124.7 122 118.6C119.4 112.3 123.3 107.2 125.7 105.3Z" fill="url(#paint1_linear)"/>
<path d="M129 128C129 128 141.8 129.4 147 129.1C152.2 128.8 152.2 128.8 152.2 128.8C152.2 128.8 148.9 136.4 144.3 147.3C142.4 151.9 141.5 154.4 139.8 160.1" stroke="#6D737D" stroke-width="1.2" stroke-miterlimit="10" stroke-linecap="round" stroke-linejoin="round"/>
<path d="M144.9 104C154.4 105.4 164.8 107.5 172.1 112C181.8 118 181.4 122.6 177.1 130.5C172.8 138.4 152 166.8 148.9 173C145.8 179.3 147.2 180.9 153.5 183.6C159.8 186.3 170.5 192.1 170.5 192.1H148.9" stroke="#6D737D" stroke-width="1.2" stroke-miterlimit="10" stroke-linecap="round" stroke-linejoin="round"/>
<path d="M110.7 132.1H85.8C83.7 132.1 82 130.4 82 128.3C82 126 83.9 124.3 86.2 124.5L111 126.7C112.4 126.8 113.5 128 113.5 129.5C113.4 130.8 112.2 132.1 110.7 132.1Z" fill="white"/>
<path d="M223.8 285.3C255.777 285.3 281.7 259.377 281.7 227.4C281.7 195.423 255.777 169.5 223.8 169.5C191.823 169.5 165.9 195.423 165.9 227.4C165.9 259.377 191.823 285.3 223.8 285.3Z" stroke="#6D737D" stroke-width="1.2" stroke-miterlimit="10" stroke-linecap="round" stroke-linejoin="round"/>
<path d="M59.3 285.3C91.2773 285.3 117.2 259.377 117.2 227.4C117.2 195.423 91.2773 169.5 59.3 169.5C27.3227 169.5 1.40002 195.423 1.40002 227.4C1.40002 259.377 27.3227 285.3 59.3 285.3Z" stroke="#6D737D" stroke-width="1.2" stroke-miterlimit="10" stroke-linecap="round" stroke-linejoin="round"/>
<path d="M147.8 197L133 248.6" stroke="#6D737D" stroke-width="1.2" stroke-miterlimit="10" stroke-linecap="round" stroke-linejoin="round"/>
<path d="M110.3 148H189.7" stroke="#6D737D" stroke-width="1.2" stroke-miterlimit="10" stroke-linecap="round" stroke-linejoin="round"/>
<path d="M223.8 227.4L180 124H206.7C213.9 124 219.7 129.8 219.7 137V138.1C219.7 145.3 213.9 151.1 206.7 151.1" stroke="#6D737D" stroke-width="1.2" stroke-miterlimit="10" stroke-linecap="round" stroke-linejoin="round"/>
<path d="M140.8 221.7L102.9 132.1" stroke="#6D737D" stroke-width="1.2" stroke-miterlimit="10" stroke-linecap="round" stroke-linejoin="round"/>
<path d="M59.3 227.4L110.3 148" stroke="#6D737D" stroke-width="1.2" stroke-miterlimit="10" stroke-linecap="round" stroke-linejoin="round"/>
<path d="M140.8 221.7L189.7 148" stroke="#6D737D" stroke-width="1.2" stroke-miterlimit="10" stroke-linecap="round" stroke-linejoin="round"/>
<path d="M201.7 124H227.2C234.4 124 240.2 129.8 240.2 137V138.1C240.2 145.3 234.4 151.1 227.2 151.1" stroke="#6D737D" stroke-width="1.2" stroke-miterlimit="10" stroke-linecap="round" stroke-linejoin="round"/>
<path d="M110.7 132.1H85.8C83.7 132.1 82 130.4 82 128.3C82 126 83.9 124.3 86.2 124.5L111 126.7C112.4 126.8 113.5 128 113.5 129.5C113.4 130.8 112.2 132.1 110.7 132.1Z" stroke="#6D737D" stroke-width="1.2" stroke-miterlimit="10" stroke-linecap="round" stroke-linejoin="round"/>
<path d="M173.5 43.7999C175.1 41.5999 178.3 41.0999 180.7 42.3999C183.9 44.1999 188.2 48.0999 191.8 54.0999C197 62.8999 201.7 71.2999 210.3 85.7999C220.5 103 224.9 111.6 228.3 114.7C231.6 117.8 239.2 120.4 240.2 126.8C241.2 133.2 237.6 129.4 235.7 126.8C233.8 124.2 230.5 122.5 230.5 122.5C230.5 122.5 233.8 128 231.2 128.4C228.6 128.9 225.3 124.8 222.9 121.7C220.5 118.6 209.6 105.8 201.1 95.6999C195 88.3999 184.1 74.5999 174.7 57.6999C171.6 52.0999 172 46.5999 173.3 44.1999C173.2 44.1999 173.3 43.9999 173.5 43.7999Z" fill="white"/>
<path d="M173.5 43.7999C175.1 41.5999 178.3 41.0999 180.7 42.3999C183.9 44.1999 188.2 48.0999 191.8 54.0999C197 62.8999 201.7 71.2999 210.3 85.7999C220.5 103 224.9 111.6 228.3 114.7C231.6 117.8 239.2 120.4 240.2 126.8C241.2 133.2 237.6 129.4 235.7 126.8C233.8 124.2 230.5 122.5 230.5 122.5C230.5 122.5 233.8 128 231.2 128.4C228.6 128.9 225.3 124.8 222.9 121.7C220.5 118.6 209.6 105.8 201.1 95.6999C195 88.3999 184.1 74.5999 174.7 57.6999C171.6 52.0999 172 46.5999 173.3 44.1999C173.2 44.1999 173.3 43.9999 173.5 43.7999Z" stroke="#6D737D" stroke-width="1.2" stroke-miterlimit="10" stroke-linecap="round" stroke-linejoin="round"/>
<path d="M216.3 123.1C210.7 121.1 208 118.4 201 109.4C195.4 102.3 181.5 83.5997 173.3 70.9997C177.6 66.7997 179.4 65.3997 181.4 61.5997C186.2 52.1997 179.2 40.8997 179.2 40.8997C179.2 40.8997 181.2 39.8997 183 36.6997C184.2 34.4997 185.8 32.2997 187.1 26.9997C189.8 16.0997 187.5 4.19972 178 3.39972C168.5 2.59972 161.3 7.59972 161.7 18.1997C162 25.6997 163.3 31.3997 162.5 34.6997C162.1 36.2997 160.6 37.4997 158.9 37.4997L157.5 37.5997C155.9 37.6997 150.1 37.8997 145.9 38.4997C141 39.1997 132.1 41.4997 122.2 52.9997C116.7 59.3997 107.2 74.0997 100.9 85.7997C95.9 95.0997 93.7 100.9 91.2 110.4C88.1 122.2 97.2 143.4 107.1 163.2C110.9 170.8 114.5 178 117.4 184.8C125.4 203.2 132 217 134.8 225.6C135.9 229 136.5 231.6 136.3 233.3C135.6 239.2 134 242.9 138.6 243.9C143.2 244.9 165.3 244.2 170.9 243.9C176.5 243.6 177.2 241.9 170.6 240.6C164 239.3 151.1 235.3 148.8 229.7C146.5 224.1 142 193.5 138.6 176.8C135.3 160.1 129.1 128 129.1 128C129.1 128 130.6 126 132.9 123.1C138.8 115.4 141.6 108.7 151.4 94.1997C154.3 89.9997 157.7 86.1997 161.3 82.5997C174.7 100.9 197.4 120 201.8 124.3C206.4 128.7 209.6 125.8 212 130.1C214.4 134.5 217.3 138.1 219 135.9C220.6 133.7 222 125.2 216.3 123.1Z" fill="url(#paint2_linear)"/>
<path d="M151.9 46.5C159.5 48.1 162.8 52.1 168.2 62.5C173.5 72.9 193.9 100.4 201 109.4C208.1 118.4 210.7 121.1 216.3 123.1C222 125.2 220.7 133.7 219 135.9C217.3 138.1 214.4 134.4 212 130.1C209.6 125.7 206.4 128.6 201.8 124.3C197.2 119.9 169.9 97.3 155.5 74.4" stroke="#6D737D" stroke-width="1.2" stroke-miterlimit="10" stroke-linecap="round" stroke-linejoin="round"/>
<path d="M205.4 16.9999H160.4C160.4 16.9999 159.8 0.999902 175.4 0.899902C190.7 0.899902 190.9 16.9999 190.9 16.9999" stroke="#6D737D" stroke-width="1.2" stroke-miterlimit="10" stroke-linecap="round" stroke-linejoin="round"/>
<path d="M114.1 39.7998H151C156.9 39.7998 161.9 43.0998 163.7 44.8998C173 54.9998 168.3 62.5998 168.3 62.5998" stroke="#6D737D" stroke-width="1.2" stroke-miterlimit="10" stroke-linecap="round" stroke-linejoin="round"/>
<path d="M96.9 93.3C96.9 93.3 104.1 97.9 123.8 94.8C145.1 91.5 157.9 78 157.9 78" stroke="#6D737D" stroke-width="1.2" stroke-miterlimit="10" stroke-linecap="round" stroke-linejoin="round"/>
<path d="M161.2 82.6001C157.6 86.2001 154.2 90.1001 151.3 94.2001C141.4 108.6 138.7 115.4 132.8 123.1C130.5 126.1 129 128 129 128" stroke="#6D737D" stroke-width="1.2" stroke-miterlimit="10" stroke-linecap="round" stroke-linejoin="round"/>
<path d="M125.7 113.3C129 130 146.4 224.1 148.7 229.7C151 235.3 163.9 239.3 170.5 240.6" stroke="#6D737D" stroke-width="1.2" stroke-miterlimit="10" stroke-linecap="round" stroke-linejoin="round"/>
<defs>
<linearGradient id="paint0_linear" x1="73.2343" y1="60.4905" x2="83.7954" y2="108.456" gradientUnits="userSpaceOnUse">
<stop offset="0.4268" stop-color="#FFCF7D"/>
<stop offset="1" stop-color="#F9B032"/>
</linearGradient>
<linearGradient id="paint1_linear" x1="149.079" y1="148.605" x2="138.871" y2="141.93" gradientUnits="userSpaceOnUse">
<stop offset="0.00415427" stop-color="#FC77A8"/>
<stop offset="0.3458" stop-color="#F370A1"/>
<stop offset="0.8989" stop-color="#DB5E8C"/>
<stop offset="1" stop-color="#D65A88"/>
</linearGradient>
<linearGradient id="paint2_linear" x1="153.428" y1="83.023" x2="156.449" y2="144.939" gradientUnits="userSpaceOnUse">
<stop offset="0.00415427" stop-color="#FC77A8"/>
<stop offset="0.3458" stop-color="#F370A1"/>
<stop offset="0.8989" stop-color="#DB5E8C"/>
<stop offset="1" stop-color="#D65A88"/>
</linearGradient>
</defs>
</svg>
