<svg width="1213" height="255" viewBox="0 0 1213 255" fill="none" xmlns="http://www.w3.org/2000/svg">
<path d="M109.7 231.7C97.1 222.2 86.3 220.9 78.1 226.6C69.9 232.3 62.5 231.2 54.7 227.8C46.9 224.3 36.5 228.7 26.1 238.6C15.7 248.5 1.8 254.9 0.5 254.9H134C134 254.9 122.3 241.2 109.7 231.7Z" fill="url(#paint0_linear)"/>
<path d="M176 254.9V162.2C176 159.4 178.3 157.1 181.1 157.1H323.1C325.9 157.1 328.2 159.4 328.2 162.2V254.9H176Z" fill="url(#paint1_linear)"/>
<path d="M381.9 206.1V198.4C381.9 196.7 380.5 195.4 378.9 195.4H307.8C306.1 195.4 304.8 196.8 304.8 198.4V255H466.9V208.8C466.9 207.3 465.7 206.2 464.3 206.2H381.9V206.1Z" fill="url(#paint2_linear)"/>
<path d="M580.5 205.8H536.2V255H580.5V205.8Z" fill="url(#paint3_linear)"/>
<path d="M608.7 205.8H580.5V255H608.7V205.8Z" fill="url(#paint4_linear)"/>
<path d="M181.2 157.2C178.4 157.2 176.1 159.5 176.1 162.3V255H273.9V164.2C273.9 160.4 270.8 157.3 267 157.3H181.2V157.2Z" fill="url(#paint5_linear)"/>
<path d="M381.9 254.9H466.9V208.7C466.9 207.2 465.7 206.1 464.3 206.1H382V254.9H381.9Z" fill="url(#paint6_linear)"/>
<path d="M714.4 105C720.4 108.9 730.3 131.9 735.9 144.5C741.5 157.1 743.5 158 748.5 158.2C753.5 158.4 787.8 158.6 787.8 158.6C787.8 158.6 790.3 157.1 793.9 154.1C797.5 151.1 802.7 149.3 805.5 150.5C808.3 151.7 813.6 158.7 813.6 158.7H802.7C802.7 158.7 799.7 160.6 797.1 163.1C794.5 165.6 790.1 165.9 790.1 165.9C790.1 165.9 789.9 169.9 785.5 172C781.1 174.1 737.1 178.1 732.1 178.2C727.1 178.3 721.3 171.8 711.4 156.7C701.5 141.6 695.9 130.1 693.5 122C690.4 111.7 702.2 97.2 714.4 105Z" fill="white"/>
<path d="M740 177.7C736.2 178 733.3 178.2 732.1 178.2C727.1 178.3 721.3 171.8 711.4 156.7C708.5 152.2 705.9 148.1 703.7 144.2" stroke="#6D737D" stroke-width="1.2" stroke-miterlimit="10" stroke-linecap="round" stroke-linejoin="round"/>
<path d="M802.7 158.7C802.7 158.7 799.7 160.6 797.1 163.1C794.5 165.6 790.1 165.9 790.1 165.9C790.1 165.9 789.9 169.9 785.5 172C783.2 173.1 762 175.5 752.8 176.5" stroke="#6D737D" stroke-width="1.2" stroke-miterlimit="10" stroke-linecap="round" stroke-linejoin="round"/>
<path d="M811.1 155.5C811.1 155.5 809 152.2 805.5 150.5C802 148.7 795.9 152.5 793.9 154.1C791.9 155.7 791.4 156.1 791.4 156.1" stroke="#6D737D" stroke-width="1.2" stroke-miterlimit="10" stroke-linecap="round" stroke-linejoin="round"/>
<path d="M714.4 104.9C720.4 108.8 730.3 131.8 735.9 144.4C741.5 157 743.5 157.9 748.5 158.1C753.5 158.3 787.8 158.5 787.8 158.5" stroke="#6D737D" stroke-width="1.2" stroke-miterlimit="10" stroke-linecap="round" stroke-linejoin="round"/>
<path d="M552.2 179.5H624.8V87.8H552.2V179.5Z" fill="url(#paint7_linear)"/>
<path d="M663.8 179.5H566.3V255.5H663.8V179.5Z" fill="url(#paint8_linear)"/>
<path d="M566.3 179.5H517.8V255.5H566.3V179.5Z" fill="#F9A932"/>
<path d="M552.2 179.5H508.5V87.8H552.2V179.5Z" fill="url(#paint9_linear)"/>
<path d="M554.4 90.6L622.6 176.7" stroke="#6D737D" stroke-width="1.5" stroke-miterlimit="10" stroke-linecap="round" stroke-linejoin="round"/>
<path d="M622.6 90.6L552.2 179.5" stroke="#6D737D" stroke-width="1.5" stroke-miterlimit="10" stroke-linecap="round" stroke-linejoin="round"/>
<path d="M517.8 217.7H443.5V255.5H517.8V217.7Z" fill="url(#paint10_linear)"/>
<path d="M443.6 217.7H410.5V255.5H443.6V217.7Z" fill="url(#paint11_linear)"/>
<path d="M427.7 255.5L427.4 254.9L427 254L413 223.3" stroke="#6D737D" stroke-width="1.5" stroke-miterlimit="10" stroke-linecap="round" stroke-linejoin="round"/>
<path d="M426.3 255.5L426.6 254.9L427 254L441 223.3" stroke="#6D737D" stroke-width="1.5" stroke-miterlimit="10" stroke-linecap="round" stroke-linejoin="round"/>
<path d="M563.8 185L533.7 252.5" stroke="#6D737D" stroke-width="1.5" stroke-miterlimit="10" stroke-linecap="round" stroke-linejoin="round"/>
<path d="M551.7 255.5L551.4 254.9L542 233.9L536.2 220.9L533.6 215" stroke="#6D737D" stroke-width="1.5" stroke-miterlimit="10" stroke-linecap="round" stroke-linejoin="round"/>
<path d="M595.9 179.5H508.5" stroke="#6D737D" stroke-width="1.5" stroke-miterlimit="10" stroke-linecap="round" stroke-linejoin="round"/>
<path d="M552.2 179.5V149.4" stroke="#6D737D" stroke-width="1.5" stroke-miterlimit="10" stroke-linecap="round" stroke-linejoin="round"/>
<path d="M717.6 236.8C718.2 241.1 718 245.1 718.3 255.5H676.7C675.8 247.6 675.2 241.8 674.9 239.6C674.8 238.9 674.8 238.5 674.8 238.5C674.8 238.5 716.2 227.8 717.4 235.5C717.4 235.8 717.5 236 717.5 236.3C717.5 236.5 717.5 236.6 717.6 236.8Z" fill="url(#paint12_linear)"/>
<path d="M721.6 171C721.6 171.1 721.6 171.3 721.6 171.4C721.4 173.8 721.3 176.1 721.1 178.4C720.9 181.2 720.8 183.8 720.7 186.5C720.2 201.7 720.5 214.7 720.7 224.2C720.8 229 720.8 232.8 720.7 235.6C720.7 236.1 719.4 236.5 717.5 236.8C713.1 237.5 705.5 237.9 703.6 239.4C701.7 240.9 699.6 248.9 697.1 255.5H638.6C638.9 244.4 640.5 229.2 642.5 219.5C643.7 213.6 643.3 196.9 643.1 179.5C642.9 164.4 642.9 148.6 644.2 139C647 118.2 650.8 109.5 657.8 102.1C658.5 101.4 659.1 100.7 659.8 100C660.1 99.7 660.5 99.3 660.8 99C661.1 98.7 661.5 98.4 661.8 98.1C662.3 97.7 662.7 97.2 663.2 96.8C663.4 96.6 663.5 96.5 663.7 96.3C664.6 95.4 665.5 94.6 666.4 93.8C667.4 92.9 668.4 92 669.3 91.1C674.5 86.2 678.5 81.7 680.9 73.8C681.1 73 681.4 72.3 681.6 71.5C682.8 67.4 683.9 63 685.4 59C685.5 58.8 685.6 58.6 685.7 58.3C686.7 55.6 688 53.2 689.6 51C689.7 50.9 689.7 50.8 689.8 50.7C692.9 46.8 697.3 44.3 703.9 44.5C718.7 45 721.8 54.6 721.2 63.8C721.1 65.1 721 66.3 720.8 67.5C719.8 73.5 717.1 78.9 713.6 82.8C712 84.6 710.2 86 708.3 87.1C707.4 87.6 706.5 88 705.5 88.3C703.9 88.8 699.9 89.5 697.5 89.8C694.3 90.2 693.9 97.1 698.7 100C700 100.8 701.8 101.9 704 103.3C706.5 105 709.5 107.2 712.4 109.9C718.2 115.4 723.6 123 724.8 133.4C725.3 141.3 722.9 155.1 721.6 171Z" fill="url(#paint13_linear)"/>
<path d="M669.1 91.2C665.8 94.3 662 97.7 657.8 102.1C650.8 109.5 647 118.2 644.2 139C641.4 159.8 644.8 208.6 642.5 219.5" stroke="#6D737D" stroke-width="1.5" stroke-miterlimit="10" stroke-linecap="round" stroke-linejoin="round"/>
<path d="M671.2 111.4C671.2 111.4 679.9 112.1 687 124.3C694.1 136.6 703.9 154.6 703.9 154.6C703.9 154.6 709.9 124.1 711.5 114.5C713.1 104.9 711.3 104 709.3 100.2C707.3 96.4 708 87.5 708.2 84.6C708.4 81.7 712 79.3 713.3 82.8C713.3 82.8 716 81 720.2 86.6C724.4 92.2 727.6 96.4 726.9 100C726.2 103.6 723.8 108 723.6 108.7C723.4 109.4 728 138.8 727 157.7C726 176.6 715.5 189.6 705.1 189.3C694.6 189.1 683.5 176.2 669.9 154.1C656.3 132 658.5 122.7 659.9 118.9C661.3 115.1 665.2 110.6 671.2 111.4Z" fill="url(#paint14_linear)"/>
<path d="M725.7 127.9C726.6 137.4 727.4 148.8 727 157.8C726 176.7 715.5 189.7 705.1 189.4C697.2 189.2 689 181.9 679.7 169" stroke="#6D737D" stroke-width="1.5" stroke-miterlimit="10" stroke-linecap="round" stroke-linejoin="round"/>
<path d="M702.6 164.4C706.3 144.4 710 124.2 711.6 114.6C713.2 105 711.4 104.1 709.4 100.3C707.4 96.5 708.1 87.6 708.3 84.7C708.5 81.8 712.1 79.4 713.4 82.9C713.8 84 714.4 90.2 714.5 92.4" stroke="#6D737D" stroke-width="1.5" stroke-miterlimit="10" stroke-linecap="round" stroke-linejoin="round"/>
<path d="M689.2 63.3C693 62.6 694.8 66.6 694.4 68.3C694.4 68.3 702.5 56.5 705.9 57.6C709.1 58.7 719.7 67.3 726.4 62.7C733.1 58.1 723.5 47.1 709.6 44.7C695.7 42.3 689.7 47.9 685.3 58.4C682.4 65.5 681.2 71.6 681.2 71.6" stroke="#6D737D" stroke-width="1.5" stroke-miterlimit="10" stroke-linecap="round" stroke-linejoin="round"/>
<path d="M674.7 92.4C674.7 92.4 680.1 103.1 690.1 108.4C697.2 112.2 700.3 106.6 700.3 106.6" stroke="#6D737D" stroke-width="1.5" stroke-miterlimit="10" stroke-linecap="round" stroke-linejoin="round"/>
<path d="M658.9 123.5C658.9 123.5 659.6 133.8 661.3 145.8C663 157.8 669.1 168.6 669.1 168.6C669.1 168.6 676.3 160.5 685.6 155.3C694.9 150.1 700.3 148 700.3 148C700.3 148 695.2 133.6 689.2 123.4C683.2 113.2 678.9 109.8 674.7 109" stroke="#6D737D" stroke-width="1.5" stroke-miterlimit="10" stroke-linecap="round" stroke-linejoin="round"/>
<path d="M713.3 82.9C713.3 82.9 715.6 81.7 717.9 84.2C720.2 86.7 724.5 91.7 726.1 95.6C727.7 99.5 726.8 101.4 725.5 104.5" stroke="#6D737D" stroke-width="1.5" stroke-miterlimit="10" stroke-linecap="round" stroke-linejoin="round"/>
<path d="M643.9 231.6C643.9 231.6 655.6 239.9 679.6 239.7C703.7 239.5 720.8 235.7 720.8 235.7V185.9" stroke="#6D737D" stroke-width="1.5" stroke-miterlimit="10" stroke-linecap="round" stroke-linejoin="round"/>
<path d="M807.8 64C821.5 49.1 820 25.4 804.4 11.2C788.9 -3.09996 765.2 -2.59999 751.5 12.3C738.4 26.6 739.2 48.8 753 63.3C748.7 72.7 739 73.8 739 73.8C739 73.8 750.3 77.1 758.4 68C773.8 79.2 795.1 77.8 807.8 64Z" fill="url(#paint15_linear)"/>
<path d="M778.8 52.6L777.4 44.6C777.1 43.1 778.2 41.6 779.7 41.5C780.2 41.5 780.7 41.4 781.1 41.3C787.5 40.2 792 35 791.1 29.8C790.2 24.6 784.2 21.2 777.8 22.3C772.3 23.2 768.3 27.1 767.7 31.4" stroke="#6D737D" stroke-width="2" stroke-miterlimit="10" stroke-linecap="round" stroke-linejoin="round"/>
<path d="M780.6 62.3C782.312 62.3 783.7 60.9121 783.7 59.2C783.7 57.4879 782.312 56.1 780.6 56.1C778.888 56.1 777.5 57.4879 777.5 59.2C777.5 60.9121 778.888 62.3 780.6 62.3Z" fill="#6D737D"/>
<path d="M825.1 159H899.4C901.4 159 903.2 157.8 904.1 156L921.1 119.6C922.3 117 920.4 114 917.6 114H843.3C841.3 114 839.5 115.2 838.6 117L821.6 153.4C820.3 156.1 822.2 159 825.1 159Z" fill="url(#paint16_linear)"/>
<path d="M876 136.5C875.7 136.2 875.1 136.2 874.8 136.5L871.7 139.6C871.4 139.9 871.4 140.5 871.7 140.8L874.8 143.9C875.1 144.2 875.7 144.2 876 143.9L879.1 140.8C879.4 140.5 879.4 139.9 879.1 139.6L876 136.5Z" fill="white"/>
<path d="M874.8 134.4C875.1 134.7 875.7 134.7 876 134.4L879.1 131.3C879.4 131 879.4 130.4 879.1 130.1L876 127C875.7 126.7 875.1 126.7 874.8 127L872.4 129.4C872.2 129.5 871.5 130.1 870.7 130.1C869.7 130.1 869 129.4 869 129.4L866.6 127C866.3 126.7 865.7 126.7 865.4 127L862.3 130.1C862 130.4 862 131 862.3 131.3L864.7 133.7C864.8 133.8 865.4 134.5 865.4 135.4C865.4 136.3 864.9 136.9 864.7 137.1L862.2 139.6C861.9 139.9 861.9 140.5 862.2 140.8L865.4 143.9C865.7 144.2 866.3 144.2 866.6 143.9L869.7 140.8C870 140.5 870 139.9 869.7 139.6L867.3 137.2C867.2 137 866.6 136.3 866.6 135.5C866.6 134.7 867.1 134 867.3 133.8L869 132.1C869 132.1 869.7 131.4 870.7 131.4C871.6 131.4 872.2 131.9 872.4 132.1L874.8 134.4Z" fill="white"/>
<path d="M825.1 159H899.4C901.4 159 903.2 157.8 904.1 156" stroke="#6D737D" stroke-width="1.2" stroke-miterlimit="10" stroke-linecap="round" stroke-linejoin="round"/>
<path d="M908 147.5L921 119.6C922.2 117 920.3 114 917.5 114H854.4" stroke="#6D737D" stroke-width="1.2" stroke-miterlimit="10" stroke-linecap="round" stroke-linejoin="round"/>
<path d="M901.6 161.8H809.7" stroke="#6D737D" stroke-width="1.2" stroke-miterlimit="10" stroke-linecap="round" stroke-linejoin="round"/>
<path d="M907.7 161.8H917.9C918.6 161.8 919.2 162.4 919.2 163.1V166.2C919.2 166.9 918.6 167.5 917.9 167.5H801.2" stroke="#6D737D" stroke-width="1.2" stroke-miterlimit="10" stroke-linecap="round" stroke-linejoin="round"/>
<path d="M899.9 167.5V255.5" stroke="#6D737D" stroke-width="2" stroke-miterlimit="10" stroke-linejoin="round"/>
<path d="M871.9 167.5V255.5" stroke="#6D737D" stroke-width="2" stroke-miterlimit="10" stroke-linejoin="round"/>
<path d="M858.9 167.5V255.5" stroke="#6D737D" stroke-width="2" stroke-miterlimit="10" stroke-linejoin="round"/>
<path d="M831 168.6V255.5" stroke="#6D737D" stroke-width="2" stroke-miterlimit="10" stroke-linejoin="round"/>
<path d="M1198.2 150.7H1158.8V202.3H1198.2V150.7Z" fill="#F9A932"/>
<path d="M1158.7 150.7H1107.9V202.3H1158.7V150.7Z" fill="url(#paint17_linear)"/>
<path d="M1212.1 137.9V255.5H1206.5V137.9C1206.5 137.1 1206.8 136.4 1207.3 135.8C1207.8 135.3 1208.5 134.9 1209.3 134.9C1210.8 135 1212.1 136.3 1212.1 137.9Z" fill="white"/>
<path d="M1100.4 172.9H1035.2V255.5H1100.4V172.9Z" fill="url(#paint18_linear)"/>
<path d="M1146.2 202.3H1081.8V255.5H1146.2V202.3Z" fill="#FFCF7D"/>
<path d="M1035.2 172.9H940.3V255.5H1035.2V172.9Z" fill="#FFCF7D"/>
<path d="M1206.5 202.3H1146.1V255.5H1206.5V202.3Z" fill="url(#paint19_linear)"/>
<path d="M1178.9 231.6L1203.9 205.1" stroke="#6D737D" stroke-width="0.7" stroke-miterlimit="10" stroke-linecap="round" stroke-linejoin="round"/>
<path d="M1169 242.1L1156.4 255.5" stroke="#6D737D" stroke-width="0.7" stroke-miterlimit="10" stroke-linecap="round" stroke-linejoin="round"/>
<path d="M1206.5 255.5V247.2" stroke="#6D737D" stroke-width="1.2" stroke-miterlimit="10" stroke-linecap="round" stroke-linejoin="round"/>
<path d="M1206.5 221.4V202.3V137.9C1206.5 137.1 1206.8 136.4 1207.3 135.8C1207.8 135.3 1208.5 134.9 1209.3 134.9C1210.8 134.9 1212.1 136.2 1212.1 137.8V255.4" stroke="#6D737D" stroke-width="1.2" stroke-miterlimit="10" stroke-linecap="round" stroke-linejoin="round"/>
<path d="M1027.1 98.2H979.5V173H1027.1V98.2Z" fill="url(#paint20_linear)"/>
<path d="M1146.1 202.3L1169 226.6" stroke="#6D737D" stroke-width="0.7" stroke-miterlimit="10" stroke-linecap="round" stroke-linejoin="round"/>
<path d="M1024.4 102.4L981.4 169.9" stroke="#6D737D" stroke-width="0.7" stroke-miterlimit="10" stroke-linecap="round" stroke-linejoin="round"/>
<path d="M982.1 102.4L1025.1 169.9" stroke="#6D737D" stroke-width="0.7" stroke-miterlimit="10" stroke-linecap="round" stroke-linejoin="round"/>
<path d="M1033 175.1L951.3 255.5" stroke="#6D737D" stroke-width="0.7" stroke-miterlimit="10" stroke-linecap="round" stroke-linejoin="round"/>
<path d="M942.5 175.1L987.8 219.7L1024.2 255.5" stroke="#6D737D" stroke-width="0.7" stroke-miterlimit="10" stroke-linecap="round" stroke-linejoin="round"/>
<path d="M1176.7 137.9V255.5H1171.1V137.9C1171.1 137.1 1171.4 136.4 1171.9 135.8C1172.4 135.3 1173.1 134.9 1173.9 134.9C1175.5 135 1176.7 136.3 1176.7 137.9Z" fill="white"/>
<path d="M1176.7 256.2V255.5V202.3V150.7V137.9C1176.7 136.3 1175.4 135 1173.9 135C1173.1 135 1172.4 135.3 1171.9 135.9C1171.4 136.4 1171.1 137.2 1171.1 138V150.8V202.4V255.6" stroke="#6D737D" stroke-width="1.2" stroke-miterlimit="10" stroke-linecap="round" stroke-linejoin="round"/>
<path d="M1169.3 188.8L1158.8 202.3" stroke="#6D737D" stroke-width="0.7" stroke-miterlimit="10" stroke-linecap="round" stroke-linejoin="round"/>
<path d="M1196.9 153.4L1178.9 176.5" stroke="#6D737D" stroke-width="0.7" stroke-miterlimit="10" stroke-linecap="round" stroke-linejoin="round"/>
<path d="M1178.9 176.5L1196.9 199.6" stroke="#6D737D" stroke-width="0.7" stroke-miterlimit="10" stroke-linecap="round" stroke-linejoin="round"/>
<path d="M1158.8 150.7L1169.3 164.3" stroke="#6D737D" stroke-width="0.7" stroke-miterlimit="10" stroke-linecap="round" stroke-linejoin="round"/>
<path d="M1141.7 150.7H1167.3" stroke="#6D737D" stroke-width="0.7" stroke-miterlimit="10" stroke-linecap="round" stroke-linejoin="round"/>
<path d="M1158.8 150.7V172.9" stroke="#6D737D" stroke-width="0.7" stroke-miterlimit="10" stroke-linecap="round" stroke-linejoin="round"/>
<path d="M1066.9 98.2H1027V173H1066.9V98.2Z" fill="url(#paint21_linear)"/>
<path d="M1081.8 213.5V202.3H1117.5" stroke="#6D737D" stroke-width="0.7" stroke-miterlimit="10" stroke-linecap="round" stroke-linejoin="round"/>
<path d="M1081.8 248V255.5" stroke="#6D737D" stroke-width="0.7" stroke-miterlimit="10" stroke-linecap="round" stroke-linejoin="round"/>
<path d="M1107.9 202.3V186.2" stroke="#6D737D" stroke-width="0.7" stroke-miterlimit="10" stroke-linecap="round" stroke-linejoin="round"/>
<path d="M1100.4 202.3V196.5" stroke="#6D737D" stroke-width="0.7" stroke-miterlimit="10" stroke-linecap="round" stroke-linejoin="round"/>
<path d="M1053.7 173.1H1100.4V184.5" stroke="#6D737D" stroke-width="0.7" stroke-miterlimit="10" stroke-linecap="round" stroke-linejoin="round"/>
<path d="M1067 172.9V154.7" stroke="#6D737D" stroke-width="0.7" stroke-miterlimit="10" stroke-linecap="round" stroke-linejoin="round"/>
<defs>
<linearGradient id="paint0_linear" x1="67.2518" y1="249.397" x2="67.2518" y2="235.8" gradientUnits="userSpaceOnUse">
<stop stop-color="#D8E0E3"/>
<stop offset="0.672" stop-color="#EAF1F5"/>
</linearGradient>
<linearGradient id="paint1_linear" x1="317.886" y1="206.429" x2="231.438" y2="205.956" gradientUnits="userSpaceOnUse">
<stop stop-color="#C5CCCF"/>
<stop offset="0.672" stop-color="#D1D8DB"/>
</linearGradient>
<linearGradient id="paint2_linear" x1="412.272" y1="244.69" x2="314.487" y2="194.144" gradientUnits="userSpaceOnUse">
<stop stop-color="#D8E0E3"/>
<stop offset="0.672" stop-color="#EAF1F5"/>
</linearGradient>
<linearGradient id="paint3_linear" x1="544.827" y1="212.687" x2="576.267" y2="253.654" gradientUnits="userSpaceOnUse">
<stop stop-color="#D8E0E3"/>
<stop offset="0.672" stop-color="#EAF1F5"/>
</linearGradient>
<linearGradient id="paint4_linear" x1="580.524" y1="230.352" x2="608.702" y2="230.352" gradientUnits="userSpaceOnUse">
<stop stop-color="#C5CCCF"/>
<stop offset="0.672" stop-color="#D1D8DB"/>
</linearGradient>
<linearGradient id="paint5_linear" x1="256.077" y1="237.046" x2="192.491" y2="177.778" gradientUnits="userSpaceOnUse">
<stop stop-color="#D8E0E3"/>
<stop offset="0.672" stop-color="#EAF1F5"/>
</linearGradient>
<linearGradient id="paint6_linear" x1="381.923" y1="230.501" x2="466.875" y2="230.501" gradientUnits="userSpaceOnUse">
<stop stop-color="#D8E0E3"/>
<stop offset="0.672" stop-color="#EAF1F5"/>
</linearGradient>
<linearGradient id="paint7_linear" x1="564.577" y1="102.94" x2="601.852" y2="150.775" gradientUnits="userSpaceOnUse">
<stop offset="0.4268" stop-color="#FFCB7D"/>
<stop offset="1" stop-color="#F9B032"/>
</linearGradient>
<linearGradient id="paint8_linear" x1="617.435" y1="176.779" x2="612.6" y2="258.275" gradientUnits="userSpaceOnUse">
<stop offset="0.4268" stop-color="#FFCB7D"/>
<stop offset="1" stop-color="#F9B032"/>
</linearGradient>
<linearGradient id="paint9_linear" x1="558.342" y1="133.657" x2="537.115" y2="133.657" gradientUnits="userSpaceOnUse">
<stop offset="0.4268" stop-color="#FFC061"/>
<stop offset="1" stop-color="#F9A932"/>
</linearGradient>
<linearGradient id="paint10_linear" x1="450.086" y1="239.397" x2="477.946" y2="236.864" gradientUnits="userSpaceOnUse">
<stop offset="0.4268" stop-color="#FFC061"/>
<stop offset="1" stop-color="#F9A932"/>
</linearGradient>
<linearGradient id="paint11_linear" x1="409.299" y1="237.771" x2="444.695" y2="235.463" gradientUnits="userSpaceOnUse">
<stop offset="0.4268" stop-color="#FFCB7D"/>
<stop offset="1" stop-color="#F9B032"/>
</linearGradient>
<linearGradient id="paint12_linear" x1="706.347" y1="244.742" x2="681.15" y2="247.194" gradientUnits="userSpaceOnUse">
<stop offset="0.4919" stop-color="#82C5F5"/>
<stop offset="0.597" stop-color="#7CC1F3"/>
<stop offset="0.7415" stop-color="#6AB7EE"/>
<stop offset="0.9084" stop-color="#4DA6E6"/>
<stop offset="1" stop-color="#3A9BE0"/>
</linearGradient>
<linearGradient id="paint13_linear" x1="725.283" y1="153.039" x2="643.377" y2="148.572" gradientUnits="userSpaceOnUse">
<stop offset="0.4171" stop-color="#82C5F5"/>
<stop offset="1" stop-color="#3A9BE0"/>
</linearGradient>
<linearGradient id="paint14_linear" x1="738.999" y1="119.81" x2="670.528" y2="156.077" gradientUnits="userSpaceOnUse">
<stop offset="0.2022" stop-color="#82C5F5"/>
<stop offset="0.4771" stop-color="#64B4EC"/>
<stop offset="0.8119" stop-color="#46A2E3"/>
<stop offset="1" stop-color="#3A9BE0"/>
</linearGradient>
<linearGradient id="paint15_linear" x1="802.091" y1="29.9142" x2="704.133" y2="43.9984" gradientUnits="userSpaceOnUse">
<stop offset="0.2096" stop-color="#E7EEF2"/>
<stop offset="0.8661" stop-color="#C8CFD1"/>
</linearGradient>
<linearGradient id="paint16_linear" x1="886.591" y1="123.835" x2="930.728" y2="87.1318" gradientUnits="userSpaceOnUse">
<stop offset="0.281" stop-color="#82C5F5"/>
<stop offset="1" stop-color="#3A9BE0"/>
</linearGradient>
<linearGradient id="paint17_linear" x1="1133.46" y1="182.463" x2="1133.97" y2="206.05" gradientUnits="userSpaceOnUse">
<stop offset="0.4268" stop-color="#FFC061"/>
<stop offset="1" stop-color="#F9A932"/>
</linearGradient>
<linearGradient id="paint18_linear" x1="1124.84" y1="187.518" x2="1054.53" y2="220.463" gradientUnits="userSpaceOnUse">
<stop offset="0.4268" stop-color="#FFC061"/>
<stop offset="1" stop-color="#F9A932"/>
</linearGradient>
<linearGradient id="paint19_linear" x1="1210.06" y1="228.917" x2="1190.38" y2="228.917" gradientUnits="userSpaceOnUse">
<stop offset="0.4268" stop-color="#FFC061"/>
<stop offset="1" stop-color="#F9A932"/>
</linearGradient>
<linearGradient id="paint20_linear" x1="1002.69" y1="125.884" x2="1005.3" y2="171.997" gradientUnits="userSpaceOnUse">
<stop offset="0.4268" stop-color="#FFCB7D"/>
<stop offset="1" stop-color="#F9B032"/>
</linearGradient>
<linearGradient id="paint21_linear" x1="1066.93" y1="107.569" x2="1037.5" y2="148.894" gradientUnits="userSpaceOnUse">
<stop offset="0.4268" stop-color="#FFC061"/>
<stop offset="1" stop-color="#F9A932"/>
</linearGradient>
</defs>
</svg>
