<svg width="1569" height="454" viewBox="0 0 1569 454" fill="none" xmlns="http://www.w3.org/2000/svg">
<path d="M1568.6 348.2H1508.4C1508.4 348.2 1515.6 337.4 1522.8 333.8C1530 330.2 1534.6 336.9 1537.7 338.4C1540.8 339.9 1546 335.9 1549.5 336.3C1556.1 337.1 1568.6 348.2 1568.6 348.2Z" fill="url(#paint0_linear)"/>
<path d="M437 135.6H247.6C247.6 135.6 263.2 129.8 272.9 121.3C282.6 112.8 290.8 101.5 302.4 103.4C314 105.3 323.7 118.7 329.2 119.4C334.6 120.1 338.1 112.3 342.4 110.4C346.7 108.5 353.7 110.4 359.5 116.2C365.3 122 370 126.7 375 122.8C380 118.9 383.9 112.7 395.6 115.8C407.2 118.9 409.7 123.4 415.8 127.1C425.3 132.9 437 135.6 437 135.6Z" fill="url(#paint1_linear)"/>
<path d="M0 268H81.3C81.3 268 61.4 263.1 56.4 260.3C51.4 257.4 45.1 259.7 43.1 260.3C41.1 260.9 39.8 258.3 35.9 255.7C32 253.1 23.5 256.6 19.9 258.8C16.3 261.1 0 268 0 268Z" fill="url(#paint2_linear)"/>
<path d="M1178 261.4H1317.4C1317.4 261.4 1298.6 252.6 1291.6 248.4C1284.6 244.2 1280.1 249 1276.8 249.8C1273.4 250.6 1270.6 243.4 1266.7 239.4C1262.8 235.5 1255.8 241.4 1252.4 243.9C1249 246.4 1246.2 243.8 1240.6 238.1C1235 232.4 1224.1 234.9 1216.8 241.1C1209.6 247.3 1178 261.4 1178 261.4Z" fill="url(#paint3_linear)"/>
<path d="M775.4 60.8H1060.7C1060.7 60.8 1021.4 50.6 993.6 23.7C965.8 -3.1 947.6 -5.1 932.2 7.4C916.8 19.9 909.2 15.1 894.8 8.4C880.4 1.7 870.8 6.5 858.4 21.8C846 37.1 830.6 25.6 811.4 35.2C792.2 44.8 775.4 60.8 775.4 60.8Z" fill="url(#paint4_linear)"/>
<path d="M1334.3 388.9H1300.6C1300.6 388.9 1304.6 382.9 1308.7 380.8C1312.8 378.7 1315.3 382.5 1317 383.4C1318.7 384.3 1321.6 382 1323.6 382.2C1327.3 382.6 1334.3 388.9 1334.3 388.9Z" fill="url(#paint5_linear)"/>
<path d="M351.8 346.7H399.8C399.8 346.7 394.1 338.1 388.3 335.2C382.5 332.3 378.9 337.7 376.4 338.9C373.9 340.1 369.8 336.9 367 337.3C361.8 337.8 351.8 346.7 351.8 346.7Z" fill="url(#paint6_linear)"/>
<path d="M238.9 453.3H205.2C205.2 453.3 209.2 447.3 213.3 445.2C217.4 443.1 219.9 446.9 221.6 447.8C223.3 448.7 226.2 446.4 228.2 446.6C231.9 447.1 238.9 453.3 238.9 453.3Z" fill="url(#paint7_linear)"/>
<path d="M1508.4 152.8H1378.3C1378.3 152.8 1393.9 129.4 1409.4 121.7C1424.9 114 1435 128.4 1441.7 131.7C1448.4 135 1459.5 126.4 1467.3 127.3C1481.3 128.8 1508.4 152.8 1508.4 152.8Z" fill="url(#paint8_linear)"/>
<defs>
<linearGradient id="paint0_linear" x1="1538.26" y1="339.322" x2="1538.42" y2="345.465" gradientUnits="userSpaceOnUse">
<stop offset="0.000578704" stop-color="#E3F8FC"/>
<stop offset="1" stop-color="#AFEBF6"/>
</linearGradient>
<linearGradient id="paint1_linear" x1="342.734" y1="118.286" x2="342.413" y2="130.823" gradientUnits="userSpaceOnUse">
<stop offset="0.000578704" stop-color="#E3F8FC"/>
<stop offset="1" stop-color="#AFEBF6"/>
</linearGradient>
<linearGradient id="paint2_linear" x1="40.4357" y1="260.569" x2="40.5732" y2="265.935" gradientUnits="userSpaceOnUse">
<stop offset="0.000578704" stop-color="#E3F8FC"/>
<stop offset="1" stop-color="#AFEBF6"/>
</linearGradient>
<linearGradient id="paint3_linear" x1="1247.36" y1="246.418" x2="1247.63" y2="257.049" gradientUnits="userSpaceOnUse">
<stop offset="0.000578704" stop-color="#E3F8FC"/>
<stop offset="1" stop-color="#AFEBF6"/>
</linearGradient>
<linearGradient id="paint4_linear" x1="917.207" y1="27.2085" x2="917.813" y2="50.8241" gradientUnits="userSpaceOnUse">
<stop offset="0.000578704" stop-color="#E3F8FC"/>
<stop offset="1" stop-color="#AFEBF6"/>
</linearGradient>
<linearGradient id="paint5_linear" x1="1317.3" y1="383.876" x2="1317.39" y2="387.308" gradientUnits="userSpaceOnUse">
<stop offset="0.000578704" stop-color="#E3F8FC"/>
<stop offset="1" stop-color="#AFEBF6"/>
</linearGradient>
<linearGradient id="paint6_linear" x1="376.004" y1="339.562" x2="375.879" y2="344.456" gradientUnits="userSpaceOnUse">
<stop offset="0.000578704" stop-color="#E3F8FC"/>
<stop offset="1" stop-color="#AFEBF6"/>
</linearGradient>
<linearGradient id="paint7_linear" x1="221.976" y1="448.355" x2="222.064" y2="451.787" gradientUnits="userSpaceOnUse">
<stop offset="0.000578704" stop-color="#E3F8FC"/>
<stop offset="1" stop-color="#AFEBF6"/>
</linearGradient>
<linearGradient id="paint8_linear" x1="1442.8" y1="133.581" x2="1443.14" y2="146.849" gradientUnits="userSpaceOnUse">
<stop offset="0.000578704" stop-color="#E3F8FC"/>
<stop offset="1" stop-color="#AFEBF6"/>
</linearGradient>
</defs>
</svg>
