<svg width="1917" height="337" viewBox="0 0 1917 337" fill="none" xmlns="http://www.w3.org/2000/svg">
<g clip-path="url(#clip0)">
<path d="M384.2 5.10001H490.6" stroke="#CCD6E6" stroke-width="1.2" stroke-miterlimit="10" stroke-linecap="round" stroke-linejoin="round"/>
<path d="M258.9 5.10001H340.4" stroke="#CCD6E6" stroke-width="1.2" stroke-miterlimit="10" stroke-linecap="round" stroke-linejoin="round"/>
<path d="M365 32.5H511.7" stroke="#CCD6E6" stroke-width="1.2" stroke-miterlimit="10" stroke-linecap="round" stroke-linejoin="round"/>
<path d="M259.1 32.5H350.9" stroke="#CCD6E6" stroke-width="1.2" stroke-miterlimit="10" stroke-linecap="round" stroke-linejoin="round"/>
<path d="M437.4 60L516.9 59.9" stroke="#CCD6E6" stroke-width="1.2" stroke-miterlimit="10" stroke-linecap="round" stroke-linejoin="round"/>
<path d="M341.7 60H410.1" stroke="#CCD6E6" stroke-width="1.2" stroke-miterlimit="10" stroke-linecap="round" stroke-linejoin="round"/>
<path d="M413 87.4H500.1" stroke="#CCD6E6" stroke-width="1.2" stroke-miterlimit="10" stroke-linecap="round" stroke-linejoin="round"/>
<path d="M335.5 87.4H400.5" stroke="#CCD6E6" stroke-width="1.2" stroke-miterlimit="10" stroke-linecap="round" stroke-linejoin="round"/>
<path d="M403.5 114.8H490.6" stroke="#CCD6E6" stroke-width="1.2" stroke-miterlimit="10" stroke-linecap="round" stroke-linejoin="round"/>
<path d="M335.5 114.8H377.8" stroke="#CCD6E6" stroke-width="1.2" stroke-miterlimit="10" stroke-linecap="round" stroke-linejoin="round"/>
<path d="M459.5 142.2H490.6" stroke="#CCD6E6" stroke-width="1.2" stroke-miterlimit="10" stroke-linecap="round" stroke-linejoin="round"/>
<path d="M335.5 142.2H428.5" stroke="#CCD6E6" stroke-width="1.2" stroke-miterlimit="10" stroke-linecap="round" stroke-linejoin="round"/>
<path d="M482.2 169.7H516.9" stroke="#CCD6E6" stroke-width="1.2" stroke-miterlimit="10" stroke-linecap="round" stroke-linejoin="round"/>
<path d="M377.8 169.7H384.3" stroke="#CCD6E6" stroke-width="1.2" stroke-miterlimit="10" stroke-linecap="round" stroke-linejoin="round"/>
<path d="M490.4 197.1H505.3" stroke="#CCD6E6" stroke-width="1.2" stroke-miterlimit="10" stroke-linecap="round" stroke-linejoin="round"/>
<path d="M377.8 197.1H384.3" stroke="#CCD6E6" stroke-width="1.2" stroke-miterlimit="10" stroke-linecap="round" stroke-linejoin="round"/>
<path d="M474.5 7.70001V32.5" stroke="#CCD6E6" stroke-width="1.2" stroke-miterlimit="10" stroke-linecap="round" stroke-linejoin="round"/>
<path d="M421.8 7.70001V32.5" stroke="#CCD6E6" stroke-width="1.2" stroke-miterlimit="10" stroke-linecap="round" stroke-linejoin="round"/>
<path d="M369.1 7.70001V32.5" stroke="#CCD6E6" stroke-width="1.2" stroke-miterlimit="10" stroke-linecap="round" stroke-linejoin="round"/>
<path d="M316.5 7.70001V32.5" stroke="#CCD6E6" stroke-width="1.2" stroke-miterlimit="10" stroke-linecap="round" stroke-linejoin="round"/>
<path d="M263.9 7.70001V32.5" stroke="#CCD6E6" stroke-width="1.2" stroke-miterlimit="10" stroke-linecap="round" stroke-linejoin="round"/>
<path d="M447 35.1V60" stroke="#CCD6E6" stroke-width="1.2" stroke-miterlimit="10" stroke-linecap="round" stroke-linejoin="round"/>
<path d="M499.8 35.1V60" stroke="#CCD6E6" stroke-width="1.2" stroke-miterlimit="10" stroke-linecap="round" stroke-linejoin="round"/>
<path d="M394.4 35.1V60" stroke="#CCD6E6" stroke-width="1.2" stroke-miterlimit="10" stroke-linecap="round" stroke-linejoin="round"/>
<path d="M341.7 35.1V60" stroke="#CCD6E6" stroke-width="1.2" stroke-miterlimit="10" stroke-linecap="round" stroke-linejoin="round"/>
<path d="M289.1 35.1V50.5" stroke="#CCD6E6" stroke-width="1.2" stroke-miterlimit="10" stroke-linecap="round" stroke-linejoin="round"/>
<path d="M447 90V114.8" stroke="#CCD6E6" stroke-width="1.2" stroke-miterlimit="10" stroke-linecap="round" stroke-linejoin="round"/>
<path d="M394.4 90V104.3" stroke="#CCD6E6" stroke-width="1.2" stroke-miterlimit="10" stroke-linecap="round" stroke-linejoin="round"/>
<path d="M341.7 90V114.8" stroke="#CCD6E6" stroke-width="1.2" stroke-miterlimit="10" stroke-linecap="round" stroke-linejoin="round"/>
<path d="M474.5 62.5V87.3" stroke="#CCD6E6" stroke-width="1.2" stroke-miterlimit="10" stroke-linecap="round" stroke-linejoin="round"/>
<path d="M421.8 62.5V87.3" stroke="#CCD6E6" stroke-width="1.2" stroke-miterlimit="10" stroke-linecap="round" stroke-linejoin="round"/>
<path d="M369.2 62.5V87.3" stroke="#CCD6E6" stroke-width="1.2" stroke-miterlimit="10" stroke-linecap="round" stroke-linejoin="round"/>
<path d="M499.8 148.3V169.5" stroke="#CCD6E6" stroke-width="1.2" stroke-miterlimit="10" stroke-linecap="round" stroke-linejoin="round"/>
<path d="M394.4 144.6V153.7" stroke="#CCD6E6" stroke-width="1.2" stroke-miterlimit="10" stroke-linecap="round" stroke-linejoin="round"/>
<path d="M341.7 144.6V156.8" stroke="#CCD6E6" stroke-width="1.2" stroke-miterlimit="10" stroke-linecap="round" stroke-linejoin="round"/>
<path d="M499.8 200V220.2" stroke="#CCD6E6" stroke-width="1.2" stroke-miterlimit="10" stroke-linecap="round" stroke-linejoin="round"/>
<path d="M341.7 197.9V222.8" stroke="#CCD6E6" stroke-width="1.2" stroke-miterlimit="10" stroke-linecap="round" stroke-linejoin="round"/>
<path d="M474.5 117.1V142" stroke="#CCD6E6" stroke-width="1.2" stroke-miterlimit="10" stroke-linecap="round" stroke-linejoin="round"/>
<path d="M421.8 117.1V142" stroke="#CCD6E6" stroke-width="1.2" stroke-miterlimit="10" stroke-linecap="round" stroke-linejoin="round"/>
<path d="M369.1 117.1V142" stroke="#CCD6E6" stroke-width="1.2" stroke-miterlimit="10" stroke-linecap="round" stroke-linejoin="round"/>
<path d="M474.5 172.1V197" stroke="#CCD6E6" stroke-width="1.2" stroke-miterlimit="10" stroke-linecap="round" stroke-linejoin="round"/>
<path d="M421.8 172.1V197" stroke="#CCD6E6" stroke-width="1.2" stroke-miterlimit="10" stroke-linecap="round" stroke-linejoin="round"/>
<path d="M369.1 172.1V197" stroke="#CCD6E6" stroke-width="1.2" stroke-miterlimit="10" stroke-linecap="round" stroke-linejoin="round"/>
<path d="M868.2 8.29999H959.6" stroke="#CCD6E6" stroke-width="1.2" stroke-miterlimit="10" stroke-linecap="round" stroke-linejoin="round"/>
<path d="M782.7 8.29999H848.9" stroke="#CCD6E6" stroke-width="1.2" stroke-miterlimit="10" stroke-linecap="round" stroke-linejoin="round"/>
<path d="M703.4 8.29999H759.2" stroke="#CCD6E6" stroke-width="1.2" stroke-miterlimit="10" stroke-linecap="round" stroke-linejoin="round"/>
<path d="M923.4 35.7H960" stroke="#CCD6E6" stroke-width="1.2" stroke-miterlimit="10" stroke-linecap="round" stroke-linejoin="round"/>
<path d="M789.7 35.7H905.7" stroke="#CCD6E6" stroke-width="1.2" stroke-miterlimit="10" stroke-linecap="round" stroke-linejoin="round"/>
<path d="M730 35.7H760.3" stroke="#CCD6E6" stroke-width="1.2" stroke-miterlimit="10" stroke-linecap="round" stroke-linejoin="round"/>
<path d="M868.2 63.1H882.5" stroke="#CCD6E6" stroke-width="1.2" stroke-miterlimit="10" stroke-linecap="round" stroke-linejoin="round"/>
<path d="M791.2 63.2L856.1 63.1" stroke="#CCD6E6" stroke-width="1.2" stroke-miterlimit="10" stroke-linecap="round" stroke-linejoin="round"/>
<path d="M712.7 63.1H752.4" stroke="#CCD6E6" stroke-width="1.2" stroke-miterlimit="10" stroke-linecap="round" stroke-linejoin="round"/>
<path d="M806.1 90.6H884.1" stroke="#CCD6E6" stroke-width="1.2" stroke-miterlimit="10" stroke-linecap="round" stroke-linejoin="round"/>
<path d="M763.4 90.6H780.2" stroke="#CCD6E6" stroke-width="1.2" stroke-miterlimit="10" stroke-linecap="round" stroke-linejoin="round"/>
<path d="M703.4 90.6H738.6" stroke="#CCD6E6" stroke-width="1.2" stroke-miterlimit="10" stroke-linecap="round" stroke-linejoin="round"/>
<path d="M795.1 118H884.1" stroke="#CCD6E6" stroke-width="1.2" stroke-miterlimit="10" stroke-linecap="round" stroke-linejoin="round"/>
<path d="M719.3 118H749.7" stroke="#CCD6E6" stroke-width="1.2" stroke-miterlimit="10" stroke-linecap="round" stroke-linejoin="round"/>
<path d="M719.3 145.4H884.1" stroke="#CCD6E6" stroke-width="1.2" stroke-miterlimit="10" stroke-linecap="round" stroke-linejoin="round"/>
<path d="M839.6 172.9H884.1" stroke="#CCD6E6" stroke-width="1.2" stroke-miterlimit="10" stroke-linecap="round" stroke-linejoin="round"/>
<path d="M703.4 172.9H822.5" stroke="#CCD6E6" stroke-width="1.2" stroke-miterlimit="10" stroke-linecap="round" stroke-linejoin="round"/>
<path d="M840.9 200.3H872.4" stroke="#CCD6E6" stroke-width="1.2" stroke-miterlimit="10" stroke-linecap="round" stroke-linejoin="round"/>
<path d="M748.7 200.3H777.4" stroke="#CCD6E6" stroke-width="1.2" stroke-miterlimit="10" stroke-linecap="round" stroke-linejoin="round"/>
<path d="M703.4 200.3H723.9" stroke="#CCD6E6" stroke-width="1.2" stroke-miterlimit="10" stroke-linecap="round" stroke-linejoin="round"/>
<path d="M929 10.8V35.7" stroke="#CCD6E6" stroke-width="1.2" stroke-miterlimit="10" stroke-linecap="round" stroke-linejoin="round"/>
<path d="M876.4 10.8V35.7" stroke="#CCD6E6" stroke-width="1.2" stroke-miterlimit="10" stroke-linecap="round" stroke-linejoin="round"/>
<path d="M823.4 10.8V35.7" stroke="#CCD6E6" stroke-width="1.2" stroke-miterlimit="10" stroke-linecap="round" stroke-linejoin="round"/>
<path d="M718.1 10.8V31.5" stroke="#CCD6E6" stroke-width="1.2" stroke-miterlimit="10" stroke-linecap="round" stroke-linejoin="round"/>
<path d="M901.6 38.3V53.7" stroke="#CCD6E6" stroke-width="1.2" stroke-miterlimit="10" stroke-linecap="round" stroke-linejoin="round"/>
<path d="M953.9 38.3V53.7" stroke="#CCD6E6" stroke-width="1.2" stroke-miterlimit="10" stroke-linecap="round" stroke-linejoin="round"/>
<path d="M848.9 38.3V63.2" stroke="#CCD6E6" stroke-width="1.2" stroke-miterlimit="10" stroke-linecap="round" stroke-linejoin="round"/>
<path d="M796 38.3V63.2" stroke="#CCD6E6" stroke-width="1.2" stroke-miterlimit="10" stroke-linecap="round" stroke-linejoin="round"/>
<path d="M743.5 38.3V63.2" stroke="#CCD6E6" stroke-width="1.2" stroke-miterlimit="10" stroke-linecap="round" stroke-linejoin="round"/>
<path d="M848.9 93.1V118" stroke="#CCD6E6" stroke-width="1.2" stroke-miterlimit="10" stroke-linecap="round" stroke-linejoin="round"/>
<path d="M743.5 112.7V118" stroke="#CCD6E6" stroke-width="1.2" stroke-miterlimit="10" stroke-linecap="round" stroke-linejoin="round"/>
<path d="M876.4 65.7V90.5" stroke="#CCD6E6" stroke-width="1.2" stroke-miterlimit="10" stroke-linecap="round" stroke-linejoin="round"/>
<path d="M823.4 65.7V90.5" stroke="#CCD6E6" stroke-width="1.2" stroke-miterlimit="10" stroke-linecap="round" stroke-linejoin="round"/>
<path d="M718.1 65.7V90.5" stroke="#CCD6E6" stroke-width="1.2" stroke-miterlimit="10" stroke-linecap="round" stroke-linejoin="round"/>
<path d="M848.9 147.8V172.7" stroke="#CCD6E6" stroke-width="1.2" stroke-miterlimit="10" stroke-linecap="round" stroke-linejoin="round"/>
<path d="M796 147.8V172.7" stroke="#CCD6E6" stroke-width="1.2" stroke-miterlimit="10" stroke-linecap="round" stroke-linejoin="round"/>
<path d="M769.7 175.3V200.1" stroke="#CCD6E6" stroke-width="1.2" stroke-miterlimit="10" stroke-linecap="round" stroke-linejoin="round"/>
<path d="M743.4 147.8V172.7" stroke="#CCD6E6" stroke-width="1.2" stroke-miterlimit="10" stroke-linecap="round" stroke-linejoin="round"/>
<path d="M848.9 202.7V222.3" stroke="#CCD6E6" stroke-width="1.2" stroke-miterlimit="10" stroke-linecap="round" stroke-linejoin="round"/>
<path d="M796 201.1V226" stroke="#CCD6E6" stroke-width="1.2" stroke-miterlimit="10" stroke-linecap="round" stroke-linejoin="round"/>
<path d="M876.4 120.3V145.2" stroke="#CCD6E6" stroke-width="1.2" stroke-miterlimit="10" stroke-linecap="round" stroke-linejoin="round"/>
<path d="M823.4 120.3V145.2" stroke="#CCD6E6" stroke-width="1.2" stroke-miterlimit="10" stroke-linecap="round" stroke-linejoin="round"/>
<path d="M876.4 175.3V192.2" stroke="#CCD6E6" stroke-width="1.2" stroke-miterlimit="10" stroke-linecap="round" stroke-linejoin="round"/>
<path d="M718.1 175.3V200.1" stroke="#CCD6E6" stroke-width="1.2" stroke-miterlimit="10" stroke-linecap="round" stroke-linejoin="round"/>
<path d="M769.7 145.4V139.6" stroke="#CCD6E6" stroke-width="1.2" stroke-miterlimit="10" stroke-linecap="round" stroke-linejoin="round"/>
<path d="M664.1 226H770.5" stroke="#CCD6E6" stroke-width="1.2" stroke-miterlimit="10" stroke-linecap="round" stroke-linejoin="round"/>
<path d="M538.8 226H620.3" stroke="#CCD6E6" stroke-width="1.2" stroke-miterlimit="10" stroke-linecap="round" stroke-linejoin="round"/>
<path d="M644.9 253.4H791.6" stroke="#CCD6E6" stroke-width="1.2" stroke-miterlimit="10" stroke-linecap="round" stroke-linejoin="round"/>
<path d="M539 253.4H630.8" stroke="#CCD6E6" stroke-width="1.2" stroke-miterlimit="10" stroke-linecap="round" stroke-linejoin="round"/>
<path d="M754.4 228.6V253.4" stroke="#CCD6E6" stroke-width="1.2" stroke-miterlimit="10" stroke-linecap="round" stroke-linejoin="round"/>
<path d="M701.7 228.6V253.4" stroke="#CCD6E6" stroke-width="1.2" stroke-miterlimit="10" stroke-linecap="round" stroke-linejoin="round"/>
<path d="M649.1 228.6V253.4" stroke="#CCD6E6" stroke-width="1.2" stroke-miterlimit="10" stroke-linecap="round" stroke-linejoin="round"/>
<path d="M596.4 228.6V253.4" stroke="#CCD6E6" stroke-width="1.2" stroke-miterlimit="10" stroke-linecap="round" stroke-linejoin="round"/>
<path d="M543.8 228.6V253.4" stroke="#CCD6E6" stroke-width="1.2" stroke-miterlimit="10" stroke-linecap="round" stroke-linejoin="round"/>
<path d="M780 256V264" stroke="#CCD6E6" stroke-width="1.2" stroke-miterlimit="10" stroke-linecap="round" stroke-linejoin="round"/>
<path d="M674.3 256V280.9" stroke="#CCD6E6" stroke-width="1.2" stroke-miterlimit="10" stroke-linecap="round" stroke-linejoin="round"/>
<path d="M621.6 256V280.9" stroke="#CCD6E6" stroke-width="1.2" stroke-miterlimit="10" stroke-linecap="round" stroke-linejoin="round"/>
<path d="M569 256V271.4" stroke="#CCD6E6" stroke-width="1.2" stroke-miterlimit="10" stroke-linecap="round" stroke-linejoin="round"/>
<path d="M1258.5 123H1288.8" stroke="#CCD6E6" stroke-width="1.2" stroke-miterlimit="10" stroke-linecap="round" stroke-linejoin="round"/>
<path d="M1396.7 150.4H1411" stroke="#CCD6E6" stroke-width="1.2" stroke-miterlimit="10" stroke-linecap="round" stroke-linejoin="round"/>
<path d="M1319.7 150.5L1384.6 150.4" stroke="#CCD6E6" stroke-width="1.2" stroke-miterlimit="10" stroke-linecap="round" stroke-linejoin="round"/>
<path d="M1241.2 150.4H1280.9" stroke="#CCD6E6" stroke-width="1.2" stroke-miterlimit="10" stroke-linecap="round" stroke-linejoin="round"/>
<path d="M1334.5 177.8H1412.6" stroke="#CCD6E6" stroke-width="1.2" stroke-miterlimit="10" stroke-linecap="round" stroke-linejoin="round"/>
<path d="M1291.9 177.8H1308.7" stroke="#CCD6E6" stroke-width="1.2" stroke-miterlimit="10" stroke-linecap="round" stroke-linejoin="round"/>
<path d="M1231.9 177.8H1267.1" stroke="#CCD6E6" stroke-width="1.2" stroke-miterlimit="10" stroke-linecap="round" stroke-linejoin="round"/>
<path d="M1323.6 205.3H1412.6" stroke="#CCD6E6" stroke-width="1.2" stroke-miterlimit="10" stroke-linecap="round" stroke-linejoin="round"/>
<path d="M1247.8 205.3H1278.2" stroke="#CCD6E6" stroke-width="1.2" stroke-miterlimit="10" stroke-linecap="round" stroke-linejoin="round"/>
<path d="M1247.8 232.7H1412.6" stroke="#CCD6E6" stroke-width="1.2" stroke-miterlimit="10" stroke-linecap="round" stroke-linejoin="round"/>
<path d="M1277.2 287.6H1305.9" stroke="#CCD6E6" stroke-width="1.2" stroke-miterlimit="10" stroke-linecap="round" stroke-linejoin="round"/>
<path d="M1351.9 98.1V123" stroke="#CCD6E6" stroke-width="1.2" stroke-miterlimit="10" stroke-linecap="round" stroke-linejoin="round"/>
<path d="M1246.6 98.1V118.8" stroke="#CCD6E6" stroke-width="1.2" stroke-miterlimit="10" stroke-linecap="round" stroke-linejoin="round"/>
<path d="M1377.4 125.6V150.5" stroke="#CCD6E6" stroke-width="1.2" stroke-miterlimit="10" stroke-linecap="round" stroke-linejoin="round"/>
<path d="M1324.5 125.6V150.5" stroke="#CCD6E6" stroke-width="1.2" stroke-miterlimit="10" stroke-linecap="round" stroke-linejoin="round"/>
<path d="M1272 125.6V150.5" stroke="#CCD6E6" stroke-width="1.2" stroke-miterlimit="10" stroke-linecap="round" stroke-linejoin="round"/>
<path d="M1377.4 180.4V205.3" stroke="#CCD6E6" stroke-width="1.2" stroke-miterlimit="10" stroke-linecap="round" stroke-linejoin="round"/>
<path d="M1272 199.9V205.3" stroke="#CCD6E6" stroke-width="1.2" stroke-miterlimit="10" stroke-linecap="round" stroke-linejoin="round"/>
<path d="M1404.9 152.9V177.8" stroke="#CCD6E6" stroke-width="1.2" stroke-miterlimit="10" stroke-linecap="round" stroke-linejoin="round"/>
<path d="M1351.9 152.9V177.8" stroke="#CCD6E6" stroke-width="1.2" stroke-miterlimit="10" stroke-linecap="round" stroke-linejoin="round"/>
<path d="M1246.6 152.9V177.8" stroke="#CCD6E6" stroke-width="1.2" stroke-miterlimit="10" stroke-linecap="round" stroke-linejoin="round"/>
<path d="M1377.4 235.1V259.9" stroke="#CCD6E6" stroke-width="1.2" stroke-miterlimit="10" stroke-linecap="round" stroke-linejoin="round"/>
<path d="M1324.5 235.1V259.9" stroke="#CCD6E6" stroke-width="1.2" stroke-miterlimit="10" stroke-linecap="round" stroke-linejoin="round"/>
<path d="M1298.2 262.6V287.4" stroke="#CCD6E6" stroke-width="1.2" stroke-miterlimit="10" stroke-linecap="round" stroke-linejoin="round"/>
<path d="M1271.9 235.1V259.9" stroke="#CCD6E6" stroke-width="1.2" stroke-miterlimit="10" stroke-linecap="round" stroke-linejoin="round"/>
<path d="M1404.9 207.6V232.4" stroke="#CCD6E6" stroke-width="1.2" stroke-miterlimit="10" stroke-linecap="round" stroke-linejoin="round"/>
<path d="M1351.9 207.6V232.4" stroke="#CCD6E6" stroke-width="1.2" stroke-miterlimit="10" stroke-linecap="round" stroke-linejoin="round"/>
<path d="M1298.2 232.7V226.8" stroke="#CCD6E6" stroke-width="1.2" stroke-miterlimit="10" stroke-linecap="round" stroke-linejoin="round"/>
<path d="M1751.1 5H1659.6" stroke="#CCD6E6" stroke-width="1.2" stroke-miterlimit="10" stroke-linecap="round" stroke-linejoin="round"/>
<path d="M1836.6 5H1770.3" stroke="#CCD6E6" stroke-width="1.2" stroke-miterlimit="10" stroke-linecap="round" stroke-linejoin="round"/>
<path d="M1915.8 5H1860" stroke="#CCD6E6" stroke-width="1.2" stroke-miterlimit="10" stroke-linecap="round" stroke-linejoin="round"/>
<path d="M1695.9 32.4H1659.3" stroke="#CCD6E6" stroke-width="1.2" stroke-miterlimit="10" stroke-linecap="round" stroke-linejoin="round"/>
<path d="M1829.6 32.4H1713.6" stroke="#CCD6E6" stroke-width="1.2" stroke-miterlimit="10" stroke-linecap="round" stroke-linejoin="round"/>
<path d="M1889.3 32.4H1859" stroke="#CCD6E6" stroke-width="1.2" stroke-miterlimit="10" stroke-linecap="round" stroke-linejoin="round"/>
<path d="M1751.1 59.8H1736.7" stroke="#CCD6E6" stroke-width="1.2" stroke-miterlimit="10" stroke-linecap="round" stroke-linejoin="round"/>
<path d="M1828 59.9L1763.1 59.8" stroke="#CCD6E6" stroke-width="1.2" stroke-miterlimit="10" stroke-linecap="round" stroke-linejoin="round"/>
<path d="M1906.5 59.8H1866.9" stroke="#CCD6E6" stroke-width="1.2" stroke-miterlimit="10" stroke-linecap="round" stroke-linejoin="round"/>
<path d="M1813.2 87.2H1735.1" stroke="#CCD6E6" stroke-width="1.2" stroke-miterlimit="10" stroke-linecap="round" stroke-linejoin="round"/>
<path d="M1855.9 87.2H1839" stroke="#CCD6E6" stroke-width="1.2" stroke-miterlimit="10" stroke-linecap="round" stroke-linejoin="round"/>
<path d="M1915.8 87.2H1880.7" stroke="#CCD6E6" stroke-width="1.2" stroke-miterlimit="10" stroke-linecap="round" stroke-linejoin="round"/>
<path d="M1824.1 114.7H1735.1" stroke="#CCD6E6" stroke-width="1.2" stroke-miterlimit="10" stroke-linecap="round" stroke-linejoin="round"/>
<path d="M1900 114.7H1869.5" stroke="#CCD6E6" stroke-width="1.2" stroke-miterlimit="10" stroke-linecap="round" stroke-linejoin="round"/>
<path d="M1900 142.1H1735.1" stroke="#CCD6E6" stroke-width="1.2" stroke-miterlimit="10" stroke-linecap="round" stroke-linejoin="round"/>
<path d="M1779.6 169.5H1735.1" stroke="#CCD6E6" stroke-width="1.2" stroke-miterlimit="10" stroke-linecap="round" stroke-linejoin="round"/>
<path d="M1915.8 169.5H1796.7" stroke="#CCD6E6" stroke-width="1.2" stroke-miterlimit="10" stroke-linecap="round" stroke-linejoin="round"/>
<path d="M1778.4 197H1746.8" stroke="#CCD6E6" stroke-width="1.2" stroke-miterlimit="10" stroke-linecap="round" stroke-linejoin="round"/>
<path d="M1870.5 197H1841.9" stroke="#CCD6E6" stroke-width="1.2" stroke-miterlimit="10" stroke-linecap="round" stroke-linejoin="round"/>
<path d="M1915.8 197H1895.3" stroke="#CCD6E6" stroke-width="1.2" stroke-miterlimit="10" stroke-linecap="round" stroke-linejoin="round"/>
<path d="M1690.2 7.5V32.4" stroke="#CCD6E6" stroke-width="1.2" stroke-miterlimit="10" stroke-linecap="round" stroke-linejoin="round"/>
<path d="M1742.9 7.5V32.4" stroke="#CCD6E6" stroke-width="1.2" stroke-miterlimit="10" stroke-linecap="round" stroke-linejoin="round"/>
<path d="M1795.8 7.5V32.4" stroke="#CCD6E6" stroke-width="1.2" stroke-miterlimit="10" stroke-linecap="round" stroke-linejoin="round"/>
<path d="M1901.1 7.5V28.2" stroke="#CCD6E6" stroke-width="1.2" stroke-miterlimit="10" stroke-linecap="round" stroke-linejoin="round"/>
<path d="M1717.7 35V50.4" stroke="#CCD6E6" stroke-width="1.2" stroke-miterlimit="10" stroke-linecap="round" stroke-linejoin="round"/>
<path d="M1665.4 35V50.4" stroke="#CCD6E6" stroke-width="1.2" stroke-miterlimit="10" stroke-linecap="round" stroke-linejoin="round"/>
<path d="M1770.3 35V59.9" stroke="#CCD6E6" stroke-width="1.2" stroke-miterlimit="10" stroke-linecap="round" stroke-linejoin="round"/>
<path d="M1823.3 35V59.9" stroke="#CCD6E6" stroke-width="1.2" stroke-miterlimit="10" stroke-linecap="round" stroke-linejoin="round"/>
<path d="M1875.8 35V59.9" stroke="#CCD6E6" stroke-width="1.2" stroke-miterlimit="10" stroke-linecap="round" stroke-linejoin="round"/>
<path d="M1770.3 89.8V114.7" stroke="#CCD6E6" stroke-width="1.2" stroke-miterlimit="10" stroke-linecap="round" stroke-linejoin="round"/>
<path d="M1875.8 109.3V114.7" stroke="#CCD6E6" stroke-width="1.2" stroke-miterlimit="10" stroke-linecap="round" stroke-linejoin="round"/>
<path d="M1742.9 62.3V87.2" stroke="#CCD6E6" stroke-width="1.2" stroke-miterlimit="10" stroke-linecap="round" stroke-linejoin="round"/>
<path d="M1795.8 62.3V87.2" stroke="#CCD6E6" stroke-width="1.2" stroke-miterlimit="10" stroke-linecap="round" stroke-linejoin="round"/>
<path d="M1901.1 62.3V87.2" stroke="#CCD6E6" stroke-width="1.2" stroke-miterlimit="10" stroke-linecap="round" stroke-linejoin="round"/>
<path d="M1770.3 144.5V169.3" stroke="#CCD6E6" stroke-width="1.2" stroke-miterlimit="10" stroke-linecap="round" stroke-linejoin="round"/>
<path d="M1823.3 144.5V169.3" stroke="#CCD6E6" stroke-width="1.2" stroke-miterlimit="10" stroke-linecap="round" stroke-linejoin="round"/>
<path d="M1849.6 172V196.8" stroke="#CCD6E6" stroke-width="1.2" stroke-miterlimit="10" stroke-linecap="round" stroke-linejoin="round"/>
<path d="M1875.8 144.5V169.3" stroke="#CCD6E6" stroke-width="1.2" stroke-miterlimit="10" stroke-linecap="round" stroke-linejoin="round"/>
<path d="M1770.3 199.4V219" stroke="#CCD6E6" stroke-width="1.2" stroke-miterlimit="10" stroke-linecap="round" stroke-linejoin="round"/>
<path d="M1823.3 197.8V222.7" stroke="#CCD6E6" stroke-width="1.2" stroke-miterlimit="10" stroke-linecap="round" stroke-linejoin="round"/>
<path d="M1742.9 117V141.9" stroke="#CCD6E6" stroke-width="1.2" stroke-miterlimit="10" stroke-linecap="round" stroke-linejoin="round"/>
<path d="M1795.8 117V141.9" stroke="#CCD6E6" stroke-width="1.2" stroke-miterlimit="10" stroke-linecap="round" stroke-linejoin="round"/>
<path d="M1742.9 172V188.9" stroke="#CCD6E6" stroke-width="1.2" stroke-miterlimit="10" stroke-linecap="round" stroke-linejoin="round"/>
<path d="M1901.1 172V196.8" stroke="#CCD6E6" stroke-width="1.2" stroke-miterlimit="10" stroke-linecap="round" stroke-linejoin="round"/>
<path d="M1849.6 142.1V136.3" stroke="#CCD6E6" stroke-width="1.2" stroke-miterlimit="10" stroke-linecap="round" stroke-linejoin="round"/>
<path d="M231.5 200.9H198.2C195.7 200.9 193.8 198.9 193.8 196.5V163.5H236V196.5C235.9 198.9 233.9 200.9 231.5 200.9Z" fill="url(#paint0_linear)"/>
<path d="M235.9 163.4H193.7V156C193.7 154.3 195.1 153 196.7 153H232.9C234.6 153 235.9 154.4 235.9 156V163.4Z" fill="url(#paint1_linear)"/>
<path d="M202.4 152.6H197.7C195.5 152.6 193.7 154.4 193.7 156.6V196.6C193.7 198.8 195.5 200.6 197.7 200.6H232C234.2 200.6 236 198.8 236 196.6V192.3" stroke="#6D737D" stroke-width="1.2" stroke-miterlimit="10" stroke-linecap="round" stroke-linejoin="round"/>
<path d="M235.9 178V156.6C235.9 154.4 234.1 152.6 231.9 152.6H212.2" stroke="#6D737D" stroke-width="1.2" stroke-miterlimit="10" stroke-linecap="round" stroke-linejoin="round"/>
<path d="M195.7 163.4H233.5" stroke="#6D737D" stroke-width="1.2" stroke-miterlimit="10" stroke-linecap="round" stroke-linejoin="round"/>
<path d="M229 172.1H205C204.2 172.1 203.6 172.7 203.6 173.5V186.1C203.6 186.9 204.2 187.5 205 187.5H222.9" stroke="#6D737D" stroke-width="0.7" stroke-miterlimit="10" stroke-linecap="round" stroke-linejoin="round"/>
<path d="M508.1 200.9H474.8C472.3 200.9 470.4 198.9 470.4 196.5V178.4H512.6V196.5C512.5 198.9 510.6 200.9 508.1 200.9Z" fill="url(#paint2_linear)"/>
<path d="M512.5 178.3H470.3V175C470.3 173.3 471.7 172 473.3 172H509.5C511.2 172 512.5 173.4 512.5 175V178.3Z" fill="url(#paint3_linear)"/>
<path d="M479 171.8H474.3C472.1 171.8 470.3 172.9 470.3 174.2V198.3C470.3 199.6 472.1 200.7 474.3 200.7H508.6C510.8 200.7 512.6 199.6 512.6 198.3V195.7" stroke="#6D737D" stroke-width="1.2" stroke-miterlimit="10" stroke-linecap="round" stroke-linejoin="round"/>
<path d="M512.5 187.1V174.2C512.5 172.9 510.7 171.8 508.5 171.8H488.8" stroke="#6D737D" stroke-width="1.2" stroke-miterlimit="10" stroke-linecap="round" stroke-linejoin="round"/>
<path d="M472.3 178.3H510.1" stroke="#6D737D" stroke-width="1.2" stroke-miterlimit="10" stroke-linecap="round" stroke-linejoin="round"/>
<path d="M505.6 183.5H481.6C480.8 183.5 480.2 183.9 480.2 184.4V192C480.2 192.5 480.8 192.9 481.6 192.9H499.5" stroke="#6D737D" stroke-width="0.7" stroke-miterlimit="10" stroke-linecap="round" stroke-linejoin="round"/>
<path d="M317.2 200.6H310.2C309.2 200.6 308.4 199.8 308.4 198.8V193.5C308.4 192.5 309.2 191.7 310.2 191.7H317.2C318.2 191.7 319 192.5 319 193.5V198.8C319 199.8 318.2 200.6 317.2 200.6Z" fill="#AFB5BF"/>
<path d="M317.7 191.7H310.1C309.3 191.7 308.7 191.1 308.6 190.4L302.7 154.1V151.9H324.9V154.1L319.3 190.4C319.1 191.2 318.5 191.7 317.7 191.7Z" fill="url(#paint4_linear)"/>
<path d="M319 198.3V199.5C319 200.1 318.5 200.5 318 200.5H309.5C308.9 200.5 308.5 200 308.5 199.5V192.7C308.5 192.1 309 191.7 309.5 191.7H318C318.6 191.7 319 192.2 319 192.7V193.7" stroke="#6D737D" stroke-width="1.2" stroke-miterlimit="10" stroke-linecap="round" stroke-linejoin="round"/>
<path d="M320.7 180.8L319.2 190.4C319.1 191.1 318.4 191.7 317.7 191.7H313.7" stroke="#6D737D" stroke-width="1.2" stroke-miterlimit="10" stroke-linecap="round" stroke-linejoin="round"/>
<path d="M313.7 191.7H309.7C309 191.7 308.3 191.2 308.2 190.4L302.6 155V151.9H313.7H324.8V155L322.4 170.1" stroke="#6D737D" stroke-width="1.2" stroke-miterlimit="10" stroke-linecap="round" stroke-linejoin="round"/>
<path d="M304.8 154.1H322.4" stroke="#6D737D" stroke-width="0.7" stroke-miterlimit="10" stroke-linecap="round" stroke-linejoin="round"/>
<path d="M308.5 164.1H323.1" stroke="#6D737D" stroke-width="0.7" stroke-miterlimit="10" stroke-linecap="round" stroke-linejoin="round"/>
<path d="M306.8 181.5H310.7" stroke="#6D737D" stroke-width="0.7" stroke-miterlimit="10" stroke-linecap="round" stroke-linejoin="round"/>
<path d="M406.9 200.6H399.9C398.9 200.6 398.1 199.8 398.1 198.8V193.5C398.1 192.5 398.9 191.7 399.9 191.7H406.9C407.9 191.7 408.7 192.5 408.7 193.5V198.8C408.7 199.8 407.9 200.6 406.9 200.6Z" fill="#AFB5BF"/>
<path d="M407.4 191.7H399.8C399 191.7 398.4 191 398.3 190.1L392.4 145.3V142.6H414.6V145.3L409 190.1C408.8 191 408.2 191.7 407.4 191.7Z" fill="url(#paint5_linear)"/>
<path d="M408.7 198.3V199.5C408.7 200.1 408.2 200.5 407.7 200.5H399.2C398.6 200.5 398.2 200 398.2 199.5V192.7C398.2 192.1 398.7 191.7 399.2 191.7H407.7C408.3 191.7 408.7 192.2 408.7 192.7V193.7" stroke="#6D737D" stroke-width="1.2" stroke-miterlimit="10" stroke-linecap="round" stroke-linejoin="round"/>
<path d="M410.4 180.8L408.9 190.4C408.8 191.1 408.1 191.7 407.4 191.7H403.4" stroke="#6D737D" stroke-width="1.2" stroke-miterlimit="10" stroke-linecap="round" stroke-linejoin="round"/>
<path d="M403.4 191.7H399.4C398.7 191.7 398 191 397.9 190.1L392.3 146.3V142.5H403.4H414.5V146.3L412.1 165" stroke="#6D737D" stroke-width="1.2" stroke-miterlimit="10" stroke-linecap="round" stroke-linejoin="round"/>
<path d="M394.5 145.3H412.1" stroke="#6D737D" stroke-width="0.7" stroke-miterlimit="10" stroke-linecap="round" stroke-linejoin="round"/>
<path d="M398.2 157.6H412.8" stroke="#6D737D" stroke-width="0.7" stroke-miterlimit="10" stroke-linecap="round" stroke-linejoin="round"/>
<path d="M396.6 181.5H400.4" stroke="#6D737D" stroke-width="0.7" stroke-miterlimit="10" stroke-linecap="round" stroke-linejoin="round"/>
<path d="M700.2 0.800018H690.4V31.9H700.2V0.800018Z" fill="url(#paint6_linear)"/>
<path d="M690.4 31.8V0.600006" stroke="#6D737D" stroke-width="1.2" stroke-miterlimit="10" stroke-linecap="round" stroke-linejoin="round"/>
<path d="M700.2 0.600006V31.8" stroke="#6D737D" stroke-width="1.2" stroke-miterlimit="10" stroke-linecap="round" stroke-linejoin="round"/>
<path d="M692.2 7.70001H700.2" stroke="#6D737D" stroke-width="0.7" stroke-miterlimit="10" stroke-linecap="round" stroke-linejoin="round"/>
<path d="M692.2 16.3H700.2" stroke="#6D737D" stroke-width="0.7" stroke-miterlimit="10" stroke-linecap="round" stroke-linejoin="round"/>
<path d="M692.2 24.9H700.2" stroke="#6D737D" stroke-width="0.7" stroke-miterlimit="10" stroke-linecap="round" stroke-linejoin="round"/>
<path d="M640 0.800018H630.2V31.9H640V0.800018Z" fill="url(#paint7_linear)"/>
<path d="M630.2 31.8V0.600006" stroke="#6D737D" stroke-width="1.2" stroke-miterlimit="10" stroke-linecap="round" stroke-linejoin="round"/>
<path d="M640 0.600006V31.8" stroke="#6D737D" stroke-width="1.2" stroke-miterlimit="10" stroke-linecap="round" stroke-linejoin="round"/>
<path d="M632 7.70001H640" stroke="#6D737D" stroke-width="0.7" stroke-miterlimit="10" stroke-linecap="round" stroke-linejoin="round"/>
<path d="M632 16.3H640" stroke="#6D737D" stroke-width="0.7" stroke-miterlimit="10" stroke-linecap="round" stroke-linejoin="round"/>
<path d="M632 24.9H640" stroke="#6D737D" stroke-width="0.7" stroke-miterlimit="10" stroke-linecap="round" stroke-linejoin="round"/>
<path d="M532.3 0.800018H522.5V31.9H532.3V0.800018Z" fill="url(#paint8_linear)"/>
<path d="M522.5 31.8V0.600006" stroke="#6D737D" stroke-width="1.2" stroke-miterlimit="10" stroke-linecap="round" stroke-linejoin="round"/>
<path d="M532.3 0.600006V31.8" stroke="#6D737D" stroke-width="1.2" stroke-miterlimit="10" stroke-linecap="round" stroke-linejoin="round"/>
<path d="M524.3 7.70001H532.3" stroke="#6D737D" stroke-width="0.7" stroke-miterlimit="10" stroke-linecap="round" stroke-linejoin="round"/>
<path d="M524.3 16.3H532.3" stroke="#6D737D" stroke-width="0.7" stroke-miterlimit="10" stroke-linecap="round" stroke-linejoin="round"/>
<path d="M524.3 24.9H532.3" stroke="#6D737D" stroke-width="0.7" stroke-miterlimit="10" stroke-linecap="round" stroke-linejoin="round"/>
<path d="M513.1 200.9H0V211.2H513.1V200.9Z" fill="url(#paint9_linear)"/>
<path d="M713.1 225.5H625.7V31.5H713.1C717.9 31.5 721.9 35.4 721.9 40.3V216.8C721.9 221.5 718 225.5 713.1 225.5Z" fill="url(#paint10_linear)"/>
<path d="M1901.6 200.9H661.3V211.2H1901.6V200.9Z" fill="url(#paint11_linear)"/>
<path d="M716.1 200.9H661.4V75.5C661.4 72.8 663.6 70.5 666.4 70.5H711.2C713.9 70.5 716.2 72.7 716.2 75.5V200.9H716.1Z" fill="url(#paint12_linear)"/>
<path d="M687.2 225.5H654.8" stroke="#6D737D" stroke-width="1.2" stroke-miterlimit="10" stroke-linecap="round" stroke-linejoin="round"/>
<path d="M721.9 213.3V216.5C721.9 221.5 717.9 225.5 712.9 225.5H702.4" stroke="#6D737D" stroke-width="1.2" stroke-miterlimit="10" stroke-linecap="round" stroke-linejoin="round"/>
<path d="M712.9 31.4C717.9 31.4 721.9 35.4 721.9 40.4V101" stroke="#6D737D" stroke-width="1.2" stroke-miterlimit="10" stroke-linecap="round" stroke-linejoin="round"/>
<path d="M625.7 31.4H671.3" stroke="#6D737D" stroke-width="1.2" stroke-miterlimit="10" stroke-linecap="round" stroke-linejoin="round"/>
<path d="M644 225.5H517C511 225.5 506.1 220.6 506.1 214.6V42.3C506.1 36.3 511 31.4 517 31.4H644C650 31.4 654.9 36.3 654.9 42.3V214.6C654.9 220.6 650 225.5 644 225.5Z" fill="url(#paint13_linear)"/>
<path d="M506.1 110.2V42.6C506.1 36.4 511.1 31.4 517.3 31.4H542.4" stroke="#6D737D" stroke-width="1.2" stroke-miterlimit="10" stroke-linecap="round" stroke-linejoin="round"/>
<path d="M526.8 225.5H517.3C511.1 225.5 506.1 220.5 506.1 214.3V155" stroke="#6D737D" stroke-width="1.2" stroke-miterlimit="10" stroke-linecap="round" stroke-linejoin="round"/>
<path d="M654.9 94.1V214.2C654.9 220.4 649.9 225.4 643.7 225.4H545.3" stroke="#6D737D" stroke-width="1.2" stroke-miterlimit="10" stroke-linecap="round" stroke-linejoin="round"/>
<path d="M585.5 31.4H643.7C649.9 31.4 654.9 36.4 654.9 42.6V68.9" stroke="#6D737D" stroke-width="1.2" stroke-miterlimit="10" stroke-linecap="round" stroke-linejoin="round"/>
<path d="M657.1 47.5H719" stroke="#6D737D" stroke-width="1.2" stroke-miterlimit="10" stroke-linecap="round" stroke-linejoin="round"/>
<path d="M509.2 47.5H652.6" stroke="#6D737D" stroke-width="1.2" stroke-miterlimit="10" stroke-linecap="round" stroke-linejoin="round"/>
<path d="M657.1 62.8H719" stroke="#6D737D" stroke-width="1.2" stroke-miterlimit="10" stroke-linecap="round" stroke-linejoin="round"/>
<path d="M509.2 62.8H652.6" stroke="#6D737D" stroke-width="1.2" stroke-miterlimit="10" stroke-linecap="round" stroke-linejoin="round"/>
<path d="M681.1 56.5C681.707 56.5 682.2 56.0075 682.2 55.4C682.2 54.7925 681.707 54.3 681.1 54.3C680.492 54.3 680 54.7925 680 55.4C680 56.0075 680.492 56.5 681.1 56.5Z" fill="#6D737D"/>
<path d="M665.7 56.5C666.308 56.5 666.8 56.0075 666.8 55.4C666.8 54.7925 666.308 54.3 665.7 54.3C665.093 54.3 664.6 54.7925 664.6 55.4C664.6 56.0075 665.093 56.5 665.7 56.5Z" fill="#6D737D"/>
<path d="M696.4 56.5C697.008 56.5 697.5 56.0075 697.5 55.4C697.5 54.7925 697.008 54.3 696.4 54.3C695.793 54.3 695.3 54.7925 695.3 55.4C695.3 56.0075 695.793 56.5 696.4 56.5Z" fill="#6D737D"/>
<path d="M711.7 56.5C712.308 56.5 712.8 56.0075 712.8 55.4C712.8 54.7925 712.308 54.3 711.7 54.3C711.093 54.3 710.6 54.7925 710.6 55.4C710.6 56.0075 711.093 56.5 711.7 56.5Z" fill="#6D737D"/>
<path d="M612.2 56.5C612.808 56.5 613.3 56.0075 613.3 55.4C613.3 54.7925 612.808 54.3 612.2 54.3C611.593 54.3 611.1 54.7925 611.1 55.4C611.1 56.0075 611.593 56.5 612.2 56.5Z" fill="#6D737D"/>
<path d="M596.4 56.5C597.008 56.5 597.5 56.0075 597.5 55.4C597.5 54.7925 597.008 54.3 596.4 54.3C595.793 54.3 595.3 54.7925 595.3 55.4C595.3 56.0075 595.793 56.5 596.4 56.5Z" fill="#6D737D"/>
<path d="M628 56.5C628.607 56.5 629.1 56.0075 629.1 55.4C629.1 54.7925 628.607 54.3 628 54.3C627.392 54.3 626.9 54.7925 626.9 55.4C626.9 56.0075 627.392 56.5 628 56.5Z" fill="#6D737D"/>
<path d="M643.7 56.5C644.308 56.5 644.8 56.0075 644.8 55.4C644.8 54.7925 644.308 54.3 643.7 54.3C643.093 54.3 642.6 54.7925 642.6 55.4C642.6 56.0075 643.093 56.5 643.7 56.5Z" fill="#6D737D"/>
<path d="M549.1 56.5C549.707 56.5 550.2 56.0075 550.2 55.4C550.2 54.7925 549.707 54.3 549.1 54.3C548.492 54.3 548 54.7925 548 55.4C548 56.0075 548.492 56.5 549.1 56.5Z" fill="#6D737D"/>
<path d="M533.4 56.5C534.008 56.5 534.5 56.0075 534.5 55.4C534.5 54.7925 534.008 54.3 533.4 54.3C532.793 54.3 532.3 54.7925 532.3 55.4C532.3 56.0075 532.793 56.5 533.4 56.5Z" fill="#6D737D"/>
<path d="M517.6 56.2C518.207 56.2 518.7 55.7075 518.7 55.1C518.7 54.4925 518.207 54 517.6 54C516.992 54 516.5 54.4925 516.5 55.1C516.5 55.7075 516.992 56.2 517.6 56.2Z" fill="#6D737D"/>
<path d="M564.9 56.5C565.508 56.5 566 56.0075 566 55.4C566 54.7925 565.508 54.3 564.9 54.3C564.293 54.3 563.8 54.7925 563.8 55.4C563.8 56.0075 564.293 56.5 564.9 56.5Z" fill="#6D737D"/>
<path d="M580.7 56.5C581.308 56.5 581.8 56.0075 581.8 55.4C581.8 54.7925 581.308 54.3 580.7 54.3C580.093 54.3 579.6 54.7925 579.6 55.4C579.6 56.0075 580.093 56.5 580.7 56.5Z" fill="#6D737D"/>
<path d="M612.2 218.2C612.808 218.2 613.3 217.708 613.3 217.1C613.3 216.492 612.808 216 612.2 216C611.593 216 611.1 216.492 611.1 217.1C611.1 217.708 611.593 218.2 612.2 218.2Z" fill="#6D737D"/>
<path d="M596.4 218.2C597.008 218.2 597.5 217.708 597.5 217.1C597.5 216.492 597.008 216 596.4 216C595.793 216 595.3 216.492 595.3 217.1C595.3 217.708 595.793 218.2 596.4 218.2Z" fill="#6D737D"/>
<path d="M628 218.2C628.607 218.2 629.1 217.708 629.1 217.1C629.1 216.492 628.607 216 628 216C627.392 216 626.9 216.492 626.9 217.1C626.9 217.708 627.392 218.2 628 218.2Z" fill="#6D737D"/>
<path d="M643.7 218.2C644.308 218.2 644.8 217.708 644.8 217.1C644.8 216.492 644.308 216 643.7 216C643.093 216 642.6 216.492 642.6 217.1C642.6 217.708 643.093 218.2 643.7 218.2Z" fill="#6D737D"/>
<path d="M549.1 218.2C549.707 218.2 550.2 217.708 550.2 217.1C550.2 216.492 549.707 216 549.1 216C548.492 216 548 216.492 548 217.1C548 217.708 548.492 218.2 549.1 218.2Z" fill="#6D737D"/>
<path d="M533.4 218.2C534.008 218.2 534.5 217.708 534.5 217.1C534.5 216.492 534.008 216 533.4 216C532.793 216 532.3 216.492 532.3 217.1C532.3 217.708 532.793 218.2 533.4 218.2Z" fill="#6D737D"/>
<path d="M517.6 217.9C518.207 217.9 518.7 217.408 518.7 216.8C518.7 216.193 518.207 215.7 517.6 215.7C516.992 215.7 516.5 216.193 516.5 216.8C516.5 217.408 516.992 217.9 517.6 217.9Z" fill="#6D737D"/>
<path d="M564.9 218.2C565.508 218.2 566 217.708 566 217.1C566 216.492 565.508 216 564.9 216C564.293 216 563.8 216.492 563.8 217.1C563.8 217.708 564.293 218.2 564.9 218.2Z" fill="#6D737D"/>
<path d="M580.7 218.2C581.308 218.2 581.8 217.708 581.8 217.1C581.8 216.492 581.308 216 580.7 216C580.093 216 579.6 216.492 579.6 217.1C579.6 217.708 580.093 218.2 580.7 218.2Z" fill="#6D737D"/>
<path d="M801.6 207C802.042 207 802.4 206.642 802.4 206.2C802.4 205.758 802.042 205.4 801.6 205.4C801.158 205.4 800.8 205.758 800.8 206.2C800.8 206.642 801.158 207 801.6 207Z" fill="#6D737D"/>
<path d="M781.2 207C781.642 207 782 206.642 782 206.2C782 205.758 781.642 205.4 781.2 205.4C780.758 205.4 780.4 205.758 780.4 206.2C780.4 206.642 780.758 207 781.2 207Z" fill="#6D737D"/>
<path d="M822.1 207C822.542 207 822.9 206.642 822.9 206.2C822.9 205.758 822.542 205.4 822.1 205.4C821.658 205.4 821.3 205.758 821.3 206.2C821.3 206.642 821.658 207 822.1 207Z" fill="#6D737D"/>
<path d="M842.5 207C842.942 207 843.3 206.642 843.3 206.2C843.3 205.758 842.942 205.4 842.5 205.4C842.058 205.4 841.7 205.758 841.7 206.2C841.7 206.642 842.058 207 842.5 207Z" fill="#6D737D"/>
<path d="M863 207C863.442 207 863.8 206.642 863.8 206.2C863.8 205.758 863.442 205.4 863 205.4C862.558 205.4 862.2 205.758 862.2 206.2C862.2 206.642 862.558 207 863 207Z" fill="#6D737D"/>
<path d="M883.4 207C883.842 207 884.2 206.642 884.2 206.2C884.2 205.758 883.842 205.4 883.4 205.4C882.958 205.4 882.6 205.758 882.6 206.2C882.6 206.642 882.958 207 883.4 207Z" fill="#6D737D"/>
<path d="M903.8 207C904.242 207 904.6 206.642 904.6 206.2C904.6 205.758 904.242 205.4 903.8 205.4C903.358 205.4 903 205.758 903 206.2C903 206.642 903.358 207 903.8 207Z" fill="#6D737D"/>
<path d="M924.3 207C924.742 207 925.1 206.642 925.1 206.2C925.1 205.758 924.742 205.4 924.3 205.4C923.858 205.4 923.5 205.758 923.5 206.2C923.5 206.642 923.858 207 924.3 207Z" fill="#6D737D"/>
<path d="M944.7 207C945.142 207 945.5 206.642 945.5 206.2C945.5 205.758 945.142 205.4 944.7 205.4C944.258 205.4 943.9 205.758 943.9 206.2C943.9 206.642 944.258 207 944.7 207Z" fill="#6D737D"/>
<path d="M965.2 207C965.642 207 966 206.642 966 206.2C966 205.758 965.642 205.4 965.2 205.4C964.758 205.4 964.4 205.758 964.4 206.2C964.4 206.642 964.758 207 965.2 207Z" fill="#6D737D"/>
<path d="M985.6 207C986.042 207 986.4 206.642 986.4 206.2C986.4 205.758 986.042 205.4 985.6 205.4C985.158 205.4 984.8 205.758 984.8 206.2C984.8 206.642 985.158 207 985.6 207Z" fill="#6D737D"/>
<path d="M1006.1 207C1006.54 207 1006.9 206.642 1006.9 206.2C1006.9 205.758 1006.54 205.4 1006.1 205.4C1005.66 205.4 1005.3 205.758 1005.3 206.2C1005.3 206.642 1005.66 207 1006.1 207Z" fill="#6D737D"/>
<path d="M1026.5 207C1026.94 207 1027.3 206.642 1027.3 206.2C1027.3 205.758 1026.94 205.4 1026.5 205.4C1026.06 205.4 1025.7 205.758 1025.7 206.2C1025.7 206.642 1026.06 207 1026.5 207Z" fill="#6D737D"/>
<path d="M1046.9 207C1047.34 207 1047.7 206.642 1047.7 206.2C1047.7 205.758 1047.34 205.4 1046.9 205.4C1046.46 205.4 1046.1 205.758 1046.1 206.2C1046.1 206.642 1046.46 207 1046.9 207Z" fill="#6D737D"/>
<path d="M1067.4 207C1067.84 207 1068.2 206.642 1068.2 206.2C1068.2 205.758 1067.84 205.4 1067.4 205.4C1066.96 205.4 1066.6 205.758 1066.6 206.2C1066.6 206.642 1066.96 207 1067.4 207Z" fill="#6D737D"/>
<path d="M1087.8 207C1088.24 207 1088.6 206.642 1088.6 206.2C1088.6 205.758 1088.24 205.4 1087.8 205.4C1087.36 205.4 1087 205.758 1087 206.2C1087 206.642 1087.36 207 1087.8 207Z" fill="#6D737D"/>
<path d="M1108.3 207C1108.74 207 1109.1 206.642 1109.1 206.2C1109.1 205.758 1108.74 205.4 1108.3 205.4C1107.86 205.4 1107.5 205.758 1107.5 206.2C1107.5 206.642 1107.86 207 1108.3 207Z" fill="#6D737D"/>
<path d="M1128.7 207C1129.14 207 1129.5 206.642 1129.5 206.2C1129.5 205.758 1129.14 205.4 1128.7 205.4C1128.26 205.4 1127.9 205.758 1127.9 206.2C1127.9 206.642 1128.26 207 1128.7 207Z" fill="#6D737D"/>
<path d="M1190 207C1190.44 207 1190.8 206.642 1190.8 206.2C1190.8 205.758 1190.44 205.4 1190 205.4C1189.56 205.4 1189.2 205.758 1189.2 206.2C1189.2 206.642 1189.56 207 1190 207Z" fill="#6D737D"/>
<path d="M1210.5 207C1210.94 207 1211.3 206.642 1211.3 206.2C1211.3 205.758 1210.94 205.4 1210.5 205.4C1210.06 205.4 1209.7 205.758 1209.7 206.2C1209.7 206.642 1210.06 207 1210.5 207Z" fill="#6D737D"/>
<path d="M1230.9 207C1231.34 207 1231.7 206.642 1231.7 206.2C1231.7 205.758 1231.34 205.4 1230.9 205.4C1230.46 205.4 1230.1 205.758 1230.1 206.2C1230.1 206.642 1230.46 207 1230.9 207Z" fill="#6D737D"/>
<path d="M1251.4 207C1251.84 207 1252.2 206.642 1252.2 206.2C1252.2 205.758 1251.84 205.4 1251.4 205.4C1250.96 205.4 1250.6 205.758 1250.6 206.2C1250.6 206.642 1250.96 207 1251.4 207Z" fill="#6D737D"/>
<path d="M1292.2 207C1292.64 207 1293 206.642 1293 206.2C1293 205.758 1292.64 205.4 1292.2 205.4C1291.76 205.4 1291.4 205.758 1291.4 206.2C1291.4 206.642 1291.76 207 1292.2 207Z" fill="#6D737D"/>
<path d="M1312.7 207C1313.14 207 1313.5 206.642 1313.5 206.2C1313.5 205.758 1313.14 205.4 1312.7 205.4C1312.26 205.4 1311.9 205.758 1311.9 206.2C1311.9 206.642 1312.26 207 1312.7 207Z" fill="#6D737D"/>
<path d="M1333.1 207C1333.54 207 1333.9 206.642 1333.9 206.2C1333.9 205.758 1333.54 205.4 1333.1 205.4C1332.66 205.4 1332.3 205.758 1332.3 206.2C1332.3 206.642 1332.66 207 1333.1 207Z" fill="#6D737D"/>
<path d="M1353.6 207C1354.04 207 1354.4 206.642 1354.4 206.2C1354.4 205.758 1354.04 205.4 1353.6 205.4C1353.16 205.4 1352.8 205.758 1352.8 206.2C1352.8 206.642 1353.16 207 1353.6 207Z" fill="#6D737D"/>
<path d="M1374 207C1374.44 207 1374.8 206.642 1374.8 206.2C1374.8 205.758 1374.44 205.4 1374 205.4C1373.56 205.4 1373.2 205.758 1373.2 206.2C1373.2 206.642 1373.56 207 1374 207Z" fill="#6D737D"/>
<path d="M1394.5 207C1394.94 207 1395.3 206.642 1395.3 206.2C1395.3 205.758 1394.94 205.4 1394.5 205.4C1394.06 205.4 1393.7 205.758 1393.7 206.2C1393.7 206.642 1394.06 207 1394.5 207Z" fill="#6D737D"/>
<path d="M1414.9 207C1415.34 207 1415.7 206.642 1415.7 206.2C1415.7 205.758 1415.34 205.4 1414.9 205.4C1414.46 205.4 1414.1 205.758 1414.1 206.2C1414.1 206.642 1414.46 207 1414.9 207Z" fill="#6D737D"/>
<path d="M1435.3 207C1435.74 207 1436.1 206.642 1436.1 206.2C1436.1 205.758 1435.74 205.4 1435.3 205.4C1434.86 205.4 1434.5 205.758 1434.5 206.2C1434.5 206.642 1434.86 207 1435.3 207Z" fill="#6D737D"/>
<path d="M1455.8 207C1456.24 207 1456.6 206.642 1456.6 206.2C1456.6 205.758 1456.24 205.4 1455.8 205.4C1455.36 205.4 1455 205.758 1455 206.2C1455 206.642 1455.36 207 1455.8 207Z" fill="#6D737D"/>
<path d="M1476.2 207C1476.64 207 1477 206.642 1477 206.2C1477 205.758 1476.64 205.4 1476.2 205.4C1475.76 205.4 1475.4 205.758 1475.4 206.2C1475.4 206.642 1475.76 207 1476.2 207Z" fill="#6D737D"/>
<path d="M1537.6 207C1538.04 207 1538.4 206.642 1538.4 206.2C1538.4 205.758 1538.04 205.4 1537.6 205.4C1537.16 205.4 1536.8 205.758 1536.8 206.2C1536.8 206.642 1537.16 207 1537.6 207Z" fill="#6D737D"/>
<path d="M1558 207C1558.44 207 1558.8 206.642 1558.8 206.2C1558.8 205.758 1558.44 205.4 1558 205.4C1557.56 205.4 1557.2 205.758 1557.2 206.2C1557.2 206.642 1557.56 207 1558 207Z" fill="#6D737D"/>
<path d="M1578.4 207C1578.84 207 1579.2 206.642 1579.2 206.2C1579.2 205.758 1578.84 205.4 1578.4 205.4C1577.96 205.4 1577.6 205.758 1577.6 206.2C1577.6 206.642 1577.96 207 1578.4 207Z" fill="#6D737D"/>
<path d="M1598.9 207C1599.34 207 1599.7 206.642 1599.7 206.2C1599.7 205.758 1599.34 205.4 1598.9 205.4C1598.46 205.4 1598.1 205.758 1598.1 206.2C1598.1 206.642 1598.46 207 1598.9 207Z" fill="#6D737D"/>
<path d="M719.9 207C720.342 207 720.7 206.642 720.7 206.2C720.7 205.758 720.342 205.4 719.9 205.4C719.458 205.4 719.1 205.758 719.1 206.2C719.1 206.642 719.458 207 719.9 207Z" fill="#6D737D"/>
<path d="M699.4 207C699.842 207 700.2 206.642 700.2 206.2C700.2 205.758 699.842 205.4 699.4 205.4C698.958 205.4 698.6 205.758 698.6 206.2C698.6 206.642 698.958 207 699.4 207Z" fill="#6D737D"/>
<path d="M679 206.8C679.442 206.8 679.8 206.442 679.8 206C679.8 205.558 679.442 205.2 679 205.2C678.558 205.2 678.2 205.558 678.2 206C678.2 206.442 678.558 206.8 679 206.8Z" fill="#6D737D"/>
<path d="M740.3 207C740.742 207 741.1 206.642 741.1 206.2C741.1 205.758 740.742 205.4 740.3 205.4C739.858 205.4 739.5 205.758 739.5 206.2C739.5 206.642 739.858 207 740.3 207Z" fill="#6D737D"/>
<path d="M760.7 207C761.142 207 761.5 206.642 761.5 206.2C761.5 205.758 761.142 205.4 760.7 205.4C760.258 205.4 759.9 205.758 759.9 206.2C759.9 206.642 760.258 207 760.7 207Z" fill="#6D737D"/>
<path d="M394.9 207C395.342 207 395.7 206.642 395.7 206.2C395.7 205.758 395.342 205.4 394.9 205.4C394.458 205.4 394.1 205.758 394.1 206.2C394.1 206.642 394.458 207 394.9 207Z" fill="#6D737D"/>
<path d="M374.4 207C374.842 207 375.2 206.642 375.2 206.2C375.2 205.758 374.842 205.4 374.4 205.4C373.958 205.4 373.6 205.758 373.6 206.2C373.6 206.642 373.958 207 374.4 207Z" fill="#6D737D"/>
<path d="M415.3 207C415.742 207 416.1 206.642 416.1 206.2C416.1 205.758 415.742 205.4 415.3 205.4C414.858 205.4 414.5 205.758 414.5 206.2C414.5 206.642 414.858 207 415.3 207Z" fill="#6D737D"/>
<path d="M435.8 207C436.242 207 436.6 206.642 436.6 206.2C436.6 205.758 436.242 205.4 435.8 205.4C435.358 205.4 435 205.758 435 206.2C435 206.642 435.358 207 435.8 207Z" fill="#6D737D"/>
<path d="M456.2 207C456.642 207 457 206.642 457 206.2C457 205.758 456.642 205.4 456.2 205.4C455.758 205.4 455.4 205.758 455.4 206.2C455.4 206.642 455.758 207 456.2 207Z" fill="#6D737D"/>
<path d="M476.7 207C477.142 207 477.5 206.642 477.5 206.2C477.5 205.758 477.142 205.4 476.7 205.4C476.258 205.4 475.9 205.758 475.9 206.2C475.9 206.642 476.258 207 476.7 207Z" fill="#6D737D"/>
<path d="M497.1 207C497.542 207 497.9 206.642 497.9 206.2C497.9 205.758 497.542 205.4 497.1 205.4C496.658 205.4 496.3 205.758 496.3 206.2C496.3 206.642 496.658 207 497.1 207Z" fill="#6D737D"/>
<path d="M354 207C354.442 207 354.8 206.642 354.8 206.2C354.8 205.758 354.442 205.4 354 205.4C353.558 205.4 353.2 205.758 353.2 206.2C353.2 206.642 353.558 207 354 207Z" fill="#6D737D"/>
<path d="M313.1 207C313.542 207 313.9 206.642 313.9 206.2C313.9 205.758 313.542 205.4 313.1 205.4C312.658 205.4 312.3 205.758 312.3 206.2C312.3 206.642 312.658 207 313.1 207Z" fill="#6D737D"/>
<path d="M292.7 207C293.142 207 293.5 206.642 293.5 206.2C293.5 205.758 293.142 205.4 292.7 205.4C292.258 205.4 291.9 205.758 291.9 206.2C291.9 206.642 292.258 207 292.7 207Z" fill="#6D737D"/>
<path d="M272.2 207C272.642 207 273 206.642 273 206.2C273 205.758 272.642 205.4 272.2 205.4C271.758 205.4 271.4 205.758 271.4 206.2C271.4 206.642 271.758 207 272.2 207Z" fill="#6D737D"/>
<path d="M251.8 207C252.242 207 252.6 206.642 252.6 206.2C252.6 205.758 252.242 205.4 251.8 205.4C251.358 205.4 251 205.758 251 206.2C251 206.642 251.358 207 251.8 207Z" fill="#6D737D"/>
<path d="M190.5 207C190.942 207 191.3 206.642 191.3 206.2C191.3 205.758 190.942 205.4 190.5 205.4C190.058 205.4 189.7 205.758 189.7 206.2C189.7 206.642 190.058 207 190.5 207Z" fill="#6D737D"/>
<path d="M170 207C170.442 207 170.8 206.642 170.8 206.2C170.8 205.758 170.442 205.4 170 205.4C169.558 205.4 169.2 205.758 169.2 206.2C169.2 206.642 169.558 207 170 207Z" fill="#6D737D"/>
<path d="M149.6 207C150.042 207 150.4 206.642 150.4 206.2C150.4 205.758 150.042 205.4 149.6 205.4C149.158 205.4 148.8 205.758 148.8 206.2C148.8 206.642 149.158 207 149.6 207Z" fill="#6D737D"/>
<path d="M129.1 207C129.542 207 129.9 206.642 129.9 206.2C129.9 205.758 129.542 205.4 129.1 205.4C128.658 205.4 128.3 205.758 128.3 206.2C128.3 206.642 128.658 207 129.1 207Z" fill="#6D737D"/>
<path d="M88.2001 207C88.642 207 89.0001 206.642 89.0001 206.2C89.0001 205.758 88.642 205.4 88.2001 205.4C87.7583 205.4 87.4001 205.758 87.4001 206.2C87.4001 206.642 87.7583 207 88.2001 207Z" fill="#6D737D"/>
<path d="M67.8 207C68.2418 207 68.6 206.642 68.6 206.2C68.6 205.758 68.2418 205.4 67.8 205.4C67.3582 205.4 67 205.758 67 206.2C67 206.642 67.3582 207 67.8 207Z" fill="#6D737D"/>
<path d="M47.4001 207C47.8419 207 48.2001 206.642 48.2001 206.2C48.2001 205.758 47.8419 205.4 47.4001 205.4C46.9583 205.4 46.6001 205.758 46.6001 206.2C46.6001 206.642 46.9583 207 47.4001 207Z" fill="#6D737D"/>
<path d="M715.9 138.3V75.2C715.9 72.7 713.8 70.6 711.3 70.6H666C663.5 70.6 661.4 72.7 661.4 75.2V211.3" stroke="#6D737D" stroke-width="1.2" stroke-miterlimit="10" stroke-linecap="round" stroke-linejoin="round"/>
<path d="M661.3 211.2H731.7" stroke="#6D737D" stroke-width="1.2" stroke-miterlimit="10" stroke-linecap="round" stroke-linejoin="round"/>
<path d="M416.9 211.2H497.1" stroke="#6D737D" stroke-width="1.2" stroke-miterlimit="10" stroke-linecap="round" stroke-linejoin="round"/>
<path d="M192.3 211.2H384.7" stroke="#6D737D" stroke-width="1.2" stroke-miterlimit="10" stroke-linecap="round" stroke-linejoin="round"/>
<path d="M126.9 211.2H151.9" stroke="#6D737D" stroke-width="1.2" stroke-miterlimit="10" stroke-linecap="round" stroke-linejoin="round"/>
<path d="M661.3 200.9H1347.6" stroke="#6D737D" stroke-width="1.2" stroke-miterlimit="10" stroke-linecap="round" stroke-linejoin="round"/>
<path d="M1406.3 200.9H1709.8" stroke="#6D737D" stroke-width="1.2" stroke-miterlimit="10" stroke-linecap="round" stroke-linejoin="round"/>
<path d="M142.2 200.9H506.1" stroke="#6D737D" stroke-width="1.2" stroke-miterlimit="10" stroke-linecap="round" stroke-linejoin="round"/>
<path d="M74.3 200.9H118" stroke="#6D737D" stroke-width="1.2" stroke-miterlimit="10" stroke-linecap="round" stroke-linejoin="round"/>
<path d="M764.6 211.2H898.8" stroke="#6D737D" stroke-width="1.2" stroke-miterlimit="10" stroke-linecap="round" stroke-linejoin="round"/>
<path d="M951.7 211.2H1221.7" stroke="#6D737D" stroke-width="1.2" stroke-miterlimit="10" stroke-linecap="round" stroke-linejoin="round"/>
<path d="M601.4 107.6H590.1L589.1 155H601.5C605 155 607.8 152.2 607.8 148.7V113.9C607.7 110.4 604.9 107.6 601.4 107.6Z" fill="url(#paint14_linear)"/>
<path d="M591.9 154.9H551.3C548 154.9 545.2 152.2 545.2 148.8V113.6C545.2 110.3 547.9 107.5 551.3 107.5H591.9C595.2 107.5 598 110.2 598 113.6V148.8C598 152.2 595.3 154.9 591.9 154.9Z" fill="url(#paint15_linear)"/>
<path d="M589.1 154.9H601.5C605 154.9 607.8 152.1 607.8 148.6V144.7" stroke="#6D737D" stroke-width="1.2" stroke-miterlimit="10" stroke-linecap="round" stroke-linejoin="round"/>
<path d="M590.1 107.6H601.4C604.9 107.6 607.7 110.4 607.7 113.9" stroke="#6D737D" stroke-width="1.2" stroke-miterlimit="10" stroke-linecap="round" stroke-linejoin="round"/>
<path d="M566.2 107.6H591.7C595.2 107.6 598 110.4 598 113.9V119.6" stroke="#6D737D" stroke-width="1.2" stroke-miterlimit="10" stroke-linecap="round" stroke-linejoin="round"/>
<path d="M545.3 133.2V113.9C545.3 110.4 548.1 107.6 551.6 107.6H555.1" stroke="#6D737D" stroke-width="1.2" stroke-miterlimit="10" stroke-linecap="round" stroke-linejoin="round"/>
<path d="M598 139.5V148.6C598 152.1 595.2 154.9 591.7 154.9H551.6C548.1 154.9 545.3 152.1 545.3 148.6" stroke="#6D737D" stroke-width="1.2" stroke-miterlimit="10" stroke-linecap="round" stroke-linejoin="round"/>
<path d="M580.9 133C580.3 132.4 579.4 132.4 578.8 133L573.4 138.4C572.8 139 572.8 139.9 573.4 140.5L578.8 145.9C579.4 146.5 580.3 146.5 580.9 145.9L586.3 140.5C586.9 139.9 586.9 139 586.3 138.4L580.9 133Z" fill="#6D737D"/>
<path d="M578.8 129.5C579.4 130.1 580.3 130.1 580.9 129.5L586.3 124.1C586.9 123.5 586.9 122.6 586.3 122L580.9 116.6C580.3 116 579.4 116 578.8 116.6L574.6 120.8C574.3 121.1 573.1 122 571.6 122C569.8 122 568.6 120.8 568.6 120.8L564.5 116.6C563.9 116 563 116 562.4 116.6L557 122C556.4 122.6 556.4 123.5 557 124.1L561.2 128.3C561.5 128.6 562.4 129.7 562.4 131.3C562.4 132.8 561.5 133.9 561.2 134.3L556.9 138.6C556.3 139.2 556.3 140.1 556.9 140.7L562.4 146.1C563 146.7 563.9 146.7 564.5 146.1L569.9 140.7C570.5 140.1 570.5 139.2 569.9 138.6L565.7 134.4C565.4 134.1 564.5 132.9 564.5 131.4C564.5 129.9 565.4 128.7 565.7 128.4L568.7 125.4C568.7 125.4 569.9 124.2 571.7 124.2C573.2 124.2 574.3 125.1 574.6 125.4L578.8 129.5Z" fill="#6D737D"/>
<path d="M851.8 129.6C852.2 126.8 852.3 125.7 853.3 123.8C854.2 122.2 855.4 121.3 855.4 121.3C853.8 120.1 853.3 119.1 852.7 117.7C851.8 115.9 851.9 113.8 851.9 113.8C851.9 113.8 851.9 116.1 851 117.9C849.9 120.2 848.3 121.2 848.3 121.2C848.3 121.2 849.6 122 850.8 124.3C851.7 126 851.8 129.6 851.8 129.6Z" fill="white"/>
<path d="M803.4 95.3C803.8 92.5 804.1 90.9 805.4 89.2C807 87.1 810.1 86.4 810.1 86.4C807.6 86.4 806.1 85.6 804.9 84C803.7 82.4 803.4 79 803.4 79C803.4 79 803.1 81.4 802.5 83.1C801.9 84.8 800.6 85.7 799.8 86C799 86.3 797.7 86.4 797.7 86.4C797.7 86.4 799.1 86.9 800.2 87.6C801.3 88.4 801.9 89.4 802.3 90.3C803.1 91.8 803.4 95.3 803.4 95.3Z" fill="white"/>
<path d="M871.8 134.4H801.8V200.9H871.8V134.4Z" fill="url(#paint16_linear)"/>
<path d="M894.6 134.4H871.8V200.9H894.6V134.4Z" fill="url(#paint17_linear)"/>
<path d="M771.6 148H710.4V200.9H771.6V148Z" fill="url(#paint18_linear)"/>
<path d="M790 148H771.7V200.9H790V148Z" fill="url(#paint19_linear)"/>
<path d="M748.2 175.7C747.8 175.3 747.1 175.3 746.7 175.7L742.8 179.7C742.4 180.1 742.4 180.8 742.8 181.2L746.7 185.2C747.1 185.6 747.8 185.6 748.2 185.2L752.2 181.2C752.6 180.8 752.6 180.1 752.2 179.7L748.2 175.7Z" fill="#6D737D"/>
<path d="M746.7 173.2C747.1 173.6 747.8 173.6 748.2 173.2L752.2 169.2C752.6 168.8 752.6 168.1 752.2 167.7L748.2 163.7C747.8 163.3 747.1 163.3 746.7 163.7L743.6 166.8C743.4 167 742.5 167.7 741.4 167.7C740.1 167.7 739.2 166.8 739.2 166.8L736.2 163.8C735.8 163.4 735.1 163.4 734.7 163.8L730.7 167.8C730.3 168.2 730.3 168.9 730.7 169.3L733.8 172.4C734 172.6 734.7 173.4 734.7 174.6C734.7 175.7 734.1 176.5 733.8 176.8L730.7 179.9C730.3 180.3 730.3 181 730.7 181.4L734.7 185.4C735.1 185.8 735.8 185.8 736.2 185.4L740.2 181.4C740.6 181 740.6 180.3 740.2 179.9L737.1 176.8C736.9 176.6 736.2 175.7 736.2 174.6C736.2 173.5 736.9 172.7 737.1 172.4L739.3 170.2C739.3 170.2 740.2 169.3 741.5 169.3C742.6 169.3 743.4 169.9 743.6 170.2L746.7 173.2Z" fill="#6D737D"/>
<path d="M843.9 169.5C843.5 169.1 842.8 169.1 842.3 169.5L838.2 173.7C837.8 174.1 837.8 174.8 838.2 175.3L842.3 179.5C842.7 179.9 843.4 179.9 843.9 179.5L848.1 175.3C848.5 174.9 848.5 174.2 848.1 173.7L843.9 169.5Z" fill="#6D737D"/>
<path d="M842.3 166.8C842.7 167.2 843.4 167.2 843.9 166.8L848.1 162.6C848.5 162.2 848.5 161.5 848.1 161L843.9 156.8C843.5 156.4 842.8 156.4 842.3 156.8L839.1 160C838.9 160.2 838 160.9 836.8 160.9C835.4 160.9 834.5 160 834.5 160L831.3 156.8C830.9 156.4 830.2 156.4 829.7 156.8L825.5 161C825.1 161.4 825.1 162.1 825.5 162.6L828.7 165.8C828.9 166 829.6 166.9 829.6 168.1C829.6 169.2 828.9 170.1 828.7 170.4L825.4 173.7C825 174.1 825 174.8 825.4 175.3L829.6 179.5C830 179.9 830.7 179.9 831.2 179.5L835.4 175.3C835.8 174.9 835.8 174.2 835.4 173.7L832.2 170.5C832 170.3 831.3 169.4 831.3 168.2C831.3 167 832 166.1 832.2 165.9L834.5 163.6C834.5 163.6 835.4 162.7 836.8 162.7C837.9 162.7 838.8 163.4 839 163.6L842.3 166.8Z" fill="#6D737D"/>
<path d="M710.4 148H771.7V200.9" stroke="#6D737D" stroke-width="1.2" stroke-miterlimit="10" stroke-linecap="round" stroke-linejoin="round"/>
<path d="M755.3 154.3C755.6 152.3 755.3 151.1 756.2 149.7C756.2 149.6 756.3 149.6 756.3 149.5C756.4 149.3 756.5 149.1 756.7 149C758.3 147 759.9 146.8 759.9 146.8C758.2 146.6 757.1 145.5 756.6 144.8C755.8 143.6 755.3 139.6 755.3 139.6C755.3 139.6 755.3 142.3 754.6 144C754 145.4 753 146.1 752.3 146.4C751.7 146.7 751.1 146.7 751.1 146.7C751.1 146.7 752.1 147.1 753 147.8C753.9 148.4 754.2 149 754.5 149.7C755.2 151.1 755.3 154.3 755.3 154.3Z" fill="white"/>
<path d="M710.4 163.5V200.9H790V193.2" stroke="#6D737D" stroke-width="1.2" stroke-miterlimit="10" stroke-linecap="round" stroke-linejoin="round"/>
<path d="M771.7 148H785.2" stroke="#6D737D" stroke-width="1.2" stroke-miterlimit="10" stroke-linecap="round" stroke-linejoin="round"/>
<path d="M801.8 169.2V200.9H894.5V174.5" stroke="#6D737D" stroke-width="1.2" stroke-miterlimit="10" stroke-linecap="round" stroke-linejoin="round"/>
<path d="M871.8 200.9V185.5" stroke="#6D737D" stroke-width="1.2" stroke-miterlimit="10" stroke-linecap="round" stroke-linejoin="round"/>
<path d="M871.8 159.8V134.4H885.2" stroke="#6D737D" stroke-width="1.2" stroke-miterlimit="10" stroke-linecap="round" stroke-linejoin="round"/>
<path d="M871.8 134.4H861.6" stroke="#6D737D" stroke-width="1.2" stroke-miterlimit="10" stroke-linecap="round" stroke-linejoin="round"/>
<path d="M805.4 89.1C807 87 810.1 86.3 810.1 86.3C807.6 86.3 806.1 85.5 804.9 83.9C803.7 82.3 803.4 78.9 803.4 78.9" stroke="#6D737D" stroke-width="0.7" stroke-miterlimit="10" stroke-linecap="round" stroke-linejoin="round"/>
<path d="M802.6 83C802 84.7 800.7 85.6 799.9 85.9C799.1 86.2 797.8 86.3 797.8 86.3C797.8 86.3 799.2 86.8 800.3 87.5C801.4 88.3 802 89.3 802.4 90.2C803.2 91.8 803.5 95.3 803.5 95.3C803.7 93.7 803.9 92.5 804.3 91.5" stroke="#6D737D" stroke-width="0.7" stroke-miterlimit="10" stroke-linecap="round" stroke-linejoin="round"/>
<path d="M852.6 125.1C852.8 124.7 853 124.3 853.2 123.8C854.1 122.2 855.3 121.3 855.3 121.3C853.7 120.1 853.2 119.1 852.6 117.7C851.7 115.9 851.8 113.8 851.8 113.8C851.8 113.8 851.8 116.1 850.9 117.9C849.8 120.2 848.2 121.2 848.2 121.2C848.2 121.2 849.5 122 850.7 124.3C851.6 126.1 851.8 129.6 851.8 129.6" stroke="#6D737D" stroke-width="0.7" stroke-miterlimit="10" stroke-linecap="round" stroke-linejoin="round"/>
<path d="M756.4 149.8C756.5 149.6 756.7 149.4 756.8 149.2C758.2 147.3 759.9 146.8 759.9 146.8C758.2 146.6 757.1 145.5 756.6 144.8" stroke="#6D737D" stroke-width="0.7" stroke-miterlimit="10" stroke-linecap="round" stroke-linejoin="round"/>
<path d="M755.3 139.6C755.3 139.6 755.3 142.3 754.6 144C754 145.4 753 146.1 752.3 146.4C751.7 146.7 751.1 146.7 751.1 146.7C751.1 146.7 752.1 147.1 753 147.8C753.9 148.4 754.2 149 754.5 149.7C755.2 151.1 755.3 154.3 755.3 154.3" stroke="#6D737D" stroke-width="0.7" stroke-miterlimit="10" stroke-linecap="round" stroke-linejoin="round"/>
<path d="M864.1 130.1V125" stroke="#6D737D" stroke-width="0.7" stroke-miterlimit="10" stroke-linecap="round" stroke-linejoin="round"/>
<path d="M866.3 130.7H868.9" stroke="#6D737D" stroke-width="0.7" stroke-miterlimit="10" stroke-linecap="round" stroke-linejoin="round"/>
<path d="M861.2 130.7H857.9" stroke="#6D737D" stroke-width="0.7" stroke-miterlimit="10" stroke-linecap="round" stroke-linejoin="round"/>
<path d="M818.1 65.2V74.2" stroke="#6D737D" stroke-width="0.7" stroke-miterlimit="10" stroke-linecap="round" stroke-linejoin="round"/>
<path d="M818.1 77.9V85.1" stroke="#6D737D" stroke-width="0.7" stroke-miterlimit="10" stroke-linecap="round" stroke-linejoin="round"/>
<path d="M812.3 74.9H815.2" stroke="#6D737D" stroke-width="0.7" stroke-miterlimit="10" stroke-linecap="round" stroke-linejoin="round"/>
<path d="M820.7 74.9H824.8" stroke="#6D737D" stroke-width="0.7" stroke-miterlimit="10" stroke-linecap="round" stroke-linejoin="round"/>
<path d="M1655.9 134.4H1585.9V200.9H1655.9V134.4Z" fill="url(#paint20_linear)"/>
<path d="M1678.7 134.4H1655.9V200.9H1678.7V134.4Z" fill="url(#paint21_linear)"/>
<path d="M1628 169.5C1627.6 169.1 1626.9 169.1 1626.4 169.5L1622.3 173.7C1621.9 174.1 1621.9 174.8 1622.3 175.3L1626.4 179.5C1626.8 179.9 1627.5 179.9 1628 179.5L1632.2 175.3C1632.6 174.9 1632.6 174.2 1632.2 173.7L1628 169.5Z" fill="#6D737D"/>
<path d="M1626.5 166.8C1626.9 167.2 1627.6 167.2 1628.1 166.8L1632.3 162.6C1632.7 162.2 1632.7 161.5 1632.3 161L1628.1 156.8C1627.7 156.4 1627 156.4 1626.5 156.8L1623.3 160C1623.1 160.2 1622.2 160.9 1621 160.9C1619.6 160.9 1618.7 160 1618.7 160L1615.5 156.8C1615.1 156.4 1614.4 156.4 1613.9 156.8L1609.7 161C1609.3 161.4 1609.3 162.1 1609.7 162.6L1612.9 165.8C1613.1 166 1613.8 166.9 1613.8 168.1C1613.8 169.2 1613.1 170.1 1612.9 170.4L1609.6 173.7C1609.2 174.1 1609.2 174.8 1609.6 175.3L1613.8 179.5C1614.2 179.9 1614.9 179.9 1615.4 179.5L1619.6 175.3C1620 174.9 1620 174.2 1619.6 173.7L1616.4 170.5C1616.2 170.3 1615.5 169.4 1615.5 168.2C1615.5 167 1616.2 166.1 1616.4 165.9L1618.7 163.6C1618.7 163.6 1619.6 162.7 1621 162.7C1622.1 162.7 1623 163.4 1623.2 163.6L1626.5 166.8Z" fill="#6D737D"/>
<path d="M1585.9 169.2V200.9H1678.7V174.5" stroke="#6D737D" stroke-width="1.2" stroke-miterlimit="10" stroke-linecap="round" stroke-linejoin="round"/>
<path d="M1655.9 200.9V185.5" stroke="#6D737D" stroke-width="1.2" stroke-miterlimit="10" stroke-linecap="round" stroke-linejoin="round"/>
<path d="M1655.9 159.8V134.4H1669.4" stroke="#6D737D" stroke-width="1.2" stroke-miterlimit="10" stroke-linecap="round" stroke-linejoin="round"/>
<path d="M1655.9 134.4H1645.7" stroke="#6D737D" stroke-width="1.2" stroke-miterlimit="10" stroke-linecap="round" stroke-linejoin="round"/>
<path d="M132.7 103C134.7 110 131.5 117.2 125.4 120.6L130.6 124.3C134.8 122.9 138.5 120.2 141.1 116.7" stroke="#6D737D" stroke-width="1.2" stroke-miterlimit="10" stroke-linecap="round" stroke-linejoin="round"/>
<path d="M86.3 103.6C86.3 113.2 92.5 121.3 101.1 124.2L106.3 120.5C104.6 119.6 103.2 118.4 102 117" stroke="#6D737D" stroke-width="1.2" stroke-miterlimit="10" stroke-linecap="round" stroke-linejoin="round"/>
<path d="M124.3 0.700012H107.4V71.7H124.3V0.700012Z" fill="url(#paint22_linear)"/>
<path d="M124.2 71.6H107.5C104 71.6 101.1 74.5 101.1 78V81.9H130.6V78C130.6 74.5 127.8 71.6 124.2 71.6Z" fill="url(#paint23_linear)"/>
<path d="M113.7 81.9L115.8 90.9C115.8 90.9 121.6 90.9 127.1 95C132.6 99.1 133.9 105.1 132.8 111C131.7 116.9 125.4 120.4 125.4 120.4L130.6 124.1C130.6 124.1 138.7 122 143.1 112.6C147.5 103.2 144.8 94.5 140.2 88C137.9 84.7 133.9 82.8 130.6 81.8L113.7 81.9Z" fill="url(#paint24_linear)"/>
<path d="M115.7 81.9V90.9C115.7 90.9 109.9 90.9 104.4 95C98.9001 99.1 97.6001 105.1 98.7001 111C99.8001 116.9 106.1 120.4 106.1 120.4L100.9 124.1C100.9 124.1 92.8001 122 88.4001 112.6C84.0001 103.2 86.7001 94.5 91.3001 88C93.6001 84.7 97.6001 82.8 100.9 81.8L115.7 81.9Z" fill="url(#paint25_linear)"/>
<path d="M107.4 71.6V0.700012" stroke="#6D737D" stroke-width="1.2" stroke-miterlimit="10" stroke-linecap="round" stroke-linejoin="round"/>
<path d="M124.3 16.5V71.6" stroke="#6D737D" stroke-width="1.2" stroke-miterlimit="10" stroke-linecap="round" stroke-linejoin="round"/>
<path d="M101.1 81.9V75C101.1 73.1 102.6 71.6 104.5 71.6H111.7" stroke="#6D737D" stroke-width="1.2" stroke-miterlimit="10" stroke-linecap="round" stroke-linejoin="round"/>
<path d="M121.6 71.6H127.1C129 71.6 130.5 73.1 130.5 75V81.9H107.3" stroke="#6D737D" stroke-width="1.2" stroke-miterlimit="10" stroke-linecap="round" stroke-linejoin="round"/>
<path d="M145.4 103.6C145.4 100.3 144.9 97.4 143.9 94.8C141.4 87.8 136.1 83.2 130.5 81.9" stroke="#6D737D" stroke-width="1.2" stroke-miterlimit="10" stroke-linecap="round" stroke-linejoin="round"/>
<path d="M115.8 90.9C120.2 90.9 126.9 93.5 130.6 98.7" stroke="#6D737D" stroke-width="1.2" stroke-miterlimit="10" stroke-linecap="round" stroke-linejoin="round"/>
<path d="M98.5 109.6C98.2 107.4 98.3 105.2 98.9 103C101.3 95 110.3 91 115.8 91V84.6" stroke="#6D737D" stroke-width="1.2" stroke-miterlimit="10" stroke-linecap="round" stroke-linejoin="round"/>
<path d="M101.1 81.9C95.4 83.2 89.9 88 87.5 95.4" stroke="#6D737D" stroke-width="1.2" stroke-miterlimit="10" stroke-linecap="round" stroke-linejoin="round"/>
<path d="M118.3 105.2H113.3C109.4 105.2 106.2 108.4 106.2 112.3V115.2H125.4V112.3C125.4 108.3 122.3 105.2 118.3 105.2Z" fill="url(#paint26_linear)"/>
<path d="M122.1 140.9H109.5C107.7 140.9 106.2 139.4 106.2 137.6V115.1H125.4V137.6C125.4 139.4 124 140.9 122.1 140.9Z" fill="url(#paint27_linear)"/>
<path d="M122.1 140.9H109.6C107.8 140.9 106.3 139.4 106.3 137.6V111.9C106.3 108.2 109.3 105.1 113.1 105.1H118.7C122.4 105.1 125.5 108.1 125.5 111.9V137.6C125.4 139.4 123.9 140.9 122.1 140.9Z" stroke="#6D737D" stroke-width="1.2" stroke-miterlimit="10" stroke-linecap="round" stroke-linejoin="round"/>
<path d="M107.4 115.2H124.3" stroke="#6D737D" stroke-width="0.7" stroke-miterlimit="10" stroke-linecap="round" stroke-linejoin="round"/>
<path d="M113.5 131.7C111.5 130.8 110 128.8 110 126.4C110 123.3 112.6 120.7 115.7 120.7C118.8 120.7 121.4 123.3 121.4 126.4" stroke="#6D737D" stroke-width="0.7" stroke-miterlimit="10" stroke-linecap="round" stroke-linejoin="round"/>
<path d="M1279.3 148H1218.1V200.9H1279.3V148Z" fill="url(#paint28_linear)"/>
<path d="M1297.7 148H1279.4V200.9H1297.7V148Z" fill="url(#paint29_linear)"/>
<path d="M1255.9 175.7C1255.5 175.3 1254.8 175.3 1254.4 175.7L1250.5 179.7C1250.1 180.1 1250.1 180.8 1250.5 181.2L1254.4 185.2C1254.8 185.6 1255.5 185.6 1255.9 185.2L1259.9 181.2C1260.3 180.8 1260.3 180.1 1259.9 179.7L1255.9 175.7Z" fill="#6D737D"/>
<path d="M1254.4 173.2C1254.8 173.6 1255.5 173.6 1255.9 173.2L1259.9 169.2C1260.3 168.8 1260.3 168.1 1259.9 167.7L1255.9 163.7C1255.5 163.3 1254.8 163.3 1254.4 163.7L1251.3 166.8C1251.1 167 1250.2 167.7 1249.1 167.7C1247.8 167.7 1246.9 166.8 1246.9 166.8L1243.9 163.8C1243.5 163.4 1242.8 163.4 1242.4 163.8L1238.4 167.8C1238 168.2 1238 168.9 1238.4 169.3L1241.5 172.4C1241.7 172.6 1242.4 173.4 1242.4 174.6C1242.4 175.7 1241.8 176.5 1241.5 176.8L1238.4 179.9C1238 180.3 1238 181 1238.4 181.4L1242.4 185.4C1242.8 185.8 1243.5 185.8 1243.9 185.4L1247.9 181.4C1248.3 181 1248.3 180.3 1247.9 179.9L1244.8 176.8C1244.6 176.6 1243.9 175.7 1243.9 174.6C1243.9 173.5 1244.6 172.7 1244.8 172.4L1247 170.2C1247 170.2 1247.9 169.3 1249.2 169.3C1250.3 169.3 1251.1 169.9 1251.3 170.2L1254.4 173.2Z" fill="#6D737D"/>
<path d="M1218.1 148H1279.4V200.9" stroke="#6D737D" stroke-width="1.2" stroke-miterlimit="10" stroke-linecap="round" stroke-linejoin="round"/>
<path d="M1218.1 163.5V200.9H1297.7V193.2" stroke="#6D737D" stroke-width="1.2" stroke-miterlimit="10" stroke-linecap="round" stroke-linejoin="round"/>
<path d="M1279.4 148H1293" stroke="#6D737D" stroke-width="1.2" stroke-miterlimit="10" stroke-linecap="round" stroke-linejoin="round"/>
<path d="M1028.4 168.1H990.4V200.9H1028.4V168.1Z" fill="url(#paint30_linear)"/>
<path d="M1039.8 168.1H1028.4V200.9H1039.8V168.1Z" fill="url(#paint31_linear)"/>
<path d="M1013.8 185.3C1013.5 185 1013.1 185 1012.9 185.3L1010.5 187.8C1010.2 188.1 1010.2 188.5 1010.5 188.7L1012.9 191.2C1013.2 191.5 1013.6 191.5 1013.8 191.2L1016.3 188.7C1016.6 188.4 1016.6 188 1016.3 187.8L1013.8 185.3Z" fill="#6D737D"/>
<path d="M1012.9 183.7C1013.2 184 1013.6 184 1013.8 183.7L1016.3 181.2C1016.6 180.9 1016.6 180.5 1016.3 180.3L1013.8 177.8C1013.5 177.5 1013.1 177.5 1012.9 177.8L1011 179.7C1010.9 179.8 1010.3 180.2 1009.6 180.2C1008.8 180.2 1008.2 179.6 1008.2 179.6L1006.3 177.7C1006 177.4 1005.6 177.4 1005.4 177.7L1002.9 180.2C1002.6 180.5 1002.6 180.9 1002.9 181.1L1004.8 183C1004.9 183.1 1005.3 183.6 1005.3 184.3C1005.3 185 1004.9 185.5 1004.8 185.6L1002.9 187.5C1002.6 187.8 1002.6 188.2 1002.9 188.4L1005.4 190.9C1005.7 191.2 1006.1 191.2 1006.3 190.9L1008.8 188.4C1009.1 188.1 1009.1 187.7 1008.8 187.5L1006.9 185.6C1006.8 185.5 1006.4 184.9 1006.4 184.2C1006.4 183.5 1006.8 183 1006.9 182.9L1008.2 181.6C1008.2 181.6 1008.8 181 1009.6 181C1010.3 181 1010.8 181.4 1010.9 181.5L1012.9 183.7Z" fill="#6D737D"/>
<path d="M990.4 168.1H1028.4V200.9" stroke="#6D737D" stroke-width="1.2" stroke-miterlimit="10" stroke-linecap="round" stroke-linejoin="round"/>
<path d="M990.4 177.7V200.9H1039.8V196.1" stroke="#6D737D" stroke-width="1.2" stroke-miterlimit="10" stroke-linecap="round" stroke-linejoin="round"/>
<path d="M1028.4 168.1H1036.8" stroke="#6D737D" stroke-width="1.2" stroke-miterlimit="10" stroke-linecap="round" stroke-linejoin="round"/>
<path d="M1500.9 168.1H1462.9V200.9H1500.9V168.1Z" fill="url(#paint32_linear)"/>
<path d="M1512.3 168.1H1500.9V200.9H1512.3V168.1Z" fill="url(#paint33_linear)"/>
<path d="M1486.3 185.3C1486 185 1485.6 185 1485.4 185.3L1483 187.8C1482.7 188.1 1482.7 188.5 1483 188.7L1485.4 191.2C1485.7 191.5 1486.1 191.5 1486.3 191.2L1488.8 188.7C1489.1 188.4 1489.1 188 1488.8 187.8L1486.3 185.3Z" fill="#6D737D"/>
<path d="M1485.4 183.7C1485.7 184 1486.1 184 1486.3 183.7L1488.8 181.2C1489.1 180.9 1489.1 180.5 1488.8 180.3L1486.3 177.8C1486 177.5 1485.6 177.5 1485.4 177.8L1483.5 179.7C1483.4 179.8 1482.8 180.2 1482.1 180.2C1481.3 180.2 1480.7 179.6 1480.7 179.6L1478.8 177.7C1478.5 177.4 1478.1 177.4 1477.9 177.7L1475.4 180.2C1475.1 180.5 1475.1 180.9 1475.4 181.1L1477.3 183C1477.4 183.1 1477.8 183.6 1477.8 184.3C1477.8 185 1477.4 185.5 1477.3 185.6L1475.4 187.5C1475.1 187.8 1475.1 188.2 1475.4 188.4L1477.9 190.9C1478.2 191.2 1478.6 191.2 1478.8 190.9L1481.3 188.4C1481.6 188.1 1481.6 187.7 1481.3 187.5L1479.4 185.6C1479.3 185.5 1478.9 184.9 1478.9 184.2C1478.9 183.5 1479.3 183 1479.4 182.9L1480.7 181.6C1480.7 181.6 1481.3 181 1482.1 181C1482.8 181 1483.3 181.4 1483.4 181.5L1485.4 183.7Z" fill="#6D737D"/>
<path d="M1462.9 168.1H1500.9V200.9" stroke="#6D737D" stroke-width="1.2" stroke-miterlimit="10" stroke-linecap="round" stroke-linejoin="round"/>
<path d="M1462.9 177.7V200.9H1512.2V196.1" stroke="#6D737D" stroke-width="1.2" stroke-miterlimit="10" stroke-linecap="round" stroke-linejoin="round"/>
<path d="M1500.9 168.1H1509.3" stroke="#6D737D" stroke-width="1.2" stroke-miterlimit="10" stroke-linecap="round" stroke-linejoin="round"/>
<path d="M1157.8 138.1H1119.8V200.9H1157.8V138.1Z" fill="url(#paint34_linear)"/>
<path d="M1169.1 138.1H1157.7V200.9H1169.1V138.1Z" fill="url(#paint35_linear)"/>
<path d="M1143.2 170.3C1142.9 170 1142.5 170 1142.3 170.3L1139.9 172.8C1139.6 173.1 1139.6 173.5 1139.9 173.7L1142.3 176.2C1142.6 176.5 1143 176.5 1143.2 176.2L1145.7 173.7C1146 173.4 1146 173 1145.7 172.8L1143.2 170.3Z" fill="#6D737D"/>
<path d="M1142.3 168.7C1142.6 169 1143 169 1143.2 168.7L1145.7 166.2C1146 165.9 1146 165.5 1145.7 165.3L1143.2 162.8C1142.9 162.5 1142.5 162.5 1142.3 162.8L1140.4 164.7C1140.3 164.8 1139.7 165.2 1139 165.2C1138.2 165.2 1137.6 164.6 1137.6 164.6L1135.7 162.7C1135.4 162.4 1135 162.4 1134.8 162.7L1132.3 165.2C1132 165.5 1132 165.9 1132.3 166.1L1134.2 168C1134.3 168.1 1134.7 168.6 1134.7 169.3C1134.7 170 1134.3 170.5 1134.2 170.6L1132.3 172.5C1132 172.8 1132 173.2 1132.3 173.4L1134.8 175.9C1135.1 176.2 1135.5 176.2 1135.7 175.9L1138.2 173.4C1138.5 173.1 1138.5 172.7 1138.2 172.5L1136.3 170.6C1136.2 170.5 1135.8 169.9 1135.8 169.2C1135.8 168.5 1136.2 168 1136.3 167.9L1137.6 166.6C1137.6 166.6 1138.2 166 1139 166C1139.7 166 1140.2 166.4 1140.3 166.5L1142.3 168.7Z" fill="#6D737D"/>
<path d="M1157.7 200.9V138.1H1119.8V145.7" stroke="#6D737D" stroke-width="1.2" stroke-miterlimit="10" stroke-linecap="round" stroke-linejoin="round"/>
<path d="M1119.8 177.7V200.9H1169.1V196.1" stroke="#6D737D" stroke-width="1.2" stroke-miterlimit="10" stroke-linecap="round" stroke-linejoin="round"/>
<path d="M1157.7 138.1H1166.2" stroke="#6D737D" stroke-width="1.2" stroke-miterlimit="10" stroke-linecap="round" stroke-linejoin="round"/>
</g>
<defs>
<linearGradient id="paint0_linear" x1="231.76" y1="182.168" x2="195.032" y2="182.168" gradientUnits="userSpaceOnUse">
<stop stop-color="#D8E0E3"/>
<stop offset="0.672" stop-color="#EAF1F5"/>
</linearGradient>
<linearGradient id="paint1_linear" x1="217.122" y1="158.182" x2="227.846" y2="158.182" gradientUnits="userSpaceOnUse">
<stop offset="0.4171" stop-color="#6AB2E6"/>
<stop offset="1" stop-color="#3A9BE0"/>
</linearGradient>
<linearGradient id="paint2_linear" x1="508.377" y1="189.622" x2="471.648" y2="189.622" gradientUnits="userSpaceOnUse">
<stop stop-color="#D8E0E3"/>
<stop offset="0.672" stop-color="#EAF1F5"/>
</linearGradient>
<linearGradient id="paint3_linear" x1="493.739" y1="175.179" x2="504.462" y2="175.179" gradientUnits="userSpaceOnUse">
<stop offset="0.00415427" stop-color="#FC77A8"/>
<stop offset="0.3048" stop-color="#F773A4"/>
<stop offset="0.6421" stop-color="#EA6999"/>
<stop offset="0.9626" stop-color="#D65A88"/>
</linearGradient>
<linearGradient id="paint4_linear" x1="304.114" y1="171.827" x2="322.462" y2="171.827" gradientUnits="userSpaceOnUse">
<stop offset="0.00415427" stop-color="#FC77A8"/>
<stop offset="0.3048" stop-color="#F773A4"/>
<stop offset="0.6421" stop-color="#EA6999"/>
<stop offset="0.9626" stop-color="#D65A88"/>
</linearGradient>
<linearGradient id="paint5_linear" x1="393.824" y1="167.148" x2="412.172" y2="167.148" gradientUnits="userSpaceOnUse">
<stop stop-color="#D8E0E3"/>
<stop offset="0.672" stop-color="#EAF1F5"/>
</linearGradient>
<linearGradient id="paint6_linear" x1="695.309" y1="4.04802" x2="695.309" y2="22.2424" gradientUnits="userSpaceOnUse">
<stop stop-color="#D3DBDE"/>
<stop offset="0.00825162" stop-color="#D4DCDF"/>
<stop offset="0.1865" stop-color="#E2E9ED"/>
<stop offset="0.3384" stop-color="#E7EEF2"/>
</linearGradient>
<linearGradient id="paint7_linear" x1="635.103" y1="4.04802" x2="635.103" y2="22.2424" gradientUnits="userSpaceOnUse">
<stop stop-color="#D3DBDE"/>
<stop offset="0.00825162" stop-color="#D4DCDF"/>
<stop offset="0.1865" stop-color="#E2E9ED"/>
<stop offset="0.3384" stop-color="#E7EEF2"/>
</linearGradient>
<linearGradient id="paint8_linear" x1="527.403" y1="4.04802" x2="527.403" y2="22.2424" gradientUnits="userSpaceOnUse">
<stop stop-color="#D3DBDE"/>
<stop offset="0.00825162" stop-color="#D4DCDF"/>
<stop offset="0.1865" stop-color="#E2E9ED"/>
<stop offset="0.3384" stop-color="#E7EEF2"/>
</linearGradient>
<linearGradient id="paint9_linear" x1="379.455" y1="206.072" x2="20.7277" y2="206.072" gradientUnits="userSpaceOnUse">
<stop stop-color="#D3DBDE"/>
<stop offset="0.6807" stop-color="#E4ECEF"/>
<stop offset="0.7645" stop-color="#E7EEF2"/>
<stop offset="0.9881" stop-color="white"/>
</linearGradient>
<linearGradient id="paint10_linear" x1="670.67" y1="226.827" x2="676.625" y2="30.3073" gradientUnits="userSpaceOnUse">
<stop offset="0.4171" stop-color="#6AB2E6"/>
<stop offset="1" stop-color="#3A9BE0"/>
</linearGradient>
<linearGradient id="paint11_linear" x1="996.031" y1="206.072" x2="1902.05" y2="206.072" gradientUnits="userSpaceOnUse">
<stop stop-color="#D3DBDE"/>
<stop offset="0.4794" stop-color="#E4ECEF"/>
<stop offset="0.5383" stop-color="#E7EEF2"/>
<stop offset="1" stop-color="white"/>
</linearGradient>
<linearGradient id="paint12_linear" x1="720.372" y1="144.698" x2="672.269" y2="131.936" gradientUnits="userSpaceOnUse">
<stop offset="0.1596" stop-color="#82C5F5"/>
<stop offset="0.4589" stop-color="#60B0E9"/>
<stop offset="0.8101" stop-color="#3D9ADD"/>
<stop offset="1" stop-color="#3092D9"/>
</linearGradient>
<linearGradient id="paint13_linear" x1="495.295" y1="11.8133" x2="660.089" y2="237.418" gradientUnits="userSpaceOnUse">
<stop stop-color="#3A9BE0"/>
<stop offset="0.0757822" stop-color="#53A9E7"/>
<stop offset="0.1748" stop-color="#6DB9EF"/>
<stop offset="0.264" stop-color="#7CC2F3"/>
<stop offset="0.3341" stop-color="#82C5F5"/>
<stop offset="0.4678" stop-color="#7EC3F4"/>
<stop offset="0.5927" stop-color="#73BCF1"/>
<stop offset="0.7142" stop-color="#60B1EB"/>
<stop offset="0.8327" stop-color="#46A2E3"/>
<stop offset="0.8764" stop-color="#3A9BE0"/>
</linearGradient>
<linearGradient id="paint14_linear" x1="599.033" y1="108.571" x2="598.725" y2="129.61" gradientUnits="userSpaceOnUse">
<stop offset="0.2731" stop-color="#82C5F5"/>
<stop offset="0.5309" stop-color="#63B3EC"/>
<stop offset="0.8304" stop-color="#45A2E3"/>
<stop offset="1" stop-color="#3A9BE0"/>
</linearGradient>
<linearGradient id="paint15_linear" x1="564.649" y1="124.464" x2="602.379" y2="161.271" gradientUnits="userSpaceOnUse">
<stop offset="0.2838" stop-color="#82C5F5"/>
<stop offset="0.5204" stop-color="#6EB9EF"/>
<stop offset="1" stop-color="#3A9BE0"/>
</linearGradient>
<linearGradient id="paint16_linear" x1="836.775" y1="134.428" x2="836.775" y2="200.898" gradientUnits="userSpaceOnUse">
<stop offset="0.4268" stop-color="#FFCB7D"/>
<stop offset="1" stop-color="#F9B032"/>
</linearGradient>
<linearGradient id="paint17_linear" x1="898.386" y1="167.663" x2="878.462" y2="167.663" gradientUnits="userSpaceOnUse">
<stop offset="0.4268" stop-color="#FFC061"/>
<stop offset="1" stop-color="#F9A932"/>
</linearGradient>
<linearGradient id="paint18_linear" x1="741.033" y1="148.024" x2="741.033" y2="200.898" gradientUnits="userSpaceOnUse">
<stop offset="0.4268" stop-color="#FFCB7D"/>
<stop offset="1" stop-color="#F9B032"/>
</linearGradient>
<linearGradient id="paint19_linear" x1="793.074" y1="174.461" x2="777.043" y2="174.461" gradientUnits="userSpaceOnUse">
<stop offset="0.4268" stop-color="#FFC061"/>
<stop offset="1" stop-color="#F9A932"/>
</linearGradient>
<linearGradient id="paint20_linear" x1="1620.93" y1="134.428" x2="1620.93" y2="200.898" gradientUnits="userSpaceOnUse">
<stop offset="0.4268" stop-color="#FFCB7D"/>
<stop offset="1" stop-color="#F9B032"/>
</linearGradient>
<linearGradient id="paint21_linear" x1="1682.54" y1="167.663" x2="1662.62" y2="167.663" gradientUnits="userSpaceOnUse">
<stop offset="0.4268" stop-color="#FFC061"/>
<stop offset="1" stop-color="#F9A932"/>
</linearGradient>
<linearGradient id="paint22_linear" x1="115.843" y1="65.4181" x2="115.843" y2="3.53452" gradientUnits="userSpaceOnUse">
<stop stop-color="#D8E0E3"/>
<stop offset="0.672" stop-color="#EAF1F5"/>
</linearGradient>
<linearGradient id="paint23_linear" x1="139.345" y1="77.1159" x2="71.5937" y2="76.2556" gradientUnits="userSpaceOnUse">
<stop stop-color="#AFB5BF"/>
<stop offset="0.2015" stop-color="#C2C8D3"/>
<stop offset="0.3143" stop-color="#CED5E0"/>
<stop offset="1" stop-color="#AFB5BF"/>
</linearGradient>
<linearGradient id="paint24_linear" x1="129.556" y1="83.1901" x2="129.443" y2="122.426" gradientUnits="userSpaceOnUse">
<stop offset="0.00858799" stop-color="#AFB5BF"/>
<stop offset="0.0277617" stop-color="#B2B8C2"/>
<stop offset="0.1749" stop-color="#C2C8D3"/>
<stop offset="0.3358" stop-color="#CBD2DD"/>
<stop offset="0.5345" stop-color="#CED5E0"/>
<stop offset="0.7638" stop-color="#CCD3DE"/>
<stop offset="0.8728" stop-color="#C5CCD6"/>
<stop offset="0.9562" stop-color="#B9BFC9"/>
<stop offset="1" stop-color="#AFB5BF"/>
</linearGradient>
<linearGradient id="paint25_linear" x1="100.973" y1="83.1932" x2="101.087" y2="122.429" gradientUnits="userSpaceOnUse">
<stop offset="0.00858799" stop-color="#AFB5BF"/>
<stop offset="0.0277617" stop-color="#B2B8C2"/>
<stop offset="0.1749" stop-color="#C2C8D3"/>
<stop offset="0.3358" stop-color="#CBD2DD"/>
<stop offset="0.5345" stop-color="#CED5E0"/>
<stop offset="0.7638" stop-color="#CCD3DE"/>
<stop offset="0.8728" stop-color="#C5CCD6"/>
<stop offset="0.9562" stop-color="#B9BFC9"/>
<stop offset="1" stop-color="#AFB5BF"/>
</linearGradient>
<linearGradient id="paint26_linear" x1="107.591" y1="110.168" x2="125.366" y2="110.168" gradientUnits="userSpaceOnUse">
<stop offset="0.00415427" stop-color="#FC77A8"/>
<stop offset="0.3048" stop-color="#F773A4"/>
<stop offset="0.6421" stop-color="#EA6999"/>
<stop offset="0.9626" stop-color="#D65A88"/>
</linearGradient>
<linearGradient id="paint27_linear" x1="124.183" y1="128.046" x2="113.125" y2="128.046" gradientUnits="userSpaceOnUse">
<stop stop-color="#D8E0E3"/>
<stop offset="0.672" stop-color="#EAF1F5"/>
</linearGradient>
<linearGradient id="paint28_linear" x1="1248.76" y1="148.024" x2="1248.76" y2="200.898" gradientUnits="userSpaceOnUse">
<stop offset="0.4268" stop-color="#FFCB7D"/>
<stop offset="1" stop-color="#F9B032"/>
</linearGradient>
<linearGradient id="paint29_linear" x1="1300.8" y1="174.461" x2="1284.77" y2="174.461" gradientUnits="userSpaceOnUse">
<stop offset="0.4268" stop-color="#FFC061"/>
<stop offset="1" stop-color="#F9A932"/>
</linearGradient>
<linearGradient id="paint30_linear" x1="1009.43" y1="168.119" x2="1009.43" y2="200.898" gradientUnits="userSpaceOnUse">
<stop offset="0.4268" stop-color="#FFCB7D"/>
<stop offset="1" stop-color="#F9B032"/>
</linearGradient>
<linearGradient id="paint31_linear" x1="1041.69" y1="184.508" x2="1031.75" y2="184.508" gradientUnits="userSpaceOnUse">
<stop offset="0.4268" stop-color="#FFC061"/>
<stop offset="1" stop-color="#F9A932"/>
</linearGradient>
<linearGradient id="paint32_linear" x1="1481.89" y1="168.119" x2="1481.89" y2="200.898" gradientUnits="userSpaceOnUse">
<stop offset="0.4268" stop-color="#FFCB7D"/>
<stop offset="1" stop-color="#F9B032"/>
</linearGradient>
<linearGradient id="paint33_linear" x1="1514.15" y1="184.508" x2="1504.22" y2="184.508" gradientUnits="userSpaceOnUse">
<stop offset="0.4268" stop-color="#FFC061"/>
<stop offset="1" stop-color="#F9A932"/>
</linearGradient>
<linearGradient id="paint34_linear" x1="1138.77" y1="138.087" x2="1138.77" y2="200.898" gradientUnits="userSpaceOnUse">
<stop offset="0.4268" stop-color="#FFCB7D"/>
<stop offset="1" stop-color="#F9B032"/>
</linearGradient>
<linearGradient id="paint35_linear" x1="1171.03" y1="169.493" x2="1161.09" y2="169.493" gradientUnits="userSpaceOnUse">
<stop offset="0.4268" stop-color="#FFC061"/>
<stop offset="1" stop-color="#F9A932"/>
</linearGradient>
<clipPath id="clip0">
<rect width="1916.4" height="336.3" fill="white"/>
</clipPath>
</defs>
</svg>
