<svg width="1920" height="614" viewBox="0 0 1920 614" fill="none" xmlns="http://www.w3.org/2000/svg">
<path d="M1131.4 600.2C1138.2 595.1 1144 594.4 1148.4 597.5C1152.8 600.6 1156.8 600 1161 598.1C1165.2 596.2 1170.8 598.6 1176.4 603.9C1182 609.2 1189.4 612.7 1190.1 612.7H1118.4C1118.3 612.7 1124.6 605.3 1131.4 600.2Z" fill="url(#paint0_linear)"/>
<path d="M1095.7 612.7V562.9C1095.7 561.4 1094.5 560.2 1093 560.2H1016.7C1015.2 560.2 1014 561.4 1014 562.9V612.7H1095.7Z" fill="url(#paint1_linear)"/>
<path d="M985.1 586.4V582.3C985.1 581.4 985.8 580.7 986.7 580.7H1024.9C1025.8 580.7 1026.5 581.4 1026.5 582.3V612.7H939.4V587.8C939.4 587 940 586.4 940.8 586.4H985.1Z" fill="url(#paint2_linear)"/>
<path d="M878.4 612.7H902.2V586.2H878.4V612.7Z" fill="url(#paint3_linear)"/>
<path d="M878.4 612.7H863.2V586.2H878.4V612.7Z" fill="url(#paint4_linear)"/>
<path d="M900.8 612.7H924.6V547.4H900.8V612.7Z" fill="url(#paint5_linear)"/>
<path d="M900.8 612.7H885.7V547.4H900.8V612.7Z" fill="url(#paint6_linear)"/>
<path d="M1093 560.1C1094.5 560.1 1095.7 561.3 1095.7 562.8V612.6H1043.2V563.8C1043.2 561.7 1044.9 560.1 1046.9 560.1H1093Z" fill="url(#paint7_linear)"/>
<path d="M985.1 612.7H939.4V587.8C939.4 587 940 586.4 940.8 586.4H985V612.7H985.1Z" fill="url(#paint8_linear)"/>
<path d="M259.4 600.7C265.9 595.8 271.4 595.1 275.6 598.1C279.8 601.1 283.6 600.5 287.6 598.7C291.6 596.9 296.9 599.1 302.3 604.3C307.6 609.4 314.8 612.7 315.4 612.7H246.9C246.9 612.7 252.9 605.6 259.4 600.7Z" fill="url(#paint9_linear)"/>
<path d="M225.3 612.7V565.1C225.3 563.7 224.1 562.5 222.7 562.5H149.8C148.4 562.5 147.2 563.7 147.2 565.1V612.7H225.3Z" fill="url(#paint10_linear)"/>
<path d="M119.6 587.6V583.6C119.6 582.7 120.3 582 121.2 582H157.7C158.6 582 159.3 582.7 159.3 583.6V612.7H76V589C76 588.2 76.6 587.6 77.4 587.6H119.6Z" fill="url(#paint11_linear)"/>
<path d="M17.7 612.7H40.4V587.4H17.7V612.7Z" fill="url(#paint12_linear)"/>
<path d="M17.7 612.7H3.19995V587.4H17.7V612.7Z" fill="url(#paint13_linear)"/>
<path d="M39.0999 612.7H61.7999V550.3H39.0999V612.7Z" fill="url(#paint14_linear)"/>
<path d="M39.0999 612.7H24.5999V550.3H39.0999V612.7Z" fill="url(#paint15_linear)"/>
<path d="M222.7 562.5C224.1 562.5 225.3 563.7 225.3 565.1V612.7H175.1V566C175.1 564 176.7 562.4 178.7 562.4H222.7V562.5Z" fill="url(#paint16_linear)"/>
<path d="M119.6 612.7H76V589C76 588.2 76.6 587.6 77.4 587.6H119.7V612.7H119.6Z" fill="url(#paint17_linear)"/>
<path d="M1495.3 566.2H1427.5V611.8H1495.3V566.2Z" fill="url(#paint18_linear)"/>
<path d="M1536 566.2H1495.3V611.5H1536V566.2Z" fill="url(#paint19_linear)"/>
<path d="M1359.7 538.9V611.6H1427.5V538.9H1406.9V517.9H1392.4V538.9H1359.7Z" fill="url(#paint20_linear)"/>
<path d="M1409.4 507.5H1404.3V518H1409.4V507.5Z" fill="url(#paint21_linear)"/>
<path d="M1441.2 538.9H1427.5V611.7H1441.2V538.9Z" fill="url(#paint22_linear)"/>
<path d="M1409.4 517.9H1406.9V538.9H1413.4V507.5H1409.4V517.9Z" fill="url(#paint23_linear)"/>
<path d="M1317.2 587.2H1280.5V611.8H1317.2V587.2Z" fill="url(#paint24_linear)"/>
<path d="M1339.1 587.2H1317.1V611.7H1339.1V587.2Z" fill="url(#paint25_linear)"/>
<path d="M1926 497H1884V614H1926V497Z" fill="url(#paint26_linear)"/>
<path d="M1689.5 455.1H1623.2V571.8H1689.5V455.1Z" fill="url(#paint27_linear)"/>
<path d="M1637 487.3V471H1623.2V487.4L1637 487.3Z" fill="#AFB5BF"/>
<path d="M1689.9 457.3V487.4" stroke="#6D737D" stroke-width="0.7" stroke-miterlimit="10" stroke-linecap="round" stroke-linejoin="round"/>
<path d="M1623.2 457.3H1786.9V448.2H1585.6C1582.7 448.2 1580.3 450.6 1580.3 453.5V612.3H1786.9V487.3H1623.2V457.3ZM1784.3 504.7V535.9H1645.8L1641.3 529.4L1635.7 521.4L1624.1 504.7H1784.3Z" fill="url(#paint28_linear)"/>
<path d="M1902 612.3H1833.5V420H1894.3C1898.6 420 1902.1 423.5 1902.1 427.8V612.3H1902Z" fill="#E7EEF2"/>
<path d="M1833.4 420V612.3H1784.3V428.3C1784.3 423.7 1788 420 1792.6 420H1833.4Z" fill="url(#paint29_linear)"/>
<path d="M1878.4 384.2C1857.2 370 1829.6 370 1808.4 384.2C1805 386.5 1802.9 390.3 1802.9 394.4V420H1883.8V394.5C1883.9 390.4 1881.8 386.5 1878.4 384.2Z" fill="url(#paint30_linear)"/>
<path d="M1849.9 410.9H1836.4V399C1836.4 395.3 1839.4 392.3 1843.1 392.3C1846.8 392.3 1849.8 395.3 1849.8 399V410.9H1849.9Z" fill="white"/>
<path d="M1662.2 471.6H1646.4V487.4H1662.2V471.6Z" fill="url(#paint31_linear)"/>
<path d="M1696.5 471.6H1680.7V487.4H1696.5V471.6Z" fill="url(#paint32_linear)"/>
<path d="M1730.9 471.6H1715.1V487.4H1730.9V471.6Z" fill="url(#paint33_linear)"/>
<path d="M1765.2 471.6H1749.4V487.4H1765.2V471.6Z" fill="url(#paint34_linear)"/>
<path d="M1623.8 471H1637V487.4" stroke="#6D737D" stroke-width="0.7" stroke-miterlimit="10" stroke-linecap="round" stroke-linejoin="round"/>
<path d="M1623.2 487.4V457.3H1703.7" stroke="#6D737D" stroke-width="0.7" stroke-miterlimit="10" stroke-linecap="round" stroke-linejoin="round"/>
<path d="M1662.7 535.9L1650.4 518.2H1633.8L1646.1 535.9H1662.7Z" fill="#AFB5BF"/>
<path d="M1662.7 535.9L1650.4 518.2H1633.8" stroke="#6D737D" stroke-width="0.7" stroke-miterlimit="10" stroke-linecap="round" stroke-linejoin="round"/>
<path d="M1645.8 535.9L1624.1 504.7H1719.9" stroke="#6D737D" stroke-width="0.7" stroke-miterlimit="10" stroke-linecap="round" stroke-linejoin="round"/>
<path d="M1671.4 520.1H1655.6V535.9H1671.4V520.1Z" fill="url(#paint35_linear)"/>
<path d="M1705.8 520.1H1690V535.9H1705.8V520.1Z" fill="url(#paint36_linear)"/>
<path d="M1740.1 520.1H1724.3V535.9H1740.1V520.1Z" fill="url(#paint37_linear)"/>
<path d="M1774.5 520.1H1758.7V535.9H1774.5V520.1Z" fill="url(#paint38_linear)"/>
<path d="M1608.1 563.7H1572.8V612.3H1608.1V563.7Z" fill="url(#paint39_linear)"/>
<path d="M1572.7 563.7H1500.7V612.3H1572.7V563.7Z" fill="url(#paint40_linear)"/>
<path d="M1736.8 552H1693V612.3H1736.8V552Z" fill="url(#paint41_linear)"/>
<path d="M1693 552H1603.6V612.3H1693V552Z" fill="url(#paint42_linear)"/>
<path d="M1603.6 552H1693" stroke="#6D737D" stroke-width="0.7" stroke-miterlimit="10" stroke-linecap="round" stroke-linejoin="round"/>
<path d="M1693 552H1736.7V566.8" stroke="#6D737D" stroke-width="0.7" stroke-miterlimit="10" stroke-linecap="round" stroke-linejoin="round"/>
<path d="M1614.5 557.6V612.3" stroke="#6D737D" stroke-width="0.7" stroke-miterlimit="10" stroke-linecap="round" stroke-linejoin="round"/>
<path d="M1624.1 557.6V612.3" stroke="#6D737D" stroke-width="0.7" stroke-miterlimit="10" stroke-linecap="round" stroke-linejoin="round"/>
<path d="M1633.7 557.6V612.3" stroke="#6D737D" stroke-width="0.7" stroke-miterlimit="10" stroke-linecap="round" stroke-linejoin="round"/>
<path d="M1643.3 557.6V612.3" stroke="#6D737D" stroke-width="0.7" stroke-miterlimit="10" stroke-linecap="round" stroke-linejoin="round"/>
<path d="M1653 557.6V612.3" stroke="#6D737D" stroke-width="0.7" stroke-miterlimit="10" stroke-linecap="round" stroke-linejoin="round"/>
<path d="M1672.2 557.6V612.3" stroke="#6D737D" stroke-width="0.7" stroke-miterlimit="10" stroke-linecap="round" stroke-linejoin="round"/>
<path d="M1662.6 557.6V612.3" stroke="#6D737D" stroke-width="0.7" stroke-miterlimit="10" stroke-linecap="round" stroke-linejoin="round"/>
<path d="M1681.8 557.6V612.3" stroke="#6D737D" stroke-width="0.7" stroke-miterlimit="10" stroke-linecap="round" stroke-linejoin="round"/>
<path d="M311 247H411C411 247 403.5 243.308 398.885 239.811C392.731 235.148 389.654 231.068 382.923 232.234C374.269 233.788 370.038 241.365 365.231 240.977C360.423 240.394 356.192 232.622 349.462 230.679C342.731 228.736 338.692 231.068 332.731 236.314C323.885 243.891 311 247 311 247Z" fill="url(#paint43_linear)"/>
<path d="M76 131H262C262 131 242.573 127.924 228.532 118.313C218.145 111.009 212.951 102.359 207.181 95.8231C200.834 88.5186 189.677 87.7497 182.945 95.4386C176.213 103.128 168.904 110.24 162.172 109.279C155.632 108.51 152.747 104.858 146.399 97.1686C138.513 87.7497 125.818 87.5575 118.124 97.7453C110.43 107.933 101.197 116.583 93.8883 121.965C86.7714 127.732 76 131 76 131Z" fill="url(#paint44_linear)"/>
<path d="M69.6001 342.3H114.6C114.6 342.3 110.8 337.8 105.6 335C100.4 332.2 96.6001 334 92.1001 337.1C87.6001 340.2 85.5001 339.1 81.4001 338C75.3001 336.3 69.6001 342.3 69.6001 342.3Z" fill="url(#paint45_linear)"/>
<path d="M1002 465.8H1062.8C1062.8 465.8 1056.8 462 1053.4 459C1050 456 1045.2 453.2 1039.7 454.9C1034 456.6 1030.1 462.2 1025.9 462.4C1021.7 462.6 1020.4 459.7 1016.4 459C1012.4 458.4 1009.6 461.1 1007.3 463.4C1005 465.7 1002 465.8 1002 465.8Z" fill="url(#paint46_linear)"/>
<path d="M1509.1 347.1C1509.1 347.1 1541.4 347.1 1545.6 347.1C1549.8 347.1 1547.7 339 1541.4 339C1535.1 339 1532.2 340.7 1529.3 342.1C1526.4 343.6 1524.1 342.5 1519.5 343C1514.9 343.5 1509.1 347.1 1509.1 347.1Z" fill="url(#paint47_linear)"/>
<path d="M545 399.1C545 399.1 577.3 399.1 581.5 399.1C585.7 399.1 583.6 391 577.3 391C571 391 568.1 392.7 565.2 394.1C562.3 395.6 560 394.5 555.4 395C550.8 395.5 545 399.1 545 399.1Z" fill="url(#paint48_linear)"/>
<path d="M1188 17C1188 17 1255.63 17 1264.42 17C1273.22 17 1268.82 0 1255.63 0C1242.44 0 1236.37 3.56791 1230.3 6.50618C1224.22 9.65433 1219.41 7.34567 1209.78 8.39506C1200.14 9.44444 1188 17 1188 17Z" fill="url(#paint49_linear)"/>
<path d="M1578.4 146H1712.9C1712.9 146 1701.8 141.9 1695 135.8C1688.1 129.7 1682.3 121.7 1674.1 123.1C1665.9 124.5 1658.9 134 1655.1 134.5C1651.2 135 1648.8 129.5 1645.7 128.1C1642.7 126.7 1637.7 128.1 1633.6 132.2C1629.5 136.3 1626.2 139.6 1622.6 136.9C1619 134.2 1616.3 129.7 1608 131.9C1599.7 134.1 1598 137.3 1593.7 139.9C1586.8 144.1 1578.4 146 1578.4 146Z" fill="url(#paint50_linear)"/>
<path d="M1762.4 252.2H1827.4C1827.4 252.2 1821.7 250 1816.6 244.3C1811.5 238.6 1807 237.3 1802.6 241.1C1799.7 243.7 1795.2 247.2 1792 244.2C1788.8 241.2 1785.2 237.9 1781 239.2C1776.2 240.8 1774.3 245.2 1770.2 248.7C1766.2 252.2 1762.4 252.2 1762.4 252.2Z" fill="url(#paint51_linear)"/>
<path d="M634 612.1H539V534.9C539 522.7 548.9 512.9 561 512.9H634V612.1Z" stroke="#6D737D" stroke-width="0.7" stroke-miterlimit="10" stroke-linecap="round" stroke-linejoin="round"/>
<path d="M1012.9 528.9H1007.5V612.1H852V504.3H988.2C1001.8 504.3 1012.9 515.3 1012.9 528.9Z" fill="white" stroke="#6D737D" stroke-width="0.7" stroke-miterlimit="10" stroke-linecap="round" stroke-linejoin="round"/>
<path d="M959.2 528.8H1009.6" stroke="#6D737D" stroke-width="0.7" stroke-miterlimit="10" stroke-linecap="round" stroke-linejoin="round"/>
<path d="M937 528.8H954.5" stroke="#6D737D" stroke-width="0.7" stroke-miterlimit="10" stroke-linecap="round" stroke-linejoin="round"/>
<path d="M685.2 472.8H651.2V479.2H685.2V472.8Z" stroke="#6D737D" stroke-width="0.7" stroke-miterlimit="10" stroke-linecap="round" stroke-linejoin="round"/>
<path d="M690.7 472.8H645.8C645.8 469.3 648.7 466.4 652.2 466.4H684.4C687.8 466.4 690.7 469.2 690.7 472.8Z" stroke="#6D737D" stroke-width="0.7" stroke-miterlimit="10" stroke-linecap="round" stroke-linejoin="round"/>
<path d="M915.4 504.3H894.7V500.4C894.7 499 895.8 497.9 897.2 497.9H913C914.4 497.9 915.5 499 915.5 500.4V504.3H915.4Z" stroke="#6D737D" stroke-width="0.7" stroke-miterlimit="10" stroke-linecap="round" stroke-linejoin="round"/>
<path d="M828.7 477.2H753.8H710.9H636C614.8 477.2 597.5 494.4 597.5 515.7V612.1H710.9H753.8H867.2V515.7C867.1 494.5 849.9 477.2 828.7 477.2Z" fill="white"/>
<path d="M753.7 523.2H620.8V541.9H753.7V523.2Z" fill="#F3FDFF"/>
<path d="M867.1 612.1V515.7C867.1 494.5 849.9 477.3 828.7 477.3H635.9C614.7 477.3 597.5 494.5 597.5 515.7V612.1" stroke="#6D737D" stroke-width="0.7" stroke-miterlimit="10" stroke-linecap="round" stroke-linejoin="round"/>
<path d="M620.8 612.1V523.2H843.1V612.1" stroke="#6D737D" stroke-width="0.7" stroke-miterlimit="10" stroke-linecap="round" stroke-linejoin="round"/>
<path d="M620.8 527.9H843.1" stroke="#6D737D" stroke-width="0.7" stroke-miterlimit="10" stroke-linecap="round" stroke-linejoin="round"/>
<path d="M620.8 532.6H843.1" stroke="#6D737D" stroke-width="0.7" stroke-miterlimit="10" stroke-linecap="round" stroke-linejoin="round"/>
<path d="M620.8 537.3H843.1" stroke="#6D737D" stroke-width="0.7" stroke-miterlimit="10" stroke-linecap="round" stroke-linejoin="round"/>
<path d="M620.8 541.9H843.1" stroke="#6D737D" stroke-width="0.7" stroke-miterlimit="10" stroke-linecap="round" stroke-linejoin="round"/>
<path d="M620.8 514H843.1" stroke="#6D737D" stroke-width="0.7" stroke-miterlimit="10" stroke-linecap="round" stroke-linejoin="round"/>
<path d="M198.9 469.6H191V457.6H196.7C197.9 457.6 198.8 458.6 198.8 459.7V469.6H198.9Z" fill="url(#paint52_linear)"/>
<path d="M207.3 480.6H199.5V469.6H205.2C206.4 469.6 207.4 470.6 207.4 471.7V480.6H207.3Z" fill="url(#paint53_linear)"/>
<path d="M200.5 480.6V470.3C200.5 469.9 200.2 469.6 199.8 469.6H192V458.3C192 457.9 191.7 457.6 191.3 457.6H186C185.6 457.6 185.3 457.9 185.3 458.3V480.6H200.5Z" fill="url(#paint54_linear)"/>
<path d="M200.5 480.6V470.3C200.5 469.9 200.2 469.6 199.8 469.6H192V467.4" stroke="#6D737D" stroke-width="0.7" stroke-miterlimit="10" stroke-linecap="round" stroke-linejoin="round"/>
<path d="M212.3 485.3L207.8 480.8C207.7 480.7 207.5 480.6 207.3 480.6H200.5L205.3 485.4H212.3V485.3Z" fill="url(#paint55_linear)"/>
<path d="M309.4 480.7L306.6 483.5C305.4 484.7 303.8 485.4 302.1 485.4H206.2C206 485.4 205.8 485.3 205.7 485.2L201.4 480.9C201.3 480.8 201.1 480.7 200.9 480.7H172.7C172.3 480.7 172 481 172 481.4V484.6C172 484.9 172.1 485.1 172.4 485.2L191.2 496.2H205.2C205.5 496.2 205.8 496.3 206 496.5L208.7 498.8C208.9 499 209.2 499.1 209.5 499.1H302.6C308.8 499.1 313 497.2 319.8 491.2C324.7 486.9 326.7 483.3 327.5 481.6C327.7 481.1 327.4 480.6 326.8 480.6H310C309.7 480.5 309.6 480.6 309.4 480.7Z" fill="url(#paint56_linear)"/>
<path d="M174.8 496.1C176.3 496.1 176.5 494.9 177.7 494.9C178.9 494.9 179 496.1 180.6 496.1C182.1 496.1 182.3 494.9 183.5 494.9C184.7 494.9 184.8 496.1 186.4 496.1C187.9 496.1 188.1 494.9 189.3 494.9C190.5 494.9 190.6 496.1 192.2 496.1C193.7 496.1 193.9 494.9 195.1 494.9C196.3 494.9 196.4 496.1 198 496.1C199.6 496.1 199.7 494.9 200.9 494.9C202.1 494.9 202.2 496.1 203.8 496.1C205.4 496.1 205.5 494.9 206.7 494.9C207.9 494.9 208 496.1 209.6 496.1C211.2 496.1 211.3 494.9 212.5 494.9C213.7 494.9 213.8 496.1 215.4 496.1C217 496.1 217.1 494.9 218.3 494.9C219.5 494.9 219.6 496.1 221.2 496.1C222.8 496.1 222.9 494.9 224.1 494.9C225.3 494.9 225.4 496.1 227 496.1C228.6 496.1 228.7 494.9 229.9 494.9C231.1 494.9 231.2 496.1 232.8 496.1C234.3 496.1 234.5 494.9 235.7 494.9C236.9 494.9 237 496.1 238.6 496.1C240.1 496.1 240.3 494.9 241.5 494.9C242.7 494.9 242.8 496.1 244.4 496.1C245.9 496.1 246.1 494.9 247.3 494.9C248.5 494.9 248.6 496.1 250.2 496.1C251.7 496.1 251.9 494.9 253.1 494.9C254.3 494.9 254.4 496.1 256 496.1C257.5 496.1 257.7 494.9 258.9 494.9C260.1 494.9 260.2 496.1 261.8 496.1C263.4 496.1 263.5 494.9 264.7 494.9C265.9 494.9 266 496.1 267.6 496.1C269.2 496.1 269.3 494.9 270.5 494.9C271.7 494.9 271.8 496.1 273.4 496.1C275 496.1 275.1 494.9 276.3 494.9C277.5 494.9 277.6 496.1 279.2 496.1C280.8 496.1 280.9 494.9 282.1 494.9C283.3 494.9 283.4 496.1 285 496.1C286.6 496.1 286.7 494.9 287.9 494.9C289.1 494.9 289.2 496.1 290.8 496.1C292.3 496.1 292.5 494.9 293.7 494.9C294.9 494.9 295 496.1 296.6 496.1C298.1 496.1 298.3 494.9 299.5 494.9C300.7 494.9 300.8 496.1 302.4 496.1C303.9 496.1 304.1 494.9 305.3 494.9C306.5 494.9 306.6 496.1 308.2 496.1C309.7 496.1 309.9 494.9 311.1 494.9C312.3 494.9 312.4 496.1 314 496.1C315.5 496.1 315.7 494.9 316.9 494.9C318.1 494.9 318.2 496.1 319.8 496.1C321.3 496.1 321.5 494.9 322.7 494.9C323.9 494.9 324 496.1 325.6 496.1C327.1 496.1 327.3 494.9 328.5 494.9C329.7 494.9 329.8 496.1 331.4 496.1V508H174.8V496.1Z" fill="white"/>
<path d="M178.1 484.9H197.3" stroke="#6D737D" stroke-width="0.7" stroke-miterlimit="10" stroke-linecap="round" stroke-linejoin="round"/>
<path d="M291 470.5H215.7V485.3H291V470.5Z" fill="url(#paint57_linear)"/>
<path d="M299.5 470.5H291.1V485.3H299.5V470.5Z" fill="url(#paint58_linear)"/>
<path d="M216.7 477.9H298.6" stroke="#6D737D" stroke-width="0.7" stroke-miterlimit="10" stroke-linecap="round" stroke-linejoin="round"/>
<path d="M229.7 471.3V484.6" stroke="#6D737D" stroke-width="0.7" stroke-miterlimit="10" stroke-linecap="round" stroke-linejoin="round"/>
<path d="M245 471.3V484.6" stroke="#6D737D" stroke-width="0.7" stroke-miterlimit="10" stroke-linecap="round" stroke-linejoin="round"/>
<path d="M260.4 471.3V484.6" stroke="#6D737D" stroke-width="0.7" stroke-miterlimit="10" stroke-linecap="round" stroke-linejoin="round"/>
<path d="M275.7 471.3V484.6" stroke="#6D737D" stroke-width="0.7" stroke-miterlimit="10" stroke-linecap="round" stroke-linejoin="round"/>
<path d="M291.1 471.3V484.6" stroke="#6D737D" stroke-width="0.7" stroke-miterlimit="10" stroke-linecap="round" stroke-linejoin="round"/>
<path d="M302.2 485.3H206.3C206.1 485.3 205.9 485.2 205.8 485.1L201.5 480.8C201.4 480.7 201.2 480.6 201 480.6H172.8" stroke="#6D737D" stroke-width="0.7" stroke-miterlimit="10" stroke-linecap="round" stroke-linejoin="round"/>
<path d="M199.4 480.6H207.3" stroke="#6D737D" stroke-width="0.7" stroke-miterlimit="10" stroke-linecap="round" stroke-linejoin="round"/>
<path d="M215.7 485.3V470.5H222.7" stroke="#6D737D" stroke-width="0.7" stroke-miterlimit="10" stroke-linecap="round" stroke-linejoin="round"/>
<path d="M329 496.1C327.5 496.1 327.3 494.9 326.1 494.9C324.9 494.9 324.8 496.1 323.2 496.1C321.7 496.1 321.5 494.9 320.3 494.9C319.1 494.9 319 496.1 317.4 496.1C315.9 496.1 315.7 494.9 314.5 494.9C313.3 494.9 313.2 496.1 311.6 496.1C310.1 496.1 309.9 494.9 308.7 494.9C307.5 494.9 307.4 496.1 305.8 496.1C304.3 496.1 304.1 494.9 302.9 494.9C301.7 494.9 301.6 496.1 300 496.1C298.5 496.1 298.3 494.9 297.1 494.9C295.9 494.9 295.8 496.1 294.2 496.1C292.7 496.1 292.5 494.9 291.3 494.9C290.1 494.9 290 496.1 288.4 496.1C286.9 496.1 286.7 494.9 285.5 494.9C284.3 494.9 284.2 496.1 282.6 496.1C281 496.1 280.9 494.9 279.7 494.9C278.5 494.9 278.4 496.1 276.8 496.1C275.2 496.1 275.1 494.9 273.9 494.9C272.7 494.9 272.6 496.1 271 496.1C269.4 496.1 269.3 494.9 268.1 494.9C266.9 494.9 266.8 496.1 265.2 496.1C263.6 496.1 263.5 494.9 262.3 494.9C261.1 494.9 261 496.1 259.4 496.1C257.8 496.1 257.7 494.9 256.5 494.9C255.3 494.9 255.2 496.1 253.6 496.1C252.1 496.1 251.9 494.9 250.7 494.9C249.5 494.9 249.4 496.1 247.8 496.1C246.3 496.1 246.1 494.9 244.9 494.9C243.7 494.9 243.6 496.1 242 496.1C240.5 496.1 240.3 494.9 239.1 494.9C237.9 494.9 237.8 496.1 236.2 496.1C234.7 496.1 234.5 494.9 233.3 494.9C232.1 494.9 232 496.1 230.4 496.1C228.9 496.1 228.7 494.9 227.5 494.9C226.3 494.9 226.2 496.1 224.6 496.1C223 496.1 222.9 494.9 221.7 494.9C220.5 494.9 220.4 496.1 218.8 496.1C217.2 496.1 217.1 494.9 215.9 494.9C214.7 494.9 214.6 496.1 213 496.1C211.4 496.1 211.3 494.9 210.1 494.9C208.9 494.9 208.8 496.1 207.2 496.1C205.6 496.1 205.5 494.9 204.3 494.9C203.1 494.9 203 496.1 201.4 496.1C199.8 496.1 199.7 494.9 198.5 494.9C197.3 494.9 197.2 496.1 195.6 496.1C194 496.1 193.9 494.9 192.7 494.9C191.5 494.9 191.4 496.1 189.8 496.1C188.3 496.1 188.1 494.9 186.9 494.9C185.7 494.9 185.6 496.1 184 496.1C182.5 496.1 182.3 494.9 181.1 494.9C179.9 494.9 179.8 496.1 178.2 496.1C176.7 496.1 176.5 494.9 175.3 494.9C174.1 494.9 174 496.1 172.4 496.1" stroke="#6D737D" stroke-width="0.7" stroke-miterlimit="10" stroke-linecap="round" stroke-linejoin="round"/>
<path d="M311.8 500.5C310.3 500.5 310.1 499.3 308.9 499.3C307.7 499.3 307.6 500.5 306 500.5C304.5 500.5 304.3 499.3 303.1 499.3C301.9 499.3 301.8 500.5 300.2 500.5" stroke="#6D737D" stroke-width="0.7" stroke-miterlimit="10" stroke-linecap="round" stroke-linejoin="round"/>
<path d="M279 501.1C277.5 501.1 277.3 499.9 276.1 499.9C274.9 499.9 274.8 501.1 273.2 501.1C271.7 501.1 271.5 499.9 270.3 499.9C269.1 499.9 269 501.1 267.4 501.1" stroke="#6D737D" stroke-width="0.7" stroke-miterlimit="10" stroke-linecap="round" stroke-linejoin="round"/>
<path d="M258.2 501.1C256.7 501.1 256.5 499.9 255.3 499.9C254.1 499.9 254 501.1 252.4 501.1C250.9 501.1 250.7 499.9 249.5 499.9C248.3 499.9 248.2 501.1 246.6 501.1" stroke="#6D737D" stroke-width="0.7" stroke-miterlimit="10" stroke-linecap="round" stroke-linejoin="round"/>
<path d="M225 501.1C223.5 501.1 223.3 499.9 222.1 499.9C220.9 499.9 220.8 501.1 219.2 501.1C217.7 501.1 217.5 499.9 216.3 499.9C215.1 499.9 215 501.1 213.4 501.1" stroke="#6D737D" stroke-width="0.7" stroke-miterlimit="10" stroke-linecap="round" stroke-linejoin="round"/>
<path d="M872.3 611.9C877.878 611.9 882.4 607.378 882.4 601.8C882.4 596.222 877.878 591.7 872.3 591.7C866.722 591.7 862.2 596.222 862.2 601.8C862.2 607.378 866.722 611.9 872.3 611.9Z" fill="#AFB5BF"/>
<path d="M970.2 611.9C975.778 611.9 980.3 607.378 980.3 601.8C980.3 596.222 975.778 591.7 970.2 591.7C964.622 591.7 960.1 596.222 960.1 601.8C960.1 607.378 964.622 611.9 970.2 611.9Z" fill="#AFB5BF"/>
<path d="M1008.4 598.6H827.7V553.8C827.7 552.9 827 552.2 826.1 552.2C825.2 552.2 824.5 552.9 824.5 553.8V598.6V601.8V602.1H1008.6C1009.6 602.1 1010.4 601.3 1010.3 600.3C1010.2 599.3 1009.4 598.6 1008.4 598.6Z" fill="white"/>
<path d="M870.3 569.3H836.7V598.7H870.3V569.3Z" fill="url(#paint59_linear)"/>
<path d="M888.3 569.3H870.4V598.7H888.3V569.3Z" fill="#F9A932"/>
<path d="M944 557.6H919.7V598.9H944V557.6Z" fill="#F9A932"/>
<path d="M967 566.8H930.5V598.9H967V566.8Z" fill="#FFCF7D"/>
<path d="M919.7 557.6H867.2V598.9H919.7V557.6Z" fill="#FFCF7D"/>
<path d="M987 566.8H967V598.9H987V566.8Z" fill="url(#paint60_linear)"/>
<path d="M968.5 597.2L986.1 568.3" stroke="#6D737D" stroke-width="0.7" stroke-miterlimit="10" stroke-linecap="round" stroke-linejoin="round"/>
<path d="M952.3 583.5C952 583.2 951.6 583.2 951.3 583.5L948.7 586.1C948.4 586.4 948.4 586.8 948.7 587.1L951.3 589.7C951.6 590 952 590 952.3 589.7L954.9 587.1C955.2 586.8 955.2 586.4 954.9 586.1L952.3 583.5Z" fill="#6D737D"/>
<path d="M951.3 581.8C951.6 582.1 952 582.1 952.3 581.8L954.9 579.2C955.2 578.9 955.2 578.5 954.9 578.2L952.3 575.6C952 575.3 951.6 575.3 951.3 575.6L949.3 577.6C949.2 577.7 948.6 578.2 947.9 578.2C947 578.2 946.5 577.6 946.5 577.6L944.5 575.6C944.2 575.3 943.8 575.3 943.5 575.6L940.9 578.2C940.6 578.5 940.6 578.9 940.9 579.2L942.9 581.2C943 581.3 943.5 581.9 943.5 582.6C943.5 583.3 943.1 583.8 942.9 584L940.9 586C940.6 586.3 940.6 586.7 940.9 587L943.5 589.6C943.8 589.9 944.2 589.9 944.5 589.6L947.1 587C947.4 586.7 947.4 586.3 947.1 586L945.1 584C945 583.9 944.5 583.3 944.5 582.6C944.5 581.9 944.9 581.3 945.1 581.2L946.5 579.8C946.5 579.8 947.1 579.2 947.9 579.2C948.6 579.2 949.1 579.6 949.3 579.8L951.3 581.8Z" fill="#6D737D"/>
<path d="M824.5 598.9V553.9C824.5 553 825.2 552.3 826.1 552.3C827 552.3 827.7 553 827.7 553.9V596.2" stroke="#6D737D" stroke-width="1.2" stroke-miterlimit="10" stroke-linecap="round" stroke-linejoin="round"/>
<path d="M824.5 598.9H992.2" stroke="#6D737D" stroke-width="1.2" stroke-miterlimit="10" stroke-linecap="round" stroke-linejoin="round"/>
<path d="M1000.6 598.9H1008.7C1009.6 598.9 1010.3 599.6 1010.3 600.5C1010.3 601.4 1009.6 602.1 1008.7 602.1H824.5" stroke="#6D737D" stroke-width="1.2" stroke-miterlimit="10" stroke-linecap="round" stroke-linejoin="round"/>
<path d="M845.9 611.9C851.478 611.9 856 607.378 856 601.8C856 596.222 851.478 591.7 845.9 591.7C840.322 591.7 835.8 596.222 835.8 601.8C835.8 607.378 840.322 611.9 845.9 611.9Z" fill="url(#paint61_linear)"/>
<path d="M845.9 604.5C847.391 604.5 848.6 603.291 848.6 601.8C848.6 600.309 847.391 599.1 845.9 599.1C844.409 599.1 843.2 600.309 843.2 601.8C843.2 603.291 844.409 604.5 845.9 604.5Z" stroke="#6D737D" stroke-width="0.7" stroke-miterlimit="10" stroke-linecap="round" stroke-linejoin="round"/>
<path d="M943.8 611.9C949.378 611.9 953.9 607.378 953.9 601.8C953.9 596.222 949.378 591.7 943.8 591.7C938.222 591.7 933.7 596.222 933.7 601.8C933.7 607.378 938.222 611.9 943.8 611.9Z" fill="url(#paint62_linear)"/>
<path d="M839.3 594.2C841.1 592.7 843.4 591.7 845.9 591.7C851.5 591.7 856 596.2 856 601.8C856 603.8 855.4 605.6 854.5 607.1" stroke="#6D737D" stroke-width="0.7" stroke-miterlimit="10" stroke-linecap="round" stroke-linejoin="round"/>
<path d="M943.8 604.5C945.291 604.5 946.5 603.291 946.5 601.8C946.5 600.309 945.291 599.1 943.8 599.1C942.309 599.1 941.1 600.309 941.1 601.8C941.1 603.291 942.309 604.5 943.8 604.5Z" stroke="#6D737D" stroke-width="0.7" stroke-miterlimit="10" stroke-linecap="round" stroke-linejoin="round"/>
<path d="M918.5 519H879.3V557.6H918.5V519Z" fill="url(#paint63_linear)"/>
<path d="M940.2 519H918.5V557.6H940.2V519Z" fill="url(#paint64_linear)"/>
<path d="M968 568.3L986 597.2" stroke="#6D737D" stroke-width="0.7" stroke-miterlimit="10" stroke-linecap="round" stroke-linejoin="round"/>
<path d="M939 521.2L919.4 556" stroke="#6D737D" stroke-width="0.7" stroke-miterlimit="10" stroke-linecap="round" stroke-linejoin="round"/>
<path d="M919.7 521.2L939.3 556" stroke="#6D737D" stroke-width="0.7" stroke-miterlimit="10" stroke-linecap="round" stroke-linejoin="round"/>
<path d="M904 539.9C903.7 539.6 903.2 539.6 902.9 539.9L900.1 542.7C899.8 543 899.8 543.5 900.1 543.8L902.9 546.6C903.2 546.9 903.7 546.9 904 546.6L906.8 543.8C907.1 543.5 907.1 543 906.8 542.7L904 539.9Z" fill="#6D737D"/>
<path d="M903 538.1C903.3 538.4 903.8 538.4 904.1 538.1L906.9 535.3C907.2 535 907.2 534.5 906.9 534.2L904.1 531.4C903.8 531.1 903.3 531.1 903 531.4L900.8 533.6C900.6 533.7 900 534.2 899.2 534.2C898.3 534.2 897.6 533.6 897.6 533.6L895.5 531.5C895.2 531.2 894.7 531.2 894.4 531.5L891.6 534.3C891.3 534.6 891.3 535.1 891.6 535.4L893.8 537.6C893.9 537.7 894.4 538.3 894.4 539.1C894.4 539.9 894 540.4 893.8 540.6L891.6 542.8C891.3 543.1 891.3 543.6 891.6 543.9L894.4 546.7C894.7 547 895.2 547 895.5 546.7L898.3 543.9C898.6 543.6 898.6 543.1 898.3 542.8L896.1 540.6C896 540.4 895.5 539.8 895.5 539C895.5 538.2 896 537.6 896.1 537.5L897.6 536C897.6 536 898.2 535.4 899.2 535.4C900 535.4 900.5 535.8 900.7 536L903 538.1Z" fill="#6D737D"/>
<path d="M917.9 559L869.7 596.9" stroke="#6D737D" stroke-width="0.7" stroke-miterlimit="10" stroke-linecap="round" stroke-linejoin="round"/>
<path d="M869.2 559.2L917.2 596.9" stroke="#6D737D" stroke-width="0.7" stroke-miterlimit="10" stroke-linecap="round" stroke-linejoin="round"/>
<path d="M937.2 594.2C939 592.7 941.3 591.7 943.8 591.7C949.4 591.7 953.9 596.2 953.9 601.8C953.9 603.8 953.3 605.6 952.4 607.1" stroke="#6D737D" stroke-width="0.7" stroke-miterlimit="10" stroke-linecap="round" stroke-linejoin="round"/>
<path d="M-0.399902 612.7H1919.6" stroke="#6D737D" stroke-width="1.2" stroke-miterlimit="10" stroke-linecap="round" stroke-linejoin="round"/>
<path d="M444.5 531.2H401.6V611.8H444.5V531.2Z" fill="#F9A932"/>
<path d="M492 511.5H444.5V551.2H492V511.5Z" fill="url(#paint65_linear)"/>
<path d="M517.3 511.5H492V551.2H517.3V511.5Z" fill="url(#paint66_linear)"/>
<path d="M493.7 551H431.8V611.8H493.7V551Z" fill="#FFCF7D"/>
<path d="M522.9 611.8L493.7 611.7V551H522.9V611.8Z" fill="url(#paint67_linear)"/>
<path d="M431.8 561.5V551H457.9" stroke="#6D737D" stroke-width="0.7" stroke-miterlimit="10" stroke-linecap="round" stroke-linejoin="round"/>
<path d="M431.8 611.7V594.3" stroke="#6D737D" stroke-width="0.7" stroke-miterlimit="10" stroke-linecap="round" stroke-linejoin="round"/>
<path d="M611.5 572.7H584.2V611.5H611.5V572.7Z" fill="#F9A932"/>
<path d="M584.2 572.7H511V611.7H584.2V572.7Z" fill="url(#paint68_linear)"/>
<path d="M371.9 569.3H342V611.8H371.9V569.3Z" fill="url(#paint69_linear)"/>
<path d="M342 569.3H298.5V611.8H342V569.3Z" fill="#FFCF7D"/>
<path d="M577.2 528.8H531.6V572.6H577.2V528.8Z" fill="#FFCF7D"/>
<path d="M603.5 572.7L577.2 572.6V528.8H603.5V572.7Z" fill="url(#paint70_linear)"/>
<path d="M577.2 572.6L602.6 530.2" stroke="#6D737D" stroke-width="0.7" stroke-miterlimit="10" stroke-linecap="round" stroke-linejoin="round"/>
<path d="M578 530.2L602.6 571.2" stroke="#6D737D" stroke-width="0.7" stroke-miterlimit="10" stroke-linecap="round" stroke-linejoin="round"/>
<path d="M490.3 512.9L446.1 549.8" stroke="#6D737D" stroke-width="0.7" stroke-miterlimit="10" stroke-linecap="round" stroke-linejoin="round"/>
<path d="M446.1 512.9L490.3 549.8" stroke="#6D737D" stroke-width="0.7" stroke-miterlimit="10" stroke-linecap="round" stroke-linejoin="round"/>
<path d="M340.9 570.3L299.5 610.8" stroke="#6D737D" stroke-width="0.7" stroke-miterlimit="10" stroke-linecap="round" stroke-linejoin="round"/>
<path d="M299.5 570.3L340.9 610.8" stroke="#6D737D" stroke-width="0.7" stroke-miterlimit="10" stroke-linecap="round" stroke-linejoin="round"/>
<path d="M607.9 577.8L585 610.4" stroke="#6D737D" stroke-width="0.7" stroke-miterlimit="10" stroke-linecap="round" stroke-linejoin="round"/>
<path d="M584.2 572.7L602.8 599.1" stroke="#6D737D" stroke-width="0.7" stroke-miterlimit="10" stroke-linecap="round" stroke-linejoin="round"/>
<path d="M516.6 572.7H607.5" stroke="#6D737D" stroke-width="0.7" stroke-miterlimit="10" stroke-linecap="round" stroke-linejoin="round"/>
<path d="M584.2 572.7V586" stroke="#6D737D" stroke-width="0.7" stroke-miterlimit="10" stroke-linecap="round" stroke-linejoin="round"/>
<path d="M401.6 554.5V543.6" stroke="#6D737D" stroke-width="0.7" stroke-miterlimit="10" stroke-linecap="round" stroke-linejoin="round"/>
<path d="M493.7 611.7V587.8" stroke="#6D737D" stroke-width="0.7" stroke-miterlimit="10" stroke-linecap="round" stroke-linejoin="round"/>
<path d="M511 611.7V603" stroke="#6D737D" stroke-width="0.7" stroke-miterlimit="10" stroke-linecap="round" stroke-linejoin="round"/>
<path d="M491.9 552.8L433.7 609.9" stroke="#6D737D" stroke-width="0.7" stroke-miterlimit="10" stroke-linecap="round" stroke-linejoin="round"/>
<path d="M433.7 552.8L492 610" stroke="#6D737D" stroke-width="0.7" stroke-miterlimit="10" stroke-linecap="round" stroke-linejoin="round"/>
<path d="M444.5 551V543.6" stroke="#6D737D" stroke-width="0.7" stroke-miterlimit="10" stroke-linecap="round" stroke-linejoin="round"/>
<path d="M401.6 611.8V602.4" stroke="#6D737D" stroke-width="0.7" stroke-miterlimit="10" stroke-linecap="round" stroke-linejoin="round"/>
<path d="M1364.7 566.8H1340.8V611.8H1364.7V566.8Z" fill="#F9A932"/>
<path d="M1350.6 588.1H1333.9V611.8H1350.6V588.1Z" fill="url(#paint71_linear)"/>
<path d="M1333.9 588.1H1309.6V611.8H1333.9V588.1Z" fill="#FFCF7D"/>
<path d="M1333.3 588.6L1310.2 611.2" stroke="#6D737D" stroke-width="0.7" stroke-miterlimit="10" stroke-linecap="round" stroke-linejoin="round"/>
<path d="M1310.2 588.6L1333.3 611.2" stroke="#6D737D" stroke-width="0.7" stroke-miterlimit="10" stroke-linecap="round" stroke-linejoin="round"/>
<path d="M1340.8 579.8V573.7" stroke="#6D737D" stroke-width="0.7" stroke-miterlimit="10" stroke-linecap="round" stroke-linejoin="round"/>
<path d="M1411.3 590H1396.1V611.7H1411.3V590Z" fill="#F9A932"/>
<path d="M1396.1 590H1355.2V611.8H1396.1V590Z" fill="url(#paint72_linear)"/>
<path d="M1384.9 565.4H1359.4V589.9H1384.9V565.4Z" fill="#FFCF7D"/>
<path d="M1399.5 590L1384.8 589.9V565.4H1399.5V590Z" fill="url(#paint73_linear)"/>
<path d="M1384.8 589.9L1399 566.2" stroke="#6D737D" stroke-width="0.7" stroke-miterlimit="10" stroke-linecap="round" stroke-linejoin="round"/>
<path d="M1385.3 566.2L1399 589.1" stroke="#6D737D" stroke-width="0.7" stroke-miterlimit="10" stroke-linecap="round" stroke-linejoin="round"/>
<path d="M1409.3 592.8L1396.6 611" stroke="#6D737D" stroke-width="0.7" stroke-miterlimit="10" stroke-linecap="round" stroke-linejoin="round"/>
<path d="M1396.1 590L1406.5 604.7" stroke="#6D737D" stroke-width="0.7" stroke-miterlimit="10" stroke-linecap="round" stroke-linejoin="round"/>
<path d="M1358.3 590H1409.1" stroke="#6D737D" stroke-width="0.7" stroke-miterlimit="10" stroke-linecap="round" stroke-linejoin="round"/>
<path d="M1396.1 590V597.4" stroke="#6D737D" stroke-width="0.7" stroke-miterlimit="10" stroke-linecap="round" stroke-linejoin="round"/>
<path d="M1355.2 611.7V606.9" stroke="#6D737D" stroke-width="0.7" stroke-miterlimit="10" stroke-linecap="round" stroke-linejoin="round"/>
<path d="M1500.7 555.8H1474.2V578H1500.7V555.8Z" fill="url(#paint74_linear)"/>
<path d="M1514.8 555.8H1500.7V578H1514.8V555.8Z" fill="url(#paint75_linear)"/>
<path d="M1501.7 577.8H1467.1V611.7H1501.7V577.8Z" fill="#FFCF7D"/>
<path d="M1518 611.8L1501.7 611.7V577.8H1518V611.8Z" fill="url(#paint76_linear)"/>
<path d="M1467.1 583.7V577.8H1481.7" stroke="#6D737D" stroke-width="0.7" stroke-miterlimit="10" stroke-linecap="round" stroke-linejoin="round"/>
<path d="M1499.8 556.6L1475.1 577.2" stroke="#6D737D" stroke-width="0.7" stroke-miterlimit="10" stroke-linecap="round" stroke-linejoin="round"/>
<path d="M1475.1 556.6L1499.8 577.2" stroke="#6D737D" stroke-width="0.7" stroke-miterlimit="10" stroke-linecap="round" stroke-linejoin="round"/>
<path d="M1501.7 611.7V598.4" stroke="#6D737D" stroke-width="0.7" stroke-miterlimit="10" stroke-linecap="round" stroke-linejoin="round"/>
<path d="M1500.6 578.8L1468.1 610.7" stroke="#6D737D" stroke-width="0.7" stroke-miterlimit="10" stroke-linecap="round" stroke-linejoin="round"/>
<path d="M1468.1 578.8L1500.7 610.8" stroke="#6D737D" stroke-width="0.7" stroke-miterlimit="10" stroke-linecap="round" stroke-linejoin="round"/>
<path d="M1474.2 577.8V573.7" stroke="#6D737D" stroke-width="0.7" stroke-miterlimit="10" stroke-linecap="round" stroke-linejoin="round"/>
<path d="M1156.2 539.6H1151.1C1149.9 539.6 1148.9 538.6 1148.9 537.4C1148.9 536.2 1149.9 535.2 1151.1 535.2H1156.2V539.6Z" fill="url(#paint77_linear)"/>
<path d="M1228.1 583.9H1231.9V584.4C1238 586.1 1242.4 591.6 1242.4 598.2C1242.4 604.8 1237.9 610.4 1231.9 612V612.5H1228.1C1220.2 612.5 1213.7 606.1 1213.7 598.1C1213.7 590.3 1220.1 583.9 1228.1 583.9Z" fill="#9DA2AB"/>
<path d="M1231.9 612.6C1239.85 612.6 1246.3 606.153 1246.3 598.2C1246.3 590.247 1239.85 583.8 1231.9 583.8C1223.95 583.8 1217.5 590.247 1217.5 598.2C1217.5 606.153 1223.95 612.6 1231.9 612.6Z" fill="url(#paint78_linear)"/>
<path d="M1224.5 610.5C1226.7 611.8 1229.2 612.5 1231.9 612.5C1239.8 612.5 1246.3 606.1 1246.3 598.1" stroke="#6D737D" stroke-width="0.7" stroke-miterlimit="10" stroke-linecap="round" stroke-linejoin="round"/>
<path d="M1232.2 607.3C1237.23 607.3 1241.3 603.226 1241.3 598.2C1241.3 593.174 1237.23 589.1 1232.2 589.1C1227.17 589.1 1223.1 593.174 1223.1 598.2C1223.1 603.226 1227.17 607.3 1232.2 607.3Z" fill="#9DA2AB"/>
<path d="M1232.2 600.7C1233.58 600.7 1234.7 599.581 1234.7 598.2C1234.7 596.819 1233.58 595.7 1232.2 595.7C1230.82 595.7 1229.7 596.819 1229.7 598.2C1229.7 599.581 1230.82 600.7 1232.2 600.7Z" fill="#6D737D"/>
<path d="M1227.2 586.1L1233.3 596.6C1233.8 597.4 1233.5 598.4 1232.8 598.8C1232 599.3 1231 599 1230.6 598.3L1224.6 587.9" stroke="#6D737D" stroke-width="1.2" stroke-miterlimit="10" stroke-linecap="round" stroke-linejoin="round"/>
<path d="M1145.7 583.9H1149.5V584.4C1155.6 586.1 1160 591.6 1160 598.2C1160 604.8 1155.5 610.4 1149.5 612V612.5H1145.7C1137.8 612.5 1131.3 606.1 1131.3 598.1C1131.3 590.3 1137.8 583.9 1145.7 583.9Z" fill="#9DA2AB"/>
<path d="M1210.2 571.9L1215.4 582.4C1215.9 583.5 1215.7 584.8 1214.9 585.7L1202.4 598.1H1193L1204.2 585.8C1205 584.9 1205.2 583.6 1204.6 582.5L1198.6 571.9H1210.2Z" fill="url(#paint79_linear)"/>
<path d="M1206.5 571.9H1190.7V569.8C1190.7 565 1194.6 561.2 1199.3 561.2H1217L1206.5 571.9Z" fill="url(#paint80_linear)"/>
<path d="M1177.5 598H1163.5L1146.5 579.9L1156.6 574.9L1177.5 598Z" fill="url(#paint81_linear)"/>
<path d="M1190.2 527.3C1190.2 527.3 1188.1 526.6 1185.9 527.7C1183.7 528.8 1181.5 531.9 1180 533.1C1178.6 534.3 1174.7 537.8 1171.5 537.4C1168.3 537 1161.2 534.1 1158.9 533.6C1156.6 533.1 1152.9 531.5 1151.6 533.9C1150.3 536.3 1151.5 537.8 1152.9 536.8C1154.3 535.8 1155.8 535.3 1156.9 535.9C1158 536.5 1158.6 535.7 1159.7 536.3C1160.8 536.9 1168.9 542 1171.5 542.9C1174 543.8 1176.3 543.5 1181.9 540.2C1187.8 536.8 1188.8 535.6 1189.2 535.2C1189.6 534.8 1192.4 533.7 1191.9 530.8C1191.4 528 1190.2 527.3 1190.2 527.3Z" fill="white"/>
<path d="M1166.9 533.8C1166.1 532.6 1165.2 530.7 1161.1 530.7C1157 530.7 1156.1 530.9 1154.9 534.8C1153.7 538.7 1154 541 1154 541H1168.6C1168.6 541 1168.7 536.9 1166.9 533.8Z" fill="url(#paint82_linear)"/>
<path d="M1167.8 535.1H1175.4V535.2C1176.6 535.2 1177.6 536.2 1177.6 537.4C1177.6 538.6 1176.6 539.6 1175.4 539.6V539.7H1167.8C1166.5 539.7 1165.5 538.7 1165.5 537.4C1165.5 536.2 1166.5 535.1 1167.8 535.1Z" fill="url(#paint83_linear)"/>
<path d="M1153 536.9C1152.3 537.2 1151.6 537.1 1151.1 536.3C1150.5 535.3 1151.8 533.3 1153.1 532.8C1153.4 532.7 1153.7 532.6 1154 532.6" stroke="#6D737D" stroke-width="1.2" stroke-miterlimit="10" stroke-linecap="round" stroke-linejoin="round"/>
<path d="M1175.4 535.3L1168.3 535.2C1167.3 535.2 1165.6 535.7 1165.6 537.4" stroke="#6D737D" stroke-width="1.2" stroke-miterlimit="10" stroke-linecap="round" stroke-linejoin="round"/>
<path d="M1175.2 539.6H1167.5" stroke="#6D737D" stroke-width="1.2" stroke-miterlimit="10" stroke-linecap="round" stroke-linejoin="round"/>
<path d="M1167.6 535.3C1167.6 535.3 1166.6 532.8 1164.9 531.7C1163.2 530.6 1162.5 530.6 1159.1 530.7C1156.1 530.8 1154 534.8 1154 541H1168.2" stroke="#6D737D" stroke-width="1.2" stroke-miterlimit="10" stroke-linecap="round" stroke-linejoin="round"/>
<path d="M1163.5 537C1163.5 537 1163.6 534.9 1162.7 533.1C1161.8 531.3 1161 530.7 1159 530.7" stroke="#6D737D" stroke-width="1.2" stroke-miterlimit="10" stroke-linecap="round" stroke-linejoin="round"/>
<path d="M1154 539.6H1151.1C1151.1 539.6 1149.6 539.4 1149.1 537.7C1148.8 536.7 1149.1 535.8 1149.4 535.4" stroke="#6D737D" stroke-width="1.2" stroke-miterlimit="10" stroke-linecap="round" stroke-linejoin="round"/>
<path d="M1212.4 552.6H1240.2V525.9H1212.4V552.6Z" fill="url(#paint84_linear)"/>
<path d="M1200.65 552.547L1212.45 552.547L1212.45 525.847L1200.65 525.847L1200.65 552.547Z" fill="#F9A932"/>
<path d="M1229.7 539.9C1229.5 539.7 1229.2 539.7 1228.9 539.9L1226.9 541.9C1226.7 542.1 1226.7 542.4 1226.9 542.7L1228.9 544.7C1229.1 544.9 1229.4 544.9 1229.7 544.7L1231.7 542.7C1231.9 542.5 1231.9 542.2 1231.7 541.9L1229.7 539.9Z" fill="#6D737D"/>
<path d="M1229 538.6C1229.2 538.8 1229.5 538.8 1229.8 538.6L1231.8 536.6C1232 536.4 1232 536.1 1231.8 535.8L1229.8 533.8C1229.6 533.6 1229.3 533.6 1229 533.8L1227.5 535.3C1227.4 535.4 1227 535.7 1226.4 535.7C1225.7 535.7 1225.3 535.2 1225.3 535.2L1223.8 533.7C1223.6 533.5 1223.3 533.5 1223 533.7L1221 535.7C1220.8 535.9 1220.8 536.2 1221 536.5L1222.5 538C1222.6 538.1 1222.9 538.5 1222.9 539.1C1222.9 539.6 1222.6 540.1 1222.5 540.2L1220.9 541.8C1220.7 542 1220.7 542.3 1220.9 542.6L1222.9 544.6C1223.1 544.8 1223.4 544.8 1223.7 544.6L1225.7 542.6C1225.9 542.4 1225.9 542.1 1225.7 541.8L1224.2 540.3C1224.1 540.2 1223.8 539.8 1223.8 539.2C1223.8 538.6 1224.1 538.2 1224.2 538.1L1225.3 537C1225.3 537 1225.8 536.5 1226.4 536.5C1226.9 536.5 1227.4 536.8 1227.5 536.9L1229 538.6Z" fill="#6D737D"/>
<path d="M1240.2 526.1H1212.4V532" stroke="#6D737D" stroke-width="0.7" stroke-miterlimit="10" stroke-linecap="round" stroke-linejoin="round"/>
<path d="M1199.2 550.3C1199.2 550.3 1188.3 555.5 1185.1 557.6C1181.8 559.8 1182.2 561 1181.8 562.9C1181.4 564.8 1176.1 579.9 1175.4 581.7C1174.6 583.5 1172.8 582.7 1170.6 581.7C1168.3 580.7 1167.1 579.4 1166.3 580.2C1166.3 580.2 1169.4 585.4 1172.7 587.9C1176 590.4 1177.2 590.2 1177.8 587.5C1178.4 584.8 1179.9 584.5 1182.8 578.7C1185.7 572.9 1190.2 564.8 1190.2 564.8L1205.8 559.2C1205.8 559.2 1209.4 557.6 1207.2 554.4C1205 551.2 1199.2 550.3 1199.2 550.3Z" fill="url(#paint85_linear)"/>
<path d="M1166.2 552.6V568.7C1166.2 569 1166.2 569.2 1166.3 569.5L1172.3 584.5L1170.4 585.9L1158.1 572L1166.2 552.6Z" fill="url(#paint86_linear)"/>
<path d="M1176.2 533.2C1178.8 534 1188.1 540.3 1190.1 540.5C1188.9 538.4 1187.4 537.1 1187.3 533.2C1187.2 531.4 1187.6 529.9 1188.3 528.1C1188.6 527.4 1188.9 526.9 1188.8 526.2C1188.6 525.5 1188.4 525.6 1187.6 525.2C1186.9 524.8 1186.4 524.4 1185.9 523.7C1185.4 522.9 1184.9 522.1 1184.4 520.1C1183.4 516 1184.3 511.6 1187.8 511.3C1191.3 511 1194 512.9 1193.9 516.8C1193.8 519.6 1193.3 521.7 1193.6 523C1193.8 523.6 1194.8 524.6 1195.9 524.9C1197.1 525.2 1198.8 525.3 1200.4 525.8C1202.6 526.5 1205 528.2 1207.3 531.9C1209 534.5 1210.7 537.2 1214.1 543.3C1216 546.8 1219.2 549.9 1218.8 555.3C1218.5 559 1217 561 1212.6 561.6C1208.8 562.1 1197.9 566.6 1195.7 567.8C1193.5 569 1192.1 570.5 1189.9 574.8C1187.8 579.1 1180.7 589.5 1180.4 590C1179 591.8 1177.6 593.8 1176.4 592.5C1175.1 591 1169.8 585.3 1168.4 583.8C1167 582.3 1167.2 581.6 1169.3 583C1171.4 584.4 1175.6 586.9 1177.2 585.3C1178.6 583.9 1182.6 574 1184.7 568.2C1186.8 562.3 1186.6 560.9 1191.2 558.8C1193.5 557.7 1197.3 556.1 1200.6 554.7C1200.5 554.6 1198.7 552.7 1196.7 549.9C1195.6 548.4 1195.2 547.1 1194.1 545.6C1194.1 545.6 1193 547.4 1190.6 547.1C1188.1 546.8 1183.3 542.7 1180.9 541C1178.6 539.4 1177.1 538.2 1176.7 537.2C1176.3 536.3 1176.8 535.3 1175.2 535.3C1173.6 535.3 1173.5 537.3 1173.3 537.8C1173.1 538.2 1171.7 538.2 1170.7 537.8C1169.8 537.4 1169.4 535.7 1170.3 534.6C1171.2 533.2 1173 532.2 1176.2 533.2Z" fill="url(#paint87_linear)"/>
<path d="M1177.6 516.3H1194.4C1194.4 516.3 1194.6 510.3 1188.8 510.3C1183.1 510.3 1183 516.3 1183 516.3" stroke="#6D737D" stroke-width="1.2" stroke-miterlimit="10" stroke-linecap="round" stroke-linejoin="round"/>
<path d="M1187.9 527.3C1187.9 527.3 1186.2 527.1 1184.7 528.6C1183.1 530 1179.6 533.6 1179.6 533.6" stroke="#6D737D" stroke-width="1.2" stroke-miterlimit="10" stroke-linecap="round" stroke-linejoin="round"/>
<path d="M1179.1 541.8C1179.1 541.8 1175.4 543.4 1173.8 543.4C1172.2 543.4 1170.1 542.3 1170.1 542.3" stroke="#6D737D" stroke-width="1.2" stroke-miterlimit="10" stroke-linecap="round" stroke-linejoin="round"/>
<path d="M1202.1 536.9C1202.1 536.9 1197 542.9 1194.2 545.4C1191.4 547.9 1190.2 547.2 1187.9 545.7C1185.6 544.2 1183.7 542.8 1183.7 542.8" stroke="#6D737D" stroke-width="1.2" stroke-miterlimit="10" stroke-linecap="round" stroke-linejoin="round"/>
<path d="M1199 530C1199 530 1195.4 534.1 1193.5 536.8C1191.6 539.5 1190.9 540.6 1190.1 540.4C1189.3 540.2 1184.8 537.8 1184.8 537.8" stroke="#6D737D" stroke-width="1.2" stroke-miterlimit="10" stroke-linecap="round" stroke-linejoin="round"/>
<path d="M1212.2 526.3H1200.6C1197 526.3 1195.8 527.8 1194.7 529.3C1192.6 532 1193.9 536.2 1193.9 536.2" stroke="#6D737D" stroke-width="1.2" stroke-miterlimit="10" stroke-linecap="round" stroke-linejoin="round"/>
<path d="M1217.1 546.9C1217.1 546.9 1215.2 547.7 1208.6 546.9C1200.6 546 1197.6 541.9 1197.6 541.9" stroke="#6D737D" stroke-width="1.2" stroke-miterlimit="10" stroke-linecap="round" stroke-linejoin="round"/>
<path d="M1206.2 552.6C1206.2 552.6 1201.5 553.8 1195.3 556.8C1189.1 559.8 1187.6 559.9 1186.4 563.5C1185.2 567.1 1181.9 577 1179.2 581.9C1177 585.9 1176.1 586 1174.1 585.3C1172.6 584.8 1171.2 583.8 1169.4 582.8" stroke="#6D737D" stroke-width="1.2" stroke-miterlimit="10" stroke-linecap="round" stroke-linejoin="round"/>
<path d="M1200.7 554.4C1200.7 554.4 1198.3 552.2 1196.8 549.6" stroke="#6D737D" stroke-width="1.2" stroke-miterlimit="10" stroke-linecap="round" stroke-linejoin="round"/>
<path d="M1177.1 536.2C1176.3 535 1174.2 535 1173.6 536.4C1173.1 537.5 1173.3 539.1 1175.1 539.5C1176.7 539.9 1177.4 538.1 1177.4 538.1" stroke="#6D737D" stroke-width="1.2" stroke-miterlimit="10" stroke-linecap="round" stroke-linejoin="round"/>
<path d="M1149.7 566.6L1161.7 543.4L1165.8 547.4C1166 547.6 1166.2 548 1166.2 548.3V552.6L1158.6 570.9C1158.3 571.6 1158.5 572.4 1159 573L1178.4 594.6L1206.2 594.2L1214.8 585.7C1215.7 584.8 1215.9 583.5 1215.3 582.4L1210.1 571.9H1206.4V569.3C1206.4 564.8 1210 561.2 1214.5 561.2H1231.5C1231.7 561.2 1232 561.3 1232.1 561.5L1239.5 568.9C1239.8 569.2 1240 569.6 1240 570.1V572V572.2C1240 572.7 1239.8 573.2 1239.4 573.5L1226 584L1217 591.2C1214.8 593.3 1213.7 595.1 1213.7 598H1177.5L1157.5 575.8C1157 575.2 1156.2 575.1 1155.5 575.4L1138.9 583.6C1138.6 583.7 1138.3 583.8 1138 583.8H1135.6L1149.7 566.6Z" fill="url(#paint88_linear)"/>
<path d="M1161.7 543.4H1154.6C1154.2 543.4 1153.7 543.7 1153.6 544.1L1142.3 568.5L1130.5 582.8C1130.1 583.2 1130.5 583.9 1131 583.9H1137.7C1138.2 583.9 1138.7 583.7 1139 583.3L1150.4 568.6L1161.7 543.4Z" fill="url(#paint89_linear)"/>
<path d="M1236.8 568.3L1225.4 578.1" stroke="#6D737D" stroke-width="1.2" stroke-miterlimit="10" stroke-linecap="round" stroke-linejoin="round"/>
<path d="M1195.8 571.9H1223.5" stroke="#6D737D" stroke-width="1.2" stroke-miterlimit="10" stroke-linecap="round" stroke-linejoin="round"/>
<path d="M1206.5 571.9C1206.5 571.9 1206.5 571.5 1206.5 569.3C1206.5 566.9 1207.5 565.4 1207.5 565.4" stroke="#6D737D" stroke-width="1.2" stroke-miterlimit="10" stroke-linecap="round" stroke-linejoin="round"/>
<path d="M1210.2 571.9L1212.5 576.5" stroke="#6D737D" stroke-width="0.7" stroke-miterlimit="10" stroke-linecap="round" stroke-linejoin="round"/>
<path d="M1210.9 589.1L1206.3 594.1L1192.4 594.3" stroke="#6D737D" stroke-width="0.7" stroke-miterlimit="10" stroke-linecap="round" stroke-linejoin="round"/>
<path d="M1224.6 594.5L1227 597.6C1227.6 598.4 1228.7 598.5 1229.4 597.9L1244.3 586.4C1245.1 585.8 1245.2 584.7 1244.6 584L1242.2 580.9C1241.6 580.1 1240.5 580 1239.8 580.6L1224.9 592.1C1224.2 592.7 1224 593.8 1224.6 594.5Z" fill="url(#paint90_linear)"/>
<path d="M1244.8 586.2C1245.3 585.8 1245.4 585.1 1245 584.7L1241.8 580.6" stroke="#6D737D" stroke-width="1.2" stroke-miterlimit="10" stroke-linecap="round" stroke-linejoin="round"/>
<path d="M1149.5 612.6C1157.45 612.6 1163.9 606.153 1163.9 598.2C1163.9 590.247 1157.45 583.8 1149.5 583.8C1141.55 583.8 1135.1 590.247 1135.1 598.2C1135.1 606.153 1141.55 612.6 1149.5 612.6Z" fill="url(#paint91_linear)"/>
<path d="M1153.9 584.5C1152.5 584.1 1151.1 583.8 1149.5 583.8C1141.6 583.8 1135.1 590.2 1135.1 598.2" stroke="#6D737D" stroke-width="0.7" stroke-miterlimit="10" stroke-linecap="round" stroke-linejoin="round"/>
<path d="M1162.4 604.4C1163.3 602.5 1163.8 600.4 1163.8 598.2C1163.8 594.2 1162.2 590.6 1159.5 588" stroke="#6D737D" stroke-width="0.7" stroke-miterlimit="10" stroke-linecap="round" stroke-linejoin="round"/>
<path d="M1149.9 607.3C1154.93 607.3 1159 603.226 1159 598.2C1159 593.174 1154.93 589.1 1149.9 589.1C1144.87 589.1 1140.8 593.174 1140.8 598.2C1140.8 603.226 1144.87 607.3 1149.9 607.3Z" fill="#9DA2AB"/>
<path d="M1149.9 600.7C1151.28 600.7 1152.4 599.581 1152.4 598.2C1152.4 596.819 1151.28 595.7 1149.9 595.7C1148.52 595.7 1147.4 596.819 1147.4 598.2C1147.4 599.581 1148.52 600.7 1149.9 600.7Z" fill="#6D737D"/>
<path d="M1157.2 582.3L1149 596.6C1148.5 597.4 1148.8 598.4 1149.5 598.8C1150.3 599.3 1151.3 599 1151.7 598.3L1159.6 584.8" stroke="#6D737D" stroke-width="1.2" stroke-miterlimit="10" stroke-linecap="round" stroke-linejoin="round"/>
<path d="M1231.5 587.1L1214.2 600.2C1213 601.1 1211.4 600.8 1210.5 599.7C1209.6 598.6 1209.8 596.9 1210.9 596L1235.6 576.5" stroke="#6D737D" stroke-width="1.2" stroke-miterlimit="10" stroke-linecap="round" stroke-linejoin="round"/>
<path d="M1239.6 590.2L1229.1 598.3C1228.5 598.7 1227.7 598.6 1227.3 598.1L1224.3 594.1C1224.3 594.1 1223.8 593.4 1224 592.9" stroke="#6D737D" stroke-width="1.2" stroke-miterlimit="10" stroke-linecap="round" stroke-linejoin="round"/>
<path d="M1225.4 595.6L1215.9 602.5C1213.5 604.3 1210.1 603.8 1208.1 601.5C1208.1 601.5 1207.1 600.4 1206.7 599.6" stroke="#6D737D" stroke-width="1.2" stroke-miterlimit="10" stroke-linecap="round" stroke-linejoin="round"/>
<path d="M1156.2 555.6L1150.4 568.5L1140.8 580.9" stroke="#6D737D" stroke-width="1.2" stroke-miterlimit="10" stroke-linecap="round" stroke-linejoin="round"/>
<path d="M1159.3 569.3L1166.2 552.6V548.3C1166.2 548.3 1166.3 547.9 1165.8 547.4C1165.3 546.9 1161.7 543.4 1161.7 543.4L1159.1 549.2" stroke="#6D737D" stroke-width="0.7" stroke-miterlimit="10" stroke-linecap="round" stroke-linejoin="round"/>
<path d="M1161.7 543.4H1155.3" stroke="#6D737D" stroke-width="0.7" stroke-miterlimit="10" stroke-linecap="round" stroke-linejoin="round"/>
<path d="M1182.5 598H1177.5L1162.5 581.5" stroke="#6D737D" stroke-width="1.2" stroke-miterlimit="10" stroke-linecap="round" stroke-linejoin="round"/>
<defs>
<linearGradient id="paint0_linear" x1="1154.2" y1="609.67" x2="1154.2" y2="602.363" gradientUnits="userSpaceOnUse">
<stop stop-color="#D8E0E3"/>
<stop offset="0.672" stop-color="#EAF1F5"/>
</linearGradient>
<linearGradient id="paint1_linear" x1="1019.52" y1="586.58" x2="1065.97" y2="586.326" gradientUnits="userSpaceOnUse">
<stop stop-color="#C5CCCF"/>
<stop offset="0.672" stop-color="#D1D8DB"/>
</linearGradient>
<linearGradient id="paint2_linear" x1="968.796" y1="607.141" x2="1021.34" y2="579.979" gradientUnits="userSpaceOnUse">
<stop stop-color="#D8E0E3"/>
<stop offset="0.672" stop-color="#EAF1F5"/>
</linearGradient>
<linearGradient id="paint3_linear" x1="897.565" y1="589.943" x2="880.669" y2="611.958" gradientUnits="userSpaceOnUse">
<stop stop-color="#D8E0E3"/>
<stop offset="0.672" stop-color="#EAF1F5"/>
</linearGradient>
<linearGradient id="paint4_linear" x1="878.382" y1="599.436" x2="863.24" y2="599.436" gradientUnits="userSpaceOnUse">
<stop stop-color="#C5CCCF"/>
<stop offset="0.672" stop-color="#D1D8DB"/>
</linearGradient>
<linearGradient id="paint5_linear" x1="926.318" y1="562.303" x2="894.756" y2="603.429" gradientUnits="userSpaceOnUse">
<stop stop-color="#D8E0E3"/>
<stop offset="0.672" stop-color="#EAF1F5"/>
</linearGradient>
<linearGradient id="paint6_linear" x1="900.811" y1="580.036" x2="885.669" y2="580.036" gradientUnits="userSpaceOnUse">
<stop stop-color="#C5CCCF"/>
<stop offset="0.672" stop-color="#D1D8DB"/>
</linearGradient>
<linearGradient id="paint7_linear" x1="1052.73" y1="603.033" x2="1086.9" y2="571.184" gradientUnits="userSpaceOnUse">
<stop stop-color="#D8E0E3"/>
<stop offset="0.672" stop-color="#EAF1F5"/>
</linearGradient>
<linearGradient id="paint8_linear" x1="985.105" y1="599.516" x2="939.454" y2="599.516" gradientUnits="userSpaceOnUse">
<stop stop-color="#D8E0E3"/>
<stop offset="0.672" stop-color="#EAF1F5"/>
</linearGradient>
<linearGradient id="paint9_linear" x1="281.164" y1="609.804" x2="281.164" y2="602.823" gradientUnits="userSpaceOnUse">
<stop stop-color="#D8E0E3"/>
<stop offset="0.672" stop-color="#EAF1F5"/>
</linearGradient>
<linearGradient id="paint10_linear" x1="152.498" y1="587.745" x2="196.877" y2="587.502" gradientUnits="userSpaceOnUse">
<stop stop-color="#C5CCCF"/>
<stop offset="0.672" stop-color="#D1D8DB"/>
</linearGradient>
<linearGradient id="paint11_linear" x1="104.043" y1="607.387" x2="154.242" y2="581.439" gradientUnits="userSpaceOnUse">
<stop stop-color="#D8E0E3"/>
<stop offset="0.672" stop-color="#EAF1F5"/>
</linearGradient>
<linearGradient id="paint12_linear" x1="35.9937" y1="590.958" x2="19.8535" y2="611.989" gradientUnits="userSpaceOnUse">
<stop stop-color="#D8E0E3"/>
<stop offset="0.672" stop-color="#EAF1F5"/>
</linearGradient>
<linearGradient id="paint13_linear" x1="17.6685" y1="600.026" x2="3.20285" y2="600.026" gradientUnits="userSpaceOnUse">
<stop stop-color="#C5CCCF"/>
<stop offset="0.672" stop-color="#D1D8DB"/>
</linearGradient>
<linearGradient id="paint14_linear" x1="63.4623" y1="564.553" x2="33.3106" y2="603.841" gradientUnits="userSpaceOnUse">
<stop stop-color="#D8E0E3"/>
<stop offset="0.672" stop-color="#EAF1F5"/>
</linearGradient>
<linearGradient id="paint15_linear" x1="39.0954" y1="581.494" x2="24.6298" y2="581.494" gradientUnits="userSpaceOnUse">
<stop stop-color="#C5CCCF"/>
<stop offset="0.672" stop-color="#D1D8DB"/>
</linearGradient>
<linearGradient id="paint16_linear" x1="184.228" y1="603.463" x2="216.87" y2="573.037" gradientUnits="userSpaceOnUse">
<stop stop-color="#D8E0E3"/>
<stop offset="0.672" stop-color="#EAF1F5"/>
</linearGradient>
<linearGradient id="paint17_linear" x1="119.623" y1="600.103" x2="76.0115" y2="600.103" gradientUnits="userSpaceOnUse">
<stop stop-color="#D8E0E3"/>
<stop offset="0.672" stop-color="#EAF1F5"/>
</linearGradient>
<linearGradient id="paint18_linear" x1="1442.1" y1="580.057" x2="1491.64" y2="603.054" gradientUnits="userSpaceOnUse">
<stop stop-color="#D8E0E3"/>
<stop offset="0.672" stop-color="#EAF1F5"/>
</linearGradient>
<linearGradient id="paint19_linear" x1="1513.94" y1="589.434" x2="1549.32" y2="577.936" gradientUnits="userSpaceOnUse">
<stop stop-color="#D8E0E3"/>
<stop offset="0.672" stop-color="#EAF1F5"/>
</linearGradient>
<linearGradient id="paint20_linear" x1="1364.54" y1="546.953" x2="1420.63" y2="600.365" gradientUnits="userSpaceOnUse">
<stop stop-color="#D8E0E3"/>
<stop offset="0.672" stop-color="#EAF1F5"/>
</linearGradient>
<linearGradient id="paint21_linear" x1="1401.51" y1="505.567" x2="1430.35" y2="543.81" gradientUnits="userSpaceOnUse">
<stop stop-color="#D8E0E3"/>
<stop offset="0.672" stop-color="#EAF1F5"/>
</linearGradient>
<linearGradient id="paint22_linear" x1="1421.62" y1="575.524" x2="1450.26" y2="574.928" gradientUnits="userSpaceOnUse">
<stop stop-color="#D8E0E3"/>
<stop offset="0.672" stop-color="#EAF1F5"/>
</linearGradient>
<linearGradient id="paint23_linear" x1="1416.5" y1="523.617" x2="1408.14" y2="523.02" gradientUnits="userSpaceOnUse">
<stop stop-color="#D8E0E3"/>
<stop offset="0.672" stop-color="#EAF1F5"/>
</linearGradient>
<linearGradient id="paint24_linear" x1="1288.36" y1="594.63" x2="1315.15" y2="607.07" gradientUnits="userSpaceOnUse">
<stop stop-color="#D8E0E3"/>
<stop offset="0.672" stop-color="#EAF1F5"/>
</linearGradient>
<linearGradient id="paint25_linear" x1="1327.22" y1="599.702" x2="1346.36" y2="593.482" gradientUnits="userSpaceOnUse">
<stop stop-color="#D8E0E3"/>
<stop offset="0.672" stop-color="#EAF1F5"/>
</linearGradient>
<linearGradient id="paint26_linear" x1="1893.05" y1="532.555" x2="1929.88" y2="536.684" gradientUnits="userSpaceOnUse">
<stop stop-color="#D8E0E3"/>
<stop offset="0.672" stop-color="#EAF1F5"/>
</linearGradient>
<linearGradient id="paint27_linear" x1="1641.23" y1="513.424" x2="1741.39" y2="513.424" gradientUnits="userSpaceOnUse">
<stop stop-color="#D3DBDE"/>
<stop offset="0.4799" stop-color="#E7EEF2"/>
</linearGradient>
<linearGradient id="paint28_linear" x1="1580.29" y1="530.264" x2="1786.92" y2="530.264" gradientUnits="userSpaceOnUse">
<stop offset="0.4345" stop-color="#EAF1F5"/>
<stop offset="1" stop-color="#D8E0E3"/>
</linearGradient>
<linearGradient id="paint29_linear" x1="1773.41" y1="516.159" x2="1853.79" y2="516.159" gradientUnits="userSpaceOnUse">
<stop offset="0.0797483" stop-color="#EAF1F5"/>
<stop offset="0.7155" stop-color="#DDE5E8"/>
<stop offset="1" stop-color="#D8E0E3"/>
</linearGradient>
<linearGradient id="paint30_linear" x1="1802.76" y1="397.349" x2="1883.88" y2="396.605" gradientUnits="userSpaceOnUse">
<stop offset="0.4345" stop-color="#EAF1F5"/>
<stop offset="1" stop-color="#D8E0E3"/>
</linearGradient>
<linearGradient id="paint31_linear" x1="1654.25" y1="478.224" x2="1654.25" y2="483.725" gradientUnits="userSpaceOnUse">
<stop offset="0.4268" stop-color="#FFCB7D"/>
<stop offset="1" stop-color="#F9B032"/>
</linearGradient>
<linearGradient id="paint32_linear" x1="1688.6" y1="478.224" x2="1688.6" y2="483.725" gradientUnits="userSpaceOnUse">
<stop offset="0.4268" stop-color="#FFCB7D"/>
<stop offset="1" stop-color="#F9B032"/>
</linearGradient>
<linearGradient id="paint33_linear" x1="1722.95" y1="478.224" x2="1722.95" y2="483.725" gradientUnits="userSpaceOnUse">
<stop offset="0.4268" stop-color="#FFCB7D"/>
<stop offset="1" stop-color="#F9B032"/>
</linearGradient>
<linearGradient id="paint34_linear" x1="1757.29" y1="478.224" x2="1757.29" y2="483.725" gradientUnits="userSpaceOnUse">
<stop offset="0.4268" stop-color="#FFCB7D"/>
<stop offset="1" stop-color="#F9B032"/>
</linearGradient>
<linearGradient id="paint35_linear" x1="1663.54" y1="526.709" x2="1663.54" y2="532.21" gradientUnits="userSpaceOnUse">
<stop offset="0.4268" stop-color="#FFCB7D"/>
<stop offset="1" stop-color="#F9B032"/>
</linearGradient>
<linearGradient id="paint36_linear" x1="1697.88" y1="526.709" x2="1697.88" y2="532.21" gradientUnits="userSpaceOnUse">
<stop offset="0.4268" stop-color="#FFCB7D"/>
<stop offset="1" stop-color="#F9B032"/>
</linearGradient>
<linearGradient id="paint37_linear" x1="1732.23" y1="526.709" x2="1732.23" y2="532.21" gradientUnits="userSpaceOnUse">
<stop offset="0.4268" stop-color="#FFCB7D"/>
<stop offset="1" stop-color="#F9B032"/>
</linearGradient>
<linearGradient id="paint38_linear" x1="1766.58" y1="526.709" x2="1766.58" y2="532.21" gradientUnits="userSpaceOnUse">
<stop offset="0.4268" stop-color="#FFCB7D"/>
<stop offset="1" stop-color="#F9B032"/>
</linearGradient>
<linearGradient id="paint39_linear" x1="1570.02" y1="588.197" x2="1605.66" y2="587.861" gradientUnits="userSpaceOnUse">
<stop offset="0.4171" stop-color="#82C5F5"/>
<stop offset="1" stop-color="#3A9BE0"/>
</linearGradient>
<linearGradient id="paint40_linear" x1="1528.42" y1="585.595" x2="1572.78" y2="598.425" gradientUnits="userSpaceOnUse">
<stop offset="0.4171" stop-color="#82C5F5"/>
<stop offset="1" stop-color="#3A9BE0"/>
</linearGradient>
<linearGradient id="paint41_linear" x1="1689.55" y1="582.39" x2="1733.78" y2="581.973" gradientUnits="userSpaceOnUse">
<stop offset="0.4171" stop-color="#82C5F5"/>
<stop offset="1" stop-color="#3A9BE0"/>
</linearGradient>
<linearGradient id="paint42_linear" x1="1637.92" y1="579.161" x2="1692.98" y2="595.083" gradientUnits="userSpaceOnUse">
<stop offset="0.4171" stop-color="#82C5F5"/>
<stop offset="1" stop-color="#3A9BE0"/>
</linearGradient>
<linearGradient id="paint43_linear" x1="361.003" y1="237.642" x2="361.003" y2="244.572" gradientUnits="userSpaceOnUse">
<stop offset="0.000578704" stop-color="#E3F8FC"/>
<stop offset="1" stop-color="#AFEBF6"/>
</linearGradient>
<linearGradient id="paint44_linear" x1="169.098" y1="100.291" x2="169.098" y2="127.655" gradientUnits="userSpaceOnUse">
<stop offset="0.000578704" stop-color="#E3F8FC"/>
<stop offset="1" stop-color="#AFEBF6"/>
</linearGradient>
<linearGradient id="paint45_linear" x1="92.1407" y1="336.728" x2="92.1407" y2="341.326" gradientUnits="userSpaceOnUse">
<stop offset="0.000578704" stop-color="#E3F8FC"/>
<stop offset="1" stop-color="#AFEBF6"/>
</linearGradient>
<linearGradient id="paint46_linear" x1="1032.44" y1="458.507" x2="1032.44" y2="464.552" gradientUnits="userSpaceOnUse">
<stop offset="0.000578704" stop-color="#E3F8FC"/>
<stop offset="1" stop-color="#AFEBF6"/>
</linearGradient>
<linearGradient id="paint47_linear" x1="1528.41" y1="341.835" x2="1528.41" y2="346.15" gradientUnits="userSpaceOnUse">
<stop offset="0.000578704" stop-color="#E3F8FC"/>
<stop offset="1" stop-color="#AFEBF6"/>
</linearGradient>
<linearGradient id="paint48_linear" x1="564.306" y1="393.835" x2="564.306" y2="398.15" gradientUnits="userSpaceOnUse">
<stop offset="0.000578704" stop-color="#E3F8FC"/>
<stop offset="1" stop-color="#AFEBF6"/>
</linearGradient>
<linearGradient id="paint49_linear" x1="1228.42" y1="5.94979" x2="1228.42" y2="15.0068" gradientUnits="userSpaceOnUse">
<stop offset="0.000578704" stop-color="#E3F8FC"/>
<stop offset="1" stop-color="#AFEBF6"/>
</linearGradient>
<linearGradient id="paint50_linear" x1="1645.38" y1="133.708" x2="1645.61" y2="142.608" gradientUnits="userSpaceOnUse">
<stop offset="0.000578704" stop-color="#E3F8FC"/>
<stop offset="1" stop-color="#AFEBF6"/>
</linearGradient>
<linearGradient id="paint51_linear" x1="1794.7" y1="244.586" x2="1794.83" y2="249.952" gradientUnits="userSpaceOnUse">
<stop offset="0.000578704" stop-color="#E3F8FC"/>
<stop offset="1" stop-color="#AFEBF6"/>
</linearGradient>
<linearGradient id="paint52_linear" x1="197.83" y1="463.37" x2="186.386" y2="464.063" gradientUnits="userSpaceOnUse">
<stop stop-color="#D8E0E3"/>
<stop offset="0.5715" stop-color="#EAF1F5"/>
</linearGradient>
<linearGradient id="paint53_linear" x1="201.968" y1="474.975" x2="214.313" y2="477.426" gradientUnits="userSpaceOnUse">
<stop stop-color="#D8E0E3"/>
<stop offset="0.4799" stop-color="#EAF1F5"/>
</linearGradient>
<linearGradient id="paint54_linear" x1="196.54" y1="466.16" x2="186.895" y2="474.197" gradientUnits="userSpaceOnUse">
<stop stop-color="#D8E0E3"/>
<stop offset="0.4799" stop-color="#EAF1F5"/>
</linearGradient>
<linearGradient id="paint55_linear" x1="201.773" y1="483.267" x2="192.142" y2="483.968" gradientUnits="userSpaceOnUse">
<stop stop-color="#D3DBDE"/>
<stop offset="0.4799" stop-color="#E7EEF2"/>
</linearGradient>
<linearGradient id="paint56_linear" x1="249.709" y1="495.739" x2="249.709" y2="487.826" gradientUnits="userSpaceOnUse">
<stop stop-color="#D8E0E3"/>
<stop offset="0.672" stop-color="#EAF1F5"/>
</linearGradient>
<linearGradient id="paint57_linear" x1="215.395" y1="474.949" x2="291.399" y2="480.905" gradientUnits="userSpaceOnUse">
<stop offset="0.4171" stop-color="#82C5F5"/>
<stop offset="1" stop-color="#3A9BE0"/>
</linearGradient>
<linearGradient id="paint58_linear" x1="288.904" y1="476.504" x2="297.098" y2="478.338" gradientUnits="userSpaceOnUse">
<stop offset="0.4171" stop-color="#82C5F5"/>
<stop offset="1" stop-color="#3A9BE0"/>
</linearGradient>
<linearGradient id="paint59_linear" x1="844.071" y1="584.086" x2="863.033" y2="583.84" gradientUnits="userSpaceOnUse">
<stop offset="0.4268" stop-color="#FFC061"/>
<stop offset="1" stop-color="#F9A932"/>
</linearGradient>
<linearGradient id="paint60_linear" x1="988.203" y1="582.849" x2="981.681" y2="582.849" gradientUnits="userSpaceOnUse">
<stop offset="0.4268" stop-color="#FFC061"/>
<stop offset="1" stop-color="#F9A932"/>
</linearGradient>
<linearGradient id="paint61_linear" x1="836.474" y1="598.07" x2="855.25" y2="605.539" gradientUnits="userSpaceOnUse">
<stop offset="0.00858799" stop-color="#AFB5BF"/>
<stop offset="0.603" stop-color="#CED5E0"/>
<stop offset="1" stop-color="#AFB5BF"/>
</linearGradient>
<linearGradient id="paint62_linear" x1="934.404" y1="598.07" x2="953.18" y2="605.539" gradientUnits="userSpaceOnUse">
<stop offset="0.00858799" stop-color="#AFB5BF"/>
<stop offset="0.603" stop-color="#CED5E0"/>
<stop offset="1" stop-color="#AFB5BF"/>
</linearGradient>
<linearGradient id="paint63_linear" x1="898.938" y1="548.967" x2="898.938" y2="557.411" gradientUnits="userSpaceOnUse">
<stop offset="0.4268" stop-color="#FFCB7D"/>
<stop offset="1" stop-color="#F9B032"/>
</linearGradient>
<linearGradient id="paint64_linear" x1="937.734" y1="538.331" x2="928.515" y2="538.331" gradientUnits="userSpaceOnUse">
<stop offset="0.4268" stop-color="#FFC061"/>
<stop offset="1" stop-color="#F9A932"/>
</linearGradient>
<linearGradient id="paint65_linear" x1="467.921" y1="526.047" x2="469.351" y2="551.312" gradientUnits="userSpaceOnUse">
<stop offset="0.4268" stop-color="#FFCB7D"/>
<stop offset="1" stop-color="#F9B032"/>
</linearGradient>
<linearGradient id="paint66_linear" x1="515.819" y1="515.673" x2="499.336" y2="538.815" gradientUnits="userSpaceOnUse">
<stop offset="0.4268" stop-color="#FFC061"/>
<stop offset="1" stop-color="#F9A932"/>
</linearGradient>
<linearGradient id="paint67_linear" x1="529.648" y1="555.786" x2="509.465" y2="580.005" gradientUnits="userSpaceOnUse">
<stop offset="0.4268" stop-color="#FFC061"/>
<stop offset="1" stop-color="#F9A932"/>
</linearGradient>
<linearGradient id="paint68_linear" x1="547.726" y1="596.755" x2="548.112" y2="614.906" gradientUnits="userSpaceOnUse">
<stop offset="0.4268" stop-color="#FFC061"/>
<stop offset="1" stop-color="#F9A932"/>
</linearGradient>
<linearGradient id="paint69_linear" x1="384.209" y1="577.756" x2="350.534" y2="593.535" gradientUnits="userSpaceOnUse">
<stop offset="0.4268" stop-color="#FFC061"/>
<stop offset="1" stop-color="#F9A932"/>
</linearGradient>
<linearGradient id="paint70_linear" x1="604.981" y1="550.737" x2="596.422" y2="550.737" gradientUnits="userSpaceOnUse">
<stop offset="0.4268" stop-color="#FFC061"/>
<stop offset="1" stop-color="#F9A932"/>
</linearGradient>
<linearGradient id="paint71_linear" x1="1357.45" y1="592.782" x2="1338.65" y2="601.592" gradientUnits="userSpaceOnUse">
<stop offset="0.4268" stop-color="#FFC061"/>
<stop offset="1" stop-color="#F9A932"/>
</linearGradient>
<linearGradient id="paint72_linear" x1="1375.72" y1="603.39" x2="1375.94" y2="613.525" gradientUnits="userSpaceOnUse">
<stop offset="0.4268" stop-color="#FFC061"/>
<stop offset="1" stop-color="#F9A932"/>
</linearGradient>
<linearGradient id="paint73_linear" x1="1400.35" y1="577.696" x2="1395.57" y2="577.696" gradientUnits="userSpaceOnUse">
<stop offset="0.4268" stop-color="#FFC061"/>
<stop offset="1" stop-color="#F9A932"/>
</linearGradient>
<linearGradient id="paint74_linear" x1="1487.28" y1="563.91" x2="1488.08" y2="578.017" gradientUnits="userSpaceOnUse">
<stop offset="0.4268" stop-color="#FFCB7D"/>
<stop offset="1" stop-color="#F9B032"/>
</linearGradient>
<linearGradient id="paint75_linear" x1="1514.02" y1="558.118" x2="1504.82" y2="571.039" gradientUnits="userSpaceOnUse">
<stop offset="0.4268" stop-color="#FFC061"/>
<stop offset="1" stop-color="#F9A932"/>
</linearGradient>
<linearGradient id="paint76_linear" x1="1521.74" y1="580.515" x2="1510.47" y2="594.038" gradientUnits="userSpaceOnUse">
<stop offset="0.4268" stop-color="#FFC061"/>
<stop offset="1" stop-color="#F9A932"/>
</linearGradient>
<linearGradient id="paint77_linear" x1="1146.61" y1="537.265" x2="1151.36" y2="537.381" gradientUnits="userSpaceOnUse">
<stop offset="0.2238" stop-color="#E7EEF2"/>
<stop offset="0.2497" stop-color="#E4EBEF"/>
<stop offset="0.5667" stop-color="#C3CACD"/>
<stop offset="0.8281" stop-color="#AFB5B8"/>
<stop offset="1" stop-color="#A8AEB0"/>
</linearGradient>
<linearGradient id="paint78_linear" x1="1221.74" y1="606.773" x2="1241.75" y2="589.85" gradientUnits="userSpaceOnUse">
<stop stop-color="#D1D8DB"/>
<stop offset="0.2546" stop-color="#E1E8EC"/>
<stop offset="0.4799" stop-color="#EAF1F5"/>
<stop offset="0.6808" stop-color="#E5ECF0"/>
<stop offset="0.9151" stop-color="#D8DFE2"/>
<stop offset="1" stop-color="#D1D8DB"/>
</linearGradient>
<linearGradient id="paint79_linear" x1="1204.7" y1="575.698" x2="1204.08" y2="600.344" gradientUnits="userSpaceOnUse">
<stop stop-color="#3A9BE0"/>
<stop offset="0.2024" stop-color="#3D9DE1"/>
<stop offset="0.3446" stop-color="#46A2E3"/>
<stop offset="0.4683" stop-color="#56ABE8"/>
<stop offset="0.5808" stop-color="#6BB8EE"/>
<stop offset="0.668" stop-color="#82C5F5"/>
<stop offset="0.7499" stop-color="#7EC3F4"/>
<stop offset="0.8264" stop-color="#73BCF1"/>
<stop offset="0.9007" stop-color="#60B1EB"/>
<stop offset="0.9733" stop-color="#46A2E3"/>
<stop offset="1" stop-color="#3A9BE0"/>
</linearGradient>
<linearGradient id="paint80_linear" x1="1217.1" y1="566.483" x2="1190.73" y2="566.483" gradientUnits="userSpaceOnUse">
<stop offset="0.4171" stop-color="#82C5F5"/>
<stop offset="1" stop-color="#3A9BE0"/>
</linearGradient>
<linearGradient id="paint81_linear" x1="1180.02" y1="606.831" x2="1163.01" y2="589.502" gradientUnits="userSpaceOnUse">
<stop offset="0.603" stop-color="#CED5E0"/>
<stop offset="1" stop-color="#AFB5BF"/>
</linearGradient>
<linearGradient id="paint82_linear" x1="1161.26" y1="530.712" x2="1161.26" y2="538.608" gradientUnits="userSpaceOnUse">
<stop offset="0.4171" stop-color="#82C5F5"/>
<stop offset="1" stop-color="#3A9BE0"/>
</linearGradient>
<linearGradient id="paint83_linear" x1="1177.57" y1="537.419" x2="1165.5" y2="537.419" gradientUnits="userSpaceOnUse">
<stop offset="0.2238" stop-color="#E7EEF2"/>
<stop offset="0.2497" stop-color="#E4EBEF"/>
<stop offset="0.5667" stop-color="#C3CACD"/>
<stop offset="0.8281" stop-color="#AFB5B8"/>
<stop offset="1" stop-color="#A8AEB0"/>
</linearGradient>
<linearGradient id="paint84_linear" x1="1227.45" y1="534.087" x2="1223.5" y2="552.006" gradientUnits="userSpaceOnUse">
<stop offset="0.4268" stop-color="#FFCF7D"/>
<stop offset="1" stop-color="#F9B032"/>
</linearGradient>
<linearGradient id="paint85_linear" x1="1187.93" y1="549.706" x2="1185.96" y2="590.178" gradientUnits="userSpaceOnUse">
<stop offset="0.00415427" stop-color="#FC77A8"/>
<stop offset="0.3458" stop-color="#F370A1"/>
<stop offset="0.8989" stop-color="#DB5E8C"/>
<stop offset="1" stop-color="#D65A88"/>
</linearGradient>
<linearGradient id="paint86_linear" x1="1178.63" y1="567.678" x2="1163.35" y2="570.016" gradientUnits="userSpaceOnUse">
<stop offset="0.4812" stop-color="#82C5F5"/>
<stop offset="0.5842" stop-color="#6DB9EF"/>
<stop offset="0.7482" stop-color="#51A8E7"/>
<stop offset="0.8924" stop-color="#409EE2"/>
<stop offset="1" stop-color="#3A9BE0"/>
</linearGradient>
<linearGradient id="paint87_linear" x1="1196.01" y1="511.543" x2="1192.02" y2="593.504" gradientUnits="userSpaceOnUse">
<stop offset="0.00415427" stop-color="#FC77A8"/>
<stop offset="0.3458" stop-color="#F370A1"/>
<stop offset="0.8989" stop-color="#DB5E8C"/>
<stop offset="1" stop-color="#D65A88"/>
</linearGradient>
<linearGradient id="paint88_linear" x1="1240.2" y1="570.704" x2="1129.19" y2="570.704" gradientUnits="userSpaceOnUse">
<stop offset="0.4171" stop-color="#82C5F5"/>
<stop offset="1" stop-color="#3A9BE0"/>
</linearGradient>
<linearGradient id="paint89_linear" x1="1152.99" y1="550.374" x2="1141.06" y2="574.387" gradientUnits="userSpaceOnUse">
<stop offset="0.4171" stop-color="#82C5F5"/>
<stop offset="1" stop-color="#3A9BE0"/>
</linearGradient>
<linearGradient id="paint90_linear" x1="1232.63" y1="586.759" x2="1236.31" y2="591.478" gradientUnits="userSpaceOnUse">
<stop offset="0.2238" stop-color="#E7EEF2"/>
<stop offset="0.2497" stop-color="#E4EBEF"/>
<stop offset="0.5667" stop-color="#C3CACD"/>
<stop offset="0.8281" stop-color="#AFB5B8"/>
<stop offset="1" stop-color="#A8AEB0"/>
</linearGradient>
<linearGradient id="paint91_linear" x1="1140.28" y1="606.906" x2="1158.23" y2="589.983" gradientUnits="userSpaceOnUse">
<stop stop-color="#D1D8DB"/>
<stop offset="0.2546" stop-color="#E1E8EC"/>
<stop offset="0.4799" stop-color="#EAF1F5"/>
<stop offset="0.6808" stop-color="#E5ECF0"/>
<stop offset="0.9151" stop-color="#D8DFE2"/>
<stop offset="1" stop-color="#D1D8DB"/>
</linearGradient>
</defs>
</svg>
