<svg width="158" height="39" viewBox="0 0 158 39" fill="none" xmlns="http://www.w3.org/2000/svg">
<path d="M31.2599 0.545443L38.2183 7.55008C38.9462 8.28281 38.9462 9.46391 38.2129 10.1912L31.2545 17.1958C30.532 17.9231 29.3533 17.9231 28.6308 17.1958L23.1771 11.7058C22.7588 11.334 21.3302 10.2076 19.3909 10.2076C17.066 10.2076 15.4745 11.8261 15.4745 11.8261V11.8097L11.6721 15.6374C11.3516 15.9874 10.1402 17.4583 10.1402 19.4541C10.1402 21.4391 11.3353 22.9647 11.6612 23.3474L17.0823 28.8046C17.8048 29.5318 17.8048 30.7184 17.0823 31.4457L10.1239 38.4503C9.40147 39.1776 8.22272 39.1776 7.50026 38.4503L0.541844 31.4457C-0.180615 30.7184 -0.180615 29.5318 0.541844 28.8046L5.99559 23.3091C6.36497 22.8881 7.48396 21.45 7.48396 19.4979C7.48396 17.4637 6.27262 15.9874 5.95214 15.6374L0.541844 10.1912C-0.180615 9.46391 -0.180615 8.27734 0.541844 7.55008L7.50569 0.545443C8.22815 -0.181814 9.4069 -0.181814 10.1294 0.545443L15.4799 5.93152V5.91512C15.4799 5.91512 17.0715 7.53368 19.3529 7.53368C21.3193 7.53368 22.8349 6.33069 23.2151 6.00261L28.6362 0.545443C29.3587 -0.181814 30.5375 -0.181814 31.2599 0.545443Z" fill="#072C74"/>
<path d="M38.2185 28.8047L31.2601 21.8001C30.5322 21.0674 29.3589 21.0674 28.631 21.8001L21.6726 28.8047C20.9501 29.532 20.9501 30.7186 21.6726 31.4458L28.6365 38.4505C29.3589 39.1832 30.5377 39.1832 31.2601 38.4505L38.2185 31.4458C38.941 30.7186 38.941 29.532 38.2185 28.8047Z" fill="#072C74"/>
<path fill-rule="evenodd" clip-rule="evenodd" d="M58.632 30.9428H49.1912V7.25495H58.632C64.9984 7.28776 70.1153 12.5918 70.1153 19.0989C70.1153 25.6332 64.9984 30.91 58.632 30.9428ZM65.0961 19.0989C65.0961 15.2767 62.429 11.5201 58.5994 11.4545H54.2104V26.7378H58.5994C62.4616 26.7105 65.0961 22.9211 65.0961 19.0989Z" fill="#072C74"/>
<path d="M77.8016 24.4357C77.8016 20.6135 78.4318 18.5302 81.1912 18.5302C82.5112 18.5302 83.2934 19.3176 83.5107 19.5363L84.2006 15.7797C83.7008 15.1509 82.8534 14.6751 81.691 14.6751C79.529 14.6751 78.3014 15.7141 77.8016 17.4857V14.8337H72.94V30.9427H77.8016V24.4357Z" fill="#072C74"/>
<path fill-rule="evenodd" clip-rule="evenodd" d="M102.213 22.9211C102.213 28.1978 98.2912 31.1013 93.837 31.1013C89.3827 31.1013 85.4608 28.1978 85.4608 22.9211C85.4608 17.6498 89.3827 14.6806 93.837 14.6806C98.2912 14.6752 102.213 17.6443 102.213 22.9211ZM90.3224 22.9211C90.3224 25.4473 91.4849 27.2463 93.837 27.2463C96.189 27.2463 97.3515 25.4473 97.3515 22.9211C97.3515 20.362 96.189 18.5302 93.837 18.5302C91.4849 18.5302 90.3224 20.362 90.3224 22.9211Z" fill="#072C74"/>
<path fill-rule="evenodd" clip-rule="evenodd" d="M109.899 36.7827V28.7938C111.252 30.5928 113.447 31.1013 115.044 31.1013C118.993 31.1013 122.1 28.0064 122.1 22.8882C122.1 17.4529 118.998 14.6751 115.044 14.6751C113.447 14.6751 111.247 15.1837 109.899 16.9827V14.8337H105.038V36.7827H109.899ZM113.571 27.2463C111.219 27.2463 109.899 25.4473 109.899 22.8882C109.899 20.362 111.219 18.5302 113.571 18.5302C115.924 18.5302 117.244 20.362 117.244 22.8882C117.244 25.4473 115.924 27.2463 113.571 27.2463Z" fill="#072C74"/>
<path fill-rule="evenodd" clip-rule="evenodd" d="M128.852 24.3701C128.852 26.2019 130.639 27.2408 132.426 27.2408C133.681 27.2408 135.126 26.7378 136.066 25.7262L138.95 28.411C137.255 30.0842 135.093 31.0958 132.171 31.0958C127.086 31.0958 123.985 27.465 123.985 22.8554C123.985 18.2458 127.092 14.6751 131.888 14.6751C136.783 14.6751 139.824 18.1802 139.824 22.8554V24.4685L128.852 24.3701ZM131.894 18.5302C130.199 18.5302 128.852 19.6675 128.852 21.4064H134.968C134.968 19.6675 133.654 18.5302 131.894 18.5302Z" fill="#072C74"/>
<path d="M152.666 30.9428H158L152.193 22.8554L158 14.8337H152.666L149.369 19.7277L146.109 14.8337H140.775L146.609 22.8554L140.775 30.9428H146.142L149.401 26.016L152.666 30.9428Z" fill="#072C74"/>
</svg>
