<svg width="305" height="515" viewBox="0 0 305 515" fill="none" xmlns="http://www.w3.org/2000/svg">
<path d="M235.727 192.836C238.246 188.939 242.98 187.675 247.111 190.624C251.241 193.679 253.155 194.732 257.285 192.836C261.415 190.835 264.538 194.943 266.351 196.944C268.165 198.945 273 202 273 202H232L235.727 192.836Z" fill="url(#paint0_linear)"/>
<path d="M189 26H317C317 26 290.902 24.8353 282.902 13.706C274.902 2.44731 269.787 0.247332 266.377 5.03552C262.967 9.8237 261.525 14.7413 256.672 14.3531C251.82 13.9648 251.557 6.71785 248.148 4.51787C244.738 2.3179 242.771 7.3649 239.885 9.56488C237 11.7649 233.984 7.3649 230.836 2.70613C227.689 -1.95265 222.836 -0.52913 217.459 6.45903C212.082 13.4472 208.41 16.2942 204.344 19.4001C200.279 22.5059 189 26 189 26Z" fill="url(#paint1_linear)"/>
<path d="M0 157H57C57 157 49.9774 153.635 44.7105 146.008C40.4969 139.84 36.7515 139.952 33.9425 143.204C31.9528 145.672 30.4312 147.466 28.4415 146.008C26.4518 144.438 24.2279 141.634 21.5359 142.98C18.961 144.326 19.3121 149.261 16.5031 148.812C13.694 148.364 12.0554 146.569 8.31007 150.046C4.56469 153.523 0 157 0 157Z" fill="url(#paint2_linear)"/>
<path d="M135.047 452.168H97.823V522.094H135.047V452.168Z" fill="#F9A932"/>
<path d="M176.329 435.006H135.047V469.447H176.329V435.006Z" fill="url(#paint3_linear)"/>
<path d="M198.247 435.006H176.214V469.447H198.247V435.006Z" fill="url(#paint4_linear)"/>
<path d="M177.721 469.331H124.031V522.094H177.721V469.331Z" fill="#FFCF7D"/>
<path d="M203.117 522.094H177.721V469.331H203.117V522.094Z" fill="url(#paint5_linear)"/>
<path d="M124.031 478.492V469.331H146.643" stroke="#6D737D" stroke-width="0.7" stroke-miterlimit="10" stroke-linecap="round" stroke-linejoin="round"/>
<path d="M124.031 522.094V506.903" stroke="#6D737D" stroke-width="0.7" stroke-miterlimit="10" stroke-linecap="round" stroke-linejoin="round"/>
<path d="M280 488.233H256.344V521.978H280V488.233Z" fill="#F9A932"/>
<path d="M256.344 488.233H192.796V522.094H256.344V488.233Z" fill="url(#paint6_linear)"/>
<path d="M71.8474 485.218H45.9878V522.094H71.8474V485.218Z" fill="url(#paint7_linear)"/>
<path d="M46.1038 485.218H8.30005V522.094H46.1038V485.218Z" fill="#FFCF7D"/>
<path d="M250.198 450.081H210.654V488.117H250.198V450.081Z" fill="#FFCF7D"/>
<path d="M273.042 488.233L250.198 488.117V450.081H273.042V488.233Z" fill="url(#paint8_linear)"/>
<path d="M250.198 488.117L272.23 451.357" stroke="#6D737D" stroke-width="0.7" stroke-miterlimit="10" stroke-linecap="round" stroke-linejoin="round"/>
<path d="M250.893 451.357L272.23 486.957" stroke="#6D737D" stroke-width="0.7" stroke-miterlimit="10" stroke-linecap="round" stroke-linejoin="round"/>
<path d="M174.822 436.282L136.438 468.287" stroke="#6D737D" stroke-width="0.7" stroke-miterlimit="10" stroke-linecap="round" stroke-linejoin="round"/>
<path d="M136.438 436.282L174.822 468.287" stroke="#6D737D" stroke-width="0.7" stroke-miterlimit="10" stroke-linecap="round" stroke-linejoin="round"/>
<path d="M45.1761 486.146L9.22772 521.282" stroke="#6D737D" stroke-width="0.7" stroke-miterlimit="10" stroke-linecap="round" stroke-linejoin="round"/>
<path d="M9.22772 486.146L45.1761 521.282" stroke="#6D737D" stroke-width="0.7" stroke-miterlimit="10" stroke-linecap="round" stroke-linejoin="round"/>
<path d="M276.869 492.639L257.039 520.818" stroke="#6D737D" stroke-width="0.7" stroke-miterlimit="10" stroke-linecap="round" stroke-linejoin="round"/>
<path d="M256.344 488.233L272.462 511.077" stroke="#6D737D" stroke-width="0.7" stroke-miterlimit="10" stroke-linecap="round" stroke-linejoin="round"/>
<path d="M197.667 488.233H276.521" stroke="#6D737D" stroke-width="0.7" stroke-miterlimit="10" stroke-linecap="round" stroke-linejoin="round"/>
<path d="M256.344 488.233V499.713" stroke="#6D737D" stroke-width="0.7" stroke-miterlimit="10" stroke-linecap="round" stroke-linejoin="round"/>
<path d="M97.823 472.462V462.953" stroke="#6D737D" stroke-width="0.7" stroke-miterlimit="10" stroke-linecap="round" stroke-linejoin="round"/>
<path d="M177.721 522.094V501.336" stroke="#6D737D" stroke-width="0.7" stroke-miterlimit="10" stroke-linecap="round" stroke-linejoin="round"/>
<path d="M192.796 521.978V514.44" stroke="#6D737D" stroke-width="0.7" stroke-miterlimit="10" stroke-linecap="round" stroke-linejoin="round"/>
<path d="M176.098 470.954L125.654 520.47" stroke="#6D737D" stroke-width="0.7" stroke-miterlimit="10" stroke-linecap="round" stroke-linejoin="round"/>
<path d="M125.654 470.954L176.214 520.586" stroke="#6D737D" stroke-width="0.7" stroke-miterlimit="10" stroke-linecap="round" stroke-linejoin="round"/>
<path d="M135.047 469.331V462.953" stroke="#6D737D" stroke-width="0.7" stroke-miterlimit="10" stroke-linecap="round" stroke-linejoin="round"/>
<path d="M97.823 522.094V513.977" stroke="#6D737D" stroke-width="0.7" stroke-miterlimit="10" stroke-linecap="round" stroke-linejoin="round"/>
<defs>
<linearGradient id="paint0_linear" x1="252.164" y1="193.107" x2="252.391" y2="198.521" gradientUnits="userSpaceOnUse">
<stop offset="0.000578704" stop-color="#E3F8FC"/>
<stop offset="1" stop-color="#AFEBF6"/>
</linearGradient>
<linearGradient id="paint1_linear" x1="252.555" y1="11.0733" x2="252.821" y2="21.6011" gradientUnits="userSpaceOnUse">
<stop offset="0.000578704" stop-color="#E3F8FC"/>
<stop offset="1" stop-color="#AFEBF6"/>
</linearGradient>
<linearGradient id="paint2_linear" x1="28.2664" y1="148.065" x2="28.4168" y2="154.183" gradientUnits="userSpaceOnUse">
<stop offset="0.000578704" stop-color="#E3F8FC"/>
<stop offset="1" stop-color="#AFEBF6"/>
</linearGradient>
<linearGradient id="paint3_linear" x1="155.364" y1="447.696" x2="156.606" y2="469.625" gradientUnits="userSpaceOnUse">
<stop offset="0.4268" stop-color="#FFCB7D"/>
<stop offset="1" stop-color="#F9B032"/>
</linearGradient>
<linearGradient id="paint4_linear" x1="196.938" y1="438.692" x2="182.631" y2="458.779" gradientUnits="userSpaceOnUse">
<stop offset="0.4268" stop-color="#FFC061"/>
<stop offset="1" stop-color="#F9A932"/>
</linearGradient>
<linearGradient id="paint5_linear" x1="208.94" y1="473.508" x2="191.422" y2="494.53" gradientUnits="userSpaceOnUse">
<stop offset="0.4268" stop-color="#FFC061"/>
<stop offset="1" stop-color="#F9A932"/>
</linearGradient>
<linearGradient id="paint6_linear" x1="224.63" y1="509.067" x2="224.966" y2="524.821" gradientUnits="userSpaceOnUse">
<stop offset="0.4268" stop-color="#FFC061"/>
<stop offset="1" stop-color="#F9A932"/>
</linearGradient>
<linearGradient id="paint7_linear" x1="82.7067" y1="492.577" x2="53.4779" y2="506.273" gradientUnits="userSpaceOnUse">
<stop offset="0.4268" stop-color="#FFC061"/>
<stop offset="1" stop-color="#F9A932"/>
</linearGradient>
<linearGradient id="paint8_linear" x1="274.326" y1="469.126" x2="266.896" y2="469.126" gradientUnits="userSpaceOnUse">
<stop offset="0.4268" stop-color="#FFC061"/>
<stop offset="1" stop-color="#F9A932"/>
</linearGradient>
</defs>
</svg>
