<svg width="1611" height="403" viewBox="0 0 1611 403" fill="none" xmlns="http://www.w3.org/2000/svg">
<path d="M0 299.7H58.2C58.2 299.7 51.2 289.3 44.3 285.8C37.3 282.3 32.9 288.8 29.9 290.3C26.9 291.8 21.9 287.9 18.5 288.3C12.1 289 0 299.7 0 299.7Z" fill="url(#paint0_linear)"/>
<path d="M1042.5 95.8H1225.4C1225.4 95.8 1210.4 90.2 1201 81.9C1191.6 73.6 1183.8 62.8 1172.5 64.7C1161.3 66.6 1151.9 79.5 1146.7 80.1C1141.5 80.8 1138.1 73.3 1134 71.4C1129.9 69.5 1123.1 71.4 1117.5 77C1111.9 82.6 1107.4 87.1 1102.5 83.4C1097.6 79.7 1093.9 73.7 1082.6 76.7C1071.4 79.7 1069 84 1063.1 87.6C1053.8 93.2 1042.5 95.8 1042.5 95.8Z" fill="url(#paint1_linear)"/>
<path d="M1610.4 243.1H1532C1532 243.1 1551.2 238.4 1556 235.7C1560.8 232.9 1566.9 235.1 1568.8 235.7C1570.7 236.3 1572 233.8 1575.7 231.3C1579.4 228.8 1587.7 232.1 1591.2 234.3C1594.6 236.5 1610.4 243.1 1610.4 243.1Z" fill="url(#paint2_linear)"/>
<path d="M332 203.7H197.4C197.4 203.7 215.5 195.2 222.3 191.2C229.1 187.2 233.4 191.7 236.6 192.6C239.8 193.4 242.5 186.4 246.3 182.6C250.1 178.8 256.8 184.5 260.1 186.9C263.3 189.3 266 186.8 271.5 181.3C276.9 175.8 287.4 178.2 294.5 184.2C301.5 190 332 203.7 332 203.7Z" fill="url(#paint3_linear)"/>
<path d="M284.3 402.3H316.8C316.8 402.3 312.9 396.5 309 394.5C305.1 392.6 302.6 396.2 300.9 397C299.2 397.8 296.4 395.7 294.5 395.9C291.1 396.3 284.3 402.3 284.3 402.3Z" fill="url(#paint4_linear)"/>
<path d="M1288.2 325.4H1241.9C1241.9 325.4 1247.4 317.1 1253 314.3C1258.6 311.5 1262.1 316.7 1264.5 317.9C1266.9 319.1 1270.9 316 1273.6 316.3C1278.6 316.8 1288.2 325.4 1288.2 325.4Z" fill="url(#paint5_linear)"/>
<path d="M1515.7 382.8H1548.2C1548.2 382.8 1544.3 377 1540.4 375C1536.5 373.1 1534 376.7 1532.3 377.5C1530.6 378.3 1527.8 376.2 1525.9 376.4C1522.4 376.8 1515.7 382.8 1515.7 382.8Z" fill="url(#paint6_linear)"/>
<path d="M510.4 32.3H636C636 32.3 621 9.80002 605.9 2.20002C590.9 -5.29998 581.2 8.60001 574.8 11.9C568.4 15.2 557.6 6.80001 550.1 7.60002C536.5 9.10002 510.4 32.3 510.4 32.3Z" fill="url(#paint7_linear)"/>
<defs>
<linearGradient id="paint0_linear" x1="29.3336" y1="291.125" x2="29.1816" y2="297.055" gradientUnits="userSpaceOnUse">
<stop offset="0.000578704" stop-color="#E3F8FC"/>
<stop offset="1" stop-color="#AFEBF6"/>
</linearGradient>
<linearGradient id="paint1_linear" x1="1133.53" y1="79.074" x2="1133.84" y2="91.1752" gradientUnits="userSpaceOnUse">
<stop offset="0.000578704" stop-color="#E3F8FC"/>
<stop offset="1" stop-color="#AFEBF6"/>
</linearGradient>
<linearGradient id="paint2_linear" x1="1571.35" y1="235.96" x2="1571.21" y2="241.139" gradientUnits="userSpaceOnUse">
<stop offset="0.000578704" stop-color="#E3F8FC"/>
<stop offset="1" stop-color="#AFEBF6"/>
</linearGradient>
<linearGradient id="paint3_linear" x1="265.078" y1="189.209" x2="264.815" y2="199.47" gradientUnits="userSpaceOnUse">
<stop offset="0.000578704" stop-color="#E3F8FC"/>
<stop offset="1" stop-color="#AFEBF6"/>
</linearGradient>
<linearGradient id="paint4_linear" x1="300.713" y1="397.46" x2="300.628" y2="400.773" gradientUnits="userSpaceOnUse">
<stop offset="0.000578704" stop-color="#E3F8FC"/>
<stop offset="1" stop-color="#AFEBF6"/>
</linearGradient>
<linearGradient id="paint5_linear" x1="1264.89" y1="318.551" x2="1265.01" y2="323.275" gradientUnits="userSpaceOnUse">
<stop offset="0.000578704" stop-color="#E3F8FC"/>
<stop offset="1" stop-color="#AFEBF6"/>
</linearGradient>
<linearGradient id="paint6_linear" x1="1532.07" y1="378.023" x2="1531.99" y2="381.336" gradientUnits="userSpaceOnUse">
<stop offset="0.000578704" stop-color="#E3F8FC"/>
<stop offset="1" stop-color="#AFEBF6"/>
</linearGradient>
<linearGradient id="paint7_linear" x1="573.728" y1="13.6753" x2="573.399" y2="26.4822" gradientUnits="userSpaceOnUse">
<stop offset="0.000578704" stop-color="#E3F8FC"/>
<stop offset="1" stop-color="#AFEBF6"/>
</linearGradient>
</defs>
</svg>
