<svg width="22" height="11" viewBox="0 0 22 11" fill="none" xmlns="http://www.w3.org/2000/svg">
<g opacity="0.5">
<path fill-rule="evenodd" clip-rule="evenodd" d="M20.5 4.8C17.9 2.3 14.5 1 10.9 1C7.3 1 3.9 2.3 1.3 4.8C1.1 5 1 5.2 1 5.5C1 5.8 1.1 6 1.4 6.2C4 8.7 7.4 10 11 10C14.6 10 18 8.6 20.6 6.2C20.8 6 20.8 5.8 20.8 5.5C20.8 5.2 20.7 5 20.5 4.8ZM0.6 4.1C3.3 1.5 6.9 0 10.9 0C14.9 0 18.6 1.5 21.2 4C22 4.8 22 6.1 21.2 6.9C18.5 9.5 14.9 11 10.9 11C6.9 11 3.3 9.5 0.6 7C-0.2 6.2 -0.2 4.9 0.6 4.1ZM14.4 5.5C14.4 7.433 12.833 9 10.9 9C8.96703 9 7.40002 7.433 7.40002 5.5C7.40002 3.567 8.96703 2 10.9 2C12.833 2 14.4 3.567 14.4 5.5Z" fill="#072C74"/>
</g>
</svg>
