<svg width="22" height="11" viewBox="0 0 22 11" fill="none" xmlns="http://www.w3.org/2000/svg">
<path opacity="0.5" fill-rule="evenodd" clip-rule="evenodd" d="M0.194623 0.104133C0.413267 -0.0645354 0.727247 -0.024022 0.895916 0.194623C3.5216 3.59828 7.08554 5.60002 10.9 5.60002C14.7185 5.60002 18.3813 3.59453 21.0041 0.194623C21.1728 -0.024022 21.4868 -0.0645354 21.7054 0.104133C21.9241 0.272802 21.9646 0.586782 21.7959 0.805426C21.1435 1.6512 20.427 2.4194 19.6584 3.09979L21.7797 5.57463C21.9594 5.78429 21.9351 6.09994 21.7254 6.27965C21.5158 6.45936 21.2001 6.43508 21.0204 6.22542L18.8886 3.73829C17.6008 4.73759 16.1884 5.50154 14.7007 5.98772L15.6812 9.46429C15.7562 9.73007 15.6015 10.0063 15.3358 10.0813C15.07 10.1562 14.7938 10.0015 14.7188 9.73575L13.7386 6.26057C12.8128 6.48366 11.8629 6.60002 10.9 6.60002C9.96526 6.60002 9.04792 6.49038 8.15595 6.28L7.18125 9.73575C7.10629 10.0015 6.83007 10.1562 6.56429 10.0813C6.29852 10.0063 6.14384 9.73007 6.2188 9.46429L7.19286 6.01082C5.70001 5.52746 4.28987 4.75867 3.0022 3.74912L0.879653 6.22542C0.699942 6.43508 0.384292 6.45936 0.174629 6.27965C-0.0350342 6.09994 -0.059315 5.78429 0.120396 5.57463L2.23564 3.10684C1.47228 2.42453 0.758658 1.65388 0.104133 0.805426C-0.0645354 0.586782 -0.024022 0.272802 0.194623 0.104133Z" fill="#072C74"/>
</svg>
