<?xml version="1.0" encoding="utf-8"?>
<!-- Generator: Adobe Illustrator 21.1.0, SVG Export Plug-In . SVG Version: 6.00 Build 0)  -->
<svg version="1.1" id="Слой_1" xmlns="http://www.w3.org/2000/svg" xmlns:xlink="http://www.w3.org/1999/xlink" x="0px" y="0px"
	 width="1817.9px" height="1157.9px" viewBox="0 0 1817.9 1157.9" style="enable-background:new 0 0 1817.9 1157.9;"
	 xml:space="preserve">
<style type="text/css">
	.st0{fill:url(#SVGID_1_);}
	.st1{fill:url(#SVGID_2_);}
	.st2{fill:url(#SVGID_3_);}
	.st3{fill:url(#SVGID_4_);}
	.st4{fill:url(#SVGID_5_);}
	.st5{fill:url(#SVGID_6_);}
	.st6{fill:url(#SVGID_7_);}
	.st7{fill:url(#SVGID_8_);}
	.st8{fill:url(#SVGID_9_);}
	.st9{fill:url(#SVGID_10_);}
	.st10{fill:url(#SVGID_11_);}
	.st11{fill:url(#SVGID_12_);}
	.st12{fill:url(#SVGID_13_);}
	.st13{fill:url(#SVGID_14_);}
	.st14{fill:url(#SVGID_15_);}
	.st15{fill:url(#SVGID_16_);}
	.st16{fill:url(#SVGID_17_);}
	.st17{fill:url(#SVGID_18_);}
	.st18{fill:url(#SVGID_19_);}
	.st19{fill:url(#SVGID_20_);}
	.st20{fill:url(#SVGID_21_);}
	.st21{fill:url(#SVGID_22_);}
	.st22{fill:url(#SVGID_23_);}
	.st23{fill:url(#SVGID_24_);}
	.st24{fill:url(#SVGID_25_);}
	.st25{fill:url(#SVGID_26_);}
	.st26{fill:url(#SVGID_27_);}
	.st27{fill:url(#SVGID_28_);}
	.st28{fill:url(#SVGID_29_);}
	.st29{fill:url(#SVGID_30_);}
	.st30{fill:url(#SVGID_31_);}
	.st31{fill:url(#SVGID_32_);}
	.st32{fill:url(#SVGID_33_);}
</style>
<linearGradient id="SVGID_1_" gradientUnits="userSpaceOnUse" x1="799.8671" y1="474.6623" x2="799.8671" y2="466.8571">
	<stop  offset="5.787040e-04" style="stop-color:#E3F8FC"/>
	<stop  offset="1" style="stop-color:#AFEBF6"/>
</linearGradient>
<path class="st0" d="M830.3,477.6h-60.8c0,0,6-3.9,9.4-7c3.4-3.1,8.2-5.9,13.7-4.2c5.7,1.7,9.6,7.5,13.8,7.7
	c4.2,0.2,5.5-2.8,9.5-3.5c4-0.6,6.8,2.2,9.1,4.5C827.3,477.5,830.3,477.6,830.3,477.6z"/>
<linearGradient id="SVGID_2_" gradientUnits="userSpaceOnUse" x1="288.6724" y1="430.5388" x2="288.6724" y2="421.204">
	<stop  offset="5.787040e-04" style="stop-color:#E3F8FC"/>
	<stop  offset="1" style="stop-color:#AFEBF6"/>
</linearGradient>
<path class="st1" d="M321.2,434c0,0-54.3,0-61.3,0c-7.1,0-3.5-14,7.1-14c10.6,0,15.5,2.9,20.3,5.4c4.9,2.6,8.7,0.7,16.5,1.6
	C311.4,427.8,321.2,434,321.2,434z"/>
<linearGradient id="SVGID_3_" gradientUnits="userSpaceOnUse" x1="1267.9246" y1="407.1828" x2="1267.9246" y2="401.6439">
	<stop  offset="5.787040e-04" style="stop-color:#E3F8FC"/>
	<stop  offset="1" style="stop-color:#AFEBF6"/>
</linearGradient>
<path class="st2" d="M1287.3,409.3c0,0-32.3,0-36.5,0c-4.2,0-2.1-8.3,4.2-8.3c6.3,0,9.2,1.7,12.1,3.2c2.9,1.5,5.2,0.4,9.8,0.9
	S1287.3,409.3,1287.3,409.3z"/>
<linearGradient id="SVGID_4_" gradientUnits="userSpaceOnUse" x1="603.767" y1="13.4423" x2="603.767" y2="1.8185">
	<stop  offset="5.787040e-04" style="stop-color:#E3F8FC"/>
	<stop  offset="1" style="stop-color:#AFEBF6"/>
</linearGradient>
<path class="st3" d="M644.3,17.8c0,0-67.6,0-76.4,0c-8.8,0-4.4-17.4,8.8-17.4c13.2,0,19.3,3.7,25.3,6.7c6.1,3.2,10.9,0.9,20.5,1.9
	C632.1,10.1,644.3,17.8,644.3,17.8z"/>
<linearGradient id="SVGID_5_" gradientUnits="userSpaceOnUse" x1="172.4171" y1="144.0408" x2="172.4171" y2="128.2725">
	<stop  offset="5.787040e-04" style="stop-color:#E3F8FC"/>
	<stop  offset="1" style="stop-color:#AFEBF6"/>
</linearGradient>
<path class="st4" d="M239.7,150H105.2c0,0,11.1-4.2,17.9-10.4c6.9-6.2,12.7-14.4,20.9-13c8.2,1.4,15.2,11.2,19,11.7
	c3.9,0.5,6.3-5.1,9.4-6.6c3-1.4,8,0,12.1,4.2c4.1,4.2,7.4,7.6,11,4.8c3.6-2.8,6.3-7.4,14.6-5.1s10,5.5,14.3,8.2
	C231.3,148,239.7,150,239.7,150z"/>
<linearGradient id="SVGID_6_" gradientUnits="userSpaceOnUse" x1="37.3671" y1="255.3525" x2="37.3671" y2="246.264">
	<stop  offset="5.787040e-04" style="stop-color:#E3F8FC"/>
	<stop  offset="1" style="stop-color:#AFEBF6"/>
</linearGradient>
<path class="st5" d="M69.9,258.8h-65c0,0,5.7-2.3,10.8-8.1c5.1-5.8,9.6-7.2,14-3.3c2.9,2.7,7.4,6.2,10.6,3.2c3.2-3.1,6.8-6.5,11-5.1
	c4.8,1.6,6.7,6.1,10.8,9.7C66.1,258.8,69.9,258.8,69.9,258.8z"/>
<linearGradient id="SVGID_7_" gradientUnits="userSpaceOnUse" x1="800.8671" y1="476.6623" x2="800.8671" y2="468.8571">
	<stop  offset="5.787040e-04" style="stop-color:#E3F8FC"/>
	<stop  offset="1" style="stop-color:#AFEBF6"/>
</linearGradient>
<path class="st6" d="M831.3,479.6h-60.8c0,0,6-3.9,9.4-7c3.4-3.1,8.2-5.9,13.7-4.2c5.7,1.7,9.6,7.5,13.8,7.7
	c4.2,0.2,5.5-2.8,9.5-3.5c4-0.6,6.8,2.2,9.1,4.5C828.3,479.5,831.3,479.6,831.3,479.6z"/>
<linearGradient id="SVGID_8_" gradientUnits="userSpaceOnUse" x1="289.6724" y1="432.5388" x2="289.6724" y2="423.204">
	<stop  offset="5.787040e-04" style="stop-color:#E3F8FC"/>
	<stop  offset="1" style="stop-color:#AFEBF6"/>
</linearGradient>
<path class="st7" d="M322.2,436c0,0-54.3,0-61.3,0c-7.1,0-3.5-14,7.1-14c10.6,0,15.5,2.9,20.3,5.4c4.9,2.6,8.7,0.7,16.5,1.6
	C312.4,429.8,322.2,436,322.2,436z"/>
<linearGradient id="SVGID_9_" gradientUnits="userSpaceOnUse" x1="1268.9246" y1="409.1828" x2="1268.9246" y2="403.6439">
	<stop  offset="5.787040e-04" style="stop-color:#E3F8FC"/>
	<stop  offset="1" style="stop-color:#AFEBF6"/>
</linearGradient>
<path class="st8" d="M1288.3,411.3c0,0-32.3,0-36.5,0c-4.2,0-2.1-8.3,4.2-8.3c6.3,0,9.2,1.7,12.1,3.2c2.9,1.5,5.2,0.4,9.8,0.9
	S1288.3,411.3,1288.3,411.3z"/>
<linearGradient id="SVGID_10_" gradientUnits="userSpaceOnUse" x1="604.767" y1="15.4423" x2="604.767" y2="3.8185">
	<stop  offset="5.787040e-04" style="stop-color:#E3F8FC"/>
	<stop  offset="1" style="stop-color:#AFEBF6"/>
</linearGradient>
<path class="st9" d="M645.3,19.8c0,0-67.6,0-76.4,0c-8.8,0-4.4-17.4,8.8-17.4c13.2,0,19.3,3.7,25.3,6.7c6.1,3.2,10.9,0.9,20.5,1.9
	C633.1,12.1,645.3,19.8,645.3,19.8z"/>
<linearGradient id="SVGID_11_" gradientUnits="userSpaceOnUse" x1="173.4171" y1="146.0408" x2="173.4171" y2="130.2725">
	<stop  offset="5.787040e-04" style="stop-color:#E3F8FC"/>
	<stop  offset="1" style="stop-color:#AFEBF6"/>
</linearGradient>
<path class="st10" d="M240.7,152H106.2c0,0,11.1-4.2,17.9-10.4c6.9-6.2,12.7-14.4,20.9-13c8.2,1.4,15.2,11.2,19,11.7
	c3.9,0.5,6.3-5.1,9.4-6.6c3-1.4,8,0,12.1,4.2c4.1,4.2,7.4,7.6,11,4.8c3.6-2.8,6.3-7.4,14.6-5.1s10,5.5,14.3,8.2
	C232.3,150,240.7,152,240.7,152z"/>
<linearGradient id="SVGID_12_" gradientUnits="userSpaceOnUse" x1="38.3671" y1="257.3525" x2="38.3671" y2="248.264">
	<stop  offset="5.787040e-04" style="stop-color:#E3F8FC"/>
	<stop  offset="1" style="stop-color:#AFEBF6"/>
</linearGradient>
<path class="st11" d="M70.9,260.8h-65c0,0,5.7-2.3,10.8-8.1c5.1-5.8,9.6-7.2,14-3.3c2.9,2.7,7.4,6.2,10.6,3.2
	c3.2-3.1,6.8-6.5,11-5.1c4.8,1.6,6.7,6.1,10.8,9.7C67.1,260.8,70.9,260.8,70.9,260.8z"/>
<linearGradient id="SVGID_13_" gradientUnits="userSpaceOnUse" x1="998.1972" y1="233.4592" x2="998.1972" y2="205.4253" gradientTransform="matrix(1 0 0 -1 0 478.5953)">
	<stop  offset="5.787040e-04" style="stop-color:#E3F8FC"/>
	<stop  offset="1" style="stop-color:#AFEBF6"/>
</linearGradient>
<path class="st12" d="M1091.2,276.6h-186c0,0,19.4-3.2,33.5-13c10.4-7.5,15.6-16.3,21.3-23c6.3-7.5,17.5-8.3,24.2-0.4
	c6.7,7.9,14.1,15.2,20.8,14.2c6.5-0.8,9.4-4.5,15.8-12.4c7.9-9.6,20.6-9.8,28.3,0.6c7.7,10.4,16.9,19.3,24.2,24.8
	C1080.4,273.2,1091.2,276.6,1091.2,276.6z"/>
<linearGradient id="SVGID_14_" gradientUnits="userSpaceOnUse" x1="800.8671" y1="475.6623" x2="800.8671" y2="467.8571">
	<stop  offset="5.787040e-04" style="stop-color:#E3F8FC"/>
	<stop  offset="1" style="stop-color:#AFEBF6"/>
</linearGradient>
<path class="st13" d="M831.3,478.6h-60.8c0,0,6-3.9,9.4-7c3.4-3.1,8.2-5.9,13.7-4.2c5.7,1.7,9.6,7.5,13.8,7.7
	c4.2,0.2,5.5-2.8,9.5-3.5c4-0.6,6.8,2.2,9.1,4.5C828.3,478.5,831.3,478.6,831.3,478.6z"/>
<linearGradient id="SVGID_15_" gradientUnits="userSpaceOnUse" x1="289.6724" y1="431.5388" x2="289.6724" y2="422.204">
	<stop  offset="5.787040e-04" style="stop-color:#E3F8FC"/>
	<stop  offset="1" style="stop-color:#AFEBF6"/>
</linearGradient>
<path class="st14" d="M322.2,435c0,0-54.3,0-61.3,0c-7.1,0-3.5-14,7.1-14c10.6,0,15.5,2.9,20.3,5.4c4.9,2.6,8.7,0.7,16.5,1.6
	C312.4,428.8,322.2,435,322.2,435z"/>
<linearGradient id="SVGID_16_" gradientUnits="userSpaceOnUse" x1="1268.9246" y1="408.1828" x2="1268.9246" y2="402.6439">
	<stop  offset="5.787040e-04" style="stop-color:#E3F8FC"/>
	<stop  offset="1" style="stop-color:#AFEBF6"/>
</linearGradient>
<path class="st15" d="M1288.3,410.3c0,0-32.3,0-36.5,0c-4.2,0-2.1-8.3,4.2-8.3c6.3,0,9.2,1.7,12.1,3.2c2.9,1.5,5.2,0.4,9.8,0.9
	S1288.3,410.3,1288.3,410.3z"/>
<linearGradient id="SVGID_17_" gradientUnits="userSpaceOnUse" x1="604.767" y1="14.4423" x2="604.767" y2="2.8185">
	<stop  offset="5.787040e-04" style="stop-color:#E3F8FC"/>
	<stop  offset="1" style="stop-color:#AFEBF6"/>
</linearGradient>
<path class="st16" d="M645.3,18.8c0,0-67.6,0-76.4,0c-8.8,0-4.4-17.4,8.8-17.4c13.2,0,19.3,3.7,25.3,6.7c6.1,3.2,10.9,0.9,20.5,1.9
	C633.1,11.1,645.3,18.8,645.3,18.8z"/>
<linearGradient id="SVGID_18_" gradientUnits="userSpaceOnUse" x1="173.4171" y1="145.0408" x2="173.4171" y2="129.2725">
	<stop  offset="5.787040e-04" style="stop-color:#E3F8FC"/>
	<stop  offset="1" style="stop-color:#AFEBF6"/>
</linearGradient>
<path class="st17" d="M240.7,151H106.2c0,0,11.1-4.2,17.9-10.4c6.9-6.2,12.7-14.4,20.9-13c8.2,1.4,15.2,11.2,19,11.7
	c3.9,0.5,6.3-5.1,9.4-6.6c3-1.4,8,0,12.1,4.2c4.1,4.2,7.4,7.6,11,4.8c3.6-2.8,6.3-7.4,14.6-5.1s10,5.5,14.3,8.2
	C232.3,149,240.7,151,240.7,151z"/>
<linearGradient id="SVGID_19_" gradientUnits="userSpaceOnUse" x1="38.3671" y1="256.3525" x2="38.3671" y2="247.264">
	<stop  offset="5.787040e-04" style="stop-color:#E3F8FC"/>
	<stop  offset="1" style="stop-color:#AFEBF6"/>
</linearGradient>
<path class="st18" d="M70.9,259.8h-65c0,0,5.7-2.3,10.8-8.1c5.1-5.8,9.6-7.2,14-3.3c2.9,2.7,7.4,6.2,10.6,3.2
	c3.2-3.1,6.8-6.5,11-5.1c4.8,1.6,6.7,6.1,10.8,9.7C67.1,259.8,70.9,259.8,70.9,259.8z"/>
<linearGradient id="SVGID_20_" gradientUnits="userSpaceOnUse" x1="1322.0212" y1="997.0687" x2="1322.0212" y2="677.241">
	<stop  offset="5.787040e-04" style="stop-color:#E3F8FC"/>
	<stop  offset="1" style="stop-color:#AFEBF6"/>
</linearGradient>
<path class="st19" d="M2217.1,772.4h-186c0,0,19.4-3.2,33.5-13c10.4-7.5,15.6-16.3,21.4-23c6.3-7.5,17.5-8.3,24.2-0.4
	c6.7,7.9,14.1,15.2,20.8,14.2c6.5-0.8,9.4-4.5,15.8-12.4c7.9-9.6,20.6-9.8,28.3,0.6c7.7,10.4,16.9,19.3,24.2,24.8
	C2206.3,769,2217.1,772.4,2217.1,772.4z M1355.7,1115.3h-60.8c0,0,6-3.9,9.4-7c3.4-3.1,8.2-5.9,13.7-4.2c5.7,1.7,9.6,7.5,13.8,7.7
	c4.2,0.2,5.5-2.8,9.5-3.5c4-0.6,6.8,2.2,9.1,4.5C1352.7,1115.2,1355.7,1115.3,1355.7,1115.3z M956.1,993.8c0,0-54.3,0-61.3,0
	s-3.5-14,7.1-14c10.6,0,15.5,2.9,20.3,5.4c4.9,2.6,8.7,0.7,16.5,1.6C946.3,987.6,956.1,993.8,956.1,993.8z M1812.7,1047
	c0,0-32.3,0-36.5,0c-4.2,0-2.1-8.3,4.2-8.3c6.3,0,9.2,1.7,12.1,3.2c2.9,1.5,5.2,0.4,9.8,0.9C1806.9,1043.3,1812.7,1047,1812.7,1047z
	 M1169.7,655.6c0,0-67.6,0-76.4,0c-8.8,0-4.4-17.4,8.8-17.4s19.3,3.7,25.3,6.7c6.1,3.2,10.9,0.9,20.5,1.9S1169.7,655.6,1169.7,655.6
	z M765.1,787.7H630.6c0,0,11.1-4.2,17.9-10.4c6.9-6.2,12.7-14.4,20.9-13c8.2,1.4,15.2,11.2,19,11.7c3.9,0.5,6.3-5.1,9.4-6.6
	c3-1.4,8,0,12.1,4.2c4.1,4.2,7.4,7.6,11,4.8c3.6-2.8,6.3-7.4,14.6-5.1c8.3,2.3,10,5.5,14.3,8.2C756.7,785.8,765.1,787.7,765.1,787.7
	z M491,902h-65c0,0,5.7-2.3,10.8-8.1c5.1-5.8,9.6-7.2,14-3.3c2.9,2.7,7.4,6.2,10.6,3.2c3.2-3.1,6.8-6.5,11-5.1
	c4.8,1.6,6.7,6.1,10.8,9.7C487.2,902,491,902,491,902z M2218.1,774.4h-186c0,0,19.4-3.2,33.5-13c10.4-7.5,15.6-16.3,21.4-23
	c6.3-7.5,17.5-8.3,24.2-0.4c6.7,7.9,14.1,15.2,20.8,14.2c6.5-0.8,9.4-4.5,15.8-12.4c7.9-9.6,20.6-9.8,28.3,0.6
	c7.7,10.4,16.9,19.3,24.2,24.8C2207.3,771,2218.1,774.4,2218.1,774.4z M1356.7,1117.3h-60.8c0,0,6-3.9,9.4-7
	c3.4-3.1,8.2-5.9,13.7-4.2c5.7,1.7,9.6,7.5,13.8,7.7c4.2,0.2,5.5-2.8,9.5-3.5c4-0.6,6.8,2.2,9.1,4.5
	C1353.7,1117.2,1356.7,1117.3,1356.7,1117.3z M957.1,995.8c0,0-54.3,0-61.3,0s-3.5-14,7.1-14c10.6,0,15.5,2.9,20.3,5.4
	c4.9,2.6,8.7,0.7,16.5,1.6C947.3,989.6,957.1,995.8,957.1,995.8z M1813.7,1049c0,0-32.3,0-36.5,0c-4.2,0-2.1-8.3,4.2-8.3
	c6.3,0,9.2,1.7,12.1,3.2c2.9,1.5,5.2,0.4,9.8,0.9C1807.9,1045.3,1813.7,1049,1813.7,1049z M1170.7,657.6c0,0-67.6,0-76.4,0
	c-8.8,0-4.4-17.4,8.8-17.4s19.3,3.7,25.3,6.7c6.1,3.2,10.9,0.9,20.5,1.9S1170.7,657.6,1170.7,657.6z M766.1,789.7H631.6
	c0,0,11.1-4.2,17.9-10.4c6.9-6.2,12.7-14.4,20.9-13c8.2,1.4,15.2,11.2,19,11.7c3.9,0.5,6.3-5.1,9.4-6.6c3-1.4,8,0,12.1,4.2
	c4.1,4.2,7.4,7.6,11,4.8c3.6-2.8,6.3-7.4,14.6-5.1c8.3,2.3,10,5.5,14.3,8.2C757.7,787.8,766.1,789.7,766.1,789.7z M492,904h-65
	c0,0,5.7-2.3,10.8-8.1c5.1-5.8,9.6-7.2,14-3.3c2.9,2.7,7.4,6.2,10.6,3.2c3.2-3.1,6.8-6.5,11-5.1c4.8,1.6,6.7,6.1,10.8,9.7
	C488.2,904,492,904,492,904z M2218.1,773.4h-186c0,0,19.4-3.2,33.5-13c10.4-7.5,15.6-16.3,21.4-23c6.3-7.5,17.5-8.3,24.2-0.4
	c6.7,7.9,14.1,15.2,20.8,14.2c6.5-0.8,9.4-4.5,15.8-12.4c7.9-9.6,20.6-9.8,28.3,0.6c7.7,10.4,16.9,19.3,24.2,24.8
	C2207.3,770,2218.1,773.4,2218.1,773.4z M1356.7,1116.3h-60.8c0,0,6-3.9,9.4-7c3.4-3.1,8.2-5.9,13.7-4.2c5.7,1.7,9.6,7.5,13.8,7.7
	c4.2,0.2,5.5-2.8,9.5-3.5c4-0.6,6.8,2.2,9.1,4.5C1353.7,1116.2,1356.7,1116.3,1356.7,1116.3z M957.1,994.8c0,0-54.3,0-61.3,0
	s-3.5-14,7.1-14c10.6,0,15.5,2.9,20.3,5.4c4.9,2.6,8.7,0.7,16.5,1.6C947.3,988.6,957.1,994.8,957.1,994.8z M1813.7,1048
	c0,0-32.3,0-36.5,0c-4.2,0-2.1-8.3,4.2-8.3c6.3,0,9.2,1.7,12.1,3.2c2.9,1.5,5.2,0.4,9.8,0.9C1807.9,1044.3,1813.7,1048,1813.7,1048z
	 M1170.7,656.6c0,0-67.6,0-76.4,0c-8.8,0-4.4-17.4,8.8-17.4s19.3,3.7,25.3,6.7c6.1,3.2,10.9,0.9,20.5,1.9S1170.7,656.6,1170.7,656.6
	z M766.1,788.7H631.6c0,0,11.1-4.2,17.9-10.4c6.9-6.2,12.7-14.4,20.9-13c8.2,1.4,15.2,11.2,19,11.7c3.9,0.5,6.3-5.1,9.4-6.6
	c3-1.4,8,0,12.1,4.2c4.1,4.2,7.4,7.6,11,4.8c3.6-2.8,6.3-7.4,14.6-5.1c8.3,2.3,10,5.5,14.3,8.2C757.7,786.8,766.1,788.7,766.1,788.7
	z M492,903h-65c0,0,5.7-2.3,10.8-8.1c5.1-5.8,9.6-7.2,14-3.3c2.9,2.7,7.4,6.2,10.6,3.2c3.2-3.1,6.8-6.5,11-5.1
	c4.8,1.6,6.7,6.1,10.8,9.7C488.2,903,492,903,492,903z"/>
<linearGradient id="SVGID_21_" gradientUnits="userSpaceOnUse" x1="-608.4666" y1="932.9939" x2="-608.4666" y2="613.1663">
	<stop  offset="5.787040e-04" style="stop-color:#E3F8FC"/>
	<stop  offset="1" style="stop-color:#AFEBF6"/>
</linearGradient>
<path class="st20" d="M234.4,708.3h-186c0,0,19.4-3.2,33.5-13c10.4-7.5,15.6-16.3,21.3-23c6.3-7.5,17.5-8.3,24.2-0.4
	c6.7,7.9,14.1,15.2,20.8,14.2c6.5-0.8,9.4-4.5,15.8-12.4c7.9-9.6,20.6-9.8,28.3,0.6c7.7,10.4,16.9,19.3,24.2,24.8
	C223.7,704.9,234.4,708.3,234.4,708.3z M-627,1051.3h-60.8c0,0,6-3.9,9.4-7c3.4-3.1,8.2-5.9,13.7-4.2c5.7,1.7,9.6,7.5,13.8,7.7
	c4.2,0.2,5.5-2.8,9.5-3.5c4-0.6,6.8,2.2,9.1,4.5C-630,1051.2-627,1051.3-627,1051.3z M-1026.6,929.7c0,0-54.3,0-61.3,0
	s-3.5-14,7.1-14c10.6,0,15.5,2.9,20.3,5.4c4.9,2.6,8.7,0.7,16.5,1.6C-1036.3,923.5-1026.6,929.7-1026.6,929.7z M-170,982.9
	c0,0-32.3,0-36.5,0c-4.2,0-2.1-8.3,4.2-8.3c6.3,0,9.2,1.7,12.1,3.2c2.9,1.5,5.2,0.4,9.8,0.9C-175.8,979.3-170,982.9-170,982.9z
	 M-813,591.5c0,0-67.6,0-76.4,0c-8.8,0-4.4-17.4,8.8-17.4c13.2,0,19.3,3.7,25.3,6.7c6.1,3.2,10.9,0.9,20.5,1.9
	C-825.1,583.7-813,591.5-813,591.5z M-1217.6,723.6h-134.5c0,0,11.1-4.2,17.9-10.4c6.9-6.2,12.7-14.4,20.9-13
	c8.2,1.4,15.2,11.2,19,11.7c3.9,0.5,6.3-5.1,9.4-6.6c3-1.4,8,0,12.1,4.2c4.1,4.2,7.4,7.6,11,4.8c3.6-2.8,6.3-7.4,14.6-5.1
	c8.3,2.3,10,5.5,14.3,8.2C-1226,721.7-1217.6,723.6-1217.6,723.6z M-1387.4,832.4h-65c0,0,5.7-2.3,10.8-8.1c5.1-5.8,9.6-7.2,14-3.3
	c2.9,2.7,7.4,6.2,10.6,3.2c3.2-3.1,6.8-6.5,11-5.1c4.8,1.6,6.7,6.1,10.8,9.7C-1391.2,832.4-1387.4,832.4-1387.4,832.4z M235.4,710.3
	h-186c0,0,19.4-3.2,33.5-13c10.4-7.5,15.6-16.3,21.3-23c6.3-7.5,17.5-8.3,24.2-0.4c6.7,7.9,14.1,15.2,20.8,14.2
	c6.5-0.8,9.4-4.5,15.8-12.4c7.9-9.6,20.6-9.8,28.3,0.6c7.7,10.4,16.9,19.3,24.2,24.8C224.7,706.9,235.4,710.3,235.4,710.3z
	 M-626,1053.3h-60.8c0,0,6-3.9,9.4-7c3.4-3.1,8.2-5.9,13.7-4.2c5.7,1.7,9.6,7.5,13.8,7.7c4.2,0.2,5.5-2.8,9.5-3.5
	c4-0.6,6.8,2.2,9.1,4.5C-629,1053.2-626,1053.3-626,1053.3z M-1025.6,931.7c0,0-54.3,0-61.3,0s-3.5-14,7.1-14
	c10.6,0,15.5,2.9,20.3,5.4c4.9,2.6,8.7,0.7,16.5,1.6C-1035.3,925.5-1025.6,931.7-1025.6,931.7z M-169,984.9c0,0-32.3,0-36.5,0
	c-4.2,0-2.1-8.3,4.2-8.3c6.3,0,9.2,1.7,12.1,3.2c2.9,1.5,5.2,0.4,9.8,0.9C-174.8,981.3-169,984.9-169,984.9z M-812,593.5
	c0,0-67.6,0-76.4,0c-8.8,0-4.4-17.4,8.8-17.4c13.2,0,19.3,3.7,25.3,6.7c6.1,3.2,10.9,0.9,20.5,1.9C-824.1,585.7-812,593.5-812,593.5
	z M-1216.6,725.6h-134.5c0,0,11.1-4.2,17.9-10.4c6.9-6.2,12.7-14.4,20.9-13c8.2,1.4,15.2,11.2,19,11.7c3.9,0.5,6.3-5.1,9.4-6.6
	c3-1.4,8,0,12.1,4.2c4.1,4.2,7.4,7.6,11,4.8c3.6-2.8,6.3-7.4,14.6-5.1c8.3,2.3,10,5.5,14.3,8.2
	C-1225,723.7-1216.6,725.6-1216.6,725.6z M-1386.4,834.4h-65c0,0,5.7-2.3,10.8-8.1c5.1-5.8,9.6-7.2,14-3.3c2.9,2.7,7.4,6.2,10.6,3.2
	c3.2-3.1,6.8-6.5,11-5.1c4.8,1.6,6.7,6.1,10.8,9.7C-1390.2,834.4-1386.4,834.4-1386.4,834.4z M235.4,709.3h-186
	c0,0,19.4-3.2,33.5-13c10.4-7.5,15.6-16.3,21.3-23c6.3-7.5,17.5-8.3,24.2-0.4c6.7,7.9,14.1,15.2,20.8,14.2
	c6.5-0.8,9.4-4.5,15.8-12.4c7.9-9.6,20.6-9.8,28.3,0.6c7.7,10.4,16.9,19.3,24.2,24.8C224.7,705.9,235.4,709.3,235.4,709.3z
	 M-626,1052.3h-60.8c0,0,6-3.9,9.4-7c3.4-3.1,8.2-5.9,13.7-4.2c5.7,1.7,9.6,7.5,13.8,7.7c4.2,0.2,5.5-2.8,9.5-3.5
	c4-0.6,6.8,2.2,9.1,4.5C-629,1052.2-626,1052.3-626,1052.3z M-1025.6,930.7c0,0-54.3,0-61.3,0s-3.5-14,7.1-14
	c10.6,0,15.5,2.9,20.3,5.4c4.9,2.6,8.7,0.7,16.5,1.6C-1035.3,924.5-1025.6,930.7-1025.6,930.7z M-169,983.9c0,0-32.3,0-36.5,0
	c-4.2,0-2.1-8.3,4.2-8.3c6.3,0,9.2,1.7,12.1,3.2c2.9,1.5,5.2,0.4,9.8,0.9C-174.8,980.3-169,983.9-169,983.9z M-812,592.5
	c0,0-67.6,0-76.4,0c-8.8,0-4.4-17.4,8.8-17.4c13.2,0,19.3,3.7,25.3,6.7c6.1,3.2,10.9,0.9,20.5,1.9C-824.1,584.7-812,592.5-812,592.5
	z M-1216.6,724.6h-134.5c0,0,11.1-4.2,17.9-10.4c6.9-6.2,12.7-14.4,20.9-13c8.2,1.4,15.2,11.2,19,11.7c3.9,0.5,6.3-5.1,9.4-6.6
	c3-1.4,8,0,12.1,4.2c4.1,4.2,7.4,7.6,11,4.8c3.6-2.8,6.3-7.4,14.6-5.1c8.3,2.3,10,5.5,14.3,8.2
	C-1225,722.7-1216.6,724.6-1216.6,724.6z M-1386.4,833.4h-65c0,0,5.7-2.3,10.8-8.1c5.1-5.8,9.6-7.2,14-3.3c2.9,2.7,7.4,6.2,10.6,3.2
	c3.2-3.1,6.8-6.5,11-5.1c4.8,1.6,6.7,6.1,10.8,9.7C-1390.2,833.4-1386.4,833.4-1386.4,833.4z"/>
<linearGradient id="SVGID_22_" gradientUnits="userSpaceOnUse" x1="1600.3661" y1="133.5632" x2="1600.3661" y2="117.795">
	<stop  offset="5.787040e-04" style="stop-color:#E3F8FC"/>
	<stop  offset="1" style="stop-color:#AFEBF6"/>
</linearGradient>
<path class="st21" d="M1667.6,139.5h-134.5c0,0,11.1-4.2,17.9-10.4c6.9-6.2,12.7-14.4,20.9-13c8.2,1.4,15.2,11.2,19,11.7
	c3.9,0.5,6.3-5.1,9.4-6.6c3-1.4,8,0,12.1,4.2c4.1,4.2,7.4,7.6,11,4.8c3.6-2.8,6.3-7.4,14.6-5.1s10,5.5,14.3,8.2"/>
<linearGradient id="SVGID_23_" gradientUnits="userSpaceOnUse" x1="1601.3661" y1="135.5632" x2="1601.3661" y2="119.795">
	<stop  offset="5.787040e-04" style="stop-color:#E3F8FC"/>
	<stop  offset="1" style="stop-color:#AFEBF6"/>
</linearGradient>
<path class="st22" d="M1668.6,141.5h-134.5c0,0,11.1-4.2,17.9-10.4c6.9-6.2,12.7-14.4,20.9-13c8.2,1.4,15.2,11.2,19,11.7
	c3.9,0.5,6.3-5.1,9.4-6.6c3-1.4,8,0,12.1,4.2c4.1,4.2,7.4,7.6,11,4.8c3.6-2.8,6.3-7.4,14.6-5.1c8.3,2.3,10,5.5,14.3,8.2"/>
<linearGradient id="SVGID_24_" gradientUnits="userSpaceOnUse" x1="1601.3661" y1="134.5632" x2="1601.3661" y2="118.795">
	<stop  offset="5.787040e-04" style="stop-color:#E3F8FC"/>
	<stop  offset="1" style="stop-color:#AFEBF6"/>
</linearGradient>
<path class="st23" d="M1668.6,140.5h-134.5c0,0,11.1-4.2,17.9-10.4c6.9-6.2,12.7-14.4,20.9-13c8.2,1.4,15.2,11.2,19,11.7
	c3.9,0.5,6.3-5.1,9.4-6.6c3-1.4,8,0,12.1,4.2c4.1,4.2,7.4,7.6,11,4.8c3.6-2.8,6.3-7.4,14.6-5.1c8.3,2.3,10,5.5,14.3,8.2"/>
<linearGradient id="SVGID_25_" gradientUnits="userSpaceOnUse" x1="1688.2118" y1="841.4292" x2="1688.2118" y2="829.8054">
	<stop  offset="5.787040e-04" style="stop-color:#E3F8FC"/>
	<stop  offset="1" style="stop-color:#AFEBF6"/>
</linearGradient>
<path class="st24" d="M1728.7,845.8c0,0-67.6,0-76.4,0s-4.4-17.4,8.8-17.4c13.2,0,19.3,3.7,25.3,6.7c6.1,3.2,10.9,0.9,20.5,1.9
	C1716.6,838.1,1728.7,845.8,1728.7,845.8z"/>
<linearGradient id="SVGID_26_" gradientUnits="userSpaceOnUse" x1="1689.2118" y1="843.4292" x2="1689.2118" y2="831.8054">
	<stop  offset="5.787040e-04" style="stop-color:#E3F8FC"/>
	<stop  offset="1" style="stop-color:#AFEBF6"/>
</linearGradient>
<path class="st25" d="M1729.7,847.8c0,0-67.6,0-76.4,0s-4.4-17.4,8.8-17.4c13.2,0,19.3,3.7,25.3,6.7c6.1,3.2,10.9,0.9,20.5,1.9
	C1717.6,840.1,1729.7,847.8,1729.7,847.8z"/>
<linearGradient id="SVGID_27_" gradientUnits="userSpaceOnUse" x1="1689.2118" y1="842.4292" x2="1689.2118" y2="830.8054">
	<stop  offset="5.787040e-04" style="stop-color:#E3F8FC"/>
	<stop  offset="1" style="stop-color:#AFEBF6"/>
</linearGradient>
<path class="st26" d="M1729.7,846.8c0,0-67.6,0-76.4,0s-4.4-17.4,8.8-17.4c13.2,0,19.3,3.7,25.3,6.7c6.1,3.2,10.9,0.9,20.5,1.9
	C1717.6,839.1,1729.7,846.8,1729.7,846.8z"/>
<linearGradient id="SVGID_28_" gradientUnits="userSpaceOnUse" x1="161.2881" y1="1117.4154" x2="161.2881" y2="1105.7916">
	<stop  offset="5.787040e-04" style="stop-color:#E3F8FC"/>
	<stop  offset="1" style="stop-color:#AFEBF6"/>
</linearGradient>
<path class="st27" d="M201.8,1121.8c0,0-67.6,0-76.4,0c-8.8,0-4.4-17.4,8.8-17.4c13.2,0,19.3,3.7,25.3,6.7
	c6.1,3.2,10.9,0.9,20.5,1.9C189.6,1114,201.8,1121.8,201.8,1121.8z"/>
<linearGradient id="SVGID_29_" gradientUnits="userSpaceOnUse" x1="162.2881" y1="1119.4154" x2="162.2881" y2="1107.7916">
	<stop  offset="5.787040e-04" style="stop-color:#E3F8FC"/>
	<stop  offset="1" style="stop-color:#AFEBF6"/>
</linearGradient>
<path class="st28" d="M202.8,1123.8c0,0-67.6,0-76.4,0c-8.8,0-4.4-17.4,8.8-17.4c13.2,0,19.3,3.7,25.3,6.7
	c6.1,3.2,10.9,0.9,20.5,1.9C190.6,1116,202.8,1123.8,202.8,1123.8z"/>
<linearGradient id="SVGID_30_" gradientUnits="userSpaceOnUse" x1="162.2881" y1="1118.4154" x2="162.2881" y2="1106.7916">
	<stop  offset="5.787040e-04" style="stop-color:#E3F8FC"/>
	<stop  offset="1" style="stop-color:#AFEBF6"/>
</linearGradient>
<path class="st29" d="M202.8,1122.8c0,0-67.6,0-76.4,0c-8.8,0-4.4-17.4,8.8-17.4c13.2,0,19.3,3.7,25.3,6.7
	c6.1,3.2,10.9,0.9,20.5,1.9C190.6,1115,202.8,1122.8,202.8,1122.8z"/>
<linearGradient id="SVGID_31_" gradientUnits="userSpaceOnUse" x1="1699.7611" y1="566.7913" x2="1699.7611" y2="551.0231">
	<stop  offset="5.787040e-04" style="stop-color:#E3F8FC"/>
	<stop  offset="1" style="stop-color:#AFEBF6"/>
</linearGradient>
<path class="st30" d="M1767,572.7h-134.5c0,0,11.1-4.2,17.9-10.4c6.9-6.2,12.7-14.4,20.9-13c8.2,1.4,15.2,11.2,19,11.7
	c3.9,0.5,6.3-5.1,9.4-6.6c3-1.4,8,0,12.1,4.2c4.1,4.2,7.4,7.6,11,4.8c3.6-2.8,6.3-7.4,14.6-5.1c8.3,2.3,10,5.5,14.3,8.2
	C1758.6,570.8,1767,572.7,1767,572.7z"/>
<linearGradient id="SVGID_32_" gradientUnits="userSpaceOnUse" x1="1700.7611" y1="568.7913" x2="1700.7611" y2="553.0231">
	<stop  offset="5.787040e-04" style="stop-color:#E3F8FC"/>
	<stop  offset="1" style="stop-color:#AFEBF6"/>
</linearGradient>
<path class="st31" d="M1768,574.7h-134.5c0,0,11.1-4.2,17.9-10.4c6.9-6.2,12.7-14.4,20.9-13c8.2,1.4,15.2,11.2,19,11.7
	c3.9,0.5,6.3-5.1,9.4-6.6c3-1.4,8,0,12.1,4.2c4.1,4.2,7.4,7.6,11,4.8c3.6-2.8,6.3-7.4,14.6-5.1c8.3,2.3,10,5.5,14.3,8.2
	C1759.6,572.8,1768,574.7,1768,574.7z"/>
<linearGradient id="SVGID_33_" gradientUnits="userSpaceOnUse" x1="1700.7611" y1="567.7913" x2="1700.7611" y2="552.0231">
	<stop  offset="5.787040e-04" style="stop-color:#E3F8FC"/>
	<stop  offset="1" style="stop-color:#AFEBF6"/>
</linearGradient>
<path class="st32" d="M1768,573.7h-134.5c0,0,11.1-4.2,17.9-10.4c6.9-6.2,12.7-14.4,20.9-13c8.2,1.4,15.2,11.2,19,11.7
	c3.9,0.5,6.3-5.1,9.4-6.6c3-1.4,8,0,12.1,4.2c4.1,4.2,7.4,7.6,11,4.8c3.6-2.8,6.3-7.4,14.6-5.1c8.3,2.3,10,5.5,14.3,8.2
	C1759.6,571.8,1768,573.7,1768,573.7z"/>
</svg>
