<svg width="349" height="61" viewBox="0 0 349 61" fill="none" xmlns="http://www.w3.org/2000/svg">
<path d="M348.2 60.6001H0C0 60.6001 28.6 49.9001 46.4 34.2001C64.2 18.5001 79.2 -2.19991 100.6 1.40009C122 5.00009 139.8 29.5001 149.8 30.8001C159.8 32.1001 166.2 17.8001 174.1 14.2001C181.9 10.6001 194.8 14.2001 205.5 24.9001C216.2 35.6001 224.8 44.2001 234 37.0001C243.2 29.8001 250.4 18.5001 271.8 24.2001C293.2 29.9001 297.7 38.1001 308.9 44.9001C326.7 55.6001 348.2 60.6001 348.2 60.6001Z" fill="url(#paint0_linear)"/>
<defs>
<linearGradient id="paint0_linear" x1="174.929" y1="28.7433" x2="174.338" y2="51.7883" gradientUnits="userSpaceOnUse">
<stop offset="0.000578704" stop-color="#E3F8FC"/>
<stop offset="1" stop-color="#AFEBF6"/>
</linearGradient>
</defs>
</svg>
