<svg width="1473" height="437" viewBox="0 0 1473 437" fill="none" xmlns="http://www.w3.org/2000/svg">
<path d="M1472.3 295.8H1414.1C1414.1 295.8 1421.1 285.4 1428 281.9C1435 278.4 1439.4 284.9 1442.4 286.4C1445.4 287.9 1450.4 284 1453.8 284.4C1460.2 285 1472.3 295.8 1472.3 295.8Z" fill="url(#paint0_linear)"/>
<path d="M349.6 135.4H166.7C166.7 135.4 181.7 129.8 191.1 121.5C200.5 113.2 208.3 102.4 219.6 104.3C230.8 106.2 240.2 119.1 245.4 119.7C250.6 120.4 254 112.9 258.1 111C262.2 109.1 269 111 274.6 116.6C280.2 122.2 284.7 126.7 289.6 123C294.5 119.3 298.2 113.3 309.5 116.3C320.8 119.3 323.1 123.6 329 127.2C338.3 132.8 349.6 135.4 349.6 135.4Z" fill="url(#paint1_linear)"/>
<path d="M0 276.3H78.4C78.4 276.3 59.2 271.6 54.4 268.9C49.6 266.2 43.5 268.3 41.6 268.9C39.7 269.5 38.4 267 34.7 264.5C31 262 22.7 265.3 19.2 267.5C15.7 269.7 0 276.3 0 276.3Z" fill="url(#paint2_linear)"/>
<path d="M1143.6 245.9H1278.1C1278.1 245.9 1260 237.4 1253.2 233.4C1246.4 229.3 1242.1 233.9 1238.9 234.8C1235.7 235.6 1233 228.6 1229.2 224.8C1225.4 221 1218.7 226.7 1215.4 229.1C1212.2 231.5 1209.5 229 1204 223.5C1198.6 218 1188.1 220.4 1181 226.4C1174.1 232.2 1143.6 245.9 1143.6 245.9Z" fill="url(#paint3_linear)"/>
<path d="M464.9 58.6999H740.2C740.2 58.6999 702.2 48.7999 675.4 22.8999C648.6 -3.00006 631 -4.90006 616.2 7.09994C601.4 19.0999 594 14.4999 580.1 7.99994C566.2 1.49994 557 6.19994 545 20.9999C533 35.7999 518.2 24.6999 499.7 33.9999C481.2 43.2999 464.9 58.6999 464.9 58.6999Z" fill="url(#paint4_linear)"/>
<path d="M1164 352H1131.5C1131.5 352 1135.4 346.2 1139.3 344.2C1143.2 342.3 1145.7 345.9 1147.4 346.7C1149.1 347.5 1151.9 345.4 1153.8 345.6C1157.3 346 1164 352 1164 352Z" fill="url(#paint5_linear)"/>
<path d="M367 315.4H413.3C413.3 315.4 407.8 307.1 402.2 304.3C396.7 301.5 393.1 306.7 390.7 307.9C388.3 309.1 384.3 306 381.6 306.3C376.7 306.8 367 315.4 367 315.4Z" fill="url(#paint6_linear)"/>
<path d="M207.1 436.6H174.6C174.6 436.6 178.5 430.8 182.4 428.8C186.3 426.9 188.8 430.5 190.5 431.3C192.2 432.1 195 430 196.9 430.2C200.3 430.6 207.1 436.6 207.1 436.6Z" fill="url(#paint7_linear)"/>
<path d="M1133.9 119.8H1008.3C1008.3 119.8 1023.3 97.3 1038.4 89.7C1053.4 82.2 1063.1 96.1 1069.5 99.4C1075.9 102.7 1086.7 94.3 1094.2 95.1C1107.8 96.6 1133.9 119.8 1133.9 119.8Z" fill="url(#paint8_linear)"/>
<defs>
<linearGradient id="paint0_linear" x1="1443.03" y1="287.164" x2="1443.18" y2="293.093" gradientUnits="userSpaceOnUse">
<stop offset="0.000578704" stop-color="#E3F8FC"/>
<stop offset="1" stop-color="#AFEBF6"/>
</linearGradient>
<linearGradient id="paint1_linear" x1="258.56" y1="118.705" x2="258.25" y2="130.806" gradientUnits="userSpaceOnUse">
<stop offset="0.000578704" stop-color="#E3F8FC"/>
<stop offset="1" stop-color="#AFEBF6"/>
</linearGradient>
<linearGradient id="paint2_linear" x1="39.0312" y1="269.145" x2="39.164" y2="274.324" gradientUnits="userSpaceOnUse">
<stop offset="0.000578704" stop-color="#E3F8FC"/>
<stop offset="1" stop-color="#AFEBF6"/>
</linearGradient>
<linearGradient id="paint3_linear" x1="1210.54" y1="231.397" x2="1210.8" y2="241.658" gradientUnits="userSpaceOnUse">
<stop offset="0.000578704" stop-color="#E3F8FC"/>
<stop offset="1" stop-color="#AFEBF6"/>
</linearGradient>
<linearGradient id="paint4_linear" x1="601.753" y1="26.2634" x2="602.338" y2="49.0588" gradientUnits="userSpaceOnUse">
<stop offset="0.000578704" stop-color="#E3F8FC"/>
<stop offset="1" stop-color="#AFEBF6"/>
</linearGradient>
<linearGradient id="paint5_linear" x1="1147.65" y1="347.148" x2="1147.74" y2="350.461" gradientUnits="userSpaceOnUse">
<stop offset="0.000578704" stop-color="#E3F8FC"/>
<stop offset="1" stop-color="#AFEBF6"/>
</linearGradient>
<linearGradient id="paint6_linear" x1="390.376" y1="308.544" x2="390.255" y2="313.269" gradientUnits="userSpaceOnUse">
<stop offset="0.000578704" stop-color="#E3F8FC"/>
<stop offset="1" stop-color="#AFEBF6"/>
</linearGradient>
<linearGradient id="paint7_linear" x1="190.7" y1="431.771" x2="190.785" y2="435.084" gradientUnits="userSpaceOnUse">
<stop offset="0.000578704" stop-color="#E3F8FC"/>
<stop offset="1" stop-color="#AFEBF6"/>
</linearGradient>
<linearGradient id="paint8_linear" x1="1070.58" y1="101.211" x2="1070.91" y2="114.018" gradientUnits="userSpaceOnUse">
<stop offset="0.000578704" stop-color="#E3F8FC"/>
<stop offset="1" stop-color="#AFEBF6"/>
</linearGradient>
</defs>
</svg>
