<svg width="1351" height="281" viewBox="0 0 1351 281" fill="none" xmlns="http://www.w3.org/2000/svg">
<path d="M604.6 281.6H554.8C556.9 280.4 559.5 278.7 561.7 276.6C566 272.5 570.3 270.7 573.5 272.1C576.7 273.5 579.8 274 583.2 271.6C586.6 269.2 591.1 269.8 596.2 273.7C599.5 276.3 602.7 279.7 604.6 281.6Z" fill="url(#paint0_linear)"/>
<path d="M686.2 245.1V281.6H623.4V245.1C623.4 243.9 624.3 243 625.5 243H684C685.3 243 686.2 244 686.2 245.1Z" fill="url(#paint1_linear)"/>
<path d="M743.4 264.3V281.7H676.6V260C676.6 259.3 677.2 258.7 677.9 258.7H707.2C707.9 258.7 708.5 259.3 708.5 260V263.2H742.4C742.9 263.2 743.4 263.7 743.4 264.3Z" fill="url(#paint2_linear)"/>
<path d="M790.3 263.1H772V281.7H790.3V263.1Z" fill="url(#paint3_linear)"/>
<path d="M801.8 263.1H790.2V281.7H801.8V263.1Z" fill="url(#paint4_linear)"/>
<path d="M663.8 245.9V281.6H623.5V245.1C623.5 243.9 624.4 243 625.6 243H660.9C662.5 243 663.8 244.3 663.8 245.9Z" fill="url(#paint5_linear)"/>
<path d="M743.4 264.3V281.7H708.4V263.3H742.3C742.9 263.2 743.4 263.7 743.4 264.3Z" fill="url(#paint6_linear)"/>
<path d="M1211.5 281.6H1161.7C1161.9 281.5 1162.2 281.3 1162.5 281.2C1164.4 280.1 1166.7 278.5 1168.6 276.6C1172.9 272.5 1177.2 270.7 1180.4 272.1C1183.6 273.5 1186.7 274 1190.1 271.6C1191.9 270.3 1194.1 269.9 1196.5 270.4C1198.5 270.8 1200.8 271.9 1203.2 273.7C1205.2 275.2 1207.1 277 1208.7 278.5C1209.7 279.4 1210.5 280.3 1211.2 281.1C1211.3 281.3 1211.4 281.5 1211.5 281.6Z" fill="url(#paint7_linear)"/>
<path d="M1293.2 245.1V281.6H1230.4V245.1C1230.4 243.9 1231.3 243 1232.5 243H1291C1292.2 243 1293.2 244 1293.2 245.1Z" fill="url(#paint8_linear)"/>
<path d="M1350.3 264.3V281.7H1283.5V260C1283.5 259.3 1284.1 258.7 1284.8 258.7H1314.1C1314.8 258.7 1315.4 259.3 1315.4 260V263.2H1349.3C1349.8 263.2 1350.3 263.7 1350.3 264.3Z" fill="url(#paint9_linear)"/>
<path d="M1270.7 245.9V281.6H1230.4V245.1C1230.4 243.9 1231.3 243 1232.5 243H1267.8C1269.5 243 1270.7 244.3 1270.7 245.9Z" fill="url(#paint10_linear)"/>
<path d="M1350.3 264.3V281.7H1315.3V263.3H1349.2C1349.8 263.2 1350.3 263.7 1350.3 264.3Z" fill="url(#paint11_linear)"/>
<path d="M328.8 281.6H263.2C265.7 278.9 269.9 274.7 274.2 271.4C281.1 266.2 287 265.5 291.5 268.6C294.9 271 298.1 271.2 301.3 270.4C302.3 270.1 303.3 269.7 304.4 269.3C308.7 267.4 314.4 269.8 320.1 275.2C321.8 276.8 323.7 278.3 325.5 279.5C325.5 279.5 325.6 279.5 325.6 279.6L325.7 279.7C326.8 280.4 327.8 281.1 328.8 281.6Z" fill="url(#paint12_linear)"/>
<path d="M237.9 233.4V281.7H154.5V233.4C154.5 231.9 155.8 230.6 157.3 230.6H235.1C236.6 230.6 237.9 231.8 237.9 233.4Z" fill="url(#paint13_linear)"/>
<path d="M167.3 253.1V281.6H78.5V258.8C78.5 258 79.2 257.3 80 257.3H125.1V253.1C125.1 252.2 125.8 251.4 126.8 251.4H165.7C166.6 251.5 167.3 252.2 167.3 253.1Z" fill="url(#paint14_linear)"/>
<path d="M40.6 257.2H16.3V281.7H40.6V257.2Z" fill="url(#paint15_linear)"/>
<path d="M16.2 257.2H0.799988V281.7H16.2V257.2Z" fill="url(#paint16_linear)"/>
<path d="M237.9 233.4V281.7H184.3V234.4C184.3 232.3 186 230.6 188.1 230.6H235.1C236.6 230.6 237.9 231.8 237.9 233.4Z" fill="url(#paint17_linear)"/>
<path d="M125.1 257.3V281.6H78.5V258.8C78.5 258 79.2 257.3 80 257.3H125.1Z" fill="url(#paint18_linear)"/>
<path d="M356.807 216.449L401.907 216.449L401.907 160.649L356.807 160.649L356.807 216.449Z" fill="#F9A932"/>
<path d="M401.9 216.5H460V160.7H401.9V216.5Z" fill="url(#paint19_linear)"/>
<path d="M543.1 184.7H468.6V281.6H543.1V184.7Z" fill="url(#paint20_linear)"/>
<path d="M489.9 216.5H416.3V281.7H489.9V216.5Z" fill="#FFCF7D"/>
<path d="M651.6 184.7H543.1V281.6H651.6V184.7Z" fill="#FFCF7D"/>
<path d="M416.3 216.5H347.3V281.7H416.3V216.5Z" fill="url(#paint21_linear)"/>
<path d="M378.9 248.2L350.3 219.4" stroke="#6D737D" stroke-width="0.7" stroke-miterlimit="10" stroke-linecap="round" stroke-linejoin="round"/>
<path d="M412.2 281.6L390.2 259.5" stroke="#6D737D" stroke-width="0.7" stroke-miterlimit="10" stroke-linecap="round" stroke-linejoin="round"/>
<path d="M347.3 281.6V264.9" stroke="#6D737D" stroke-width="1.2" stroke-miterlimit="10" stroke-linecap="round" stroke-linejoin="round"/>
<path d="M606.8 184.7H552.4V103.9H606.8V184.7Z" fill="url(#paint22_linear)"/>
<path d="M379.2 253.8L377.3 255.7L361.6 271.4L351.4 281.6" stroke="#6D737D" stroke-width="0.7" stroke-miterlimit="10" stroke-linecap="round" stroke-linejoin="round"/>
<path d="M416.3 216.5L390.2 242.7" stroke="#6D737D" stroke-width="0.7" stroke-miterlimit="10" stroke-linecap="round" stroke-linejoin="round"/>
<path d="M555.5 108.4L604.6 181.4" stroke="#6D737D" stroke-width="0.7" stroke-miterlimit="10" stroke-linecap="round" stroke-linejoin="round"/>
<path d="M603.7 108.4L554.6 181.4" stroke="#6D737D" stroke-width="0.7" stroke-miterlimit="10" stroke-linecap="round" stroke-linejoin="round"/>
<path d="M647.2 281.6L623.4 259.6L597.3 235.2L545.6 187.1" stroke="#6D737D" stroke-width="0.7" stroke-miterlimit="10" stroke-linecap="round" stroke-linejoin="round"/>
<path d="M547.4 281.6L597.3 235.2L649 187.1" stroke="#6D737D" stroke-width="0.7" stroke-miterlimit="10" stroke-linecap="round" stroke-linejoin="round"/>
<path d="M389.9 201.9L401.9 216.5" stroke="#6D737D" stroke-width="0.7" stroke-miterlimit="10" stroke-linecap="round" stroke-linejoin="round"/>
<path d="M358.3 163.6L378.9 188.6" stroke="#6D737D" stroke-width="0.7" stroke-miterlimit="10" stroke-linecap="round" stroke-linejoin="round"/>
<path d="M378.9 188.6L358.3 213.5" stroke="#6D737D" stroke-width="0.7" stroke-miterlimit="10" stroke-linecap="round" stroke-linejoin="round"/>
<path d="M401.9 160.7L389.8 175.4" stroke="#6D737D" stroke-width="0.7" stroke-miterlimit="10" stroke-linecap="round" stroke-linejoin="round"/>
<path d="M421.4 160.7H392.1" stroke="#6D737D" stroke-width="0.7" stroke-miterlimit="10" stroke-linecap="round" stroke-linejoin="round"/>
<path d="M401.9 160.7V184.7" stroke="#6D737D" stroke-width="0.7" stroke-miterlimit="10" stroke-linecap="round" stroke-linejoin="round"/>
<path d="M506.8 184.7H552.4V103.9H506.8V184.7Z" fill="url(#paint23_linear)"/>
<path d="M489.9 228.5V216.5H449.1" stroke="#6D737D" stroke-width="0.7" stroke-miterlimit="10" stroke-linecap="round" stroke-linejoin="round"/>
<path d="M489.9 281.6V265.9" stroke="#6D737D" stroke-width="0.7" stroke-miterlimit="10" stroke-linecap="round" stroke-linejoin="round"/>
<path d="M460 216.5V199.1" stroke="#6D737D" stroke-width="0.7" stroke-miterlimit="10" stroke-linecap="round" stroke-linejoin="round"/>
<path d="M468.6 216.5V210.2" stroke="#6D737D" stroke-width="0.7" stroke-miterlimit="10" stroke-linecap="round" stroke-linejoin="round"/>
<path d="M521.9 184.9H468.6V197.2" stroke="#6D737D" stroke-width="0.7" stroke-miterlimit="10" stroke-linecap="round" stroke-linejoin="round"/>
<path d="M506.8 184.7V165" stroke="#6D737D" stroke-width="0.7" stroke-miterlimit="10" stroke-linecap="round" stroke-linejoin="round"/>
<path d="M1096.1 281.2H1215.3C1215.3 281.2 1203.2 277.6 1197.2 271.4C1191.3 265.2 1187 262.8 1183.7 263.1C1180.4 263.3 1175.9 268.6 1171.8 265.2C1167.8 261.9 1163.5 259.5 1159.7 259.7C1155.9 259.9 1150.9 265.9 1148.5 265.6C1146.1 265.4 1143.3 260.6 1139.9 257.3C1136.5 254 1128.7 254.2 1124.9 259C1121.1 263.8 1115.7 271.2 1111.8 274C1105.4 278.7 1096.1 281.2 1096.1 281.2Z" fill="url(#paint24_linear)"/>
<path d="M948.4 208.8H901.9V281.6H948.4V208.8Z" fill="#F9A932"/>
<path d="M1000.1 187.4H948.5V230.5H1000.1V187.4Z" fill="url(#paint25_linear)"/>
<path d="M1027.5 187.4H1000V230.5H1027.5V187.4Z" fill="url(#paint26_linear)"/>
<path d="M1001.9 230.2H934.7V281.6H1001.9V230.2Z" fill="#FFCF7D"/>
<path d="M1033.6 230.2H1001.9V281.6H1033.6V230.2Z" fill="url(#paint27_linear)"/>
<path d="M934.7 241.7V230.2H963" stroke="#6D737D" stroke-width="0.7" stroke-miterlimit="10" stroke-linecap="round" stroke-linejoin="round"/>
<path d="M934.7 281.6V277.3" stroke="#6D737D" stroke-width="0.7" stroke-miterlimit="10" stroke-linecap="round" stroke-linejoin="round"/>
<path d="M1129.7 253.8H1100.1V281.6H1129.7V253.8Z" fill="#F9A932"/>
<path d="M1100.1 253.8H1020.7V281.6H1100.1V253.8Z" fill="url(#paint28_linear)"/>
<path d="M869.7 250.2H837.3V281.7H869.7V250.2Z" fill="url(#paint29_linear)"/>
<path d="M837.3 250.2H790.1V281.7H837.3V250.2Z" fill="#FFCF7D"/>
<path d="M1092.5 206.2H1043V253.8H1092.5V206.2Z" fill="#FFCF7D"/>
<path d="M1121 253.8H1092.5V206.2H1121V253.8Z" fill="url(#paint30_linear)"/>
<path d="M1092.5 253.8L1120 207.7" stroke="#6D737D" stroke-width="0.7" stroke-miterlimit="10" stroke-linecap="round" stroke-linejoin="round"/>
<path d="M1093.4 207.7L1120 252.2" stroke="#6D737D" stroke-width="0.7" stroke-miterlimit="10" stroke-linecap="round" stroke-linejoin="round"/>
<path d="M998.2 188.9L950.3 229" stroke="#6D737D" stroke-width="0.7" stroke-miterlimit="10" stroke-linecap="round" stroke-linejoin="round"/>
<path d="M950.3 188.9L998.2 229" stroke="#6D737D" stroke-width="0.7" stroke-miterlimit="10" stroke-linecap="round" stroke-linejoin="round"/>
<path d="M805 281.6L813.7 273.2L836.2 251.2" stroke="#6D737D" stroke-width="0.7" stroke-miterlimit="10" stroke-linecap="round" stroke-linejoin="round"/>
<path d="M822.3 281.6L813.7 273.2L791.2 251.2" stroke="#6D737D" stroke-width="0.7" stroke-miterlimit="10" stroke-linecap="round" stroke-linejoin="round"/>
<path d="M1110.2 281.6L1110.5 281.2L1114.9 274.9L1125.8 259.4" stroke="#6D737D" stroke-width="0.7" stroke-miterlimit="10" stroke-linecap="round" stroke-linejoin="round"/>
<path d="M1119.7 281.6L1119.4 281.2L1114.9 274.9L1113.5 272.8L1100.1 253.8" stroke="#6D737D" stroke-width="0.7" stroke-miterlimit="10" stroke-linecap="round" stroke-linejoin="round"/>
<path d="M1026.7 253.8H1125.3" stroke="#6D737D" stroke-width="0.7" stroke-miterlimit="10" stroke-linecap="round" stroke-linejoin="round"/>
<path d="M1100.1 253.8V268.3" stroke="#6D737D" stroke-width="0.7" stroke-miterlimit="10" stroke-linecap="round" stroke-linejoin="round"/>
<path d="M901.9 234.1V222.2" stroke="#6D737D" stroke-width="0.7" stroke-miterlimit="10" stroke-linecap="round" stroke-linejoin="round"/>
<path d="M1001.9 281.6V270.3" stroke="#6D737D" stroke-width="0.7" stroke-miterlimit="10" stroke-linecap="round" stroke-linejoin="round"/>
<path d="M949.5 281.6L961.8 269.6V269.5L968.3 263.2L999.9 232.2" stroke="#6D737D" stroke-width="0.7" stroke-miterlimit="10" stroke-linecap="round" stroke-linejoin="round"/>
<path d="M987.1 281.6L968.3 263.2L961.4 256.4L948.5 243.7L937.4 232.9L936.8 232.2" stroke="#6D737D" stroke-width="0.7" stroke-miterlimit="10" stroke-linecap="round" stroke-linejoin="round"/>
<path d="M948.5 230.2V222.2" stroke="#6D737D" stroke-width="0.7" stroke-miterlimit="10" stroke-linecap="round" stroke-linejoin="round"/>
<path d="M315.3 158.5H292.7V198.4H315.3V158.5Z" fill="#F9A932"/>
<path d="M341.5 241.3H301.3V281.6H341.5V241.3Z" fill="url(#paint31_linear)"/>
<path d="M301.3 241.3H219.7V281.6H301.3V241.3Z" fill="url(#paint32_linear)"/>
<path d="M294.3 198.3H234.1V241.3H294.3V198.3Z" fill="#FFCF7D"/>
<path d="M329.1 241.4L294.4 241.3V198.3H329.1V241.4Z" fill="url(#paint33_linear)"/>
<path d="M236.4 239.7L291.9 200" stroke="#6D737D" stroke-width="0.7" stroke-miterlimit="10" stroke-linecap="round" stroke-linejoin="round"/>
<path d="M236.4 199.9L294.4 241.3" stroke="#6D737D" stroke-width="0.7" stroke-miterlimit="10" stroke-linecap="round" stroke-linejoin="round"/>
<path d="M292.7 158.5H249.2V198.4H292.7V158.5Z" fill="url(#paint34_linear)"/>
<path d="M326.8 281.6L325.7 279.9L325.5 279.7V279.5L321.4 273.1L301.3 241.4V241.3" stroke="#6D737D" stroke-width="0.7" stroke-miterlimit="10" stroke-linecap="round" stroke-linejoin="round"/>
<path d="M316 281.6L320 275.2L321.4 273.1L327.5 263.3L327.8 262.9L340 243.6" stroke="#6D737D" stroke-width="0.7" stroke-miterlimit="10" stroke-linecap="round" stroke-linejoin="round"/>
<path d="M272 241.4H301.3V254" stroke="#6D737D" stroke-width="0.7" stroke-miterlimit="10" stroke-linecap="round" stroke-linejoin="round"/>
<path d="M301.3 241.4H315.8" stroke="#6D737D" stroke-width="0.7" stroke-miterlimit="10" stroke-linecap="round" stroke-linejoin="round"/>
<path d="M294.4 241.3V219.8" stroke="#6D737D" stroke-width="0.7" stroke-miterlimit="10" stroke-linecap="round" stroke-linejoin="round"/>
<path d="M276.6 198.3H305.4" stroke="#6D737D" stroke-width="0.7" stroke-miterlimit="10" stroke-linecap="round" stroke-linejoin="round"/>
<path d="M234.1 215.9V198.3H255.8" stroke="#6D737D" stroke-width="0.7" stroke-miterlimit="10" stroke-linecap="round" stroke-linejoin="round"/>
<path d="M249.2 198.3V190.4" stroke="#6D737D" stroke-width="0.7" stroke-miterlimit="10" stroke-linecap="round" stroke-linejoin="round"/>
<path d="M379.7 54.1C379.7 54.1 370.8 52.3 369.8 43.8C368.8 35.3 372.1 31.6 373.7 30.1C375.3 28.6 378.6 26.3 378.6 26.3C378.6 26.3 371.5 18.9 374.8 10.9C378.1 2.90001 383.2 0.399962 391.4 0.599962C399.6 0.799962 404.1 9.8 403 13.7C401.9 17.6 399.2 21.3 399.2 21.3C399.2 21.3 407.7 21.6 412.2 30.2C416.7 38.8 414 45.8 409.4 50.1C404.9 54.5 379.7 54.1 379.7 54.1Z" fill="white"/>
<path d="M400.5 82.9C405.1 83.9 414.4 85.9 420.5 91.7C426.6 97.5 436.7 128.7 437.7 132.7C438.7 136.7 439.5 139.4 441.1 139.4C442.7 139.4 462.1 139.4 462.1 139.4C462.1 139.4 457.7 145.2 449.3 150.5C440.9 155.8 434.7 154.4 430.1 150.5C425.5 146.6 418.4 136 417.2 133.2C415.9 130.4 407.2 112.4 404.2 106.3C401 100.2 400.5 82.9 400.5 82.9Z" fill="white"/>
<path d="M470.4 139.5H409.7C407.9 139.5 407 137.3 408.3 136L434.2 111.8C435.3 110.7 436.8 110.1 438.4 110.1H500.1C501.9 110.1 502.8 112.4 501.4 113.6L474.5 137.9C473.4 138.9 471.9 139.5 470.4 139.5Z" fill="url(#paint35_linear)"/>
<path d="M452.1 140.3C452.5 141.4 455.8 141.4 459.8 141.3C465 141.1 469.2 141.2 469.4 138.7C469.6 136.3 469.7 130 465.7 128.8C461.7 127.7 457.3 131.6 455.8 133C454.4 134.5 451.3 138.2 452.1 140.3Z" fill="white"/>
<path d="M377 281.6C377 275.1 377.1 265.7 377.3 255.6C377.3 252.7 377.4 249.7 377.5 246.7C377.7 236 378.1 225.1 378.6 216.4C379 209.3 379.5 203.6 380.1 200.6C382 191.5 392.4 174.8 399.9 165.9C400.6 165 401.3 164.2 402 163.5C403.2 162.2 404.3 161.2 405.1 160.6C406.4 159.7 407.3 159.6 407.6 160.6C407.6 160.7 407.6 160.7 407.6 160.8C407.6 160.9 407.6 161.1 407.6 161.2C407.6 163.3 407.9 164.8 408.3 166.1C408.7 167.3 409.1 168.4 409.6 169.5V169.6C410.8 172.2 412.3 175.4 413.3 182.6C413.8 186.1 414.6 189.5 415.6 193.2C415.6 193.4 415.7 193.5 415.7 193.6V193.7V193.8C417.6 200.3 420 207.5 422.2 216.4C423.5 221.9 424.8 228.1 425.7 235.2C427 245.7 428 256.9 428.7 266.5C428.7 266.8 428.7 267.1 428.8 267.3C429.2 272.7 429.4 277.6 429.6 281.5H377V281.6Z" fill="url(#paint36_linear)"/>
<path d="M375.4 281.6H351C351.2 280.9 351.4 280.1 351.6 279.4C352.8 274.4 357.1 271.8 361.7 271.4C367.9 270.8 374.8 274.4 375.4 281.6Z" fill="url(#paint37_linear)"/>
<path d="M414.7 120.4C414.6 121.5 414.4 122.5 414.2 123.4C414 124.1 413.7 124.9 413.4 125.5C412.2 128 410.6 130.2 410.4 131.9C410.3 132.6 410.3 133.3 410.3 134.1C410.3 135.7 410.4 137.5 410.6 139.4C410.7 141.3 410.8 143.3 410.9 145.3C410.9 148.4 410.8 151.5 410 154.2C409.9 154.7 409.7 155.1 409.6 155.5C408.9 157.6 408.3 159.2 407.8 160.6C407.7 160.8 407.6 161 407.6 161.3C407.4 161.8 407.3 162.3 407.1 162.7C407.1 162.8 407.1 162.8 407.1 162.8C406.6 164.3 406.3 165.8 406.2 168C406 174.3 406.3 186.2 401.9 194.3C401.6 194.9 401.2 195.5 400.8 196.1C397.6 200.7 395.3 203.8 393.5 206.3C390.9 210.1 389.6 212.5 389 216.4C388.8 217.7 388.7 219.2 388.6 220.9C388.5 223.4 388.5 226.5 388.6 230.5C388.8 244.2 389.2 267.5 389.5 281.5H325.4C325.5 280.9 325.6 280.3 325.6 279.7C325.6 279.6 325.6 279.6 325.6 279.5C326.2 274.6 327 268.7 327.7 262.7C328.4 256.9 329.1 250.9 329.6 245.4C329.7 243.9 329.9 242.5 330 241.1C330.1 239.6 330.3 238.1 330.4 236.8C331.9 217 335.7 194.1 342.1 184C343.5 181.8 344.8 179.3 346 176.8C346.1 176.7 346.1 176.5 346.2 176.4C346.7 175.4 347.2 174.3 347.6 173.2C347.7 172.9 347.8 172.7 347.9 172.4C349.1 169.5 350 166.6 350.8 163.7C350.8 163.6 350.8 163.6 350.8 163.5C351.5 160.7 352 158 352.3 155.4C352.3 155 352.4 154.7 352.4 154.5C352.4 154.4 352.4 154.4 352.4 154.3V154.2C352.5 152.5 352.6 150.9 352.4 149.3C351.6 139.1 345 116.7 342.7 105.5C341.3 99.1001 340.6 90.5 342.9 88.1C345.2 85.7 347.9 84.4 350.9 83.1C356.4 80.6 359.2 80.0001 363.7 77.5001C367.6 75.3001 370.5 74.5001 372.3 68.9001C373.4 65.4001 373.7 58.9001 375.7 52.4001C375.8 52.1001 375.9 51.8001 376 51.4001C377.1 47.9001 378.7 44.4001 381.2 41.4001C383.3 38.9001 385.7 36.9001 388.2 35.4001C388.4 35.3001 388.6 35.2 388.8 35.1C394.9 31.7 401.6 31.4 406.1 34.6C410.1 37.3 411.4 43.1001 410.5 49.0001C409.9 53.0001 408.4 57.0001 406.1 60.4001C400.3 68.8001 392.9 71.1001 389.6 73.7001C386.3 76.2001 385.8 78.5001 389.1 80.0001C390.8 80.8001 393.9 81.3001 397.2 82.2001C398.3 82.5001 399.4 82.9001 400.4 83.3001C402.4 84.1001 404.2 85.1 405.9 86.6C412.5 92.5 411.5 102 413.6 107.4C414.1 108.8 414.5 111.2 414.7 114C414.9 116.1 414.9 118.4 414.7 120.4Z" fill="url(#paint38_linear)"/>
<path d="M406.7 40.9C406.7 40.9 402.7 48.5 394.7 49.8C386.7 51.1 382.4 49.2 382.4 49.2" stroke="#6D737D" stroke-width="1.2" stroke-miterlimit="10" stroke-linecap="round" stroke-linejoin="round"/>
<path d="M376 51.5C376 51.5 371 50.9 369.3 41.6C367.7 32.3 378.5 26.4 378.5 26.4C378.5 26.4 371.6 22.6 374.7 11C377.8 -0.600021 391.8 -0.600046 396.7 2.09995" stroke="#6D737D" stroke-width="1.2" stroke-miterlimit="10" stroke-linecap="round" stroke-linejoin="round"/>
<path d="M401.2 6.90002C401.2 6.90002 403.3 9.59999 403 13.8C402.7 18 399.2 21.4 399.2 21.4C399.2 21.4 408.6 23.3 411.3 28.5C414.8 35 415.4 41.8 411.3 48.4" stroke="#6D737D" stroke-width="1.2" stroke-miterlimit="10" stroke-linecap="round" stroke-linejoin="round"/>
<path d="M388.2 35.4C393.4 32.2 400 30.1 406.1 34.6" stroke="#6D737D" stroke-width="1.2" stroke-miterlimit="10" stroke-linecap="round" stroke-linejoin="round"/>
<path d="M352.8 86.7C349.5 85.1 345.7 85.7 343.1 88.2C341 90.2 338.8 93.1999 337.1 98.2999C333.2 109.8 339 130.8 346.6 145.1C354.2 159.4 361.3 162.4 368 162.1C374.7 161.7 380.4 149.9 387.8 139.8C395.2 129.7 399.5 124.4 400.7 123.5C401.9 122.6 404.6 123.9 407.9 123.1C411.2 122.3 414.7 120.3 414.7 120.3L421.1 124.4L423.8 122C423.8 122 417.4 116.3 413 112.4C408.6 108.5 402 109.9 394.1 115.6C386.1 121.3 366.9 134.2 366.9 134.2C366.9 134.2 365.5 133.1 363.9 127.5C362.3 121.8 359 114.6 359 106.5C359 98.4 359.9 93.6 357.1 89.9C355.9 88.4 354.3 87.4 352.8 86.7Z" fill="url(#paint39_linear)"/>
<path d="M366.6 85C366.6 85 371.1 89.5 379.7 89.7C388.3 89.9 391.4 82.9 391.4 82.9" stroke="#6D737D" stroke-width="1.2" stroke-miterlimit="10" stroke-linecap="round" stroke-linejoin="round"/>
<path d="M397.2 82.3C401.6 82.7 411.3 83.7001 419.4 91.0001C425.4 96.4001 429 108.2 429 108.2" stroke="#6D737D" stroke-width="1.2" stroke-miterlimit="10" stroke-linecap="round" stroke-linejoin="round"/>
<path d="M362.8 137.7C362.8 137.7 365.5 135.2 376.6 127.6C387.7 120 396 114.4 400.7 111.7C405.5 109 410 109.8 413 112.4C415.9 115 422.1 120.5 422.1 120.5" stroke="#6D737D" stroke-width="1.2" stroke-miterlimit="10" stroke-linecap="round" stroke-linejoin="round"/>
<path d="M414.7 120.4C414.7 120.4 411.2 123 407.9 123.2C404.6 123.4 402.4 121.8 400.7 123.6C398.9 125.4 391.9 134.3 391.9 134.3" stroke="#6D737D" stroke-width="1.2" stroke-miterlimit="10" stroke-linecap="round" stroke-linejoin="round"/>
<path d="M348.3 148.3C350.2 151.2 355.3 159.7 362.8 162.2C370.3 164.7 374.8 158.3 376.6 156" stroke="#6D737D" stroke-width="1.2" stroke-miterlimit="10" stroke-linecap="round" stroke-linejoin="round"/>
<path d="M359.3 111.5C360.1 115.3 362.8 124.3 363.8 127.4C364.8 130.6 366.8 134.1 366.8 134.1" stroke="#6D737D" stroke-width="1.2" stroke-miterlimit="10" stroke-linecap="round" stroke-linejoin="round"/>
<path d="M370 166.9C370 166.9 376.8 168.8 387.5 168.4C398.2 168 407 163 407 163C407 163 407.7 159.4 409.6 155.6C411.5 151.8 410.9 147.7 410.9 145.5" stroke="#6D737D" stroke-width="1.2" stroke-miterlimit="10" stroke-linecap="round" stroke-linejoin="round"/>
<path d="M425.4 145.3C425.4 145.3 431.2 154.4 439.2 154.2C447.1 154 456.7 144.8 456.7 144.8" stroke="#6D737D" stroke-width="1.2" stroke-miterlimit="10" stroke-linecap="round" stroke-linejoin="round"/>
<path d="M452.1 140.3C452.5 141.4 455.8 141.4 459.8 141.3C465 141.1 469.2 141.2 469.4 138.7C469.6 136.3 469.7 130 465.7 128.8C461.7 127.7 457.3 131.6 455.8 133C454.4 134.5 451.3 138.2 452.1 140.3Z" stroke="#6D737D" stroke-width="1.2" stroke-miterlimit="10" stroke-linecap="round" stroke-linejoin="round"/>
<path d="M389.6 281.6C389.3 262.7 388.7 227 388.7 221" stroke="#6D737D" stroke-width="1.2" stroke-miterlimit="10" stroke-linecap="round" stroke-linejoin="round"/>
<path d="M407 162.9C407 162.9 408.1 166.4 409.6 169.8C411.1 173.2 412.2 176.9 413.3 182.8C414.4 188.7 415.8 193.9 415.8 193.9" stroke="#6D737D" stroke-width="1.2" stroke-miterlimit="10" stroke-linecap="round" stroke-linejoin="round"/>
<path d="M429.7 281.6C429.5 277.6 429.2 272.6 428.8 267.4C428.8 267.1 428.8 266.8 428.7 266.6" stroke="#6D737D" stroke-width="1.2" stroke-miterlimit="10" stroke-linecap="round" stroke-linejoin="round"/>
<path d="M352.5 154.3C352.5 154.3 352.3 159.1 350.8 163.9C349.3 168.7 347.8 173.4 346 176.9" stroke="#6D737D" stroke-width="1.2" stroke-miterlimit="10" stroke-linecap="round" stroke-linejoin="round"/>
<path d="M325.3 281.6L325.5 279.7L325.6 279.6L327.5 263.3L329.7 245.7" stroke="#6D737D" stroke-width="1.2" stroke-miterlimit="10" stroke-linecap="round" stroke-linejoin="round"/>
<path d="M448 139.5H409.8C408 139.5 407.1 137.3 408.4 136L434.3 111.8C435.4 110.7 436.9 110.1 438.5 110.1H500.2C502 110.1 502.9 112.4 501.5 113.6L474.6 137.9C474 138.4 473.4 138.8 472.7 139.1" stroke="#6D737D" stroke-width="1.2" stroke-miterlimit="10" stroke-linecap="round" stroke-linejoin="round"/>
<path d="M946.2 65.3C950 67.8 960.3 75 964.5 81.1C968.7 87.2 975.8 99.7001 979 110.9C982.2 122.1 981.7 123.6 981.7 123.6L976.5 125.5C976.5 125.5 977.3 129.2 976.6 134.9C975.8 140.6 973.8 146.8 964.8 148.5C964.8 148.5 963.3 102.9 961.9 93.9001C960.6 84.9001 959.7 81.1001 957.6 77.2001C954.3 71.2001 946.2 65.3 946.2 65.3Z" fill="white"/>
<path d="M963.2 223C963 225.5 962.7 227.8 962.3 230.2C962.3 230.3 962.3 230.4 962.3 230.5C961.5 235.5 960.7 240.5 961.1 246.7C961.2 248 961.3 251.4 961.5 256.4C961.6 260 961.8 264.5 961.9 269.5C962 273.2 962.2 277.3 962.3 281.6H932.7C931.7 257.6 930.8 237.5 930.7 235.1C930.6 231.6 931.8 218.9 932.9 208.8C933.2 205.6 933.6 202.6 933.8 200.3C934.2 197 934.4 194.9 934.4 194.9L948.5 197.5L957.5 199.2C957.5 199.2 959.2 203.6 960.7 208.9C961.6 212 962.5 215.5 962.9 218.6C963.2 220.1 963.3 221.7 963.2 223Z" fill="url(#paint40_linear)"/>
<path d="M944.2 220.2C943.6 223.6 942.4 226.8 940.4 229C940 229.4 939.6 229.9 939.3 230.3C939.2 230.4 939.2 230.5 939.1 230.5C938.6 231.2 938.2 231.8 937.8 232.5C937.8 232.5 937.8 232.5 937.8 232.6C937.7 232.7 937.6 232.9 937.6 233C936.2 235.6 935.5 238.5 935.1 242.7V242.8C935 243.7 935 244.7 934.9 245.7C934.8 248.1 934.7 250.8 934.6 254.1C934.6 254.8 934.6 255.1 934.6 255.1C934.6 256.5 934.6 258 934.5 259.6C934.5 263 934.6 268.8 934.8 276.1C934.9 277.9 934.9 279.7 935 281.6H901.4C899.5 256 898.3 234.1 898.5 217.9C898.5 217.7 898.5 217.4 898.5 217.2C898.5 216.9 898.5 216.5 898.5 216.2C898.5 216 898.5 215.8 898.5 215.6C898.5 213.2 898.6 210.9 898.7 208.8C898.8 206.5 899 204.3 899.2 202.3C900.5 190 920.9 195.5 933.8 200.2C939.8 202.4 944.1 204.4 944.1 204.4C944.4 205.4 944.6 206.9 944.7 208.7C945 212 944.9 216.3 944.2 220.2Z" fill="url(#paint41_linear)"/>
<path d="M847.6 122.9H890V101.3H824.6C822.7 101.3 822 103.7 823.4 104.8L847.6 122.9Z" fill="url(#paint42_linear)"/>
<path d="M824.4 101.3H893.7C895.2 101.3 896.5 100.1 896.5 98.5001V53.1C896.5 51.6 895.3 50.3 893.7 50.3H824.4C822.9 50.3 821.6 51.5 821.6 53.1V98.5001C821.7 100.1 822.9 101.3 824.4 101.3Z" fill="url(#paint43_linear)"/>
<path d="M837.3 50.4001H824.9C823.1 50.4001 821.7 51.9001 821.7 53.6001V78.1001" stroke="#6D737D" stroke-width="1.2" stroke-miterlimit="10" stroke-linecap="round" stroke-linejoin="round"/>
<path d="M835.4 113.3C838.5 115.9 838.7 115.4 840 115.1C841.2 114.8 843.6 110.7 844.6 109.3C845.6 107.9 847.5 108.2 847.1 110.1C846.7 112 845.2 115.1 845.3 117.2C845.4 119.3 847.7 119.8 854.7 123.7C861.8 127.6 873.4 133.5 873.4 133.5L877.6 125.9C876.9 125.4 876.2 124.8 875.7 124.3C875.4 124 875.3 123.5 875.4 123.1C877.1 118.5 886.9 92.3002 892.3 84.2002C898.2 75.3002 905.6 72.1001 910 70.0001C914.4 67.9001 916.5 63.2001 913.8 60.0001C911.1 56.8001 903.2 55.3002 898.7 47.9002C894.3 40.5002 891.3 18.4001 909 17.8001C926.7 17.2001 928.5 42.9002 930.6 49.7002C932.7 56.5002 939.4 61.8002 946 65.4002C952.9 69.2002 959.9 74.3001 962.3 82.1001C963.7 86.6001 964.6 96.2002 964.3 104.4C964.1 110.3 963.7 112.7 963.7 119.9C963.7 135.7 966 195.8 966.3 207C966.3 208 965.5 208.8 964.5 208.8H898.4C897.6 208.8 895.8 208.4 895.2 205.8C894.6 203 894 201.4 893.8 191C893.6 184.4 892.8 158.6 892.4 144.1C888.2 149.7 882.8 155.8 879.2 156.1C872.4 156.8 858.6 144.4 848.4 134.3C838.1 124.2 836 121.8 831.9 117.1C827.7 112.4 826.2 106 826.2 106C826.2 106 832.4 110.7 835.4 113.3Z" fill="url(#paint44_linear)"/>
<path d="M903.7 208.8H898.7C897.9 208.8 896.1 208.4 895.5 205.8C894.9 203 894.3 201.4 894.1 191" stroke="#6D737D" stroke-width="1.2" stroke-miterlimit="10" stroke-linecap="round" stroke-linejoin="round"/>
<path d="M966.6 207C966.6 208 965.8 208.8 964.8 208.8H922.1" stroke="#6D737D" stroke-width="1.2" stroke-miterlimit="10" stroke-linecap="round" stroke-linejoin="round"/>
<path d="M864.8 76.8001C864.5 76.5001 864 76.5001 863.7 76.8001L860.7 79.8001C860.4 80.1001 860.4 80.6001 860.7 80.9001L863.7 83.9001C864 84.2001 864.5 84.2001 864.8 83.9001L867.8 80.9001C868.1 80.6001 868.1 80.1001 867.8 79.8001L864.8 76.8001Z" fill="white"/>
<path d="M863.7 74.9001C864 75.2001 864.5 75.2001 864.8 74.9001L867.8 71.9001C868.1 71.6001 868.1 71.1001 867.8 70.8001L864.8 67.8001C864.5 67.5001 864 67.5001 863.7 67.8001L861.4 70.1001C861.2 70.2001 860.6 70.7001 859.7 70.7001C858.7 70.7001 858 70.0001 858 70.0001L855.7 67.7001C855.4 67.4001 854.9 67.4001 854.6 67.7001L851.6 70.7001C851.3 71.0001 851.3 71.5001 851.6 71.8001L853.9 74.1001C854 74.2001 854.5 74.9001 854.5 75.7001C854.5 76.5001 854 77.1001 853.9 77.3001L851.6 79.6001C851.3 79.9001 851.3 80.4001 851.6 80.7001L854.6 83.7001C854.9 84.0001 855.4 84.0001 855.7 83.7001L858.7 80.7001C858.4 80.4001 859 79.9001 858.7 79.6001L856.4 77.3001C856.3 77.1001 855.8 76.5001 855.8 75.6001C855.8 74.7001 856.3 74.1001 856.4 74.0001L858 72.4001C858 72.4001 858.7 71.7001 859.7 71.7001C860.5 71.7001 861.1 72.2001 861.3 72.3001L863.7 74.9001Z" fill="white"/>
<path d="M902.4 31.5001C901.2 30.6001 898.5 32.2001 897.1 34.5001C895.7 36.8001 895 40.0001 892.7 40.4001C890.4 40.8001 886.5 38.8001 887.6 31.2001C888.7 23.6001 894.1 19.4001 897.3 16.7001C900.5 13.9001 906.2 14.2001 908.7 15.5001" stroke="#6D737D" stroke-width="1.2" stroke-miterlimit="10" stroke-linecap="round" stroke-linejoin="round"/>
<path d="M912.7 16.0001C912.7 16.0001 917.3 13.5001 922.3 19.1001C926.7 24.0001 929.5 34.0001 928.9 39.0001C928.3 44.0001 920.7 41.6001 915.8 38.6001C910.9 35.6001 909.7 32.9001 906.8 32.9001C904.7 32.9001 903.7 35.3001 904.4 37.5001" stroke="#6D737D" stroke-width="1.2" stroke-miterlimit="10" stroke-linecap="round" stroke-linejoin="round"/>
<path d="M928.7 40.1001C928.7 40.1001 929.4 45.3001 930.5 48.5001" stroke="#6D737D" stroke-width="1.2" stroke-miterlimit="10" stroke-linecap="round" stroke-linejoin="round"/>
<path d="M941.2 62.3001C938.9 60.6001 932.8 60.4001 926.8 62.7001C922.7 64.2001 918.6 66.7001 918.6 66.7001" stroke="#6D737D" stroke-width="1.2" stroke-miterlimit="10" stroke-linecap="round" stroke-linejoin="round"/>
<path d="M907.8 71.2001C904.6 72.9001 896.6 77.4 894 82.1C889.9 89.3 885.5 97.7001 882.1 106.2" stroke="#6D737D" stroke-width="1.2" stroke-miterlimit="10" stroke-linecap="round" stroke-linejoin="round"/>
<path d="M909.5 108.6C909.5 108.6 905.3 125.1 904 130.5C902.7 135.8 902.5 137 900.2 136.5C897.9 136 889.7 133.2 881.3 128.7" stroke="#6D737D" stroke-width="1.2" stroke-miterlimit="10" stroke-linecap="round" stroke-linejoin="round"/>
<path d="M897.5 135.8C897.5 135.8 893 144.3 890 147.7C887 151.1 883.3 155.9 879.5 156.3C875.6 156.7 871 153.5 868.6 151.8" stroke="#6D737D" stroke-width="1.2" stroke-miterlimit="10" stroke-linecap="round" stroke-linejoin="round"/>
<path d="M839 124.7C836.2 121.8 832.7 118.1 830.5 115.1C828.3 112.1 826.6 107.2 826.6 107.2C826.6 107.2 835.7 113.6 837.8 115C839.9 116.4 841.2 114.4 842.1 113.1C843 111.8 843.9 110.3 844.7 109.3" stroke="#6D737D" stroke-width="1.2" stroke-miterlimit="10" stroke-linecap="round" stroke-linejoin="round"/>
<path d="M892.7 144.2C892.7 144.2 893.1 159.8 893.3 165.3" stroke="#6D737D" stroke-width="1.2" stroke-miterlimit="10" stroke-linecap="round" stroke-linejoin="round"/>
<path d="M951 68.7001C955 70.5001 964.8 78.7001 972.3 93.4001C979.8 108.1 981.7 123.6 981.7 123.6C981.7 123.6 979.6 124.5 976.9 125.5C975.6 126 974.1 126.4 972.7 126.8" stroke="#6D737D" stroke-width="1.2" stroke-miterlimit="10" stroke-linecap="round" stroke-linejoin="round"/>
<path d="M976.8 125.5C976.8 125.5 977.2 136.4 975 141C972.8 145.7 967.5 147.7 967.5 147.7" stroke="#6D737D" stroke-width="1.2" stroke-miterlimit="10" stroke-linecap="round" stroke-linejoin="round"/>
<path d="M964.5 104.4C964.5 104.4 963.9 130.6 964.4 144.9C964.9 159.1 965.6 177 965.6 177" stroke="#6D737D" stroke-width="1.2" stroke-miterlimit="10" stroke-linecap="round" stroke-linejoin="round"/>
<path d="M944.8 208.8C944.8 208.8 945.7 214.9 944.1 220.1C942.5 225.3 941.5 226.7 939 230.4C937.6 232.5 935.3 235 934.9 242.7C934.5 250.4 934.4 255 934.4 255" stroke="#6D737D" stroke-width="1.2" stroke-miterlimit="10" stroke-linecap="round" stroke-linejoin="round"/>
<path d="M898.7 208.8C898.7 208.8 898.5 214.4 898.4 217.9" stroke="#6D737D" stroke-width="1.2" stroke-miterlimit="10" stroke-linecap="round" stroke-linejoin="round"/>
<path d="M884.1 101.3H839.1" stroke="#6D737D" stroke-width="1.2" stroke-miterlimit="10" stroke-linecap="round" stroke-linejoin="round"/>
<path d="M896.5 78.9V67.5" stroke="#6D737D" stroke-width="1.2" stroke-miterlimit="10" stroke-linecap="round" stroke-linejoin="round"/>
<path d="M828.3 101.3H825.7C824.7 101.3 823.7 101.8 823.3 102.7C822.7 104 824.4 105.4 824.4 105.4L826.7 107.2" stroke="#6D737D" stroke-width="1.2" stroke-miterlimit="10" stroke-linecap="round" stroke-linejoin="round"/>
<defs>
<linearGradient id="paint0_linear" x1="579.646" y1="279.647" x2="579.646" y2="274.775" gradientUnits="userSpaceOnUse">
<stop stop-color="#D8E0E3"/>
<stop offset="0.672" stop-color="#EAF1F5"/>
</linearGradient>
<linearGradient id="paint1_linear" x1="681.918" y1="262.489" x2="646.281" y2="262.294" gradientUnits="userSpaceOnUse">
<stop stop-color="#C5CCCF"/>
<stop offset="0.672" stop-color="#D1D8DB"/>
</linearGradient>
<linearGradient id="paint2_linear" x1="720.705" y1="278.197" x2="680.836" y2="257.588" gradientUnits="userSpaceOnUse">
<stop stop-color="#D8E0E3"/>
<stop offset="0.672" stop-color="#EAF1F5"/>
</linearGradient>
<linearGradient id="paint3_linear" x1="775.767" y1="265.432" x2="788.081" y2="281.477" gradientUnits="userSpaceOnUse">
<stop stop-color="#D8E0E3"/>
<stop offset="0.672" stop-color="#EAF1F5"/>
</linearGradient>
<linearGradient id="paint4_linear" x1="790.201" y1="272.35" x2="801.821" y2="272.35" gradientUnits="userSpaceOnUse">
<stop stop-color="#C5CCCF"/>
<stop offset="0.672" stop-color="#D1D8DB"/>
</linearGradient>
<linearGradient id="paint5_linear" x1="656.166" y1="274.86" x2="630.498" y2="250.934" gradientUnits="userSpaceOnUse">
<stop stop-color="#D8E0E3"/>
<stop offset="0.672" stop-color="#EAF1F5"/>
</linearGradient>
<linearGradient id="paint6_linear" x1="708.321" y1="272.415" x2="743.351" y2="272.415" gradientUnits="userSpaceOnUse">
<stop stop-color="#D8E0E3"/>
<stop offset="0.672" stop-color="#EAF1F5"/>
</linearGradient>
<linearGradient id="paint7_linear" x1="1186.63" y1="279.647" x2="1186.63" y2="274.776" gradientUnits="userSpaceOnUse">
<stop stop-color="#D8E0E3"/>
<stop offset="0.672" stop-color="#EAF1F5"/>
</linearGradient>
<linearGradient id="paint8_linear" x1="1288.89" y1="262.489" x2="1253.25" y2="262.294" gradientUnits="userSpaceOnUse">
<stop stop-color="#C5CCCF"/>
<stop offset="0.672" stop-color="#D1D8DB"/>
</linearGradient>
<linearGradient id="paint9_linear" x1="1327.68" y1="278.196" x2="1287.82" y2="257.59" gradientUnits="userSpaceOnUse">
<stop stop-color="#D8E0E3"/>
<stop offset="0.672" stop-color="#EAF1F5"/>
</linearGradient>
<linearGradient id="paint10_linear" x1="1263.14" y1="274.862" x2="1237.47" y2="250.934" gradientUnits="userSpaceOnUse">
<stop stop-color="#D8E0E3"/>
<stop offset="0.672" stop-color="#EAF1F5"/>
</linearGradient>
<linearGradient id="paint11_linear" x1="1315.3" y1="272.415" x2="1350.32" y2="272.415" gradientUnits="userSpaceOnUse">
<stop stop-color="#D8E0E3"/>
<stop offset="0.672" stop-color="#EAF1F5"/>
</linearGradient>
<linearGradient id="paint12_linear" x1="295.966" y1="279.031" x2="295.966" y2="272.649" gradientUnits="userSpaceOnUse">
<stop stop-color="#D8E0E3"/>
<stop offset="0.672" stop-color="#EAF1F5"/>
</linearGradient>
<linearGradient id="paint13_linear" x1="232.165" y1="256.3" x2="184.812" y2="256.041" gradientUnits="userSpaceOnUse">
<stop stop-color="#C5CCCF"/>
<stop offset="0.672" stop-color="#D1D8DB"/>
</linearGradient>
<linearGradient id="paint14_linear" x1="139.151" y1="275.25" x2="87.7466" y2="248.679" gradientUnits="userSpaceOnUse">
<stop stop-color="#D8E0E3"/>
<stop offset="0.672" stop-color="#EAF1F5"/>
</linearGradient>
<linearGradient id="paint15_linear" x1="21.3815" y1="260.263" x2="37.6616" y2="281.477" gradientUnits="userSpaceOnUse">
<stop stop-color="#D8E0E3"/>
<stop offset="0.672" stop-color="#EAF1F5"/>
</linearGradient>
<linearGradient id="paint16_linear" x1="0.831388" y1="269.41" x2="16.2713" y2="269.41" gradientUnits="userSpaceOnUse">
<stop stop-color="#C5CCCF"/>
<stop offset="0.672" stop-color="#D1D8DB"/>
</linearGradient>
<linearGradient id="paint17_linear" x1="227.954" y1="272.61" x2="194.106" y2="241.06" gradientUnits="userSpaceOnUse">
<stop stop-color="#D8E0E3"/>
<stop offset="0.672" stop-color="#EAF1F5"/>
</linearGradient>
<linearGradient id="paint18_linear" x1="78.5313" y1="269.49" x2="125.081" y2="269.49" gradientUnits="userSpaceOnUse">
<stop stop-color="#D8E0E3"/>
<stop offset="0.672" stop-color="#EAF1F5"/>
</linearGradient>
<linearGradient id="paint19_linear" x1="430.799" y1="195.015" x2="430.256" y2="220.537" gradientUnits="userSpaceOnUse">
<stop offset="0.4268" stop-color="#FFC061"/>
<stop offset="1" stop-color="#F9A932"/>
</linearGradient>
<linearGradient id="paint20_linear" x1="571.627" y1="202.336" x2="490.474" y2="240.362" gradientUnits="userSpaceOnUse">
<stop offset="0.4268" stop-color="#FFC061"/>
<stop offset="1" stop-color="#F9A932"/>
</linearGradient>
<linearGradient id="paint21_linear" x1="420.312" y1="249.045" x2="397.834" y2="249.045" gradientUnits="userSpaceOnUse">
<stop offset="0.4268" stop-color="#FFC061"/>
<stop offset="1" stop-color="#F9A932"/>
</linearGradient>
<linearGradient id="paint22_linear" x1="580.193" y1="133.835" x2="577.366" y2="183.773" gradientUnits="userSpaceOnUse">
<stop offset="0.4268" stop-color="#FFCB7D"/>
<stop offset="1" stop-color="#F9B032"/>
</linearGradient>
<linearGradient id="paint23_linear" x1="507.711" y1="113.582" x2="540.026" y2="158.953" gradientUnits="userSpaceOnUse">
<stop offset="0.4268" stop-color="#FFC061"/>
<stop offset="1" stop-color="#F9A932"/>
</linearGradient>
<linearGradient id="paint24_linear" x1="1155.74" y1="281.3" x2="1154.79" y2="255.885" gradientUnits="userSpaceOnUse">
<stop stop-color="#D8E0E3"/>
<stop offset="0.672" stop-color="#EAF1F5"/>
</linearGradient>
<linearGradient id="paint25_linear" x1="973.922" y1="203.207" x2="975.474" y2="230.619" gradientUnits="userSpaceOnUse">
<stop offset="0.4268" stop-color="#FFCB7D"/>
<stop offset="1" stop-color="#F9B032"/>
</linearGradient>
<linearGradient id="paint26_linear" x1="1025.89" y1="191.951" x2="1008.01" y2="217.061" gradientUnits="userSpaceOnUse">
<stop offset="0.4268" stop-color="#FFC061"/>
<stop offset="1" stop-color="#F9A932"/>
</linearGradient>
<linearGradient id="paint27_linear" x1="1037.24" y1="232.563" x2="1018.79" y2="254.709" gradientUnits="userSpaceOnUse">
<stop offset="0.4268" stop-color="#FFC061"/>
<stop offset="1" stop-color="#F9A932"/>
</linearGradient>
<linearGradient id="paint28_linear" x1="1060.48" y1="271.056" x2="1060.76" y2="284.273" gradientUnits="userSpaceOnUse">
<stop offset="0.4268" stop-color="#FFC061"/>
<stop offset="1" stop-color="#F9A932"/>
</linearGradient>
<linearGradient id="paint29_linear" x1="879.342" y1="253.773" x2="847.43" y2="268.726" gradientUnits="userSpaceOnUse">
<stop offset="0.4268" stop-color="#FFC061"/>
<stop offset="1" stop-color="#F9A932"/>
</linearGradient>
<linearGradient id="paint30_linear" x1="1122.63" y1="229.996" x2="1113.35" y2="229.996" gradientUnits="userSpaceOnUse">
<stop offset="0.4268" stop-color="#FFC061"/>
<stop offset="1" stop-color="#F9A932"/>
</linearGradient>
<linearGradient id="paint31_linear" x1="373.291" y1="261.48" x2="310.283" y2="261.48" gradientUnits="userSpaceOnUse">
<stop offset="0.4268" stop-color="#FFC061"/>
<stop offset="1" stop-color="#F9A932"/>
</linearGradient>
<linearGradient id="paint32_linear" x1="260.577" y1="266.231" x2="260.978" y2="285.057" gradientUnits="userSpaceOnUse">
<stop offset="0.4268" stop-color="#FFC061"/>
<stop offset="1" stop-color="#F9A932"/>
</linearGradient>
<linearGradient id="paint33_linear" x1="331.085" y1="219.834" x2="319.78" y2="219.834" gradientUnits="userSpaceOnUse">
<stop offset="0.4268" stop-color="#FFC061"/>
<stop offset="1" stop-color="#F9A932"/>
</linearGradient>
<linearGradient id="paint34_linear" x1="271.03" y1="183.011" x2="271.419" y2="201.275" gradientUnits="userSpaceOnUse">
<stop offset="0.4268" stop-color="#FFC061"/>
<stop offset="1" stop-color="#F9A932"/>
</linearGradient>
<linearGradient id="paint35_linear" x1="467.516" y1="116.797" x2="433.637" y2="137.428" gradientUnits="userSpaceOnUse">
<stop stop-color="#C5CCCF"/>
<stop offset="0.672" stop-color="#D1D8DB"/>
</linearGradient>
<linearGradient id="paint36_linear" x1="419.574" y1="220.441" x2="399.182" y2="225.385" gradientUnits="userSpaceOnUse">
<stop offset="0.1982" stop-color="#82C5F5"/>
<stop offset="0.3557" stop-color="#6DB9EF"/>
<stop offset="0.6104" stop-color="#51A8E7"/>
<stop offset="0.8337" stop-color="#409FE2"/>
<stop offset="1" stop-color="#3A9BE0"/>
</linearGradient>
<linearGradient id="paint37_linear" x1="366.062" y1="276.784" x2="355.395" y2="276.434" gradientUnits="userSpaceOnUse">
<stop offset="0.4171" stop-color="#82C5F5"/>
<stop offset="1" stop-color="#3A9BE0"/>
</linearGradient>
<linearGradient id="paint38_linear" x1="404.427" y1="152.268" x2="353.656" y2="172.186" gradientUnits="userSpaceOnUse">
<stop offset="0.4171" stop-color="#82C5F5"/>
<stop offset="1" stop-color="#3A9BE0"/>
</linearGradient>
<linearGradient id="paint39_linear" x1="378.994" y1="118.404" x2="341.169" y2="128.464" gradientUnits="userSpaceOnUse">
<stop offset="0.4171" stop-color="#82C5F5"/>
<stop offset="1" stop-color="#3A9BE0"/>
</linearGradient>
<linearGradient id="paint40_linear" x1="928.348" y1="240.765" x2="955.775" y2="237.305" gradientUnits="userSpaceOnUse">
<stop offset="0.00415427" stop-color="#FC77A8"/>
<stop offset="0.3125" stop-color="#F673A3"/>
<stop offset="0.7064" stop-color="#E76796"/>
<stop offset="1" stop-color="#D65A88"/>
</linearGradient>
<linearGradient id="paint41_linear" x1="923.11" y1="243.309" x2="884.061" y2="218.376" gradientUnits="userSpaceOnUse">
<stop offset="0.00415427" stop-color="#FC77A8"/>
<stop offset="0.4977" stop-color="#E76796"/>
<stop offset="1" stop-color="#D65A88"/>
</linearGradient>
<linearGradient id="paint42_linear" x1="856.185" y1="118.109" x2="856.646" y2="102.247" gradientUnits="userSpaceOnUse">
<stop offset="0.4223" stop-color="#D3DDE3"/>
<stop offset="1" stop-color="#BBC4C7"/>
</linearGradient>
<linearGradient id="paint43_linear" x1="823.925" y1="52.9653" x2="891.702" y2="97.0428" gradientUnits="userSpaceOnUse">
<stop offset="0.281" stop-color="#82C5F5"/>
<stop offset="1" stop-color="#3A9BE0"/>
</linearGradient>
<linearGradient id="paint44_linear" x1="889.754" y1="110.065" x2="966.687" y2="126.339" gradientUnits="userSpaceOnUse">
<stop offset="0.00415427" stop-color="#FC77A8"/>
<stop offset="0.3458" stop-color="#F370A1"/>
<stop offset="0.8989" stop-color="#DB5E8C"/>
<stop offset="1" stop-color="#D65A88"/>
</linearGradient>
</defs>
</svg>
