<svg width="182" height="182" viewBox="0 0 182 182" fill="none" xmlns="http://www.w3.org/2000/svg">
<path d="M160.672 14.2188H152.141V0H137.922V14.2188H44.0781V0H29.8594V14.2188H21.3281C9.5678 14.2188 0 23.7865 0 35.5469V160.672C0 172.432 9.5678 182 21.3281 182H160.672C172.432 182 182 172.432 182 160.672V35.5469C182 23.7865 172.432 14.2188 160.672 14.2188ZM167.781 160.672C167.781 164.592 164.592 167.781 160.672 167.781H21.3281C17.408 167.781 14.2188 164.592 14.2188 160.672V66.8281H167.781V160.672ZM167.781 52.6094H14.2188V35.5469C14.2188 31.6268 17.408 28.4375 21.3281 28.4375H29.8594V42.6562H44.0781V28.4375H137.922V42.6562H152.141V28.4375H160.672C164.592 28.4375 167.781 31.6268 167.781 35.5469V52.6094Z" fill="#0C5CFF"/>
<path d="M41.2344 81.7578H27.0156V95.9766H41.2344V81.7578Z" fill="#0C5CFF"/>
<path d="M69.6719 81.7578H55.4531V95.9766H69.6719V81.7578Z" fill="#0C5CFF"/>
<path d="M98.1094 81.7578H83.8906V95.9766H98.1094V81.7578Z" fill="#0C5CFF"/>
<path d="M126.547 81.7578H112.328V95.9766H126.547V81.7578Z" fill="#0C5CFF"/>
<path d="M154.984 81.7578H140.766V95.9766H154.984V81.7578Z" fill="#0C5CFF"/>
<path d="M41.2344 110.195H27.0156V124.414H41.2344V110.195Z" fill="#0C5CFF"/>
<path d="M69.6719 110.195H55.4531V124.414H69.6719V110.195Z" fill="#0C5CFF"/>
<path d="M98.1094 110.195H83.8906V124.414H98.1094V110.195Z" fill="#0C5CFF"/>
<path d="M126.547 110.195H112.328V124.414H126.547V110.195Z" fill="#0C5CFF"/>
<path d="M41.2344 138.633H27.0156V152.852H41.2344V138.633Z" fill="#0C5CFF"/>
<path d="M69.6719 138.633H55.4531V152.852H69.6719V138.633Z" fill="#0C5CFF"/>
<path d="M98.1094 138.633H83.8906V152.852H98.1094V138.633Z" fill="#0C5CFF"/>
<path d="M126.547 138.633H112.328V152.852H126.547V138.633Z" fill="#0C5CFF"/>
<path d="M154.984 110.195H140.766V124.414H154.984V110.195Z" fill="#0C5CFF"/>
</svg>
