<svg width="182" height="28" viewBox="0 0 182 28" fill="none" xmlns="http://www.w3.org/2000/svg">
<path fill-rule="evenodd" clip-rule="evenodd" d="M181.806 12.0493C181.869 12.1864 181.897 12.336 181.887 12.4857V12.6733C181.879 12.7604 181.879 12.8481 181.887 12.9352C181.893 12.9685 181.905 13.0003 181.925 13.0282C181.944 13.0561 181.97 13.0795 182 13.0966V13.1665H181.333C181.316 13.1165 181.303 13.0655 181.293 13.0137C181.275 12.9349 181.266 12.8544 181.266 12.7737V12.5119C181.282 12.3853 181.248 12.2577 181.171 12.154C181.072 12.0858 180.95 12.0548 180.829 12.0667H180.235V13.1665H179.645V10.3604H181.032C181.185 10.3591 181.338 10.3842 181.482 10.4345C181.588 10.4766 181.681 10.5442 181.752 10.6309C181.814 10.7009 181.863 10.7806 181.896 10.8666C181.934 10.9598 181.952 11.0591 181.95 11.159C181.951 11.2964 181.916 11.4316 181.847 11.5517C181.812 11.6174 181.763 11.6755 181.704 11.7228C181.646 11.77 181.578 11.8053 181.505 11.8267C181.63 11.8624 181.737 11.9416 181.806 12.0493ZM181.198 10.8971C181.11 10.8612 181.015 10.8448 180.919 10.8491H180.248V11.6041H180.901C181.001 11.6086 181.101 11.5923 181.194 11.5561C181.252 11.5266 181.299 11.4808 181.33 11.4247C181.36 11.3686 181.372 11.3049 181.365 11.2419C181.372 11.1752 181.361 11.1077 181.331 11.0469C181.302 10.9861 181.256 10.9343 181.198 10.8971ZM178.226 11.8747C178.226 12.1899 178.29 12.502 178.414 12.7932C178.539 13.0844 178.721 13.349 178.951 13.5719C179.181 13.7948 179.454 13.9716 179.755 14.0922C180.055 14.2129 180.378 14.2749 180.703 14.2749V15.1478C179.807 15.1478 178.948 14.8029 178.314 14.1891C177.681 13.5753 177.325 12.7428 177.325 11.8747C177.325 11.0066 177.681 10.1741 178.314 9.56028C178.948 8.94646 179.807 8.60162 180.703 8.60162V9.47444C180.046 9.47444 179.416 9.72733 178.951 10.1775C178.487 10.6276 178.226 11.2381 178.226 11.8747ZM173.479 21.9601C173.479 25.7874 169.997 27.9258 165.66 27.9258C162.913 27.9258 160.165 26.6166 158.004 24.5131L161.755 20.8734C162.841 22.1478 164.39 23.1253 165.665 23.2388C166.939 23.3522 168.025 22.8242 168.218 22.2612C168.669 20.8385 166.016 20.76 165.201 20.5156C162.143 19.6166 158.585 18.3772 158.585 14.7026C158.585 10.3385 163.305 8.81547 165.665 8.81547C168.367 8.81547 171.123 10.0156 173.321 12.1889L169.605 15.7936C168.597 14.5193 166.858 13.5069 165.656 13.5069C165.039 13.5069 163.8 13.7338 163.8 14.9296C163.805 17.1596 173.479 16.0948 173.479 21.9601ZM150.96 26.3853C150.261 27.2581 148.289 27.9258 147.01 27.9258C141.398 27.9258 137.299 23.8759 137.299 18.399C137.299 12.9221 141.015 8.83728 146.622 8.83728C147.861 8.83728 150.302 9.47444 150.96 10.3734V0.37968H156.274V27.6072H150.96V26.3853ZM147.397 13.0355C145.001 13.0355 143.064 15.4358 143.064 18.399C143.064 21.3622 145.001 23.7232 147.397 23.7232C150.032 23.7232 151.734 20.8734 151.734 18.399C151.734 15.9246 150.081 13.0181 147.411 13.0181L147.397 13.0355ZM129.584 26.3111C128.433 27.3553 126.905 27.9209 125.328 27.8865C120.104 27.8865 118.091 25.6347 118.091 22.187C118.091 18.2855 121.338 15.6627 126.603 15.6627H129.584C129.584 14.2749 128.499 13.3759 126.882 13.3759C125.265 13.3759 124.405 13.6727 123.554 14.5761L119.298 12.2107C120.293 11.1163 121.521 10.2431 122.896 9.65108C124.272 9.05904 125.764 8.76209 127.269 8.78055C132.998 8.78055 135.322 11.8354 135.322 14.6677V27.6072H129.598L129.584 26.3111ZM129.584 19.861H126.215C124.707 19.861 123.585 20.8734 123.815 22.3005C123.973 23.313 124.9 23.7232 126.215 23.7232C128.733 23.7232 129.584 22.3354 129.584 21.5106V19.861ZM116.321 19.6384H102.714C102.714 21.8204 104.998 23.3479 106.894 23.3479C108.79 23.3479 110.452 22.6365 111.344 21.0611L115.177 24.4738C113.627 26.4988 111.267 27.9258 106.894 27.9258C100.625 27.9258 96.7919 23.8759 96.7919 18.399C96.7919 12.9221 100.508 8.83728 106.543 8.83728C112.578 8.83728 116.334 12.8479 116.334 18.399L116.321 19.6384ZM106.552 13.3934C104.462 13.3934 103.187 14.4801 102.841 16.0948H110.348C110.029 14.3317 108.714 13.3934 106.552 13.3934ZM79.3396 27.7032H73.6017V26.394C72.4504 27.4386 70.9224 28.0042 69.3456 27.9695C64.1211 27.9695 62.1079 25.7176 62.1079 22.27C62.1079 18.3685 65.3597 15.7238 70.6247 15.7238H73.6017C73.6017 14.3404 72.5208 13.437 70.8994 13.437C69.278 13.437 68.4223 13.7382 67.5711 14.6372L63.3149 12.2893C64.3113 11.1973 65.5396 10.327 66.9156 9.73793C68.2915 9.14889 69.7826 8.85506 71.2867 8.87656C77.0156 8.87656 79.3351 11.9314 79.3351 14.7637L79.3396 27.7032ZM73.6107 19.9395H70.2463C68.7376 19.9395 67.6161 20.952 67.8458 22.3747C67.9989 23.3872 68.9312 23.8017 70.2463 23.8017C72.7595 23.8017 73.6107 22.414 73.6107 21.5892V19.9395ZM61.8647 13.6029C60.4325 13.0006 60.1622 13.1141 59.5002 13.1141C57.1807 13.1141 55.825 14.3142 55.825 17.2774V27.7032H50.0872V9.17769H55.816V10.8273C56.5502 9.553 58.5634 8.91584 59.8425 8.91584C61.0405 8.91584 61.7386 8.95075 62.6258 9.43953L61.8647 13.6029ZM45.5248 13.1141C43.2053 13.1141 41.8496 14.3142 41.8496 17.2774V27.7032H36.1118V9.17769H41.8406V10.8273C42.5748 9.553 44.588 8.91584 45.8671 8.91584C47.0651 8.91584 47.7632 8.95075 48.6504 9.43953L47.8758 13.6029C46.4436 13.0006 46.1733 13.1141 45.5158 13.1141H45.5248ZM24.2261 23.4264C26.0817 23.4264 27.7842 22.7151 28.6759 21.1397L32.5042 24.5524C30.9594 26.5773 28.5994 28 24.2261 28C17.9568 28 14.124 23.9501 14.124 18.4776C14.124 13.005 17.8397 8.91584 23.8748 8.91584C29.91 8.91584 33.6662 12.9264 33.6662 18.4776V19.7126H20.0376C20.0376 21.8903 22.33 23.4264 24.2171 23.4264H24.2261ZM27.6671 16.1908C27.3608 14.4451 26.0412 13.4894 23.8748 13.4894C21.7851 13.4894 20.5105 14.5761 20.1592 16.1908H27.6671ZM7.87721 19.8261C7.87721 21.1746 7.83668 23.4264 9.96699 23.4264C10.803 23.4076 11.6366 23.3332 12.4621 23.2039L12.4036 27.0617C11.4536 27.6323 10.3676 27.9555 9.25088 28C4.33719 28 2.13032 25.9751 2.13032 19.8261V13.7513H0V9.17769H2.13032V3.84913H7.8592V9.17769H12.8134V13.7513H7.8592L7.87721 19.8261ZM88.7346 0H94.3013V27.6072H88.7256L88.7346 0Z" fill="white"/>
</svg>
