<svg width="317" height="348" viewBox="0 0 317 348" fill="none" xmlns="http://www.w3.org/2000/svg">
<path d="M296.928 24.1492C296.598 23.2407 296.102 22.4973 295.441 21.8366L275.619 2.01383C273.389 -0.216228 269.92 -0.546606 267.277 1.18788L247.454 14.403C245.637 15.642 244.48 17.7068 244.48 19.9369V33.152C244.48 35.6299 245.885 37.9425 248.115 39.0989L259.1 44.5501L269.754 71.2282L256.126 84.8563L249.932 82.3785C233.661 75.9361 215.242 77.3402 200.21 86.343L197.236 88.1601C197.897 85.8475 198.31 83.4522 198.31 81.057V62.2254C206.817 52.8096 211.525 40.5855 211.525 27.866V19.8543C211.525 16.2201 208.552 13.2467 204.918 13.2467C203.596 13.2467 202.357 13.6597 201.283 14.3204L199.797 15.3116C188.812 22.5799 176.092 26.4619 163.042 26.4619H162.712C158.334 26.4619 154.122 28.1963 151.066 31.3349L150.24 32.1609C147.101 35.2169 145.367 39.4292 145.367 43.8067V87.4993L143.385 86.343C128.352 77.3402 109.934 75.8535 93.6625 82.3785L87.4679 84.8563L73.8398 71.2282L84.4945 44.5501L95.4796 39.0989C97.7097 37.9425 99.1138 35.7125 99.1138 33.152V19.8543C99.1138 17.6242 98.0401 15.5594 96.1404 14.3204L76.3176 1.10529C73.6746 -0.629203 70.2056 -0.298824 67.9756 1.93123L48.1529 21.754C47.4921 22.4147 46.9965 23.2407 46.6662 24.0666L35.0203 55.0396C29.3213 70.3196 26.4305 86.4256 26.4305 102.697V102.779C26.4305 110.708 29.5691 118.225 35.1029 123.841L35.4333 124.171C44.3535 133.092 54.5952 140.525 65.9107 146.142L66.1585 146.224C72.2705 149.28 78.6303 151.758 85.2379 153.74L79.1259 178.188C75.4091 193.138 67.067 206.436 55.256 216.264C41.2149 227.91 31.3861 243.686 27.0086 261.361L20.0707 289.196C19.1621 292.747 21.3096 296.299 24.8612 297.207C26.513 297.62 28.2475 297.372 29.6517 296.547L84.7423 265.904L114.229 295.39C116.376 297.538 119.762 297.951 122.405 296.299L128.352 292.582L138.264 317.36L132.399 334.87C131.243 338.339 133.143 342.056 136.612 343.213C137.686 343.543 138.842 343.625 139.998 343.46L173.036 336.853C176.588 336.109 178.9 332.723 178.24 329.171L167.337 268.96L193.107 280.854L191.702 289.113L185.26 308.44C184.104 311.909 186.003 315.626 189.472 316.782C189.638 316.865 189.803 316.865 189.968 316.947L216.398 323.555C219.95 324.464 223.501 322.316 224.41 318.764C224.575 318.269 224.575 317.691 224.575 317.195V298.942L243.737 260.7C244.233 259.792 244.398 258.801 244.398 257.727V237.904C244.398 236.17 243.737 234.435 242.498 233.196L235.725 226.424C245.306 204.04 250.51 180.005 251.005 155.64C260.173 153.575 269.011 150.354 277.353 146.224L277.518 146.142C288.834 140.525 299.076 133.092 307.996 124.171L308.326 123.841C313.943 118.307 317.081 110.708 316.999 102.779V102.697C316.999 86.4256 314.108 70.3196 308.409 55.1222L296.928 24.1492ZM257.696 29.0223V23.4059L270.085 15.1464L279.583 24.6448L264.303 32.3261L257.696 29.0223ZM158.582 66.1073H185.012V80.9744C185.012 87.3342 179.809 92.5376 173.449 92.5376H158.582V66.1073ZM162.712 39.677H163.042C175.184 39.677 187.16 36.8688 198.062 31.5001C197.319 39.4292 194.098 46.9453 188.812 52.8922H158.582V43.8067C158.582 43.3938 158.747 42.1549 159.821 41.0811C160.895 39.8422 162.299 39.677 162.712 39.677ZM73.5094 15.1464L85.8986 23.4059V29.0223L79.2911 32.3261L64.011 24.7274L73.5094 15.1464ZM119.928 282.34L90.6065 253.019C88.5417 250.954 85.3205 250.459 82.76 251.945L36.5896 277.55L39.8934 264.5C43.6102 249.55 51.9522 236.252 63.7633 226.424C77.7218 214.778 87.6331 199.002 92.0106 181.41L98.2052 156.796C104.978 158.035 111.833 158.613 118.689 158.613H120.836L125.957 173.893C126.04 174.224 126.205 174.472 126.287 174.719L138.016 198.176L113.072 248.063C112.246 249.715 112.164 251.698 112.825 253.432L123.479 280.028L119.928 282.34ZM148.588 328.345L151.561 319.343C152.057 317.856 151.974 316.287 151.396 314.8L146.358 302.328L159.408 299.024L164.198 325.207L148.588 328.345ZM168.741 255.167L179.726 240.547L197.649 254.01L195.419 267.473L168.741 255.167ZM211.443 297.372V308.771L200.127 305.962L204.505 292.912C204.587 292.582 204.67 292.252 204.752 291.921L205.909 284.983L215.325 288.122L212.103 294.482C211.69 295.308 211.443 296.381 211.443 297.372ZM231.265 256.158L221.271 276.063L208.056 271.686L211.277 252.193C211.69 249.798 210.699 247.32 208.717 245.833L182.287 226.011C179.396 223.781 175.266 224.441 173.036 227.332L153.213 253.762C152.14 255.249 151.644 257.066 151.974 258.883L156.93 285.974L141.485 289.856L126.122 251.45L149.414 204.866H195.419L231.183 240.63V256.158H231.265ZM225.649 216.264L206.322 196.937L217.389 174.802C217.555 174.554 217.637 174.224 217.72 173.976L222.841 158.696H224.988C229.283 158.696 233.578 158.448 237.79 157.953C237.047 177.941 232.917 197.681 225.649 216.264ZM168.08 112.36L175.184 105.753H191.62C192.859 105.753 194.015 105.422 195.006 104.844L206.982 97.6585C218.463 90.8031 232.587 89.6468 245.059 94.6025L255.3 98.6496C257.778 99.6408 260.586 99.0626 262.404 97.1629L282.226 77.3402C284.126 75.4405 284.704 72.6323 283.713 70.2371L272.728 42.8156L287.182 35.6299L296.185 59.7475C301.306 73.4582 303.949 87.9949 303.949 102.697V102.779C303.949 107.157 302.214 111.369 299.076 114.425L298.745 114.756C290.816 122.685 281.731 129.292 271.654 134.248L271.489 134.331C257.035 141.516 241.094 145.316 224.988 145.316H218.05C215.242 145.316 212.682 147.133 211.773 149.858L205.331 169.268L194.18 191.651H149.497L138.346 169.268L131.904 149.858C130.995 147.133 128.518 145.316 125.627 145.316H118.689C102.5 145.316 86.642 141.516 72.1879 134.331L71.9401 134.248C61.9462 129.21 52.7782 122.685 44.9317 114.756L44.6013 114.425C41.4627 111.369 39.7282 107.157 39.7282 102.779V102.697C39.7282 88.0775 42.3712 73.4582 47.4921 59.7475L56.4949 35.6299L70.949 42.8156L59.9639 70.2371C58.9728 72.7149 59.5509 75.5231 61.4506 77.3402L81.2733 97.1629C83.173 99.0626 85.9812 99.6408 88.3765 98.6496L98.6182 94.6025C111.09 89.6468 125.131 90.8031 136.694 97.6585L148.671 104.844C149.662 105.422 150.901 105.753 152.057 105.753H155.939C152.305 109.222 147.019 110.378 142.311 108.726C135.538 106.414 128.187 106.992 121.827 110.213L116.128 113.104L122.075 124.915L127.774 122.024C130.995 120.372 134.712 120.124 138.181 121.281C147.679 124.502 158.169 122.107 165.355 115.086L168.08 112.36Z" fill="#0C5CFF"/>
<path d="M7.26833 128.549C8.92023 131.77 12.8848 133.092 16.1886 131.44C19.4098 129.788 20.7313 125.906 19.0794 122.685L18.4186 121.281C15.0322 114.425 13.2152 106.827 13.2152 99.2278C13.2152 95.5936 10.2417 92.6202 6.60758 92.6202C2.97341 92.6202 0 95.5936 0 99.2278C0 108.974 2.31265 118.555 6.60758 127.227L7.26833 128.549Z" fill="#0C5CFF"/>
<path d="M259.182 261.857C255.548 261.857 252.574 264.83 252.574 268.464V301.502C252.574 305.136 255.548 308.11 259.182 308.11C262.816 308.11 265.789 305.136 265.789 301.502V268.464C265.789 264.83 262.816 261.857 259.182 261.857Z" fill="#0C5CFF"/>
<path d="M259.182 321.325C255.548 321.325 252.574 324.298 252.574 327.933V341.148C252.574 344.782 255.548 347.755 259.182 347.755C262.816 347.755 265.789 344.782 265.789 341.148V327.933C265.789 324.298 262.816 321.325 259.182 321.325Z" fill="#0C5CFF"/>
<path d="M175.927 156.879C176.175 157.127 176.257 157.292 177.662 157.292C177.909 157.292 178.074 157.292 178.322 157.292C178.57 157.292 178.818 157.292 178.983 157.292V162.826L175.679 162.908C172.375 162.991 170.724 162.495 169.567 161.174C168.741 160.183 168.328 158.861 168.411 157.54V150.354H164.859V144.985H168.411V137.965H175.514V144.985H179.066V150.354H175.514V154.897C175.431 155.557 175.597 156.301 175.927 156.879ZM174.688 168.607C174.11 168.69 173.532 168.69 172.954 168.69C162.877 168.69 154.7 160.513 154.7 150.436C154.7 140.36 162.877 132.183 172.954 132.183C173.532 132.183 174.11 132.183 174.688 132.266V123.676C174.11 123.676 173.532 123.593 172.954 123.593C158.169 123.593 146.11 135.569 146.11 150.436C146.11 165.303 158.087 177.28 172.954 177.28C173.532 177.28 174.11 177.28 174.688 177.197V168.607Z" fill="#0C5CFF"/>
<path d="M174.688 123.676V132.266C183.939 133.174 191.125 140.938 191.125 150.436C191.125 159.935 183.939 167.699 174.688 168.607V177.197C188.647 176.289 199.715 164.643 199.715 150.436C199.715 136.23 188.73 124.584 174.688 123.676Z" fill="#0C5CFF"/>
</svg>
