<svg width="191" height="125" fill="none" xmlns="http://www.w3.org/2000/svg"><path d="M60.6 36.2h-6.1c-1.4 0-2.6-1.2-2.6-2.6 0-1.4 1.2-2.6 2.6-2.6h6.1v5.2z" fill="url(#paint0_linear)"/><path d="M146.8 89.3h4.6v.6c7.3 2 12.7 8.7 12.7 16.6 0 7.9-5.4 14.6-12.7 16.6v.6h-4.6c-9.5 0-17.2-7.7-17.2-17.2s7.7-17.2 17.2-17.2z" fill="#9DA2AB"/><path d="M151.4 123.7c9.499 0 17.2-7.701 17.2-17.2 0-9.5-7.701-17.2-17.2-17.2-9.499 0-17.2 7.7-17.2 17.2 0 9.499 7.701 17.2 17.2 17.2z" fill="url(#paint1_linear)"/><path d="M142.5 121.3c2.6 1.6 5.6 2.5 8.9 2.5 9.5 0 17.2-7.7 17.2-17.2" stroke="#6D737D" stroke-width=".7" stroke-miterlimit="10" stroke-linecap="round" stroke-linejoin="round"/><path d="M151.9 117.4c6.02 0 10.9-4.88 10.9-10.9 0-6.02-4.88-10.9-10.9-10.9-6.02 0-10.9 4.88-10.9 10.9 0 6.02 4.88 10.9 10.9 10.9z" fill="#9DA2AB"/><path d="M151.9 109.5a3 3 0 100-6 3 3 0 000 6z" fill="#6D737D"/><path d="M145.8 92l7.3 12.7c.6.9.3 2.1-.6 2.7-.9.6-2.1.3-2.7-.6l-7.2-12.4" stroke="#6D737D" stroke-width="1.2" stroke-miterlimit="10" stroke-linecap="round" stroke-linejoin="round"/><path d="M47.9 89.3h4.6v.6c7.3 2 12.7 8.7 12.7 16.6 0 7.9-5.4 14.6-12.7 16.6v.6h-4.6c-9.5 0-17.2-7.7-17.2-17.2s7.7-17.2 17.2-17.2z" fill="#9DA2AB"/><path d="M125.4 74.9l6.2 12.6c.6 1.3.4 2.9-.7 3.9l-15 14.9h-11.2l13.4-14.8c1-1.1 1.2-2.7.4-3.9l-7.2-12.7h14.1z" fill="url(#paint2_linear)"/><path d="M121 74.9h-19v-2.5c0-5.7 4.6-10.4 10.4-10.4h21.3L121 74.9z" fill="url(#paint3_linear)"/><path d="M86.1 106.3H69.3L48.9 84.6l12.1-6 25.1 27.7z" fill="url(#paint4_linear)"/><path d="M101.4 21.4s-2.5-.8-5.1.5c-2.6 1.3-5.3 5-7.1 6.4-1.7 1.4-6.3 5.6-10.2 5.2-3.9-.5-12.4-3.9-15.1-4.6-2.8-.6-7.2-2.5-8.8.4-1.6 2.9-.1 4.6 1.6 3.5 1.7-1.1 3.5-1.7 4.8-1.1 1.3.6 2.1-.2 3.4.5 1.3.7 11.1 6.9 14.1 7.9s5.8.7 12.5-3.2c7-4.1 8.2-5.5 8.8-6 .6-.5 3.8-1.8 3.2-5.3-.6-3.5-2.1-4.2-2.1-4.2z" fill="#fff"/><path d="M73.4 29.2c-.9-1.5-2.1-3.8-6.9-3.8-4.9 0-6 .2-7.5 4.9-1.4 4.7-1.1 7.5-1.1 7.5h17.5s.2-4.9-2-8.6z" fill="url(#paint5_linear)"/><path d="M74.5 30.8h9.1v.1c1.5 0 2.6 1.2 2.6 2.6 0 1.4-1.2 2.6-2.6 2.6v.2h-9.1c-1.5 0-2.8-1.2-2.8-2.8 0-1.5 1.3-2.7 2.8-2.7z" fill="url(#paint6_linear)"/><path d="M56.7 32.9c-.8.3-1.7.2-2.3-.7-.8-1.2.8-3.5 2.3-4.2.4-.2.7-.2 1-.3M83.6 31H75c-1.2 0-3.3.6-3.3 2.6M83.4 36.2l-9.3-.1" stroke="#6D737D" stroke-width="1.2" stroke-miterlimit="10" stroke-linecap="round" stroke-linejoin="round"/><path d="M74.2 31s-1.2-3-3.3-4.3c-2.1-1.3-2.8-1.3-7-1.2-3.6.1-6.1 4.9-6.1 12.4H75" stroke="#6D737D" stroke-width="1.2" stroke-miterlimit="10" stroke-linecap="round" stroke-linejoin="round"/><path d="M69.3 33s.2-2.5-.9-4.7c-1.1-2.1-2.1-2.9-4.4-2.9M57.9 36.1h-3.4s-1.8-.2-2.4-2.3c-.4-1.2 0-2.2.3-2.8" stroke="#6D737D" stroke-width="1.2" stroke-miterlimit="10" stroke-linecap="round" stroke-linejoin="round"/><path d="M128.1 51.8h33.3V19.7h-33.3v32.1z" fill="url(#paint7_linear)"/><path d="M113.86 51.717h14.2v-32.1h-14.2v32.1z" fill="#F9A932"/><path d="M148.8 36.5c-.2-.2-.7-.2-.9 0l-2.4 2.4c-.2.2-.2.7 0 .9l2.4 2.4c.2.2.7.2.9 0l2.4-2.4c.2-.2.2-.7 0-.9l-2.4-2.4zM147.9 34.9c.2.2.7.2.9 0l2.4-2.4c.2-.2.2-.7 0-.9l-2.4-2.4c-.2-.2-.7-.2-.9 0l-1.9 1.9c-.1.1-.7.5-1.3.5-.8 0-1.3-.5-1.3-.5l-1.8-1.8c-.2-.2-.7-.2-.9 0l-2.4 2.4c-.2.2-.2.7 0 .9l1.9 1.9c.1.1.5.6.5 1.3 0 .7-.4 1.2-.5 1.3l-1.9 1.9c-.2.2-.2.7 0 .9l2.4 2.4c.2.2.7.2.9 0l2.4-2.4c.2-.2.2-.7 0-.9l-1.9-1.9c-.1-.1-.5-.7-.5-1.3 0-.6.4-1.2.5-1.3l1.3-1.3s.5-.5 1.3-.5c.7 0 1.2.4 1.3.5l1.9 1.7z" fill="#6D737D"/><path d="M161.4 20h-33.3v7.1" stroke="#6D737D" stroke-width=".7" stroke-miterlimit="10" stroke-linecap="round" stroke-linejoin="round"/><path d="M112.2 49s-13 6.2-16.9 8.8c-3.9 2.6-3.5 4.1-4 6.4-.5 2.3-6.8 20.5-7.7 22.6-.9 2.1-3.1 1.2-5.8 0-2.7-1.2-4.2-2.7-5.2-1.8 0 0 3.7 6.2 7.7 9.2 4 3 5.4 2.8 6.1-.5.7-3.3 2.5-3.6 6-10.5s8.9-16.6 8.9-16.6l18.8-6.7s4.3-1.9 1.7-5.8c-2.6-3.9-9.6-5.1-9.6-5.1z" fill="url(#paint8_linear)"/><path d="M72.5 51.8v19.4c0 .3.1.6.2.9l7.2 18-2.3 1.7-14.8-16.7 9.7-23.3z" fill="url(#paint9_linear)"/><path d="M84.6 28.4c3.2.9 14.3 8.5 16.7 8.8-1.4-2.6-3.2-4.1-3.4-8.8-.1-2.1.4-4 1.2-6.1.3-.9.7-1.4.6-2.2-.2-.9-.5-.7-1.4-1.3-.9-.5-1.4-1-2-1.9-.6-.9-1.2-2-1.8-4.3-1.2-4.9-.2-10.2 4.1-10.6 4.3-.3 7.5 1.9 7.3 6.6-.1 3.4-.7 5.9-.4 7.4.2.7 1.4 1.9 2.8 2.3 1.4.3 3.5.5 5.3 1.1 2.7.8 5.5 2.9 8.3 7.3 2.1 3.2 4.1 6.3 8.1 13.7 2.3 4.2 6.1 8 5.6 14.4-.3 4.4-2.2 6.8-7.4 7.5-4.6.6-17.6 6-20.2 7.5-2.6 1.5-4.4 3.3-6.9 8.4-2.6 5.1-11 17.6-11.5 18.2-1.6 2.1-3.4 4.6-4.8 3-1.6-1.8-7.9-8.6-9.6-10.5-1.7-1.9-1.4-2.6 1.1-1s7.6 4.7 9.5 2.8c1.6-1.7 6.5-13.5 9-20.6 2.5-7 2.2-8.8 7.8-11.3 2.8-1.3 7.4-3.3 11.3-5-.1-.2-2.3-2.4-4.7-5.7-1.3-1.8-1.8-3.3-3.2-5.1 0 0-1.3 2.1-4.2 1.7-2.9-.4-8.8-5.3-11.6-7.3-2.8-2-4.5-3.4-5-4.6-.5-1.1.1-2.3-1.8-2.3-1.9 0-2 2.4-2.3 3-.3.6-2 .5-3.1 0s-1.5-2.5-.5-3.9c1.1-1.1 3.2-2.3 7.1-1.2z" fill="url(#paint10_linear)"/><path d="M86.2 8.2h20.2s.3-7.2-6.7-7.2c-6.9 0-7 7.2-7 7.2M98.6 21.4s-2-.2-3.9 1.5-6.1 6-6.1 6M88.1 38.8s-4.4 1.9-6.4 1.9-4.4-1.3-4.4-1.3M115.6 32.9s-6.1 7.2-9.5 10.2c-3.3 3-4.8 2.1-7.5.4-2.7-1.7-5-3.4-5-3.4M111.9 24.7s-4.3 5-6.5 8.2c-2.2 3.2-3.2 4.6-4.1 4.3-.9-.3-6.3-3.1-6.3-3.1" stroke="#6D737D" stroke-width="1.2" stroke-miterlimit="10" stroke-linecap="round" stroke-linejoin="round"/><path d="M127.8 20.2h-13.9c-4.3 0-5.7 1.8-7.1 3.6-2.5 3.2-.9 8.3-.9 8.3M133.7 44.9s-2.3.9-10.2 0c-9.6-1.1-13.2-5.9-13.2-5.9M120.6 51.8s-5.6 1.4-13.1 5-9.2 3.7-10.7 8-5.5 16.3-8.7 22.1c-2.6 4.8-3.7 5-6.1 4.1-1.8-.7-3.5-1.8-5.6-3M114 54s-2.8-2.6-4.7-5.7M85.6 32.1c-.9-1.5-3.5-1.5-4.2.3-.6 1.3-.3 3.2 1.8 3.7 2 .4 2.8-1.6 2.8-1.6" stroke="#6D737D" stroke-width="1.2" stroke-miterlimit="10" stroke-linecap="round" stroke-linejoin="round"/><path d="M52.8 68.6l14.4-27.8 4.9 4.8c.3.3.4.7.4 1.1v5.2l-9.1 22c-.3.8-.2 1.8.4 2.5l23.3 25.9 33.4-.5 10.3-10.2c1-1 1.3-2.6.7-3.9l-6.2-12.6H121V72c0-5.4 4.4-9.8 9.8-9.8h20.4c.3 0 .6.1.8.3l8.9 8.9c.4.4.6.9.6 1.4v2.5c0 .6-.3 1.2-.8 1.6l-16.3 12.8-10.8 8.6c-2.6 2.5-3.9 4.7-3.9 8.2H86.2l-24-26.6c-.6-.7-1.6-.8-2.4-.5l-19.9 9.8c-.3.2-.7.2-1.1.2H36l16.8-20.8z" fill="url(#paint11_linear)"/><path d="M67.2 40.7h-8.5c-.5 0-1 .3-1.2.8L43.9 70.8 29.7 88c-.4.5-.1 1.3.6 1.3h8c.6 0 1.2-.3 1.6-.8l13.7-17.7 13.6-30.1z" fill="url(#paint12_linear)"/><path d="M157.4 70.6l-13.8 11.8M108.1 74.9h33.3M121 74.9v-3.1c0-2.8 1.2-4.6 1.2-4.6" stroke="#6D737D" stroke-width="1.2" stroke-miterlimit="10" stroke-linecap="round" stroke-linejoin="round"/><path d="M125.4 74.9l2.7 5.5M126.3 95.6l-5.6 6-16.6.3" stroke="#6D737D" stroke-width=".7" stroke-miterlimit="10" stroke-linecap="round" stroke-linejoin="round"/><path d="M142.5 101.9l3.3 4.3c.6.8 1.7.9 2.4.3l18.4-14.2c.8-.6.9-1.7.3-2.4l-3.3-4.3c-.6-.8-1.7-.9-2.4-.3l-18.4 14.2c-.7.5-.9 1.6-.3 2.4z" fill="url(#paint13_linear)"/><path d="M167 92.1c.6-.4.7-1.3.2-1.8l-3.8-5" stroke="#6D737D" stroke-width="1.2" stroke-miterlimit="10" stroke-linecap="round" stroke-linejoin="round"/><path d="M52.5 123.7c9.5 0 17.2-7.701 17.2-17.2 0-9.5-7.7-17.2-17.2-17.2S35.3 97 35.3 106.5c0 9.499 7.7 17.2 17.2 17.2z" fill="url(#paint14_linear)"/><path d="M57.8 90.1c-1.7-.5-3.4-.8-5.2-.8-9.5 0-17.2 7.7-17.2 17.2M68.1 114c1.1-2.3 1.7-4.8 1.7-7.5 0-4.8-2-9.1-5.1-12.3" stroke="#6D737D" stroke-width=".7" stroke-miterlimit="10" stroke-linecap="round" stroke-linejoin="round"/><path d="M53 117.4c6.02 0 10.9-4.88 10.9-10.9 0-6.02-4.88-10.9-10.9-10.9-6.02 0-10.9 4.88-10.9 10.9 0 6.02 4.88 10.9 10.9 10.9z" fill="#9DA2AB"/><path d="M53 109.5a3 3 0 100-6 3 3 0 000 6z" fill="#6D737D"/><path d="M61.8 87.5l-9.9 17.2c-.6.9-.3 2.1.6 2.7.9.6 2.1.3 2.7-.6l9.4-16.2M150.9 93.2l-20.8 15.7c-1.4 1-3.3.8-4.4-.6-1.1-1.4-.8-3.4.5-4.4l29.6-23.4M160.6 96.9l-12.6 9.7c-.7.5-1.7.4-2.2-.3l-3.6-4.8s-.6-.8-.4-1.4" stroke="#6D737D" stroke-width="1.2" stroke-miterlimit="10" stroke-linecap="round" stroke-linejoin="round"/><path d="M143.6 103.4l-11.4 8.3c-2.9 2.1-7 1.6-9.3-1.2 0 0-1.2-1.3-1.7-2.3M60.6 55.4l-6.9 15.4-11.6 14.9" stroke="#6D737D" stroke-width="1.2" stroke-miterlimit="10" stroke-linecap="round" stroke-linejoin="round"/><path d="M64.3 71.8l8.3-20v-5.2s.2-.5-.4-1.1c-.6-.6-4.9-4.8-4.9-4.8l-3.1 7M67.2 40.7h-7.7" stroke="#6D737D" stroke-width=".7" stroke-miterlimit="10" stroke-linecap="round" stroke-linejoin="round"/><path d="M92.2 106.3h-6.1L68.2 86.5" stroke="#6D737D" stroke-width="1.2" stroke-miterlimit="10" stroke-linecap="round" stroke-linejoin="round"/><defs><linearGradient id="paint0_linear" x1="49.041" y1="33.358" x2="54.745" y2="33.497" gradientUnits="userSpaceOnUse"><stop offset=".224" stop-color="#E7EEF2"/><stop offset=".25" stop-color="#E4EBEF"/><stop offset=".567" stop-color="#C3CACD"/><stop offset=".828" stop-color="#AFB5B8"/><stop offset="1" stop-color="#A8AEB0"/></linearGradient><linearGradient id="paint1_linear" x1="139.251" y1="116.811" x2="163.279" y2="96.493" gradientUnits="userSpaceOnUse"><stop stop-color="#D1D8DB"/><stop offset=".255" stop-color="#E1E8EC"/><stop offset=".48" stop-color="#EAF1F5"/><stop offset=".681" stop-color="#E5ECF0"/><stop offset=".915" stop-color="#D8DFE2"/><stop offset="1" stop-color="#D1D8DB"/></linearGradient><linearGradient id="paint2_linear" x1="118.794" y1="79.501" x2="118.051" y2="109.092" gradientUnits="userSpaceOnUse"><stop stop-color="#3A9BE0"/><stop offset=".202" stop-color="#3D9DE1"/><stop offset=".345" stop-color="#46A2E3"/><stop offset=".468" stop-color="#56ABE8"/><stop offset=".581" stop-color="#6BB8EE"/><stop offset=".668" stop-color="#82C5F5"/><stop offset=".75" stop-color="#7EC3F4"/><stop offset=".826" stop-color="#73BCF1"/><stop offset=".901" stop-color="#60B1EB"/><stop offset=".973" stop-color="#46A2E3"/><stop offset="1" stop-color="#3A9BE0"/></linearGradient><linearGradient id="paint3_linear" x1="133.677" y1="68.437" x2="102.019" y2="68.437" gradientUnits="userSpaceOnUse"><stop offset=".417" stop-color="#82C5F5"/><stop offset="1" stop-color="#3A9BE0"/></linearGradient><linearGradient id="paint4_linear" x1="89.16" y1="116.881" x2="68.74" y2="96.075" gradientUnits="userSpaceOnUse"><stop offset=".603" stop-color="#CED5E0"/><stop offset="1" stop-color="#AFB5BF"/></linearGradient><linearGradient id="paint5_linear" x1="66.631" y1="25.49" x2="66.631" y2="34.969" gradientUnits="userSpaceOnUse"><stop offset=".417" stop-color="#82C5F5"/><stop offset="1" stop-color="#3A9BE0"/></linearGradient><linearGradient id="paint6_linear" x1="86.22" y1="33.542" x2="71.722" y2="33.542" gradientUnits="userSpaceOnUse"><stop offset=".224" stop-color="#E7EEF2"/><stop offset=".25" stop-color="#E4EBEF"/><stop offset=".567" stop-color="#C3CACD"/><stop offset=".828" stop-color="#AFB5B8"/><stop offset="1" stop-color="#A8AEB0"/></linearGradient><linearGradient id="paint7_linear" x1="146.102" y1="29.542" x2="141.365" y2="51.056" gradientUnits="userSpaceOnUse"><stop offset=".427" stop-color="#FFCF7D"/><stop offset="1" stop-color="#F9B032"/></linearGradient><linearGradient id="paint8_linear" x1="98.66" y1="48.294" x2="96.29" y2="96.887" gradientUnits="userSpaceOnUse"><stop offset=".004" stop-color="#FC77A8"/><stop offset=".346" stop-color="#F370A1"/><stop offset=".899" stop-color="#DB5E8C"/><stop offset="1" stop-color="#D65A88"/></linearGradient><linearGradient id="paint9_linear" x1="87.494" y1="69.872" x2="69.146" y2="72.68" gradientUnits="userSpaceOnUse"><stop offset=".481" stop-color="#82C5F5"/><stop offset=".584" stop-color="#6DB9EF"/><stop offset=".748" stop-color="#51A8E7"/><stop offset=".892" stop-color="#409EE2"/><stop offset="1" stop-color="#3A9BE0"/></linearGradient><linearGradient id="paint10_linear" x1="108.362" y1="2.474" x2="103.561" y2="100.88" gradientUnits="userSpaceOnUse"><stop offset=".004" stop-color="#FC77A8"/><stop offset=".346" stop-color="#F370A1"/><stop offset=".899" stop-color="#DB5E8C"/><stop offset="1" stop-color="#D65A88"/></linearGradient><linearGradient id="paint11_linear" x1="161.408" y1="73.505" x2="28.128" y2="73.505" gradientUnits="userSpaceOnUse"><stop offset=".417" stop-color="#82C5F5"/><stop offset="1" stop-color="#3A9BE0"/></linearGradient><linearGradient id="paint12_linear" x1="56.701" y1="49.097" x2="42.385" y2="77.928" gradientUnits="userSpaceOnUse"><stop offset=".417" stop-color="#82C5F5"/><stop offset="1" stop-color="#3A9BE0"/></linearGradient><linearGradient id="paint13_linear" x1="152.324" y1="92.78" x2="156.742" y2="98.448" gradientUnits="userSpaceOnUse"><stop offset=".224" stop-color="#E7EEF2"/><stop offset=".25" stop-color="#E4EBEF"/><stop offset=".567" stop-color="#C3CACD"/><stop offset=".828" stop-color="#AFB5B8"/><stop offset="1" stop-color="#A8AEB0"/></linearGradient><linearGradient id="paint14_linear" x1="41.444" y1="116.971" x2="62.999" y2="96.653" gradientUnits="userSpaceOnUse"><stop stop-color="#D1D8DB"/><stop offset=".255" stop-color="#E1E8EC"/><stop offset=".48" stop-color="#EAF1F5"/><stop offset=".681" stop-color="#E5ECF0"/><stop offset=".915" stop-color="#D8DFE2"/><stop offset="1" stop-color="#D1D8DB"/></linearGradient></defs></svg>