<svg width="171" height="129" fill="none" xmlns="http://www.w3.org/2000/svg"><path d="M104.7 49.7H138V17.6h-33.3v32.1z" fill="url(#paint0_linear)"/><path d="M90.404 49.663h14.2v-32.1h-14.2v32.1z" fill="#F9A932"/><path d="M125.4 34.4c-.2-.2-.7-.2-.9 0l-2.4 2.4c-.2.2-.2.7 0 .9l2.4 2.4c.2.2.7.2.9 0l2.4-2.4c.2-.2.2-.7 0-.9l-2.4-2.4zM124.5 32.9c.2.2.7.2.9 0l2.4-2.4c.2-.2.2-.7 0-.9l-2.4-2.4c-.2-.2-.7-.2-.9 0l-1.9 1.9c-.1.1-.7.5-1.3.5-.8 0-1.3-.5-1.3-.5l-1.8-1.8c-.2-.2-.7-.2-.9 0l-2.4 2.4c-.2.2-.2.7 0 .9l1.9 1.9c.1.1.5.6.5 1.3 0 .7-.4 1.2-.5 1.3l-1.9 1.9c-.2.2-.2.7 0 .9l2.4 2.4c.2.2.7.2.9 0l2.4-2.4c.2-.2.2-.7 0-.9l-1.9-1.9c-.1-.1-.5-.7-.5-1.3 0-.6.4-1.2.5-1.3l1.3-1.3s.5-.5 1.3-.5c.7 0 1.2.4 1.3.5l1.9 1.7z" fill="#6D737D"/><path d="M138 17.9h-33.3V25" stroke="#6D737D" stroke-width=".7" stroke-miterlimit="10" stroke-linecap="round" stroke-linejoin="round"/><path d="M99.2 47.6c-1.6-1.3-7.2-.9-12.6 0-5.4.9-10 3.5-11.4 5.9-1.4 2.5.7 5.2 3.2 8.9s8.6 12.3 9.5 13.9c.9 1.6 3.3 4.3.4 5.6-2.9 1.3-9.2 4.6-9.2 4.6h14.7s2.1-.1 1.9-2.4c-.2-2.4-1.6-10.1-4.8-17.6-3.2-7.5-3.5-8.3-3.5-8.3s1.7-.1 5.7 0 6.8-2 7.9-4.7c1-2.8-.8-5.1-1.8-5.9z" fill="url(#paint1_linear)"/><path d="M97.7 57.7s-5.7.6-8.1.5l-2.3-.1s1.5 3.4 3.5 8.3c.9 2 1.2 3.2 2 5.7" stroke="#6D737D" stroke-width="1.2" stroke-miterlimit="10" stroke-linecap="round" stroke-linejoin="round"/><path d="M90.5 47c-4.3.6-8.9 1.6-12.2 3.6-4.3 2.7-4.2 4.8-2.2 8.3 2 3.5 11.3 16.3 12.7 19.1 1.4 2.8.8 3.5-2.1 4.8-2.8 1.2-7.6 3.8-7.6 3.8h9.7" stroke="#6D737D" stroke-width="1.2" stroke-miterlimit="10" stroke-linecap="round" stroke-linejoin="round"/><path d="M105.9 59.6h11.2c1 0 1.7-.8 1.7-1.7 0-1-.9-1.8-1.9-1.7l-11.1 1c-.6.1-1.1.6-1.1 1.2s.5 1.2 1.2 1.2z" fill="#fff"/><path d="M55.1 128.3c14.36 0 26-11.641 26-26 0-14.36-11.64-26-26-26s-26 11.64-26 26c0 14.359 11.64 26 26 26z" stroke="#6D737D" stroke-width="1.2" stroke-miterlimit="10" stroke-linecap="round" stroke-linejoin="round"/><path d="M55.1 106.3a4 4 0 100-8 4 4 0 000 8z" fill="#AFB5BF"/><path d="M128.9 128.3c14.359 0 26-11.641 26-26 0-14.36-11.641-26-26-26s-26 11.64-26 26c0 14.359 11.641 26 26 26z" stroke="#6D737D" stroke-width="1.2" stroke-miterlimit="10" stroke-linecap="round" stroke-linejoin="round"/><path d="M128.9 109.7a7.4 7.4 0 100-14.8 7.4 7.4 0 000 14.8z" fill="url(#paint2_linear)"/><path d="M128.9 110.2a7.9 7.9 0 100-15.8 7.9 7.9 0 000 15.8z" stroke="#6D737D" stroke-width="1.2" stroke-miterlimit="10" stroke-linecap="round" stroke-linejoin="round"/><path d="M128.9 104.8a2.5 2.5 0 100-5 2.5 2.5 0 000 5zM92.1 103.4c3.7.6 28.9 5.9 28.9 5.9M128.9 94.4S95.4 95.9 92.4 96" stroke="#6D737D" stroke-width=".7" stroke-miterlimit="10" stroke-linecap="round" stroke-linejoin="round"/><path d="M92.4 105.6a5.8 5.8 0 100-11.6 5.8 5.8 0 000 11.6z" fill="#AFB5BF"/><path d="M89.2 88.7l6.7 23.1M99.6 111.8h-7.9M106.1 66.7H70.4M55.1 102.3L74.7 56h-12c-3.2 0-5.8 2.6-5.8 5.8v.5c0 3.2 2.6 5.8 5.8 5.8M92.4 99.8l17-40.2M128.9 102.3l-22.8-35.6M92.4 99.8l-22-33.1" stroke="#6D737D" stroke-width="1.2" stroke-miterlimit="10" stroke-linecap="round" stroke-linejoin="round"/><path d="M65 56H53.5c-3.2 0-5.8 2.6-5.8 5.8v.5c0 3.2 2.6 5.8 5.8 5.8M105.9 59.6h11.2c1 0 1.7-.8 1.7-1.7 0-1-.9-1.8-1.9-1.7l-11.1 1c-.6.1-1.1.6-1.1 1.2s.5 1.2 1.2 1.2z" stroke="#6D737D" stroke-width="1.2" stroke-miterlimit="10" stroke-linecap="round" stroke-linejoin="round"/><path d="M77.7 20c-.7-1-2.1-1.2-3.2-.6-1.4.8-3.4 2.6-5 5.3-2.3 3.9-4.4 7.7-8.3 14.2-4.6 7.7-6.6 11.6-8.1 13-1.5 1.4-4.9 2.6-5.3 5.4-.4 2.9 1.2 1.2 2 0 .9-1.2 2.3-1.9 2.3-1.9s-1.5 2.5-.3 2.7c1.2.2 2.7-1.6 3.7-3 1.1-1.4 6-7.1 9.8-11.6 2.7-3.3 7.6-9.5 11.9-17 1.4-2.5 1.2-5 .6-6 0-.3 0-.4-.1-.5z" fill="#fff"/><path d="M77.7 20c-.7-1-2.1-1.2-3.2-.6-1.4.8-3.4 2.6-5 5.3-2.3 3.9-4.4 7.7-8.3 14.2-4.6 7.7-6.6 11.6-8.1 13-1.5 1.4-4.9 2.6-5.3 5.4-.4 2.9 1.2 1.2 2 0 .9-1.2 2.3-1.9 2.3-1.9s-1.5 2.5-.3 2.7c1.2.2 2.7-1.6 3.7-3 1.1-1.4 6-7.1 9.8-11.6 2.7-3.3 7.6-9.5 11.9-17 1.4-2.5 1.2-5 .6-6 0-.3 0-.4-.1-.5z" stroke="#6D737D" stroke-width="1.2" stroke-miterlimit="10" stroke-linecap="round" stroke-linejoin="round"/><path d="M58.5 55.5c2.5-.9 3.7-2.1 6.9-6.1 2.5-3.2 8.8-11.6 12.4-17.2-1.9-1.9-2.8-2.5-3.6-4.2-2.2-4.2 1-9.3 1-9.3s-.9-.5-1.7-1.9c-.6-1-1.2-2-1.8-4.3-1.2-4.9-.2-10.2 4.1-10.6 4.3-.3 7.5 1.9 7.3 6.6-.1 3.4-.7 5.9-.4 7.4.2.7.8 1.2 1.6 1.3h.6c.7 0 3.3.2 5.2.4 2.2.3 6.2 1.3 10.6 6.5 2.5 2.9 6.7 9.5 9.6 14.7 2.3 4.2 3.2 6.8 4.3 11 1.4 5.3-2.7 14.8-7.1 23.7-1.7 3.4-3.3 6.6-4.6 9.7-3.6 8.3-6.5 14.5-7.8 18.3-.5 1.5-.7 2.7-.7 3.4.3 2.7 1 4.3-1 4.7-2.1.4-12 .1-14.5 0s-2.8-.9.1-1.5c3-.6 8.7-2.4 9.8-4.9 1-2.5 3.1-16.2 4.6-23.7 1.5-7.5 4.3-21.9 4.3-21.9s-.7-.9-1.7-2.2c-2.6-3.4-3.9-6.5-8.3-12.9-1.3-1.9-2.8-3.6-4.4-5.2-6 8.2-16.2 16.8-18.2 18.7-2.1 2-3.5.7-4.6 2.6-1.1 2-2.4 3.6-3.2 2.6-.7-.9-1.3-4.7 1.2-5.7z" fill="url(#paint3_linear)"/><path d="M87.4 21.2c-3.4.7-4.9 2.5-7.3 7.2-2.4 4.7-11.5 17-14.7 21-3.2 4-4.4 5.2-6.9 6.1-2.6.9-2 4.8-1.2 5.7.8 1 2.1-.7 3.2-2.6 1.1-1.9 2.5-.7 4.6-2.6 2.1-2 14.3-12.1 20.8-22.4M63.4 8h20.2S83.9.8 76.9.8c-6.9 0-7 7.2-7 7.2" stroke="#6D737D" stroke-width="1.2" stroke-miterlimit="10" stroke-linecap="round" stroke-linejoin="round"/><path d="M104.3 18.2H87.8c-2.7 0-4.9 1.5-5.7 2.3-4.2 4.5-2 7.9-2 7.9M112.1 42.2s-3.2 2.1-12.1.7c-9.6-1.5-15.3-7.5-15.3-7.5M83.2 37.4c1.6 1.6 3.2 3.4 4.4 5.2 4.4 6.5 5.7 9.5 8.3 12.9 1 1.3 1.7 2.2 1.7 2.2" stroke="#6D737D" stroke-width="1.2" stroke-miterlimit="10" stroke-linecap="round" stroke-linejoin="round"/><path d="M99.2 51.2c-1.5 7.5-9.3 49.7-10.3 52.2s-6.8 4.3-9.8 4.9" stroke="#6D737D" stroke-width="1.2" stroke-miterlimit="10" stroke-linecap="round" stroke-linejoin="round"/><defs><linearGradient id="paint0_linear" x1="122.675" y1="27.464" x2="117.937" y2="48.978" gradientUnits="userSpaceOnUse"><stop offset=".427" stop-color="#FFCF7D"/><stop offset="1" stop-color="#F9B032"/></linearGradient><linearGradient id="paint1_linear" x1="88.654" y1="66.988" x2="93.233" y2="63.994" gradientUnits="userSpaceOnUse"><stop offset=".004" stop-color="#FC77A8"/><stop offset=".346" stop-color="#F370A1"/><stop offset=".899" stop-color="#DB5E8C"/><stop offset="1" stop-color="#D65A88"/></linearGradient><linearGradient id="paint2_linear" x1="122.248" y1="109.847" x2="130.745" y2="100.232" gradientUnits="userSpaceOnUse"><stop offset=".156" stop-color="#E7EEF2"/><stop offset=".415" stop-color="#E2E9ED"/><stop offset=".723" stop-color="#D4DCDF"/><stop offset=".732" stop-color="#D3DBDE"/></linearGradient><linearGradient id="paint3_linear" x1="86.704" y1="37.572" x2="85.349" y2="65.344" gradientUnits="userSpaceOnUse"><stop offset=".004" stop-color="#FC77A8"/><stop offset=".346" stop-color="#F370A1"/><stop offset=".899" stop-color="#DB5E8C"/><stop offset="1" stop-color="#D65A88"/></linearGradient></defs></svg>