<svg width="159" height="142" fill="none" xmlns="http://www.w3.org/2000/svg"><path d="M77.3 21.4c-.2.1-3.9-.7-6.3 1.5S57.7 40.2 57.7 40.2s-4.1 1.6-6.2 1.5c-2.1-.1-8.1-2-10.6-2s-4 1.8-3.8 3.9c.2 2.1 2.6 2.2 3.3 1.1.7-1.1.5-2.7 3.8-2.7h6.2s2.9 6.4 7.7 5.5C62.9 46.6 71.3 36 71.3 36l6-14.6z" fill="#fff"/><path d="M74.7 21.1c-2.4.5-5.5 2.7-9.6 8.4s-6.2 9-6.2 9" stroke="#6D737D" stroke-width="1.2" stroke-miterlimit="10" stroke-linecap="round" stroke-linejoin="round"/><path d="M47.5 45.3v81.8c0 .3.2.6.6.6H122c.9 0 1.7.7 1.7 1.7 0 .9-.7 1.7-1.7 1.7H46.8c-1.8 0-3.3-1.5-3.3-3.3V45.4h4v-.1z" fill="#fff"/><path d="M42.1 45.3h16" stroke="#6D737D" stroke-width="1.2" stroke-miterlimit="10" stroke-linecap="round" stroke-linejoin="round"/><path d="M92.9 53h33.3V20.9H92.9V53z" fill="url(#paint0_linear)"/><path d="M78.74 52.912h14.2v-32.1h-14.2v32.1z" fill="#F9A932"/><path d="M113.7 37.7c-.2-.2-.7-.2-.9 0l-2.4 2.4c-.2.2-.2.7 0 .9l2.4 2.4c.2.2.7.2.9 0l2.4-2.4c.2-.2.2-.7 0-.9l-2.4-2.4zM112.8 36.1c.2.2.7.2.9 0l2.4-2.4c.2-.2.2-.7 0-.9l-2.4-2.4c-.2-.2-.7-.2-.9 0l-1.9 1.9c-.1.1-.7.5-1.3.5-.8 0-1.3-.5-1.3-.5l-1.8-1.8c-.2-.2-.7-.2-.9 0l-2.4 2.4c-.2.2-.2.7 0 .9l1.9 1.9c.1.1.5.6.5 1.3 0 .7-.4 1.2-.5 1.3l-1.9 1.9c-.2.2-.2.7 0 .9l2.4 2.4c.2.2.7.2.9 0l2.4-2.4c.2-.2.2-.7 0-.9l-1.9-1.9c-.1-.1-.5-.7-.5-1.3 0-.6.4-1.2.5-1.3l1.3-1.3s.5-.5 1.3-.5c.7 0 1.2.4 1.3.5l1.9 1.7z" fill="#6D737D"/><path d="M126.2 21.2H92.9v7.1" stroke="#6D737D" stroke-width=".7" stroke-miterlimit="10" stroke-linecap="round" stroke-linejoin="round"/><path d="M67.5 62.7c.2 9.9 5.8 55 5.5 58.6-.2 2.6-3.8 3.3-7 4.4-2.9 1-3.3 2-.4 2 2.5 0 10.1.1 12.9 0 2.1 0-.2-3.9-.1-6.6 0-2.5.3-4.5.5-6.7 2.2-17.9 2.8-35.7 4-46.5 1.2-10.8-8.4-22-11.7-23.2-3.3-1.2-3.7.4-3.7.4s-.2 8.6 0 17.6z" fill="url(#paint1_linear)"/><path d="M78.4 127.7c2.1 0-.2-3.9-.1-6.6 0-1.1.1-2.1.1-3" stroke="#6D737D" stroke-width="1.2" stroke-miterlimit="10" stroke-linecap="round" stroke-linejoin="round"/><path d="M67.4 47.5c-.3-4 0-9.3.9-14.7.7-4.3 1-6.3 3.1-8.9 2.1-2.6 4-3.5 3.6-5.8-.2-1.2-1.3-1.3-2-1.9-.9-.8-1.5-2-2.1-3.7-1.5-4.8-.2-10.2 4.1-10.6 4.3-.3 7.2 1.9 7.3 6.6.2 4.4-1.4 5.7-.8 7.8.4 1.7 1.8 2.2 2.8 3.2 2.2 1.8 6.1 2.3 6.5 10.4.4 8.1-.5 16.6-.4 21.2.1 4.4 1.1 7 1 11 0 1.8-.4 4.2-.6 5.1-.1.5-.1 1-.1 1.5.9 7.8 5.5 47.2 6.1 50.7.8 4.6 3.7 8 1.6 8.2H84.7c-2.3 0-2.7-.8-.6-1.7 3.7-1.8 7.6-2.4 7.1-4.9-.7-3.6-12.8-42.1-15.1-52.2 0 0-3.4-1.6-4.9-4.1-1.1-1.9-3.8-5.5-3.8-17.2z" fill="url(#paint2_linear)"/><path d="M94.7 47.1s-4.2 2.8-10.3.5c-6.5-2.5-8.6-9.5-8.6-9.5" stroke="#6D737D" stroke-width="1.2" stroke-miterlimit="10" stroke-linecap="round" stroke-linejoin="round"/><path d="M85.8 26c-2.4-1.4-5.1-2.6-9.1 2.4s-7.3 11-8.8 12.1c-1.5 1-2.5.8-6.4 0-3.9-.8-8.2-1.4-10.2-.3-2 1.1-3.1 3.4-3.2 4.2-.1.8 1.7 1.8 3 1.1s2-3.3 3.8-3c1.8.3 13 5.7 16.1 5 3.1-.7 8-6.5 12-10.7 3.8-4.2 5-9.5 2.8-10.8z" fill="url(#paint3_linear)"/><path d="M92.7 21.4h-6.3c-4.3 0-8 2.3-9.4 4.1-.4.5-.7 1-1 1.4M75.5 30c-3.4 4.6-6.2 9.5-7.6 10.5-1.5 1-2.5.8-6.4 0-3.9-.8-8.2-1.4-10.2-.3-2 1.1-3.1 3.4-3.2 4.2-.1.8 1.7 1.8 3 1.1s2.6-3.3 4.4-3c1.8.3 11.3 5.2 14.5 5.2 1.3 0 2.1-.6 2.1-.6M62.7 8h20.2S83.2.8 76.2.8c-6.9 0-7 7.2-7 7.2M75.8 65.5s3 14.8 8.2 30.8c5.2 16 5.5 17.3 6.5 20.8.8 3 1.5 5.3-.6 6.5-2.1 1.1-4 1.8-5.6 2.4M61.7 45.6s-1.5 2-4.6 1.8M43.4 40.4c-.6-.4-1.4-.7-2.4-.8-2.4-.1-3.8.9-3.8 3.4s1.8 2.6 2.8 2.1c1-.5 1.7-2.4 1.9-3.2M105.7 131H60" stroke="#6D737D" stroke-width="1.2" stroke-miterlimit="10" stroke-linecap="round" stroke-linejoin="round"/><path d="M47.5 45.3v81.6c0 .4.3.7.7.7h73.7c.9 0 1.7.7 1.7 1.7 0 .9-.7 1.7-1.7 1.7h-8" stroke="#6D737D" stroke-width="1.2" stroke-miterlimit="10" stroke-linecap="round" stroke-linejoin="round"/><path d="M51.2 131h-4.6c-1.8 0-3.2-1.4-3.2-3.2V45.3M119.2 134.3h3.2c1.1-1.4 2-.5 2 .6v1M65.6 134.3H104M43.4 134.3h8.9" stroke="#6D737D" stroke-width="1.2" stroke-miterlimit="10" stroke-linecap="round" stroke-linejoin="round"/><path d="M57.3 140.2a5.4 5.4 0 1 0 0-10.8 5.4 5.4 0 0 0 0 10.8z" fill="url(#paint4_linear)"/><path d="M62.3 132.6c-.8-1.9-2.7-3.2-4.9-3.2-3 0-5.4 2.4-5.4 5.4 0 .6.1 1.2.3 1.8.3.8.7 1.5 1.3 2 1 1 2.3 1.5 3.8 1.5 1.7 0 3.2-.8 4.2-2" stroke="#6D737D" stroke-width=".7" stroke-miterlimit="10" stroke-linecap="round" stroke-linejoin="round"/><path d="M111.6 140.2a5.4 5.4 0 1 0 0-10.8 5.4 5.4 0 0 0 0 10.8z" fill="url(#paint5_linear)"/><path d="M57.1 136.1a1.3 1.3 0 1 0 0-2.6 1.3 1.3 0 0 0 0 2.6z" fill="#6D737D"/><path d="M116.8 132.6c-.8-1.9-2.7-3.2-4.9-3.2-3 0-5.4 2.4-5.4 5.4 0 .6.1 1.2.3 1.8.3.8.7 1.5 1.3 2 1 1 2.3 1.5 3.8 1.5 1.7 0 3.2-.8 4.2-2" stroke="#6D737D" stroke-width=".7" stroke-miterlimit="10" stroke-linecap="round" stroke-linejoin="round"/><path d="M111.6 136.1a1.3 1.3 0 1 0 0-2.6 1.3 1.3 0 0 0 0 2.6z" fill="#6D737D"/><path d="M46.8 41.9h-5M81.3 87.4s-1.2 14.8-1.4 17.4M82.9 36.8s-4.1 5.3-7.6 7.8M37.1 41.9h-2.3v3.4" stroke="#6D737D" stroke-width="1.2" stroke-miterlimit="10" stroke-linecap="round" stroke-linejoin="round"/><defs><linearGradient id="paint0_linear" x1="110.942" y1="30.739" x2="106.205" y2="52.253" gradientUnits="userSpaceOnUse"><stop offset=".427" stop-color="#FFCF7D"/><stop offset="1" stop-color="#F9B032"/></linearGradient><linearGradient id="paint1_linear" x1="57.262" y1="83.287" x2="73.234" y2="87.579" gradientUnits="userSpaceOnUse"><stop offset=".004" stop-color="#FC77A8"/><stop offset=".346" stop-color="#F370A1"/><stop offset=".899" stop-color="#DB5E8C"/><stop offset="1" stop-color="#D65A88"/></linearGradient><linearGradient id="paint2_linear" x1="78" y1="33.938" x2="88.817" y2="98.434" gradientUnits="userSpaceOnUse"><stop offset=".004" stop-color="#FC77A8"/><stop offset=".346" stop-color="#F370A1"/><stop offset=".899" stop-color="#DB5E8C"/><stop offset="1" stop-color="#D65A88"/></linearGradient><linearGradient id="paint3_linear" x1="76.301" y1="25.802" x2="64.853" y2="40.939" gradientUnits="userSpaceOnUse"><stop offset=".004" stop-color="#FC77A8"/><stop offset=".346" stop-color="#F370A1"/><stop offset=".899" stop-color="#DB5E8C"/><stop offset="1" stop-color="#D65A88"/></linearGradient><linearGradient id="paint4_linear" x1="59.669" y1="131.592" x2="55.496" y2="137.249" gradientUnits="userSpaceOnUse"><stop offset=".156" stop-color="#E7EEF2"/><stop offset=".415" stop-color="#E2E9ED"/><stop offset=".723" stop-color="#D4DCDF"/><stop offset=".732" stop-color="#D3DBDE"/></linearGradient><linearGradient id="paint5_linear" x1="114.264" y1="131.762" x2="109.738" y2="136.853" gradientUnits="userSpaceOnUse"><stop offset=".156" stop-color="#E7EEF2"/><stop offset=".415" stop-color="#E2E9ED"/><stop offset=".723" stop-color="#D4DCDF"/><stop offset=".732" stop-color="#D3DBDE"/></linearGradient></defs></svg>