<svg width="1338" height="657" fill="none" xmlns="http://www.w3.org/2000/svg"><path d="M1229.1 125.5c18.2.2 25.6 1.5 25.6 14.3s-3 25.3 5.1 31.2c8 6 22 11.6 25-5.1s2.3-26.7 11.9-41c9.5-14 16.2-18.2 31.2-21.8 6.6-1.6 10.7-5.5 9.5-10.1-1.8-7.3-5.4-10.4-19.6-10.4-14.2 0-35.7 3-46.7 1.8s-11.9-1.2-19.6-11.6c-7.7-10.4-15.5-12.5-41.4-16.1-25.9-3.6-33.9-5.4-45.8-6.5-11.9-1.2-20.2-1.8-38.1 2.1-17.9 3.9-47.3 14.3-61.3-.6s-19.6-22-27.1-22.3c-7.4-.3-85.4 0-100 0-14.6 0-22-2.7-28.9 3-6.8 5.7-19.6 14.3-20.2 23.5-.6 9.2 1.2 14.6-4.8 17-6 2.4-10.7.6-21.1.6-10.4 0-14.6 3-19.6 11-5.1 8-5.4 11.6-18.4 11.6-13.1 0-38.4 2.7-44.9-5.4-6.5-8.1-11-17.6-26.8-24.1s-22-6.5-32.1-2.4c-10.1 4.1-31.2 8.3-40.5 18.4-9.2 10.1-17.6 18-19.6 28.3-1.1 5.8 2.4 16.4 17.3 16.1 14.9-.3 25.3-.3 33.3-9.8 8-9.5 14.6-18.1 22.3-15.8 7.7 2.4 1.2 11-.3 14.3-1.5 3.3 0 6.5 3.6 7.7 3.6 1.2 3.6 4.5 0 6.8-3.6 2.4-6 6-7.1 12.2-1.1 6.2-.3 10.4-5.7 10.4s-22.3-.6-34.8 2.4c-12.5 3-18.6 3.3-17.8-3.3.8-6.5 1.1-13.1-4.2-13.1-5.3 0-14.6-.9-17.9 7.4-3.3 8.3-5.1 20.8-10.1 20.8s-9.8-2.1-15.2 3.9c-5.4 6-8.7 10.7-11 13.7-4 5.2-1.7 9.8 4.5 14 4.5 3 3.3 6.8-2.4 6.8h-17.6c-6.3 0-7.7 3.3-6.2 7.7 1.5 4.5 8.3 25.9 12.2 28 3.9 2.1 13.1 2.1 22 3 8.9.9 8.3-1.8 6-7.1-2.3-5.3-6-10.4 0-13.4s15.5-6.8 22.3-8.9c6.8-2.1 14.3-1.2 20.5 4.2 6.2 5.4 14 14.3 12.2 16.7-1.8 2.4-9.8 9.2-11.9 11.6-2.1 2.4-.3 4.2 4.2 8.6 4.5 4.5 6 7.1 10.7 3.9 4.8-3.3 10.4-7.7 14.6-11.3 4.2-3.6 4.2-7.4.6-11.6-3.6-4.2-10.4-14-12.2-16.7-1.8-2.7 1.5-5.1 5.1-7.4 3.6-2.4 6-.6 9.8 3.9 3.9 4.5 11.3 13.4 14.9 17.3 3.6 3.9 7.4 6.8 12.2 3.9 4.8-3 9.5-5.4 13.1-7.4 3.6-2 9.2 4.2 15.8 10.4 6.6 6.2 14.3 13.4 16.7 16.1 2.4 2.7-2.1 11-4.8 16.7-2.7 5.7-3.6 6.5-16.1 8.3-12.5 1.8-28.3 7.7-35.7 8.3-7.4.6-17.9-4.5-27.7-6.5-9.8-2.1-11.6-6-15.5-12.2-3.9-6.2-4.2-8.3-6.5-12.2-2.4-3.9-4.8-4.2-11-3.9-6.2.3-31.2 0-35.4 0-4.2 0-9.5 1.2-20.2 12.8-10.7 11.6-34.5 29.2-44 37.8-9.5 8.6-.2 19.6-7.8 32.4-7.6 12.8-21.8 16.1-22.3 30.3s-1.4 19.9 10 29.4 21.3 14.7 28.9 20.9c7.6 6.2 11.9 5.7 27 5.7h47.1c6 0 10.8 2.8 16.5 8.5 5.7 5.7 4.3 10.9 4.3 19.9 0 9-2.3 16.6 4.8 19.9 7.1 3.3 11.8 4.3 16.1 6.6 4.3 2.4 4.3 6.2 3.3 15.6-.9 9.5-2.4 48.8-2.8 57.8-.5 9 4.3 10 12.8 15.6 8.5 5.7 14.2 6.2 12.3 21.3-1.9 15.1-2.5 19.1-2.9 23.9-1.2 12.3.7 18 11 22.1 12.2 4.9 34.1 9.2 46-5.4 7.4-9.1 24.2-24.9 30.4-33.4 6.2-8.5 4.3-15.2 3.3-24.7-.9-9.5-6.6-21.8.5-27 7.1-5.2 23.7-19.9 28-24.2 4.3-4.3.5-25.1.5-40.3 0-15.2 0-21.3 15.2-32.2 15.2-10.9 31.8-23.7 38.4-31.3 6.6-7.6 3.8-34.6-15.6-32.2-19.4 2.4-29.4 2.4-39.3 1.9-10-.5-10-3.3-9.5-14.2.5-10.9.5-20.4-9-29.9s-16.1-11.9-14.7-25.6c1.4-13.7 5.2-12.8 11.9-13.7 6.6-.9 12.8 2.8 17.5 7.6 4.7 4.8 14.7 17.5 17.1 20.9 2.4 3.3-.5 18-2.4 27s4.7 8.1 14.7 11.4c10 3.3 14.2.5 22.8-8.5 8.5-9 14.2-16.1 18-20.9 3.8-4.7 6.2-8.5 0-12.8-6.2-4.3-25.1-24.2-28.9-26.5-3.8-2.4-1.9-11.9 8.1-12.3 10-.5 20.9 0 24.2 4.3 3.3 4.3 4.3 13.7 12.3 14.7 8.1.9 19.9.9 26 .5 6.2-.5 6.7 3.8 5.7 13.7-.9 10-1.9 17.5 7.6 18.5 9.5.9 15.6-.9 16.6 6.6.9 7.6-6.2 24.7-4.7 31.3 1.5 6.6 4.7 10.4 20.4 27.5 15.6 17.1 19 21.8 29.4 18.5 10.4-3.3 15.6-30.8 25.1-55 9.5-24.2 9.5-34.1 16.6-35.5 7.1-1.4 9-.5 19 9.5s14.7 13.3 14.7 21.8-.5 28 1.4 35.1c1.9 7.1 12.3 18 20.4 20.4 8.1 2.4 7.1-5.7 4.7-13.3-2.4-7.6-9-14.2-5.7-21.8 3.3-7.6 8.1-3.8 13.7 2.8 5.7 6.6 10 9.5 14.7 8.1 4.7-1.4 17.1-11.4 18.5-15.6 1.4-4.3.9-14.7.5-22.8-.5-8.1-6.6-11.4-13.3-16.6-6.6-5.2-7.1-7.6-5.7-15.6 1.4-8.1 4.7-9.5 14.7-9.5s12.8 3.3 19.4-11.4c6.6-14.7 17.5-24.7 8.1-31.3-9.5-6.6-25.1-14.7-16.1-34.6 9-19.9 29.4-26.1 26.1-47.9-3.3-21.8-4.4-35.9 1.9-47.4 8.5-17.5 23.9-19.3 38.1-19.1z" fill="url(#paint0_radial)"/><path d="M1266.4 210.7c-7.4 5.9-3.3 15.2 0 20.9 3.3 5.7 3.4 13.7-4.2 26.5s-15.6 31.8 0 36c15.6 4.3 29.8-10.4 30.8-34.1.9-23.7-.9-33.7-5.7-40.3-4.8-6.6-11.9-16.1-20.9-9z" fill="url(#paint1_radial)"/><path d="M1173.6 445.4c7.4-4.3 13.2-9.1 18.9-2.9 5.7 6.2 9 15.6 15.6 16.1 6.6.5 8.1 9 1.9 12.8-6.2 3.8-12.3 1.4-20.9 0-8.5-1.4-20.9-6.2-22.8-12.3-1.8-6.2 2.7-11 7.3-13.7z" fill="url(#paint2_radial)"/><path d="M1257.2 582.6c4.3-5.1 5.8-6.3 6.3-11.8.5-5.5 3.6-7.1 8-6.3 4.4.8 4.7 6.7 4.7 9s3 4 6 2.9 6.9 4.7 2.5 8.8c-4.4 4.1-7.9 2.2-12.8 7.7s-12.3 6.3-16.1 3c-3.8-3.3-2.7-8.5 1.4-13.3z" fill="url(#paint3_radial)"/><path d="M1219 620c7.3-1.8 12.4-6.9 17-12.4 4.7-5.5 10.7-11.5 17.5-7.1 6.7 4.4 8.7 13.2 0 20.3-4.7 3.9-11.7 3.6-16.1 6-4.4 2.5-3.8 8.8-10.2 10.7-6.3 1.9-13.7-1.6-15.7-6.3-2-4.7-.2-9.3 7.5-11.2z" fill="url(#paint4_radial)"/><path d="M1129.9 513.8c8.7-11.9 14.3-21.4 19.8-22.3 5.5-.8 17 0 23.6 0 6.6 0 6.6 4.1 11.5 8 4.9 3.9 8.8 4.1 10.7 0 1.9-4.1-.5-11.5 6.9-12.9 7.4-1.4 9.1 4.7 17.9 19.2 8.8 14.6 12.9 24.2 14.7 35.2 1.8 11 2.4 29.4-13 44.5-15.4 15.1-40.8 10.8-52.5 3.3-9.1-5.8-13.2-15.1-20.3-16.2-9.3-1.4-15.1 1.9-20.1 10.2-5 8.3-19.5 11.5-25.3 1.6-5.8-9.9-2.5-39 0-48.4 2.5-9.3 9.9-8 13.5-9.9 3.5-1.8 8.7-6.9 12.6-12.3z" fill="url(#paint5_radial)"/><path d="M1077.9 434.1c-.5-11.7-1.7-15.1 6.3-15.1s10.5.6 16.4 9.6c5.8 9 11.1 20.7 16.9 20.9 5.9.2 23.7-1.9 24.3 8.2.6 10.1-8 10.1-16.5 10.3-8.6.2-15-.6-24.7-8.8-9.7-8.1-22.4-17.8-22.7-25.1z" fill="url(#paint6_radial)"/><path d="M613.7 136.7c-1.2-7.1-1.2-14.2 5.8-13.9 8 .3 10.8 10.8 10.3 20.6s-4.1 20.6-13.2 20.6-10.3-8.1-10.3-11.5c0-3.4 2.2-5.7 4.3-7.4 2.1-1.7 3.9-3.9 3.1-8.4z" fill="url(#paint7_radial)"/><path d="M588.8 136.1c2.8-5 8.5-7.8 12.7-6.3 4.2 1.5 5.9 6.9 3.8 11.4-2.1 4.5-6.4 8.7-12.2 8-5.8-.7-7.1-8.3-4.3-13.1z" fill="url(#paint8_radial)"/><path d="M525.5 82.1c-.3-6.6 6.5-11.3 17.4-8.7 10.9 2.6 11.8 14.4 5.7 17.9-6.1 3.4-22.6 1.7-23.1-9.2z" fill="url(#paint9_radial)"/><path d="M364.4 49.8c-.5 5.8 6.5 4.8 14.4 3.5 7.9-1.3 10-.9 7.8 8.7s-10.9 28.7-6.1 37c4.8 8.3 5.1 12.6 6.9 20 1.8 7.4 9.7 10.5 15.8 7.4 6.1-3 14.8-17.9 20.5-27.4 5.7-9.5 9.6-11.8 30.5-20 20.9-8.3 49.7-20 56.2-33.5s-.9-28.7-14.8-31.4c-13.9-2.7-38.4-5.6-48.9-6.1-10.5-.4-13.9-.9-27.9 9.1-14 10-25.3 17.4-33.5 22.2-8.2 4.8-20.5 5.3-20.9 10.5z" fill="url(#paint10_radial)"/><path d="M283.4 28.7c2.2-5.9 11.3-7.2 14.4 0 3 7.2-2.2 13.3-9.1 13.3-7.1 0-7.5-7.4-5.3-13.3z" fill="url(#paint11_radial)"/><path d="M311.8 20.3c3-12.5 13.8-11 28.2-10.1 14.4.9 29.6 3.6 40.1-2.4C390.6 1.9 394.9-2 398.8 1c3.9 3-6.1 18.7-16.6 27.7-10.5 8.9-16.6 7.6-33.1 13.3-16.6 5.7-17 8.7-16.1 13.9.9 5.2 7.8 7.5 16.1 11.8 8.3 4.3 8.7 12.1 7.4 20.4-1.3 8.3-11.8 9.1-24.8 8.7-13-.4-19.2-6.1-15.7-16.1 3.5-10 5.7-18.3.4-27.9-5.2-9.5-9.8-10.5-4.6-32.5z" fill="url(#paint12_radial)"/><path d="M279.2 52.7c18.3.9 22.5 5.4 23.8 11.5 1.3 6.1-1.7 12-9.6 18.5-3.9 3.3-1 11.1-11.2 17.2s-25.4 6.5-31.9 11.8c-6.5 5.2-4.8 13.2 8.3 16 13.1 2.7 23.5 4.1 27.4-4.7 3.9-8.8 8.7-8.3 23.5-10.9 14.8-2.6 23.1-3.9 27 1.3 3.9 5.2-2.6 11.3 3.5 16.3s11.3 3.7 14.6 17.2c3.3 13.5-5 27.4-25 27.4s-28.3-2.6-36.2-3.5c-7.8-.9-12.6 5.2-8.7 13.5 3.9 8.3 8.3 17.4-2.2 24.4s-22.2 12.6-35.9 23.1c-13.7 10.5-12.4 17-16.3 22.2-3.9 5.2-11.3 7.8-19.2 0-7.9-7.8-6.5-9.1-22.2-4.4-15.7 4.8-24 7-29.2 17-5.2 10-1.3 15.7 7.8 17 9.1 1.3 13.9 7.8 13.5 15.7-.4 7.9 5.7 10.9 15.2 12.2 9.6 1.3 10.5 7 14.4 14.8 3.9 7.8 10.5 8 37.5 8s41.4-2.4 48.8 3.7c7.4 6.1 8.3 12.2 18.7 15.2 10.5 3 12.2 7.8 13.9 15.7 1.7 7.8 9.1 6.1 20.9 6.1 11.8 0 15.7-1.3 23.5 11.8 7.8 13.1 10.5 16.1 13.9 21.8 3.5 5.7 6.5 11.8 0 19.6-6.5 7.8-15.2 17.4-14.8 33.5.4 16.1 2.2 24.8-5.7 34-7.8 9.1-51.4 49.2-56.2 54.4-4.8 5.2-6.1 8.7-5.7 29.2.4 20.5-3.9 34 4.4 40.5s16.1 19.2 8.3 30.5c-7.8 11.3-24.4 4.8-34.4-3.9s-9.8-12.2-9.3-26.1c.6-13.9-.7-16.6-8.6-20.5-7.8-3.9-8.7-10.5-9.6-26.1-.9-15.7-2.6-55.8-4.4-69.7-1.8-13.9-1.7-16.1-10.9-22.2-9.1-6.1-19.2-9.1-17.9-22.6 1.3-13.5 6.1-24 1.7-35.3-4.4-11.3-12.6-17.9-18.7-27-6.1-9.1-4.8-16.1 1.7-21.3 6.5-5.2 7.4-10.5 4.4-16.1-3-5.6-5.2-7.9-13.1-9.2-7.9-1.3-12.6-1.7-13.9-14.3-1.3-12.6-3-11.8-12.6-11.8s-7.8 0-12.2-9.6c-4.4-9.6-10.5-7.8-26.6-13.1-16.1-5.2-19.6-5.7-18.7-16.1.9-10.5-7.3-14.6-24-28.3-7.4-6.1-10-7.8-10-20v-44.4c0-11.3 5.2-19.6 14.8-19.6 9.6 0 17-10.9 15.2-24.4-1.7-13.5-1.7-21.3-13.1-26.6-11.3-5.2-12.6.4-25.3-2.6-12.7-3-18.7-2.6-21.3 3.9-2.6 6.5 0 17.9-17.9 18.7-17.5 1-29.7-19.1-32.7-33.5-3-14.4 4.4-16.6 17-16.6s12.6-9.1 8.7-13.9c-3.9-4.8-8.3-15.2-2.6-21.3 5.7-6.1 11.3-4.8 57.1 1.7s75.4 10 93.6 12.2c18.3 2.2 23.4.2 28.7-5.7 2.3-2.5 6.1-12 16.6-12.2 24.4-.5 52-.5 59.4-.1z" fill="url(#paint13_radial)"/><path d="M844 544.6c3.7-8.9 7.1-15.8 14.5-23.5 7.4-7.7 18.9-6.1 19.9 2.6s.3 34.5-2.3 42.4c-2.6 7.9-11.7 17.9-21.4 15.6-9.7-2.3-12.8-13.3-14.6-18.9-1.8-5.6 1.7-12.9 3.9-18.2z" fill="url(#paint14_radial)"/><defs><radialGradient id="paint0_radial" cx="0" cy="0" r="1" gradientUnits="userSpaceOnUse" gradientTransform="translate(756.238 230.647) scale(742.778)"><stop stop-color="#fff"/><stop offset="1" stop-color="#fff" stop-opacity=".3"/></radialGradient><radialGradient id="paint1_radial" cx="0" cy="0" r="1" gradientUnits="userSpaceOnUse" gradientTransform="matrix(742.779 0 0 742.778 756.238 230.646)"><stop stop-color="#fff"/><stop offset="1" stop-color="#fff" stop-opacity=".3"/></radialGradient><radialGradient id="paint2_radial" cx="0" cy="0" r="1" gradientUnits="userSpaceOnUse" gradientTransform="matrix(742.777 0 0 742.778 756.239 230.647)"><stop stop-color="#fff"/><stop offset="1" stop-color="#fff" stop-opacity=".3"/></radialGradient><radialGradient id="paint3_radial" cx="0" cy="0" r="1" gradientUnits="userSpaceOnUse" gradientTransform="matrix(742.777 0 0 742.779 756.239 230.646)"><stop stop-color="#fff"/><stop offset="1" stop-color="#fff" stop-opacity=".3"/></radialGradient><radialGradient id="paint4_radial" cx="0" cy="0" r="1" gradientUnits="userSpaceOnUse" gradientTransform="translate(756.238 230.646) scale(742.778)"><stop stop-color="#fff"/><stop offset="1" stop-color="#fff" stop-opacity=".3"/></radialGradient><radialGradient id="paint5_radial" cx="0" cy="0" r="1" gradientUnits="userSpaceOnUse" gradientTransform="translate(756.239 230.647) scale(742.778)"><stop stop-color="#fff"/><stop offset="1" stop-color="#fff" stop-opacity=".3"/></radialGradient><radialGradient id="paint6_radial" cx="0" cy="0" r="1" gradientUnits="userSpaceOnUse" gradientTransform="matrix(742.779 0 0 742.778 756.238 230.647)"><stop stop-color="#fff"/><stop offset="1" stop-color="#fff" stop-opacity=".3"/></radialGradient><radialGradient id="paint7_radial" cx="0" cy="0" r="1" gradientUnits="userSpaceOnUse" gradientTransform="translate(756.238 230.646) scale(742.778)"><stop stop-color="#fff"/><stop offset="1" stop-color="#fff" stop-opacity=".3"/></radialGradient><radialGradient id="paint8_radial" cx="0" cy="0" r="1" gradientUnits="userSpaceOnUse" gradientTransform="translate(756.238 230.646) scale(742.778)"><stop stop-color="#fff"/><stop offset="1" stop-color="#fff" stop-opacity=".3"/></radialGradient><radialGradient id="paint9_radial" cx="0" cy="0" r="1" gradientUnits="userSpaceOnUse" gradientTransform="translate(756.238 230.646) scale(742.778)"><stop stop-color="#fff"/><stop offset="1" stop-color="#fff" stop-opacity=".3"/></radialGradient><radialGradient id="paint10_radial" cx="0" cy="0" r="1" gradientUnits="userSpaceOnUse" gradientTransform="translate(756.238 230.646) scale(742.778)"><stop stop-color="#fff"/><stop offset="1" stop-color="#fff" stop-opacity=".3"/></radialGradient><radialGradient id="paint11_radial" cx="0" cy="0" r="1" gradientUnits="userSpaceOnUse" gradientTransform="translate(756.238 230.646) scale(742.778)"><stop stop-color="#fff"/><stop offset="1" stop-color="#fff" stop-opacity=".3"/></radialGradient><radialGradient id="paint12_radial" cx="0" cy="0" r="1" gradientUnits="userSpaceOnUse" gradientTransform="translate(756.238 230.646) scale(742.778)"><stop stop-color="#fff"/><stop offset="1" stop-color="#fff" stop-opacity=".3"/></radialGradient><radialGradient id="paint13_radial" cx="0" cy="0" r="1" gradientUnits="userSpaceOnUse" gradientTransform="translate(756.238 230.646) scale(742.778)"><stop stop-color="#fff"/><stop offset="1" stop-color="#fff" stop-opacity=".3"/></radialGradient><radialGradient id="paint14_radial" cx="0" cy="0" r="1" gradientUnits="userSpaceOnUse" gradientTransform="matrix(742.779 0 0 742.778 756.238 230.646)"><stop stop-color="#fff"/><stop offset="1" stop-color="#fff" stop-opacity=".3"/></radialGradient></defs></svg>