<svg class="car" width="275" height="80" fill="none" xmlns="http://www.w3.org/2000/svg"><g class="car-bl"><path d="M194 16h-26.4v32.3H194V16z" fill="#F9A932"/><path d="M93.9 10.5H67.3v37.8h26.6V10.5z" fill="url(#car1_linear)"/><path d="M122.7 3.2H78.6v45.5h44.1V3.2z" fill="#FFCF7D"/><path d="M158.8 48.7h-36.1V3.2h36.1v45.5z" fill="url(#car1_linear)"/><path d="M167.6 16h-33.2v32.4h33.2V16z" fill="url(#car1_linear)"/><path d="M78.6 13V3.2h18.6M122.7 48.7V29.9M127.8 42.2l-5.1 6.5M157.6 4.5l-7.4 9.3M124 4.5l8.4 10.7" stroke="#6D737D" stroke-width=".7" stroke-miterlimit="10" stroke-linecap="round" stroke-linejoin="round"/><path d="M67.3 10.5H28.6v37.8h38.7V10.5z" fill="url(#car1_linear)"/><path d="M34.8 42.2l-4.7 4.7M49.5 27.9l-7.8 7.6M66.4 11.4l-9.9 9.7M59.7 40.9l6.1 6M46.4 27.9l7.8 7.6M29.5 11.4l9.9 9.7" stroke="#6D737D" stroke-width=".7" stroke-miterlimit="10" stroke-linecap="round" stroke-linejoin="round"/><path d="M172.5 25.9v-2.7H23.7v-8.6c0-.8-.6-1.4-1.4-1.4-.8 0-1.4.6-1.4 1.4v33.8h2.7v-8h34.6v8h2.7v-8h34.6v8h2.7v-8h34.6v8h2.7v-8h36.9v-2.7h-36.9V26h37v-.1zM23.7 37.6V25.9h34.6v11.7H23.7zm37.3 0V25.9h34.6v11.7H61zm71.9 0H98.3V25.9h34.6v11.7z" fill="#fff"/><path d="M186.7 12.5h-10.5v53.9h10.5V12.5z" fill="url(#car2_linear)"/><path d="M255.1 24.5h5.3c1.5 0 2.7 1.2 2.7 2.7 0 1.5-1.2 2.7-2.7 2.7h-5.5" stroke="#6D737D" stroke-width="1.2" stroke-miterlimit="10" stroke-linecap="round" stroke-linejoin="round"/><path d="M161.8 57.6H158c-5.9 0-10.7 4.8-10.7 10.7 0 5.9 4.8 10.7 10.7 10.7h3.8c5.9 0 10.7-4.8 10.7-10.7 0-5.9-4.8-10.7-10.7-10.7zM84.5 57.6h-3.8c-5.9 0-10.7 4.8-10.7 10.7C70 74.2 74.8 79 80.7 79h3.8c5.9 0 10.7-4.8 10.7-10.7 0-5.9-4.8-10.7-10.7-10.7z" fill="#9DA2AB"/><path d="M172.7 12.5v36.1H20.9v18h155.3V12.5h-3.5z" fill="url(#car3_linear)"/><path d="M157.6 66.3h22.1M77.6 66.3h36.7M180.6 12.5h-7.9v35.8H21v18h14.1" stroke="#6D737D" stroke-width="1.2" stroke-miterlimit="10" stroke-linecap="round" stroke-linejoin="round"/><path d="M55.1 57.6h-3.8v.7c-4 1.5-6.8 5.4-6.8 10 0 4.5 2.8 8.4 6.8 10v.7h3.8c5.9 0 10.7-4.8 10.7-10.7 0-5.9-4.8-10.7-10.7-10.7z" fill="#9DA2AB"/><path d="M51.3 79C57.21 79 62 74.21 62 68.3c0-5.91-4.79-10.7-10.7-10.7-5.91 0-10.7 4.79-10.7 10.7 0 5.91 4.79 10.7 10.7 10.7z" fill="url(#car4_linear)"/><path d="M51.3 71.4a3.1 3.1 0 1 0 0-6.2 3.1 3.1 0 0 0 0 6.2z" stroke="#6D737D" stroke-width=".7" stroke-miterlimit="10" stroke-linecap="round" stroke-linejoin="round"/><path d="M132.4 57.6h-3.8v.7c-4 1.5-6.8 5.4-6.8 10 0 4.5 2.8 8.4 6.8 10v.7h3.8c5.9 0 10.7-4.8 10.7-10.7 0-5.9-4.8-10.7-10.7-10.7z" fill="#9DA2AB"/><path d="M128.6 79c5.909 0 10.7-4.79 10.7-10.7 0-5.91-4.791-10.7-10.7-10.7-5.909 0-10.7 4.79-10.7 10.7 0 5.91 4.791 10.7 10.7 10.7z" fill="url(#paint_linear)"/><path d="M128.6 71.4a3.1 3.1 0 1 0 0-6.2 3.1 3.1 0 0 0 0 6.2z" stroke="#6D737D" stroke-width=".7" stroke-miterlimit="10" stroke-linecap="round" stroke-linejoin="round"/><path d="M244 57.6h-3.8c-5.9 0-10.7 4.8-10.7 10.7 0 5.9 4.8 10.7 10.7 10.7h3.8c5.9 0 10.7-4.8 10.7-10.7 0-5.9-4.8-10.7-10.7-10.7z" fill="#9DA2AB"/><path d="M238.9 55.5H185v10.4c0 .8.6 1.4 1.4 1.4h52.5V55.5z" fill="url(#car5_linear)"/><path d="M237.8 67.3h19.9c1 0 1.8-.8 1.8-1.8v-10H236v10c0 1 .8 1.8 1.8 1.8z" fill="url(#car6_linear)"/><path d="M214.6 57.6h-3.8v.7c-4 1.5-6.8 5.4-6.8 10 0 4.5 2.8 8.4 6.8 10v.7h3.8c5.9 0 10.7-4.8 10.7-10.7 0-5.9-4.8-10.7-10.7-10.7z" fill="#9DA2AB"/><path d="M210.8 79c5.909 0 10.7-4.79 10.7-10.7 0-5.91-4.791-10.7-10.7-10.7-5.909 0-10.7 4.79-10.7 10.7 0 5.91 4.791 10.7 10.7 10.7z" fill="url(#car4_linear)"/><path d="M210.8 71.4a3.1 3.1 0 1 0 0-6.2 3.1 3.1 0 0 0 0 6.2zM216.9 77c-4.2 2.9-10 2.5-13.7-1.2M203.2 60.7c1.5-1.5 3.4-2.5 5.3-2.9 3.4-.7 7.1.2 9.8 2.9 2.5 2.5 3.5 5.9 3 9.1M121 60.7c4.2-4.2 10.9-4.2 15.1 0M136.1 75.8c-4.2 4.2-10.9 4.2-15.1 0-1-1-1.8-2.2-2.3-3.5M51.5 57.6c5.9 0 10.7 4.8 10.7 10.7 0 5.9-4.8 10.7-10.7 10.7M40.8 68.3c0-3.7 1.9-6.9 4.7-8.8" stroke="#6D737D" stroke-width=".7" stroke-miterlimit="10" stroke-linecap="round" stroke-linejoin="round"/><path d="M200.4.7h37.7c.5 0 1 .2 1.3.6l22.5 27.9c.5.7.8 1.5.8 2.3v21.2c0 1.5-1.2 2.8-2.8 2.8h-32.3L200.4.7z" fill="url(#car7_linear)"/><path d="M182.3.7H207c.5 0 1 .2 1.3.6l22.5 27.9c.5.7.8 1.5.8 2.3v21.2c0 1.5 1.3 2.8 2.8 2.8h1.5-51.8c-2 0-3.6-1.6-3.6-3.6V2.3c.1-.9.9-1.6 1.8-1.6z" fill="url(#car8_linear)"/><path d="M231.6 41.7v11.1c0 1.5 1.3 2.8 2.8 2.8h25.8c1.4 0 2.6-1.2 2.6-2.6v-1.7" stroke="#6D737D" stroke-width="1.2" stroke-miterlimit="10" stroke-linecap="round" stroke-linejoin="round"/><path d="M211.2 42.4c-.2-.2-.7-.2-.9 0l-2.4 2.4c-.2.2-.2.7 0 .9l2.4 2.4c.2.2.7.2.9 0l2.4-2.4c.2-.2.2-.7 0-.9l-2.4-2.4zM210.3 40.9c.2.2.7.2.9 0l2.4-2.4c.2-.2.2-.7 0-.9l-2.4-2.4c-.2-.2-.7-.2-.9 0l-1.8 1.8c-.1.1-.7.5-1.3.5-.8 0-1.3-.5-1.3-.5l-1.8-1.8c-.2-.2-.7-.2-.9 0l-2.4 2.4c-.2.2-.2.7 0 .9l1.8 1.8c.1.1.5.6.5 1.3 0 .7-.4 1.1-.5 1.3l-1.9 1.9c-.2.2-.2.7 0 .9l2.4 2.4c.2.2.7.2.9 0l2.4-2.4c.2-.2.2-.7 0-.9l-1.8-1.8c-.1-.1-.5-.7-.5-1.3 0-.6.4-1.2.5-1.3l1.3-1.3s.5-.5 1.3-.5c.7 0 1.1.4 1.3.5l1.8 1.8z" fill="#6D737D"/><path d="M193.9 3.9h10.4c.4 0 .8.2 1.1.5l19.4 23.7h-30.9c-.5 0-.8-.4-.8-.8V4.7c0-.4.3-.8.8-.8zM256.2 26.8c.2 0 .3-.3.2-.4L238.2 3.9c-.1-.1-.2-.1-.3-.1h-24c-.3 0-.5.4-.3.6l18.2 22.2c.1.2.4.3.6.3l23.8-.1z" fill="url(#car9_linear)"/><path d="M229.8 24.3l1.9 2.3c.1.2.4.3.6.3h23.9c.2 0 .3-.3.2-.4l-8.9-10.9M216.7 8.2l8.5 10.4" stroke="#6D737D" stroke-width=".7" stroke-miterlimit="10" stroke-linecap="round" stroke-linejoin="round"/><path d="M237.1 41.7h-6.4c-1 0-1.8-.8-1.8-1.8v-1.3c0-1 .8-1.8 1.8-1.8h6.4c1 0 1.8.8 1.8 1.8v1.3c0 .9-.8 1.8-1.8 1.8zM262.8 36.6h-4.1c-1.4 0-2.5 1.1-2.5 2.5s1.1 2.5 2.5 2.5h4.1v-5z" stroke="#6D737D" stroke-width="1.2" stroke-miterlimit="10" stroke-linecap="round" stroke-linejoin="round"/><path d="M238 45.2h19M238 48.9h19M233.9 29.9H257" stroke="#6D737D" stroke-width=".7" stroke-miterlimit="10" stroke-linecap="round" stroke-linejoin="round"/><path d="M194 31.4h6.2" stroke="#6D737D" stroke-width="2" stroke-miterlimit="10" stroke-linecap="round" stroke-linejoin="round"/><path d="M193.1 36.2v14.7M228.9 31l-4.9-6.6h-5.3c-1.5 0-2.7 1.2-2.7 2.7 0 1.5 1.2 2.7 2.7 2.7h5.5M223.4 10.4s1.4-2.5 4.4-1.5c2.7.9 2.5 4.4 2.1 5.8-.4 1.4-1.3 3.1-1.3 3.1s2.3-.2 3.4 1.6 1.4 3.1 2.1 4.1" stroke="#6D737D" stroke-width="1.2" stroke-miterlimit="10" stroke-linecap="round" stroke-linejoin="round"/><path d="M233.6 25.1s.3-5.1 6.3-5.1 6.3 5.1 6.3 5.1" stroke="#6D737D" stroke-width="1.2" stroke-miterlimit="10" stroke-linecap="round" stroke-linejoin="round"/><path d="M184.2 5.4h5M184.2 8.1h5M184.2 10.7h5" stroke="#6D737D" stroke-width=".7" stroke-miterlimit="10" stroke-linecap="round" stroke-linejoin="round"/><path d="M176.2 66.3V37M176.2 23.4V12.5M189.4 55.5h45M236 55.5v6.7M132.9 25.9v11.7h-18.8M21 42.5v5.8-5.8zm2.7-26.7v-1.2c0-.8-.6-1.4-1.4-1.4-.8 0-1.4.6-1.4 1.4v19.2l2.8-18zm55.6 7.3H23.7v-2.9l55.6 2.9zm93.2 0h-68.4 68.4zm-7 14.5h-29.8V25.9h34.6l-4.8 11.7zm-29.9 2.7h36.9-36.9zm0 8v-3.1 3.1zm-17.1-8h14.4v8l-14.4-8zm-20.2 8v-8h13.6l-13.6 8zm-4.9-8h2.2v8l-2.2-8zm-32.4 8v-8h24.2l-24.2 8zm-2.7-8v8-8zm-34.6 8v-8h20.7l-20.7 8zm19.9-22.4h14.7v11.7H23.7V25.9h19.9zM61 31.7v-5.9h34.6v11.7H61v-5.8zm39.6 5.9h-2.3V25.9h29.8l-27.5 11.7z" stroke="#6D737D" stroke-width="1.2" stroke-miterlimit="10" stroke-linecap="round" stroke-linejoin="round"/><path d="M134.4 21.2V16h15.3" stroke="#6D737D" stroke-width=".7" stroke-miterlimit="10" stroke-linecap="round" stroke-linejoin="round"/><path d="M259.6 55.5v3" stroke="#6D737D" stroke-width="1.2" stroke-miterlimit="10" stroke-linecap="round" stroke-linejoin="round"/><path d="M78.6 48.3v-5.2M163.2 16h7M167.6 16v5.2M167.6 48.3v-4.4" stroke="#6D737D" stroke-width=".7" stroke-miterlimit="10" stroke-linecap="round" stroke-linejoin="round"/></g><defs><linearGradient id="car1_linear"><stop offset=".427" stop-color="#FFC061"/><stop offset="1" stop-color="#F9A932"/></linearGradient><linearGradient id="car2_linear"><stop stop-color="#A9B4BA"/><stop offset=".48" stop-color="#BCC6CC"/></linearGradient><linearGradient id="car3_linear"><stop stop-color="#D8E0E3"/><stop offset=".672" stop-color="#EAF1F5"/></linearGradient><linearGradient id="car4_linear"><stop offset=".009" stop-color="#AFB5BF"/><stop offset=".603" stop-color="#CED5E0"/><stop offset="1" stop-color="#AFB5BF"/></linearGradient><linearGradient id="car5_linear"><stop offset=".189" stop-color="#82C5F5"/><stop offset=".365" stop-color="#79C0F2"/><stop offset=".653" stop-color="#60B1EB"/><stop offset="1" stop-color="#3A9BE0"/></linearGradient><linearGradient id="car6_linear"><stop offset=".189" stop-color="#82C5F5"/><stop offset="1" stop-color="#3A9BE0"/></linearGradient><linearGradient id="car7_linear"><stop offset=".417" stop-color="#82C5F5"/><stop offset="1" stop-color="#3A9BE0"/></linearGradient><linearGradient id="car8_linear"><stop stop-color="#3A9BE0"/><stop offset=".104" stop-color="#53AAE7"/><stop offset=".241" stop-color="#6DB9EF"/><stop offset=".364" stop-color="#7CC2F3"/><stop offset=".46" stop-color="#82C5F5"/><stop offset="1" stop-color="#3A9BE0"/></linearGradient><linearGradient id="car9_linear"><stop stop-color="#D3DBDE"/><stop offset=".48" stop-color="#E7EEF2"/></linearGradient></defs></svg>