<svg class="plane" width="305" height="107" fill="none" xmlns="http://www.w3.org/2000/svg"><g class="plane-bl"><path d="M301.8 87.2l-39.6-38.9c-6.4-6.2-15-9.5-23.9-9.1H57.4l-5.1-7.4-5.5-8.1L32.2 2c-.5-.8-1.4-1.3-2.4-1.3L24.4.5c-2.2-.1-3.7 2.2-2.8 4.2l8.3 19.1H2.6c-.8 0-1.6.5-1.7 1.3-.2 1 .4 2 1.4 2.1l31.2 4.5 23.6 52.4c3.6 7.9 11.5 13 20.2 13h33.1l-6.9 3.1c-1 .4-1.7 1.3-1.9 2.4-.3 2 1.2 3.7 3.1 3.7h46c1 0 2-.1 3-.4l29.4-8.8h114.7c5.1 0 7.7-6.3 4-9.9z" fill="url(#plane1_linear)"/><path d="M48.8 39.5l8.6-.2-5.1-7.4-5.5-8.1L32.2 2c-.5-.8-1.4-1.3-2.4-1.3L25.6.6l23.2 38.9z" fill="url(#plane2_linear)"/><path d="M149.4 79.5l-46 20.7c-1.1.5-1.8 1.5-1.9 2.7-.1 1.8 1.3 3.4 3.1 3.4h46.7c.6 0 1.2-.1 1.7-.3l53.5-15.9c2.8-.8 4.4-3.7 3.7-6.5-.6-2.4-2.8-4.1-5.3-4.1h-55.5z" fill="url(#plane4_linear)"/><path d="M149.5 79.5l-46.1 20.7c-1.1.5-1.8 1.5-1.9 2.7-.1 1.8 1.3 3.4 3.1 3.4h45.9c.9 0 1.5-.8 1.4-1.6l-.2-1.6c-.1-.8-.8-1.4-1.6-1.4H136l13.5-22.2zM70.9 23.8H46.8l5.5 8.1 19-4.6c.8-.2 1.3-.9 1.3-1.7v-.1c0-1-.7-1.7-1.7-1.7zM36.4 23.8H2.6c-.8 0-1.6.6-1.8 1.4-.2 1 .5 1.9 1.4 2l39.2 5.7-5-9.1z" fill="url(#plane4_linear)"/><path d="M274.8 60.7c-5.1 0-16.3-.9-22.6-2.9-6.3-2-8.5 1.7-7.7 5 1.4 5.4 16 11.8 31 13.1 6.8.6 11.9.7 15.4.5l-16.1-15.7z" fill="url(#plane3_linear)"/><path d="M274.8 60.7c-.8 0-1.8 0-2.8-.1l1.2 15c.8.1 1.5.2 2.3.2 6.8.6 11.9.7 15.4.5l-16.1-15.6zM255.3 71l2.5-11.9c-2.1-.4-4-.8-5.6-1.3-6.3-2-8.5 1.7-7.7 5 .7 2.7 4.9 5.8 10.8 8.2z" fill="url(#plane6_linear)"/><path d="M275.4 75.9L272 60.6c-4-.2-9.5-.7-14.2-1.5L255.3 71" stroke="#6D737D" stroke-width=".7" stroke-miterlimit="10" stroke-linecap="round" stroke-linejoin="round"/><path d="M274.8 60.7c-5.1 0-16.3-.9-22.6-2.9-6.3-2-8.5 1.7-7.7 5" stroke="#6D737D" stroke-width=".7" stroke-miterlimit="10" stroke-linecap="round" stroke-linejoin="round"/><path d="M238.8 97.1h59c5.2 0 7.7-6.2 4-9.9l-39.6-38.9M233.5 66.9h-3.9c-2.9 0-5.3 2.4-5.3 5.3v16.3h14.4V72.2c.1-3-2.3-5.3-5.2-5.3zM95.3 66.9h-3.9c-2.9 0-5.3 2.4-5.3 5.3v16.3h14.4V72.2c.1-3-2.3-5.3-5.2-5.3z" stroke="#6D737D" stroke-width="1.2" stroke-miterlimit="10" stroke-linecap="round" stroke-linejoin="round"/><path d="M60.3 73.6l-27.6-2.7c-4.2-.4-7.4-4-7.4-8.2 0-4.2 3.2-7.7 7.3-8.2 0 0 22.8-2.6 27.6-3 4.8-.5 7.1 1.8 7.4 6.6.2 3.8.1 7.2-.4 10.1-.8 3.7-3 5.8-6.9 5.4z" fill="url(#plane4_linear)"/><path d="M65.8 53l-.1-.1c0 .1 0 .1.1.1z" fill="url(#plane4_linear)"/><path d="M67.6 58.2c-.1-2.3-.7-4-1.8-5.1-.5-.5-1.2-.7-1.9-.6-1.2.2-2.7 1.2-3.3 3.3-1.4 4.8-1.4 10.8.5 15.3l.3.6c.7 1.3 2.4 1.6 3.5.7 1.1-.9 1.8-2.3 2.2-4.1.6-2.9.7-6.3.5-10.1z" fill="url(#plane5_linear)"/><path d="M62.9 73.4c2.3-.6 3.7-2.5 4.2-5.2.6-2.8.7-6.2.4-10.1" stroke="#6D737D" stroke-width="1.2" stroke-miterlimit="10" stroke-linecap="round" stroke-linejoin="round"/><path d="M25.3 62.8c0-4.2 3.2-7.7 7.3-8.2 0 0 22.8-2.7 27.6-3 .6 0 3.8-.4 5.3 1.3 1.5 1.7 1.8 3.6 2 5.3" stroke="#6D737D" stroke-width="1.2" stroke-miterlimit="10" stroke-linecap="round" stroke-linejoin="round"/><path d="M106.9 101.6h44.7l44.9-16" stroke="#6D737D" stroke-width=".7" stroke-miterlimit="10" stroke-linecap="round" stroke-linejoin="round"/><path d="M171.7 79.5h33.5c2.8 0 5 2.2 5 5v.8c0 2.2-1.4 4.2-3.6 4.8l-53.7 16c-.4.1-.9.2-1.3.2h-14.1" stroke="#6D737D" stroke-width="1.2" stroke-miterlimit="10" stroke-linecap="round" stroke-linejoin="round"/><path d="M207.3 74a2.7 2.7 0 1 0 0-5.4 2.7 2.7 0 0 0 0 5.4zM194.5 74a2.7 2.7 0 1 0 0-5.4 2.7 2.7 0 0 0 0 5.4zM181.7 74a2.7 2.7 0 1 0 0-5.4 2.7 2.7 0 0 0 0 5.4zM168.9 74a2.7 2.7 0 1 0 0-5.4 2.7 2.7 0 0 0 0 5.4z" fill="url(#plane6_linear)"/><path d="M206.3 73.8c-.8-.3-1.4-1-1.6-1.9-.3-1.5.6-3 2.1-3.3 1.5-.3 3 .6 3.3 2.1M193.5 73.8c-.8-.3-1.4-1-1.6-1.9-.3-1.5.6-3 2.1-3.3 1.5-.3 3 .6 3.3 2.1M180.7 73.8c-.8-.3-1.4-1-1.6-1.9-.3-1.5.6-3 2.1-3.3 1.5-.3 3 .6 3.3 2.1M167.9 73.8c-.8-.3-1.4-1-1.6-1.9-.3-1.5.6-3 2.1-3.3 1.5-.3 3 .6 3.3 2.1" stroke="#6D737D" stroke-width=".7" stroke-miterlimit="10" stroke-linecap="round" stroke-linejoin="round"/><path d="M156.2 74a2.7 2.7 0 1 0 0-5.4 2.7 2.7 0 0 0 0 5.4zM143.5 74a2.7 2.7 0 1 0 0-5.4 2.7 2.7 0 0 0 0 5.4zM130.7 74a2.7 2.7 0 1 0 0-5.4 2.7 2.7 0 0 0 0 5.4zM117.9 74a2.7 2.7 0 1 0 0-5.4 2.7 2.7 0 0 0 0 5.4z" fill="url(#plane6_linear)"/><path d="M155.2 73.8c-.8-.3-1.4-1-1.6-1.9-.3-1.5.6-3 2.1-3.3 1.5-.3 3 .6 3.3 2.1M142.4 73.8c-.8-.3-1.4-1-1.6-1.9-.3-1.5.6-3 2.1-3.3 1.5-.3 3 .6 3.3 2.1M129.6 73.8c-.8-.3-1.4-1-1.6-1.9-.3-1.5.6-3 2.1-3.3 1.5-.3 3 .6 3.3 2.1M116.9 73.8c-.8-.3-1.4-1-1.6-1.9-.3-1.5.6-3 2.1-3.3 1.5-.3 3 .6 3.3 2.1M62.6 52.8c-1.3.7-2.7 3.5-2.9 8.3-.1 3.8.2 7.3 1.3 9.6M63.5 59.7s1.4.1 1.9 1.4c.5 1.3.2 3.6-1.9 4.2" stroke="#6D737D" stroke-width=".7" stroke-miterlimit="10" stroke-linecap="round" stroke-linejoin="round"/><path d="M2.6 23.8h33.8l5.1 9.1M40.8 15l16.6 24.2M48.8 39.2h18.8" stroke="#6D737D" stroke-width="1.2" stroke-miterlimit="10" stroke-linecap="round" stroke-linejoin="round"/><path d="M244.3 68s6.3 6.2 22.2 9.7c15.8 3.4 26.6 1.8 26.6 1.8M78.5 60.6h160.3M150.2 101.6c1.4 0 1.6 1.1 1.7 2.1" stroke="#6D737D" stroke-width=".7" stroke-miterlimit="10" stroke-linecap="round" stroke-linejoin="round"/></g><defs><linearGradient id="plane1_linear"><stop stop-color="#3A9BE0"/><stop offset=".008" stop-color="#409EE2"/><stop offset=".049" stop-color="#58ADE9"/><stop offset=".094" stop-color="#6BB7EE"/><stop offset=".148" stop-color="#78BFF2"/><stop offset=".217" stop-color="#80C4F4"/><stop offset=".353" stop-color="#82C5F5"/><stop offset=".482" stop-color="#7EC3F4"/><stop offset=".603" stop-color="#73BCF1"/><stop offset=".72" stop-color="#60B1EB"/><stop offset=".834" stop-color="#46A2E3"/><stop offset=".876" stop-color="#3A9BE0"/></linearGradient><linearGradient id="plane2_linear"><stop offset=".481" stop-color="#82C5F5"/><stop offset=".584" stop-color="#6DB9EF"/><stop offset=".748" stop-color="#51A8E7"/><stop offset=".892" stop-color="#409EE2"/><stop offset="1" stop-color="#3A9BE0"/></linearGradient><linearGradient id="plane3_linear"><stop stop-color="#D3DBDE"/><stop offset=".075" stop-color="#DDE4E8"/><stop offset=".196" stop-color="#E5ECF0"/><stop offset=".422" stop-color="#E7EEF2"/><stop offset=".682" stop-color="#E2E9ED"/><stop offset=".991" stop-color="#D4DCDF"/><stop offset="1" stop-color="#D3DBDE"/></linearGradient><linearGradient id="plane4_linear"><stop offset=".417" stop-color="#82C5F5"/><stop offset="1" stop-color="#3A9BE0"/></linearGradient><radialGradient id="plane5_linear" cx="0" cy="0" r="1" gradientTransform="matrix(7.3272 -.24425 .4763 14.28856 59.536 61.396)"><stop offset=".34" stop-color="#3596DB"/><stop offset=".456" stop-color="#3A99DC"/><stop offset=".597" stop-color="#49A1E0"/><stop offset=".752" stop-color="#62AFE5"/><stop offset=".871" stop-color="#7ABCEB"/></radialGradient><linearGradient id="plane6_linear"><stop offset=".224" stop-color="#E7EEF2"/><stop offset=".25" stop-color="#E4EBEF"/><stop offset=".567" stop-color="#C3CACD"/><stop offset=".828" stop-color="#AFB5B8"/><stop offset="1" stop-color="#A8AEB0"/></linearGradient></defs></svg>