<svg class="ship" width="305" height="76" fill="none" xmlns="http://www.w3.org/2000/svg"><g class="ship-bl"><path d="M52.4 23.5H37.2V.2h13.3c1 0 1.9.8 1.9 1.9v21.4z" fill="url(#ship0_linear)"/><path d="M68.7 44.8H53.5V23.5h13.3c1 0 1.9.8 1.9 1.9v19.4z" fill="url(#ship1_linear)"/><path d="M55.5 44.8V24.9c0-.8-.6-1.4-1.4-1.4H39.2V1.6c0-.8-.6-1.4-1.4-1.4H27.5c-.8 0-1.4.6-1.4 1.4v43.2h29.4z" fill="#fff"/><path d="M55.5 44.8V24.9c0-.8-.6-1.4-1.4-1.4H39.2v-4.3" stroke="#6D737D" stroke-width="1.2" stroke-miterlimit="10" stroke-linecap="round" stroke-linejoin="round"/><path d="M78.5 53.9l-8.8-8.8c-.3-.3-.6-.4-1-.4H55.5l9.2 9.2h13.8z" fill="url(#ship1_linear)"/><path d="M33.5 72.6c2.3 0 2.5 2.3 5.5 2.3s3.2-2.3 5.5-2.3 2.5 2.3 5.5 2.3 3.2-2.3 5.5-2.3 2.5 2.3 5.5 2.3 3.2-2.3 5.5-2.3 2.5 2.3 5.5 2.3 3.2-2.3 5.5-2.3 2.5 2.3 5.5 2.3 3.2-2.3 5.5-2.3 2.5 2.3 5.5 2.3 3.2-2.3 5.5-2.3 2.5 2.3 5.5 2.3 3.2-2.3 5.5-2.3 2.5 2.3 5.5 2.3 3.2-2.3 5.5-2.3 2.5 2.3 5.5 2.3 3.2-2.3 5.5-2.3 2.5 2.3 5.5 2.3 3.2-2.3 5.5-2.3 2.5 2.3 5.5 2.3 3.2-2.3 5.5-2.3 2.5 2.3 5.5 2.3 3.2-2.3 5.5-2.3 2.5 2.3 5.5 2.3 3.2-2.3 5.5-2.3 2.5 2.3 5.5 2.3 3.2-2.3 5.5-2.3 2.5 2.3 5.5 2.3 3.2-2.3 5.5-2.3 2.5 2.3 5.5 2.3 3.2-2.3 5.5-2.3 2.5 2.3 5.5 2.3 3.2-2.3 5.5-2.3 2.5 2.3 5.5 2.3 3.2-2.3 5.5-2.3 2.5 2.3 5.5 2.3 3.2-2.3 5.5-2.3 2.5 2.3 5.5 2.3 3.2-2.3 5.5-2.3 2.5 2.3 5.5 2.3 3.2-2.3 5.5-2.3 2.5 2.3 5.5 2.3 3.2-2.3 5.5-2.3h.4c2.9-2 6-4.4 9.3-7.4 9.5-8.3 13.4-15.3 14.9-18.6.4-.9-.3-2-1.3-2h-32.5c-.4 0-.7.1-1 .4l-5.3 5.3c-2.3 2.3-5.4 3.6-8.6 3.6H66.8c-.4 0-.7-.1-1-.4l-8.4-8.4c-.3-.3-.6-.4-1-.4H1.8c-.8 0-1.4.6-1.4 1.4v6.3c0 .5.3 1 .7 1.2l32.4 19z" fill="url(#ship1_linear)"/><path d="M230.9 25.4H85.1V54h145.8V25.4z" fill="url(#ship2_linear)"/><path d="M247.2 25.4h-16.3V54h16.3V25.4z" fill="url(#ship2_linear)"/><g stroke="#6D737D" stroke-width=".7" stroke-miterlimit="10" stroke-linecap="round" stroke-linejoin="round"><path d="M12.3 53.2h37.1M86.9 39.7h158.6M112.1 26.9v25.6M141.8 26.9v25.6M171.5 26.9v25.6M201.2 26.9v25.6M230.9 26.9v25.6"/></g><path d="M252.5 53.9H66.8c-.4 0-.7-.1-1-.4l-8.4-8.4c-.3-.3-.6-.4-1-.4H1.8M26.1 44.8V3.1M53.6 44.8h15.1" stroke="#6D737D" stroke-width="1.2" stroke-miterlimit="10" stroke-linecap="round" stroke-linejoin="round"/><path d="M85.1 53.9V25.4h13.5" stroke="#6D737D" stroke-width=".7" stroke-miterlimit="10" stroke-linecap="round" stroke-linejoin="round"/><path d="M51.5 30.4a1.4 1.4 0 100-2.8 1.4 1.4 0 000 2.8zM51.5 40.5a1.4 1.4 0 100-2.8 1.4 1.4 0 000 2.8z" fill="#6D737D"/></g><defs><linearGradient id="ship0_linear"><stop stop-color="#D8E0E3"/><stop offset=".572" stop-color="#EAF1F5"/></linearGradient><linearGradient id="ship1_linear"><stop stop-color="#D8E0E3"/><stop offset=".48" stop-color="#EAF1F5"/></linearGradient><linearGradient id="ship2_linear"><stop offset=".417" stop-color="#82C5F5"/><stop offset="1" stop-color="#3A9BE0"/></linearGradient></defs></svg>