<svg width="163" height="54" viewBox="0 0 163 54" fill="none" xmlns="http://www.w3.org/2000/svg">
<path d="M162.969 46.1073C162.969 50.0746 159.751 53.3233 155.753 53.3233H7.21598C3.21752 53.3233 0 50.0746 0 46.1073V7.21598C0 3.21752 3.21752 0 7.21598 0H155.784C159.751 0 163 3.21752 163 7.21598V46.1073H162.969Z" fill="black"/>
<path d="M42.4837 35.2366C41.609 37.1421 41.2029 38.0168 40.1096 39.7037C38.5477 42.0778 36.3611 45.0141 33.6746 45.0141C31.2693 45.0454 30.6445 43.4522 27.3957 43.4522C24.147 43.4835 23.4598 45.0141 21.0544 45.0141C18.3367 44.9829 16.2438 42.3589 14.7131 39.9848C10.371 33.3936 9.93369 25.6466 12.5889 21.5231C14.4944 18.5868 17.4933 16.8999 20.3047 16.8999C23.1786 16.8999 24.9904 18.4618 27.3645 18.4618C29.6761 18.4618 31.0818 16.8999 34.3931 16.8999C36.8921 16.8999 39.5473 18.2744 41.4528 20.6172C35.2365 24.0222 36.2361 32.8625 42.4837 35.2366Z" fill="white"/>
<path d="M31.8628 14.2448C33.0811 12.6829 33.987 10.5275 33.6434 8.27832C31.6754 8.40327 29.3638 9.65279 28.0205 11.3084C26.8022 12.7766 25.8026 14.9945 26.1775 17.1187C28.3329 17.1812 30.5508 15.9004 31.8628 14.2448Z" fill="white"/>
<path d="M55.6974 21.4292L49.4811 39.7034H52.3237L54.1668 34.0806H60.1645L62.07 39.7034H65.0064L58.7588 21.4292H55.6974ZM57.1656 24.428C57.3843 25.2402 57.603 26.0837 57.8841 27.0208L59.571 31.8627H54.8228L56.4784 26.9896C56.7283 26.1774 56.947 25.334 57.1656 24.428Z" fill="white"/>
<path d="M73.0658 26.1772C71.1915 26.1772 69.6608 26.8957 68.6612 28.3014L68.5363 26.4896H66.006V26.7083C66.0685 27.8329 66.0997 29.0824 66.0997 30.8629V44.9513H68.8799V38.3913C69.7233 39.4222 71.0978 40.0157 72.6597 40.0157C74.2841 40.0157 75.7522 39.3909 76.8456 38.2351C78.0639 36.9544 78.6886 35.1113 78.6886 32.9247C78.6886 30.9879 78.1263 29.301 77.0955 28.0828C76.0959 26.8332 74.6589 26.1772 73.0658 26.1772ZM72.3785 28.4576C74.8463 28.4576 75.9397 30.738 75.9397 33.0184C75.9397 35.9235 74.534 37.7353 72.2536 37.7353C70.6917 37.7353 69.3797 36.6732 69.0048 35.1738C68.9424 34.9239 68.9111 34.6427 68.9111 34.2679V32.05C68.9111 31.8626 68.9424 31.6127 69.0048 31.3628C69.0048 31.3003 69.0361 31.2066 69.0361 31.1441C69.4422 29.551 70.8166 28.4576 72.3785 28.4576Z" fill="white"/>
<path d="M87.3103 26.1772C85.436 26.1772 83.9053 26.8957 82.9057 28.3014L82.7808 26.4896H80.2817V26.7083C80.3442 27.8329 80.3754 29.0824 80.3754 30.8629V44.9513H83.1556V38.3913C83.9991 39.4222 85.3735 40.0157 86.9354 40.0157C88.5598 40.0157 90.028 39.3909 91.1213 38.2351C92.3396 36.9544 92.9644 35.1113 92.9644 32.9247C92.9644 30.9879 92.4021 29.301 91.3712 28.0828C90.3404 26.8332 88.9034 26.1772 87.3103 26.1772ZM86.6231 28.4576C89.0909 28.4576 90.1842 30.738 90.1842 33.0184C90.1842 35.9235 88.7785 37.7353 86.4981 37.7353C84.9674 37.7353 83.6242 36.6732 83.2494 35.1738C83.1869 34.9239 83.1556 34.6427 83.1556 34.2679V32.05C83.1556 31.8626 83.1869 31.6127 83.2494 31.3628C83.2494 31.3003 83.2806 31.2066 83.2806 31.1441C83.6867 29.551 85.0612 28.4576 86.6231 28.4576Z" fill="white"/>
<path d="M105.147 29.1761C102.554 28.1765 101.742 27.3955 101.742 25.9274C101.742 24.7091 102.711 23.4596 104.897 23.4596C106.678 23.4596 107.834 24.0843 108.146 24.2717L108.396 24.4279L109.177 22.1163L109.021 22.0226C108.552 21.7415 107.24 21.1167 104.991 21.1167C101.461 21.1167 98.9934 23.2096 98.9934 26.1773C98.9934 28.5826 100.524 30.2694 103.835 31.4565C106.178 32.3312 107.053 33.2371 107.053 34.7677C107.053 36.517 105.71 37.5791 103.523 37.5791C102.117 37.5791 100.649 37.173 99.5244 36.4546L99.2745 36.2984L98.5248 38.6725L98.6497 38.7662C99.6806 39.4534 101.649 39.9532 103.335 39.9532C108.084 39.9532 109.77 37.0481 109.77 34.5803C109.802 32.05 108.458 30.4881 105.147 29.1761Z" fill="white"/>
<path d="M114.769 23.3037L112.051 24.1471V26.4588H110.052V28.6767H112.051V35.4553C112.051 37.0797 112.363 38.2355 113.019 38.954C113.644 39.6412 114.581 40.0161 115.706 40.0161C116.737 40.0161 117.486 39.7974 117.83 39.6724L117.986 39.61L117.861 37.3921L117.611 37.4858C117.268 37.5795 116.893 37.642 116.33 37.642C115.268 37.642 114.8 36.9547 114.8 35.3616V28.6767H118.142V26.4588H114.8V23.3037H114.769Z" fill="white"/>
<path d="M124.983 26.1772C121.11 26.1772 118.423 29.0511 118.423 33.2058C118.423 37.2043 121.047 40.0157 124.796 40.0157H124.827C127.982 40.0157 131.387 37.7978 131.387 32.9559C131.387 30.9879 130.794 29.301 129.638 28.0515C128.42 26.8332 126.826 26.1772 124.983 26.1772ZM124.89 28.3327C127.389 28.3327 128.513 30.7692 128.513 33.0184C128.513 35.7986 126.983 37.7978 124.827 37.7978H124.796C122.703 37.7978 121.172 35.8298 121.172 33.0808C121.204 30.738 122.328 28.3327 124.89 28.3327Z" fill="white"/>
<path d="M139.821 26.3022L139.665 26.271C139.415 26.2085 139.228 26.1772 138.978 26.1772C137.541 26.1772 136.229 27.0207 135.511 28.3951L135.417 26.4584H132.949L132.98 26.6771C133.043 27.7704 133.074 28.9887 133.074 30.6443L133.043 39.6721H135.823V32.6123C135.823 32.2374 135.854 31.8626 135.885 31.5502C136.198 29.8633 137.354 28.77 138.791 28.77C139.072 28.77 139.29 28.8012 139.54 28.8012L139.821 28.8325V26.3022Z" fill="white"/>
<path d="M146.038 26.1465C142.352 26.1465 139.79 29.0829 139.79 33.3C139.79 37.3609 142.352 39.9849 146.319 39.9849C148.412 39.9849 149.849 39.5164 150.692 39.1415L150.848 39.079L150.317 37.0173L150.099 37.111C149.349 37.4234 148.349 37.7358 146.631 37.7358C145.444 37.7358 142.664 37.3297 142.477 33.7373L151.411 33.7686L151.442 33.5811C151.504 33.3 151.536 32.9251 151.536 32.4253C151.536 29.5202 150.099 26.1465 146.038 26.1465ZM145.85 28.2394C146.694 28.2394 147.381 28.4893 147.881 29.0204C148.662 29.8326 148.818 31.0196 148.818 31.5819H142.508C142.789 29.9888 143.789 28.2394 145.85 28.2394Z" fill="white"/>
<path d="M49.4811 8.93401C50.2621 8.8403 51.1368 8.74658 52.1364 8.74658C53.9169 8.74658 55.1977 9.12144 56.0411 9.80867C56.9158 10.5271 57.4156 11.5268 57.4156 12.9325C57.4156 14.3382 56.9158 15.494 56.0411 16.3062C55.1352 17.1184 53.6358 17.5557 51.7928 17.5557C50.8869 17.5557 50.1684 17.5245 49.5124 17.462V8.93401H49.4811ZM50.7619 16.6186C51.0743 16.681 51.5429 16.681 52.0114 16.681C54.6667 16.681 56.1036 15.3378 56.1036 13.0262C56.1036 10.9645 54.8228 9.68372 52.1989 9.68372C51.5429 9.68372 51.0743 9.7462 50.7307 9.80867V16.6186H50.7619Z" fill="white"/>
<path d="M61.8513 17.6186C60.0083 17.6186 58.5401 16.4003 58.5401 14.4323C58.5401 12.3394 60.0708 11.1211 61.9763 11.1211C63.9443 11.1211 65.2875 12.4019 65.2875 14.3074C65.2875 16.619 63.5069 17.6186 61.8513 17.6186ZM61.8826 16.7752C63.0696 16.7752 63.9755 15.7756 63.9755 14.3386C63.9755 13.2765 63.382 11.9645 61.9138 11.9645C60.4456 11.9645 59.7896 13.1828 59.7896 14.3698C59.8209 15.7443 60.6643 16.7752 61.8826 16.7752Z" fill="white"/>
<path d="M67.2867 11.2768L68.2239 14.4319C68.4113 15.1191 68.5987 15.7751 68.7237 16.4311H68.7549C68.9111 15.8064 69.1298 15.1504 69.3797 14.4631L70.5042 11.3081H71.5663L72.6284 14.4006C72.8783 15.1191 73.097 15.8064 73.2532 16.4311H73.2844C73.4094 15.8064 73.5968 15.1504 73.8155 14.4006L74.7838 11.2768H76.0334L73.8155 17.4932H72.6597L71.5976 14.5256C71.3477 13.8071 71.1602 13.2136 70.9728 12.4639H70.9416C70.7854 13.2136 70.5667 13.8696 70.3168 14.5256L69.1922 17.462H68.0364L65.9435 11.2456H67.2867V11.2768Z" fill="white"/>
<path d="M77.2829 12.9329C77.2829 12.2769 77.2829 11.7771 77.2205 11.246H78.345L78.4075 12.2457H78.4387C78.7824 11.6834 79.5945 11.0898 80.7191 11.0898C81.6875 11.0898 83.1557 11.5897 83.1557 13.7451V17.4624H81.9062V13.9013C81.9062 12.9016 81.5001 12.0582 80.313 12.0582C79.5008 12.0582 78.8448 12.5893 78.6262 13.214C78.5637 13.3702 78.5325 13.5576 78.5325 13.7451V17.4936H77.2829V12.9329Z" fill="white"/>
<path d="M85.1861 8.37207H86.4356V17.4936H85.1861V8.37207Z" fill="white"/>
<path d="M91.34 17.6186C89.497 17.6186 88.0288 16.4003 88.0288 14.4323C88.0288 12.3394 89.5595 11.1211 91.465 11.1211C93.433 11.1211 94.7762 12.4019 94.7762 14.3074C94.7762 16.619 92.9957 17.6186 91.34 17.6186ZM91.3713 16.7752C92.5583 16.7752 93.4642 15.7756 93.4642 14.3386C93.4642 13.2765 92.8707 11.9645 91.4025 11.9645C89.9343 11.9645 89.2783 13.1828 89.2783 14.3698C89.3096 15.7443 90.153 16.7752 91.3713 16.7752Z" fill="white"/>
<path d="M101.211 15.9938C101.211 16.5248 101.242 17.0559 101.305 17.4932H100.18L100.055 16.7122H100.024C99.6493 17.212 98.8996 17.6494 97.8999 17.6494C96.4942 17.6494 95.7758 16.7747 95.7758 15.8688C95.7758 14.3694 97.2439 13.5572 99.9304 13.5572V13.4322C99.9304 12.9324 99.7742 11.9953 98.3685 11.9953C97.7125 11.9953 97.0565 12.1515 96.5567 12.4639L96.2756 11.7142C96.8379 11.4018 97.6813 11.1831 98.5559 11.1831C100.68 11.1831 101.18 12.4639 101.18 13.7134V15.9938H101.211ZM99.9929 14.3069C98.6184 14.2757 97.0565 14.4943 97.0565 15.7126C97.0565 16.4623 97.5876 16.8059 98.2123 16.8059C99.1182 16.8059 99.7117 16.3061 99.8992 15.7751C99.9304 15.6501 99.9616 15.5252 99.9616 15.4002V14.3069H99.9929Z" fill="white"/>
<path d="M109.177 8.37207V15.8692C109.177 16.4315 109.177 17.0562 109.239 17.4623H108.115L108.052 16.369H108.021C107.646 17.0562 106.803 17.5873 105.678 17.5873C104.023 17.5873 102.711 16.3065 102.711 14.4322C102.711 12.3393 104.148 11.0898 105.803 11.0898C106.865 11.0898 107.584 11.5271 107.896 12.0269H107.927V8.37207H109.177ZM107.927 13.8075C107.927 13.6513 107.927 13.4639 107.865 13.3077C107.678 12.5892 106.99 12.0269 106.053 12.0269C104.741 12.0269 103.991 13.0578 103.991 14.401C103.991 15.6818 104.679 16.7126 106.022 16.7126C106.865 16.7126 107.646 16.2128 107.865 15.3694C107.896 15.2132 107.927 15.057 107.927 14.8696V13.8075Z" fill="white"/>
<path d="M117.111 17.6186C115.268 17.6186 113.8 16.4003 113.8 14.4323C113.8 12.3394 115.331 11.1211 117.236 11.1211C119.204 11.1211 120.548 12.4019 120.548 14.3074C120.548 16.619 118.767 17.6186 117.111 17.6186ZM117.143 16.7752C118.33 16.7752 119.236 15.7756 119.236 14.3386C119.236 13.2765 118.642 11.9645 117.174 11.9645C115.706 11.9645 115.05 13.1828 115.05 14.3698C115.05 15.7443 115.924 16.7752 117.143 16.7752Z" fill="white"/>
<path d="M122.109 12.9329C122.109 12.2769 122.109 11.7771 122.047 11.246H123.172L123.234 12.2457H123.265C123.609 11.6834 124.421 11.0898 125.546 11.0898C126.514 11.0898 127.982 11.5897 127.982 13.7451V17.4624H126.733V13.9013C126.733 12.9016 126.327 12.0582 125.14 12.0582C124.327 12.0582 123.671 12.5893 123.453 13.214C123.39 13.3702 123.359 13.5576 123.359 13.7451V17.4936H122.109V12.9329Z" fill="white"/>
<path d="M134.573 9.77734V11.2768H136.385V12.1514H134.573V15.4939C134.573 16.2749 134.823 16.7122 135.511 16.7122C135.854 16.7122 136.042 16.6809 136.229 16.6497L136.292 17.5244C136.042 17.5868 135.667 17.6806 135.167 17.6806C134.573 17.6806 134.105 17.4931 133.824 17.212C133.48 16.8684 133.324 16.3061 133.324 15.5876V12.1202H132.262V11.2455H133.324V10.0897L134.573 9.77734Z" fill="white"/>
<path d="M137.791 8.37207H139.04V12.2456H139.072C139.259 11.9332 139.572 11.6208 139.978 11.4646C140.352 11.246 140.79 11.1523 141.258 11.1523C142.196 11.1523 143.664 11.6521 143.664 13.8075V17.4936H142.414V13.9012C142.414 12.9016 142.008 12.0582 140.821 12.0582C140.009 12.0582 139.384 12.558 139.134 13.1827C139.072 13.3389 139.04 13.4951 139.04 13.7138V17.4623H137.791V8.37207Z" fill="white"/>
<path d="M146.413 14.5573C146.444 16.0879 147.506 16.7127 148.755 16.7127C149.661 16.7127 150.224 16.5565 150.661 16.4003L150.88 17.1813C150.442 17.3687 149.661 17.5874 148.568 17.5874C146.444 17.5874 145.163 16.3066 145.163 14.4635C145.163 12.5893 146.413 11.0898 148.412 11.0898C150.661 11.0898 151.255 12.8704 151.255 14.0262C151.255 14.2449 151.254 14.4323 151.223 14.5573H146.413ZM150.067 13.7451C150.067 13.0266 149.724 11.902 148.349 11.902C147.069 11.902 146.538 12.9641 146.413 13.7451H150.067Z" fill="white"/>
</svg>
