<svg width="154" height="51" viewBox="0 0 154 51" fill="none" xmlns="http://www.w3.org/2000/svg">
<path d="M153.971 43.3875C153.971 47.1207 150.943 50.1778 147.18 50.1778H7.40556C3.64295 50.1778 0.615234 47.1207 0.615234 43.3875V6.79032C0.615234 3.02772 3.64295 0 7.40556 0H147.21C150.943 0 154 3.02772 154 6.79032V43.3875H153.971Z" fill="black"/>
<path d="M40.5926 33.1576C39.7696 34.9508 39.3874 35.7738 38.3586 37.3612C36.8888 39.5952 34.8311 42.3584 32.3031 42.3584C30.0397 42.3878 29.4518 40.8886 26.3947 40.8886C23.3376 40.918 22.6909 42.3584 20.4274 42.3584C17.87 42.329 15.9005 39.8598 14.4602 37.6257C10.3742 31.4233 9.96269 24.1333 12.4613 20.2531C14.2544 17.4899 17.0764 15.9026 19.7219 15.9026C22.4263 15.9026 24.1312 17.3724 26.3653 17.3724C28.5405 17.3724 29.8633 15.9026 32.9792 15.9026C35.3309 15.9026 37.8295 17.196 39.6226 19.4006C33.7729 22.6047 34.7136 30.9236 40.5926 33.1576Z" fill="white"/>
<path d="M30.598 13.4041C31.7444 11.9343 32.5969 9.90601 32.2735 7.78955C30.4216 7.90713 28.2464 9.08295 26.9824 10.6409C25.8359 12.0225 24.8953 14.1095 25.248 16.1084C27.2763 16.1672 29.3634 14.962 30.598 13.4041Z" fill="white"/>
<path d="M53.0274 20.1655L47.1777 37.3618H49.8527L51.587 32.0706H57.2309L59.0241 37.3618H61.7872L55.9082 20.1655H53.0274ZM54.409 22.9875C54.6148 23.7518 54.8205 24.5454 55.0851 25.4273L56.6724 29.9836H52.2043L53.7623 25.3979C53.9975 24.6336 54.2032 23.8399 54.409 22.9875Z" fill="white"/>
<path d="M69.3709 24.6333C67.6072 24.6333 66.1668 25.3094 65.2261 26.6322L65.1086 24.9273H62.7275V25.133C62.7863 26.1913 62.8157 27.3671 62.8157 29.0426V42.2999H65.4319V36.1269C66.2256 37.0969 67.519 37.6554 68.9887 37.6554C70.5173 37.6554 71.8989 37.0675 72.9277 35.9799C74.0741 34.7747 74.662 33.0404 74.662 30.9827C74.662 29.1602 74.1329 27.5728 73.1629 26.4264C72.2222 25.2506 70.87 24.6333 69.3709 24.6333ZM68.7242 26.7792C71.0464 26.7792 72.0753 28.925 72.0753 31.0709C72.0753 33.8046 70.7525 35.5096 68.6066 35.5096C67.1368 35.5096 65.9022 34.5101 65.5495 33.0992C65.4907 32.864 65.4613 32.5994 65.4613 32.2467V30.1596C65.4613 29.9833 65.4907 29.7481 65.5495 29.5129C65.5495 29.4541 65.5789 29.3659 65.5789 29.3072C65.961 27.808 67.2544 26.7792 68.7242 26.7792Z" fill="white"/>
<path d="M82.7761 24.6333C81.0123 24.6333 79.572 25.3094 78.6313 26.6322L78.5137 24.9273H76.1621V25.133C76.2209 26.1913 76.2503 27.3671 76.2503 29.0426V42.2999H78.8665V36.1269C79.6602 37.0969 80.9535 37.6554 82.4233 37.6554C83.9519 37.6554 85.3335 37.0675 86.3623 35.9799C87.5087 34.7747 88.0966 33.0404 88.0966 30.9827C88.0966 29.1602 87.5675 27.5728 86.5975 26.4264C85.6274 25.2506 84.2752 24.6333 82.7761 24.6333ZM82.1294 26.7792C84.4516 26.7792 85.4804 28.925 85.4804 31.0709C85.4804 33.8046 84.1576 35.5096 82.0118 35.5096C80.5714 35.5096 79.3074 34.5101 78.9547 33.0992C78.8959 32.864 78.8665 32.5994 78.8665 32.2467V30.1596C78.8665 29.9833 78.8959 29.7481 78.9547 29.5129C78.9547 29.4541 78.9841 29.3659 78.9841 29.3072C79.3662 27.808 80.6596 26.7792 82.1294 26.7792Z" fill="white"/>
<path d="M99.5599 27.4553C97.1201 26.5147 96.3558 25.7798 96.3558 24.3982C96.3558 23.2518 97.2671 22.076 99.3248 22.076C101 22.076 102.088 22.6639 102.382 22.8403L102.617 22.9872L103.352 20.812L103.205 20.7238C102.764 20.4592 101.529 19.8713 99.413 19.8713C96.0913 19.8713 93.7691 21.8408 93.7691 24.6334C93.7691 26.8968 95.2094 28.4842 98.3253 29.6012C100.53 30.4243 101.353 31.2767 101.353 32.7171C101.353 34.3632 100.089 35.3627 98.0314 35.3627C96.7086 35.3627 95.327 34.9805 94.2688 34.3044L94.0336 34.1575L93.3281 36.3915L93.4457 36.4797C94.4158 37.1264 96.2677 37.5967 97.855 37.5967C102.323 37.5967 103.91 34.863 103.91 32.5407C103.94 30.1597 102.676 28.6899 99.5599 27.4553Z" fill="white"/>
<path d="M108.614 21.9292L106.056 22.7229V24.8981H104.175V26.9852H106.056V33.364C106.056 34.8925 106.35 35.9802 106.967 36.6563C107.555 37.303 108.437 37.6557 109.495 37.6557C110.465 37.6557 111.171 37.4499 111.494 37.3324L111.641 37.2736L111.524 35.1865L111.288 35.2747C110.965 35.3629 110.612 35.4217 110.083 35.4217C109.084 35.4217 108.643 34.775 108.643 33.2758V26.9852H111.788V24.8981H108.643V21.9292H108.614Z" fill="white"/>
<path d="M118.227 24.6333C114.582 24.6333 112.054 27.3377 112.054 31.2473C112.054 35.0099 114.523 37.6554 118.05 37.6554H118.08C121.049 37.6554 124.253 35.5684 124.253 31.0121C124.253 29.1602 123.694 27.5728 122.607 26.397C121.46 25.2506 119.961 24.6333 118.227 24.6333ZM118.139 26.6616C120.49 26.6616 121.548 28.9544 121.548 31.0709C121.548 33.6871 120.108 35.5684 118.08 35.5684H118.05C116.081 35.5684 114.64 33.7165 114.64 31.1297C114.67 28.925 115.728 26.6616 118.139 26.6616Z" fill="white"/>
<path d="M132.189 24.7509L132.042 24.7215C131.807 24.6627 131.63 24.6333 131.395 24.6333C130.043 24.6333 128.808 25.427 128.132 26.7204L128.044 24.8979H125.722L125.751 25.1036C125.81 26.1325 125.839 27.2789 125.839 28.8368L125.81 37.3321H128.426V30.6887C128.426 30.336 128.455 29.9833 128.485 29.6893C128.779 28.1019 129.866 27.0731 131.219 27.0731C131.483 27.0731 131.689 27.1025 131.924 27.1025L132.189 27.1319V24.7509Z" fill="white"/>
<path d="M138.038 24.6045C134.57 24.6045 132.159 27.3677 132.159 31.336C132.159 35.1574 134.57 37.6266 138.303 37.6266C140.272 37.6266 141.624 37.1857 142.418 36.833L142.565 36.7742L142.065 34.8341L141.86 34.9223C141.154 35.2162 140.213 35.5102 138.597 35.5102C137.48 35.5102 134.864 35.128 134.687 31.7476L143.094 31.777L143.124 31.6006C143.182 31.336 143.212 30.9833 143.212 30.513C143.212 27.7792 141.86 24.6045 138.038 24.6045ZM137.862 26.574C138.656 26.574 139.302 26.8091 139.773 27.3089C140.507 28.0731 140.654 29.1902 140.654 29.7193H134.717C134.981 28.2201 135.922 26.574 137.862 26.574Z" fill="white"/>
<path d="M47.1777 8.40733C47.9126 8.31914 48.7357 8.23096 49.6763 8.23096C51.3519 8.23096 52.5571 8.5837 53.3508 9.2304C54.1738 9.90649 54.6442 10.8471 54.6442 12.1699C54.6442 13.4927 54.1738 14.5803 53.3508 15.3446C52.4983 16.1089 51.0873 16.5204 49.353 16.5204C48.5005 16.5204 47.8244 16.491 47.2071 16.4323V8.40733H47.1777ZM48.3829 15.6386C48.6769 15.6974 49.1178 15.6974 49.5588 15.6974C52.0574 15.6974 53.4095 14.4334 53.4095 12.2581C53.4095 10.318 52.2043 9.11282 49.7351 9.11282C49.1178 9.11282 48.6769 9.17161 48.3535 9.2304V15.6386H48.3829Z" fill="white"/>
<path d="M58.8181 16.5793C57.0837 16.5793 55.7021 15.4329 55.7021 13.581C55.7021 11.6115 57.1425 10.4651 58.9356 10.4651C60.7875 10.4651 62.0515 11.6703 62.0515 13.4634C62.0515 15.6387 60.376 16.5793 58.8181 16.5793ZM58.8475 15.7856C59.9645 15.7856 60.8169 14.845 60.8169 13.4928C60.8169 12.4934 60.2584 11.2588 58.8768 11.2588C57.4953 11.2588 56.878 12.4052 56.878 13.5222C56.9074 14.8156 57.701 15.7856 58.8475 15.7856Z" fill="white"/>
<path d="M63.932 10.6119L64.8138 13.5808C64.9902 14.2275 65.1666 14.8448 65.2842 15.4621H65.3135C65.4605 14.8742 65.6663 14.2569 65.9015 13.6102L66.9597 10.6413H67.9591L68.9586 13.5514C69.1937 14.2275 69.3995 14.8742 69.5465 15.4621H69.5759C69.6935 14.8742 69.8698 14.2569 70.0756 13.5514L70.9868 10.6119H72.1627L70.0756 16.4616H68.988L67.9885 13.669C67.7534 12.9929 67.577 12.4344 67.4006 11.7289H67.3712C67.2242 12.4344 67.0185 13.0517 66.7833 13.669L65.7251 16.4322H64.6375L62.668 10.5825H63.932V10.6119Z" fill="white"/>
<path d="M73.34 12.1701C73.34 11.5528 73.34 11.0825 73.2812 10.5828H74.3395L74.3983 11.5234H74.4277C74.751 10.9943 75.5153 10.4358 76.5735 10.4358C77.4848 10.4358 78.8664 10.9061 78.8664 12.9344V16.4324H77.6906V13.0814C77.6906 12.1407 77.3084 11.347 76.1914 11.347C75.4271 11.347 74.8098 11.8468 74.604 12.4347C74.5452 12.5816 74.5159 12.758 74.5159 12.9344V16.4618H73.34V12.1701Z" fill="white"/>
<path d="M80.7773 7.87842H81.9532V16.4619H80.7773V7.87842Z" fill="white"/>
<path d="M86.5671 16.5793C84.8328 16.5793 83.4512 15.4329 83.4512 13.581C83.4512 11.6115 84.8915 10.4651 86.6847 10.4651C88.5366 10.4651 89.8006 11.6703 89.8006 13.4634C89.8006 15.6387 88.125 16.5793 86.5671 16.5793ZM86.5965 15.7856C87.7135 15.7856 88.566 14.845 88.566 13.4928C88.566 12.4934 88.0075 11.2588 86.6259 11.2588C85.2443 11.2588 84.627 12.4052 84.627 13.5222C84.6564 14.8156 85.4501 15.7856 86.5965 15.7856Z" fill="white"/>
<path d="M95.856 15.0506C95.856 15.5503 95.8854 16.05 95.9442 16.4615H94.886L94.7684 15.7267H94.739C94.3862 16.197 93.6807 16.6085 92.7401 16.6085C91.4173 16.6085 90.7412 15.7854 90.7412 14.933C90.7412 13.522 92.1228 12.7577 94.6508 12.7577V12.6401C94.6508 12.1698 94.5038 11.288 93.181 11.288C92.5637 11.288 91.9464 11.4349 91.4761 11.7289L91.2115 11.0234C91.7407 10.7294 92.5343 10.5237 93.3574 10.5237C95.3563 10.5237 95.8266 11.7289 95.8266 12.9047V15.0506H95.856ZM94.7096 13.4632C93.4162 13.4338 91.9464 13.6396 91.9464 14.786C91.9464 15.4915 92.4461 15.8148 93.034 15.8148C93.8865 15.8148 94.445 15.3445 94.6214 14.8448C94.6508 14.7272 94.6802 14.6096 94.6802 14.4921V13.4632H94.7096Z" fill="white"/>
<path d="M103.352 7.87842V14.9333C103.352 15.4624 103.352 16.0503 103.411 16.4325H102.353L102.294 15.4036H102.265C101.912 16.0503 101.118 16.55 100.06 16.55C98.5022 16.55 97.2676 15.3448 97.2676 13.5811C97.2676 11.6116 98.6198 10.4358 100.178 10.4358C101.177 10.4358 101.853 10.8473 102.147 11.3177H102.177V7.87842H103.352ZM102.177 12.9932C102.177 12.8462 102.177 12.6699 102.118 12.5229C101.941 11.8468 101.295 11.3177 100.413 11.3177C99.1783 11.3177 98.4728 12.2877 98.4728 13.5517C98.4728 14.7569 99.1195 15.727 100.383 15.727C101.177 15.727 101.912 15.2566 102.118 14.463C102.147 14.316 102.177 14.169 102.177 13.9926V12.9932Z" fill="white"/>
<path d="M110.819 16.5793C109.085 16.5793 107.703 15.4329 107.703 13.581C107.703 11.6115 109.143 10.4651 110.937 10.4651C112.789 10.4651 114.053 11.6703 114.053 13.4634C114.053 15.6387 112.377 16.5793 110.819 16.5793ZM110.848 15.7856C111.965 15.7856 112.818 14.845 112.818 13.4928C112.818 12.4934 112.259 11.2588 110.878 11.2588C109.496 11.2588 108.879 12.4052 108.879 13.5222C108.879 14.8156 109.702 15.7856 110.848 15.7856Z" fill="white"/>
<path d="M115.522 12.1701C115.522 11.5528 115.522 11.0825 115.463 10.5828H116.521L116.58 11.5234H116.609C116.933 10.9943 117.697 10.4358 118.755 10.4358C119.666 10.4358 121.048 10.9061 121.048 12.9344V16.4324H119.872V13.0814C119.872 12.1407 119.49 11.347 118.373 11.347C117.609 11.347 116.991 11.8468 116.786 12.4347C116.727 12.5816 116.697 12.758 116.697 12.9344V16.4618H115.522V12.1701Z" fill="white"/>
<path d="M127.25 9.20093V10.6119H128.955V11.435H127.25V14.5803C127.25 15.3152 127.486 15.7267 128.132 15.7267C128.456 15.7267 128.632 15.6973 128.808 15.6679L128.867 16.491C128.632 16.5498 128.279 16.6379 127.809 16.6379C127.25 16.6379 126.81 16.4616 126.545 16.197C126.222 15.8737 126.075 15.3446 126.075 14.6685V11.4056H125.075V10.5825H126.075V9.49488L127.25 9.20093Z" fill="white"/>
<path d="M130.277 7.87842H131.453V11.5234H131.483C131.659 11.2295 131.953 10.9355 132.335 10.7886C132.688 10.5828 133.099 10.4946 133.54 10.4946C134.422 10.4946 135.804 10.9649 135.804 12.9932V16.4619H134.628V13.0814C134.628 12.1407 134.246 11.3471 133.129 11.3471C132.364 11.3471 131.777 11.8174 131.541 12.4053C131.483 12.5523 131.453 12.6993 131.453 12.905V16.4325H130.277V7.87842Z" fill="white"/>
<path d="M138.391 13.6987C138.42 15.139 139.419 15.7269 140.595 15.7269C141.448 15.7269 141.977 15.58 142.388 15.433L142.594 16.1679C142.183 16.3443 141.448 16.55 140.419 16.55C138.42 16.55 137.215 15.3448 137.215 13.6105C137.215 11.8468 138.391 10.4358 140.272 10.4358C142.388 10.4358 142.947 12.1113 142.947 13.199C142.947 13.4047 142.947 13.5811 142.918 13.6987H138.391ZM141.83 12.9344C141.83 12.2583 141.507 11.2001 140.213 11.2001C139.008 11.2001 138.508 12.1995 138.391 12.9344H141.83Z" fill="white"/>
</svg>
