<svg width="55" height="35" viewBox="0 0 55 35" fill="none" xmlns="http://www.w3.org/2000/svg">
<path d="M54.76 0H0.62207V34.3879H54.76V0Z" fill="white"/>
<path d="M53.8388 28.7996H1.51074V33.4989H53.8388V28.7996Z" fill="#F3B51B"/>
<path d="M53.8388 0.88916H1.51074V5.58853H53.8388V0.88916Z" fill="#2A2C6B"/>
<path d="M22.4679 10.764L17.07 23.6555H13.5455L10.8783 13.3677C10.7195 12.7327 10.5608 12.5104 10.0845 12.2246C9.29067 11.7801 7.95707 11.3673 6.78223 11.1133L6.84573 10.7323H12.5294C13.2597 10.7323 13.8948 11.2086 14.0535 12.0341L15.4507 19.4959L18.9117 10.7323H22.4679V10.764ZM36.2803 19.4642C36.2803 16.0667 31.5809 15.8762 31.6127 14.352C31.6127 13.8758 32.0572 13.3995 33.0415 13.2725C33.5178 13.209 34.8514 13.1455 36.3438 13.844L36.9153 11.1133C36.1215 10.8275 35.0737 10.5417 33.8036 10.5417C30.5013 10.5417 28.1834 12.2881 28.1516 14.7966C28.1199 16.6382 29.8028 17.6861 31.0729 18.3211C32.3747 18.9562 32.8193 19.3689 32.8193 19.9087C32.8193 20.766 31.7714 21.1471 30.8188 21.1788C29.136 21.2106 28.1834 20.7343 27.3896 20.3533L26.7863 23.1792C27.5801 23.5285 29.009 23.846 30.5013 23.8778C33.9941 23.8778 36.2803 22.1314 36.2803 19.4642ZM45.0122 23.6555H48.0922L45.3932 10.764H42.5355C41.9005 10.764 41.3607 11.145 41.1066 11.7166L36.0898 23.6555H39.5825L40.2811 21.7186H44.5677L45.0122 23.6555ZM41.2654 19.0832L43.0118 14.225L44.0279 19.0832H41.2654ZM27.2308 10.764L24.4684 23.6555H21.1343L23.8968 10.764H27.2308Z" fill="#2A2C6B"/>
</svg>
