<svg width="455" height="294" viewBox="0 0 455 294" fill="none" xmlns="http://www.w3.org/2000/svg">
<path d="M441.745 293.525H12.8704C6.03258 293.525 0.501953 287.995 0.501953 281.157L0.501953 12.3685C0.60251 5.53062 6.13313 0 12.8704 0L441.645 0C448.482 0 454.013 5.53062 454.013 12.3685V281.257C454.013 287.995 448.482 293.525 441.745 293.525Z" fill="url(#paint0_linear)"/>
<path d="M98.0427 71.8971C98.0427 72.601 97.8416 73.2043 97.4394 73.506C97.0371 73.9082 96.5343 74.1093 95.931 74.1093C95.2271 74.1093 94.7243 73.8077 94.3221 73.3049C93.9199 72.8021 93.7188 72.0982 93.7188 71.1932V69.9865C93.7188 69.0815 93.9199 68.3776 94.3221 67.8748C94.7243 67.372 95.3277 67.0704 96.0316 67.0704C96.6349 67.0704 97.1377 67.2715 97.5399 67.6737C97.9421 68.0759 98.0427 68.5787 98.1433 69.3832H97.3388C97.3388 68.8804 97.1377 68.4782 97.0371 68.1765C96.836 67.9754 96.5343 67.8748 96.1321 67.8748C95.6293 67.8748 95.3277 68.0759 95.1265 68.3776C94.6238 68.8804 94.5232 69.3832 94.5232 70.0871V71.2938C94.5232 71.9977 94.6238 72.5004 94.8249 72.9027C95.026 73.3049 95.4282 73.4055 95.8304 73.4055C96.2327 73.4055 96.6349 73.3049 96.7355 73.1038C96.9366 72.9027 97.0371 72.5004 97.1377 71.8971H98.0427Z" fill="#FFDD00"/>
<path d="M101.663 74.0095C101.663 73.909 101.563 73.7079 101.563 73.5068C101.261 73.909 100.859 74.1101 100.457 74.1101C100.054 74.1101 99.6522 74.0095 99.4511 73.7079C99.1494 73.4062 99.0488 73.1045 99.0488 72.6017C99.0488 72.099 99.2499 71.6967 99.5516 71.3951C99.8533 71.0934 100.356 70.9928 100.959 70.8923H101.563V70.3895C101.563 70.0878 101.462 69.8867 101.362 69.7862C101.261 69.6856 101.06 69.585 100.758 69.585C100.557 69.585 100.356 69.6856 100.155 69.7862C99.9538 69.8867 99.9538 70.0878 99.9538 70.3895H99.1494C99.1494 70.0878 99.2499 69.8867 99.3505 69.6856C99.4511 69.4845 99.7527 69.2834 99.9538 69.1828C100.256 69.0823 100.457 68.9817 100.758 68.9817C101.261 68.9817 101.663 69.0823 101.965 69.3839C102.267 69.6856 102.367 69.9873 102.367 70.4901V73.004C102.367 73.4062 102.468 73.7079 102.568 74.0095V74.1101H101.663V74.0095ZM100.557 73.4062C100.758 73.4062 100.959 73.3057 101.161 73.2051C101.362 73.1045 101.462 73.004 101.563 72.8029V71.5962H101.06C100.658 71.5962 100.356 71.6967 100.155 71.8979C99.9538 72.099 99.8533 72.3001 99.8533 72.6017C99.8533 72.9034 99.9538 73.1045 100.054 73.2051C100.155 73.3057 100.256 73.4062 100.557 73.4062Z" fill="#FFDD00"/>
<path d="M105.685 69.7861C105.584 69.7861 105.484 69.7861 105.283 69.7861C104.88 69.7861 104.579 69.9872 104.378 70.49V74.0095H103.573V68.9816H104.378V69.4844C104.579 69.0822 104.88 68.8811 105.283 68.8811C105.383 68.8811 105.484 68.8811 105.584 68.9816L105.685 69.7861Z" fill="#FFDD00"/>
<path d="M110.712 71.2947H109.606V74.0097H108.802V67.2724H110.712C111.416 67.2724 111.818 67.4736 112.221 67.7752C112.522 68.0769 112.723 68.5797 112.723 69.2836C112.723 69.6858 112.623 70.088 112.422 70.3897C112.221 70.6914 112.02 70.8925 111.617 71.0936L112.925 73.9092V74.0097H112.02L110.712 71.2947ZM109.606 70.5908H110.612C111.014 70.5908 111.215 70.4903 111.416 70.2891C111.617 70.088 111.718 69.7864 111.718 69.3841C111.718 68.4791 111.316 68.0769 110.511 68.0769H109.506V70.5908H109.606Z" fill="#FFDD00"/>
<path d="M115.439 74.1101C114.836 74.1101 114.333 73.909 114.031 73.5068C113.729 73.1046 113.528 72.6018 113.528 71.8979V71.2945C113.528 70.5906 113.729 69.9873 114.031 69.5851C114.333 69.1828 114.836 68.9817 115.338 68.9817C115.942 68.9817 116.344 69.1828 116.646 69.5851C116.947 69.9873 117.048 70.4901 117.048 71.2945V71.7973H114.232V71.8979C114.232 72.4007 114.333 72.8029 114.534 73.1046C114.735 73.3057 115.037 73.5068 115.439 73.5068C115.64 73.5068 115.841 73.5068 116.042 73.4062C116.243 73.3057 116.444 73.2051 116.545 73.004L116.947 73.5068C116.646 73.8085 116.143 74.1101 115.439 74.1101ZM115.338 69.6856C115.037 69.6856 114.735 69.7862 114.634 69.9873C114.433 70.1884 114.333 70.5906 114.333 71.0934H116.243V70.9929C116.243 70.4901 116.143 70.1884 115.942 69.9873C115.841 69.7862 115.64 69.6856 115.338 69.6856Z" fill="#FFDD00"/>
<path d="M118.757 69.0824V69.5851C119.058 69.1829 119.461 68.9818 119.963 68.9818C120.868 68.9818 121.271 69.5851 121.271 70.7918V74.1102H120.466V70.7918C120.466 70.3896 120.366 70.0879 120.265 69.9874C120.164 69.7863 119.963 69.7863 119.662 69.7863C119.46 69.7863 119.259 69.8868 119.159 69.9874C118.958 70.0879 118.857 70.289 118.757 70.4901V74.1102H117.952V69.0824H118.757Z" fill="#FFDD00"/>
<path d="M123.684 67.8755V69.0822H124.388V69.7861H123.684V72.9034C123.684 73.1045 123.684 73.205 123.785 73.3056C123.885 73.4061 123.986 73.5067 124.086 73.5067C124.187 73.5067 124.287 73.5067 124.388 73.4061V74.11C124.187 74.2106 123.986 74.2106 123.785 74.2106C123.483 74.2106 123.181 74.11 123.081 73.9089C122.88 73.7078 122.779 73.3056 122.779 72.9034V69.7861H121.975V69.0822H122.779V67.8755H123.684Z" fill="#FFDD00"/>
<path d="M127.908 74.0097C127.908 73.9091 127.808 73.708 127.808 73.5069C127.506 73.9091 127.104 74.1102 126.702 74.1102C126.299 74.1102 125.897 74.0097 125.596 73.708C125.294 73.4063 125.193 73.1047 125.193 72.6019C125.193 72.0991 125.394 71.6969 125.696 71.3952C125.998 71.0935 126.501 70.993 127.104 70.8924H127.707V70.3896C127.707 70.088 127.607 69.8869 127.506 69.7863C127.406 69.6857 127.204 69.5852 126.903 69.5852C126.702 69.5852 126.501 69.6857 126.299 69.7863C126.098 69.8869 126.098 70.088 126.098 70.3896H125.294C125.294 70.088 125.394 69.8869 125.495 69.6857C125.596 69.4846 125.897 69.2835 126.098 69.183C126.4 69.0824 126.601 68.9818 126.903 68.9818C127.406 68.9818 127.808 69.0824 128.11 69.3841C128.411 69.6857 128.512 69.9874 128.512 70.4902V73.0041C128.512 73.4063 128.612 73.708 128.713 74.0097V74.1102H127.908V74.0097ZM126.802 73.4063C127.003 73.4063 127.204 73.3058 127.406 73.2052C127.607 73.1047 127.707 73.0041 127.808 72.803V71.5963H127.305C126.903 71.5963 126.601 71.6969 126.4 71.898C126.199 72.0991 126.098 72.3002 126.098 72.6019C126.098 72.9036 126.199 73.1047 126.299 73.2052C126.4 73.3058 126.601 73.4063 126.802 73.4063Z" fill="#FFDD00"/>
<path d="M130.724 74.0097H129.92V66.9707H130.724V74.0097Z" fill="#FFDD00"/>
<path d="M135.149 71.395V74.0095H134.345V67.2722H136.456C137.06 67.2722 137.563 67.4733 137.965 67.8755C138.367 68.2778 138.468 68.7806 138.468 69.3839C138.468 69.9872 138.266 70.49 137.965 70.8922C137.663 71.1939 137.16 71.395 136.557 71.395H135.149ZM135.149 70.6911H136.456C136.859 70.6911 137.16 70.5906 137.361 70.3895C137.563 70.1883 137.663 69.8867 137.663 69.3839C137.663 68.9817 137.563 68.68 137.361 68.3783C137.16 68.1772 136.859 67.9761 136.557 67.9761H135.25V70.6911H135.149Z" fill="#FFDD00"/>
<path d="M141.484 69.7862C141.383 69.7862 141.283 69.7862 141.082 69.7862C140.679 69.7862 140.378 69.9873 140.177 70.4901V74.0095H139.372V68.9817H140.177V69.4845C140.378 69.0823 140.679 68.8811 141.082 68.8811C141.182 68.8811 141.283 68.8811 141.383 68.9817L141.484 69.7862Z" fill="#FFDD00"/>
<path d="M143.193 67.6745C143.193 67.7751 143.193 67.9762 143.093 67.9762C142.992 68.0768 142.891 68.0768 142.791 68.0768C142.59 68.0768 142.489 68.0768 142.489 67.9762C142.389 67.8756 142.389 67.7751 142.389 67.6745C142.389 67.574 142.389 67.3729 142.489 67.3729C142.59 67.2723 142.69 67.2723 142.791 67.2723C142.992 67.2723 143.093 67.2723 143.093 67.3729C143.193 67.4734 143.193 67.574 143.193 67.6745ZM143.193 74.0096H142.389V68.9818H143.193V74.0096Z" fill="#FFDD00"/>
<path d="M145.807 72.8029L146.712 69.0823H147.517L146.008 74.1102H145.405L143.896 69.0823H144.701L145.807 72.8029Z" fill="#FFDD00"/>
<path d="M149.427 67.6744C149.427 67.775 149.427 67.9761 149.327 67.9761C149.226 68.0766 149.126 68.0766 149.025 68.0766C148.824 68.0766 148.724 68.0766 148.724 67.9761C148.623 67.8755 148.623 67.775 148.623 67.6744C148.623 67.5739 148.623 67.3727 148.724 67.3727C148.824 67.2722 148.925 67.2722 149.025 67.2722C149.226 67.2722 149.327 67.2722 149.327 67.3727C149.327 67.4733 149.427 67.5739 149.427 67.6744ZM149.327 74.0095H148.522V68.9816H149.327V74.0095Z" fill="#FFDD00"/>
<path d="M151.54 74.0096H150.735V66.9707H151.54V74.0096Z" fill="#FFDD00"/>
<path d="M154.554 74.1101C153.951 74.1101 153.448 73.909 153.146 73.5068C152.845 73.1046 152.644 72.6018 152.644 71.8979V71.2946C152.644 70.5907 152.845 69.9873 153.146 69.5851C153.448 69.1829 153.951 68.9818 154.454 68.9818C155.057 68.9818 155.459 69.1829 155.761 69.5851C156.062 69.9873 156.163 70.4901 156.163 71.2946V71.7973H153.347V71.8979C153.347 72.4007 153.448 72.8029 153.649 73.1046C153.85 73.3057 154.152 73.5068 154.554 73.5068C154.755 73.5068 154.956 73.5068 155.157 73.4063C155.359 73.3057 155.56 73.2051 155.66 73.004L156.062 73.5068C155.861 73.8085 155.258 74.1101 154.554 74.1101ZM154.454 69.6857C154.152 69.6857 153.85 69.7862 153.75 69.9873C153.549 70.1884 153.448 70.5907 153.448 71.0934H155.359V70.9929C155.359 70.4901 155.258 70.1884 155.057 69.9873C154.956 69.7862 154.755 69.6857 154.454 69.6857Z" fill="#FFDD00"/>
<path d="M157.07 71.2947C157.07 70.4902 157.171 69.8869 157.472 69.5852C157.774 69.183 158.176 68.9818 158.679 68.9818C159.182 68.9818 159.584 69.183 159.785 69.5852V68.9818H160.489V74.0097C160.489 74.613 160.288 75.1158 159.986 75.4175C159.685 75.7191 159.182 75.9203 158.679 75.9203C158.478 75.9203 158.176 75.8197 157.875 75.7192C157.573 75.6186 157.372 75.4175 157.171 75.3169L157.472 74.7136C157.774 75.0153 158.176 75.2164 158.579 75.2164C159.283 75.2164 159.584 74.8141 159.584 74.1102V73.5069C159.283 73.9091 158.981 74.1102 158.478 74.1102C157.975 74.1102 157.573 73.9091 157.271 73.5069C156.97 73.1047 156.869 72.6019 156.869 71.7974V71.2947H157.07ZM157.875 71.7974C157.875 72.4008 157.975 72.803 158.076 73.0041C158.277 73.3058 158.478 73.4063 158.88 73.4063C159.283 73.4063 159.584 73.2052 159.785 72.803V70.2891C159.584 69.8869 159.283 69.6857 158.88 69.6857C158.478 69.6857 158.277 69.7863 158.076 70.088C157.875 70.3896 157.875 70.7919 157.774 71.2947V71.7974H157.875Z" fill="#FFDD00"/>
<path d="M163.606 74.11C163.003 74.11 162.5 73.9089 162.198 73.5067C161.896 73.1045 161.695 72.6017 161.695 71.8978V71.2944C161.695 70.5905 161.896 69.9872 162.198 69.585C162.5 69.1827 163.003 68.9816 163.505 68.9816C164.109 68.9816 164.511 69.1827 164.813 69.585C165.114 69.9872 165.215 70.49 165.215 71.2944V71.7972H162.399V71.8978C162.399 72.4006 162.5 72.8028 162.701 73.1045C162.902 73.3056 163.204 73.5067 163.606 73.5067C163.807 73.5067 164.008 73.5067 164.209 73.4061C164.41 73.3056 164.611 73.205 164.712 73.0039L165.114 73.5067C164.913 73.8084 164.31 74.11 163.606 74.11ZM163.505 69.6855C163.204 69.6855 162.902 69.7861 162.801 69.9872C162.6 70.1883 162.5 70.5905 162.5 71.0933H164.41V70.9928C164.41 70.49 164.31 70.1883 164.109 69.9872C164.109 69.7861 163.807 69.6855 163.505 69.6855Z" fill="#FFDD00"/>
<path d="M101.964 52.1889H99.4504V51.6861C99.4504 51.1833 99.3498 50.7811 99.0481 50.4794C98.7465 50.1777 98.3442 49.9766 97.6403 49.9766C97.3387 49.9766 97.037 50.0772 96.8359 50.1777C96.6348 50.2783 96.4337 50.3788 96.3331 50.5799C96.2326 50.7811 96.132 50.9822 96.0314 51.1833C96.0314 51.3844 95.9309 51.5855 95.9309 51.8872C95.9309 52.1889 95.9309 52.39 95.9309 52.5911C95.9309 52.7922 96.0314 52.8928 96.132 53.0939C96.2325 53.1944 96.3331 53.3955 96.5342 53.4961C96.7353 53.5966 96.9365 53.6972 97.3387 53.7978L99.2492 54.4011C99.8526 54.6022 100.255 54.8033 100.657 55.0044C100.959 55.2056 101.26 55.5072 101.462 55.8089C101.663 56.1106 101.763 56.5128 101.864 56.915C101.964 57.3172 101.964 57.82 101.964 58.3228C101.964 58.9262 101.864 59.4289 101.763 59.9317C101.663 60.4345 101.361 60.8367 101.059 61.239C100.758 61.6412 100.255 61.9429 99.6515 62.144C99.0481 62.3451 98.4448 62.4456 97.6403 62.4456C97.037 62.4456 96.4337 62.3451 95.9309 62.144C95.4281 61.9429 94.9253 61.7417 94.5231 61.4401C94.1209 61.1384 93.8192 60.7362 93.6181 60.334C93.417 59.9317 93.3164 59.5295 93.3164 59.0267V58.3228H95.8303V58.9262C95.8303 59.3284 95.9309 59.6301 96.2325 59.9317C96.5342 60.2334 96.9364 60.334 97.6403 60.334C98.0426 60.334 98.4448 60.334 98.6459 60.2334C98.847 60.1328 99.0481 60.0323 99.2492 59.8312C99.3498 59.6301 99.4504 59.4289 99.4504 59.1273C99.4504 58.8256 99.4504 58.6245 99.4504 58.2223C99.4504 57.82 99.4504 57.5184 99.4504 57.3173C99.4504 57.1161 99.3498 56.915 99.2492 56.7139C99.1487 56.6134 98.9476 56.4122 98.7465 56.3117C98.5454 56.2111 98.3442 56.1106 97.942 56.01L96.132 55.4067C95.0259 55.0044 94.322 54.6022 93.9197 53.9989C93.5175 53.3955 93.3164 52.6916 93.3164 51.7866C93.3164 51.2838 93.417 50.7811 93.6181 50.2783C93.8192 49.7755 94.1209 49.3733 94.4225 49.0716C94.7242 48.7699 95.227 48.4683 95.7298 48.2671C96.2325 48.066 96.9364 47.9655 97.6403 47.9655C98.2437 47.9655 98.847 48.066 99.3498 48.2671C99.8526 48.4683 100.355 48.6694 100.657 48.971C101.462 49.5744 101.763 50.2783 101.763 51.1833V52.1889H101.964Z" fill="white"/>
<path d="M106.79 62.2445V50.0771H103.874V48.1666H112.22V50.0771H109.304V62.2445H106.79Z" fill="white"/>
<path d="M114.132 51.4851C114.132 50.8818 114.232 50.379 114.534 49.9768C114.735 49.5745 115.137 49.1723 115.54 48.8706C115.942 48.569 116.344 48.3678 116.847 48.2673C117.35 48.1667 117.852 48.0662 118.355 48.0662C118.858 48.0662 119.361 48.1667 119.864 48.2673C120.366 48.3678 120.869 48.6695 121.271 48.8706C121.674 49.1723 121.975 49.474 122.277 49.9768C122.478 50.379 122.679 50.8818 122.679 51.4851V58.9263C122.679 59.5297 122.579 60.0324 122.277 60.4347C122.076 60.8369 121.674 61.2391 121.271 61.4402C120.869 61.7419 120.366 61.943 119.864 62.0436C119.361 62.1441 118.858 62.2447 118.355 62.2447C117.852 62.2447 117.35 62.1441 116.847 62.0436C116.344 61.943 115.841 61.6413 115.54 61.4402C115.137 61.1386 114.836 60.8369 114.534 60.4347C114.333 60.0324 114.132 59.5297 114.132 58.9263V51.4851ZM116.746 58.9263C116.746 59.4291 116.947 59.7308 117.249 60.0324C117.551 60.2336 117.953 60.3341 118.456 60.3341C118.959 60.3341 119.361 60.2336 119.662 60.0324C119.964 59.8313 120.165 59.4291 120.165 58.9263V51.4851C120.165 50.9823 119.964 50.6807 119.662 50.379C119.361 50.1779 118.959 50.0773 118.456 50.0773C117.953 50.0773 117.551 50.1779 117.249 50.379C116.947 50.5801 116.746 50.9823 116.746 51.4851V58.9263Z" fill="white"/>
<path d="M126.097 62.2446V48.1667H130.22C133.236 48.1667 134.644 49.5744 134.644 52.2895C134.644 53.0939 134.443 53.7978 134.141 54.4012C133.84 55.0045 133.236 55.4067 132.432 55.809L135.147 62.2446H132.432L130.119 56.2112H128.711V62.2446H126.097ZM128.711 50.0772V54.5017H130.119C130.521 54.5017 130.923 54.5017 131.225 54.4012C131.527 54.3006 131.728 54.2001 131.828 53.9989C131.929 53.7978 132.03 53.5967 132.13 53.2951C132.13 52.9934 132.231 52.6917 132.231 52.39C132.231 52.0884 132.231 51.6861 132.13 51.485C132.13 51.1834 132.03 50.9822 131.828 50.7811C131.527 50.3789 130.923 50.2783 130.018 50.2783H128.711V50.0772Z" fill="white"/>
<path d="M137.963 62.2444V48.1665H140.477V60.2333H145.505V62.2444H137.963Z" fill="white"/>
<path d="M148.422 62.2447V48.1668H155.964V50.0774H150.936V54.2002H155.26V56.1108H150.936V60.2336H155.964V62.2447H148.422Z" fill="white"/>
<path d="M160.488 62.2446V50.0772H157.572V48.1667H165.918V50.0772H163.002V62.2446H160.488Z" fill="white"/>
<path d="M81.9535 53.1946C82.4563 54.0996 82.758 55.1052 82.758 56.2113V68.077C82.758 70.1887 81.6518 71.9987 79.8418 73.1048L69.4845 79.0377C67.6745 80.0433 65.5628 80.0433 63.7527 79.0377L53.3954 73.1048C53.1943 73.0043 53.0937 72.9037 52.9932 72.8032C53.4959 73.6076 54.1998 74.3115 55.0043 74.8143L65.3616 80.7472C67.1717 81.7527 69.2834 81.7527 71.0934 80.7472L81.4507 74.8143C83.2608 73.8088 84.3669 71.8982 84.3669 69.7865V57.9208C84.4674 56.0102 83.4619 54.2002 81.9535 53.1946Z" fill="#FFDD00"/>
<path d="M77.5288 49.1722L67.4731 43.3399C65.6631 42.3343 63.5514 42.3343 61.7414 43.3399L51.6857 49.1722C49.8757 50.1778 48.7695 52.0883 48.7695 54.2V65.7641C48.7695 67.8758 49.8757 69.6858 51.6857 70.7919L61.7414 76.6242C63.5514 77.6298 65.6631 77.6298 67.4731 76.6242L77.5288 70.7919C79.3388 69.7863 80.4449 67.8758 80.4449 65.7641V54.0995C80.3444 52.0883 79.2382 50.1778 77.5288 49.1722ZM73.0037 64.6579C72.702 65.3618 72.2998 65.9652 71.5959 66.5685C70.9926 67.1719 70.0876 67.5741 68.9814 67.8758C67.8753 68.1774 66.5681 68.3785 64.9592 68.3785C61.6408 68.3785 59.0263 67.5741 58.423 67.373C57.8196 67.1719 56.7135 66.8702 56.4118 66.6691H56.3113L57.518 62.8479C57.9202 63.1496 61.0375 64.0546 61.8419 64.2557C62.6464 64.4568 64.1547 64.6579 64.9592 64.6579C66.4675 64.6579 67.4731 64.4568 68.177 64.1552C69.6853 63.4513 69.1826 62.2446 68.2775 62.0435C67.6742 61.9429 66.8698 61.7418 65.9647 61.6412C65.0597 61.5407 64.0542 61.4401 63.0486 61.3396C62.043 61.239 61.0375 61.0379 60.1324 60.6357C59.2274 60.334 58.423 59.8312 57.8196 59.2279C57.2163 58.6245 56.9146 57.8201 56.9146 56.714C56.9146 55.9095 57.1157 55.105 57.4174 54.4011C57.7191 53.6972 58.2219 52.7922 60.7358 51.9878C61.6408 51.6861 62.6464 51.5856 63.7525 51.5856C64.7581 51.5856 65.6631 51.6861 66.5681 51.7867C67.4731 51.8872 68.177 52.0883 68.8809 52.2895C70.4898 52.6917 71.2943 53.0939 71.2943 53.0939C71.2943 53.0939 70.2887 56.2112 70.1881 56.2112C69.7859 56.0101 68.7803 55.7084 68.2775 55.5073C67.6742 55.3062 66.9703 55.2056 66.2664 55.105C65.5625 55.0045 64.8586 54.9039 64.1547 54.9039C63.3503 54.9039 62.6464 54.9039 62.1436 55.105C60.7358 55.6078 61.2386 56.5128 61.6408 56.8145C61.9425 57.0156 63.3503 57.3173 64.9592 57.4178C65.6631 57.5184 66.4675 57.5184 67.272 57.619C68.0764 57.7195 68.7803 57.8201 69.5848 58.1217C72.702 59.1273 73.6071 60.5351 73.6071 62.3451C73.4059 63.2501 73.2048 63.954 73.0037 64.6579Z" fill="#FFDD00"/>
<path d="M287.19 49.2729C287.894 49.7757 288.397 50.4796 288.598 51.3846H287.09C286.889 50.8818 286.587 50.4796 286.084 50.1779C285.682 49.8762 285.079 49.6751 284.475 49.6751C283.973 49.6751 283.47 49.7757 283.168 50.0773C282.766 50.2785 282.464 50.6807 282.263 51.1835C282.062 51.6863 281.961 52.189 281.961 52.7924C281.961 53.3957 282.062 53.8985 282.263 54.4013C282.464 54.9041 282.766 55.2057 283.168 55.5074C283.57 55.7085 283.973 55.9096 284.475 55.9096C285.079 55.9096 285.682 55.8091 286.084 55.5074C286.487 55.2057 286.889 54.8035 287.09 54.3007H288.598C288.397 55.2057 287.894 55.9096 287.19 56.4124C286.487 56.9152 285.582 57.2169 284.576 57.2169C283.772 57.2169 283.068 57.0158 282.464 56.7141C281.861 56.3119 281.358 55.8091 281.056 55.2057C280.755 54.5018 280.554 53.7979 280.554 52.9935C280.554 52.189 280.755 51.3846 281.056 50.7812C281.358 50.0773 281.861 49.5746 282.464 49.2729C283.068 48.8707 283.772 48.6695 284.576 48.6695C285.682 48.569 286.487 48.7701 287.19 49.2729Z" fill="white"/>
<path d="M294.228 50.8816C294.63 51.1833 294.932 51.5855 295.133 52.0883V50.58H296.541V57.2167H295.133V55.7084C294.932 56.2111 294.63 56.6134 294.228 56.915C293.826 57.2167 293.323 57.3173 292.72 57.3173C292.116 57.3173 291.614 57.2167 291.211 56.915C290.709 56.6134 290.407 56.2111 290.105 55.7084C289.804 55.2056 289.703 54.6022 289.703 53.8983C289.703 53.1944 289.804 52.5911 290.105 52.0883C290.407 51.5855 290.709 51.1833 291.211 50.8816C291.714 50.58 292.217 50.4794 292.72 50.4794C293.223 50.3788 293.725 50.58 294.228 50.8816ZM291.614 52.1889C291.211 52.5911 291.111 53.0939 291.111 53.7978C291.111 54.5017 291.312 55.0045 291.614 55.4067C292.016 55.8089 292.418 56.01 293.122 56.01C293.524 56.01 293.826 55.9095 294.128 55.7084C294.429 55.5072 294.63 55.3061 294.832 54.9039C295.033 54.6022 295.133 54.2 295.133 53.6972C295.133 53.295 295.033 52.8928 294.832 52.5911C294.63 52.2894 294.429 51.9878 294.128 51.7866C293.826 51.5855 293.524 51.485 293.122 51.485C292.418 51.5855 291.915 51.7866 291.614 52.1889Z" fill="white"/>
<path d="M300.464 50.7812C300.866 50.4795 301.369 50.379 301.872 50.379V51.8873H301.47C300.866 51.8873 300.364 51.9879 300.062 52.2895C299.66 52.5912 299.559 53.094 299.559 53.6973V57.0157H298.151V50.379H299.559V51.6862C299.76 51.3845 300.062 50.9823 300.464 50.7812Z" fill="white"/>
<path d="M308.106 50.7812C308.508 50.4796 309.011 50.379 309.514 50.379V51.8873H309.111C308.508 51.8873 308.005 51.9879 307.704 52.2896C307.301 52.5912 307.201 53.094 307.201 53.6974V57.0157H305.793V50.379H307.201V51.6862C307.402 51.3846 307.704 50.9823 308.106 50.7812Z" fill="white"/>
<path d="M316.653 54.0997H311.525C311.525 54.8036 311.726 55.3064 312.128 55.608C312.531 55.9097 312.933 56.1108 313.436 56.1108C313.938 56.1108 314.24 56.0103 314.642 55.8092C314.944 55.608 315.145 55.3064 315.246 54.9041H316.754C316.653 55.4069 316.452 55.8092 316.151 56.1108C315.849 56.5131 315.547 56.7142 315.044 56.9153C314.642 57.1164 314.139 57.217 313.536 57.217C312.933 57.217 312.329 57.1164 311.827 56.8147C311.324 56.5131 310.922 56.1108 310.62 55.608C310.318 55.1053 310.218 54.5019 310.218 53.798C310.218 53.0941 310.318 52.4908 310.62 51.988C310.922 51.4852 311.324 51.083 311.827 50.7813C312.329 50.4796 312.933 50.3791 313.536 50.3791C314.139 50.3791 314.743 50.4796 315.246 50.7813C315.748 51.083 316.151 51.3847 316.352 51.8874C316.653 52.3902 316.754 52.893 316.754 53.4964C316.754 53.6975 316.754 53.8986 316.653 54.0997ZM315.145 52.3902C314.944 52.0886 314.743 51.8874 314.441 51.7869C314.14 51.6863 313.838 51.5858 313.536 51.5858C313.033 51.5858 312.531 51.7869 312.229 52.0886C311.827 52.3902 311.626 52.893 311.626 53.5969H315.447C315.346 52.9936 315.346 52.6919 315.145 52.3902Z" fill="white"/>
<path d="M323.692 51.0829C324.195 51.5857 324.396 52.2896 324.396 53.1946V57.1163H322.988V53.3957C322.988 52.7924 322.787 52.3902 322.485 51.9879C322.183 51.6863 321.781 51.4851 321.278 51.4851C320.776 51.4851 320.273 51.6863 319.971 51.9879C319.669 52.2896 319.468 52.8929 319.468 53.4963V57.0158H318.061V50.379H319.468V51.8874C319.669 51.3846 319.971 50.9824 320.373 50.6807C320.776 50.379 321.278 50.2785 321.781 50.2785C322.586 50.379 323.189 50.5801 323.692 51.0829Z" fill="white"/>
<path d="M329.324 55.9097V57.1164H328.52C327.816 57.1164 327.313 56.9153 326.911 56.6136C326.508 56.3119 326.408 55.7086 326.408 54.9041V51.6863H325.503V50.4797H326.408V48.8707H327.816V50.4797H329.425V51.6863H327.816V55.0047C327.816 55.4069 327.916 55.608 328.017 55.8092C328.117 56.0103 328.419 56.0103 328.721 56.0103H329.324V55.9097Z" fill="white"/>
<path d="M334.755 50.8818C335.157 51.1835 335.458 51.5857 335.66 52.0885V50.5802H337.067V57.2169H335.66V55.7086C335.458 56.2113 335.157 56.6136 334.755 56.9152C334.352 57.2169 333.85 57.3175 333.246 57.3175C332.643 57.3175 332.14 57.2169 331.738 56.9152C331.235 56.6136 330.933 56.2113 330.632 55.7086C330.33 55.2058 330.229 54.6024 330.229 53.8985C330.229 53.1946 330.33 52.5913 330.632 52.0885C330.933 51.5857 331.235 51.1835 331.738 50.8818C332.241 50.5802 332.743 50.4796 333.246 50.4796C333.85 50.379 334.352 50.5802 334.755 50.8818ZM332.241 52.1891C331.838 52.5913 331.738 53.0941 331.738 53.798C331.738 54.5019 331.939 55.0047 332.241 55.4069C332.643 55.8091 333.045 56.0102 333.749 56.0102C334.151 56.0102 334.453 55.9097 334.755 55.7086C335.056 55.5074 335.257 55.3063 335.458 54.9041C335.66 54.6024 335.76 54.2002 335.76 53.6974C335.76 53.2952 335.66 52.893 335.458 52.5913C335.257 52.2896 335.056 51.988 334.755 51.7868C334.453 51.5857 334.151 51.4852 333.749 51.4852C333.045 51.5857 332.542 51.7868 332.241 52.1891Z" fill="white"/>
<path d="M340.083 48.1667V57.1163H338.675V48.1667H340.083Z" fill="white"/>
<path d="M353.96 50.4796L352.15 57.1164H350.642L349.033 51.988L347.323 57.1164H345.815L344.005 50.4796H345.413L346.72 55.9097L348.429 50.4796H349.837L351.547 55.9097L352.854 50.4796H353.96Z" fill="white"/>
<path d="M359.59 50.7812C360.093 51.0829 360.495 51.4851 360.797 51.9879C361.099 52.4906 361.199 53.094 361.199 53.7979C361.199 54.5018 361.099 55.1051 360.797 55.6079C360.495 56.1107 360.093 56.5129 359.59 56.8146C359.088 57.1163 358.484 57.2168 357.881 57.2168C357.278 57.2168 356.674 57.1163 356.171 56.8146C355.669 56.5129 355.266 56.1107 354.965 55.6079C354.663 55.1051 354.562 54.5018 354.562 53.7979C354.562 53.094 354.663 52.4906 354.965 51.9879C355.266 51.4851 355.669 51.0829 356.171 50.7812C356.674 50.4795 357.278 50.379 357.881 50.379C358.585 50.379 359.088 50.5801 359.59 50.7812ZM356.875 51.7867C356.574 51.9879 356.373 52.189 356.171 52.4906C355.97 52.7923 355.97 53.2951 355.97 53.7979C355.97 54.3007 356.071 54.7029 356.272 55.0046C356.473 55.3062 356.674 55.6079 356.976 55.7085C357.278 55.809 357.579 55.9096 357.981 55.9096C358.384 55.9096 358.685 55.809 358.987 55.7085C359.289 55.6079 359.49 55.3062 359.691 55.0046C359.892 54.7029 359.993 54.3007 359.993 53.7979C359.993 53.2951 359.892 52.8929 359.691 52.5912C359.49 52.2895 359.289 51.9879 358.987 51.8873C358.685 51.6862 358.384 51.6862 357.981 51.6862C357.579 51.5856 357.177 51.6862 356.875 51.7867Z" fill="white"/>
<path d="M364.922 50.7813C365.324 50.4796 365.827 50.3791 366.33 50.3791V51.8874H366.028C365.425 51.8874 364.922 51.988 364.621 52.2897C364.218 52.5913 364.118 53.0941 364.118 53.6975V57.0158H362.71V50.3791H364.118V51.6863C364.218 51.3846 364.52 50.9824 364.922 50.7813Z" fill="white"/>
<path d="M368.742 48.1668V57.1163H367.334V48.1668H368.742Z" fill="white"/>
<path d="M374.674 50.8819C375.077 51.1836 375.378 51.5858 375.579 52.0886V48.2674H376.987V57.217H375.579V55.7086C375.378 56.2114 375.077 56.6136 374.674 56.9153C374.272 57.217 373.769 57.3175 373.166 57.3175C372.563 57.3175 372.06 57.217 371.658 56.9153C371.155 56.6136 370.853 56.2114 370.552 55.7086C370.25 55.2058 370.149 54.6025 370.149 53.8986C370.149 53.1947 370.25 52.5914 370.552 52.0886C370.853 51.5858 371.155 51.1836 371.658 50.8819C372.161 50.5802 372.663 50.4797 373.166 50.4797C373.769 50.3791 374.272 50.5802 374.674 50.8819ZM372.06 52.1891C371.658 52.5914 371.557 53.0942 371.557 53.798C371.557 54.5019 371.758 55.0047 372.06 55.407C372.462 55.8092 372.864 56.0103 373.568 56.0103C373.971 56.0103 374.272 55.9097 374.574 55.7086C374.876 55.5075 375.077 55.3064 375.278 54.9042C375.479 54.6025 375.579 54.2003 375.579 53.6975C375.579 53.2953 375.479 52.893 375.278 52.5914C375.077 52.2897 374.876 51.988 374.574 51.7869C374.272 51.5858 373.971 51.4852 373.568 51.4852C372.965 51.5858 372.462 51.7869 372.06 52.1891Z" fill="white"/>
<path d="M387.948 50.4795L386.138 57.1163H384.63L383.021 51.9879L381.312 57.1163H379.803L377.993 50.4795H379.401L380.708 55.9096L382.418 50.4795H383.825L385.535 55.9096L386.842 50.4795H387.948Z" fill="white"/>
<path d="M388.953 47.9657C389.155 47.7646 389.356 47.7646 389.557 47.7646C389.858 47.7646 390.06 47.8651 390.16 47.9657C390.261 48.0662 390.361 48.2674 390.361 48.569C390.361 48.7701 390.261 48.9713 390.16 49.1724C389.959 49.2729 389.758 49.3735 389.557 49.3735C389.255 49.3735 389.054 49.2729 388.953 49.1724C388.752 49.0718 388.752 48.8707 388.752 48.569C388.652 48.2674 388.752 48.1668 388.953 47.9657ZM390.261 50.4796V57.1164H388.853V50.4796H390.261Z" fill="white"/>
<path d="M396.094 50.8816C396.497 51.1833 396.798 51.5855 396.999 52.0883V48.2671H398.407V57.2167H396.999V55.7083C396.798 56.2111 396.497 56.6133 396.094 56.915C395.692 57.2167 395.189 57.3172 394.586 57.3172C393.983 57.3172 393.48 57.2167 393.078 56.915C392.575 56.6133 392.273 56.2111 391.972 55.7083C391.67 55.2055 391.569 54.6022 391.569 53.8983C391.569 53.1944 391.67 52.5911 391.972 52.0883C392.273 51.5855 392.575 51.1833 393.078 50.8816C393.58 50.5799 394.083 50.4794 394.586 50.4794C395.189 50.3788 395.692 50.5799 396.094 50.8816ZM393.48 52.1888C393.078 52.5911 392.977 53.0938 392.977 53.7977C392.977 54.5016 393.178 55.0044 393.48 55.4067C393.882 55.8089 394.284 56.01 394.988 56.01C395.39 56.01 395.692 55.9094 395.994 55.7083C396.295 55.5072 396.497 55.3061 396.698 54.9039C396.899 54.6022 396.999 54.2 396.999 53.6972C396.999 53.295 396.899 52.8927 396.698 52.5911C396.497 52.2894 396.295 51.9877 395.994 51.7866C395.692 51.5855 395.39 51.4849 394.988 51.4849C394.385 51.5855 393.882 51.7866 393.48 52.1888Z" fill="white"/>
<path d="M406.149 54.0995H401.021C401.021 54.8034 401.222 55.3062 401.624 55.6078C402.027 55.9095 402.429 56.1106 402.932 56.1106C403.434 56.1106 403.736 56.0101 404.138 55.809C404.44 55.6078 404.641 55.3062 404.742 54.9039H406.25C406.15 55.4067 405.948 55.809 405.647 56.1106C405.345 56.5129 405.043 56.714 404.541 56.9151C404.138 57.1162 403.636 57.2168 403.032 57.2168C402.429 57.2168 401.826 57.1162 401.323 56.8145C400.82 56.5129 400.418 56.1106 400.116 55.6078C399.814 55.1051 399.714 54.5017 399.714 53.7978C399.714 53.0939 399.814 52.4906 400.116 51.9878C400.418 51.485 400.82 51.0828 401.323 50.7811C401.826 50.4794 402.429 50.3789 403.032 50.3789C403.636 50.3789 404.239 50.4794 404.742 50.7811C405.244 51.0828 405.647 51.3845 405.848 51.8872C406.15 52.39 406.25 52.8928 406.25 53.4962C406.25 53.6973 406.25 53.8984 406.149 54.0995ZM404.641 52.39C404.44 52.0884 404.239 51.8872 403.937 51.7867C403.636 51.6861 403.334 51.5856 403.032 51.5856C402.529 51.5856 402.027 51.7867 401.725 52.0884C401.323 52.39 401.122 52.8928 401.122 53.5967H404.943C404.842 52.9934 404.742 52.6917 404.641 52.39Z" fill="white"/>
<path d="M321.68 244.252V247.571H320.272V239.023H323.189C324.194 239.023 324.898 239.224 325.401 239.727C325.904 240.23 326.105 240.833 326.105 241.638C326.105 242.442 325.803 243.046 325.3 243.548C324.798 244.051 324.094 244.252 323.088 244.252H321.68ZM324.798 241.638C324.798 241.135 324.697 240.833 324.395 240.532C324.094 240.23 323.691 240.129 323.088 240.129H321.68V243.046H323.088C324.194 243.046 324.798 242.543 324.798 241.638Z" fill="white"/>
<path d="M328.819 238.621V247.571H327.411V238.621H328.819Z" fill="white"/>
<path d="M334.651 241.236C335.053 241.537 335.355 241.939 335.556 242.442V240.934H336.964V247.571H335.556V246.062C335.355 246.565 335.053 246.967 334.651 247.269C334.249 247.571 333.746 247.671 333.143 247.671C332.539 247.671 332.037 247.571 331.634 247.269C331.132 246.967 330.83 246.565 330.528 246.062C330.227 245.559 330.126 244.956 330.126 244.252C330.126 243.548 330.227 242.945 330.528 242.442C330.83 241.939 331.132 241.537 331.634 241.236C332.137 240.934 332.64 240.833 333.143 240.833C333.746 240.733 334.249 240.934 334.651 241.236ZM332.037 242.543C331.634 242.945 331.534 243.448 331.534 244.152C331.534 244.856 331.735 245.358 332.037 245.761C332.439 246.163 332.841 246.364 333.545 246.364C333.947 246.364 334.249 246.263 334.55 246.062C334.852 245.861 335.053 245.66 335.254 245.258C335.455 244.956 335.556 244.554 335.556 244.051C335.556 243.649 335.455 243.247 335.254 242.945C335.053 242.643 334.852 242.342 334.55 242.141C334.249 241.939 333.947 241.839 333.545 241.839C332.942 241.939 332.439 242.141 332.037 242.543Z" fill="white"/>
<path d="M341.892 246.364V247.571H341.088C340.384 247.571 339.881 247.37 339.479 247.068C339.077 246.766 338.976 246.163 338.976 245.358V242.141H338.071V240.934H338.976V239.325H340.384V240.934H341.993V242.141H340.384V245.459C340.384 245.861 340.485 246.062 340.585 246.263C340.686 246.465 340.987 246.465 341.289 246.465H341.892V246.364Z" fill="white"/>
<path d="M343.3 238.319C343.501 238.118 343.702 238.118 343.903 238.118C344.205 238.118 344.406 238.219 344.507 238.319C344.607 238.42 344.708 238.621 344.708 238.923C344.708 239.124 344.607 239.325 344.507 239.526C344.306 239.627 344.105 239.727 343.903 239.727C343.602 239.727 343.401 239.627 343.3 239.526C343.099 239.426 343.099 239.224 343.099 238.923C342.998 238.722 343.099 238.521 343.3 238.319ZM344.607 240.833V247.47H343.2V240.833H344.607Z" fill="white"/>
<path d="M351.847 241.537C352.35 242.04 352.551 242.744 352.551 243.649V247.571H351.143V243.85C351.143 243.247 350.942 242.845 350.64 242.442C350.339 242.141 349.936 241.94 349.434 241.94C348.931 241.94 348.428 242.141 348.126 242.442C347.825 242.744 347.624 243.347 347.624 243.951V247.47H346.216V240.833H347.624V242.342C347.825 241.839 348.126 241.437 348.529 241.135C348.931 240.833 349.434 240.733 349.936 240.733C350.741 240.733 351.344 241.035 351.847 241.537Z" fill="white"/>
<path d="M360.294 240.833V247.47H358.886V246.062C358.685 246.565 358.383 246.967 357.981 247.168C357.579 247.47 357.076 247.571 356.473 247.571C355.668 247.571 355.065 247.37 354.663 246.867C354.261 246.364 353.959 245.66 353.959 244.755V240.934H355.367V244.654C355.367 245.258 355.568 245.761 355.87 246.062C356.171 246.364 356.573 246.565 357.076 246.565C357.579 246.565 358.082 246.364 358.383 246.062C358.685 245.761 358.886 245.157 358.886 244.554V241.034H360.294V240.833Z" fill="white"/>
<path d="M372.159 241.537C372.662 242.04 372.863 242.744 372.863 243.649V247.571H371.455V243.85C371.455 243.247 371.355 242.845 371.053 242.543C370.751 242.241 370.349 242.04 369.846 242.04C369.344 242.04 368.841 242.241 368.539 242.543C368.237 242.845 368.036 243.347 368.036 244.051V247.571H366.629V243.85C366.629 243.247 366.528 242.845 366.226 242.543C365.925 242.241 365.522 242.04 365.02 242.04C364.517 242.04 364.014 242.241 363.712 242.543C363.411 242.845 363.21 243.347 363.21 244.051V247.571H361.802V240.934H363.21V242.342C363.411 241.839 363.612 241.537 364.014 241.236C364.416 240.934 364.919 240.833 365.422 240.833C366.025 240.833 366.427 240.934 366.83 241.236C367.232 241.537 367.534 241.94 367.735 242.442C367.936 241.94 368.237 241.537 368.64 241.236C369.042 240.934 369.545 240.833 370.047 240.833C371.053 240.733 371.656 241.035 372.159 241.537Z" fill="white"/>
<path d="M383.624 239.727C384.328 240.23 384.831 240.934 385.032 241.839H383.523C383.322 241.336 383.021 240.934 382.518 240.632C382.116 240.331 381.512 240.13 380.909 240.13C380.406 240.13 379.903 240.23 379.602 240.532C379.2 240.733 378.898 241.135 378.697 241.638C378.496 242.141 378.395 242.644 378.395 243.247C378.395 243.85 378.496 244.353 378.697 244.856C378.898 245.359 379.2 245.66 379.602 245.962C380.004 246.163 380.406 246.364 380.909 246.364C381.512 246.364 382.116 246.264 382.518 245.962C382.92 245.66 383.322 245.258 383.523 244.755H385.032C384.831 245.66 384.328 246.364 383.624 246.867C382.92 247.37 382.015 247.671 381.01 247.671C380.205 247.671 379.501 247.47 378.898 247.169C378.295 246.766 377.792 246.264 377.49 245.66C377.188 244.956 376.987 244.252 376.987 243.448C376.987 242.644 377.188 241.839 377.49 241.236C377.792 240.532 378.295 240.029 378.898 239.727C379.501 239.325 380.205 239.124 381.01 239.124C382.116 238.923 383.021 239.124 383.624 239.727Z" fill="white"/>
<path d="M390.662 241.236C391.064 241.537 391.366 241.939 391.567 242.442V240.934H392.975V247.571H391.567V246.062C391.366 246.565 391.064 246.967 390.662 247.269C390.26 247.571 389.757 247.671 389.153 247.671C388.55 247.671 388.047 247.571 387.645 247.269C387.142 246.967 386.841 246.565 386.539 246.062C386.237 245.559 386.137 244.956 386.137 244.252C386.137 243.548 386.237 242.945 386.539 242.442C386.841 241.939 387.142 241.537 387.645 241.236C388.148 240.934 388.651 240.833 389.153 240.833C389.757 240.733 390.26 240.934 390.662 241.236ZM388.047 242.543C387.645 242.945 387.545 243.448 387.545 244.152C387.545 244.856 387.746 245.358 388.047 245.761C388.45 246.163 388.852 246.364 389.556 246.364C389.958 246.364 390.26 246.263 390.561 246.062C390.863 245.861 391.064 245.66 391.265 245.258C391.466 244.956 391.567 244.554 391.567 244.051C391.567 243.649 391.466 243.247 391.265 242.945C391.064 242.643 390.863 242.342 390.561 242.141C390.26 241.939 389.958 241.839 389.556 241.839C388.952 241.939 388.45 242.141 388.047 242.543Z" fill="white"/>
<path d="M396.898 241.135C397.3 240.833 397.803 240.733 398.306 240.733V242.241H397.903C397.3 242.241 396.797 242.342 396.496 242.643C396.093 242.945 395.993 243.448 395.993 244.051V247.37H394.585V240.733H395.993V242.04C396.194 241.738 396.496 241.336 396.898 241.135Z" fill="white"/>
<path d="M403.634 241.236C404.037 241.537 404.338 241.94 404.539 242.442V238.621H405.947V247.571H404.539V246.062C404.338 246.565 404.037 246.967 403.634 247.269C403.232 247.571 402.729 247.671 402.126 247.671C401.523 247.671 401.02 247.571 400.618 247.269C400.115 246.967 399.813 246.565 399.512 246.062C399.21 245.56 399.109 244.956 399.109 244.252C399.109 243.549 399.21 242.945 399.512 242.442C399.813 241.94 400.115 241.537 400.618 241.236C401.121 240.934 401.623 240.834 402.126 240.834C402.629 240.733 403.232 240.934 403.634 241.236ZM401.02 242.543C400.618 242.945 400.517 243.448 400.517 244.152C400.517 244.856 400.718 245.359 401.02 245.761C401.422 246.163 401.824 246.364 402.528 246.364C402.931 246.364 403.232 246.264 403.534 246.062C403.836 245.861 404.037 245.66 404.238 245.258C404.439 244.956 404.539 244.554 404.539 244.051C404.539 243.649 404.439 243.247 404.238 242.945C404.037 242.644 403.836 242.342 403.534 242.141C403.232 241.94 402.931 241.839 402.528 241.839C401.925 241.94 401.422 242.141 401.02 242.543Z" fill="white"/>
<path d="M294.63 67.9762L292.82 74.6129H291.312L289.703 69.4845L287.993 74.6129H286.485L284.675 67.9762H286.083L287.39 73.4062L289.099 67.9762H290.507L292.217 73.4062L293.524 67.9762H294.63Z" fill="#FFDD00"/>
<path d="M304.886 67.9761L303.076 74.6128H301.567L299.958 69.4844L298.249 74.6128H296.64L294.83 67.9761H296.238L297.545 73.4062L299.255 67.9761H300.662L302.372 73.4062L303.679 67.9761H304.886Z" fill="#FFDD00"/>
<path d="M315.144 67.9761L313.334 74.6128H311.725L310.116 69.4844L308.406 74.6128H306.898L305.088 67.9761H306.496L307.803 73.4062L309.512 67.9761H310.92L312.63 73.4062L313.937 67.9761H315.144Z" fill="#FFDD00"/>
<path d="M317.155 73.1047V74.613H315.646V73.1047H317.155Z" fill="#FFDD00"/>
<path d="M322.385 68.4791C322.887 68.8814 323.189 69.3841 323.29 70.088H321.982C321.882 69.6858 321.781 69.4847 321.48 69.183C321.178 68.9819 320.876 68.8814 320.474 68.8814C320.172 68.8814 319.871 68.9819 319.669 69.0825C319.468 69.2836 319.368 69.4847 319.368 69.7864C319.368 69.9875 319.468 70.1886 319.569 70.2892C319.669 70.3897 319.871 70.4903 320.072 70.5908C320.273 70.6914 320.574 70.7919 320.977 70.7919C321.48 70.8925 321.882 70.9931 322.183 71.0936C322.485 71.1942 322.787 71.3953 322.988 71.697C323.189 71.9986 323.29 72.3003 323.29 72.8031C323.29 73.4064 323.088 73.8086 322.686 74.1103C322.284 74.412 321.681 74.6131 320.977 74.6131C320.172 74.6131 319.468 74.412 318.966 74.0098C318.463 73.6075 318.161 73.1047 318.061 72.4008H319.368C319.368 72.8031 319.569 73.1047 319.871 73.3059C320.172 73.507 320.474 73.6075 320.977 73.6075C321.278 73.6075 321.58 73.507 321.781 73.3059C321.982 73.1047 322.083 72.9036 322.083 72.602C322.083 72.4008 321.982 72.1997 321.882 71.9986C321.781 71.8981 321.58 71.7975 321.379 71.697C321.178 71.5964 320.876 71.4958 320.474 71.4958C319.971 71.3953 319.569 71.2947 319.267 71.1942C318.966 71.0936 318.664 70.8925 318.463 70.6914C318.262 70.3897 318.161 70.088 318.161 69.6858C318.161 69.0825 318.362 68.6802 318.764 68.278C319.167 67.9764 319.77 67.7752 320.474 67.7752C321.278 67.8758 321.982 68.0769 322.385 68.4791Z" fill="#FFDD00"/>
<path d="M328.015 73.4064V74.613H327.21C326.506 74.613 326.003 74.4119 325.601 74.1103C325.199 73.8086 325.098 73.2052 325.098 72.4008V69.183H324.193V67.9763H325.098V66.3674H326.506V67.9763H328.115V69.183H326.506V72.4008C326.506 72.803 326.607 73.0041 326.707 73.2053C326.808 73.4064 327.11 73.4064 327.411 73.4064H328.015Z" fill="#FFDD00"/>
<path d="M334.149 68.2779C334.652 68.5796 335.054 68.9818 335.356 69.4846C335.657 69.9873 335.758 70.5907 335.758 71.2946C335.758 71.9985 335.657 72.6018 335.356 73.1046C335.054 73.6074 334.652 74.0096 334.149 74.3113C333.646 74.613 333.043 74.7135 332.439 74.7135C331.836 74.7135 331.233 74.613 330.73 74.3113C330.227 74.0096 329.825 73.6074 329.523 73.1046C329.222 72.6018 329.121 71.9985 329.121 71.2946C329.121 70.5907 329.222 69.9873 329.523 69.4846C329.825 68.9818 330.227 68.5796 330.73 68.2779C331.233 67.9762 331.836 67.8757 332.439 67.8757C333.043 67.8757 333.646 67.9762 334.149 68.2779ZM331.434 69.2835C331.132 69.4846 330.931 69.6857 330.73 69.9873C330.529 70.289 330.428 70.6912 330.428 71.194C330.428 71.6968 330.529 72.099 330.73 72.4007C330.931 72.7024 331.132 73.004 331.434 73.1046C331.736 73.2052 332.037 73.3057 332.439 73.3057C332.842 73.3057 333.143 73.2052 333.445 73.1046C333.747 73.004 333.948 72.7024 334.149 72.4007C334.35 72.099 334.451 71.6968 334.451 71.194C334.451 70.6912 334.35 70.289 334.149 69.9873C333.948 69.6857 333.747 69.384 333.445 69.2835C333.143 69.0823 332.842 69.0823 332.439 69.0823C332.037 69.0823 331.736 69.0823 331.434 69.2835Z" fill="#FFDD00"/>
<path d="M339.478 68.1773C339.88 67.8756 340.383 67.775 340.886 67.775V69.2834H340.483C339.88 69.2834 339.377 69.3839 339.076 69.6856C338.673 69.9873 338.573 70.4901 338.573 71.0934V74.4118H337.165V67.775H338.573V69.0823C338.673 68.7806 338.975 68.4789 339.478 68.1773Z" fill="#FFDD00"/>
<path d="M343.301 65.6635V74.6131H341.894V65.6635H343.301Z" fill="#FFDD00"/>
<path d="M351.042 71.4957H345.914C345.914 72.1996 346.115 72.7024 346.517 73.004C346.919 73.3057 347.321 73.5068 347.824 73.5068C348.327 73.5068 348.629 73.4063 349.031 73.2052C349.333 73.004 349.534 72.7024 349.634 72.3001H351.143C351.042 72.8029 350.841 73.2051 350.539 73.5068C350.238 73.909 349.936 74.1102 349.433 74.3113C349.031 74.5124 348.528 74.6129 347.925 74.6129C347.321 74.6129 346.718 74.5124 346.215 74.2107C345.713 73.9091 345.31 73.5068 345.009 73.004C344.707 72.5013 344.606 71.8979 344.606 71.194C344.606 70.4901 344.707 69.8868 345.009 69.384C345.31 68.8812 345.713 68.479 346.215 68.1773C346.718 67.8756 347.321 67.7751 347.925 67.7751C348.528 67.7751 349.132 67.8756 349.634 68.1773C350.137 68.479 350.539 68.7807 350.74 69.2834C351.042 69.7862 351.143 70.289 351.143 70.8923C351.143 71.194 351.143 71.3951 351.042 71.4957ZM349.534 69.7862C349.333 69.4846 349.131 69.2834 348.83 69.1829C348.528 69.0823 348.226 68.9818 347.925 68.9818C347.422 68.9818 346.919 69.1829 346.618 69.4845C346.215 69.7862 346.014 70.289 346.014 70.9929H349.835C349.735 70.4901 349.735 70.0879 349.534 69.7862Z" fill="#FFDD00"/>
<path d="M355.769 73.4063V74.613H354.965C354.261 74.613 353.758 74.4119 353.356 74.1102C352.954 73.8086 352.853 73.2052 352.853 72.4008V69.183H351.948V67.9763H352.853V66.3674H354.261V67.9763H355.87V69.183H354.261V72.4008C354.261 72.803 354.362 73.0041 354.462 73.2052C354.563 73.4063 354.864 73.4063 355.166 73.4063H355.769Z" fill="#FFDD00"/>
<path d="M362.204 68.4788C362.807 68.9816 363.109 69.5849 363.209 70.2888H361.701C361.6 69.8866 361.399 69.5849 361.097 69.2833C360.796 69.0822 360.393 68.881 359.891 68.881C359.388 68.881 358.885 69.0822 358.583 69.4844C358.181 69.8866 358.081 70.3894 358.081 71.0933C358.081 71.7972 358.282 72.4005 358.583 72.7022C358.986 73.1044 359.388 73.3055 359.891 73.3055C360.393 73.3055 360.695 73.205 361.097 72.9033C361.399 72.7022 361.6 72.3 361.701 71.8978H363.209C363.109 72.7022 362.706 73.3056 362.204 73.7078C361.6 74.2106 360.896 74.4117 360.092 74.4117C359.488 74.4117 358.885 74.3111 358.382 74.0094C357.88 73.7078 357.477 73.3055 357.176 72.8028C356.874 72.3 356.773 71.6966 356.773 70.9927C356.773 70.2888 356.874 69.6855 357.176 69.1827C357.477 68.6799 357.88 68.2777 358.382 67.976C358.885 67.6744 359.488 67.5738 360.092 67.5738C360.896 67.8755 361.6 68.0766 362.204 68.4788Z" fill="#FFDD00"/>
<path d="M368.739 68.2779C369.141 68.5795 369.443 68.9817 369.644 69.4845V67.9762H371.052V74.6129H369.644V73.1046C369.443 73.6074 369.141 74.0096 368.739 74.3113C368.337 74.6129 367.834 74.7135 367.231 74.7135C366.627 74.7135 366.124 74.6129 365.722 74.3113C365.219 74.0096 364.918 73.6074 364.616 73.1046C364.314 72.6018 364.214 71.9985 364.214 71.2946C364.214 70.5907 364.314 69.9873 364.616 69.4845C364.918 68.9817 365.219 68.5795 365.722 68.2779C366.225 67.9762 366.728 67.8756 367.231 67.8756C367.834 67.8756 368.337 67.9762 368.739 68.2779ZM366.225 69.5851C365.823 69.9873 365.722 70.4901 365.722 71.194C365.722 71.8979 365.923 72.4007 366.225 72.8029C366.627 73.2051 367.029 73.4062 367.733 73.4062C368.136 73.4062 368.437 73.3057 368.739 73.1046C369.041 72.9035 369.242 72.7024 369.443 72.3001C369.644 71.9985 369.744 71.5962 369.744 71.0934C369.744 70.6912 369.644 70.289 369.443 69.9873C369.242 69.6856 369.041 69.384 368.739 69.1829C368.437 68.9818 368.136 68.8812 367.733 68.8812C367.029 69.0823 366.527 69.2834 366.225 69.5851Z" fill="#FFDD00"/>
<path d="M375.075 68.1773C375.478 67.8756 375.98 67.7751 376.483 67.7751V69.2834H376.081C375.478 69.2834 374.975 69.384 374.673 69.6857C374.271 69.9873 374.17 70.4901 374.17 71.0935V74.4118H372.763V67.7751H374.17V69.0823C374.271 68.7806 374.673 68.479 375.075 68.1773Z" fill="#FFDD00"/>
<path d="M378.595 73.1045V74.6128H377.087V73.1045H378.595Z" fill="#FFDD00"/>
<path d="M384.93 68.479C385.533 68.9818 385.835 69.5851 385.936 70.289H384.427C384.327 69.8868 384.126 69.5851 383.824 69.2834C383.522 69.0823 383.12 68.8812 382.617 68.8812C382.114 68.8812 381.612 69.0823 381.31 69.4845C380.908 69.8868 380.807 70.3895 380.807 71.0934C380.807 71.7973 381.008 72.4007 381.31 72.7024C381.712 73.1046 382.114 73.3057 382.617 73.3057C383.12 73.3057 383.422 73.2051 383.824 72.9035C384.126 72.7024 384.327 72.3001 384.427 71.8979H385.936C385.835 72.7024 385.433 73.3057 384.93 73.7079C384.327 74.2107 383.623 74.4118 382.818 74.4118C382.215 74.4118 381.612 74.3113 381.109 74.0096C380.606 73.7079 380.204 73.3057 379.902 72.8029C379.601 72.3001 379.5 71.6968 379.5 70.9929C379.5 70.289 379.601 69.6857 379.902 69.1829C380.204 68.6801 380.606 68.2779 381.109 67.9762C381.612 67.6745 382.215 67.574 382.818 67.574C383.623 67.8756 384.327 68.0767 384.93 68.479Z" fill="#FFDD00"/>
<path d="M392.07 68.278C392.573 68.5797 392.975 68.9819 393.277 69.4847C393.578 69.9875 393.679 70.5908 393.679 71.2947C393.679 71.9986 393.578 72.602 393.277 73.1047C392.975 73.6075 392.573 74.0098 392.07 74.3114C391.567 74.6131 390.964 74.7137 390.36 74.7137C389.757 74.7137 389.154 74.6131 388.651 74.3114C388.148 74.0098 387.746 73.6075 387.444 73.1047C387.143 72.602 387.042 71.9986 387.042 71.2947C387.042 70.5908 387.143 69.9875 387.444 69.4847C387.746 68.9819 388.148 68.5797 388.651 68.278C389.154 67.9764 389.757 67.8758 390.36 67.8758C390.964 67.8758 391.567 67.9764 392.07 68.278ZM389.355 69.2836C389.053 69.4847 388.852 69.6858 388.651 69.9875C388.45 70.2892 388.349 70.6914 388.349 71.1942C388.349 71.697 388.45 72.0992 388.651 72.4008C388.852 72.7025 389.053 73.0042 389.355 73.1047C389.656 73.2053 389.958 73.3059 390.36 73.3059C390.763 73.3059 391.064 73.2053 391.366 73.1047C391.668 73.0042 391.869 72.7025 392.07 72.4008C392.271 72.0992 392.372 71.697 392.372 71.1942C392.372 70.6914 392.271 70.2892 392.07 69.9875C391.869 69.6858 391.668 69.3841 391.366 69.2836C391.064 69.0825 390.763 69.0825 390.36 69.0825C389.958 69.0825 389.656 69.0825 389.355 69.2836Z" fill="#FFDD00"/>
<path d="M405.241 68.5795C405.744 69.0823 405.945 69.7862 405.945 70.6912V74.6129H404.537V70.8923C404.537 70.2889 404.437 69.8867 404.135 69.585C403.833 69.2834 403.431 69.0823 402.928 69.0823C402.426 69.0823 401.923 69.2834 401.621 69.585C401.319 69.8867 401.118 70.3895 401.118 71.0934V74.6129H399.711V70.8923C399.711 70.2889 399.61 69.8867 399.308 69.585C399.007 69.2834 398.604 69.0823 398.102 69.0823C397.599 69.0823 397.096 69.2834 396.794 69.585C396.493 69.8867 396.292 70.3895 396.292 71.0934V74.6129H394.884V67.9761H396.292V69.3839C396.493 68.8811 396.694 68.5795 397.096 68.2778C397.498 67.9761 398.001 67.8756 398.504 67.8756C399.107 67.8756 399.509 67.9761 399.912 68.2778C400.314 68.5795 400.616 68.9817 400.817 69.4845C401.018 68.9817 401.319 68.5795 401.722 68.2778C402.124 67.9761 402.627 67.8756 403.129 67.8756C404.135 67.775 404.738 68.0767 405.241 68.5795Z" fill="#FFDD00"/>
<path d="M205.337 157.17L126.802 112.02C112.925 104.076 95.9312 104.076 82.0543 112.02L3.51949 157.17C2.31281 157.874 1.20668 158.578 0 159.383L0 280.051C0 287.492 6.03341 293.525 13.4746 293.525H40.2227L49.3734 264.666C52.189 266.777 76.8254 274.017 82.6577 275.325C88.49 276.632 101.06 278.341 107.093 278.341C118.657 278.341 126.5 277.034 132.232 274.621C144.198 269.492 139.975 259.638 133.137 258.33C128.31 257.425 122.177 256.319 115.037 255.515C107.897 254.71 100.255 253.906 92.0095 252.9C83.7638 251.995 76.1215 250.185 68.982 247.671C61.8424 245.158 55.9096 241.537 51.1834 236.711C46.4572 231.985 44.1444 225.448 44.1444 217.102C44.1444 210.566 45.4517 204.533 48.1667 199.203C50.8817 193.874 54.6023 186.533 74.1104 180.5C81.0488 178.388 88.7916 177.282 97.339 177.282C105.283 177.282 112.624 177.885 119.361 178.991C126.199 180.097 132.232 181.505 137.461 182.712C149.629 185.628 156.265 189.047 156.265 189.047C156.265 189.047 148.221 213.583 147.919 213.382C144.902 211.773 137.361 209.158 132.735 207.851C128.109 206.544 122.579 205.438 116.847 204.533C111.115 203.628 105.585 203.225 100.155 203.225C93.5178 203.225 88.1883 203.527 84.166 204.935C73.3059 208.655 76.7248 215.694 80.3449 218.007C83.0599 219.717 93.5178 221.627 106.59 222.934C112.322 223.538 118.154 224.041 124.188 224.845C130.221 225.75 136.154 226.756 141.785 228.465C166.321 236.107 173.159 246.968 173.159 261.347C173.159 267.079 172.153 272.71 170.042 278.241C167.93 283.771 164.41 288.799 159.383 293.224C159.282 293.324 159.181 293.425 159.081 293.425H227.158C227.56 290.911 227.862 288.397 227.862 285.883V196.086C227.862 179.997 219.214 165.215 205.337 157.17Z" fill="#FFDD00"/>
<path d="M240.23 188.644C244.454 195.583 246.867 203.627 246.867 212.074L246.867 293.626H259.336V225.247C259.336 210.566 252.096 196.991 240.23 188.644Z" fill="#FFDD00"/>
<path d="M62.1432 185.527H52.5903V192.265C53.0931 191.661 53.6965 191.158 54.6015 190.756C55.4059 190.354 56.4115 190.153 57.4171 190.153C59.3276 190.153 60.836 190.756 61.741 191.862C62.646 192.969 63.1488 194.376 63.1488 196.086C63.1488 197.896 62.646 199.404 61.6404 200.611C60.6349 201.818 59.1265 202.421 57.1154 202.421C55.3054 202.421 53.8976 201.918 52.7914 201.013C51.6853 200.007 50.9814 198.801 50.8809 197.091H52.6909C52.892 198.298 53.3948 199.203 54.1992 199.907C55.0037 200.51 55.9087 200.913 57.1154 200.913C58.6237 200.913 59.7299 200.51 60.4338 199.605C61.1377 198.7 61.5399 197.594 61.5399 196.186C61.5399 194.779 61.1377 193.773 60.4338 192.969C59.7299 192.164 58.6237 191.862 57.2159 191.862C56.2104 191.862 55.4059 192.064 54.6015 192.466C53.797 192.868 53.2942 193.471 52.892 194.175H51.1825V184.22H62.4449V185.527H62.1432Z" fill="white"/>
<path d="M74.0086 194.778C75.8187 192.767 76.7237 190.857 76.7237 189.147C76.7237 188.041 76.422 187.136 75.8187 186.432C75.2153 185.728 74.3103 185.426 73.0031 185.426C71.6958 185.426 70.6903 185.829 69.9864 186.633C69.2825 187.438 68.8802 188.544 68.7797 190.052H66.9697C67.0702 188.041 67.6736 186.533 68.7797 185.527C69.8858 184.421 71.2936 183.918 73.1036 183.918C74.7125 183.918 76.0198 184.32 77.0253 185.225C78.0309 186.13 78.5337 187.337 78.5337 189.047C78.5337 190.454 78.0309 191.963 77.1259 193.37C76.2209 194.879 75.0142 196.186 73.6064 197.493C72.1986 198.7 70.7908 199.806 69.2825 200.711H79.0365V202.219H66.7686V200.912C69.7853 198.801 72.1986 196.789 74.0086 194.778Z" fill="white"/>
<path d="M82.958 193.069C82.958 190.153 83.4608 187.941 84.3658 186.332C85.2708 184.723 86.8797 183.918 89.1925 183.918C91.5053 183.918 93.1142 184.723 94.0193 186.332C94.9243 187.941 95.4271 190.153 95.4271 193.069C95.4271 195.985 94.9243 198.298 94.0193 199.907C93.1142 201.516 91.5053 202.32 89.1925 202.32C86.8797 202.32 85.2708 201.516 84.3658 199.907C83.4608 198.298 82.958 195.985 82.958 193.069ZM93.617 193.069C93.617 191.46 93.5165 190.153 93.3154 189.047C93.1142 187.941 92.6115 187.136 92.0081 186.533C91.4048 185.929 90.3992 185.628 89.1925 185.628C87.9858 185.628 87.0808 185.929 86.3769 186.533C85.7736 187.136 85.2708 188.041 85.0697 189.047C84.8686 190.153 84.768 191.46 84.768 193.069C84.768 194.678 84.8686 195.985 85.0697 197.091C85.2708 198.197 85.7736 199.002 86.3769 199.706C86.9803 200.309 87.9858 200.611 89.1925 200.611C90.3992 200.611 91.3042 200.309 92.0081 199.706C92.6115 199.102 93.1142 198.197 93.3154 197.091C93.5165 195.985 93.617 194.678 93.617 193.069Z" fill="white"/>
<path d="M111.619 185.527H102.066V192.265C102.569 191.661 103.172 191.159 104.077 190.756C104.881 190.354 105.887 190.153 106.893 190.153C108.803 190.153 110.312 190.756 111.217 191.862C112.122 192.969 112.624 194.376 112.624 196.086C112.624 197.896 112.122 199.404 111.116 200.611C110.11 201.818 108.602 202.421 106.591 202.421C104.781 202.421 103.373 201.918 102.267 201.013C101.161 200.008 100.457 198.801 100.356 197.091H102.166C102.368 198.298 102.87 199.203 103.675 199.907C104.479 200.51 105.384 200.913 106.591 200.913C108.099 200.913 109.205 200.51 109.909 199.605C110.613 198.7 111.015 197.594 111.015 196.186C111.015 194.779 110.613 193.773 109.909 192.969C109.205 192.164 108.099 191.862 106.692 191.862C105.686 191.862 104.881 192.064 104.077 192.466C103.273 192.868 102.77 193.471 102.368 194.175H100.658V184.22H111.619V185.527Z" fill="white"/>
<path d="M151.338 184.321C152.143 184.723 152.746 185.226 153.148 185.929C153.55 186.633 153.751 187.438 153.751 188.343C153.751 189.449 153.45 190.455 152.746 191.259C152.042 192.063 151.036 192.466 149.729 192.667V192.868C151.137 193.17 152.143 193.773 152.947 194.477C153.752 195.181 154.154 196.186 154.154 197.494C154.154 199.002 153.651 200.209 152.746 201.114C151.74 202.019 150.333 202.521 148.523 202.521C146.713 202.521 145.204 202.019 144.098 201.114C142.992 200.209 142.288 198.801 142.087 196.991H143.897C144.098 198.197 144.601 199.203 145.405 199.907C146.21 200.611 147.215 201.013 148.523 201.013C149.83 201.013 150.735 200.711 151.439 200.007C152.143 199.404 152.444 198.499 152.444 197.494C152.444 196.287 151.941 195.281 151.036 194.678C150.131 194.075 148.724 193.672 146.914 193.672H146.31V192.164H146.914C150.333 192.164 152.143 191.058 152.143 188.745C152.143 187.74 151.841 186.935 151.137 186.332C150.534 185.728 149.629 185.427 148.422 185.427C147.316 185.427 146.31 185.728 145.506 186.332C144.701 186.935 144.299 187.941 144.098 189.147H142.288C142.389 187.438 142.992 186.131 144.098 185.226C145.204 184.321 146.612 183.818 148.422 183.818C149.528 183.717 150.534 183.918 151.338 184.321Z" fill="white"/>
<path d="M157.773 197.795V196.287L167.326 184.019H169.237V196.186H172.053V197.795H169.237V202.119H167.427V197.795H157.773ZM167.527 186.231L159.684 196.186H167.527V186.231Z" fill="white"/>
<path d="M174.164 185.829V184.12H178.79V202.22H176.98V185.829H174.164Z" fill="white"/>
<path d="M184.623 186.03C185.125 185.326 185.829 184.723 186.734 184.321C187.639 183.918 188.745 183.717 190.053 183.717C191.36 183.717 192.466 183.918 193.371 184.321C194.276 184.723 194.98 185.326 195.483 186.03C195.986 186.734 196.187 187.539 196.187 188.444C196.187 189.449 195.885 190.354 195.282 191.058C194.678 191.762 193.874 192.365 192.667 192.667C193.874 192.969 194.879 193.471 195.583 194.276C196.287 195.08 196.589 196.086 196.589 197.293C196.589 199.002 195.986 200.309 194.779 201.214C193.572 202.119 191.963 202.622 189.952 202.622C187.941 202.622 186.332 202.119 185.125 201.214C183.919 200.209 183.315 198.901 183.315 197.293C183.315 196.086 183.617 195.08 184.321 194.276C185.025 193.471 186.03 192.868 187.237 192.667C186.03 192.365 185.226 191.862 184.623 191.058C184.019 190.354 183.718 189.449 183.718 188.444C183.919 187.539 184.12 186.734 184.623 186.03ZM186.433 200.209C187.338 200.913 188.444 201.214 189.952 201.214C191.461 201.214 192.567 200.913 193.472 200.209C194.377 199.505 194.779 198.499 194.779 197.293C194.779 195.985 194.276 195.08 193.371 194.376C192.466 193.773 191.36 193.371 189.952 193.371C188.544 193.371 187.438 193.673 186.533 194.376C185.628 194.98 185.125 195.985 185.125 197.293C185.125 198.499 185.628 199.505 186.433 200.209ZM186.835 191.259C187.639 191.862 188.645 192.164 189.952 192.164C191.259 192.164 192.366 191.862 193.069 191.259C193.874 190.656 194.176 189.751 194.176 188.645C194.176 187.539 193.773 186.634 192.969 186.03C192.164 185.427 191.159 185.125 189.852 185.125C188.544 185.125 187.539 185.427 186.734 186.03C185.93 186.634 185.528 187.539 185.528 188.645C185.628 189.751 186.03 190.656 186.835 191.259Z" fill="white"/>
<path d="M249.582 194.779C251.392 192.768 252.297 190.857 252.297 189.148C252.297 188.042 251.995 187.136 251.392 186.433C250.789 185.729 249.884 185.427 248.576 185.427C247.269 185.427 246.264 185.829 245.56 186.634C244.856 187.438 244.453 188.544 244.353 190.053H242.543C242.643 188.042 243.247 186.533 244.353 185.528C245.459 184.421 246.867 183.919 248.677 183.919C250.286 183.919 251.593 184.321 252.599 185.226C253.604 186.131 254.107 187.338 254.107 189.047C254.107 190.455 253.604 191.963 252.699 193.371C251.794 194.879 250.587 196.187 249.18 197.494C247.772 198.701 246.364 199.807 244.856 200.712H254.61V202.22H242.342V200.913C245.359 198.801 247.772 196.79 249.582 194.779Z" fill="white"/>
<path d="M267.582 184.321C268.387 184.723 268.99 185.226 269.392 185.929C269.795 186.633 269.996 187.438 269.996 188.343C269.996 189.449 269.694 190.455 268.99 191.259C268.286 192.063 267.281 192.466 265.973 192.667V192.868C267.381 193.17 268.387 193.773 269.191 194.477C269.996 195.181 270.398 196.186 270.398 197.494C270.398 199.002 269.895 200.209 268.99 201.114C267.985 202.019 266.577 202.521 264.767 202.521C262.957 202.521 261.448 202.019 260.342 201.114C259.236 200.209 258.532 198.801 258.331 196.991H260.141C260.342 198.197 260.845 199.203 261.649 199.907C262.454 200.611 263.459 201.013 264.767 201.013C266.074 201.013 266.979 200.711 267.683 200.007C268.387 199.404 268.688 198.499 268.688 197.494C268.688 196.287 268.186 195.281 267.281 194.678C266.376 194.075 264.968 193.672 263.158 193.672H262.554V192.164H263.158C266.577 192.164 268.387 191.058 268.387 188.745C268.387 187.74 268.085 186.935 267.381 186.332C266.677 185.728 265.873 185.427 264.666 185.427C263.56 185.427 262.554 185.728 261.75 186.332C260.946 186.935 260.543 187.941 260.342 189.147H258.532C258.633 187.438 259.236 186.131 260.342 185.226C261.448 184.321 262.856 183.818 264.666 183.818C265.873 183.717 266.778 183.918 267.582 184.321Z" fill="white"/>
<path d="M274.018 197.795V196.287L283.57 184.019H285.481V196.186H288.297V197.795H285.481V202.119H283.671V197.795H274.018ZM283.772 186.231L275.928 196.186H283.772V186.231Z" fill="white"/>
<path d="M298.553 194.779C300.363 192.767 301.268 190.857 301.268 189.147C301.268 188.041 300.966 187.136 300.363 186.432C299.759 185.728 298.854 185.427 297.547 185.427C296.24 185.427 295.234 185.829 294.53 186.633C293.826 187.438 293.424 188.544 293.324 190.052H291.614C291.715 188.041 292.318 186.533 293.424 185.527C294.53 184.421 295.938 183.918 297.748 183.918C299.357 183.918 300.664 184.321 301.67 185.226C302.675 186.131 303.178 187.337 303.178 189.047C303.178 190.455 302.675 191.963 301.77 193.371C300.865 194.879 299.659 196.186 298.251 197.494C296.843 198.7 295.435 199.806 293.927 200.711H303.681V202.22H291.413V200.913C294.329 198.801 296.743 196.79 298.553 194.779Z" fill="white"/>
<path d="M350.037 194.778C351.847 192.767 352.752 190.857 352.752 189.147C352.752 188.041 352.45 187.136 351.847 186.432C351.244 185.728 350.339 185.427 349.031 185.427C347.724 185.427 346.719 185.829 346.015 186.633C345.311 187.438 344.909 188.544 344.808 190.052H342.998C343.099 188.041 343.702 186.533 344.808 185.527C345.914 184.421 347.322 183.918 349.132 183.918C350.741 183.918 352.048 184.32 353.054 185.225C354.059 186.13 354.562 187.337 354.562 189.047C354.562 190.454 354.059 191.963 353.154 193.37C352.249 194.879 351.043 196.186 349.635 197.493C348.227 198.7 346.819 199.806 345.311 200.711H355.065V202.219H342.797V200.912C345.814 198.801 348.227 196.789 350.037 194.778Z" fill="white"/>
<path d="M368.037 184.32C368.842 184.723 369.445 185.225 369.847 185.929C370.25 186.633 370.451 187.438 370.451 188.343C370.451 189.449 370.149 190.454 369.445 191.259C368.741 192.063 367.736 192.465 366.428 192.666V192.868C367.836 193.169 368.842 193.773 369.646 194.477C370.451 195.18 370.853 196.186 370.853 197.493C370.853 199.002 370.35 200.208 369.445 201.113C368.44 202.018 367.032 202.521 365.222 202.521C363.412 202.521 361.903 202.018 360.797 201.113C359.691 200.208 358.987 198.8 358.786 196.99H360.596C360.797 198.197 361.3 199.203 362.105 199.907C362.909 200.61 363.915 201.013 365.222 201.013C366.529 201.013 367.434 200.711 368.138 200.007C368.842 199.404 369.143 198.499 369.143 197.493C369.143 196.287 368.641 195.281 367.736 194.678C366.831 194.074 365.423 193.672 363.613 193.672H363.01V192.164H363.613C367.032 192.164 368.842 191.058 368.842 188.745C368.842 187.739 368.54 186.935 367.836 186.331C367.233 185.728 366.328 185.426 365.121 185.426C364.015 185.426 363.01 185.728 362.205 186.331C361.401 186.935 360.998 187.94 360.797 189.147H358.987C359.088 187.438 359.691 186.13 360.797 185.225C361.903 184.32 363.311 183.817 365.121 183.817C366.328 183.717 367.233 183.918 368.037 184.32Z" fill="white"/>
<path d="M382.114 194.778C383.924 192.767 384.829 190.857 384.829 189.147C384.829 188.041 384.527 187.136 383.924 186.432C383.321 185.728 382.416 185.427 381.109 185.427C379.801 185.427 378.796 185.829 378.092 186.633C377.388 187.438 376.986 188.544 376.885 190.052H375.075C375.176 188.041 375.779 186.533 376.885 185.527C377.991 184.421 379.399 183.918 381.209 183.918C382.818 183.918 384.125 184.32 385.131 185.225C386.136 186.13 386.639 187.337 386.639 189.047C386.639 190.454 386.136 191.963 385.231 193.371C384.326 194.879 383.12 196.186 381.712 197.493C380.304 198.7 378.896 199.806 377.388 200.711H387.142V202.22H374.874V200.912C377.891 198.801 380.304 196.789 382.114 194.778Z" fill="white"/>
<path d="M400.415 186.13C399.812 185.527 398.907 185.125 397.7 185.125C396.091 185.125 394.885 185.728 394.08 186.935C393.276 188.141 392.874 190.052 392.874 192.667C392.874 193.169 392.874 193.572 392.874 193.773C393.075 192.667 393.678 191.762 394.684 191.058C395.689 190.354 396.795 190.052 398.102 190.052C399.912 190.052 401.32 190.555 402.426 191.661C403.432 192.767 403.935 194.275 403.935 196.186C403.935 197.292 403.734 198.298 403.331 199.203C402.929 200.108 402.225 200.812 401.32 201.415C400.415 201.918 399.309 202.219 397.901 202.219C395.287 202.219 393.577 201.415 392.572 199.806C391.667 198.197 391.164 195.985 391.164 193.27C391.164 190.153 391.667 187.739 392.672 186.13C393.678 184.521 395.387 183.717 397.7 183.717C399.309 183.717 400.616 184.22 401.521 185.125C402.426 186.03 403.03 187.337 403.13 188.845H401.421C401.421 187.739 401.019 186.834 400.415 186.13ZM393.577 198.298C393.879 199.002 394.482 199.605 395.186 200.108C395.89 200.611 396.795 200.812 397.901 200.812C399.209 200.812 400.315 200.409 401.019 199.605C401.823 198.8 402.225 197.694 402.225 196.287C402.225 194.778 401.823 193.572 401.019 192.767C400.214 191.963 399.108 191.56 397.801 191.56C396.996 191.56 396.292 191.762 395.589 192.063C394.885 192.365 394.281 192.868 393.779 193.471C393.276 194.074 393.075 194.879 393.075 195.884C393.075 196.789 393.276 197.594 393.577 198.298Z" fill="white"/>
<defs>
<linearGradient id="paint0_linear" x1="88.8066" y1="92.8082" x2="439.237" y2="281.625" gradientUnits="userSpaceOnUse">
<stop stop-color="#231F20"/>
<stop offset="1" stop-color="#231F20" stop-opacity="0"/>
</linearGradient>
</defs>
</svg>
