<svg width="16" height="16" viewBox="0 0 16 16" fill="none" xmlns="http://www.w3.org/2000/svg">
<path d="M8.912 5.272C8.66 5.524 8.34267 5.65 7.96 5.65C7.57733 5.65 7.26 5.524 7.008 5.272C6.76533 5.02 6.644 4.712 6.644 4.348C6.644 3.97467 6.76533 3.662 7.008 3.41C7.26 3.158 7.57733 3.032 7.96 3.032C8.34267 3.032 8.66 3.16267 8.912 3.424C9.164 3.676 9.29 3.984 9.29 4.348C9.29 4.712 9.164 5.02 8.912 5.272ZM6.882 13V6.252H9.024V13H6.882Z" fill="#8B94A4"/>
<circle cx="8" cy="8" r="7.25" stroke="#8B94A4" stroke-width="1.5"/>
</svg>
