<svg width="154" height="51" viewBox="0 0 154 51" fill="none" xmlns="http://www.w3.org/2000/svg">
<path d="M153.385 43.3916C153.385 47.14 150.356 50.1687 146.608 50.1687H6.77712C3.02871 50.1687 0 47.14 0 43.3916V6.77712C0 3.02871 3.02871 0 6.77712 0H146.608C150.356 0 153.385 3.02871 153.385 6.77712V43.3916Z" fill="black"/>
<path d="M11.5156 9.65649V26.6593V43.6321L28.6383 26.6593L11.5156 9.65649Z" fill="url(#paint0_linear)"/>
<path d="M33.2264 22.0708L26.3293 18.0825L11.5156 9.53613V9.65608L28.6383 26.6589L33.2264 22.0708Z" fill="url(#paint1_linear)"/>
<path d="M11.5156 43.6312V43.7512L26.3293 35.2048L33.2264 31.2165L28.6383 26.6584L11.5156 43.6312Z" fill="url(#paint2_linear)"/>
<path d="M33.2267 22.0708L28.6387 26.6589L33.2267 31.2169L41.1434 26.6589L33.2267 22.0708Z" fill="url(#paint3_linear)"/>
<path d="M119.38 33.2855C118.75 33.2855 118.15 33.1655 117.611 32.9256C117.071 32.6857 116.621 32.3259 116.261 31.8161H116.141C116.201 32.3859 116.261 32.9256 116.261 33.4654V37.5437H114.762V23.2397H115.991L116.201 24.5892H116.261C116.651 24.0494 117.101 23.6596 117.611 23.4197C118.12 23.1798 118.72 23.0598 119.38 23.0598C120.699 23.0598 121.689 23.5096 122.408 24.4092C123.128 25.3089 123.488 26.5683 123.488 28.1876C123.488 29.8069 123.128 31.0664 122.408 31.966C121.659 32.8357 120.639 33.2855 119.38 33.2855ZM119.14 24.3193C118.12 24.3193 117.401 24.5892 116.951 25.1589C116.501 25.7287 116.261 26.5983 116.261 27.8278V28.1576C116.261 29.5371 116.501 30.5266 116.951 31.1264C117.401 31.7261 118.15 32.026 119.17 32.026C120.009 32.026 120.699 31.6662 121.179 30.9765C121.659 30.2867 121.899 29.3272 121.899 28.1277C121.899 26.8982 121.659 25.9386 121.179 25.2789C120.699 24.6491 120.039 24.3193 119.14 24.3193Z" fill="#F9F9F9"/>
<path d="M126.936 33.1058H125.437V19.0718H126.936V33.1058Z" fill="#F9F9F9"/>
<path d="M135.542 33.1055L135.243 31.6961H135.183C134.703 32.3259 134.193 32.7457 133.713 32.9556C133.233 33.1655 132.604 33.2855 131.884 33.2855C130.894 33.2855 130.145 33.0456 129.575 32.5358C129.005 32.026 128.735 31.3063 128.735 30.3767C128.735 28.3676 130.325 27.348 133.533 27.228L135.213 27.1681V26.5683C135.213 25.7887 135.033 25.2189 134.703 24.8591C134.373 24.4992 133.833 24.3193 133.113 24.3193C132.304 24.3193 131.344 24.5592 130.325 25.069L129.875 23.9294C130.355 23.6596 130.894 23.4496 131.464 23.2997C132.034 23.1498 132.634 23.0598 133.203 23.0598C134.373 23.0598 135.243 23.3297 135.812 23.8395C136.382 24.3493 136.652 25.1889 136.652 26.3584V33.1055H135.542ZM132.154 32.056C133.084 32.056 133.803 31.7861 134.343 31.2763C134.883 30.7665 135.153 30.0468 135.153 29.1172V28.2176L133.653 28.2776C132.454 28.3076 131.614 28.5175 131.074 28.8474C130.535 29.1772 130.295 29.687 130.295 30.3767C130.295 30.9165 130.445 31.3363 130.774 31.6062C131.104 31.9061 131.554 32.056 132.154 32.056Z" fill="#F9F9F9"/>
<path d="M137.521 23.2395H139.111L141.27 28.8771C141.75 30.1666 142.05 31.0962 142.14 31.6659H142.199C142.289 31.366 142.439 30.8263 142.679 30.1066C142.919 29.3569 143.759 27.0779 145.138 23.2695H146.758L142.529 34.4847C142.11 35.5943 141.63 36.3739 141.06 36.8537C140.49 37.3335 139.801 37.5434 138.991 37.5434C138.541 37.5434 138.091 37.4834 137.641 37.3935V36.194C137.971 36.254 138.331 36.3139 138.751 36.3139C139.771 36.3139 140.52 35.7442 140.94 34.5747L141.48 33.1653L137.521 23.2395Z" fill="#F9F9F9"/>
<path d="M91.6416 24.1401C92.1214 24.5299 93.111 25.3695 93.111 26.9289C93.111 28.4582 92.2413 29.1779 91.3717 29.8676C91.1018 30.1375 90.8019 30.4374 90.8019 30.8872C90.8019 31.337 91.1018 31.5769 91.3417 31.7868L92.0914 32.3566C92.991 33.1362 93.8307 33.8259 93.8307 35.2653C93.8307 37.2145 91.9415 39.1637 88.403 39.1637C85.4042 39.1637 83.9648 37.7243 83.9648 36.1949C83.9648 35.4453 84.3247 34.3957 85.5542 33.676C86.8436 32.8963 88.5829 32.7764 89.5125 32.7164C89.2126 32.3566 88.8828 31.9667 88.8828 31.307C88.8828 30.9472 88.9727 30.7373 89.0927 30.4974C88.8528 30.5273 88.6429 30.5273 88.4329 30.5273C86.2439 30.5273 85.0144 28.908 85.0144 27.2887C85.0144 26.3291 85.4342 25.2796 86.3338 24.5299C87.5033 23.5703 88.9127 23.3904 90.0223 23.3904H94.2805L92.961 24.1401H91.6416ZM90.1722 33.3162C89.9923 33.2862 89.9023 33.2862 89.6924 33.2862C89.5125 33.2862 88.403 33.3162 87.5333 33.616C87.0835 33.766 85.7641 34.2758 85.7641 35.7451C85.7641 37.2145 87.2035 38.2641 89.3925 38.2641C91.3717 38.2641 92.4213 37.3045 92.4213 36.045C92.4213 34.9955 91.7615 34.4257 90.1722 33.3162ZM90.772 29.3878C91.2518 28.908 91.2817 28.2483 91.2817 27.8885C91.2817 26.3891 90.3821 24.0801 88.6728 24.0801C88.1331 24.0801 87.5633 24.35 87.2335 24.7698C86.8736 25.1896 86.7836 25.7594 86.7836 26.2991C86.7836 27.6786 87.5933 29.9876 89.3626 29.9876C89.9023 29.9876 90.4421 29.7177 90.772 29.3878Z" fill="#F9F9F9"/>
<path d="M78.6267 32.9859C75.3581 32.9859 73.5889 30.437 73.5889 28.128C73.5889 25.4291 75.8079 23.1201 78.9266 23.1201C81.9553 23.1201 83.8445 25.4891 83.8445 27.9781C83.8745 30.407 81.9853 32.9859 78.6267 32.9859ZM81.2056 31.3066C81.7154 30.6469 81.8354 29.8073 81.8354 29.0276C81.8354 27.1984 80.9657 23.7498 78.4168 23.7498C77.7271 23.7498 77.0674 24.0197 76.5576 24.4396C75.748 25.1593 75.598 26.0589 75.598 26.9585C75.598 28.9976 76.6176 32.3562 79.1065 32.3562C79.9162 32.3862 80.7258 31.9664 81.2056 31.3066Z" fill="#F9F9F9"/>
<path d="M67.4402 32.9859C64.1716 32.9859 62.4023 30.437 62.4023 28.128C62.4023 25.4291 64.6214 23.1201 67.7401 23.1201C70.7688 23.1201 72.658 25.4891 72.658 27.9781C72.688 30.407 70.7988 32.9859 67.4402 32.9859ZM70.0191 31.3066C70.5289 30.6469 70.6488 29.8073 70.6488 29.0276C70.6488 27.1984 69.7792 23.7498 67.2303 23.7498C66.5406 23.7498 65.8809 24.0197 65.3711 24.4396C64.5614 25.1593 64.4115 26.0589 64.4115 26.9585C64.4115 28.9976 65.4311 32.3562 67.92 32.3562C68.7297 32.3862 69.5393 31.9664 70.0191 31.3066Z" fill="#F9F9F9"/>
<path d="M60.844 32.6563L57.8752 33.3461C56.6757 33.526 55.5962 33.7059 54.4567 33.7059C48.7291 33.7059 46.54 29.5077 46.54 26.2091C46.54 22.1908 49.6287 18.4424 54.9065 18.4424C56.016 18.4424 57.0956 18.6223 58.0851 18.8922C59.6445 19.342 60.3642 19.8518 60.814 20.1816L59.1047 21.8309L58.385 22.0109L58.8948 21.1712C58.1751 20.4815 56.9156 19.2221 54.4567 19.2221C51.1881 19.2221 48.6991 21.711 48.6991 25.3395C48.6991 29.2378 51.5179 32.8962 56.046 32.8962C57.3654 32.8962 58.0551 32.6264 58.6849 32.3865V29.0279L55.5662 29.2078L57.2155 28.3082H61.6236L61.0839 28.818C60.9339 28.9379 60.9039 28.9979 60.874 29.1478C60.844 29.3278 60.844 29.9275 60.844 30.1374V32.6563Z" fill="#F9F9F9"/>
<path d="M98.2079 32.0565C97.5182 31.9965 97.3683 31.8765 97.3683 31.0669V30.827V19.3419C97.3683 19.3119 97.3683 19.2519 97.3683 19.2219C97.4583 18.5022 97.6682 18.3823 98.2979 17.9924H95.3591L93.7998 18.7421H95.3891V30.857V31.5467C95.3891 31.9665 95.2992 32.0265 94.8194 32.6562H98.4778L99.2575 32.2064C98.8976 32.1464 98.5678 32.1164 98.2079 32.0565Z" fill="#F9F9F9"/>
<path d="M106.634 32.2664C106.394 32.3864 106.184 32.5363 105.945 32.6263C105.255 32.9262 104.565 33.0161 103.935 33.0161C103.276 33.0161 102.256 32.9861 101.207 32.2065C99.7372 31.1869 99.1074 29.4176 99.1074 27.8583C99.1074 24.6797 101.716 23.0903 103.815 23.0903C104.565 23.0903 105.315 23.2703 105.945 23.6601C106.964 24.3498 107.234 25.2194 107.384 25.6992L102.556 27.6784L100.967 27.7983C101.476 30.4072 103.246 31.9366 105.225 31.9366C106.274 31.9366 107.024 31.5767 107.744 31.2169L106.634 32.2664ZM104.715 26.119C105.105 25.9691 105.315 25.8492 105.315 25.5493C105.315 24.7396 104.385 23.78 103.276 23.78C102.436 23.78 100.907 24.4098 100.907 26.6288C100.907 26.9887 100.937 27.3485 100.967 27.7084L104.715 26.119Z" fill="#F9F9F9"/>
<path d="M108.643 23.2701V24.6195H108.463V23.2701H108.014V23.1201H109.063V23.2701H108.643Z" fill="#F9F9F9"/>
<path d="M110.472 24.6192V23.2398L110.052 24.6192H109.932L109.512 23.2398V24.6192H109.362V23.1199H109.632L110.022 24.3194L110.412 23.1199H110.682V24.6192H110.472Z" fill="#F9F9F9"/>
<path d="M50.6779 14.3947H49.6583C49.6583 14.2448 49.5684 13.855 49.3584 13.1953H47.8591C47.6492 13.855 47.5592 14.2448 47.5592 14.3947H46.5996C46.5996 14.3048 46.8395 13.6151 47.3493 12.3256C47.8591 11.0362 48.099 10.3165 48.099 10.1965H49.3285C49.3285 10.3165 49.5684 11.0062 50.0182 12.2956C50.438 13.5851 50.6779 14.2748 50.6779 14.3947ZM49.1785 12.5655C48.8187 11.456 48.6387 10.8563 48.6387 10.7663H48.5788C48.5788 10.8563 48.3988 11.456 48.009 12.5655H49.1785Z" fill="#F9F9FA"/>
<path d="M54.8157 14.3937H54.0061C54.0061 14.3038 53.7062 13.854 53.1064 12.9843C52.4767 12.0847 52.1469 11.485 52.0569 11.1551H51.9969C52.0569 11.6349 52.0869 12.0547 52.0869 12.4446C52.0869 12.9843 52.0869 13.6141 52.1469 14.3937H51.3672C51.3972 13.734 51.4272 12.9843 51.4272 12.2047C51.4272 11.425 51.3972 10.7653 51.3672 10.1955H52.3268C52.3268 10.3155 52.5967 10.7653 53.1364 11.5449C53.7062 12.3846 54.0361 12.9543 54.096 13.2542H54.156C54.096 12.7744 54.066 12.3546 54.066 11.9648C54.066 11.395 54.0361 10.7953 54.0061 10.1655H54.8157C54.7857 10.7053 54.7557 11.365 54.7557 12.1747C54.7857 13.0143 54.7857 13.734 54.8157 14.3937Z" fill="#F9F9FA"/>
<path d="M59.4952 12.145C59.4952 12.7447 59.2853 13.2845 58.8955 13.7343C58.5057 14.1841 57.9659 14.424 57.2462 14.424C56.9163 14.424 56.4965 14.424 55.9268 14.394C55.9567 13.7343 55.9567 13.0146 55.9567 12.2049C55.9567 11.4253 55.9567 10.7656 55.9268 10.1958H56.4965C56.5865 10.1958 56.7364 10.1958 56.9163 10.1958C57.0963 10.1958 57.2162 10.1958 57.2762 10.1958C58.0559 10.1958 58.6256 10.3757 58.9555 10.7656C59.3153 11.1554 59.4952 11.6052 59.4952 12.145ZM58.5956 12.2949C58.5956 11.8751 58.4757 11.5452 58.2358 11.2454C57.9959 10.9755 57.636 10.8255 57.1262 10.8255C57.0363 10.8255 56.9163 10.8255 56.7364 10.8555C56.7664 11.2753 56.7664 11.7252 56.7664 12.2049C56.7664 12.7147 56.7664 13.2245 56.7964 13.7343C56.9463 13.7643 57.0663 13.7643 57.2162 13.7643C57.666 13.7643 58.0259 13.6143 58.2358 13.3445C58.5057 13.0446 58.5956 12.7147 58.5956 12.2949Z" fill="#F9F9FA"/>
<path d="M63.7821 14.394H62.8225C62.5826 13.6443 62.3727 13.1645 62.2528 12.9846C62.1328 12.8047 61.8929 12.7147 61.623 12.7147C61.5031 12.7147 61.3831 12.7147 61.2632 12.7147C61.2632 13.2545 61.2632 13.8243 61.2932 14.394H60.3936C60.4235 13.7343 60.4235 13.0146 60.4235 12.2049C60.4235 11.4253 60.4235 10.7656 60.3936 10.1958H60.9633C61.0233 10.1958 61.1732 10.1958 61.3532 10.1958C61.5631 10.1958 61.743 10.1958 61.9229 10.1958C62.9125 10.1958 63.3923 10.5257 63.3923 11.2154C63.3923 11.7551 63.1224 12.115 62.5526 12.3249V12.3849C62.7626 12.4448 62.9725 12.6248 63.1224 12.8947C63.3023 13.1346 63.5122 13.6443 63.7821 14.394ZM62.5826 11.4253C62.5826 11.0055 62.3127 10.7955 61.743 10.7955C61.5331 10.7955 61.3532 10.7955 61.2032 10.8555C61.2332 11.1854 61.2332 11.6352 61.2332 12.145C61.3531 12.145 61.4431 12.145 61.5331 12.145C62.2528 12.145 62.5826 11.9051 62.5826 11.4253Z" fill="#F9F9FA"/>
<path d="M68.4015 12.2351C68.4015 12.8948 68.1916 13.4345 67.8018 13.8844C67.4119 14.3042 66.9021 14.5441 66.3024 14.5441C65.7326 14.5441 65.2528 14.3342 64.893 13.9443C64.5032 13.5545 64.3232 13.0447 64.3232 12.415C64.3232 11.7553 64.5332 11.2155 64.923 10.7657C65.3128 10.3459 65.8226 10.106 66.4224 10.106C66.9921 10.106 67.4719 10.3159 67.8318 10.7057C68.2216 11.0955 68.4015 11.6053 68.4015 12.2351ZM67.5319 12.325C67.5319 11.8752 67.4119 11.5154 67.202 11.2455C66.9621 10.9756 66.6922 10.8257 66.3624 10.8257C66.0625 10.8257 65.7926 10.9756 65.5527 11.2455C65.3428 11.5154 65.2229 11.8752 65.2229 12.325C65.2229 12.7748 65.3428 13.1347 65.5827 13.4046C65.8226 13.6744 66.0925 13.8244 66.4224 13.8244C66.7222 13.8244 66.9921 13.6744 67.232 13.4046C67.4119 13.1047 67.5319 12.7448 67.5319 12.325Z" fill="#F9F9FA"/>
<path d="M70.2297 14.394H69.3301C69.3601 13.7343 69.3601 12.9846 69.3601 12.2049C69.3601 11.4253 69.3601 10.7656 69.3301 10.1958H70.2297C70.1997 10.7356 70.1997 11.3953 70.1997 12.2049C70.1997 13.0146 70.1997 13.7343 70.2297 14.394Z" fill="#F9F9FA"/>
<path d="M74.9074 12.145C74.9074 12.7447 74.6974 13.2845 74.3076 13.7343C73.9178 14.1841 73.378 14.424 72.6583 14.424C72.3284 14.424 71.9086 14.424 71.3389 14.394C71.3689 13.7343 71.3689 13.0146 71.3689 12.2049C71.3689 11.4253 71.3689 10.7656 71.3389 10.1958H71.9086C71.9986 10.1958 72.1485 10.1958 72.3284 10.1958C72.5084 10.1958 72.6283 10.1958 72.6883 10.1958C73.468 10.1958 74.0377 10.3757 74.3676 10.7656C74.7274 11.1554 74.9074 11.6052 74.9074 12.145ZM74.0077 12.2949C74.0077 11.8751 73.8878 11.5452 73.6479 11.2454C73.408 10.9755 73.0481 10.8255 72.5384 10.8255C72.4484 10.8255 72.3285 10.8255 72.1485 10.8555C72.1785 11.2753 72.1785 11.7252 72.1785 12.2049C72.1785 12.7147 72.1785 13.2245 72.2085 13.7343C72.3584 13.7643 72.4784 13.7643 72.6283 13.7643C73.0781 13.7643 73.438 13.6143 73.6479 13.3445C73.9178 13.0446 74.0077 12.7147 74.0077 12.2949Z" fill="#F9F9FA"/>
<path d="M81.0851 14.394H80.0655C80.0655 14.2441 79.9756 13.8542 79.7657 13.1945H78.2663C78.0564 13.8542 77.9664 14.2441 77.9664 14.394H77.0068C77.0068 14.3041 77.2467 13.6143 77.7565 12.3249C78.2663 11.0354 78.5062 10.3157 78.5062 10.1958H79.7357C79.7357 10.3157 79.9756 11.0055 80.4254 12.2949C80.8752 13.5844 81.0851 14.2741 81.0851 14.394ZM79.6157 12.5648C79.2559 11.4553 79.076 10.8555 79.076 10.7656H79.016C79.016 10.8555 78.8361 11.4553 78.4462 12.5648H79.6157Z" fill="#F9F9FA"/>
<path d="M84.8634 11.3053C84.8634 11.8151 84.6835 12.2049 84.2936 12.4448C83.9038 12.6847 83.454 12.8047 82.8842 12.8047C82.7943 12.8047 82.7043 12.8047 82.6743 12.8047C82.6743 13.1945 82.6743 13.7343 82.7043 14.394H81.8047C81.8347 13.7643 81.8347 13.0446 81.8347 12.2049C81.8347 11.4253 81.8347 10.7656 81.8047 10.1958H82.3745C82.4644 10.1958 82.6144 10.1958 82.8243 10.1958C83.0642 10.1958 83.2441 10.1958 83.424 10.1958C83.8438 10.1958 84.1737 10.2858 84.4436 10.4657C84.7135 10.6456 84.8634 10.9155 84.8634 11.3053ZM84.0238 11.4853C84.0238 11.0354 83.7239 10.7955 83.0941 10.7955C82.9442 10.7955 82.7943 10.8255 82.6143 10.8555C82.6443 11.2753 82.6443 11.7252 82.6443 12.2349C82.7043 12.2349 82.7643 12.2349 82.8243 12.2349C83.6339 12.2349 84.0238 11.965 84.0238 11.4853Z" fill="#F9F9FA"/>
<path d="M88.7022 11.3053C88.7022 11.8151 88.5223 12.2049 88.1325 12.4448C87.7427 12.6847 87.2929 12.8047 86.7231 12.8047C86.6331 12.8047 86.5432 12.8047 86.5132 12.8047C86.5132 13.1945 86.5132 13.7343 86.5432 14.394H85.6436C85.6735 13.7643 85.6735 13.0446 85.6735 12.2049C85.6735 11.4253 85.6735 10.7656 85.6436 10.1958H86.2133C86.3033 10.1958 86.4532 10.1958 86.6631 10.1958C86.903 10.1958 87.0829 10.1958 87.2629 10.1958C87.6827 10.1958 88.0125 10.2858 88.2824 10.4657C88.5823 10.6456 88.7022 10.9155 88.7022 11.3053ZM87.8926 11.4853C87.8926 11.0354 87.5927 10.7955 86.963 10.7955C86.8131 10.7955 86.6631 10.8255 86.4832 10.8555C86.5132 11.2753 86.5132 11.7252 86.5132 12.2349C86.5732 12.2349 86.6331 12.2349 86.6931 12.2349C87.5028 12.2349 87.8926 11.965 87.8926 11.4853Z" fill="#F9F9FA"/>
<path d="M95.0294 12.2351C95.0294 12.8948 94.8195 13.4345 94.4297 13.8844C94.0399 14.3342 93.5301 14.5441 92.9303 14.5441C92.3606 14.5441 91.8808 14.3342 91.5209 13.9443C91.1311 13.5545 90.9512 13.0447 90.9512 12.415C90.9512 11.7553 91.1611 11.2155 91.5509 10.7657C91.9408 10.3459 92.4505 10.106 93.0503 10.106C93.62 10.106 94.0998 10.3159 94.4597 10.7057C94.8495 11.0955 95.0294 11.6053 95.0294 12.2351ZM94.1298 12.325C94.1298 11.8752 94.0099 11.5154 93.8 11.2455C93.5601 10.9756 93.2902 10.8257 92.9603 10.8257C92.6604 10.8257 92.3906 10.9756 92.1507 11.2455C91.9408 11.5154 91.8208 11.8752 91.8208 12.325C91.8208 12.7748 91.9408 13.1347 92.1807 13.4046C92.4205 13.6744 92.6904 13.8244 93.0203 13.8244C93.3202 13.8244 93.5901 13.6744 93.83 13.4046C94.0399 13.1047 94.1298 12.7448 94.1298 12.325Z" fill="#F9F9FA"/>
<path d="M99.4065 14.3937H98.5969C98.5969 14.3038 98.297 13.854 97.6973 12.9843C97.0675 12.0847 96.7377 11.485 96.6477 11.1551H96.5877C96.6477 11.6349 96.6777 12.0547 96.6777 12.4446C96.6777 12.9843 96.6777 13.6141 96.7377 14.3937H95.958C95.988 13.734 96.018 12.9843 96.018 12.2047C96.018 11.425 95.988 10.7653 95.958 10.1955H96.9176C96.9176 10.3155 97.1875 10.7653 97.7273 11.5449C98.297 12.3846 98.6269 12.9543 98.6869 13.2542H98.7468C98.6868 12.7744 98.6569 12.3546 98.6569 11.9648C98.6569 11.395 98.6569 10.7953 98.5969 10.1655H99.4065C99.3766 10.7053 99.3466 11.365 99.3466 12.1747C99.3466 13.0143 99.3766 13.734 99.4065 14.3937Z" fill="#F9F9FA"/>
<defs>
<linearGradient id="paint0_linear" x1="20.0715" y1="9.65979" x2="20.0715" y2="43.6362" gradientUnits="userSpaceOnUse">
<stop stop-color="#257CB0"/>
<stop offset="0.2863" stop-color="#4A93B5"/>
<stop offset="0.767" stop-color="#78BCBB"/>
<stop offset="1" stop-color="#89CFBD"/>
</linearGradient>
<linearGradient id="paint1_linear" x1="11.5051" y1="18.0918" x2="33.2397" y2="18.0918" gradientUnits="userSpaceOnUse">
<stop stop-color="#52C1AD"/>
<stop offset="1" stop-color="#DEE89A"/>
</linearGradient>
<linearGradient id="paint2_linear" x1="22.3722" y1="26.6474" x2="22.3722" y2="43.7589" gradientUnits="userSpaceOnUse">
<stop stop-color="#EC413D"/>
<stop offset="0.1668" stop-color="#DA4452"/>
<stop offset="0.5748" stop-color="#B0487A"/>
<stop offset="0.8619" stop-color="#954A92"/>
<stop offset="1" stop-color="#8A4A9D"/>
</linearGradient>
<linearGradient id="paint3_linear" x1="34.8908" y1="22.0847" x2="34.8908" y2="31.2103" gradientUnits="userSpaceOnUse">
<stop stop-color="#F58879"/>
<stop offset="0.1194" stop-color="#F69079"/>
<stop offset="0.7128" stop-color="#FCB877"/>
<stop offset="1" stop-color="#FEC874"/>
</linearGradient>
</defs>
</svg>
