<svg width="163" height="54" viewBox="0 0 163 54" fill="none" xmlns="http://www.w3.org/2000/svg">
<path d="M163 46.1116C163 50.095 159.781 53.3136 155.798 53.3136H7.20195C3.21857 53.3136 0 50.095 0 46.1116V7.20196C0 3.21857 3.21857 0 7.20195 0H155.798C159.781 0 163 3.21857 163 7.20196V46.1116Z" fill="black"/>
<path d="M12.2369 10.2617V28.3303V46.3671L30.433 28.3303L12.2369 10.2617Z" fill="url(#paint0_linear)"/>
<path d="M35.3087 23.4542L27.9793 19.2159L12.2369 10.1338V10.2613L30.433 28.3299L35.3087 23.4542Z" fill="url(#paint1_linear)"/>
<path d="M12.2369 46.3663V46.4938L27.9793 37.4117L35.3087 33.1734L30.433 28.3296L12.2369 46.3663Z" fill="url(#paint2_linear)"/>
<path d="M35.3087 23.4541L30.433 28.3298L35.3087 33.1736L43.7216 28.3298L35.3087 23.4541Z" fill="url(#paint3_linear)"/>
<path d="M126.863 35.3725C126.194 35.3725 125.556 35.2451 124.983 34.9901C124.409 34.7352 123.931 34.3528 123.549 33.811H123.421C123.485 34.4165 123.549 34.9901 123.549 35.5637V39.8976H121.955V24.6971H123.262L123.485 26.1311H123.549C123.963 25.5575 124.441 25.1432 124.983 24.8883C125.524 24.6333 126.162 24.5059 126.863 24.5059C128.265 24.5059 129.317 24.9839 130.081 25.9399C130.846 26.8959 131.229 28.2343 131.229 29.9551C131.229 31.6759 130.846 33.0144 130.081 33.9704C129.285 34.8945 128.201 35.3725 126.863 35.3725ZM126.608 25.8443C125.524 25.8443 124.76 26.1311 124.282 26.7366C123.804 27.342 123.549 28.2662 123.549 29.5727V29.9233C123.549 31.3891 123.804 32.4408 124.282 33.0781C124.76 33.7154 125.556 34.0341 126.64 34.0341C127.532 34.0341 128.265 33.6517 128.775 32.9188C129.285 32.1858 129.54 31.1661 129.54 29.8914C129.54 28.5848 129.285 27.5651 128.775 26.864C128.265 26.1948 127.564 25.8443 126.608 25.8443Z" fill="#F9F9F9"/>
<path d="M134.893 35.1814H133.3V20.2676H134.893V35.1814Z" fill="#F9F9F9"/>
<path d="M144.039 35.1813L143.72 33.6836H143.657C143.147 34.3528 142.605 34.7989 142.095 35.022C141.585 35.2451 140.916 35.3725 140.151 35.3725C139.1 35.3725 138.303 35.1176 137.698 34.5758C137.092 34.0341 136.805 33.2693 136.805 32.2814C136.805 30.1463 138.494 29.0628 141.904 28.9354L143.689 28.8716V28.2343C143.689 27.4058 143.497 26.8003 143.147 26.4179C142.796 26.0355 142.223 25.8443 141.458 25.8443C140.597 25.8443 139.578 26.0992 138.494 26.641L138.016 25.43C138.526 25.1432 139.1 24.9201 139.705 24.7608C140.311 24.6015 140.948 24.5059 141.553 24.5059C142.796 24.5059 143.72 24.7927 144.326 25.3344C144.931 25.8761 145.218 26.7684 145.218 28.0112V35.1813H144.039ZM140.438 34.066C141.426 34.066 142.191 33.7792 142.764 33.2374C143.338 32.6957 143.625 31.9309 143.625 30.943V29.987L142.032 30.0507C140.757 30.0826 139.865 30.3057 139.291 30.6562C138.717 31.0067 138.462 31.5485 138.462 32.2814C138.462 32.855 138.622 33.3012 138.972 33.588C139.323 33.9066 139.801 34.066 140.438 34.066Z" fill="#F9F9F9"/>
<path d="M146.142 24.6968H147.831L150.126 30.6878C150.636 32.0581 150.954 33.0459 151.05 33.6514H151.114C151.209 33.3327 151.369 32.7591 151.623 31.9943C151.878 31.1977 152.771 28.7758 154.237 24.7286H155.957L151.464 36.6469C151.018 37.826 150.508 38.6545 149.903 39.1644C149.297 39.6743 148.564 39.8974 147.704 39.8974C147.226 39.8974 146.748 39.8336 146.27 39.738V38.4633C146.62 38.5271 147.003 38.5908 147.449 38.5908C148.532 38.5908 149.329 37.9853 149.775 36.7425L150.349 35.2448L146.142 24.6968Z" fill="#F9F9F9"/>
<path d="M97.3858 25.6531C97.8956 26.0674 98.9472 26.9597 98.9472 28.6168C98.9472 30.242 98.0231 31.0068 97.099 31.7397C96.8121 32.0265 96.4935 32.3452 96.4935 32.8232C96.4935 33.3012 96.8121 33.5562 97.0671 33.7792L97.8638 34.3847C98.8198 35.2132 99.712 35.9462 99.712 37.4758C99.712 39.5472 97.7044 41.6185 93.9441 41.6185C90.7574 41.6185 89.2278 40.0889 89.2278 38.4637C89.2278 37.667 89.6102 36.5517 90.9167 35.7868C92.287 34.9583 94.1353 34.8308 95.1232 34.7671C94.8045 34.3847 94.454 33.9704 94.454 33.2694C94.454 32.8869 94.5496 32.6639 94.6771 32.4089C94.4221 32.4408 94.199 32.4408 93.976 32.4408C91.6497 32.4408 90.3431 30.72 90.3431 28.9992C90.3431 27.9794 90.7893 26.8641 91.7453 26.0674C92.9881 25.0476 94.4859 24.8564 95.6649 24.8564H100.19L98.7879 25.6531H97.3858ZM95.8243 35.4044C95.6331 35.3726 95.5375 35.3726 95.3144 35.3726C95.1232 35.3726 93.9441 35.4044 93.02 35.7231C92.542 35.8824 91.1398 36.4242 91.1398 37.9857C91.1398 39.5472 92.6694 40.6625 94.9957 40.6625C97.0989 40.6625 98.2143 39.6428 98.2143 38.3043C98.2143 37.189 97.5132 36.5835 95.8243 35.4044ZM96.4616 31.2299C96.9715 30.72 97.0033 30.0189 97.0033 29.6365C97.0033 28.0432 96.0473 25.5894 94.2309 25.5894C93.6573 25.5894 93.0518 25.8762 92.7013 26.3223C92.3189 26.7685 92.2233 27.3739 92.2233 27.9475C92.2233 29.4134 93.0837 31.8672 94.9639 31.8672C95.5375 31.8672 96.1111 31.5804 96.4616 31.2299Z" fill="#F9F9F9"/>
<path d="M83.5554 35.0536C80.0819 35.0536 78.2017 32.3449 78.2017 29.8911C78.2017 27.0231 80.5599 24.5693 83.8741 24.5693C87.0926 24.5693 89.1003 27.0868 89.1003 29.7318C89.1321 32.313 87.1245 35.0536 83.5554 35.0536ZM86.296 33.269C86.8377 32.568 86.9652 31.6757 86.9652 30.8471C86.9652 28.9033 86.041 25.2385 83.3323 25.2385C82.5994 25.2385 81.8983 25.5253 81.3566 25.9715C80.4962 26.7363 80.3368 27.6923 80.3368 28.6483C80.3368 30.8153 81.4203 34.3844 84.0653 34.3844C84.9257 34.4163 85.7861 33.9701 86.296 33.269Z" fill="#F9F9F9"/>
<path d="M71.669 35.0536C68.1955 35.0536 66.3154 32.3449 66.3154 29.8911C66.3154 27.0231 68.6735 24.5693 71.9877 24.5693C75.2063 24.5693 77.2139 27.0868 77.2139 29.7318C77.2458 32.313 75.2381 35.0536 71.669 35.0536ZM74.4096 33.269C74.9513 32.568 75.0788 31.6757 75.0788 30.8471C75.0788 28.9033 74.1547 25.2385 71.446 25.2385C70.713 25.2385 70.0119 25.5253 69.4702 25.9715C68.6098 26.7363 68.4505 27.6923 68.4505 28.6483C68.4505 30.8153 69.5339 34.3844 72.1789 34.3844C73.0393 34.4163 73.8997 33.9701 74.4096 33.269Z" fill="#F9F9F9"/>
<path d="M64.6582 34.7031L61.5034 35.4361C60.2287 35.6273 59.0815 35.8185 57.8705 35.8185C51.7839 35.8185 49.4576 31.3571 49.4576 27.8517C49.4576 23.5815 52.74 19.5981 58.3486 19.5981C59.5276 19.5981 60.6748 19.7893 61.7265 20.0762C63.3835 20.5542 64.1484 21.0959 64.6264 21.4464L62.8099 23.1991L62.0451 23.3903L62.5869 22.498C61.8221 21.7651 60.4836 20.4267 57.8705 20.4267C54.397 20.4267 51.7521 23.0717 51.7521 26.9276C51.7521 31.0703 54.7476 34.9581 59.5595 34.9581C60.9616 34.9581 61.6946 34.6713 62.3638 34.4163V30.8472L59.0496 31.0384L60.8023 30.0824H65.4868L64.9132 30.6241C64.7538 30.7516 64.722 30.8153 64.6901 30.9747C64.6582 31.1659 64.6582 31.8032 64.6582 32.0263V34.7031Z" fill="#F9F9F9"/>
<path d="M104.365 34.0658C103.632 34.002 103.472 33.8746 103.472 33.0142V32.7592V20.5541C103.472 20.5223 103.472 20.4585 103.472 20.4267C103.568 19.6619 103.791 19.5344 104.46 19.1201H101.337L99.6801 19.9168H101.369V32.7911V33.524C101.369 33.9702 101.273 34.0339 100.764 34.7031H104.651L105.48 34.2251C105.098 34.1614 104.747 34.1295 104.365 34.0658Z" fill="#F9F9F9"/>
<path d="M113.319 34.2889C113.064 34.4164 112.841 34.5757 112.586 34.6713C111.853 34.99 111.12 35.0856 110.451 35.0856C109.75 35.0856 108.667 35.0537 107.551 34.2252C105.99 33.1417 105.321 31.2615 105.321 29.6045C105.321 26.2266 108.093 24.5376 110.324 24.5376C111.12 24.5376 111.917 24.7288 112.586 25.1431C113.67 25.876 113.957 26.8002 114.116 27.31L108.985 29.4133L107.296 29.5407C107.838 32.3132 109.718 33.9384 111.821 33.9384C112.937 33.9384 113.734 33.556 114.498 33.1736L113.319 34.2889ZM111.28 27.7562C111.694 27.5968 111.917 27.4694 111.917 27.1507C111.917 26.2903 110.929 25.2705 109.75 25.2705C108.858 25.2705 107.233 25.9397 107.233 28.2979C107.233 28.6803 107.265 29.0627 107.296 29.4451L111.28 27.7562Z" fill="#F9F9F9"/>
<path d="M115.454 24.7292V26.1632H115.263V24.7292H114.785V24.5698H115.901V24.7292H115.454Z" fill="#F9F9F9"/>
<path d="M117.398 26.1627V24.6968L116.952 26.1627H116.825L116.378 24.6968V26.1627H116.219V24.5693H116.506L116.92 25.844L117.334 24.5693H117.621V26.1627H117.398Z" fill="#F9F9F9"/>
<path d="M53.8553 15.2968H52.7718C52.7718 15.1375 52.6762 14.7232 52.4531 14.0222H50.8598C50.6367 14.7232 50.5411 15.1375 50.5411 15.2968H49.5214C49.5214 15.2012 49.7763 14.4683 50.318 13.098C50.8598 11.7277 51.1147 10.9629 51.1147 10.8354H52.4213C52.4213 10.9629 52.6762 11.6959 53.1542 13.0661C53.6003 14.4364 53.8553 15.1694 53.8553 15.2968ZM52.2619 13.3529C51.8795 12.1739 51.6883 11.5365 51.6883 11.4409H51.6246C51.6246 11.5365 51.4334 12.1739 51.0191 13.3529H52.2619Z" fill="#F9F9FA"/>
<path d="M58.253 15.296H57.3926C57.3926 15.2004 57.0739 14.7224 56.4365 13.7982C55.7673 12.8422 55.4168 12.2049 55.3212 11.8543H55.2575C55.3212 12.3642 55.3531 12.8104 55.3531 13.2246C55.3531 13.7982 55.3531 14.4674 55.4168 15.296H54.5883C54.6201 14.5949 54.652 13.7982 54.652 12.9697C54.652 12.1412 54.6201 11.4401 54.5883 10.8346H55.608C55.608 10.9621 55.8948 11.4401 56.4684 12.2686C57.0739 13.1609 57.4244 13.7664 57.4882 14.085H57.5519C57.4882 13.5752 57.4563 13.129 57.4563 12.7148C57.4563 12.1093 57.4244 11.4719 57.3926 10.8027H58.253C58.2211 11.3763 58.1892 12.0774 58.1892 12.9378C58.2211 13.8301 58.2211 14.5949 58.253 15.296Z" fill="#F9F9FA"/>
<path d="M63.2242 12.9063C63.2242 13.5437 63.0012 14.1173 62.5869 14.5953C62.1726 15.0733 61.599 15.3282 60.8342 15.3282C60.4837 15.3282 60.0375 15.3282 59.4321 15.2963C59.4639 14.5953 59.4639 13.8305 59.4639 12.9701C59.4639 12.1415 59.4639 11.4404 59.4321 10.835H60.0375C60.1331 10.835 60.2925 10.835 60.4837 10.835C60.6749 10.835 60.8024 10.835 60.8661 10.835C61.6946 10.835 62.3001 11.0262 62.6506 11.4404C63.033 11.8547 63.2242 12.3327 63.2242 12.9063ZM62.2682 13.0657C62.2682 12.6195 62.1408 12.269 61.8858 11.9503C61.6309 11.6635 61.2485 11.5042 60.7068 11.5042C60.6111 11.5042 60.4837 11.5042 60.2925 11.536C60.3243 11.9822 60.3243 12.4602 60.3243 12.9701C60.3243 13.5118 60.3243 14.0535 60.3562 14.5953C60.5155 14.6271 60.643 14.6271 60.8024 14.6271C61.2804 14.6271 61.6628 14.4678 61.8858 14.181C62.1726 13.8623 62.2682 13.5118 62.2682 13.0657Z" fill="#F9F9FA"/>
<path d="M67.7812 15.2963H66.7615C66.5065 14.4997 66.2835 13.9898 66.156 13.7986C66.0285 13.6074 65.7736 13.5118 65.4868 13.5118C65.3593 13.5118 65.2319 13.5118 65.1044 13.5118C65.1044 14.0854 65.1044 14.6909 65.1362 15.2963H64.1802C64.2121 14.5953 64.2121 13.8305 64.2121 12.9701C64.2121 12.1415 64.2121 11.4404 64.1802 10.835H64.7857C64.8494 10.835 65.0088 10.835 65.2 10.835C65.4231 10.835 65.6143 10.835 65.8055 10.835C66.8571 10.835 67.3669 11.1855 67.3669 11.9184C67.3669 12.492 67.0801 12.8745 66.4747 13.0975V13.1613C66.6977 13.225 66.9208 13.4162 67.0801 13.703C67.2713 13.9579 67.4944 14.4997 67.7812 15.2963ZM66.5065 12.1415C66.5065 11.6954 66.2197 11.4723 65.6143 11.4723C65.3912 11.4723 65.2 11.4723 65.0407 11.536C65.0725 11.8866 65.0725 12.3646 65.0725 12.9063C65.2 12.9063 65.2956 12.9063 65.3912 12.9063C66.156 12.9063 66.5065 12.6514 66.5065 12.1415Z" fill="#F9F9FA"/>
<path d="M72.6888 13.0018C72.6888 13.7029 72.4657 14.2765 72.0514 14.7545C71.6372 15.2006 71.0954 15.4556 70.4581 15.4556C69.8526 15.4556 69.3427 15.2325 68.9603 14.8182C68.5461 14.404 68.3549 13.8622 68.3549 13.193C68.3549 12.4919 68.5779 11.9183 68.9922 11.4403C69.4065 10.9942 69.9482 10.7393 70.5856 10.7393C71.191 10.7393 71.7009 10.9623 72.0833 11.3766C72.4976 11.7909 72.6888 12.3326 72.6888 13.0018ZM71.7646 13.0974C71.7646 12.6194 71.6372 12.237 71.4141 11.9502C71.1592 11.6634 70.8724 11.5041 70.5218 11.5041C70.2031 11.5041 69.9163 11.6634 69.6614 11.9502C69.4383 12.237 69.3109 12.6194 69.3109 13.0974C69.3109 13.5754 69.4383 13.9578 69.6933 14.2446C69.9482 14.5314 70.235 14.6908 70.5856 14.6908C70.9042 14.6908 71.191 14.5314 71.446 14.2446C71.6372 13.926 71.7646 13.5436 71.7646 13.0974Z" fill="#F9F9FA"/>
<path d="M74.6326 15.2963H73.6766C73.7085 14.5953 73.7085 13.7986 73.7085 12.9701C73.7085 12.1415 73.7085 11.4404 73.6766 10.835H74.6326C74.6008 11.4086 74.6008 12.1096 74.6008 12.9701C74.6008 13.8305 74.6008 14.5953 74.6326 15.2963Z" fill="#F9F9FA"/>
<path d="M79.604 12.9063C79.604 13.5437 79.3809 14.1173 78.9666 14.5953C78.5523 15.0733 77.9787 15.3282 77.2139 15.3282C76.8634 15.3282 76.4172 15.3282 75.8118 15.2963C75.8436 14.5953 75.8436 13.8305 75.8436 12.9701C75.8436 12.1415 75.8436 11.4404 75.8118 10.835H76.4172C76.5128 10.835 76.6722 10.835 76.8634 10.835C77.0546 10.835 77.1821 10.835 77.2458 10.835C78.0743 10.835 78.6798 11.0262 79.0303 11.4404C79.4127 11.8547 79.604 12.3327 79.604 12.9063ZM78.6479 13.0657C78.6479 12.6195 78.5205 12.269 78.2655 11.9503C78.0106 11.6635 77.6282 11.5042 77.0864 11.5042C76.9908 11.5042 76.8634 11.5042 76.6722 11.536C76.704 11.9822 76.704 12.4602 76.704 12.9701C76.704 13.5118 76.704 14.0535 76.7359 14.5953C76.8953 14.6271 77.0227 14.6271 77.1821 14.6271C77.6601 14.6271 78.0425 14.4678 78.2655 14.181C78.5523 13.8623 78.6479 13.5118 78.6479 13.0657Z" fill="#F9F9FA"/>
<path d="M86.1685 15.2963H85.085C85.085 15.137 84.9894 14.7227 84.7664 14.0217H83.173C82.9499 14.7227 82.8543 15.137 82.8543 15.2963H81.8346C81.8346 15.2007 82.0895 14.4678 82.6313 13.0975C83.173 11.7272 83.4279 10.9624 83.4279 10.835H84.7345C84.7345 10.9624 84.9894 11.6954 85.4674 13.0657C85.9455 14.4359 86.1685 15.1689 86.1685 15.2963ZM84.607 13.3525C84.2246 12.1734 84.0334 11.536 84.0334 11.4404H83.9697C83.9697 11.536 83.7785 12.1734 83.3642 13.3525H84.607Z" fill="#F9F9FA"/>
<path d="M90.1838 12.014C90.1838 12.5558 89.9926 12.9701 89.5783 13.225C89.164 13.4799 88.686 13.6074 88.0806 13.6074C87.985 13.6074 87.8894 13.6074 87.8575 13.6074C87.8575 14.0217 87.8575 14.5953 87.8894 15.2963H86.9333C86.9652 14.6271 86.9652 13.8623 86.9652 12.9701C86.9652 12.1415 86.9652 11.4404 86.9333 10.835H87.5388C87.6344 10.835 87.7938 10.835 88.0168 10.835C88.2718 10.835 88.463 10.835 88.6542 10.835C89.1003 10.835 89.4509 10.9306 89.7377 11.1218C90.0245 11.313 90.1838 11.5998 90.1838 12.014ZM89.2915 12.2052C89.2915 11.7272 88.9728 11.4723 88.3036 11.4723C88.1443 11.4723 87.985 11.5042 87.7938 11.536C87.8256 11.9822 87.8256 12.4602 87.8256 13.0019C87.8894 13.0019 87.9531 13.0019 88.0168 13.0019C88.8772 13.0019 89.2915 12.7151 89.2915 12.2052Z" fill="#F9F9FA"/>
<path d="M94.2628 12.014C94.2628 12.5558 94.0716 12.9701 93.6573 13.225C93.243 13.4799 92.765 13.6074 92.1595 13.6074C92.0639 13.6074 91.9683 13.6074 91.9365 13.6074C91.9365 14.0217 91.9365 14.5953 91.9683 15.2963H91.0123C91.0442 14.6271 91.0442 13.8623 91.0442 12.9701C91.0442 12.1415 91.0442 11.4404 91.0123 10.835H91.6178C91.7134 10.835 91.8727 10.835 92.0958 10.835C92.3507 10.835 92.5419 10.835 92.7331 10.835C93.1793 10.835 93.5298 10.9306 93.8166 11.1218C94.1353 11.313 94.2628 11.5998 94.2628 12.014ZM93.4024 12.2052C93.4024 11.7272 93.0837 11.4723 92.4145 11.4723C92.2551 11.4723 92.0958 11.5042 91.9046 11.536C91.9365 11.9822 91.9365 12.4602 91.9365 13.0019C92.0002 13.0019 92.0639 13.0019 92.1277 13.0019C92.9881 13.0019 93.4024 12.7151 93.4024 12.2052Z" fill="#F9F9FA"/>
<path d="M100.987 13.0018C100.987 13.7029 100.764 14.2765 100.349 14.7545C99.9351 15.2325 99.3933 15.4556 98.756 15.4556C98.1505 15.4556 97.6407 15.2325 97.2583 14.8182C96.844 14.404 96.6528 13.8622 96.6528 13.193C96.6528 12.4919 96.8758 11.9183 97.2901 11.4403C97.7044 10.9942 98.2461 10.7393 98.8835 10.7393C99.4889 10.7393 99.9988 10.9623 100.381 11.3766C100.795 11.7909 100.987 12.3326 100.987 13.0018ZM100.031 13.0974C100.031 12.6194 99.9032 12.237 99.6801 11.9502C99.4252 11.6634 99.1384 11.5041 98.7879 11.5041C98.4692 11.5041 98.1824 11.6634 97.9275 11.9502C97.7044 12.237 97.5769 12.6194 97.5769 13.0974C97.5769 13.5754 97.7044 13.9578 97.9593 14.2446C98.2143 14.5314 98.5011 14.6908 98.8516 14.6908C99.1703 14.6908 99.4571 14.5314 99.712 14.2446C99.9351 13.926 100.031 13.5436 100.031 13.0974Z" fill="#F9F9FA"/>
<path d="M105.639 15.296H104.779C104.779 15.2004 104.46 14.7224 103.823 13.7982C103.154 12.8422 102.803 12.2049 102.708 11.8543H102.644C102.708 12.3642 102.739 12.8104 102.739 13.2246C102.739 13.7982 102.739 14.4674 102.803 15.296H101.975C102.006 14.5949 102.038 13.7982 102.038 12.9697C102.038 12.1412 102.006 11.4401 101.975 10.8346H102.994C102.994 10.9621 103.281 11.4401 103.855 12.2686C104.46 13.1609 104.811 13.7664 104.875 14.085H104.938C104.875 13.5752 104.843 13.129 104.843 12.7148C104.843 12.1093 104.843 11.4719 104.779 10.8027H105.639C105.607 11.3763 105.576 12.0774 105.576 12.9378C105.576 13.8301 105.607 14.5949 105.639 15.296Z" fill="#F9F9FA"/>
<defs>
<linearGradient id="paint0_linear" x1="21.3291" y1="10.2652" x2="21.3291" y2="46.3715" gradientUnits="userSpaceOnUse">
<stop stop-color="#257CB0"/>
<stop offset="0.2863" stop-color="#4A93B5"/>
<stop offset="0.767" stop-color="#78BCBB"/>
<stop offset="1" stop-color="#89CFBD"/>
</linearGradient>
<linearGradient id="paint1_linear" x1="12.2257" y1="19.2258" x2="35.3228" y2="19.2258" gradientUnits="userSpaceOnUse">
<stop stop-color="#52C1AD"/>
<stop offset="1" stop-color="#DEE89A"/>
</linearGradient>
<linearGradient id="paint2_linear" x1="23.7741" y1="28.3179" x2="23.7741" y2="46.502" gradientUnits="userSpaceOnUse">
<stop stop-color="#EC413D"/>
<stop offset="0.1668" stop-color="#DA4452"/>
<stop offset="0.5748" stop-color="#B0487A"/>
<stop offset="0.8619" stop-color="#954A92"/>
<stop offset="1" stop-color="#8A4A9D"/>
</linearGradient>
<linearGradient id="paint3_linear" x1="37.0771" y1="23.4689" x2="37.0771" y2="33.1666" gradientUnits="userSpaceOnUse">
<stop stop-color="#F58879"/>
<stop offset="0.1194" stop-color="#F69079"/>
<stop offset="0.7128" stop-color="#FCB877"/>
<stop offset="1" stop-color="#FEC874"/>
</linearGradient>
</defs>
</svg>
