<svg width="126" height="36" viewBox="0 0 126 36" fill="none" xmlns="http://www.w3.org/2000/svg">
<path d="M48.6394 6.65589H45.5769V6.09579C45.5769 5.53568 45.408 5.04863 45.0704 4.63464C44.7328 4.22065 44.1782 4.02583 43.4065 4.02583C42.9966 4.02583 42.6348 4.09888 42.3937 4.22065C42.1284 4.34241 41.9114 4.51288 41.7667 4.7077C41.5979 4.92687 41.5014 5.14604 41.4291 5.41392C41.3809 5.6818 41.3326 5.94967 41.3326 6.2419C41.3326 6.58284 41.3568 6.85071 41.3809 7.09424C41.405 7.31341 41.4773 7.53258 41.5979 7.70305C41.7185 7.87352 41.8873 8.04399 42.1284 8.16575C42.3696 8.28751 42.6831 8.43363 43.0689 8.55539L45.408 9.31032C46.0833 9.52949 46.6379 9.77301 47.072 10.0409C47.4819 10.3331 47.8195 10.6497 48.0607 11.015C48.2777 11.4046 48.4224 11.843 48.5189 12.33C48.5912 12.8171 48.6394 13.3772 48.6394 14.0103C48.6394 14.7409 48.543 15.3984 48.3742 16.0316C48.2054 16.6404 47.8919 17.1762 47.506 17.6145C47.0961 18.0529 46.5414 18.4181 45.8421 18.686C45.1669 18.9539 44.3229 19.0757 43.3583 19.0757C42.6107 19.0757 41.9355 18.9783 41.2844 18.7591C40.6333 18.5399 40.1028 18.272 39.6205 17.8824C39.1623 17.5171 38.8006 17.0788 38.5353 16.5917C38.2701 16.1047 38.1254 15.5689 38.1254 14.9844V14.0591H41.188V14.8383C41.188 15.2767 41.3568 15.6907 41.6944 16.056C42.032 16.4212 42.5866 16.5917 43.3583 16.5917C43.8888 16.5917 44.2747 16.543 44.564 16.4212C44.8534 16.2995 45.0704 16.129 45.2392 15.9098C45.408 15.6907 45.5045 15.4228 45.5286 15.1062C45.5527 14.7896 45.5769 14.4487 45.5769 14.0591C45.5769 13.6207 45.5527 13.2311 45.5286 12.9388C45.4804 12.6466 45.408 12.4274 45.2875 12.2326C45.1428 12.0621 44.9499 11.916 44.7328 11.7943C44.4917 11.6725 44.2023 11.5507 43.8165 11.429L41.622 10.6984C40.2957 10.2601 39.4035 9.69996 38.9694 8.96938C38.5112 8.26316 38.2942 7.36212 38.2942 6.29061C38.2942 5.65744 38.4147 5.04863 38.6318 4.46417C38.8488 3.87971 39.1864 3.39266 39.6205 2.97867C40.0304 2.56468 40.5851 2.22374 41.2362 1.98022C41.8873 1.73669 42.659 1.61493 43.5753 1.61493C44.347 1.61493 45.0222 1.73669 45.6733 1.95586C46.3003 2.17504 46.8549 2.46727 47.3131 2.85691C48.2295 3.63619 48.6877 4.51288 48.6877 5.51133V6.65589H48.6394Z" fill="white"/>
<path d="M54.4511 18.879V4.024H50.8821V1.71051H61.0344V4.024H57.4895V18.879H54.4511Z" fill="white"/>
<path d="M63.3738 5.75311C63.3738 5.07124 63.5185 4.46243 63.832 3.92668C64.1213 3.39092 64.5313 2.95258 65.0377 2.61164C65.52 2.27071 66.0746 2.02718 66.6775 1.83236C67.2804 1.66189 67.9074 1.56448 68.5344 1.56448C69.1613 1.56448 69.7642 1.66189 70.3912 1.83236C70.9941 2.00283 71.5487 2.27071 72.0551 2.61164C72.5374 2.97693 72.9233 3.41527 73.2368 3.92668C73.5261 4.46243 73.6949 5.07124 73.6949 5.75311V14.8122C73.6949 15.5428 73.5503 16.1516 73.2368 16.663C72.9474 17.1744 72.5374 17.6128 72.0551 17.9294C71.5487 18.2946 70.9941 18.5382 70.3912 18.733C69.7883 18.9035 69.1613 19.0009 68.5344 19.0009C67.9074 19.0009 67.3045 18.9035 66.6775 18.733C66.0746 18.5625 65.52 18.2946 65.0377 17.9294C64.5313 17.5884 64.1455 17.1744 63.832 16.663C63.5426 16.1516 63.3738 15.5185 63.3738 14.8122V5.75311ZM66.4364 14.8122C66.4364 15.3967 66.6534 15.835 67.0634 16.1273C67.4733 16.4195 67.9556 16.5413 68.5102 16.5413C69.0649 16.5413 69.5472 16.3952 69.9571 16.1273C70.3671 15.835 70.5841 15.3967 70.5841 14.8122V5.75311C70.5841 5.16865 70.3671 4.73031 69.9571 4.43808C69.5472 4.14585 69.0649 4.02409 68.5102 4.02409C67.9556 4.02409 67.4733 4.1702 67.0634 4.43808C66.6534 4.73031 66.4364 5.16865 66.4364 5.75311V14.8122Z" fill="white"/>
<path d="M77.8425 18.879V1.71051H82.762C86.3792 1.71051 88.1637 3.39083 88.1637 6.75148C88.1637 7.77428 87.9708 8.62662 87.5849 9.33284C87.1991 10.0391 86.4998 10.5992 85.5352 11.0375L88.8389 18.879H85.6075L82.762 11.5489H80.9292V18.879H77.8425ZM80.9051 4.024V9.38155H82.6414C83.1719 9.38155 83.606 9.33284 83.9436 9.21108C84.2571 9.08932 84.5223 8.91885 84.6911 8.69968C84.86 8.4805 84.9564 8.18827 85.0288 7.87169C85.077 7.53076 85.1252 7.16547 85.1252 6.72712C85.1252 6.28878 85.1011 5.92349 85.0288 5.58256C84.9805 5.24162 84.86 4.97374 84.667 4.73022C84.2812 4.29187 83.5577 4.04835 82.4967 4.04835H80.9051V4.024Z" fill="white"/>
<path d="M92.1428 18.879V1.71051H95.2054V16.4194H101.282V18.879H92.1428Z" fill="white"/>
<path d="M104.779 18.879V1.71051H113.918V4.024H107.841V9.06496H113.123V11.3785H107.841V16.4194H113.918V18.879H104.779Z" fill="white"/>
<path d="M119.392 18.879V4.024H115.848V1.71051H126V4.024H122.455V18.879H119.392Z" fill="white"/>
<path d="M43.2618 30.7874V31.104C43.2618 32.4921 42.9724 33.7584 41.1156 33.7584C39.2105 33.7584 38.9211 32.4678 38.9211 31.0066V25.7952C38.9211 24.1149 39.7169 23.3356 41.1156 23.3356C42.9001 23.3356 43.2136 24.5045 43.2136 25.7952V26.1605H42.3213V25.7952C42.3213 24.8941 42.2008 24.0418 41.0674 24.0418C40.0063 24.0418 39.7893 24.7967 39.7893 25.8439V31.0553C39.7893 32.3216 40.1269 33.1009 41.1156 33.1009C42.2008 33.1009 42.3696 32.2486 42.3696 31.1527V30.8361H43.2618V30.7874Z" fill="#FFDD00"/>
<path d="M45.6494 30.0082L44.9983 33.6123H44.1301L46.0593 23.433H47.2892L49.3148 33.6123H48.4226L47.7232 30.0082H45.6494ZM47.6027 29.3263C47.0962 26.7206 46.7828 24.9428 46.6863 24.1149H46.6381C46.5898 24.8698 46.1317 27.232 45.7699 29.3263H47.6027Z" fill="#FFDD00"/>
<path d="M51.2442 28.7418V33.6123H50.4001V23.4573H52.1123C53.8486 23.4573 54.572 24.1392 54.572 25.7221V26.2335C54.572 27.4998 54.1379 28.1817 53.3904 28.4009C54.1621 28.6201 54.4756 29.1315 54.4756 30.4952C54.4756 31.3719 54.4514 32.9792 54.5961 33.6367H53.7762C53.6315 32.9792 53.6557 31.2501 53.6557 30.5683C53.6557 29.2045 53.4145 28.7662 52.1846 28.7662H51.2442V28.7418ZM51.2442 28.0843H52.2329C53.4386 28.0843 53.7039 27.3537 53.7039 26.2822V25.7465C53.7039 24.7237 53.3422 24.1149 52.0641 24.1149H51.22V28.0843H51.2442Z" fill="#FFDD00"/>
<path d="M59.3465 28.7418V33.6123H58.5024V23.4573H60.2146C61.9509 23.4573 62.6743 24.1392 62.6743 25.7221V26.2335C62.6743 27.4998 62.2402 28.1817 61.4927 28.4009C62.2644 28.6201 62.5778 29.1315 62.5778 30.4952C62.5778 31.3719 62.5537 32.9792 62.6984 33.6367H61.8544C61.7097 32.9792 61.7338 31.2501 61.7338 30.5683C61.7338 29.2045 61.4927 28.7662 60.2628 28.7662H59.3465V28.7418ZM59.3465 28.0843H60.3352C61.5409 28.0843 61.8062 27.3537 61.8062 26.2822V25.7465C61.8062 24.7237 61.4444 24.1149 60.1664 24.1149H59.3223V28.0843H59.3465Z" fill="#FFDD00"/>
<path d="M67.6904 28.4983H65.0377V32.9305H68.0039L67.8833 33.6123H64.1937V23.4573H67.8351V24.1392H65.0377V27.8164H67.6904V28.4983Z" fill="#FFDD00"/>
<path d="M69.089 33.6123V23.4573H70.15C70.8976 25.6491 72.658 31.2014 72.8991 32.2242H72.9233C72.875 30.7874 72.8268 29.3506 72.8268 27.6947V23.4573H73.6467V33.6123H72.6098C71.814 31.2258 70.0777 25.6004 69.7883 24.5288H69.7642C69.8365 25.7465 69.8848 27.5486 69.8848 29.375V33.6123H69.089Z" fill="#FFDD00"/>
<path d="M76.5406 24.1392H74.6597V23.4573H79.2656V24.1392H77.4088V33.6367H76.5647V24.1392H76.5406Z" fill="#FFDD00"/>
<path d="M80.447 30.0082L79.7959 33.6123H78.9277L80.8569 23.433H82.0868L84.1124 33.6123H83.2202L82.5209 30.0082H80.447ZM82.4003 29.3263C81.8939 26.7206 81.5804 24.9428 81.4839 24.1149H81.4357C81.3875 24.8698 80.9293 27.232 80.5675 29.3263H82.4003Z" fill="#FFDD00"/>
<path d="M85.1979 23.4573H86.0419V32.9548H88.9839L88.8633 33.6367H85.222V23.4573H85.1979Z" fill="#FFDD00"/>
<path d="M3.11084 13.8868V24.6506C3.11084 26.5257 4.09955 28.2547 5.71524 29.1801L15.0236 34.5864C16.6151 35.5118 18.5926 35.5118 20.1841 34.5864L29.4925 29.1801C31.1082 28.2547 32.0969 26.5257 32.0969 24.6506V13.8868C32.0969 12.0116 31.1082 10.2826 29.4925 9.3572L20.1841 3.95094C18.5926 3.02555 16.6151 3.02555 15.0236 3.95094L5.71524 9.3572C4.09955 10.2826 3.11084 12.0116 3.11084 13.8868Z" fill="#5F553A"/>
<path d="M1.66394 12.3525V23.1163C1.66394 24.9915 2.65265 26.7205 4.26834 27.6459L13.5767 33.0521C15.1683 33.9775 17.1457 33.9775 18.7372 33.0521L28.0456 27.6459C29.6613 26.7205 30.65 24.9915 30.65 23.1163V12.3525C30.65 10.4774 29.6613 8.74835 28.0456 7.82296L18.7614 2.39235C17.1457 1.46695 15.1924 1.46695 13.6008 2.39235L4.26834 7.7986C2.65265 8.74835 1.66394 10.4774 1.66394 12.3525Z" fill="#FFDD00"/>
<path d="M0 10.502V20.9736C0 22.8487 0.988708 24.5777 2.6044 25.5031L11.6716 30.7633C13.2632 31.6887 15.2406 31.6887 16.8322 30.7633L25.8993 25.5031C27.515 24.5777 28.5037 22.8487 28.5037 20.9736V10.502C28.5037 8.62687 27.515 6.89784 25.8993 5.97245L16.8322 0.71231C15.2165 -0.237437 13.2632 -0.237437 11.6716 0.71231L2.6044 5.9481C0.988708 6.89784 0 8.62687 0 10.502Z" fill="#5F553A"/>
<path d="M18.5684 14.2765C17.9173 14.0816 17.218 13.9599 16.5427 13.8625C15.8434 13.765 15.1682 13.692 14.5171 13.6433C12.9979 13.4972 11.7921 13.278 11.4786 13.0588C11.0687 12.7909 10.6587 11.963 11.9127 11.5246C12.3709 11.3542 12.9979 11.3298 13.7454 11.3298C14.3724 11.3298 15.0235 11.3785 15.6746 11.4759C16.3257 11.5733 16.9768 11.6951 17.5073 11.8656C18.0379 12.0117 18.906 12.3283 19.2677 12.5231C19.3159 12.5474 20.2323 9.69818 20.2323 9.69818C20.2323 9.69818 19.4606 9.30854 18.062 8.96761C17.4591 8.82149 16.7598 8.65102 15.964 8.52926C15.1682 8.4075 14.3242 8.33444 13.4078 8.33444C12.4191 8.33444 11.5269 8.4562 10.7311 8.72408C8.48839 9.4303 8.05432 10.2826 7.74083 10.8915C7.42733 11.5246 7.28265 12.2065 7.28265 12.9858C7.28265 13.9599 7.54791 14.7148 8.10255 15.2749C8.65719 15.835 9.33241 16.249 10.1523 16.5412C10.9722 16.8335 11.8645 17.0283 12.8049 17.15C13.7454 17.2718 14.6377 17.3692 15.4576 17.4423C16.2775 17.5397 17.0009 17.6614 17.5556 17.7589C18.3514 17.905 18.8337 19.0739 17.4591 19.6584C16.808 19.9506 15.9158 20.0967 14.5653 20.0967C13.866 20.0967 12.4191 19.9019 11.7439 19.7314C11.0687 19.5853 8.22312 18.733 7.90963 18.4894L6.82446 21.9718C6.84858 21.9962 6.89681 21.9962 6.92092 22.0205C7.25853 22.1667 8.19901 22.4832 8.75365 22.6537C9.33241 22.8242 11.6233 23.5304 14.6377 23.5304C16.0846 23.5304 17.2903 23.3843 18.279 23.0677C19.2436 22.7755 20.0394 22.3615 20.6182 21.8501C21.1969 21.3387 21.6069 20.7542 21.848 20.0967C22.0892 19.4392 22.2097 18.806 22.2097 18.1241C22.1856 16.4438 21.3898 15.1775 18.5684 14.2765Z" fill="white"/>
</svg>
