<svg width="126" height="36" viewBox="0 0 126 36" fill="none" xmlns="http://www.w3.org/2000/svg">
<path d="M48.6396 6.65586H45.577V6.09576C45.577 5.53565 45.4082 5.0486 45.0706 4.63461C44.733 4.22061 44.1783 4.02579 43.4066 4.02579C42.9967 4.02579 42.635 4.09885 42.3938 4.22061C42.1286 4.34238 41.9115 4.51284 41.7668 4.70766C41.598 4.92684 41.5016 5.14601 41.4292 5.41389C41.381 5.68176 41.3328 5.94964 41.3328 6.24187C41.3328 6.58281 41.3569 6.85068 41.381 7.09421C41.4051 7.31338 41.4775 7.53255 41.598 7.70302C41.7186 7.87349 41.8874 8.04396 42.1286 8.16572C42.3697 8.28748 42.6832 8.43359 43.069 8.55536L45.4082 9.31029C46.0834 9.52946 46.638 9.77298 47.0721 10.0409C47.482 10.3331 47.8197 10.6497 48.0608 11.015C48.2778 11.4046 48.4225 11.8429 48.519 12.33C48.5913 12.817 48.6396 13.3772 48.6396 14.0103C48.6396 14.7409 48.5431 15.3984 48.3743 16.0316C48.2055 16.6404 47.892 17.1761 47.5062 17.6145C47.0962 18.0528 46.5416 18.4181 45.8422 18.686C45.167 18.9539 44.323 19.0756 43.3584 19.0756C42.6108 19.0756 41.9356 18.9782 41.2845 18.7591C40.6334 18.5399 40.1029 18.272 39.6206 17.8824C39.1624 17.5171 38.8007 17.0787 38.5354 16.5917C38.2702 16.1046 38.1255 15.5689 38.1255 14.9844V14.059H41.1881V14.8383C41.1881 15.2766 41.3569 15.6906 41.6945 16.0559C42.0321 16.4212 42.5867 16.5917 43.3584 16.5917C43.8889 16.5917 44.2748 16.543 44.5642 16.4212C44.8535 16.2994 45.0706 16.129 45.2394 15.9098C45.4082 15.6906 45.5046 15.4228 45.5287 15.1062C45.5529 14.7896 45.577 14.4487 45.577 14.059C45.577 13.6207 45.5529 13.231 45.5287 12.9388C45.4805 12.6466 45.4082 12.4274 45.2876 12.2326C45.1429 12.0621 44.95 11.916 44.733 11.7942C44.4918 11.6725 44.2024 11.5507 43.8166 11.429L41.6221 10.6984C40.2958 10.26 39.4036 9.69992 38.9695 8.96935C38.5113 8.26313 38.2943 7.36209 38.2943 6.29058C38.2943 5.65741 38.4149 5.0486 38.6319 4.46414C38.8489 3.87968 39.1865 3.39263 39.6206 2.97864C40.0306 2.56465 40.5852 2.22371 41.2363 1.98019C41.8874 1.73666 42.6591 1.6149 43.5754 1.6149C44.3471 1.6149 45.0223 1.73666 45.6734 1.95583C46.3004 2.17501 46.8551 2.46724 47.3132 2.85688C48.2296 3.63616 48.6878 4.51284 48.6878 5.5113V6.65586H48.6396Z" fill="#5F553A"/>
<path d="M54.4513 18.879V4.02403H50.8823V1.71054H61.0347V4.02403H57.4898V18.879H54.4513Z" fill="#5F553A"/>
<path d="M63.374 5.75308C63.374 5.07121 63.5187 4.4624 63.8322 3.92665C64.1216 3.39089 64.5315 2.95255 65.038 2.61161C65.5203 2.27068 66.0749 2.02715 66.6778 1.83233C67.2806 1.66186 67.9076 1.56445 68.5346 1.56445C69.1616 1.56445 69.7645 1.66186 70.3914 1.83233C70.9943 2.0028 71.549 2.27068 72.0554 2.61161C72.5377 2.9769 72.9235 3.41524 73.237 3.92665C73.5264 4.4624 73.6952 5.07121 73.6952 5.75308V14.8122C73.6952 15.5428 73.5505 16.1516 73.237 16.663C72.9476 17.1744 72.5377 17.6127 72.0554 17.9293C71.549 18.2946 70.9943 18.5381 70.3914 18.733C69.7886 18.9034 69.1616 19.0008 68.5346 19.0008C67.9076 19.0008 67.3047 18.9034 66.6778 18.733C66.0749 18.5625 65.5203 18.2946 65.038 17.9293C64.5315 17.5884 64.1457 17.1744 63.8322 16.663C63.5428 16.1516 63.374 15.5184 63.374 14.8122V5.75308ZM66.4366 14.8122C66.4366 15.3967 66.6536 15.835 67.0636 16.1272C67.4736 16.4195 67.9558 16.5412 68.5105 16.5412C69.0651 16.5412 69.5474 16.3951 69.9574 16.1272C70.3673 15.835 70.5844 15.3967 70.5844 14.8122V5.75308C70.5844 5.16862 70.3673 4.73028 69.9574 4.43805C69.5474 4.14582 69.0651 4.02406 68.5105 4.02406C67.9558 4.02406 67.4736 4.17017 67.0636 4.43805C66.6536 4.73028 66.4366 5.16862 66.4366 5.75308V14.8122Z" fill="#5F553A"/>
<path d="M77.8425 18.879V1.71054H82.762C86.3792 1.71054 88.1637 3.39086 88.1637 6.75151C88.1637 7.77431 87.9708 8.62665 87.5849 9.33287C87.1991 10.0391 86.4998 10.5992 85.5352 11.0375L88.8389 18.879H85.6075L82.762 11.5489H80.9292V18.879H77.8425ZM80.9051 4.02403V9.38158H82.6414C83.1719 9.38158 83.606 9.33287 83.9436 9.21111C84.2571 9.08935 84.5223 8.91888 84.6911 8.69971C84.86 8.48053 84.9564 8.1883 85.0288 7.87172C85.077 7.53079 85.1252 7.1655 85.1252 6.72715C85.1252 6.28881 85.1011 5.92352 85.0288 5.58259C84.9805 5.24165 84.86 4.97377 84.667 4.73025C84.2812 4.2919 83.5577 4.04838 82.4967 4.04838H80.9051V4.02403Z" fill="#5F553A"/>
<path d="M92.1428 18.879V1.71054H95.2054V16.4194H101.282V18.879H92.1428Z" fill="#5F553A"/>
<path d="M104.779 18.879V1.71054H113.918V4.02403H107.841V9.06499H113.123V11.3785H107.841V16.4194H113.918V18.879H104.779Z" fill="#5F553A"/>
<path d="M119.393 18.879V4.02403H115.848V1.71054H126V4.02403H122.455V18.879H119.393Z" fill="#5F553A"/>
<path d="M43.2618 30.7875V31.104C43.2618 32.4921 42.9724 33.7585 41.1156 33.7585C39.2105 33.7585 38.9211 32.4678 38.9211 31.0066V25.7952C38.9211 24.1149 39.7169 23.3356 41.1156 23.3356C42.9001 23.3356 43.2136 24.5045 43.2136 25.7952V26.1605H42.3213V25.7952C42.3213 24.8942 42.2008 24.0418 41.0674 24.0418C40.0063 24.0418 39.7893 24.7967 39.7893 25.8439V31.0553C39.7893 32.3217 40.1269 33.1009 41.1156 33.1009C42.2008 33.1009 42.3696 32.2486 42.3696 31.1528V30.8362H43.2618V30.7875Z" fill="#5F553A"/>
<path d="M45.6494 30.0082L44.9983 33.6124H44.1301L46.0593 23.433H47.2892L49.3148 33.6124H48.4226L47.7232 30.0082H45.6494ZM47.6027 29.3263C47.0962 26.7206 46.7828 24.9429 46.6863 24.1149H46.6381C46.5898 24.8698 46.1317 27.232 45.7699 29.3263H47.6027Z" fill="#5F553A"/>
<path d="M51.2439 28.7419V33.6124H50.3999V23.4574H52.1121C53.8483 23.4574 54.5718 24.1392 54.5718 25.7221V26.2335C54.5718 27.4999 54.1377 28.1817 53.3901 28.4009C54.1618 28.6201 54.4753 29.1315 54.4753 30.4952C54.4753 31.3719 54.4512 32.9792 54.5959 33.6367H53.776C53.6313 32.9792 53.6554 31.2502 53.6554 30.5683C53.6554 29.2046 53.4143 28.7662 52.1844 28.7662H51.2439V28.7419ZM51.2439 28.0843H52.2326C53.4384 28.0843 53.7036 27.3538 53.7036 26.2823V25.7465C53.7036 24.7237 53.3419 24.1149 52.0638 24.1149H51.2198V28.0843H51.2439Z" fill="#5F553A"/>
<path d="M59.3465 28.7419V33.6124H58.5024V23.4574H60.2146C61.9509 23.4574 62.6743 24.1392 62.6743 25.7221V26.2335C62.6743 27.4999 62.2402 28.1817 61.4927 28.4009C62.2644 28.6201 62.5778 29.1315 62.5778 30.4952C62.5778 31.3719 62.5537 32.9792 62.6984 33.6367H61.8544C61.7097 32.9792 61.7338 31.2502 61.7338 30.5683C61.7338 29.2046 61.4927 28.7662 60.2628 28.7662H59.3465V28.7419ZM59.3465 28.0843H60.3352C61.5409 28.0843 61.8062 27.3538 61.8062 26.2823V25.7465C61.8062 24.7237 61.4444 24.1149 60.1664 24.1149H59.3223V28.0843H59.3465Z" fill="#5F553A"/>
<path d="M67.6905 28.4983H65.0379V32.9305H68.004L67.8834 33.6124H64.1938V23.4574H67.8352V24.1392H65.0379V27.8165H67.6905V28.4983Z" fill="#5F553A"/>
<path d="M69.0891 33.6124V23.4574H70.1502C70.8977 25.6491 72.6581 31.2015 72.8993 32.2243H72.9234C72.8751 30.7875 72.8269 29.3507 72.8269 27.6947V23.4574H73.6468V33.6124H72.6099C71.8141 31.2258 70.0778 25.6004 69.7884 24.5289H69.7643C69.8367 25.7465 69.8849 27.5486 69.8849 29.375V33.6124H69.0891Z" fill="#5F553A"/>
<path d="M76.5406 24.1392H74.6597V23.4574H79.2656V24.1392H77.4088V33.6367H76.5647V24.1392H76.5406Z" fill="#5F553A"/>
<path d="M80.447 30.0082L79.7959 33.6124H78.9277L80.8569 23.433H82.0868L84.1124 33.6124H83.2202L82.5209 30.0082H80.447ZM82.4003 29.3263C81.8939 26.7206 81.5804 24.9429 81.4839 24.1149H81.4357C81.3875 24.8698 80.9293 27.232 80.5675 29.3263H82.4003Z" fill="#5F553A"/>
<path d="M85.1978 23.4574H86.0418V32.9548H88.9838L88.8632 33.6367H85.2219V23.4574H85.1978Z" fill="#5F553A"/>
<path d="M3.11084 13.8868V24.6506C3.11084 26.5257 4.09955 28.2547 5.71524 29.1801L15.0236 34.5864C16.6151 35.5118 18.5926 35.5118 20.1841 34.5864L29.4925 29.1801C31.1082 28.2547 32.0969 26.5257 32.0969 24.6506V13.8868C32.0969 12.0116 31.1082 10.2826 29.4925 9.3572L20.1841 3.95094C18.5926 3.02555 16.6151 3.02555 15.0236 3.95094L5.71524 9.3572C4.09955 10.2826 3.11084 12.0116 3.11084 13.8868Z" fill="#5F553A"/>
<path d="M1.66382 12.3525V23.1163C1.66382 24.9914 2.65253 26.7205 4.26822 27.6459L13.5765 33.0521C15.1681 33.9775 17.1455 33.9775 18.7371 33.0521L28.0455 27.6459C29.6611 26.7205 30.6499 24.9914 30.6499 23.1163V12.3525C30.6499 10.4773 29.6611 8.74832 28.0455 7.82292L18.7612 2.39232C17.1455 1.46692 15.1922 1.46692 13.6007 2.39232L4.26822 7.79857C2.65253 8.74832 1.66382 10.4773 1.66382 12.3525Z" fill="#FFDD00"/>
<path d="M0 10.502V20.9736C0 22.8487 0.988708 24.5777 2.6044 25.5031L11.6716 30.7633C13.2632 31.6887 15.2406 31.6887 16.8322 30.7633L25.8993 25.5031C27.515 24.5777 28.5037 22.8487 28.5037 20.9736V10.502C28.5037 8.62687 27.515 6.89784 25.8993 5.97245L16.8322 0.71231C15.2165 -0.237437 13.2632 -0.237437 11.6716 0.71231L2.6044 5.94809C0.988708 6.89784 0 8.62687 0 10.502Z" fill="#5F553A"/>
<path d="M18.5684 14.2764C17.9173 14.0816 17.218 13.9599 16.5427 13.8625C15.8434 13.765 15.1682 13.692 14.5171 13.6433C12.9979 13.4972 11.7921 13.278 11.4786 13.0588C11.0687 12.7909 10.6587 11.963 11.9127 11.5246C12.3709 11.3542 12.9979 11.3298 13.7454 11.3298C14.3724 11.3298 15.0235 11.3785 15.6746 11.4759C16.3257 11.5733 16.9768 11.6951 17.5073 11.8656C18.0379 12.0117 18.906 12.3283 19.2677 12.5231C19.3159 12.5474 20.2323 9.69818 20.2323 9.69818C20.2323 9.69818 19.4606 9.30854 18.062 8.96761C17.4591 8.82149 16.7598 8.65102 15.964 8.52926C15.1682 8.4075 14.3242 8.33444 13.4078 8.33444C12.4191 8.33444 11.5269 8.4562 10.7311 8.72408C8.48839 9.4303 8.05432 10.2826 7.74083 10.8915C7.42733 11.5246 7.28265 12.2065 7.28265 12.9858C7.28265 13.9599 7.54791 14.7148 8.10255 15.2749C8.65719 15.835 9.33241 16.249 10.1523 16.5412C10.9722 16.8335 11.8645 17.0283 12.8049 17.15C13.7454 17.2718 14.6377 17.3692 15.4576 17.4423C16.2775 17.5397 17.0009 17.6614 17.5556 17.7589C18.3514 17.905 18.8337 19.0739 17.4591 19.6583C16.808 19.9506 15.9158 20.0967 14.5653 20.0967C13.866 20.0967 12.4191 19.9019 11.7439 19.7314C11.0687 19.5853 8.22312 18.733 7.90963 18.4894L6.82446 21.9718C6.84858 21.9962 6.89681 21.9962 6.92092 22.0205C7.25853 22.1667 8.19901 22.4832 8.75365 22.6537C9.33241 22.8242 11.6233 23.5304 14.6377 23.5304C16.0846 23.5304 17.2903 23.3843 18.279 23.0677C19.2436 22.7755 20.0394 22.3615 20.6181 21.8501C21.1969 21.3387 21.6069 20.7542 21.848 20.0967C22.0892 19.4392 22.2097 18.806 22.2097 18.1241C22.1856 16.4438 21.3898 15.1775 18.5684 14.2764Z" fill="white"/>
</svg>
