<?xml version="1.0" encoding="utf-8"?>
<!-- Generator: Adobe Illustrator 17.1.0, SVG Export Plug-In . SVG Version: 6.00 Build 0)  -->
<!DOCTYPE svg PUBLIC "-//W3C//DTD SVG 1.1//EN" "http://www.w3.org/Graphics/SVG/1.1/DTD/svg11.dtd">
<svg version="1.1" id="Layer_1" xmlns="http://www.w3.org/2000/svg" xmlns:xlink="http://www.w3.org/1999/xlink" x="0px" y="0px"
	 viewBox="94.4 109.8 776.4 775.7" enable-background="new 94.4 109.8 776.4 775.7" xml:space="preserve">
<g>
	<path fill="#EFCF06" d="M831.6,335.7l-187-186.8c-16.6-16.7-37.1-28.7-59.4-34.7c-22.3-6-45.9-5.8-68.4,0.5l-0.1,0l-255.1,67.7l0,0
		l0.2,1l-0.3-1c-22.7,6.2-43.4,18.3-60,34.9c-16.5,16.6-28.5,37.3-34.6,60l-68,254c-12.4,46.1,0.9,95.5,34.6,128.8l187,186.8
		c25.1,25.1,59,38.7,93.7,38.7c11.4,0,22.9-1.5,34.1-4.5l255.4-68.3c45.9-12,82-48.1,94.4-94.2l68-254
		C878.6,418.4,865.3,369.1,831.6,335.7z M864.3,464l-68,254c-12.2,45.4-47.8,81-93,92.8l-255.4,68.3l0.5,1.9l-0.5-1.9
		c-44.8,12-93.1-0.9-125.9-33.7l-1.2,1.2l1.2-1.2L135,658.6l-0.7,0.7l0.7-0.7c-33.2-32.8-46.3-81.4-34.1-126.9l68-254
		c12.1-45.2,47.8-81,93.1-93.4l-0.3-0.9l0.3,0.9l255.2-67.7l0,0c0,0,0,0,0,0l0.1,0c45.3-12.7,92.3-0.1,125.8,33.8l187,186.8
		C863.4,370,876.5,418.6,864.3,464z"/>
</g>
</svg>
