<svg width="23" height="19" viewBox="0 0 23 19" fill="none" xmlns="http://www.w3.org/2000/svg">
<path d="M11.4727 14.8436L11.4728 14.8436L11.4768 14.8428C12.2638 14.6771 13.0519 14.3872 13.7589 13.972C13.9958 13.8506 14.0406 13.6124 14.0406 13.4329V13.4144L14.0361 13.3965C13.982 13.1798 13.8178 13.0156 13.601 12.9614L13.6012 12.9609L13.5885 12.9588C11.1254 12.5616 9.17744 10.6543 8.70028 8.18901L8.70019 8.18856C8.22429 5.76941 9.37317 3.26553 11.479 1.95127C11.7143 1.82959 11.7589 1.59216 11.7589 1.41309V1.39463L11.7544 1.37671C11.7002 1.15999 11.536 0.99579 11.3193 0.941609L11.3123 0.93986L11.3052 0.93879C10.4769 0.814551 9.64449 0.813769 8.85039 0.980605C6.97549 1.31458 5.39469 2.3981 4.31503 3.93453C3.23158 5.47637 2.85697 7.39214 3.23105 9.22356C3.56494 11.0986 4.64851 12.6796 6.18505 13.7593C7.72931 14.8445 9.64534 15.1758 11.4727 14.8436ZM9.03375 2.04846C9.25325 1.99968 9.47257 1.96597 9.69174 1.94727C7.99038 3.5785 7.19921 6.00983 7.63132 8.3668C8.06454 10.7298 9.72482 12.6802 11.9068 13.5895C11.7004 13.6553 11.4941 13.7086 11.3051 13.7322L11.305 13.732L11.2972 13.7334C9.74541 14.012 8.15506 13.6935 6.84344 12.8191C5.53473 11.9467 4.659 10.5563 4.34023 9.00227C4.02251 7.45337 4.33986 5.86486 5.21363 4.55347C6.12838 3.24169 7.4798 2.36724 9.03135 2.04897L9.03135 2.04899L9.03375 2.04846Z" fill="black" stroke="black" stroke-width="0.3"/>
<path d="M17.0397 4.90939L17.0398 4.90913L17.0347 4.9084L15.9203 4.7492L15.4433 3.75558C15.3717 3.58972 15.1967 3.51238 15.0311 3.51238C14.8655 3.51238 14.6905 3.58972 14.6189 3.75558L14.1419 4.7492L13.0275 4.9084L13.0275 4.90813L13.0225 4.90939C12.8497 4.95258 12.7071 5.04321 12.6601 5.23098C12.6165 5.40534 12.6569 5.59191 12.7994 5.68966L13.5918 6.44243L13.3931 7.55516C13.3475 7.74083 13.4404 7.92337 13.5773 8.01463C13.7097 8.10289 13.892 8.15029 14.0756 8.0585L14.0756 8.0585L14.0763 8.05813L15.0719 7.54044L16.0614 8.05498C16.0926 8.08257 16.1333 8.09368 16.17 8.09892C16.2092 8.10452 16.2529 8.10452 16.2922 8.10452H16.2942C16.3876 8.10452 16.4782 8.05919 16.5556 8.02046L16.561 8.01775L16.5612 8.0181L16.5664 8.01463C16.7033 7.92337 16.7962 7.74083 16.7506 7.55516L16.5519 6.44243L17.3473 5.68681L17.3536 5.68077L17.3576 5.67292C17.4026 5.58292 17.4463 5.40769 17.4021 5.23098C17.3551 5.04321 17.2125 4.95258 17.0397 4.90939ZM15.6514 5.97857L15.6512 5.97838L15.6477 5.98191C15.5989 6.03068 15.5652 6.1004 15.5436 6.17064C15.5217 6.24157 15.5108 6.31783 15.5108 6.38397H15.5102L15.5114 6.39158L15.5775 6.82137L15.2236 6.62835C15.1923 6.60049 15.1515 6.58931 15.1146 6.58404C15.0754 6.57844 15.0317 6.57844 14.9924 6.57844H14.9904H14.9879C14.9491 6.57844 14.9149 6.57844 14.8803 6.58422C14.8436 6.59032 14.8083 6.60247 14.7643 6.62447L14.7643 6.62444L14.7627 6.62529L14.4032 6.82137L14.4687 6.39552C14.4923 6.32024 14.4784 6.23791 14.4513 6.16739C14.4234 6.0949 14.3789 6.02779 14.3331 5.98191L14.0361 5.68498L14.4647 5.61904C14.5402 5.61773 14.6105 5.5803 14.6683 5.5382C14.7276 5.49514 14.7808 5.44193 14.821 5.40171L14.822 5.4007L14.8277 5.39496L14.8314 5.38771L15.0311 4.98821L15.2293 5.38466C15.2791 5.52851 15.4213 5.61775 15.5976 5.61906L16.0127 5.68292L15.6514 5.97857Z" fill="black" stroke="black" stroke-width="0.1"/>
<path d="M21.9284 11.2249L21.9285 11.2246L21.9234 11.2239L20.8089 11.0647L20.332 10.0711C20.2603 9.90521 20.0854 9.82787 19.9198 9.82787C19.7542 9.82787 19.5792 9.90521 19.5076 10.0711L19.0306 11.0647L17.9162 11.2239L17.9162 11.2236L17.9111 11.2249C17.7384 11.2681 17.5957 11.3587 17.5488 11.5465C17.5052 11.7208 17.5455 11.9074 17.6881 12.0052L18.4805 12.7579L18.2818 13.8707C18.2362 14.0563 18.3291 14.2389 18.466 14.3301C18.5983 14.4184 18.7807 14.4658 18.9643 14.374L18.9643 14.374L18.965 14.3736L19.9605 13.8559L20.95 14.3705C20.9813 14.3981 21.0219 14.4092 21.0587 14.4144C21.0979 14.42 21.1416 14.42 21.1809 14.42H21.1829C21.2763 14.42 21.3669 14.3747 21.4443 14.3359L21.4497 14.3332L21.4499 14.3336L21.4551 14.3301C21.592 14.2389 21.6848 14.0563 21.6393 13.8707L21.4406 12.7579L22.2359 12.0023L22.245 11.9937L22.2489 11.9819C22.2697 11.9195 22.2911 11.8449 22.3019 11.7694C22.3126 11.695 22.3135 11.6157 22.2903 11.5446C22.2429 11.3581 22.1006 11.2679 21.9284 11.2249ZM20.4402 12.6995H20.4395L20.4409 12.7077L20.5055 13.0953L20.153 12.9031C20.1218 12.8752 20.0809 12.8641 20.044 12.8588C20.0048 12.8532 19.9611 12.8532 19.9218 12.8532H19.9198H19.9173C19.8786 12.8532 19.8444 12.8532 19.8097 12.859C19.773 12.8651 19.7377 12.8772 19.6937 12.8992L19.6937 12.8992L19.6921 12.9L19.3326 13.0961L19.3982 12.6703C19.4217 12.595 19.4079 12.5127 19.3807 12.4421C19.3529 12.3696 19.3083 12.3025 19.2625 12.2567L19.2625 12.2566L19.2603 12.2546L18.9731 11.9993L19.3941 11.9345C19.4696 11.9332 19.5399 11.8958 19.5978 11.8537C19.657 11.8106 19.7102 11.7574 19.7504 11.7172L19.7514 11.7162L19.7571 11.7105L19.7608 11.7032L19.9605 11.3037L20.1587 11.7002C20.2084 11.8438 20.3503 11.933 20.5263 11.9345L20.8763 11.9982L20.5771 12.2974C20.5283 12.3462 20.4946 12.4159 20.473 12.4861C20.4512 12.5571 20.4402 12.6333 20.4402 12.6995Z" fill="black" stroke="black" stroke-width="0.1"/>
<path d="M5.34638 14.8512L5.34645 14.851L5.34133 14.8502L4.22691 14.691L3.74997 13.6974C3.67832 13.5316 3.50336 13.4542 3.33775 13.4542C3.17214 13.4542 2.99718 13.5316 2.92552 13.6974L2.44858 14.691L1.33417 14.8502L1.33413 14.85L1.32911 14.8512C1.15635 14.8944 1.01372 14.985 0.966772 15.1728C0.923183 15.3472 0.963517 15.5337 1.10607 15.6315L1.89846 16.3843L1.69976 17.497C1.65419 17.6827 1.74704 17.8652 1.88394 17.9565L1.88372 17.9568L1.88931 17.9596L1.89471 17.9623C1.97213 18.001 2.06273 18.0464 2.15614 18.0464H2.15863C2.19736 18.0464 2.23155 18.0464 2.26622 18.0406C2.30287 18.0345 2.33823 18.0223 2.38223 18.0003L2.38223 18.0003L2.38293 18L3.37849 17.4823L4.37174 17.9988C4.51887 18.095 4.7051 18.0409 4.86767 17.9596L4.86785 17.9599L4.87305 17.9565C5.00994 17.8652 5.10279 17.6827 5.05723 17.497L4.85852 16.3843L5.65391 15.6286L5.65392 15.6287L5.65483 15.6278C5.78778 15.4948 5.83698 15.3127 5.78914 15.1691L5.78657 15.1614L5.7817 15.1549C5.65343 14.9839 5.5218 14.8951 5.34638 14.8512ZM3.99696 15.9219L3.99692 15.9219L3.99506 15.9237C3.94629 15.9725 3.91256 16.0422 3.89095 16.1125C3.86912 16.1834 3.85818 16.2597 3.85818 16.3258H3.85759L3.85876 16.3334L3.92488 16.7632L3.57102 16.5702C3.53973 16.5423 3.49884 16.5311 3.46196 16.5259C3.42277 16.5203 3.37905 16.5203 3.33973 16.5203H3.33775H3.33527C3.29653 16.5203 3.26234 16.5203 3.22766 16.5261C3.19101 16.5322 3.15566 16.5443 3.11166 16.5663L3.11165 16.5663L3.11008 16.5671L2.75061 16.7632L2.81613 16.3374C2.83971 16.2621 2.82583 16.1797 2.7987 16.1092C2.77082 16.0367 2.72631 15.9696 2.68044 15.9237L2.3835 15.6268L2.81211 15.5609C2.88758 15.5596 2.95785 15.5221 3.01573 15.48C3.07494 15.437 3.12815 15.3838 3.16837 15.3435L3.16938 15.3425L3.17637 15.3355L3.18018 15.3264L3.34188 14.9383L3.53597 15.3265C3.58572 15.4703 3.72793 15.5596 3.90426 15.5609L4.32603 15.6258L3.99696 15.9219Z" fill="black" stroke="black" stroke-width="0.1"/>
</svg>
