<svg width="45" height="45" viewBox="0 0 45 45" fill="none" xmlns="http://www.w3.org/2000/svg">
<path d="M4.3149 44.9598H6.47236V28.3783H2.15745V16.9746C2.21909 14.6322 4.12998 12.783 6.47236 12.8446H12.8831C15.2254 12.783 17.1363 14.6322 17.198 16.9746V28.3783H12.8831V44.9598H15.0405V30.5357H17.198V40.1518C17.198 41.323 17.9377 42.3093 19.0472 42.6791V44.9598H21.2047V42.8024H26.8141V44.9598H44.9983V32.1384H40.6834V30.3508C40.6834 29.2413 39.7588 28.3783 38.6492 28.3783H35.3206V27.3304C35.3206 25.851 34.1494 24.6798 32.67 24.6798H30.5125V19.8717C30.5125 18.7006 29.6496 17.7759 28.4784 17.7143H23.9785C22.8074 17.7759 21.9444 18.7006 21.9444 19.8717V24.6181H19.7869C19.602 24.6181 19.4171 24.6181 19.2321 24.6798V16.9746C19.1705 14.0158 17.1363 11.4885 14.2392 10.8721C16.7048 8.28315 16.6432 4.21481 14.0543 1.81079C11.4653 -0.593228 7.45862 -0.654869 4.99296 1.93407C2.58894 4.39973 2.58894 8.34479 4.99296 10.8721C2.09581 11.4885 0 14.0158 0 16.9746V30.5357H4.3149V44.9598ZM38.5876 30.5357V32.1384H33.2248V30.5357H38.5876ZM24.1018 19.8101H28.4167V24.6181H24.1018V19.8101ZM19.2938 30.5357V27.3304C19.2938 27.0222 19.5404 26.7756 19.8486 26.7756H32.67C32.9782 26.7756 33.2248 27.0222 33.2248 27.3304V28.3783H33.1015C31.9919 28.3783 31.129 29.2413 31.0673 30.3508V32.1384H26.7524V36.9464H28.9099V34.2959H42.8408V42.864H28.9099V39.1039H26.7524V40.7066H19.8486C19.5404 40.7066 19.2938 40.46 19.2938 40.1518V30.5357ZM9.61607 2.119C11.9585 2.119 13.931 4.02988 13.931 6.4339C13.931 8.83792 12.0201 10.7488 9.61607 10.7488C7.21206 10.7488 5.30117 8.83792 5.30117 6.4339C5.30117 4.02988 7.2737 2.119 9.61607 2.119Z" fill="black"/>
<path d="M24.1018 29.4261H21.9443V38.5491H24.1018V29.4261Z" fill="black"/>
</svg>
