<?xml version="1.0" encoding="utf-8"?>
<!-- Generator: Adobe Illustrator 17.1.0, SVG Export Plug-In . SVG Version: 6.00 Build 0)  -->
<!DOCTYPE svg PUBLIC "-//W3C//DTD SVG 1.1//EN" "http://www.w3.org/Graphics/SVG/1.1/DTD/svg11.dtd">
<svg version="1.1" id="Layer_1" xmlns="http://www.w3.org/2000/svg" xmlns:xlink="http://www.w3.org/1999/xlink" x="0px" y="0px"
	 viewBox="122.2 150.7 633.8 577.8" enable-background="new 122.2 150.7 633.8 577.8" xml:space="preserve">
<g>
	<path opacity= "0.3" fill="#5F553A" d="M741.6,386.5L636.3,204c-9.3-16.4-22.7-29.9-38.7-39.2c-16-9.2-34.3-14-53-13.8l-210.5-0.4h0v0
		c-38.1,0.2-73.7,20.9-92.7,53.8L136.5,386.2c-19.1,33.1-19.1,74.1,0,106.8l105.3,182.5l0,0c18.8,32.7,53.9,52.9,91.5,52.9
		c0,0,0.1,0,0.1,0l210.7,0c0.2,0,0.4,0,0.6,0c37.7,0,72.9-20.4,92-53.4l104.9-181.7C760.8,460.2,760.8,419.3,741.6,386.5z
		 M739.9,492.3L635,674c-18.7,32.4-53.2,52.4-90.2,52.4c-0.2,0-0.4,0-0.5,0l-210.7,0c0,0-0.1,0-0.1,0c-37,0-71.4-19.9-89.8-51.9l0,0
		l0,0L138.3,492c-18.8-32.1-18.8-72.3,0-104.8l104.9-181.7c18.7-32.4,53.6-52.6,91-52.8l210.5,0.4c37.5-0.5,71.1,18.9,89.9,51.9
		l105.3,182.5C758.7,419.7,758.7,459.8,739.9,492.3z"/>
</g>
</svg>
