<svg width="35" height="35" viewBox="0 0 35 35" fill="none" xmlns="http://www.w3.org/2000/svg">
<path d="M2.21519 0C0.886076 0 0 0.886076 0 2.21519C0 3.5443 0.886076 4.43038 2.21519 4.43038C3.5443 4.43038 4.43038 3.5443 4.43038 2.21519C4.87342 1.32911 3.5443 0 2.21519 0ZM17.7215 0C16.3924 0 15.5063 0.886076 15.5063 2.21519C15.5063 3.5443 16.3924 4.43038 17.7215 4.43038C19.0506 4.43038 19.9367 3.5443 19.9367 2.21519C19.9367 1.32911 19.0506 0 17.7215 0ZM32.7848 0C31.4557 0 30.5696 0.886076 30.5696 2.21519C30.5696 3.5443 31.4557 4.43038 32.7848 4.43038C34.1139 4.43038 35 3.5443 35 2.21519C35 1.32911 34.1139 0 32.7848 0ZM2.21519 6.2025C1.77215 6.2025 0.886076 6.64562 0.886076 7.5317V17.7215C0.886076 18.1646 0.886076 18.1646 0.886076 18.6076V28.7975C0.886076 29.2405 1.32911 30.1265 2.21519 30.1265C3.10126 30.1265 3.5443 29.6835 3.5443 28.7975V19.4936H16.3924V28.7975C16.3924 29.2405 16.8354 30.1265 17.7215 30.1265C18.1646 30.1265 19.0506 29.6835 19.0506 28.7975V19.4936H31.8987V28.7975C31.8987 29.2405 32.3418 30.1265 33.2278 30.1265C33.6709 30.1265 34.557 29.6835 34.557 28.7975V7.5317C34.557 7.08866 34.1139 6.2025 33.2278 6.2025C32.7848 6.2025 31.8987 6.64562 31.8987 7.5317V16.8354H18.6076V7.5317C18.6076 7.08866 18.1646 6.2025 17.2785 6.2025C16.8354 6.2025 15.9494 6.64562 15.9494 7.5317V16.8354H3.5443V7.5317C3.5443 6.64562 3.10126 6.2025 2.21519 6.2025ZM2.21519 30.5696C0.886076 30.5696 0 31.4557 0 32.7848C0 34.1139 0.886076 35 2.21519 35C3.5443 35 4.43038 34.1139 4.43038 32.7848C4.87342 31.4557 3.5443 30.5696 2.21519 30.5696ZM17.7215 30.5696C16.3924 30.5696 15.5063 31.4557 15.5063 32.7848C15.5063 34.1139 16.3924 35 17.7215 35C19.0506 35 19.9367 34.1139 19.9367 32.7848C19.9367 31.4557 19.0506 30.5696 17.7215 30.5696ZM32.7848 30.5696C31.4557 30.5696 30.5696 31.4557 30.5696 32.7848C30.5696 34.1139 31.4557 35 32.7848 35C34.1139 35 35 34.1139 35 32.7848C35 31.4557 34.1139 30.5696 32.7848 30.5696Z" fill="black"/>
</svg>
