<svg width="29" height="23" viewBox="0 0 29 23" fill="none" xmlns="http://www.w3.org/2000/svg">
<path d="M1.03571 18.8182C0.414286 18.8182 0 18.4 0 17.7727V9.4091C0 8.78183 0.414286 8.36365 1.03571 8.36365C1.65714 8.36365 2.07143 8.78183 2.07143 9.4091V17.7727C2.07143 18.4 1.65714 18.8182 1.03571 18.8182Z" fill="black"/>
<path d="M4.14286 14.6364H1.03571C0.414286 14.6364 0 14.2182 0 13.5909C0 12.9637 0.414286 12.5455 1.03571 12.5455H4.14286C4.76429 12.5455 5.17857 12.9637 5.17857 13.5909C5.17857 14.2182 4.76429 14.6364 4.14286 14.6364Z" fill="black"/>
<path d="M20.7141 23H10.3569C10.0462 23 9.7355 22.8955 9.52836 22.5818L6.73193 18.8182H4.14265C3.52122 18.8182 3.10693 18.4 3.10693 17.7727V8.36364C3.10693 7.73637 3.52122 7.31819 4.14265 7.31819H6.21408V5.22728C6.21408 4.60001 6.62836 4.18182 7.24979 4.18182H17.6069C17.9176 4.18182 18.2284 4.28637 18.4355 4.60001L22.2676 9.4091H22.7855V7.31819C22.7855 6.69091 23.1998 6.27273 23.8212 6.27273H25.8926C27.6534 6.27273 28.9998 7.63182 28.9998 9.4091V17.7727C28.9998 19.55 27.6534 20.9091 25.8926 20.9091H23.8212C23.1998 20.9091 22.7855 20.4909 22.7855 19.8636V17.7727H21.7498V21.9545C21.7498 22.5818 21.3355 23 20.7141 23ZM10.8748 20.9091H19.6784V16.7273C19.6784 16.1 20.0926 15.6818 20.7141 15.6818H23.8212C24.4426 15.6818 24.8569 16.1 24.8569 16.7273V18.8182H25.8926C26.5141 18.8182 26.9284 18.4 26.9284 17.7727V9.4091C26.9284 8.78182 26.5141 8.36364 25.8926 8.36364H24.8569V10.4546C24.8569 11.0818 24.4426 11.5 23.8212 11.5H21.7498C21.4391 11.5 21.1284 11.3955 20.9212 11.0818L17.0891 6.27273H8.2855V8.36364C8.2855 8.99091 7.87122 9.4091 7.24979 9.4091H5.17836V16.7273H7.24979C7.5605 16.7273 7.87122 16.8318 8.07836 17.1455L10.8748 20.9091Z" fill="black"/>
<path d="M16.5714 2.09091H8.28571C7.66429 2.09091 7.25 1.67273 7.25 1.04545C7.25 0.418182 7.66429 0 8.28571 0H16.5714C17.1929 0 17.6071 0.418182 17.6071 1.04545C17.6071 1.67273 17.1929 2.09091 16.5714 2.09091Z" fill="black"/>
<path d="M12.4288 6.27273C11.8074 6.27273 11.3931 5.85455 11.3931 5.22727V1.04545C11.3931 0.418182 11.8074 0 12.4288 0C13.0502 0 13.4645 0.418182 13.4645 1.04545V5.22727C13.4645 5.85455 13.0502 6.27273 12.4288 6.27273Z" fill="black"/>
</svg>
