<svg width="2407" height="1417" viewBox="0 0 2407 1417" fill="none" xmlns="http://www.w3.org/2000/svg">
<mask id="mask0" mask-type="alpha" maskUnits="userSpaceOnUse" x="0" y="0" width="2407" height="1417">
<rect width="2407" height="1417" fill="#C4C4C4"/>
</mask>
<g mask="url(#mask0)">
<g style="mix-blend-mode:multiply" filter="url(#filter0_f)">
<path d="M1169.77 616.078C1896.58 623.137 2162.98 47.6171 2159.44 411.433C2155.91 775.249 1871.89 1182.05 1145.08 1174.99C418.261 1167.94 246.48 761.36 250.013 397.544C253.546 33.7275 442.952 609.02 1169.77 616.078Z" fill="#19046F" fill-opacity="0.8"/>
</g>
<g style="mix-blend-mode:multiply" filter="url(#filter1_f)">
<path d="M1169.77 616.078C1896.58 623.137 2162.98 47.6172 2159.44 411.433C2155.91 775.25 1871.89 1182.05 1145.08 1174.99C418.261 1167.94 246.48 761.36 250.013 397.544C253.546 33.7276 442.952 609.02 1169.77 616.078Z" fill="black" fill-opacity="0.7"/>
</g>
</g>
<defs>
<filter id="filter0_f" x="42.5479" y="72.6853" width="2318.06" height="1312.09" filterUnits="userSpaceOnUse" color-interpolation-filters="sRGB">
<feFlood flood-opacity="0" result="BackgroundImageFix"/>
<feBlend mode="normal" in="SourceGraphic" in2="BackgroundImageFix" result="shape"/>
<feGaussianBlur stdDeviation="100" result="effect1_foregroundBlur"/>
</filter>
<filter id="filter1_f" x="42.5479" y="72.6853" width="2318.06" height="1312.09" filterUnits="userSpaceOnUse" color-interpolation-filters="sRGB">
<feFlood flood-opacity="0" result="BackgroundImageFix"/>
<feBlend mode="normal" in="SourceGraphic" in2="BackgroundImageFix" result="shape"/>
<feGaussianBlur stdDeviation="100" result="effect1_foregroundBlur"/>
</filter>
</defs>
</svg>
