<svg width="115" height="22" viewBox="0 0 115 22" fill="none" xmlns="http://www.w3.org/2000/svg">
<path d="M7.6137 9.78094C7.00116 9.77195 6.39302 9.8855 5.82498 10.1149C5.25694 10.3443 4.74046 10.6849 4.3059 11.1168C3.87134 11.5487 3.52745 12.063 3.29445 12.6297C3.06144 13.1964 2.94401 13.8039 2.94905 14.4166C2.93765 15.65 3.4166 16.8375 4.28052 17.7177C5.14445 18.5979 6.32259 19.0988 7.55576 19.1102C8.78894 19.1216 9.97613 18.6426 10.8562 17.7785C11.7362 16.9144 12.237 15.736 12.2484 14.5026C12.2604 13.8865 12.1493 13.2742 11.9217 12.7016C11.694 12.129 11.3545 11.6075 10.9229 11.1678C10.4912 10.7281 9.97624 10.379 9.40802 10.1408C8.8398 9.90267 8.22978 9.78033 7.6137 9.78094ZM7.58379 21.9869C5.57642 21.9909 3.64968 21.1971 2.22745 19.7802C0.805211 18.3633 0.00397998 16.4393 1.47873e-05 14.4316C-0.0039504 12.4238 0.789674 10.4967 2.2063 9.07414C3.62293 7.65162 5.54651 6.85023 7.55389 6.84626C9.27884 6.80191 10.96 7.39258 12.2783 8.50613V1.83302C12.2808 1.64812 12.3198 1.46554 12.3933 1.29584C12.4667 1.12615 12.5731 0.972708 12.7062 0.84441C12.8394 0.716113 12.9966 0.615504 13.1689 0.548409C13.3412 0.481315 13.525 0.449067 13.7099 0.453533H13.9453C14.1289 0.451062 14.3112 0.484785 14.4817 0.552776C14.6523 0.620767 14.8078 0.721694 14.9393 0.849794C15.0709 0.977894 15.1759 1.13066 15.2484 1.29936C15.3209 1.46806 15.3595 1.6494 15.3619 1.83302V13.31C15.3619 15.7886 15.1152 16.9176 14.2593 18.3345C13.5587 19.4665 12.5771 20.3979 11.4099 21.0379C10.2427 21.678 8.92972 22.0049 7.59874 21.9869" fill="#2A2A2A"/>
<path d="M24.5485 9.7799C23.3043 9.77293 22.1082 10.2598 21.2225 11.1338C20.3369 12.0077 19.8339 13.1974 19.824 14.4417C19.8319 15.6715 20.3277 16.8479 21.2024 17.7122C22.0771 18.5766 23.2591 19.0582 24.4887 19.0512C25.7018 19.0642 26.8707 18.5959 27.7393 17.7488C28.608 16.9017 29.1057 15.7448 29.1234 14.5315C29.1234 11.8659 27.1125 9.7799 24.5485 9.7799ZM24.4588 21.9859C20.138 21.9859 16.7554 18.6736 16.7554 14.4417C16.7537 13.432 16.9536 12.432 17.3434 11.5005C17.7331 10.5691 18.3049 9.7248 19.0252 9.01726C19.7455 8.30972 20.5998 7.75314 21.5379 7.38016C22.4761 7.00718 23.4793 6.82532 24.4887 6.84522C25.8137 6.82973 27.1203 7.15722 28.2815 7.79589C29.4426 8.43456 30.4189 9.36271 31.1156 10.4902C31.9715 11.9145 32.2369 13.0398 32.2369 15.5184V20.3784C32.2345 20.562 32.1959 20.7433 32.1234 20.912C32.0509 21.0807 31.9458 21.2335 31.8143 21.3616C31.6827 21.4897 31.5273 21.5906 31.3567 21.6586C31.1862 21.7266 31.0039 21.7603 30.8203 21.7579H30.5811C30.211 21.7619 29.8544 21.6189 29.5895 21.3603C29.3247 21.1017 29.1732 20.7485 29.1683 20.3784V20.2961C27.8715 21.4306 26.196 22.0364 24.4737 21.9934" fill="#2A2A2A"/>
<path d="M56.6152 21.9848C55.6213 21.9769 54.6386 21.7733 53.7233 21.3856C52.808 20.9979 51.978 20.4337 51.2808 19.7252C50.5835 19.0167 50.0326 18.1777 49.6595 17.2562C49.2863 16.3347 49.0983 15.3488 49.1062 14.3546C49.114 13.3605 49.3176 12.3776 49.7052 11.4621C50.0928 10.5467 50.657 9.71652 51.3653 9.0191C52.0737 8.32169 52.9125 7.77065 53.8338 7.39747C54.7551 7.02428 55.7409 6.83624 56.7348 6.8441C57.7708 6.83423 58.798 7.03388 59.7549 7.43103C59.9307 7.50392 60.0892 7.61288 60.2203 7.75088C60.3513 7.88887 60.452 8.05283 60.5157 8.23216C60.5795 8.41149 60.6049 8.6022 60.5904 8.79198C60.5759 8.98175 60.5217 9.16637 60.4314 9.3339L60.3268 9.5283C60.2067 9.755 60.0269 9.94452 59.8068 10.0763C59.5868 10.2081 59.3349 10.2772 59.0784 10.276C58.8714 10.277 58.6665 10.235 58.4766 10.1526C57.9327 9.90701 57.3428 9.77959 56.746 9.77877C55.5175 9.78668 54.3423 10.2822 53.4788 11.1563C52.6154 12.0305 52.1342 13.2118 52.1412 14.4406C52.1412 16.8968 54.2493 19.0501 56.6563 19.0501C57.3128 19.0525 57.9624 18.9162 58.5626 18.6501C58.751 18.567 58.9546 18.5237 59.1606 18.523C59.4066 18.5208 59.6488 18.5837 59.8627 18.7051C60.0767 18.8265 60.2548 19.0023 60.3791 19.2146L60.4912 19.4127C60.5862 19.5793 60.6449 19.7641 60.6635 19.955C60.6821 20.1458 60.6602 20.3385 60.5991 20.5203C60.5381 20.702 60.4393 20.8689 60.3092 21.0098C60.1792 21.1507 60.0209 21.2626 59.8446 21.338C58.8269 21.7699 57.7319 21.99 56.6264 21.9848" fill="#2A2A2A"/>
<path d="M73.2068 12.9669C72.9098 12.0387 72.3257 11.2288 71.5387 10.6542C70.7517 10.0795 69.8025 9.76987 68.8281 9.76987C67.8537 9.76987 66.9044 10.0795 66.1174 10.6542C65.3304 11.2288 64.7463 12.0387 64.4494 12.9669H73.2068ZM68.7776 21.9766C67.7161 21.9757 66.6658 21.7595 65.6903 21.341C64.3286 20.7687 63.165 19.8088 62.3443 18.5805C61.5237 17.3522 61.082 15.9097 61.0742 14.4324C61.1092 12.817 61.6472 11.2527 62.6132 9.95765C63.5792 8.66256 64.925 7.70114 66.4632 7.20737C68.0014 6.71361 69.6553 6.71209 71.1944 7.20304C72.7335 7.69399 74.0811 8.65294 75.0494 9.94626C75.9511 11.1328 76.4642 12.5691 76.5184 14.0585C76.531 14.2784 76.498 14.4986 76.4215 14.7051C76.3449 14.9116 76.2265 15.1001 76.0736 15.2586C75.9187 15.418 75.7333 15.5445 75.5285 15.6306C75.3236 15.7167 75.1035 15.7605 74.8813 15.7595H64.4157C64.6499 16.5237 65.0772 17.2146 65.6563 17.7653C66.2354 18.3161 66.9468 18.7081 67.7216 18.9036C68.4965 19.099 69.3086 19.0913 70.0796 18.881C70.8506 18.6708 71.5543 18.2652 72.1228 17.7035C72.256 17.5695 72.4145 17.4631 72.5889 17.3906C72.7634 17.3181 72.9505 17.2809 73.1395 17.2811C73.4355 17.2794 73.7245 17.3709 73.9655 17.5428L74.1487 17.6736C74.3121 17.7881 74.4488 17.9366 74.5495 18.1088C74.6501 18.2811 74.7123 18.4732 74.7317 18.6718C74.7497 18.8641 74.7255 19.058 74.661 19.2401C74.5964 19.4221 74.493 19.588 74.358 19.726C73.6301 20.4589 72.7606 21.0358 71.8024 21.4214C70.8443 21.8071 69.8176 21.9934 68.7851 21.9691" fill="#2A2A2A"/>
<path d="M96.6415 21.7546C96.2714 21.7586 95.9148 21.6156 95.6499 21.357C95.3851 21.0984 95.2336 20.7453 95.2286 20.3751V13.8665C95.2286 12.6029 95.1277 11.915 94.8549 11.3281C94.6462 10.8652 94.31 10.4714 93.8857 10.1927C93.4614 9.91393 92.9666 9.76184 92.459 9.75417C91.994 9.74283 91.5347 9.85784 91.1299 10.0869C90.7251 10.316 90.39 10.6506 90.1603 11.0551C89.7762 11.9196 89.5983 12.8616 89.6408 13.8066V20.3751C89.6388 20.5585 89.6007 20.7398 89.5286 20.9085C89.4565 21.0771 89.3518 21.2299 89.2206 21.3581C89.0893 21.4862 88.9341 21.5872 88.7637 21.6552C88.5934 21.7233 88.4113 21.757 88.2279 21.7546H87.9887C87.6218 21.7536 87.27 21.6084 87.0092 21.3504C86.7484 21.0923 86.5995 20.742 86.5946 20.3751V13.7506C86.5946 12.2552 86.4376 11.5075 85.9928 10.8757C85.7512 10.5287 85.4292 10.2454 85.0542 10.0501C84.6793 9.85478 84.2626 9.75324 83.8399 9.75417C82.4607 9.75417 81.0516 10.2589 81.0516 14.0123V20.3676C81.0491 20.5512 81.0105 20.7326 80.938 20.9013C80.8655 21.07 80.7605 21.2227 80.6289 21.3508C80.4974 21.4789 80.3419 21.5799 80.1714 21.6478C80.0008 21.7158 79.8186 21.7496 79.635 21.7471H79.3995C79.2159 21.7496 79.0337 21.7158 78.8631 21.6478C78.6926 21.5799 78.5371 21.4789 78.4055 21.3508C78.274 21.2227 78.169 21.07 78.0964 20.9013C78.0239 20.7326 77.9853 20.5512 77.9829 20.3676V13.6907C77.9829 11.4477 78.2969 10.2626 79.179 9.08125C79.706 8.40322 80.3758 7.84949 81.1408 7.45932C81.9057 7.06914 82.7471 6.85209 83.6053 6.82355C84.4635 6.79501 85.3175 6.95568 86.1067 7.29416C86.8959 7.63265 87.6009 8.14066 88.1719 8.78218C88.7441 8.13284 89.4546 7.62006 90.2511 7.28156C91.0475 6.94306 91.9098 6.78746 92.7743 6.82619C93.6388 6.86493 94.4837 7.09702 95.2467 7.50538C96.0098 7.91375 96.6715 8.48801 97.1834 9.18593C98.0244 10.4832 98.3047 11.657 98.3047 13.8365V20.3751C98.3023 20.5587 98.2637 20.74 98.1912 20.9087C98.1187 21.0774 98.0137 21.2302 97.8821 21.3583C97.7506 21.4864 97.5951 21.5873 97.4246 21.6553C97.254 21.7233 97.0717 21.757 96.8882 21.7546H96.6415Z" fill="#2A2A2A"/>
<path d="M111.686 12.9669C111.389 12.0387 110.805 11.2288 110.018 10.6542C109.231 10.0795 108.281 9.76987 107.307 9.76987C106.333 9.76987 105.383 10.0795 104.596 10.6542C103.809 11.2288 103.225 12.0387 102.928 12.9669H111.686ZM107.257 21.9766C106.195 21.9757 105.145 21.7595 104.169 21.341C102.808 20.7687 101.644 19.8088 100.823 18.5805C100.003 17.3522 99.561 15.9097 99.5532 14.4324C99.5882 12.817 100.126 11.2527 101.092 9.95765C102.058 8.66256 103.404 7.70114 104.942 7.20737C106.48 6.71361 108.134 6.71209 109.673 7.20304C111.212 7.69399 112.56 8.65294 113.528 9.94626C114.43 11.1328 114.943 12.5691 114.997 14.0585C115.01 14.2784 114.977 14.4986 114.9 14.7051C114.824 14.9116 114.705 15.1001 114.553 15.2586C114.398 15.418 114.212 15.5445 114.007 15.6306C113.803 15.7167 113.582 15.7605 113.36 15.7595H102.895C103.129 16.5237 103.556 17.2146 104.135 17.7653C104.714 18.3161 105.426 18.7081 106.201 18.9036C106.975 19.099 107.788 19.0913 108.559 18.881C109.33 18.6708 110.033 18.2652 110.602 17.7035C110.736 17.5679 110.895 17.4604 111.071 17.3872C111.247 17.314 111.435 17.2767 111.626 17.2773C111.922 17.2756 112.211 17.3672 112.452 17.539L112.635 17.6699C112.799 17.7843 112.935 17.9328 113.036 18.1051C113.137 18.2774 113.199 18.4694 113.218 18.668C113.235 18.8603 113.211 19.054 113.146 19.236C113.082 19.4179 112.979 19.5838 112.844 19.7223C112.117 20.4552 111.247 21.0321 110.289 21.4177C109.331 21.8034 108.304 21.9897 107.272 21.9653" fill="#2A2A2A"/>
<path d="M45.9439 21.726C45.5738 21.73 45.2172 21.587 44.9523 21.3284C44.6875 21.0698 44.536 20.7167 44.5311 20.3465V14.4174C44.5311 12.6528 44.3105 11.95 43.9031 11.2733C43.5976 10.7956 43.1763 10.4029 42.6783 10.1317C42.1804 9.86042 41.622 9.71946 41.055 9.72189H40.9092C40.3665 9.74276 39.8368 9.89477 39.3655 10.165C38.8943 10.4351 38.4955 10.8154 38.2031 11.2733C37.8032 11.9425 37.5827 12.6416 37.5827 14.4062V20.3465C37.5768 20.7164 37.425 21.0689 37.1603 21.3273C36.8957 21.5857 36.5397 21.729 36.1698 21.726H35.9605C35.5901 21.73 35.2331 21.5872 34.9676 21.3287C34.7022 21.0702 34.5499 20.717 34.5439 20.3465V14.2417C34.5439 12.2192 34.8205 10.9294 35.4971 9.8004C36.0288 8.99995 36.73 8.32619 37.5509 7.82681C38.3718 7.32743 39.2925 7.01464 40.2477 6.91059L40.5504 6.88815H40.9055H41.04C42.134 6.87529 43.2142 7.13305 44.1845 7.63853C45.1548 8.144 45.9852 8.88151 46.6017 9.78544C47.2857 10.9294 47.5661 12.2192 47.5661 14.2417V20.3465C47.5602 20.717 47.4078 21.0702 47.1424 21.3287C46.8769 21.5872 46.5199 21.73 46.1495 21.726H45.9439Z" fill="#2A2A2A"/>
</svg>
