<svg width="282" height="199" viewBox="0 0 282 199" fill="none" xmlns="http://www.w3.org/2000/svg">
<path d="M128.022 151.24C127.827 150.463 127.437 149.687 127.046 149.299C126.461 148.716 125.875 148.328 125.095 148.134C124.314 147.94 123.338 147.745 122.167 147.745H121.192V165.219H122.167C123.338 165.219 124.314 165.024 125.095 164.83C125.875 164.636 126.461 164.248 127.046 163.471C127.632 162.695 127.827 162.112 128.022 161.141C128.217 160.171 128.412 159.006 128.412 157.453V154.152C128.412 152.987 128.217 152.017 128.022 151.24ZM128.022 151.24C127.827 150.463 127.437 149.687 127.046 149.299C126.461 148.716 125.875 148.328 125.095 148.134C124.314 147.94 123.338 147.745 122.167 147.745H121.192V165.219H122.167C123.338 165.219 124.314 165.024 125.095 164.83C125.875 164.636 126.461 164.248 127.046 163.471C127.632 162.695 127.827 162.112 128.022 161.141C128.217 160.171 128.412 159.006 128.412 157.453V154.152C128.412 152.987 128.217 152.017 128.022 151.24ZM53.6678 152.793C53.4727 151.434 53.0824 150.463 52.692 149.687C52.3017 148.91 51.7163 148.328 50.9356 148.134C50.155 147.745 49.1792 147.745 48.0083 147.745H46.2519V181.333H48.0083C49.1792 181.333 50.155 181.139 50.9356 180.944C51.7163 180.556 52.3017 180.168 52.692 179.391C53.0824 178.615 53.4727 177.644 53.6678 176.285C53.863 174.926 53.863 173.373 53.863 171.237V157.841C53.863 155.9 53.6678 154.152 53.6678 152.793ZM53.6678 152.793C53.4727 151.434 53.0824 150.463 52.692 149.687C52.3017 148.91 51.7163 148.328 50.9356 148.134C50.155 147.745 49.1792 147.745 48.0083 147.745H46.2519V181.333H48.0083C49.1792 181.333 50.155 181.139 50.9356 180.944C51.7163 180.556 52.3017 180.168 52.692 179.391C53.0824 178.615 53.4727 177.644 53.6678 176.285C53.863 174.926 53.863 173.373 53.863 171.237V157.841C53.863 155.9 53.6678 154.152 53.6678 152.793ZM22.8332 151.822H22.6381L19.5156 173.179H25.9557L22.8332 151.822ZM22.8332 151.822H22.6381L19.5156 173.179H25.9557L22.8332 151.822ZM22.8332 151.822H22.6381L19.5156 173.179H25.9557L22.8332 151.822ZM53.6678 152.793C53.4727 151.434 53.0824 150.463 52.692 149.687C52.3017 148.91 51.7163 148.328 50.9356 148.134C50.155 147.745 49.1792 147.745 48.0083 147.745H46.2519V181.333H48.0083C49.1792 181.333 50.155 181.139 50.9356 180.944C51.7163 180.556 52.3017 180.168 52.692 179.391C53.0824 178.615 53.4727 177.644 53.6678 176.285C53.863 174.926 53.863 173.373 53.863 171.237V157.841C53.863 155.9 53.6678 154.152 53.6678 152.793ZM128.022 151.24C127.827 150.463 127.437 149.687 127.046 149.299C126.461 148.716 125.875 148.328 125.095 148.134C124.314 147.94 123.338 147.745 122.167 147.745H121.192V165.219H122.167C123.338 165.219 124.314 165.024 125.095 164.83C125.875 164.636 126.461 164.248 127.046 163.471C127.632 162.695 127.827 162.112 128.022 161.141C128.217 160.171 128.412 159.006 128.412 157.453V154.152C128.412 152.987 128.217 152.017 128.022 151.24ZM128.022 151.24C127.827 150.463 127.437 149.687 127.046 149.299C126.461 148.716 125.875 148.328 125.095 148.134C124.314 147.94 123.338 147.745 122.167 147.745H121.192V165.219H122.167C123.338 165.219 124.314 165.024 125.095 164.83C125.875 164.636 126.461 164.248 127.046 163.471C127.632 162.695 127.827 162.112 128.022 161.141C128.217 160.171 128.412 159.006 128.412 157.453V154.152C128.412 152.987 128.217 152.017 128.022 151.24ZM53.6678 152.793C53.4727 151.434 53.0824 150.463 52.692 149.687C52.3017 148.91 51.7163 148.328 50.9356 148.134C50.155 147.745 49.1792 147.745 48.0083 147.745H46.2519V181.333H48.0083C49.1792 181.333 50.155 181.139 50.9356 180.944C51.7163 180.556 52.3017 180.168 52.692 179.391C53.0824 178.615 53.4727 177.644 53.6678 176.285C53.863 174.926 53.863 173.373 53.863 171.237V157.841C53.863 155.9 53.6678 154.152 53.6678 152.793ZM22.8332 151.822H22.6381L19.5156 173.179H25.9557L22.8332 151.822ZM22.8332 151.822H22.6381L19.5156 173.179H25.9557L22.8332 151.822ZM53.6678 152.793C53.4727 151.434 53.0824 150.463 52.692 149.687C52.3017 148.91 51.7163 148.328 50.9356 148.134C50.155 147.745 49.1792 147.745 48.0083 147.745H46.2519V181.333H48.0083C49.1792 181.333 50.155 181.139 50.9356 180.944C51.7163 180.556 52.3017 180.168 52.692 179.391C53.0824 178.615 53.4727 177.644 53.6678 176.285C53.863 174.926 53.863 173.373 53.863 171.237V157.841C53.863 155.9 53.6678 154.152 53.6678 152.793ZM128.022 151.24C127.827 150.463 127.437 149.687 127.046 149.299C126.461 148.716 125.875 148.328 125.095 148.134C124.314 147.94 123.338 147.745 122.167 147.745H121.192V165.219H122.167C123.338 165.219 124.314 165.024 125.095 164.83C125.875 164.636 126.461 164.248 127.046 163.471C127.632 162.695 127.827 162.112 128.022 161.141C128.217 160.171 128.412 159.006 128.412 157.453V154.152C128.412 152.987 128.217 152.017 128.022 151.24ZM128.022 151.24C127.827 150.463 127.437 149.687 127.046 149.299C126.461 148.716 125.875 148.328 125.095 148.134C124.314 147.94 123.338 147.745 122.167 147.745H121.192V165.219H122.167C123.338 165.219 124.314 165.024 125.095 164.83C125.875 164.636 126.461 164.248 127.046 163.471C127.632 162.695 127.827 162.112 128.022 161.141C128.217 160.171 128.412 159.006 128.412 157.453V154.152C128.412 152.987 128.217 152.017 128.022 151.24ZM53.6678 152.793C53.4727 151.434 53.0824 150.463 52.692 149.687C52.3017 148.91 51.7163 148.328 50.9356 148.134C50.155 147.745 49.1792 147.745 48.0083 147.745H46.2519V181.333H48.0083C49.1792 181.333 50.155 181.139 50.9356 180.944C51.7163 180.556 52.3017 180.168 52.692 179.391C53.0824 178.615 53.4727 177.644 53.6678 176.285C53.863 174.926 53.863 173.373 53.863 171.237V157.841C53.863 155.9 53.6678 154.152 53.6678 152.793ZM22.8332 151.822H22.6381L19.5156 173.179H25.9557L22.8332 151.822ZM22.8332 151.822H22.6381L19.5156 173.179H25.9557L22.8332 151.822ZM53.6678 152.793C53.4727 151.434 53.0824 150.463 52.692 149.687C52.3017 148.91 51.7163 148.328 50.9356 148.134C50.155 147.745 49.1792 147.745 48.0083 147.745H46.2519V181.333H48.0083C49.1792 181.333 50.155 181.139 50.9356 180.944C51.7163 180.556 52.3017 180.168 52.692 179.391C53.0824 178.615 53.4727 177.644 53.6678 176.285C53.863 174.926 53.863 173.373 53.863 171.237V157.841C53.863 155.9 53.6678 154.152 53.6678 152.793ZM128.022 151.24C127.827 150.463 127.437 149.687 127.046 149.299C126.461 148.716 125.875 148.328 125.095 148.134C124.314 147.94 123.338 147.745 122.167 147.745H121.192V165.219H122.167C123.338 165.219 124.314 165.024 125.095 164.83C125.875 164.636 126.461 164.248 127.046 163.471C127.632 162.695 127.827 162.112 128.022 161.141C128.217 160.171 128.412 159.006 128.412 157.453V154.152C128.412 152.987 128.217 152.017 128.022 151.24ZM128.022 151.24C127.827 150.463 127.437 149.687 127.046 149.299C126.461 148.716 125.875 148.328 125.095 148.134C124.314 147.94 123.338 147.745 122.167 147.745H121.192V165.219H122.167C123.338 165.219 124.314 165.024 125.095 164.83C125.875 164.636 126.461 164.248 127.046 163.471C127.632 162.695 127.827 162.112 128.022 161.141C128.217 160.171 128.412 159.006 128.412 157.453V154.152C128.412 152.987 128.217 152.017 128.022 151.24ZM53.6678 152.793C53.4727 151.434 53.0824 150.463 52.692 149.687C52.3017 148.91 51.7163 148.328 50.9356 148.134C50.155 147.745 49.1792 147.745 48.0083 147.745H46.2519V181.333H48.0083C49.1792 181.333 50.155 181.139 50.9356 180.944C51.7163 180.556 52.3017 180.168 52.692 179.391C53.0824 178.615 53.4727 177.644 53.6678 176.285C53.863 174.926 53.863 173.373 53.863 171.237V157.841C53.863 155.9 53.6678 154.152 53.6678 152.793ZM22.8332 151.822H22.6381L19.5156 173.179H25.9557L22.8332 151.822ZM22.8332 151.822H22.6381L19.5156 173.179H25.9557L22.8332 151.822ZM53.6678 152.793C53.4727 151.434 53.0824 150.463 52.692 149.687C52.3017 148.91 51.7163 148.328 50.9356 148.134C50.155 147.745 49.1792 147.745 48.0083 147.745H46.2519V181.333H48.0083C49.1792 181.333 50.155 181.139 50.9356 180.944C51.7163 180.556 52.3017 180.168 52.692 179.391C53.0824 178.615 53.4727 177.644 53.6678 176.285C53.863 174.926 53.863 173.373 53.863 171.237V157.841C53.863 155.9 53.6678 154.152 53.6678 152.793ZM128.022 151.24C127.827 150.463 127.437 149.687 127.046 149.299C126.461 148.716 125.875 148.328 125.095 148.134C124.314 147.94 123.338 147.745 122.167 147.745H121.192V165.219H122.167C123.338 165.219 124.314 165.024 125.095 164.83C125.875 164.636 126.461 164.248 127.046 163.471C127.632 162.695 127.827 162.112 128.022 161.141C128.217 160.171 128.412 159.006 128.412 157.453V154.152C128.412 152.987 128.217 152.017 128.022 151.24ZM128.022 151.24C127.827 150.463 127.437 149.687 127.046 149.299C126.461 148.716 125.875 148.328 125.095 148.134C124.314 147.94 123.338 147.745 122.167 147.745H121.192V165.219H122.167C123.338 165.219 124.314 165.024 125.095 164.83C125.875 164.636 126.461 164.248 127.046 163.471C127.632 162.695 127.827 162.112 128.022 161.141C128.217 160.171 128.412 159.006 128.412 157.453V154.152C128.412 152.987 128.217 152.017 128.022 151.24ZM53.6678 152.793C53.4727 151.434 53.0824 150.463 52.692 149.687C52.3017 148.91 51.7163 148.328 50.9356 148.134C50.155 147.745 49.1792 147.745 48.0083 147.745H46.2519V181.333H48.0083C49.1792 181.333 50.155 181.139 50.9356 180.944C51.7163 180.556 52.3017 180.168 52.692 179.391C53.0824 178.615 53.4727 177.644 53.6678 176.285C53.863 174.926 53.863 173.373 53.863 171.237V157.841C53.863 155.9 53.6678 154.152 53.6678 152.793ZM22.8332 151.822H22.6381L19.5156 173.179H25.9557L22.8332 151.822ZM272.828 129.884H8.97716C3.90311 129.884 0 133.961 0 138.815V190.069C0 195.117 4.09827 199 8.97716 199H272.828C277.902 199 281.805 194.923 281.805 190.069V138.815C282 133.767 277.902 129.884 272.828 129.884ZM27.9073 185.798L26.7363 178.032H18.9301L17.7592 185.798H11.1239L19.1253 142.892H26.7363L34.7377 185.798H27.9073ZM60.6934 170.655C60.6934 173.179 60.4983 175.314 60.108 176.867C59.7176 178.615 59.1322 179.974 58.3516 181.139C57.5709 182.303 56.7903 183.08 55.8145 183.857C54.8388 184.439 53.863 185.021 52.8872 185.216C51.9114 185.41 50.7405 185.604 49.5695 185.798C48.3986 185.798 47.4228 185.992 46.4471 185.992H39.6166V142.892H46.4471C47.4228 142.892 48.5938 142.892 49.5695 143.086C50.7405 143.086 51.7163 143.28 52.8872 143.668C53.863 144.057 55.0339 144.445 55.8145 145.027C56.7903 145.61 57.5709 146.58 58.3516 147.745C59.1322 148.91 59.5225 150.269 60.108 152.017C60.4983 153.764 60.6934 155.9 60.6934 158.423V170.655ZM79.6235 185.798H72.2076L64.4014 142.892H71.0367L75.7204 176.867H76.1107L80.7945 142.892H87.4298L79.6235 185.798ZM108.897 185.798H92.699V142.892H108.702V147.94H99.3343V160.753H106.555V165.801H99.3343V180.556H109.092V185.798H108.897ZM129.388 185.798L123.729 169.684H121.192V185.798H114.752V142.892H121.777C122.558 142.892 123.534 142.892 124.509 143.086C125.485 143.086 126.461 143.28 127.437 143.668C128.412 143.862 129.388 144.251 130.169 144.833C131.145 145.416 131.925 145.998 132.511 146.969C133.291 147.94 133.682 148.91 134.267 150.463C134.657 151.822 134.853 153.57 134.853 155.511V156.482C134.853 159.782 134.462 162.5 133.487 164.442C132.511 166.578 131.145 167.937 129.388 168.907L136.219 185.992H129.388V185.798ZM159.637 148.134H152.807V185.992H146.367V148.134H139.341V143.086H159.833V148.134H159.637ZM171.737 185.798H165.102V142.892H171.737V185.798ZM198.083 180.556C197.693 181.721 196.912 182.886 195.936 183.662C194.961 184.439 193.985 185.216 192.619 185.604C191.253 185.992 190.082 186.38 188.325 186.38C186.374 186.38 184.812 186.186 183.446 185.604C182.08 185.021 181.104 184.439 180.324 183.468C179.543 182.692 178.958 181.721 178.763 180.556C178.372 179.391 178.372 178.421 178.372 177.256C178.372 176.285 178.372 175.508 178.567 174.732C178.567 173.955 178.763 173.179 179.153 172.208H184.227V174.343C184.227 175.508 184.227 176.479 184.422 177.45C184.617 178.421 184.812 179.003 185.203 179.78C185.593 180.362 185.983 180.75 186.569 181.139C187.154 181.527 187.74 181.527 188.52 181.527C189.691 181.527 190.667 181.139 191.448 180.556C192.033 179.974 192.424 178.809 192.424 177.644C192.424 177.061 192.424 176.285 192.228 175.702C192.033 175.12 192.033 174.538 191.838 173.955C191.643 173.373 191.253 172.79 190.862 172.208C190.472 171.625 189.887 170.849 189.301 170.266L182.471 162.112C181.3 160.559 180.324 159.006 179.738 157.453C179.153 155.9 178.763 154.152 178.763 152.405C178.763 151.046 178.958 149.687 179.348 148.522C179.738 147.357 180.519 146.386 181.3 145.416C182.08 144.639 183.251 143.862 184.422 143.474C185.593 142.892 186.959 142.698 188.52 142.698C190.472 142.698 192.033 142.892 193.204 143.474C194.57 144.057 195.546 144.639 196.327 145.61C197.107 146.58 197.693 147.551 197.888 148.522C198.278 149.493 198.278 150.658 198.278 151.822C198.278 152.793 198.278 153.57 198.083 154.346C197.888 155.123 197.693 155.9 197.498 156.87H192.424V154.929C192.424 152.599 192.033 150.852 191.448 149.687C190.862 148.522 189.691 147.94 188.13 147.94C186.959 147.94 185.983 148.328 185.398 148.91C184.812 149.493 184.422 150.463 184.422 151.628C184.422 152.211 184.422 152.793 184.617 153.181C184.617 153.764 184.812 154.152 185.008 154.54C185.203 154.929 185.398 155.317 185.593 155.705C185.788 156.094 186.179 156.482 186.374 156.87L193.985 165.995C195.351 167.742 196.522 169.49 197.107 171.237C197.693 172.984 198.278 174.732 198.278 176.479C198.669 177.838 198.473 179.197 198.083 180.556ZM211.744 185.798H205.304V142.892H211.744V185.798ZM241.212 185.798H235.943L225.6 157.841H225.405C225.405 158.618 225.6 159.394 225.6 160.365C225.795 161.336 225.795 162.306 225.795 163.471C225.795 164.636 225.99 165.995 225.99 167.742C225.99 169.296 225.99 171.237 225.99 173.373V185.992H220.136V142.892H225.405L235.943 171.625H236.138C236.138 170.849 235.943 170.266 235.943 169.296C235.943 168.519 235.748 167.548 235.748 166.578C235.748 165.607 235.553 164.442 235.553 163.083C235.553 161.724 235.553 160.365 235.553 158.618V142.892H241.408V185.798H241.212ZM270.095 185.798H265.802L265.021 181.721C264.241 183.274 263.265 184.439 262.094 185.216C261.118 185.992 259.752 186.186 258.386 186.186C257.801 186.186 257.215 186.186 256.63 185.992C256.044 185.992 255.264 185.604 254.483 185.216C253.702 184.827 253.117 184.439 252.336 183.662C251.751 183.08 250.97 182.109 250.58 181.139C249.994 180.168 249.604 178.809 249.214 177.256C248.824 175.702 248.628 173.761 248.628 171.625V156.482C248.628 154.346 248.824 152.405 249.214 151.046C249.604 149.493 249.994 148.134 250.58 147.163C251.165 146.192 251.751 145.221 252.531 144.639C253.312 144.057 254.093 143.474 254.873 143.28C255.654 142.892 256.435 142.698 257.41 142.698C258.191 142.503 258.972 142.503 259.752 142.503C261.509 142.503 263.07 142.698 264.241 143.28C265.412 143.668 266.388 144.445 267.168 145.221C267.949 145.998 268.534 146.969 268.729 148.134C269.12 149.299 269.315 150.463 269.315 151.628C269.315 152.599 269.315 153.376 269.12 154.152C268.925 154.929 268.925 155.705 268.729 156.676H263.46V154.735C263.46 150.075 262.094 147.745 259.557 147.745C258.972 147.745 258.191 147.94 257.801 148.134C257.41 148.328 256.825 148.716 256.63 149.299C256.239 149.881 256.044 150.658 255.849 151.434C255.654 152.405 255.654 153.57 255.654 154.929V174.343C255.654 175.702 255.654 176.867 255.849 177.644C256.044 178.615 256.239 179.197 256.63 179.78C257.02 180.362 257.41 180.75 257.801 180.944C258.386 181.139 258.972 181.333 259.557 181.333C260.338 181.333 260.923 181.139 261.509 180.75C262.094 180.362 262.484 179.78 262.875 179.197C263.265 178.615 263.46 177.838 263.655 176.867C263.851 175.897 263.85 174.926 263.85 173.955V168.325H260.533V164.054H270.291V185.798H270.095ZM127.046 149.299C126.461 148.716 125.875 148.328 125.095 148.134C124.314 147.94 123.338 147.745 122.167 147.745H121.192V165.219H122.167C123.338 165.219 124.314 165.024 125.095 164.83C125.875 164.636 126.461 164.248 127.046 163.471C127.632 162.695 127.827 162.112 128.022 161.141C128.217 160.171 128.412 159.006 128.412 157.453V154.152C128.412 152.987 128.217 152.017 128.022 151.24C127.827 150.463 127.437 149.687 127.046 149.299ZM52.692 149.687C52.3017 148.91 51.7163 148.328 50.9356 148.134C50.155 147.745 49.1792 147.745 48.0083 147.745H46.2519V181.333H48.0083C49.1792 181.333 50.155 181.139 50.9356 180.944C51.7163 180.556 52.3017 180.168 52.692 179.391C53.0824 178.615 53.4727 177.644 53.6678 176.285C53.863 174.926 53.863 173.373 53.863 171.237V157.841C53.863 155.9 53.863 154.152 53.6678 152.793C53.4727 151.628 53.0824 150.463 52.692 149.687ZM22.6381 151.822L19.5156 173.179H25.9557L22.8332 151.822H22.6381ZM22.8332 151.822H22.6381L19.5156 173.179H25.9557L22.8332 151.822ZM53.6678 152.793C53.4727 151.434 53.0824 150.463 52.692 149.687C52.3017 148.91 51.7163 148.328 50.9356 148.134C50.155 147.745 49.1792 147.745 48.0083 147.745H46.2519V181.333H48.0083C49.1792 181.333 50.155 181.139 50.9356 180.944C51.7163 180.556 52.3017 180.168 52.692 179.391C53.0824 178.615 53.4727 177.644 53.6678 176.285C53.863 174.926 53.863 173.373 53.863 171.237V157.841C53.863 155.9 53.6678 154.152 53.6678 152.793ZM128.022 151.24C127.827 150.463 127.437 149.687 127.046 149.299C126.461 148.716 125.875 148.328 125.095 148.134C124.314 147.94 123.338 147.745 122.167 147.745H121.192V165.219H122.167C123.338 165.219 124.314 165.024 125.095 164.83C125.875 164.636 126.461 164.248 127.046 163.471C127.632 162.695 127.827 162.112 128.022 161.141C128.217 160.171 128.412 159.006 128.412 157.453V154.152C128.412 152.987 128.217 152.017 128.022 151.24ZM128.022 151.24C127.827 150.463 127.437 149.687 127.046 149.299C126.461 148.716 125.875 148.328 125.095 148.134C124.314 147.94 123.338 147.745 122.167 147.745H121.192V165.219H122.167C123.338 165.219 124.314 165.024 125.095 164.83C125.875 164.636 126.461 164.248 127.046 163.471C127.632 162.695 127.827 162.112 128.022 161.141C128.217 160.171 128.412 159.006 128.412 157.453V154.152C128.412 152.987 128.217 152.017 128.022 151.24ZM53.6678 152.793C53.4727 151.434 53.0824 150.463 52.692 149.687C52.3017 148.91 51.7163 148.328 50.9356 148.134C50.155 147.745 49.1792 147.745 48.0083 147.745H46.2519V181.333H48.0083C49.1792 181.333 50.155 181.139 50.9356 180.944C51.7163 180.556 52.3017 180.168 52.692 179.391C53.0824 178.615 53.4727 177.644 53.6678 176.285C53.863 174.926 53.863 173.373 53.863 171.237V157.841C53.863 155.9 53.6678 154.152 53.6678 152.793ZM22.8332 151.822H22.6381L19.5156 173.179H25.9557L22.8332 151.822ZM22.8332 151.822H22.6381L19.5156 173.179H25.9557L22.8332 151.822ZM53.6678 152.793C53.4727 151.434 53.0824 150.463 52.692 149.687C52.3017 148.91 51.7163 148.328 50.9356 148.134C50.155 147.745 49.1792 147.745 48.0083 147.745H46.2519V181.333H48.0083C49.1792 181.333 50.155 181.139 50.9356 180.944C51.7163 180.556 52.3017 180.168 52.692 179.391C53.0824 178.615 53.4727 177.644 53.6678 176.285C53.863 174.926 53.863 173.373 53.863 171.237V157.841C53.863 155.9 53.6678 154.152 53.6678 152.793ZM128.022 151.24C127.827 150.463 127.437 149.687 127.046 149.299C126.461 148.716 125.875 148.328 125.095 148.134C124.314 147.94 123.338 147.745 122.167 147.745H121.192V165.219H122.167C123.338 165.219 124.314 165.024 125.095 164.83C125.875 164.636 126.461 164.248 127.046 163.471C127.632 162.695 127.827 162.112 128.022 161.141C128.217 160.171 128.412 159.006 128.412 157.453V154.152C128.412 152.987 128.217 152.017 128.022 151.24ZM128.022 151.24C127.827 150.463 127.437 149.687 127.046 149.299C126.461 148.716 125.875 148.328 125.095 148.134C124.314 147.94 123.338 147.745 122.167 147.745H121.192V165.219H122.167C123.338 165.219 124.314 165.024 125.095 164.83C125.875 164.636 126.461 164.248 127.046 163.471C127.632 162.695 127.827 162.112 128.022 161.141C128.217 160.171 128.412 159.006 128.412 157.453V154.152C128.412 152.987 128.217 152.017 128.022 151.24ZM53.6678 152.793C53.4727 151.434 53.0824 150.463 52.692 149.687C52.3017 148.91 51.7163 148.328 50.9356 148.134C50.155 147.745 49.1792 147.745 48.0083 147.745H46.2519V181.333H48.0083C49.1792 181.333 50.155 181.139 50.9356 180.944C51.7163 180.556 52.3017 180.168 52.692 179.391C53.0824 178.615 53.4727 177.644 53.6678 176.285C53.863 174.926 53.863 173.373 53.863 171.237V157.841C53.863 155.9 53.6678 154.152 53.6678 152.793ZM22.8332 151.822H22.6381L19.5156 173.179H25.9557L22.8332 151.822ZM22.8332 151.822H22.6381L19.5156 173.179H25.9557L22.8332 151.822ZM53.6678 152.793C53.4727 151.434 53.0824 150.463 52.692 149.687C52.3017 148.91 51.7163 148.328 50.9356 148.134C50.155 147.745 49.1792 147.745 48.0083 147.745H46.2519V181.333H48.0083C49.1792 181.333 50.155 181.139 50.9356 180.944C51.7163 180.556 52.3017 180.168 52.692 179.391C53.0824 178.615 53.4727 177.644 53.6678 176.285C53.863 174.926 53.863 173.373 53.863 171.237V157.841C53.863 155.9 53.6678 154.152 53.6678 152.793ZM128.022 151.24C127.827 150.463 127.437 149.687 127.046 149.299C126.461 148.716 125.875 148.328 125.095 148.134C124.314 147.94 123.338 147.745 122.167 147.745H121.192V165.219H122.167C123.338 165.219 124.314 165.024 125.095 164.83C125.875 164.636 126.461 164.248 127.046 163.471C127.632 162.695 127.827 162.112 128.022 161.141C128.217 160.171 128.412 159.006 128.412 157.453V154.152C128.412 152.987 128.217 152.017 128.022 151.24ZM128.022 151.24C127.827 150.463 127.437 149.687 127.046 149.299C126.461 148.716 125.875 148.328 125.095 148.134C124.314 147.94 123.338 147.745 122.167 147.745H121.192V165.219H122.167C123.338 165.219 124.314 165.024 125.095 164.83C125.875 164.636 126.461 164.248 127.046 163.471C127.632 162.695 127.827 162.112 128.022 161.141C128.217 160.171 128.412 159.006 128.412 157.453V154.152C128.412 152.987 128.217 152.017 128.022 151.24ZM53.6678 152.793C53.4727 151.434 53.0824 150.463 52.692 149.687C52.3017 148.91 51.7163 148.328 50.9356 148.134C50.155 147.745 49.1792 147.745 48.0083 147.745H46.2519V181.333H48.0083C49.1792 181.333 50.155 181.139 50.9356 180.944C51.7163 180.556 52.3017 180.168 52.692 179.391C53.0824 178.615 53.4727 177.644 53.6678 176.285C53.863 174.926 53.863 173.373 53.863 171.237V157.841C53.863 155.9 53.6678 154.152 53.6678 152.793ZM22.8332 151.822H22.6381L19.5156 173.179H25.9557L22.8332 151.822ZM22.8332 151.822H22.6381L19.5156 173.179H25.9557L22.8332 151.822ZM53.6678 152.793C53.4727 151.434 53.0824 150.463 52.692 149.687C52.3017 148.91 51.7163 148.328 50.9356 148.134C50.155 147.745 49.1792 147.745 48.0083 147.745H46.2519V181.333H48.0083C49.1792 181.333 50.155 181.139 50.9356 180.944C51.7163 180.556 52.3017 180.168 52.692 179.391C53.0824 178.615 53.4727 177.644 53.6678 176.285C53.863 174.926 53.863 173.373 53.863 171.237V157.841C53.863 155.9 53.6678 154.152 53.6678 152.793ZM128.022 151.24C127.827 150.463 127.437 149.687 127.046 149.299C126.461 148.716 125.875 148.328 125.095 148.134C124.314 147.94 123.338 147.745 122.167 147.745H121.192V165.219H122.167C123.338 165.219 124.314 165.024 125.095 164.83C125.875 164.636 126.461 164.248 127.046 163.471C127.632 162.695 127.827 162.112 128.022 161.141C128.217 160.171 128.412 159.006 128.412 157.453V154.152C128.412 152.987 128.217 152.017 128.022 151.24ZM128.022 151.24C127.827 150.463 127.437 149.687 127.046 149.299C126.461 148.716 125.875 148.328 125.095 148.134C124.314 147.94 123.338 147.745 122.167 147.745H121.192V165.219H122.167C123.338 165.219 124.314 165.024 125.095 164.83C125.875 164.636 126.461 164.248 127.046 163.471C127.632 162.695 127.827 162.112 128.022 161.141C128.217 160.171 128.412 159.006 128.412 157.453V154.152C128.412 152.987 128.217 152.017 128.022 151.24ZM53.6678 152.793C53.4727 151.434 53.0824 150.463 52.692 149.687C52.3017 148.91 51.7163 148.328 50.9356 148.134C50.155 147.745 49.1792 147.745 48.0083 147.745H46.2519V181.333H48.0083C49.1792 181.333 50.155 181.139 50.9356 180.944C51.7163 180.556 52.3017 180.168 52.692 179.391C53.0824 178.615 53.4727 177.644 53.6678 176.285C53.863 174.926 53.863 173.373 53.863 171.237V157.841C53.863 155.9 53.6678 154.152 53.6678 152.793ZM22.8332 151.822H22.6381L19.5156 173.179H25.9557L22.8332 151.822ZM93.0893 55.5259V17.0849H80.209H21.4671L18.1495 36.8878H24.5896V84.6478L32.0055 87.9483H19.5156L19.3204 107.363C42.1536 107.363 56.5952 107.169 63.0353 105.81C69.2803 104.451 75.1349 100.762 80.4042 94.9376C85.6734 89.1132 89.9668 80.7649 91.528 74.1639C92.8941 68.7278 93.0893 62.7093 93.0893 55.5259ZM71.2318 74.5522C69.6706 79.0176 66.3529 82.7063 61.474 85.8127C56.5952 88.7249 50.9356 88.1424 44.1052 88.1424V36.6937H73.5737C73.964 57.4673 72.7931 70.0868 71.2318 74.5522ZM141.098 74.9405L123.534 95.1317L136.804 107.557L153.588 88.1424L141.098 74.9405ZM157.881 36.6937H172.713L175.835 17.0849H154.173L157.1 9.90146L140.122 0.194146L139.927 0L134.267 13.3961L132.706 17.0849H107.336L104.213 36.4995H124.704L120.606 46.5951L96.0166 105.81L114.166 113.381L141.098 48.3424L162.174 104.451L164.126 109.499L165.492 113.187L183.837 106.392L157.881 36.6937ZM263.655 34.7522C263.655 34.558 263.655 34.3639 263.655 34.1698V26.9863C263.07 23.6859 261.704 21.162 259.557 19.6088C259.557 19.6088 259.557 19.6088 259.557 19.4146C257.801 18.0556 255.654 17.279 252.727 17.0849H252.336C251.751 17.0849 251.165 17.0849 250.385 17.0849H210.768L206.865 25.8215V17.0849L190.277 19.8029L187.154 20.3854V97.6556C187.74 101.15 189.106 103.674 191.253 105.227C193.009 106.586 195.156 107.363 198.083 107.557C198.864 107.557 199.449 107.557 200.23 107.557H251.165C255.264 107.363 258.581 106.586 260.533 104.839C262.094 103.674 263.07 102.121 263.46 99.9854V39.9941C263.655 38.2468 263.655 36.4995 263.655 34.7522ZM243.945 87.9483H206.67V36.6937H243.945V87.9483Z" fill="white"/>
<path d="M128.022 151.24C127.827 150.463 127.437 149.687 127.046 149.299C126.461 148.716 125.875 148.328 125.095 148.134C124.314 147.94 123.338 147.745 122.167 147.745H121.192V165.219H122.167C123.338 165.219 124.314 165.024 125.095 164.83C125.875 164.636 126.461 164.248 127.046 163.471C127.632 162.695 127.827 162.112 128.022 161.141C128.217 160.171 128.412 159.006 128.412 157.453V154.152C128.412 152.987 128.217 152.017 128.022 151.24ZM128.022 151.24C127.827 150.463 127.437 149.687 127.046 149.299C126.461 148.716 125.875 148.328 125.095 148.134C124.314 147.94 123.338 147.745 122.167 147.745H121.192V165.219H122.167C123.338 165.219 124.314 165.024 125.095 164.83C125.875 164.636 126.461 164.248 127.046 163.471C127.632 162.695 127.827 162.112 128.022 161.141C128.217 160.171 128.412 159.006 128.412 157.453V154.152C128.412 152.987 128.217 152.017 128.022 151.24ZM53.6678 152.793C53.4727 151.434 53.0824 150.463 52.692 149.687C52.3017 148.91 51.7163 148.328 50.9356 148.134C50.155 147.745 49.1792 147.745 48.0083 147.745H46.2519V181.333H48.0083C49.1792 181.333 50.155 181.139 50.9356 180.944C51.7163 180.556 52.3017 180.168 52.692 179.391C53.0824 178.615 53.4727 177.644 53.6678 176.285C53.863 174.926 53.863 173.373 53.863 171.237V157.841C53.863 155.9 53.6678 154.152 53.6678 152.793ZM53.6678 152.793C53.4727 151.434 53.0824 150.463 52.692 149.687C52.3017 148.91 51.7163 148.328 50.9356 148.134C50.155 147.745 49.1792 147.745 48.0083 147.745H46.2519V181.333H48.0083C49.1792 181.333 50.155 181.139 50.9356 180.944C51.7163 180.556 52.3017 180.168 52.692 179.391C53.0824 178.615 53.4727 177.644 53.6678 176.285C53.863 174.926 53.863 173.373 53.863 171.237V157.841C53.863 155.9 53.6678 154.152 53.6678 152.793ZM22.8332 151.822H22.6381L19.5156 173.179H25.9557L22.8332 151.822ZM22.8332 151.822H22.6381L19.5156 173.179H25.9557L22.8332 151.822ZM22.8332 151.822H22.6381L19.5156 173.179H25.9557L22.8332 151.822ZM53.6678 152.793C53.4727 151.434 53.0824 150.463 52.692 149.687C52.3017 148.91 51.7163 148.328 50.9356 148.134C50.155 147.745 49.1792 147.745 48.0083 147.745H46.2519V181.333H48.0083C49.1792 181.333 50.155 181.139 50.9356 180.944C51.7163 180.556 52.3017 180.168 52.692 179.391C53.0824 178.615 53.4727 177.644 53.6678 176.285C53.863 174.926 53.863 173.373 53.863 171.237V157.841C53.863 155.9 53.6678 154.152 53.6678 152.793ZM128.022 151.24C127.827 150.463 127.437 149.687 127.046 149.299C126.461 148.716 125.875 148.328 125.095 148.134C124.314 147.94 123.338 147.745 122.167 147.745H121.192V165.219H122.167C123.338 165.219 124.314 165.024 125.095 164.83C125.875 164.636 126.461 164.248 127.046 163.471C127.632 162.695 127.827 162.112 128.022 161.141C128.217 160.171 128.412 159.006 128.412 157.453V154.152C128.412 152.987 128.217 152.017 128.022 151.24ZM128.022 151.24C127.827 150.463 127.437 149.687 127.046 149.299C126.461 148.716 125.875 148.328 125.095 148.134C124.314 147.94 123.338 147.745 122.167 147.745H121.192V165.219H122.167C123.338 165.219 124.314 165.024 125.095 164.83C125.875 164.636 126.461 164.248 127.046 163.471C127.632 162.695 127.827 162.112 128.022 161.141C128.217 160.171 128.412 159.006 128.412 157.453V154.152C128.412 152.987 128.217 152.017 128.022 151.24ZM53.6678 152.793C53.4727 151.434 53.0824 150.463 52.692 149.687C52.3017 148.91 51.7163 148.328 50.9356 148.134C50.155 147.745 49.1792 147.745 48.0083 147.745H46.2519V181.333H48.0083C49.1792 181.333 50.155 181.139 50.9356 180.944C51.7163 180.556 52.3017 180.168 52.692 179.391C53.0824 178.615 53.4727 177.644 53.6678 176.285C53.863 174.926 53.863 173.373 53.863 171.237V157.841C53.863 155.9 53.6678 154.152 53.6678 152.793ZM22.8332 151.822H22.6381L19.5156 173.179H25.9557L22.8332 151.822ZM22.8332 151.822H22.6381L19.5156 173.179H25.9557L22.8332 151.822ZM53.6678 152.793C53.4727 151.434 53.0824 150.463 52.692 149.687C52.3017 148.91 51.7163 148.328 50.9356 148.134C50.155 147.745 49.1792 147.745 48.0083 147.745H46.2519V181.333H48.0083C49.1792 181.333 50.155 181.139 50.9356 180.944C51.7163 180.556 52.3017 180.168 52.692 179.391C53.0824 178.615 53.4727 177.644 53.6678 176.285C53.863 174.926 53.863 173.373 53.863 171.237V157.841C53.863 155.9 53.6678 154.152 53.6678 152.793ZM128.022 151.24C127.827 150.463 127.437 149.687 127.046 149.299C126.461 148.716 125.875 148.328 125.095 148.134C124.314 147.94 123.338 147.745 122.167 147.745H121.192V165.219H122.167C123.338 165.219 124.314 165.024 125.095 164.83C125.875 164.636 126.461 164.248 127.046 163.471C127.632 162.695 127.827 162.112 128.022 161.141C128.217 160.171 128.412 159.006 128.412 157.453V154.152C128.412 152.987 128.217 152.017 128.022 151.24ZM128.022 151.24C127.827 150.463 127.437 149.687 127.046 149.299C126.461 148.716 125.875 148.328 125.095 148.134C124.314 147.94 123.338 147.745 122.167 147.745H121.192V165.219H122.167C123.338 165.219 124.314 165.024 125.095 164.83C125.875 164.636 126.461 164.248 127.046 163.471C127.632 162.695 127.827 162.112 128.022 161.141C128.217 160.171 128.412 159.006 128.412 157.453V154.152C128.412 152.987 128.217 152.017 128.022 151.24ZM53.6678 152.793C53.4727 151.434 53.0824 150.463 52.692 149.687C52.3017 148.91 51.7163 148.328 50.9356 148.134C50.155 147.745 49.1792 147.745 48.0083 147.745H46.2519V181.333H48.0083C49.1792 181.333 50.155 181.139 50.9356 180.944C51.7163 180.556 52.3017 180.168 52.692 179.391C53.0824 178.615 53.4727 177.644 53.6678 176.285C53.863 174.926 53.863 173.373 53.863 171.237V157.841C53.863 155.9 53.6678 154.152 53.6678 152.793ZM22.8332 151.822H22.6381L19.5156 173.179H25.9557L22.8332 151.822ZM22.8332 151.822H22.6381L19.5156 173.179H25.9557L22.8332 151.822ZM53.6678 152.793C53.4727 151.434 53.0824 150.463 52.692 149.687C52.3017 148.91 51.7163 148.328 50.9356 148.134C50.155 147.745 49.1792 147.745 48.0083 147.745H46.2519V181.333H48.0083C49.1792 181.333 50.155 181.139 50.9356 180.944C51.7163 180.556 52.3017 180.168 52.692 179.391C53.0824 178.615 53.4727 177.644 53.6678 176.285C53.863 174.926 53.863 173.373 53.863 171.237V157.841C53.863 155.9 53.6678 154.152 53.6678 152.793ZM128.022 151.24C127.827 150.463 127.437 149.687 127.046 149.299C126.461 148.716 125.875 148.328 125.095 148.134C124.314 147.94 123.338 147.745 122.167 147.745H121.192V165.219H122.167C123.338 165.219 124.314 165.024 125.095 164.83C125.875 164.636 126.461 164.248 127.046 163.471C127.632 162.695 127.827 162.112 128.022 161.141C128.217 160.171 128.412 159.006 128.412 157.453V154.152C128.412 152.987 128.217 152.017 128.022 151.24ZM128.022 151.24C127.827 150.463 127.437 149.687 127.046 149.299C126.461 148.716 125.875 148.328 125.095 148.134C124.314 147.94 123.338 147.745 122.167 147.745H121.192V165.219H122.167C123.338 165.219 124.314 165.024 125.095 164.83C125.875 164.636 126.461 164.248 127.046 163.471C127.632 162.695 127.827 162.112 128.022 161.141C128.217 160.171 128.412 159.006 128.412 157.453V154.152C128.412 152.987 128.217 152.017 128.022 151.24ZM53.6678 152.793C53.4727 151.434 53.0824 150.463 52.692 149.687C52.3017 148.91 51.7163 148.328 50.9356 148.134C50.155 147.745 49.1792 147.745 48.0083 147.745H46.2519V181.333H48.0083C49.1792 181.333 50.155 181.139 50.9356 180.944C51.7163 180.556 52.3017 180.168 52.692 179.391C53.0824 178.615 53.4727 177.644 53.6678 176.285C53.863 174.926 53.863 173.373 53.863 171.237V157.841C53.863 155.9 53.6678 154.152 53.6678 152.793ZM22.8332 151.822H22.6381L19.5156 173.179H25.9557L22.8332 151.822ZM22.8332 151.822H22.6381L19.5156 173.179H25.9557L22.8332 151.822ZM53.6678 152.793C53.4727 151.434 53.0824 150.463 52.692 149.687C52.3017 148.91 51.7163 148.328 50.9356 148.134C50.155 147.745 49.1792 147.745 48.0083 147.745H46.2519V181.333H48.0083C49.1792 181.333 50.155 181.139 50.9356 180.944C51.7163 180.556 52.3017 180.168 52.692 179.391C53.0824 178.615 53.4727 177.644 53.6678 176.285C53.863 174.926 53.863 173.373 53.863 171.237V157.841C53.863 155.9 53.6678 154.152 53.6678 152.793ZM128.022 151.24C127.827 150.463 127.437 149.687 127.046 149.299C126.461 148.716 125.875 148.328 125.095 148.134C124.314 147.94 123.338 147.745 122.167 147.745H121.192V165.219H122.167C123.338 165.219 124.314 165.024 125.095 164.83C125.875 164.636 126.461 164.248 127.046 163.471C127.632 162.695 127.827 162.112 128.022 161.141C128.217 160.171 128.412 159.006 128.412 157.453V154.152C128.412 152.987 128.217 152.017 128.022 151.24ZM128.022 151.24C127.827 150.463 127.437 149.687 127.046 149.299C126.461 148.716 125.875 148.328 125.095 148.134C124.314 147.94 123.338 147.745 122.167 147.745H121.192V165.219H122.167C123.338 165.219 124.314 165.024 125.095 164.83C125.875 164.636 126.461 164.248 127.046 163.471C127.632 162.695 127.827 162.112 128.022 161.141C128.217 160.171 128.412 159.006 128.412 157.453V154.152C128.412 152.987 128.217 152.017 128.022 151.24ZM53.6678 152.793C53.4727 151.434 53.0824 150.463 52.692 149.687C52.3017 148.91 51.7163 148.328 50.9356 148.134C50.155 147.745 49.1792 147.745 48.0083 147.745H46.2519V181.333H48.0083C49.1792 181.333 50.155 181.139 50.9356 180.944C51.7163 180.556 52.3017 180.168 52.692 179.391C53.0824 178.615 53.4727 177.644 53.6678 176.285C53.863 174.926 53.863 173.373 53.863 171.237V157.841C53.863 155.9 53.6678 154.152 53.6678 152.793ZM22.8332 151.822H22.6381L19.5156 173.179H25.9557L22.8332 151.822ZM272.828 129.884H8.97716C3.90311 129.884 0 133.961 0 138.815V190.069C0 195.117 4.09827 199 8.97716 199H272.828C277.902 199 281.805 194.923 281.805 190.069V138.815C282 133.767 277.902 129.884 272.828 129.884ZM27.9073 185.798L26.7363 178.032H18.9301L17.7592 185.798H11.1239L19.1253 142.892H26.7363L34.7377 185.798H27.9073ZM60.6934 170.655C60.6934 173.179 60.4983 175.314 60.108 176.867C59.7176 178.615 59.1322 179.974 58.3516 181.139C57.5709 182.303 56.7903 183.08 55.8145 183.857C54.8388 184.439 53.863 185.021 52.8872 185.216C51.9114 185.41 50.7405 185.604 49.5695 185.798C48.3986 185.798 47.4228 185.992 46.4471 185.992H39.6166V142.892H46.4471C47.4228 142.892 48.5938 142.892 49.5695 143.086C50.7405 143.086 51.7163 143.28 52.8872 143.668C53.863 144.057 55.0339 144.445 55.8145 145.027C56.7903 145.61 57.5709 146.58 58.3516 147.745C59.1322 148.91 59.5225 150.269 60.108 152.017C60.4983 153.764 60.6934 155.9 60.6934 158.423V170.655ZM79.6235 185.798H72.2076L64.4014 142.892H71.0367L75.7204 176.867H76.1107L80.7945 142.892H87.4298L79.6235 185.798ZM108.897 185.798H92.699V142.892H108.702V147.94H99.3343V160.753H106.555V165.801H99.3343V180.556H109.092V185.798H108.897ZM129.388 185.798L123.729 169.684H121.192V185.798H114.752V142.892H121.777C122.558 142.892 123.534 142.892 124.509 143.086C125.485 143.086 126.461 143.28 127.437 143.668C128.412 143.862 129.388 144.251 130.169 144.833C131.145 145.416 131.925 145.998 132.511 146.969C133.291 147.94 133.682 148.91 134.267 150.463C134.657 151.822 134.853 153.57 134.853 155.511V156.482C134.853 159.782 134.462 162.5 133.487 164.442C132.511 166.578 131.145 167.937 129.388 168.907L136.219 185.992H129.388V185.798ZM159.637 148.134H152.807V185.992H146.367V148.134H139.341V143.086H159.833V148.134H159.637ZM171.737 185.798H165.102V142.892H171.737V185.798ZM198.083 180.556C197.693 181.721 196.912 182.886 195.936 183.662C194.961 184.439 193.985 185.216 192.619 185.604C191.253 185.992 190.082 186.38 188.325 186.38C186.374 186.38 184.812 186.186 183.446 185.604C182.08 185.021 181.104 184.439 180.324 183.468C179.543 182.692 178.958 181.721 178.763 180.556C178.372 179.391 178.372 178.421 178.372 177.256C178.372 176.285 178.372 175.508 178.567 174.732C178.567 173.955 178.763 173.179 179.153 172.208H184.227V174.343C184.227 175.508 184.227 176.479 184.422 177.45C184.617 178.421 184.812 179.003 185.203 179.78C185.593 180.362 185.983 180.75 186.569 181.139C187.154 181.527 187.74 181.527 188.52 181.527C189.691 181.527 190.667 181.139 191.448 180.556C192.033 179.974 192.424 178.809 192.424 177.644C192.424 177.061 192.424 176.285 192.228 175.702C192.033 175.12 192.033 174.538 191.838 173.955C191.643 173.373 191.253 172.79 190.862 172.208C190.472 171.625 189.887 170.849 189.301 170.266L182.471 162.112C181.3 160.559 180.324 159.006 179.738 157.453C179.153 155.9 178.763 154.152 178.763 152.405C178.763 151.046 178.958 149.687 179.348 148.522C179.738 147.357 180.519 146.386 181.3 145.416C182.08 144.639 183.251 143.862 184.422 143.474C185.593 142.892 186.959 142.698 188.52 142.698C190.472 142.698 192.033 142.892 193.204 143.474C194.57 144.057 195.546 144.639 196.327 145.61C197.107 146.58 197.693 147.551 197.888 148.522C198.278 149.493 198.278 150.658 198.278 151.822C198.278 152.793 198.278 153.57 198.083 154.346C197.888 155.123 197.693 155.9 197.498 156.87H192.424V154.929C192.424 152.599 192.033 150.852 191.448 149.687C190.862 148.522 189.691 147.94 188.13 147.94C186.959 147.94 185.983 148.328 185.398 148.91C184.812 149.493 184.422 150.463 184.422 151.628C184.422 152.211 184.422 152.793 184.617 153.181C184.617 153.764 184.812 154.152 185.008 154.54C185.203 154.929 185.398 155.317 185.593 155.705C185.788 156.094 186.179 156.482 186.374 156.87L193.985 165.995C195.351 167.742 196.522 169.49 197.107 171.237C197.693 172.984 198.278 174.732 198.278 176.479C198.669 177.838 198.473 179.197 198.083 180.556ZM211.744 185.798H205.304V142.892H211.744V185.798ZM241.212 185.798H235.943L225.6 157.841H225.405C225.405 158.618 225.6 159.394 225.6 160.365C225.795 161.336 225.795 162.306 225.795 163.471C225.795 164.636 225.99 165.995 225.99 167.742C225.99 169.296 225.99 171.237 225.99 173.373V185.992H220.136V142.892H225.405L235.943 171.625H236.138C236.138 170.849 235.943 170.266 235.943 169.296C235.943 168.519 235.748 167.548 235.748 166.578C235.748 165.607 235.553 164.442 235.553 163.083C235.553 161.724 235.553 160.365 235.553 158.618V142.892H241.408V185.798H241.212ZM270.095 185.798H265.802L265.021 181.721C264.241 183.274 263.265 184.439 262.094 185.216C261.118 185.992 259.752 186.186 258.386 186.186C257.801 186.186 257.215 186.186 256.63 185.992C256.044 185.992 255.264 185.604 254.483 185.216C253.702 184.827 253.117 184.439 252.336 183.662C251.751 183.08 250.97 182.109 250.58 181.139C249.994 180.168 249.604 178.809 249.214 177.256C248.824 175.702 248.628 173.761 248.628 171.625V156.482C248.628 154.346 248.824 152.405 249.214 151.046C249.604 149.493 249.994 148.134 250.58 147.163C251.165 146.192 251.751 145.221 252.531 144.639C253.312 144.057 254.093 143.474 254.873 143.28C255.654 142.892 256.435 142.698 257.41 142.698C258.191 142.503 258.972 142.503 259.752 142.503C261.509 142.503 263.07 142.698 264.241 143.28C265.412 143.668 266.388 144.445 267.168 145.221C267.949 145.998 268.534 146.969 268.729 148.134C269.12 149.299 269.315 150.463 269.315 151.628C269.315 152.599 269.315 153.376 269.12 154.152C268.925 154.929 268.925 155.705 268.729 156.676H263.46V154.735C263.46 150.075 262.094 147.745 259.557 147.745C258.972 147.745 258.191 147.94 257.801 148.134C257.41 148.328 256.825 148.716 256.63 149.299C256.239 149.881 256.044 150.658 255.849 151.434C255.654 152.405 255.654 153.57 255.654 154.929V174.343C255.654 175.702 255.654 176.867 255.849 177.644C256.044 178.615 256.239 179.197 256.63 179.78C257.02 180.362 257.41 180.75 257.801 180.944C258.386 181.139 258.972 181.333 259.557 181.333C260.338 181.333 260.923 181.139 261.509 180.75C262.094 180.362 262.484 179.78 262.875 179.197C263.265 178.615 263.46 177.838 263.655 176.867C263.851 175.897 263.85 174.926 263.85 173.955V168.325H260.533V164.054H270.291V185.798H270.095ZM127.046 149.299C126.461 148.716 125.875 148.328 125.095 148.134C124.314 147.94 123.338 147.745 122.167 147.745H121.192V165.219H122.167C123.338 165.219 124.314 165.024 125.095 164.83C125.875 164.636 126.461 164.248 127.046 163.471C127.632 162.695 127.827 162.112 128.022 161.141C128.217 160.171 128.412 159.006 128.412 157.453V154.152C128.412 152.987 128.217 152.017 128.022 151.24C127.827 150.463 127.437 149.687 127.046 149.299ZM52.692 149.687C52.3017 148.91 51.7163 148.328 50.9356 148.134C50.155 147.745 49.1792 147.745 48.0083 147.745H46.2519V181.333H48.0083C49.1792 181.333 50.155 181.139 50.9356 180.944C51.7163 180.556 52.3017 180.168 52.692 179.391C53.0824 178.615 53.4727 177.644 53.6678 176.285C53.863 174.926 53.863 173.373 53.863 171.237V157.841C53.863 155.9 53.863 154.152 53.6678 152.793C53.4727 151.628 53.0824 150.463 52.692 149.687ZM22.6381 151.822L19.5156 173.179H25.9557L22.8332 151.822H22.6381ZM22.8332 151.822H22.6381L19.5156 173.179H25.9557L22.8332 151.822ZM53.6678 152.793C53.4727 151.434 53.0824 150.463 52.692 149.687C52.3017 148.91 51.7163 148.328 50.9356 148.134C50.155 147.745 49.1792 147.745 48.0083 147.745H46.2519V181.333H48.0083C49.1792 181.333 50.155 181.139 50.9356 180.944C51.7163 180.556 52.3017 180.168 52.692 179.391C53.0824 178.615 53.4727 177.644 53.6678 176.285C53.863 174.926 53.863 173.373 53.863 171.237V157.841C53.863 155.9 53.6678 154.152 53.6678 152.793ZM128.022 151.24C127.827 150.463 127.437 149.687 127.046 149.299C126.461 148.716 125.875 148.328 125.095 148.134C124.314 147.94 123.338 147.745 122.167 147.745H121.192V165.219H122.167C123.338 165.219 124.314 165.024 125.095 164.83C125.875 164.636 126.461 164.248 127.046 163.471C127.632 162.695 127.827 162.112 128.022 161.141C128.217 160.171 128.412 159.006 128.412 157.453V154.152C128.412 152.987 128.217 152.017 128.022 151.24ZM128.022 151.24C127.827 150.463 127.437 149.687 127.046 149.299C126.461 148.716 125.875 148.328 125.095 148.134C124.314 147.94 123.338 147.745 122.167 147.745H121.192V165.219H122.167C123.338 165.219 124.314 165.024 125.095 164.83C125.875 164.636 126.461 164.248 127.046 163.471C127.632 162.695 127.827 162.112 128.022 161.141C128.217 160.171 128.412 159.006 128.412 157.453V154.152C128.412 152.987 128.217 152.017 128.022 151.24ZM53.6678 152.793C53.4727 151.434 53.0824 150.463 52.692 149.687C52.3017 148.91 51.7163 148.328 50.9356 148.134C50.155 147.745 49.1792 147.745 48.0083 147.745H46.2519V181.333H48.0083C49.1792 181.333 50.155 181.139 50.9356 180.944C51.7163 180.556 52.3017 180.168 52.692 179.391C53.0824 178.615 53.4727 177.644 53.6678 176.285C53.863 174.926 53.863 173.373 53.863 171.237V157.841C53.863 155.9 53.6678 154.152 53.6678 152.793ZM22.8332 151.822H22.6381L19.5156 173.179H25.9557L22.8332 151.822ZM22.8332 151.822H22.6381L19.5156 173.179H25.9557L22.8332 151.822ZM53.6678 152.793C53.4727 151.434 53.0824 150.463 52.692 149.687C52.3017 148.91 51.7163 148.328 50.9356 148.134C50.155 147.745 49.1792 147.745 48.0083 147.745H46.2519V181.333H48.0083C49.1792 181.333 50.155 181.139 50.9356 180.944C51.7163 180.556 52.3017 180.168 52.692 179.391C53.0824 178.615 53.4727 177.644 53.6678 176.285C53.863 174.926 53.863 173.373 53.863 171.237V157.841C53.863 155.9 53.6678 154.152 53.6678 152.793ZM128.022 151.24C127.827 150.463 127.437 149.687 127.046 149.299C126.461 148.716 125.875 148.328 125.095 148.134C124.314 147.94 123.338 147.745 122.167 147.745H121.192V165.219H122.167C123.338 165.219 124.314 165.024 125.095 164.83C125.875 164.636 126.461 164.248 127.046 163.471C127.632 162.695 127.827 162.112 128.022 161.141C128.217 160.171 128.412 159.006 128.412 157.453V154.152C128.412 152.987 128.217 152.017 128.022 151.24ZM128.022 151.24C127.827 150.463 127.437 149.687 127.046 149.299C126.461 148.716 125.875 148.328 125.095 148.134C124.314 147.94 123.338 147.745 122.167 147.745H121.192V165.219H122.167C123.338 165.219 124.314 165.024 125.095 164.83C125.875 164.636 126.461 164.248 127.046 163.471C127.632 162.695 127.827 162.112 128.022 161.141C128.217 160.171 128.412 159.006 128.412 157.453V154.152C128.412 152.987 128.217 152.017 128.022 151.24ZM53.6678 152.793C53.4727 151.434 53.0824 150.463 52.692 149.687C52.3017 148.91 51.7163 148.328 50.9356 148.134C50.155 147.745 49.1792 147.745 48.0083 147.745H46.2519V181.333H48.0083C49.1792 181.333 50.155 181.139 50.9356 180.944C51.7163 180.556 52.3017 180.168 52.692 179.391C53.0824 178.615 53.4727 177.644 53.6678 176.285C53.863 174.926 53.863 173.373 53.863 171.237V157.841C53.863 155.9 53.6678 154.152 53.6678 152.793ZM22.8332 151.822H22.6381L19.5156 173.179H25.9557L22.8332 151.822ZM22.8332 151.822H22.6381L19.5156 173.179H25.9557L22.8332 151.822ZM53.6678 152.793C53.4727 151.434 53.0824 150.463 52.692 149.687C52.3017 148.91 51.7163 148.328 50.9356 148.134C50.155 147.745 49.1792 147.745 48.0083 147.745H46.2519V181.333H48.0083C49.1792 181.333 50.155 181.139 50.9356 180.944C51.7163 180.556 52.3017 180.168 52.692 179.391C53.0824 178.615 53.4727 177.644 53.6678 176.285C53.863 174.926 53.863 173.373 53.863 171.237V157.841C53.863 155.9 53.6678 154.152 53.6678 152.793ZM128.022 151.24C127.827 150.463 127.437 149.687 127.046 149.299C126.461 148.716 125.875 148.328 125.095 148.134C124.314 147.94 123.338 147.745 122.167 147.745H121.192V165.219H122.167C123.338 165.219 124.314 165.024 125.095 164.83C125.875 164.636 126.461 164.248 127.046 163.471C127.632 162.695 127.827 162.112 128.022 161.141C128.217 160.171 128.412 159.006 128.412 157.453V154.152C128.412 152.987 128.217 152.017 128.022 151.24ZM128.022 151.24C127.827 150.463 127.437 149.687 127.046 149.299C126.461 148.716 125.875 148.328 125.095 148.134C124.314 147.94 123.338 147.745 122.167 147.745H121.192V165.219H122.167C123.338 165.219 124.314 165.024 125.095 164.83C125.875 164.636 126.461 164.248 127.046 163.471C127.632 162.695 127.827 162.112 128.022 161.141C128.217 160.171 128.412 159.006 128.412 157.453V154.152C128.412 152.987 128.217 152.017 128.022 151.24ZM53.6678 152.793C53.4727 151.434 53.0824 150.463 52.692 149.687C52.3017 148.91 51.7163 148.328 50.9356 148.134C50.155 147.745 49.1792 147.745 48.0083 147.745H46.2519V181.333H48.0083C49.1792 181.333 50.155 181.139 50.9356 180.944C51.7163 180.556 52.3017 180.168 52.692 179.391C53.0824 178.615 53.4727 177.644 53.6678 176.285C53.863 174.926 53.863 173.373 53.863 171.237V157.841C53.863 155.9 53.6678 154.152 53.6678 152.793ZM22.8332 151.822H22.6381L19.5156 173.179H25.9557L22.8332 151.822ZM22.8332 151.822H22.6381L19.5156 173.179H25.9557L22.8332 151.822ZM53.6678 152.793C53.4727 151.434 53.0824 150.463 52.692 149.687C52.3017 148.91 51.7163 148.328 50.9356 148.134C50.155 147.745 49.1792 147.745 48.0083 147.745H46.2519V181.333H48.0083C49.1792 181.333 50.155 181.139 50.9356 180.944C51.7163 180.556 52.3017 180.168 52.692 179.391C53.0824 178.615 53.4727 177.644 53.6678 176.285C53.863 174.926 53.863 173.373 53.863 171.237V157.841C53.863 155.9 53.6678 154.152 53.6678 152.793ZM128.022 151.24C127.827 150.463 127.437 149.687 127.046 149.299C126.461 148.716 125.875 148.328 125.095 148.134C124.314 147.94 123.338 147.745 122.167 147.745H121.192V165.219H122.167C123.338 165.219 124.314 165.024 125.095 164.83C125.875 164.636 126.461 164.248 127.046 163.471C127.632 162.695 127.827 162.112 128.022 161.141C128.217 160.171 128.412 159.006 128.412 157.453V154.152C128.412 152.987 128.217 152.017 128.022 151.24ZM128.022 151.24C127.827 150.463 127.437 149.687 127.046 149.299C126.461 148.716 125.875 148.328 125.095 148.134C124.314 147.94 123.338 147.745 122.167 147.745H121.192V165.219H122.167C123.338 165.219 124.314 165.024 125.095 164.83C125.875 164.636 126.461 164.248 127.046 163.471C127.632 162.695 127.827 162.112 128.022 161.141C128.217 160.171 128.412 159.006 128.412 157.453V154.152C128.412 152.987 128.217 152.017 128.022 151.24ZM53.6678 152.793C53.4727 151.434 53.0824 150.463 52.692 149.687C52.3017 148.91 51.7163 148.328 50.9356 148.134C50.155 147.745 49.1792 147.745 48.0083 147.745H46.2519V181.333H48.0083C49.1792 181.333 50.155 181.139 50.9356 180.944C51.7163 180.556 52.3017 180.168 52.692 179.391C53.0824 178.615 53.4727 177.644 53.6678 176.285C53.863 174.926 53.863 173.373 53.863 171.237V157.841C53.863 155.9 53.6678 154.152 53.6678 152.793ZM22.8332 151.822H22.6381L19.5156 173.179H25.9557L22.8332 151.822ZM93.0893 55.5259V17.0849H80.209H21.4671L18.1495 36.8878H24.5896V84.6478L32.0055 87.9483H19.5156L19.3204 107.363C42.1536 107.363 56.5952 107.169 63.0353 105.81C69.2803 104.451 75.1349 100.762 80.4042 94.9376C85.6734 89.1132 89.9668 80.7649 91.528 74.1639C92.8941 68.7278 93.0893 62.7093 93.0893 55.5259ZM71.2318 74.5522C69.6706 79.0176 66.3529 82.7063 61.474 85.8127C56.5952 88.7249 50.9356 88.1424 44.1052 88.1424V36.6937H73.5737C73.964 57.4673 72.7931 70.0868 71.2318 74.5522ZM141.098 74.9405L123.534 95.1317L136.804 107.557L153.588 88.1424L141.098 74.9405ZM157.881 36.6937H172.713L175.835 17.0849H154.173L157.1 9.90146L140.122 0.194146L139.927 0L134.267 13.3961L132.706 17.0849H107.336L104.213 36.4995H124.704L120.606 46.5951L96.0166 105.81L114.166 113.381L141.098 48.3424L162.174 104.451L164.126 109.499L165.492 113.187L183.837 106.392L157.881 36.6937ZM263.655 34.7522C263.655 34.558 263.655 34.3639 263.655 34.1698V26.9863C263.07 23.6859 261.704 21.162 259.557 19.6088C259.557 19.6088 259.557 19.6088 259.557 19.4146C257.801 18.0556 255.654 17.279 252.727 17.0849H252.336C251.751 17.0849 251.165 17.0849 250.385 17.0849H210.768L206.865 25.8215V17.0849L190.277 19.8029L187.154 20.3854V97.6556C187.74 101.15 189.106 103.674 191.253 105.227C193.009 106.586 195.156 107.363 198.083 107.557C198.864 107.557 199.449 107.557 200.23 107.557H251.165C255.264 107.363 258.581 106.586 260.533 104.839C262.094 103.674 263.07 102.121 263.46 99.9854V39.9941C263.655 38.2468 263.655 36.4995 263.655 34.7522ZM243.945 87.9483H206.67V36.6937H243.945V87.9483Z" fill="url(#paint0_radial)"/>
<defs>
<radialGradient id="paint0_radial" cx="0" cy="0" r="1" gradientUnits="userSpaceOnUse" gradientTransform="translate(140.906 541.347) rotate(-90) scale(465.458 1087.09)">
<stop stop-color="#FD6946"/>
<stop offset="1" stop-color="#F74153"/>
</radialGradient>
</defs>
</svg>
