<svg width="125" height="41" viewBox="0 0 125 41" fill="none" xmlns="http://www.w3.org/2000/svg">
<path fill-rule="evenodd" clip-rule="evenodd" d="M120.87 0H4.13043C1.84783 0 0 1.84783 0 4.13043V35.9783C0 38.2609 1.84783 40.1087 4.13043 40.1087H120.87C123.152 40.1087 125 38.2609 125 35.9783V4.13043C124.964 1.84783 123.116 0 120.87 0ZM28.8768 24.4565C28.442 26.3043 27.2101 28.6594 25.7246 30.3261C24.2391 31.9928 22.6087 33.0072 20.8333 33.4058C19.058 33.8043 14.9638 33.8406 8.55072 33.8406L8.58696 28.3333H12.1377L10.0362 27.3913V13.8406H8.22464L9.13043 8.26087H25.6522L29.2391 8.2971V19.1304C29.3116 21.1594 29.2391 22.8623 28.8768 24.4565ZM41.5217 33.8043L37.8261 30.2899L42.7899 24.6014L46.2681 28.2971L41.5217 33.8043ZM49.7101 35.3985L49.3116 34.3478L48.7681 32.9348L42.8261 17.0652L35.2536 35.4348L30.1449 33.3333L37.0652 16.6304L38.2246 13.8406H33.3696H32.4638L33.3696 8.33333H40.471L40.9058 7.28261L42.4638 3.47826L42.5362 3.51449L47.3188 6.26812L46.4855 8.33333H52.5725L51.6667 13.8406H47.5362L54.8913 33.5145L49.7101 35.3985ZM77.2464 14.7464V31.6667V31.7029C77.1014 32.2826 76.8478 32.7174 76.413 33.0797C75.7971 33.5507 74.9275 33.8043 73.7681 33.8406H59.4203H58.8043C58.0435 33.8043 57.3913 33.587 56.9203 33.2246C56.3044 32.7536 55.9058 32.0652 55.7609 31.087V9.2029L56.5942 9.05797L61.2681 8.2971V10.7609L62.3913 8.2971H66.9928H73.5507H74.0942H74.2029C74.9638 8.33333 75.6159 8.55072 76.087 8.94928C76.087 8.94928 76.087 8.98551 76.1232 8.98551C76.7029 9.45652 77.1014 10.1449 77.2464 11.087V13.1159V13.2971C77.2826 13.7319 77.2826 14.2391 77.2464 14.7464ZM122.754 35.3985C122.754 36.8116 121.63 37.9348 120.217 37.9348H86.4493C85.0362 37.9348 83.913 36.8116 83.913 35.3985V4.71014C83.913 3.2971 85.0362 2.17391 86.4493 2.17391H120.217C121.63 2.17391 122.754 3.2971 122.754 4.71014V35.3985ZM71.7391 14.1363H61.2681V28.5566H71.7391V15.5855V14.1363ZM15.471 28.5928V14.1362H23.7318C23.8768 19.9696 23.5869 23.5565 23.1159 24.8247C22.6449 26.0928 21.7391 27.1435 20.3623 27.9768C19.2578 28.6634 17.9565 28.6367 16.4585 28.6061H16.4584H16.4583C16.1382 28.5995 15.8091 28.5928 15.471 28.5928ZM93.6232 6.9261L88.9855 32.0348H92.8623L93.5145 27.542H98.1159L98.8043 32.0348H102.645L98.0072 6.9261H93.6232ZM93.9855 24.6435L95.7608 12.1435H95.9058L97.6812 24.6435H93.9855ZM114.493 8.08556C115.036 8.48411 115.543 8.99135 115.942 9.64353C116.341 10.2957 116.667 11.129 116.92 12.1073C117.174 13.1218 117.283 14.3537 117.283 15.8029V23.0856C117.283 24.5348 117.174 25.7667 116.92 26.7812C116.667 27.7957 116.341 28.629 115.942 29.2812C115.507 29.9334 115.036 30.4406 114.493 30.8029C113.949 31.2015 113.37 31.4551 112.754 31.6363C112.138 31.8174 111.522 31.9261 110.87 31.9624C110.254 31.9986 109.601 31.9986 109.022 31.9986H105.072V6.8899H109.022C109.601 6.8899 110.217 6.8899 110.87 6.92614C111.522 6.96237 112.138 7.07106 112.754 7.25222C113.37 7.43338 113.949 7.72324 114.493 8.08556ZM113.152 26.3464C113.261 25.5493 113.297 24.5711 113.297 23.4116V15.6218C113.297 14.4261 113.261 13.4479 113.152 12.687C113.043 11.9261 112.862 11.3102 112.609 10.8754C112.355 10.4044 111.993 10.1145 111.558 9.93338C111.123 9.75222 110.543 9.67976 109.855 9.67976H108.877V29.3537H109.855C110.543 29.3537 111.123 29.2812 111.558 29.1C111.993 28.9189 112.355 28.5928 112.609 28.158C112.862 27.7232 113.043 27.1073 113.152 26.3464Z" fill="white"/>
</svg>
