<svg width="103" height="69" viewBox="0 0 103 69" fill="none" xmlns="http://www.w3.org/2000/svg">
<g opacity="0.2">
<path d="M67.7 6.25148C63.8 2.34431 58.4 0 52.4 0C48.4 0 44.7 1.07447 41.5 2.8327C38.2 4.68861 35.4 7.42364 33.5 10.7447C33.2 11.3308 33.4 12.0146 33.9 12.3076C34 12.4053 34.2 12.4053 34.4 12.4053C35.3 12.6983 36.3 12.8937 37.3 12.9914C38.3 13.089 39.3 13.1867 40.3 13.1867C44.4 13.1867 48.2 12.1122 51.4 10.1587C52.1 9.76794 52.7 9.37722 53.3 8.88883C53.1 10.8424 53.4 12.796 54.5 14.7496C54.8 15.3357 55.2 15.9217 55.7 16.5078C56.1 16.9962 56.7 16.9962 57.2 16.7032C57.7 16.4101 58.3 16.0194 58.9 15.6287C60.2 14.6519 61.6 13.089 62.3 11.1355C63 9.4749 63.1 7.32596 62 4.78629C63.5 5.66541 64.8 6.6422 66 7.81435C68 9.76794 69.6 12.1122 70.5 14.7496C69.8 14.5542 69 14.3589 68.2 14.3589C66.3 14.3589 64.6 15.1403 63.3 16.3125C62.2 17.3869 61.5 18.7544 61.3 20.3173C57.2 17.973 51.9 20.122 46.8 22.3686C44.7 23.2477 42.6 24.1268 40.8 24.6152C37.3 25.4943 34.4 24.9083 33 19.7312C33 19.6336 32.9 19.4382 32.8 19.3405C32.7 18.8521 32.3 18.5591 31.7 18.5591C31 18.5591 30.5 18.9498 30.4 19.6336C30.4 19.8289 30.4 20.122 30.4 20.415C30.4 20.708 30.4 21.0011 30.4 21.1964C30.4 23.9315 30.9 26.4711 31.9 28.9131C32.4 30.5737 33.1 31.8435 33.9 32.8203C35 33.9924 36 35.1646 37 36.1414C40.9 39.9509 46.4 42.3929 52.3 42.3929C58.3 42.3929 63.7 40.0486 67.6 36.1414C70.6 33.211 72.7 29.4992 73.5 25.3966C74.5 24.2245 75.1 22.7593 75.1 21.0988C75.1 19.4382 74.5 17.973 73.5 16.8009C72.7 12.796 70.6 9.08419 67.7 6.25148ZM50.2 8.30275C47.3 9.9633 43.9 10.9401 40.3 10.9401C39.4 10.9401 38.5 10.8424 37.6 10.7447C37.2 10.6471 36.8 10.6471 36.3 10.5494C38 8.30275 40.1 6.25148 42.6 4.88397C45.5 3.22342 48.8 2.34431 52.3 2.34431C53.6 2.34431 55 2.44199 56.2 2.73502C56.1 2.8327 56.1 2.93038 56 3.02806C55.7 3.41878 55.4 3.8095 55.1 4.20022C53.7 5.86077 52.1 7.22828 50.2 8.30275ZM60.2 10.5494C59.7 12.0146 58.6 13.1867 57.6 14.0658C57.4 14.1635 57.2 14.3589 57.1 14.4566C57 14.2612 56.8 14.0658 56.7 13.8705C55.6 12.0146 55.5 9.9633 56 8.20507C56.2 7.22828 56.7 6.34916 57.2 5.56773C57.5 5.17701 57.8 4.78629 58.1 4.49325C58.3 4.29789 58.5 4.10254 58.8 3.90718L58.9 3.8095C59.2 4.29789 59.5 4.68861 59.7 5.07933C60.7 7.22828 60.7 9.08419 60.2 10.5494ZM66 34.5785C62.5 37.9973 57.7 40.1462 52.3 40.1462C47.2 40.1462 42.5 38.1927 39 34.9692C40.1 34.9692 41.2 34.7739 42.4 34.4808C44.5 33.9924 46.6 33.0156 48.8 32.1365C54.5 29.6945 60.5 27.2526 63.7 32.7226C64 33.3087 64.7 33.504 65.3 33.1133C65.9 32.8203 66.1 32.1365 65.7 31.5505C61.5 24.2245 54.5 27.1549 47.9 29.9876C45.8 30.8667 43.7 31.7458 41.9 32.2342C39.4 32.8203 37.2 32.7226 35.7 30.769C35.2 29.8899 34.7 29.0108 34.4 28.1317C34.3 27.9363 34.3 27.741 34.2 27.4479C34.2 27.3502 34.1 27.1549 34 27.0572C33.8 26.5688 33.7 26.1781 33.6 25.6897C35.7 27.741 38.5 27.8386 41.6 27.0572C43.7 26.5688 45.8 25.592 48 24.7129C52.6 22.7593 57.3 20.8057 60.7 22.857C62.2 23.8338 62.4 24.9083 63.6 26.0804C64.8 27.2526 66.6 28.034 68.5 28.034C69.3 28.034 70.1 27.9363 70.8 27.6433C69.6 30.1829 68 32.6249 66 34.5785ZM71.5 24.3222C70.7 25.1036 69.6 25.592 68.3 25.592C67.1 25.592 65.9 25.1036 65.1 24.3222C65 24.2245 64.9 24.1268 64.8 24.0291C64.2 22.9547 63.8 22.5639 63.8 21.1964C63.8 20.0243 64.3 18.8521 65.1 18.0707C65.9 17.2893 67 16.8009 68.3 16.8009C69.5 16.8009 70.7 17.2893 71.5 18.0707C72.3 18.8521 72.8 19.9266 72.8 21.1964C72.8 22.3686 72.3 23.5407 71.5 24.3222Z" fill="#072C74"/>
<path d="M4.6 60.0728C4.6 58.803 5.4 54.4074 5.8 52.4538C6.3 49.9142 6.8 49.1327 7.9 49.1327C8.6 49.1327 9.2 49.4258 9.5 49.8165C8.6 51.477 7.9 54.0167 7.2 57.1425L7.3 57.2401C11.7 53.626 13.1 51.6724 13.1 50.0119C13.1 48.2536 11.6 47.6675 9.7 47.6675C5.5 47.6675 2 50.4026 2 53.626C2 54.9935 2.6 55.7749 3.9 56.2633C3.9 57.0448 3.5 57.7285 2.5 57.7285C1.2 57.6309 0 56.2633 0 54.2121C0 50.0119 4.8 46.4954 10.6 46.4954C13.4 46.4954 15.6 47.4722 15.6 49.5235C15.6 51.184 14.2 52.8446 10.9 55.0912H11C12.2 54.3097 13.1 54.0167 13.7 54.0167C14.6 54.0167 15 54.6028 15 55.4819C15 58.3146 11.9 61.9287 9 61.9287C7.7 62.0264 5.6 61.4403 4.6 60.0728ZM12.4 56.4587C12.4 56.068 12.3 55.8726 12 55.8726C11.3 55.8726 8.8 57.3378 6.8 59.4868C7.4 60.1705 8.7 60.7566 9.3 60.7566C10.7 60.7566 12.4 58.0216 12.4 56.4587Z" fill="#072C74"/>
<path d="M26.1 55.8726C25.6 57.5332 22.8 62.0264 18.9 62.0264C16.6 62.0264 15.5 60.2682 15.5 58.4123C15.5 55.6773 17.6 51.9654 21.2 51.9654C23.1 51.9654 23.7 52.8446 23.7 53.8214C23.7 56.1657 20.5 57.6308 18.1 57.9239C18.1 58.1192 18.1 58.2169 18.1 58.4123C18.1 59.8775 18.7 60.4636 19.8 60.4636C22.2 60.4636 24.1 58.51 25.6 55.4819C25.8 55.2865 26.2 55.5796 26.1 55.8726ZM18.2 57.0448C20.4 56.5564 21.4 55.2865 21.4 54.0167C21.4 53.333 21.2 52.9422 20.7 52.9422C19.7 53.0399 18.6 55.3842 18.2 57.0448Z" fill="#072C74"/>
<path d="M24.2 59.5844C24.2 56.9471 25.6 51.8678 29.6 51.8678C30.6 51.8678 31.5 52.1608 32.2 52.6492L32.3 52.1608C32.4 52.1608 32.5 52.1608 32.5 52.1608C33.3 52.1608 34.6 52.7469 34.6 53.5283C34.6 53.626 34.6 53.7237 34.6 53.8214C34.1 55.6773 32.6 60.0728 32.9 60.0728C33.9 60.0728 35.7 57.1424 36.6 55.2865C36.8 55.1889 37.2 55.4819 37.2 55.7749C36.5 57.2401 34.1 61.9287 32.2 61.9287C31.1 61.9287 30.2 60.8543 30.2 60.3659C30.2 59.4868 31.2 57.2401 31.6 56.068H31.5C30 59.2914 27.7 61.9287 26.2 61.9287C25.1 62.0264 24.2 60.6589 24.2 59.5844ZM31.8 54.3097C31 53.626 30.1 53.4306 29.4 53.4306C28.2 53.4306 26.8 56.361 26.8 58.9007C26.8 59.4868 26.9 59.8775 27.3 59.8775C28.1 59.8775 30.1 57.6308 31.8 54.3097Z" fill="#072C74"/>
<path d="M35.7 59.4868C35.7 57.4355 36.8 53.1376 37.3 51.9654C37.5 51.8678 37.6 51.8678 37.8 51.8678C38.5 51.8678 39.3 52.3562 39.3 53.1376C39.3 53.2353 39.3 53.4306 39.2 53.626C39 54.0167 37.8 57.9239 37.8 59.3891C37.8 59.7798 37.9 60.0728 38.2 60.0728C39.1 60.0728 41.4 57.7285 42.7 55.2865C42.9 54.1144 42.9 52.9422 43.5 51.9654C44.5 51.9654 45.5 52.1608 45.8 52.8446C45.8 53.5283 45.2 54.8958 44.7 55.9703C44.4 57.4355 44 59.2914 44 59.9752C44 60.0728 44 60.1705 44.1 60.1705C45.3 60.1705 46.9 57.3378 47.9 55.4819C48.1 55.3842 48.5 55.7749 48.5 56.068C47.8 57.5332 45.5 62.2218 43.5 62.2218C42.1 62.2218 41.6 61.1473 41.6 60.3659C41.6 59.6821 41.9 58.803 42.1 58.1192H42C40.8 60.0728 39.3 62.2218 37.5 62.2218C36.5 62.0264 35.7 61.245 35.7 59.4868Z" fill="#072C74"/>
<path d="M55.1 55.8726C54.6 57.7285 51.5 62.0264 48.9 62.0264C47.3 62.0264 46.7 60.6589 46.7 59.7798C46.7 58.9984 46.9 58.2169 48.2 52.7469C47.4 52.7469 46.8 52.6492 46.6 52.5515C46.6 52.0631 46.7 51.477 47.2 51.477H48.5C48.8 50.1095 49.2 48.5467 49.6 46.6908C50.8 46.6908 51.7 46.9838 51.7 48.1559C51.7 48.2536 51.7 48.3513 51.7 48.449C51.7 48.8397 51.4 50.0119 51 51.3794C51.9 51.3794 52.9 51.2817 53.5 51.2817C53.5 51.477 53.5 51.6724 53.5 51.7701C53.5 52.2585 53.4 52.5515 53.1 52.7469C52.6 52.8446 51.6 52.9422 50.6 52.9422C50 55.3842 49.4 58.1192 49.4 59.3891C49.4 59.8775 49.5 60.0728 49.6 60.0728C50.7 60.0728 52.9 58.2169 54.4 55.2865C54.9 55.1889 55.2 55.5796 55.1 55.8726Z" fill="#072C74"/>
<path d="M61.1 61.245C60.1 65.1522 59.3 68.4733 56.2 68.4733C54.5 68.4733 53.3 67.4965 53.3 66.3243C53.3 64.273 56.7 62.6125 59 61.3427L60.1 56.361H60C59 58.803 57.5 61.4403 56.1 61.4403C54.7 61.4403 53.6 60.2682 53.6 59.1937C53.6 58.1192 54.2 55.0912 54.9 51.9654C55 51.9654 55.1 51.9654 55.2 51.9654C56.2 51.9654 57.1 52.4538 57.1 53.626C57.1 53.919 57 54.3097 56.9 54.7981C56.5 55.6773 56 57.7285 56 58.9007C56 59.3891 56.1 59.6821 56.3 59.6821C57.2 59.6821 59 56.4587 60 54.5051C60 53.0399 60.4 51.9654 61.5 51.9654C61.8 51.9654 62.5 51.9654 63.1 52.1608C63.2 52.3562 63.2 52.6492 63.2 52.9422C63.2 53.919 63 54.7981 62.4 55.6773L61.4 59.8775C62.7 58.7053 63.9 57.2401 64.7 55.5796C65.1 55.5796 65.4 55.6773 65.4 55.9703C64.5 58.2169 62.9 59.9752 61.1 61.245ZM58.6 62.7102C56.8 63.7846 54.6 65.1522 54.6 66.422C54.6 66.8127 54.9 67.3011 55.5 67.3011C57.1 67.3011 58 65.5429 58.6 62.7102Z" fill="#072C74"/>
<path d="M80 62.3195C80.7 62.3195 81.1 62.2218 81.7 62.1241C81.7 63.0032 81.3 64.5661 79.5 64.5661C77.6 64.5661 76.1 62.8079 74.7 61.3427C74 61.7334 73.2 62.0264 72.3 62.0264C70.5 62.0264 69.5 61.1473 69.5 59.9752C69.5 59.096 70.2 58.1192 71.8 58.1192C72.7 58.1192 73.5 58.4123 74.2 58.9007C74.4 58.2169 74.6 57.1425 74.9 56.068C74.7 56.068 74.5 56.068 74.3 56.068C72.8 56.068 72.4 55.5796 72.4 54.8958C72.4 54.6028 72.5 54.3097 72.6 54.0167C73.1 54.2121 74.1 54.4074 75.2 54.4074H75.3C75.5 53.4306 75.7 52.5515 75.8 51.9654C76.4 49.4258 77.8 46.5931 80.4 46.5931C82.1 46.5931 82.8 47.5699 82.8 49.1327C82.8 52.3562 80.2 54.6028 77.5 55.5796L76.9 58.2169C76.7 58.9984 76.4 59.6821 76 60.2682C77.2 61.245 78.4 62.3195 80 62.3195ZM73.6 60.2682C73 59.6821 72.4 59.3891 71.7 59.3891C71.2 59.3891 71.1 59.5844 71.1 59.9752C71.1 60.6589 71.7 60.8543 72.3 60.8543C72.8 60.8543 73.2 60.6589 73.6 60.2682ZM77.8 53.8214C79.7 52.9422 80.8 50.9887 80.8 48.742C80.8 47.9606 80.6 47.6675 80.2 47.6675C79.6 47.6675 78.9 48.6443 78.3 51.2817L77.8 53.8214Z" fill="#072C74"/>
<path d="M81 59.5844C81 56.9471 82.4 51.8678 86.4 51.8678C87.4 51.8678 88.3 52.1608 89 52.6492L89.1 52.1608C89.2 52.1608 89.3 52.1608 89.3 52.1608C90.1 52.1608 91.4 52.7469 91.4 53.5283C91.4 53.626 91.4 53.7237 91.4 53.8214C90.9 55.6773 89.4 60.0728 89.7 60.0728C90.7 60.0728 92.5 57.1424 93.4 55.2865C93.6 55.1889 94 55.4819 94 55.7749C93.3 57.2401 90.9 61.9287 89 61.9287C87.9 61.9287 87 60.8543 87 60.3659C87 59.4868 88 57.2401 88.4 56.068H88.3C86.8 59.2914 84.5 61.9287 83 61.9287C81.9 62.0264 81 60.6589 81 59.5844ZM88.6 54.3097C87.8 53.626 86.9 53.4306 86.2 53.4306C85 53.4306 83.6 56.361 83.6 58.9007C83.6 59.4868 83.7 59.8775 84.1 59.8775C84.9 59.8775 86.9 57.6308 88.6 54.3097Z" fill="#072C74"/>
<path d="M92.4 60.6589C92.7 58.4123 93 56.068 95.3 45.8116C96.4 45.8116 97.7 46.007 97.7 47.1791C97.7 48.2536 96.3 51.6724 95.5 54.9935C95.3 55.9703 95.2 57.0448 95 57.8262H95.1C96.6 54.6028 98.8 51.9654 100.4 51.9654C101.6 51.9654 102.5 53.333 102.5 54.3097C102.5 56.8494 101.1 62.0264 97.2 62.0264C96.1 62.0264 93.1 61.1473 92.4 60.6589ZM99.9 55.0912C99.9 54.4074 99.7 54.1144 99.4 54.1144C98.6 54.1144 96.6 56.361 94.9 59.6821C95.8 60.2682 96.6 60.5612 97.3 60.5612C98.4 60.5612 99.9 57.5332 99.9 55.0912Z" fill="#072C74"/>
</g>
</svg>
