<svg width="125" height="68" viewBox="0 0 125 68" fill="none" xmlns="http://www.w3.org/2000/svg">
<g opacity="0.2">
<path d="M0 55.5795L8.4 47.7652L4.1 40.7323H11.2L12.6 43.9557L15.5 40.7323H22.5L15.1 47.7652L20 55.5795H12.7L10.8 51.5746L7.2 55.5795H0Z" fill="#072C74"/>
<path d="M21.9 55.5795L25.1 40.8299H36.4C38.3 40.8299 39.7 41.123 40.7 41.8067C41.7 42.4905 42.2 43.3696 42.2 44.5417C42.2 44.8348 42.2 45.2255 42.1 45.6162C41.8 47.1791 40.9 48.3512 39.6 49.1327C38.3 50.0118 36.5 50.4025 34.4 50.4025H28.9L27.8 55.5795H21.9ZM33.5 43.9557H30.3L29.6 47.1791H32.8C33.7 47.1791 34.4 47.0814 34.8 46.886C35.2 46.6907 35.5 46.2023 35.6 45.6162C35.6 45.4209 35.7 45.2255 35.7 45.1278C35.7 44.7371 35.5 44.4441 35.2 44.2487C34.9 44.0533 34.3 43.9557 33.5 43.9557Z" fill="#072C74"/>
<path d="M57.5 40.8299C60 40.8299 61.6 41.123 62.3 41.6114C63.1 42.0998 63.4 42.8812 63.4 43.858C63.4 44.151 63.4 44.4441 63.3 44.8348C63.1 45.7139 62.7 46.4953 62.1 47.1791C61.5 47.8628 60.8 48.3512 60 48.6443C60.5 48.8396 60.8 49.1327 61 49.4257C61.2 49.7187 61.3 50.1095 61.3 50.5002C61.3 50.7932 61.3 51.1839 61.2 51.77C61 53.2352 60.8 54.1143 60.8 54.505C60.8 54.9934 60.9 55.2865 61.2 55.4818V55.6772H54.7C54.6 55.4818 54.6 55.2865 54.6 55.0911C54.6 54.8957 54.7 54.4073 54.8 53.9189C54.9 53.3329 55 52.9422 55 52.6491C55.1 52.063 54.9 51.77 54.7 51.477C54.4 51.2816 53.9 51.1839 53.2 51.1839H49.7L48.7 55.6772H42.8L46 40.8299H57.5ZM50.5 47.1791H54C54.8 47.1791 55.5 47.0814 55.9 46.886C56.3 46.6907 56.6 46.3 56.7 45.8116C56.8 45.3232 56.7 44.9325 56.3 44.7371C55.9 44.5417 55.3 44.5417 54.4 44.5417H51.1L50.5 47.1791Z" fill="#072C74"/>
<path d="M64.4 55.5795L67.6 40.8299H83.6L82.8 44.4441H72.7L72.3 46.2023H80.5L79.7 49.8164H71.5L71.1 51.77H81.8L81 55.5795H64.4Z" fill="#072C74"/>
<path d="M83.7 51.0863H90.8C90.8 51.477 91 51.77 91.4 51.9654C91.8 52.1607 92.4 52.2584 93.2 52.2584C94.8 52.2584 95.7 51.8677 95.8 51.1839C95.9 50.8909 95.8 50.5979 95.4 50.4025C95.1 50.2071 94.6 50.1095 93.9 50.0118L89.6 49.5234C86.5 49.1327 85 47.9605 85 46.1046C85 45.8116 85 45.5185 85.1 45.1278C85.5 43.4673 86.4 42.2951 88 41.5137C89.6 40.7323 91.9 40.4392 94.9 40.4392C97.8 40.4392 99.9 40.7323 101.3 41.416C102.7 42.0998 103.4 43.0766 103.4 44.4441C103.4 44.7371 103.4 44.9325 103.4 45.1278H96.6C96.6 44.6394 96.4 44.3464 96 44.0533C95.6 43.858 94.9 43.6626 94 43.6626C93.3 43.6626 92.8 43.7603 92.4 43.9557C92 44.151 91.8 44.3464 91.7 44.6394C91.6 44.9325 91.7 45.1278 92.1 45.3232C92.4 45.4209 93 45.6162 93.8 45.7139L99 46.4953C101.8 46.886 103.2 48.0582 103.2 49.8164C103.2 50.1095 103.2 50.5002 103.1 50.7932C102.7 52.6491 101.6 53.9189 99.7 54.7981C97.9 55.6772 95.2 56.0679 91.7 56.0679C89.1 56.0679 87.2 55.6772 85.9 54.9934C84.6 54.3097 83.9 53.2352 83.9 51.9654C83.6 51.6723 83.6 51.3793 83.7 51.0863Z" fill="#072C74"/>
<path d="M105 51.0863H112.1C112.1 51.477 112.3 51.77 112.7 51.9654C113.1 52.1607 113.7 52.2584 114.5 52.2584C116.1 52.2584 117 51.8677 117.1 51.1839C117.2 50.8909 117.1 50.5979 116.7 50.4025C116.4 50.2071 115.9 50.1095 115.2 50.0118L110.9 49.5234C107.8 49.1327 106.3 47.9605 106.3 46.1046C106.3 45.8116 106.3 45.5185 106.4 45.1278C106.8 43.4673 107.7 42.2951 109.3 41.5137C110.9 40.7323 113.2 40.4392 116.2 40.4392C119.1 40.4392 121.2 40.7323 122.6 41.416C124 42.0998 124.7 43.0766 124.7 44.4441C124.7 44.7371 124.7 44.9325 124.7 45.1278H117.9C117.9 44.6394 117.7 44.3464 117.3 44.0533C116.9 43.858 116.2 43.6626 115.3 43.6626C114.6 43.6626 114.1 43.7603 113.7 43.9557C113.3 44.151 113.1 44.3464 113 44.6394C112.9 44.9325 113 45.1278 113.4 45.3232C113.7 45.4209 114.3 45.6162 115.1 45.7139L120.3 46.4953C123.1 46.886 124.5 48.0582 124.5 49.8164C124.5 50.1095 124.5 50.5002 124.4 50.7932C124 52.6491 122.9 53.9189 121 54.7981C119.2 55.6772 116.5 56.0679 113 56.0679C110.4 56.0679 108.5 55.6772 107.2 54.9934C105.9 54.3097 105.2 53.2352 105.2 51.9654C104.9 51.6723 104.9 51.3793 105 51.0863Z" fill="#072C74"/>
<path d="M29.2 64.566L29.4 65.5428L29.6 64.6637L31 60.1704H31.5L32.8 64.6637L33 65.5428L33.2 64.566L34.3 60.0727H34.8L33.2 66.1289H32.7L31.3 61.3426L31.1 60.7565L30.9 61.3426L29.4 66.1289H28.9L27.3 60.0727H27.8L29.2 64.566Z" fill="#072C74"/>
<path d="M35.4 63.8822C35.4 63.4915 35.5 63.1008 35.7 62.7101C35.9 62.3194 36.1 62.124 36.4 61.9286C36.7 61.7333 37.1 61.6356 37.5 61.6356C38.1 61.6356 38.6 61.831 39 62.2217C39.4 62.6124 39.6 63.1985 39.6 63.8822V63.9799C39.6 64.3706 39.5 64.859 39.3 65.1521C39.1 65.5428 38.9 65.7381 38.6 65.9335C38.3 66.1289 37.9 66.2265 37.5 66.2265C36.9 66.2265 36.4 66.0312 36 65.6405C35.6 65.2497 35.4 64.6637 35.4 63.9799V63.8822ZM35.9 63.9799C35.9 64.566 36 64.9567 36.3 65.3474C36.6 65.7381 37 65.8358 37.4 65.8358C37.9 65.8358 38.2 65.6405 38.5 65.3474C38.8 64.9567 38.9 64.566 38.9 63.9799V63.8822C38.9 63.4915 38.8 63.1985 38.7 62.9054C38.6 62.6124 38.4 62.417 38.1 62.2217C37.9 62.0263 37.6 62.0263 37.3 62.0263C36.8 62.0263 36.5 62.2217 36.2 62.5147C36.1 62.9054 35.9 63.2962 35.9 63.9799Z" fill="#072C74"/>
<path d="M42.7 62.124C42.6 62.124 42.5 62.124 42.4 62.124C42.1 62.124 41.8 62.2217 41.6 62.417C41.4 62.6124 41.2 62.8078 41.1 63.1985V66.3242H40.6V61.831H41.1V62.5147C41.4 62.0263 41.8 61.7333 42.4 61.7333C42.5 61.7333 42.7 61.7333 42.7 61.831V62.124Z" fill="#072C74"/>
<path d="M44.1 66.2265H43.6V59.7797H44.1V66.2265Z" fill="#072C74"/>
<path d="M45.3 63.8822C45.3 63.1985 45.5 62.6124 45.8 62.2217C46.1 61.831 46.6 61.6356 47.1 61.6356C47.7 61.6356 48.2 61.831 48.5 62.3194V59.7797H49V66.2265H48.5V65.6405C48.2 66.1289 47.7 66.3242 47.1 66.3242C46.6 66.3242 46.1 66.1289 45.8 65.7381C45.5 65.2497 45.3 64.6637 45.3 63.8822ZM45.8 63.9799C45.8 64.566 45.9 65.0544 46.2 65.3474C46.4 65.6405 46.8 65.8358 47.2 65.8358C47.8 65.8358 48.3 65.5428 48.5 65.0544V62.9054C48.2 62.3194 47.8 62.0263 47.2 62.0263C46.8 62.0263 46.4 62.2217 46.2 62.5147C46 62.8078 45.8 63.2962 45.8 63.9799Z" fill="#072C74"/>
<path d="M51.5 65.1521L51.6 65.5428L51.7 65.1521L52.8 61.6356H53.2L54.3 65.0544L54.4 65.5428L54.5 65.0544L55.5 61.5379H56L54.6 66.0312H54.2L53 62.417V62.3194V62.6124L51.8 66.2265H51.4L50 61.6356H50.5L51.5 65.1521Z" fill="#072C74"/>
<path d="M57 60.3658C57 60.2681 57 60.1704 57.1 60.1704C57.2 60.0727 57.2 60.0727 57.4 60.0727C57.5 60.0727 57.6 60.0727 57.7 60.1704C57.8 60.2681 57.8 60.2681 57.8 60.3658C57.8 60.4635 57.8 60.5611 57.7 60.5611C57.6 60.6588 57.5 60.6588 57.4 60.6588C57.3 60.6588 57.2 60.6588 57.1 60.5611C57 60.5611 57 60.4635 57 60.3658ZM57.6 66.2265H57.1V61.7333H57.6V66.2265Z" fill="#072C74"/>
<path d="M58.8 63.8822C58.8 63.1985 59 62.6124 59.3 62.2217C59.6 61.831 60.1 61.6356 60.6 61.6356C61.2 61.6356 61.7 61.831 62 62.3194V59.7797H62.5V66.2265H62V65.6405C61.7 66.1289 61.2 66.3242 60.6 66.3242C60.1 66.3242 59.6 66.1289 59.3 65.7381C59 65.2497 58.8 64.6637 58.8 63.8822ZM59.3 63.9799C59.3 64.566 59.4 65.0544 59.7 65.3474C60 65.6405 60.3 65.8358 60.7 65.8358C61.3 65.8358 61.8 65.5428 62 65.0544V62.9054C61.7 62.3194 61.3 62.0263 60.7 62.0263C60.3 62.0263 59.9 62.2217 59.7 62.5147C59.4 62.8078 59.3 63.2962 59.3 63.9799Z" fill="#072C74"/>
<path d="M65.7 66.2265C65.3 66.2265 64.9 66.1289 64.6 65.9335C64.3 65.7381 64 65.4451 63.9 65.1521C63.7 64.859 63.6 64.4683 63.6 63.9799V63.7846C63.6 63.3938 63.7 63.0031 63.9 62.6124C64.1 62.2217 64.3 62.0263 64.6 61.831C64.9 61.6356 65.2 61.5379 65.6 61.5379C66.2 61.5379 66.6 61.7333 66.9 62.124C67.2 62.5147 67.4 63.0031 67.4 63.6869V63.9799H64.1V64.0776C64.1 64.566 64.3 65.0544 64.6 65.3474C64.9 65.7381 65.3 65.8358 65.7 65.8358C66 65.8358 66.2 65.7381 66.4 65.6405C66.6 65.5428 66.8 65.3474 67 65.1521L67.3 65.3474C66.9 66.0312 66.4 66.2265 65.7 66.2265ZM65.6 62.0263C65.2 62.0263 64.9 62.124 64.6 62.417C64.3 62.7101 64.2 63.1008 64.1 63.4915H66.9C66.9 63.1008 66.8 62.7101 66.5 62.417C66.3 62.124 66 62.0263 65.6 62.0263Z" fill="#072C74"/>
<path d="M70.3 63.8822C70.3 63.1985 70.5 62.6124 70.8 62.2217C71.1 61.831 71.6 61.6356 72.1 61.6356C72.7 61.6356 73.2 61.831 73.5 62.3194V59.7797H74V66.2265H73.5V65.6405C73.2 66.1289 72.7 66.3242 72.1 66.3242C71.6 66.3242 71.1 66.1289 70.8 65.7381C70.5 65.2497 70.3 64.6637 70.3 63.8822ZM70.9 63.9799C70.9 64.566 71 65.0544 71.3 65.3474C71.6 65.6405 71.9 65.8358 72.3 65.8358C72.9 65.8358 73.4 65.5428 73.6 65.0544V62.9054C73.3 62.3194 72.9 62.0263 72.3 62.0263C71.9 62.0263 71.5 62.2217 71.3 62.5147C71 62.8078 70.9 63.2962 70.9 63.9799Z" fill="#072C74"/>
<path d="M77.2 66.2265C76.8 66.2265 76.4 66.1289 76.1 65.9335C75.8 65.7381 75.5 65.4451 75.4 65.1521C75.2 64.859 75.1 64.4683 75.1 63.9799V63.7846C75.1 63.3938 75.2 63.0031 75.4 62.6124C75.6 62.2217 75.8 62.0263 76.1 61.831C76.4 61.6356 76.7 61.5379 77.1 61.5379C77.7 61.5379 78.1 61.7333 78.4 62.124C78.7 62.5147 78.9 63.0031 78.9 63.6869V63.9799H75.6V64.0776C75.6 64.566 75.8 65.0544 76.1 65.3474C76.4 65.7381 76.8 65.8358 77.2 65.8358C77.5 65.8358 77.7 65.7381 77.9 65.6405C78.1 65.5428 78.3 65.3474 78.5 65.1521L78.8 65.3474C78.5 66.0312 77.9 66.2265 77.2 66.2265ZM77.1 62.0263C76.7 62.0263 76.4 62.124 76.1 62.417C75.8 62.7101 75.7 63.1008 75.6 63.4915H78.4C78.4 63.1008 78.3 62.7101 78 62.417C77.8 62.124 77.5 62.0263 77.1 62.0263Z" fill="#072C74"/>
<path d="M80.5 66.2265H80V59.7797H80.5V66.2265Z" fill="#072C74"/>
<path d="M81.9 60.3658C81.9 60.2681 81.9 60.1704 82 60.1704C82.1 60.0727 82.1 60.0727 82.3 60.0727C82.5 60.0727 82.5 60.0727 82.6 60.1704C82.7 60.2681 82.7 60.2681 82.7 60.3658C82.7 60.4635 82.7 60.5611 82.6 60.5611C82.5 60.6588 82.4 60.6588 82.3 60.6588C82.2 60.6588 82.1 60.6588 82 60.5611C81.9 60.5611 81.9 60.4635 81.9 60.3658ZM82.5 66.2265H82V61.7333H82.5V66.2265Z" fill="#072C74"/>
<path d="M85.4 65.5428L86.8 61.7333H87.3L85.6 66.2265H85.2L83.5 61.7333H84L85.4 65.5428Z" fill="#072C74"/>
<path d="M89.9 66.2265C89.5 66.2265 89.1 66.1289 88.8 65.9335C88.5 65.7381 88.2 65.4451 88.1 65.1521C87.9 64.859 87.8 64.4683 87.8 63.9799V63.7846C87.8 63.3938 87.9 63.0031 88.1 62.6124C88.3 62.2217 88.5 62.0263 88.8 61.831C89.1 61.6356 89.4 61.5379 89.8 61.5379C90.4 61.5379 90.8 61.7333 91.1 62.124C91.4 62.5147 91.6 63.0031 91.6 63.6869V63.9799H88.3V64.0776C88.3 64.566 88.5 65.0544 88.8 65.3474C89.1 65.7381 89.5 65.8358 89.9 65.8358C90.2 65.8358 90.4 65.7381 90.6 65.6405C90.8 65.5428 91 65.3474 91.2 65.1521L91.5 65.3474C91.1 66.0312 90.6 66.2265 89.9 66.2265ZM89.8 62.0263C89.4 62.0263 89.1 62.124 88.8 62.417C88.5 62.7101 88.4 63.1008 88.3 63.4915H91.1C91.1 63.1008 91 62.7101 90.7 62.417C90.5 62.124 90.2 62.0263 89.8 62.0263Z" fill="#072C74"/>
<path d="M94.8 62.124C94.7 62.124 94.6 62.124 94.5 62.124C94.2 62.124 93.9 62.2217 93.7 62.417C93.5 62.6124 93.3 62.8078 93.2 63.1985V66.3242H92.7V61.831H93.2V62.5147C93.5 62.0263 93.9 61.7333 94.5 61.7333C94.6 61.7333 94.8 61.7333 94.8 61.831V62.124Z" fill="#072C74"/>
<path d="M97.1 65.4451L98.5 61.6356H99L97 66.9103L96.9 67.1056C96.6 67.6917 96.3 67.8871 95.7 67.8871C95.6 67.8871 95.4 67.8871 95.3 67.7894V67.3987H95.6C95.9 67.3987 96.1 67.301 96.2 67.2033C96.4 67.1057 96.5 66.9103 96.6 66.6172L96.8 66.0312L95.1 61.5379H95.7L97.1 65.4451Z" fill="#072C74"/>
<path d="M99.3 65.8358C99.3 65.7381 99.3 65.6405 99.4 65.5428C99.5 65.4451 99.6 65.4451 99.7 65.4451C99.8 65.4451 99.9 65.4451 100 65.5428C100.1 65.6405 100.1 65.7381 100.1 65.8358C100.1 65.9335 100.1 66.0312 100 66.0312C99.9 66.1289 99.8 66.1289 99.7 66.1289C99.6 66.1289 99.5 66.1289 99.4 66.0312C99.3 66.0312 99.3 65.9335 99.3 65.8358Z" fill="#072C74"/>
<path d="M78.9 0H69.7L59.2 13.089H65.5L51.2 34.0901L77.6 9.67025H70.3L78.9 0Z" fill="#072C74"/>
<path d="M65.5 23.443L70.1 29.3038H78.4L70.2 19.0475L65.5 23.443Z" fill="#072C74"/>
<path d="M61.1 7.61898L57.2 2.73502H49.1L57 12.796L61.1 7.61898Z" fill="#072C74"/>
</g>
</svg>
