<svg width="101" height="70" viewBox="0 0 101 70" fill="none" xmlns="http://www.w3.org/2000/svg">
<g opacity="0.2">
<path d="M90.3 1.9L81.2 9.3L95.2 11L76.3 13.3L70 18.4L80.5 19.6L66.5 21.2L60.2 26.3L85.8 28.2L55 30.5L47.3 36.9H93.8L100.9 5.7C101.5 2.7 99 0 95.7 0C93.7 0 91.8 0.7 90.3 1.9Z" fill="#072C74"/>
<path d="M13.9 33.3H9.2L7.3 36.8H4.1L13 20.7H15.2L17.3 36.8H14.3L13.9 33.3ZM10.5 30.8H13.8L13.4 27.2V24.7H13.3L12.4 27.2L10.5 30.8Z" fill="#072C74"/>
<path d="M23.4 20.8H26.4L23 36.8H20L23.4 20.8Z" fill="#072C74"/>
<path d="M30.3 21C31 20.9 31.8 20.8 32.5 20.7C33.2 20.6 33.9 20.6 34.5 20.6C35.2 20.6 35.9 20.7 36.5 20.9C37.1 21.1 37.7 21.3 38.1 21.7C38.5 22.1 38.9 22.5 39.2 23C39.5 23.5 39.6 24.2 39.6 24.9C39.6 25.7 39.5 26.5 39.2 27.1C38.9 27.7 38.6 28.2 38.2 28.7C37.8 29.2 37.3 29.4 36.8 29.7C36.3 29.9 35.7 30.1 35.2 30.2L36.1 30.9L38.3 37H35L32.8 30.7L31.2 30.4L29.8 37H26.8L30.3 21ZM31.8 28.1H33C33.4 28.1 33.9 28.1 34.3 28C34.7 27.9 35.1 27.8 35.4 27.5C35.7 27.2 36 27 36.2 26.6C36.4 26.2 36.5 25.8 36.5 25.2C36.5 24.7 36.3 24.2 36 23.9C35.6 23.5 35.1 23.3 34.3 23.3C34 23.3 33.7 23.3 33.4 23.3C33.1 23.3 32.9 23.3 32.7 23.4L31.8 28.1Z" fill="#072C74"/>
<path d="M3.4 40.5H12.4L11.8 43.3H5.8L5 47H10.5L9.9 49.8H4.4L3.6 53.7H9.8L9.2 56.5H0L3.4 40.5Z" fill="#072C74"/>
<path d="M17.8 48.4L15.3 40.5H18.5L19.9 45.1L20.1 46.7L20.9 45.1L24.3 40.5H27.9L21.9 48.2L24.8 56.5H21.6L20 51.6L19.7 49.9L18.8 51.6L15 56.5H11.3L17.8 48.4Z" fill="#072C74"/>
<path d="M30.6 40.7C31.2 40.6 31.9 40.5 32.6 40.4C33.3 40.3 34.1 40.3 34.8 40.3C35.6 40.3 36.3 40.4 37 40.6C37.7 40.8 38.2 41 38.7 41.4C39.2 41.8 39.6 42.2 39.9 42.8C40.2 43.4 40.3 44.1 40.3 44.8C40.3 46 40.1 47 39.7 47.8C39.3 48.6 38.7 49.2 38.1 49.7C37.4 50.2 36.6 50.5 35.8 50.8C34.9 51 34 51.1 33.1 51.1C33 51.1 32.9 51.1 32.7 51.1C32.5 51.1 32.4 51.1 32.2 51.1C32 51.1 31.9 51.1 31.7 51.1C31.5 51.1 31.4 51.1 31.3 51.1L30.2 56.6H27.2L30.6 40.7ZM32 48.3C32.1 48.3 32.1 48.3 32.3 48.3C32.4 48.3 32.5 48.3 32.7 48.3C32.8 48.3 33 48.3 33.1 48.3C33.2 48.3 33.3 48.3 33.4 48.3C33.9 48.3 34.4 48.2 34.9 48.1C35.4 48 35.8 47.8 36.2 47.5C36.6 47.2 36.9 46.9 37.1 46.5C37.3 46.1 37.4 45.6 37.4 45C37.4 44.6 37.3 44.2 37.2 43.9C37.1 43.6 36.9 43.4 36.6 43.2C36.4 43 36.1 42.9 35.7 42.9C35.4 42.8 35 42.8 34.7 42.8C34.4 42.8 34.2 42.8 33.9 42.8C33.6 42.8 33.4 42.8 33.3 42.9L32 48.3Z" fill="#072C74"/>
<path d="M44.1 40.7C44.8 40.6 45.6 40.5 46.3 40.4C47 40.3 47.7 40.3 48.3 40.3C49 40.3 49.7 40.4 50.3 40.6C50.9 40.8 51.5 41 51.9 41.4C52.3 41.8 52.7 42.2 53 42.7C53.3 43.2 53.4 43.9 53.4 44.6C53.4 45.4 53.3 46.2 53 46.8C52.7 47.4 52.4 47.9 52 48.4C51.6 48.9 51.1 49.1 50.6 49.4C50.1 49.6 49.5 49.8 49 49.9L49.9 50.6L52.1 56.7H48.8L46.6 50.4L45.1 50L43.7 56.6H40.7L44.1 40.7ZM45.6 47.8H46.8C47.2 47.8 47.7 47.8 48.1 47.7C48.5 47.6 48.9 47.5 49.2 47.2C49.5 46.9 49.8 46.7 50 46.3C50.2 45.9 50.3 45.5 50.3 44.9C50.3 44.4 50.1 43.9 49.8 43.6C49.4 43.2 48.9 43 48.1 43C47.8 43 47.5 43 47.2 43C46.9 43 46.7 43 46.5 43.1L45.6 47.8Z" fill="#072C74"/>
<path d="M58.5 40.5H67.5L66.9 43.3H60.9L60 47H65.5L64.9 49.8H59.4L58.6 53.7H64.8L64.2 56.5H55L58.5 40.5Z" fill="#072C74"/>
<path d="M78.5 43.8C78.2 43.6 77.8 43.4 77.2 43.2C76.6 43 76 42.9 75.3 42.9C74.9 42.9 74.6 42.9 74.3 43C74 43.1 73.7 43.2 73.4 43.3C73.1 43.4 72.9 43.7 72.8 43.9C72.7 44.1 72.6 44.4 72.6 44.8C72.6 45.2 72.7 45.6 73 45.9C73.3 46.2 73.6 46.5 74 46.8C74.4 47.1 74.9 47.3 75.4 47.6C75.9 47.9 76.3 48.2 76.8 48.6C77.2 49 77.6 49.4 77.9 49.9C78.2 50.4 78.3 51 78.3 51.8C78.3 52.7 78.1 53.5 77.8 54.1C77.5 54.7 77 55.3 76.5 55.7C76 56.1 75.2 56.4 74.4 56.6C73.6 56.8 72.7 56.9 71.7 56.9C71.2 56.9 70.7 56.9 70.2 56.8C69.7 56.7 69.3 56.7 68.9 56.6C68.5 56.5 68.1 56.4 67.8 56.3C67.5 56.2 67.2 56 67 55.9L68.5 53.2C68.7 53.3 68.9 53.4 69.1 53.5C69.3 53.6 69.6 53.7 69.9 53.8C70.2 53.9 70.6 54 70.9 54C71.3 54.1 71.6 54.1 72 54.1C72.4 54.1 72.8 54.1 73.2 54C73.6 53.9 73.9 53.8 74.2 53.7C74.5 53.5 74.7 53.3 74.9 53.1C75.1 52.9 75.1 52.5 75.1 52.2C75.1 51.8 75 51.4 74.7 51.1C74.4 50.8 74.1 50.5 73.6 50.3C73.2 50 72.7 49.8 72.2 49.5C71.7 49.2 71.3 48.9 70.8 48.5C70.4 48.1 70 47.7 69.8 47.1C69.5 46.6 69.4 45.9 69.4 45.1C69.4 44.2 69.6 43.5 69.9 42.8C70.2 42.2 70.6 41.7 71.2 41.3C71.7 40.9 72.4 40.6 73.1 40.4C73.8 40.2 74.6 40.1 75.4 40.1C75.8 40.1 76.3 40.1 76.7 40.2C77.1 40.2 77.6 40.3 78 40.4C78.4 40.5 78.8 40.6 79.1 40.7C79.4 40.8 79.7 40.9 79.9 41.1L78.5 43.8Z" fill="#072C74"/>
<path d="M91.1 43.8C90.8 43.6 90.4 43.4 89.8 43.2C89.2 43 88.6 42.9 87.9 42.9C87.5 42.9 87.2 42.9 86.9 43C86.6 43.1 86.3 43.2 86 43.3C85.7 43.4 85.5 43.7 85.4 43.9C85.3 44.1 85.2 44.4 85.2 44.8C85.2 45.2 85.3 45.6 85.6 45.9C85.9 46.2 86.2 46.5 86.6 46.8C87 47.1 87.5 47.3 88 47.6C88.5 47.9 88.9 48.2 89.4 48.6C89.8 49 90.2 49.4 90.5 49.9C90.8 50.4 90.9 51 90.9 51.8C90.9 52.7 90.7 53.5 90.4 54.1C90.1 54.7 89.6 55.3 89.1 55.7C88.6 56.1 87.8 56.4 87 56.6C86.2 56.8 85.3 56.9 84.3 56.9C83.8 56.9 83.3 56.9 82.8 56.8C82.3 56.7 81.9 56.7 81.5 56.6C81.1 56.5 80.7 56.4 80.4 56.3C80.1 56.2 79.8 56.1 79.7 56L81.2 53.3C81.4 53.4 81.6 53.5 81.8 53.6C82 53.7 82.3 53.8 82.6 53.9C82.9 54 83.3 54.1 83.6 54.1C84 54.2 84.3 54.2 84.7 54.2C85.1 54.2 85.5 54.2 85.9 54.1C86.3 54 86.6 53.9 86.9 53.8C87.2 53.6 87.4 53.4 87.6 53.2C87.8 53 87.8 52.6 87.8 52.3C87.8 51.9 87.7 51.5 87.4 51.2C87.1 50.9 86.8 50.6 86.3 50.4C85.9 50.1 85.4 49.9 84.9 49.6C84.4 49.3 84 49 83.5 48.6C83.1 48.2 82.7 47.8 82.5 47.2C82.2 46.7 82.1 46 82.1 45.2C82.1 44.3 82.3 43.6 82.6 42.9C82.9 42.3 83.3 41.8 83.9 41.4C84.4 41 85.1 40.7 85.8 40.5C86.5 40.3 87.3 40.2 88.1 40.2C88.5 40.2 89 40.2 89.4 40.3C89.8 40.3 90.3 40.4 90.7 40.5C91.1 40.6 91.5 40.7 91.8 40.8C92.1 40.9 92.4 41 92.6 41.2L91.1 43.8Z" fill="#072C74"/>
<path d="M4.6 65.9C4.5 66.5 4.3 67 3.9 67.4C3.5 67.7 3 67.9 2.3 67.9C1.8 67.9 1.5 67.8 1.1 67.6C0.8 67.4 0.5 67.1 0.3 66.6C0.1 66.2 0 65.7 0 65.2V64.4C0 63.9 0.1 63.4 0.3 63C0.5 62.6 0.8 62.3 1.1 62C1.5 61.8 1.9 61.7 2.3 61.7C3 61.7 3.5 61.9 3.8 62.2C4.2 62.6 4.4 63 4.5 63.7H4.1C4 62.7 3.4 62.2 2.4 62.2C1.8 62.2 1.4 62.4 1.1 62.8C0.8 63.2 0.6 63.8 0.6 64.5V65.2C0.6 65.9 0.8 66.5 1.1 66.9C1.4 67.3 1.9 67.5 2.4 67.5C2.9 67.5 3.3 67.4 3.6 67.1C3.9 66.8 4 66.5 4.1 65.9H4.6Z" fill="#072C74"/>
<path d="M6.2 64.1C6.4 63.8 6.6 63.6 6.8 63.5C7.1 63.4 7.3 63.3 7.6 63.3C8.1 63.3 8.4 63.4 8.7 63.7C8.9 64 9.1 64.4 9.1 64.9V67.9H8.7V64.9C8.7 64.5 8.6 64.2 8.4 64C8.2 63.8 8 63.7 7.6 63.7C7.3 63.7 7 63.8 6.8 64C6.6 64.2 6.4 64.5 6.3 64.8V67.9H5.7V61.5H6.2V64.1Z" fill="#072C74"/>
<path d="M10.2 65.5C10.2 65.1 10.3 64.7 10.5 64.3C10.7 64 10.9 63.7 11.2 63.5C11.5 63.3 11.9 63.2 12.2 63.2C12.8 63.2 13.3 63.4 13.7 63.8C14.1 64.2 14.3 64.8 14.3 65.5V65.6C14.3 66 14.2 66.4 14 66.8C13.8 67.1 13.6 67.4 13.3 67.6C13 67.8 12.6 67.9 12.3 67.9C11.7 67.9 11.2 67.7 10.8 67.3C10.4 66.9 10.2 66.3 10.2 65.6V65.5ZM10.7 65.6C10.7 66.1 10.8 66.6 11.1 66.9C11.4 67.2 11.7 67.4 12.2 67.4C12.7 67.4 13 67.2 13.3 66.9C13.6 66.6 13.7 66.1 13.7 65.5V65.4C13.7 65.1 13.6 64.7 13.5 64.5C13.4 64.3 13.2 64 13 63.9C12.8 63.7 12.5 63.7 12.2 63.7C11.8 63.7 11.4 63.9 11.1 64.2C10.8 64.5 10.7 65 10.7 65.6Z" fill="#072C74"/>
<path d="M15 65.5C15 65.1 15.1 64.7 15.3 64.3C15.5 64 15.7 63.7 16 63.5C16.3 63.3 16.7 63.2 17 63.2C17.6 63.2 18.1 63.4 18.5 63.8C18.9 64.2 19.1 64.8 19.1 65.5V65.6C19.1 66 19 66.4 18.8 66.8C18.6 67.1 18.4 67.4 18.1 67.6C17.8 67.8 17.4 67.9 17.1 67.9C16.5 67.9 16 67.7 15.6 67.3C15.2 66.9 15 66.3 15 65.6V65.5ZM15.5 65.6C15.5 66.1 15.6 66.6 15.9 66.9C16.2 67.2 16.5 67.4 17 67.4C17.5 67.4 17.8 67.2 18.1 66.9C18.4 66.6 18.5 66.1 18.5 65.5V65.4C18.5 65.1 18.4 64.7 18.3 64.5C18.2 64.3 18 64 17.8 63.9C17.6 63.7 17.3 63.7 17 63.7C16.6 63.7 16.2 63.9 15.9 64.2C15.6 64.5 15.5 65 15.5 65.6Z" fill="#072C74"/>
<path d="M22.7 66.7C22.7 66.5 22.6 66.3 22.4 66.1C22.2 65.9 21.9 65.8 21.5 65.7C21.1 65.6 20.8 65.5 20.6 65.4C20.4 65.3 20.2 65.2 20.1 65C20 64.8 19.9 64.6 19.9 64.4C19.9 64 20 63.7 20.3 63.5C20.6 63.3 21 63.2 21.4 63.2C21.9 63.2 22.3 63.3 22.6 63.6C22.9 63.9 23.1 64.2 23.1 64.6H22.6C22.6 64.3 22.5 64.1 22.3 63.9C22.1 63.7 21.8 63.6 21.5 63.6C21.2 63.6 20.9 63.7 20.7 63.8C20.5 63.9 20.4 64.1 20.4 64.4C20.4 64.6 20.5 64.8 20.6 64.9C20.8 65 21.1 65.1 21.5 65.2C21.9 65.3 22.3 65.4 22.5 65.5C22.7 65.6 22.9 65.8 23 65.9C23.1 66.1 23.2 66.3 23.2 66.5C23.2 66.9 23 67.2 22.7 67.4C22.4 67.6 22 67.7 21.5 67.7C21 67.7 20.5 67.6 20.2 67.3C19.9 67 19.7 66.7 19.7 66.3H20.2C20.2 66.6 20.3 66.8 20.6 67C20.8 67.2 21.1 67.2 21.5 67.2C21.8 67.2 22.1 67.1 22.3 67C22.6 67.1 22.7 66.9 22.7 66.7Z" fill="#072C74"/>
<path d="M26.1 67.9C25.7 67.9 25.4 67.8 25.1 67.6C24.8 67.4 24.5 67.1 24.4 66.8C24.3 66.5 24.1 66.1 24.1 65.7V65.5C24.1 65.1 24.2 64.7 24.4 64.3C24.6 64 24.8 63.7 25.1 63.5C25.4 63.3 25.7 63.2 26.1 63.2C26.6 63.2 27.1 63.4 27.4 63.8C27.7 64.2 27.9 64.7 27.9 65.3V65.6H24.7V65.7C24.7 66.2 24.8 66.6 25.1 67C25.4 67.3 25.8 67.5 26.2 67.5C26.5 67.5 26.7 67.5 26.9 67.4C27.1 67.3 27.3 67.1 27.5 66.9L27.8 67.1C27.3 67.6 26.8 67.9 26.1 67.9ZM26 63.6C25.6 63.6 25.3 63.7 25 64C24.7 64.3 24.6 64.6 24.5 65.1H27.2V65C27.2 64.6 27.1 64.2 26.8 63.9C26.7 63.8 26.4 63.6 26 63.6Z" fill="#072C74"/>
<path d="M31.6 62.1V63.3H32.5V63.7H31.6V66.7C31.6 67 31.6 67.1 31.7 67.3C31.8 67.4 31.9 67.5 32.2 67.5C32.3 67.5 32.4 67.5 32.6 67.5V67.9C32.5 67.9 32.3 68 32.1 68C31.8 68 31.5 67.9 31.4 67.7C31.2 67.5 31.2 67.2 31.2 66.8V63.8H30.4V63.4H31.2V62.2H31.6V62.1Z" fill="#072C74"/>
<path d="M34.1 64.1C34.3 63.8 34.5 63.6 34.7 63.5C35 63.4 35.2 63.3 35.5 63.3C36 63.3 36.3 63.4 36.6 63.7C36.8 64 37 64.4 37 64.9V67.9H36.5V64.9C36.5 64.5 36.4 64.2 36.2 64C36 63.8 35.8 63.7 35.4 63.7C35.1 63.7 34.8 63.8 34.6 64C34.4 64.2 34.2 64.5 34.1 64.8V67.9H33.6V61.5H34.1V64.1Z" fill="#072C74"/>
<path d="M40 67.9C39.6 67.9 39.3 67.8 39 67.6C38.7 67.4 38.4 67.1 38.3 66.8C38.2 66.5 38 66.1 38 65.7V65.5C38 65.1 38.1 64.7 38.3 64.3C38.5 64 38.7 63.7 39 63.5C39.3 63.3 39.6 63.2 40 63.2C40.5 63.2 41 63.4 41.3 63.8C41.6 64.2 41.8 64.7 41.8 65.3V65.6H38.6V65.7C38.6 66.2 38.7 66.6 39 67C39.3 67.3 39.7 67.5 40.1 67.5C40.4 67.5 40.6 67.5 40.8 67.4C41 67.3 41.2 67.1 41.4 66.9L41.7 67.1C41.3 67.6 40.7 67.9 40 67.9ZM39.9 63.6C39.5 63.6 39.2 63.7 38.9 64C38.6 64.3 38.5 64.6 38.4 65.1H41.1V65C41.1 64.6 41 64.2 40.7 63.9C40.6 63.8 40.3 63.6 39.9 63.6Z" fill="#072C74"/>
<path d="M46.9 63.7C46.8 63.7 46.7 63.7 46.6 63.7C46.3 63.7 46 63.8 45.8 64C45.6 64.2 45.4 64.4 45.3 64.8V67.9H44.8V63.4H45.3V64.1C45.6 63.6 46 63.3 46.6 63.3C46.7 63.3 46.8 63.3 46.9 63.4V63.7Z" fill="#072C74"/>
<path d="M47.6 62C47.6 61.9 47.6 61.8 47.7 61.8C47.8 61.7 47.8 61.7 48 61.7C48.1 61.7 48.2 61.7 48.3 61.8C48.4 61.9 48.4 61.9 48.4 62C48.4 62.1 48.4 62.2 48.3 62.2C48.2 62.3 48.2 62.3 48 62.3C47.9 62.3 47.8 62.3 47.7 62.2C47.7 62.2 47.6 62.1 47.6 62ZM48.2 67.8H47.7V63.3H48.2V67.8Z" fill="#072C74"/>
<path d="M49.4 65.5C49.4 64.8 49.6 64.2 49.9 63.8C50.2 63.4 50.6 63.2 51.2 63.2C51.8 63.2 52.3 63.4 52.6 63.9V63.2H53V67.6C53 68.2 52.8 68.6 52.5 69C52.2 69.3 51.7 69.5 51.2 69.5C50.9 69.5 50.6 69.4 50.3 69.3C50 69.2 49.8 69 49.6 68.7L49.9 68.4C50.3 68.8 50.7 69.1 51.2 69.1C51.6 69.1 51.9 69 52.2 68.7C52.4 68.5 52.6 68.1 52.6 67.7V67.1C52.3 67.5 51.8 67.8 51.2 67.8C50.7 67.8 50.3 67.6 49.9 67.2C49.5 66.8 49.4 66.3 49.4 65.5ZM49.9 65.6C49.9 66.2 50 66.6 50.2 67C50.4 67.3 50.8 67.5 51.2 67.5C51.8 67.5 52.3 67.2 52.5 66.7V64.6C52.4 64.3 52.2 64.1 52 63.9C51.8 63.7 51.5 63.7 51.2 63.7C50.8 63.7 50.5 63.9 50.2 64.2C50 64.5 49.9 65 49.9 65.6Z" fill="#072C74"/>
<path d="M54.8 64.1C55 63.8 55.2 63.6 55.4 63.5C55.7 63.4 55.9 63.3 56.2 63.3C56.7 63.3 57 63.4 57.3 63.7C57.5 64 57.7 64.4 57.7 64.9V67.9H57.2V64.9C57.2 64.5 57.1 64.2 56.9 64C56.7 63.8 56.5 63.7 56.1 63.7C55.8 63.7 55.5 63.8 55.3 64C55.1 64.2 54.9 64.5 54.8 64.8V67.9H54.3V61.5H54.8V64.1Z" fill="#072C74"/>
<path d="M59.8 62.1V63.3H60.7V63.7H59.8V66.7C59.8 67 59.8 67.1 59.9 67.3C60 67.4 60.1 67.5 60.4 67.5C60.5 67.5 60.6 67.5 60.8 67.5V67.9C60.7 67.9 60.5 68 60.3 68C60 68 59.7 67.9 59.6 67.7C59.4 67.5 59.4 67.2 59.4 66.8V63.8H58.6V63.4H59.4V62.2H59.8V62.1Z" fill="#072C74"/>
<path d="M64.9 66.8L65 67.2L65.1 66.8L66.2 63.3H66.6L67.7 66.7L67.8 67.2L67.9 66.8L68.8 63.3H69.3L68 67.8H67.6L66.4 64.2V64L66.3 64.3L65.2 67.9H64.8L63.5 63.4H64L64.9 66.8Z" fill="#072C74"/>
<path d="M73.1 67.8C73 67.7 73 67.4 73 67.2C72.8 67.4 72.6 67.6 72.3 67.7C72 67.8 71.7 67.9 71.4 67.9C71 67.9 70.6 67.8 70.3 67.5C70 67.2 69.9 67 69.9 66.6C69.9 66.2 70.1 65.8 70.4 65.6C70.8 65.3 71.3 65.2 71.9 65.2H73V64.7C73 64.4 72.9 64.1 72.7 63.9C72.5 63.7 72.2 63.6 71.8 63.6C71.5 63.6 71.2 63.7 70.9 63.9C70.7 64.1 70.6 64.3 70.6 64.5H70.1C70.1 64.1 70.3 63.8 70.6 63.6C70.9 63.4 71.3 63.2 71.8 63.2C72.3 63.2 72.7 63.3 73 63.6C73.3 63.9 73.4 64.2 73.4 64.7V66.8C73.4 67.2 73.4 67.6 73.5 67.8V67.9H73.1V67.8ZM71.6 67.4C71.9 67.4 72.2 67.3 72.5 67.2C72.8 67 73 66.8 73.1 66.6V65.6H72.2C71.7 65.6 71.3 65.7 71 65.9C70.7 66.1 70.6 66.3 70.6 66.6C70.6 66.9 70.7 67.1 70.9 67.2C71 67.4 71.3 67.4 71.6 67.4Z" fill="#072C74"/>
<path d="M76.2 67.1L77.5 63.3H78L76.1 68.6L76 68.8C75.8 69.3 75.4 69.6 74.9 69.6C74.8 69.6 74.7 69.6 74.5 69.5V69.1H74.8C75 69.1 75.2 69 75.4 68.9C75.6 68.8 75.7 68.6 75.8 68.3L76 67.7L74.3 63.2H74.8L76.2 67.1Z" fill="#072C74"/>
<path d="M78.4 67.5C78.4 67.4 78.4 67.3 78.5 67.3C78.6 67.2 78.6 67.2 78.8 67.2C79 67.2 79 67.2 79.1 67.3C79.2 67.4 79.2 67.5 79.2 67.5C79.2 67.6 79.2 67.7 79.1 67.7C79 67.8 78.9 67.8 78.8 67.8C78.7 67.8 78.6 67.8 78.5 67.7C78.4 67.6 78.4 67.6 78.4 67.5Z" fill="#072C74"/>
</g>
</svg>
