<svg width="110" height="69" viewBox="0 0 110 69" fill="none" xmlns="http://www.w3.org/2000/svg">
<g opacity="0.2">
<path d="M0 47.9911C0 45.1584 0.6 43.0095 1.8 41.5443C3 40.0791 4.8 39.2976 7 39.2976C8.2 39.2976 9.3 39.493 10.2 39.8837C11.1 40.2744 11.8 40.8605 12.4 41.6419C13 42.4234 13.4 43.3025 13.7 44.377C14 45.4514 14.1 46.6236 14.1 47.9911C14.1 50.8238 13.5 52.9728 12.3 54.438C11.1 55.9031 9.3 56.6846 7 56.6846C5.8 56.6846 4.8 56.4892 3.9 56.0985C3 55.7078 2.3 55.1217 1.7 54.3403C1.1 53.5588 0.7 52.6797 0.4 51.6053C0.1 50.5308 0 49.3586 0 47.9911ZM2.2 47.9911C2.2 48.9679 2.3 49.847 2.5 50.6285C2.7 51.4099 3 52.1913 3.4 52.8751C3.8 53.5588 4.3 54.0472 4.9 54.438C5.5 54.8287 6.2 55.024 7.1 55.024C8.6 55.024 9.8 54.438 10.7 53.3635C11.6 52.1913 12 50.4331 12 48.0888C12 47.2097 11.9 46.3306 11.7 45.4514C11.5 44.5723 11.2 43.8886 10.8 43.2048C10.4 42.5211 9.9 42.0327 9.3 41.6419C8.6 41.2512 7.9 41.0559 7 41.0559C5.5 41.0559 4.3 41.6419 3.4 42.7164C2.6 43.8886 2.2 45.6468 2.2 47.9911ZM16 60.5918C15.6 60.6894 15.2 60.7871 14.8 60.7871C14.4 60.7871 14 60.8848 13.7 60.8848C12.9 60.8848 12.1 60.7871 11.3 60.5918C10.5 60.3964 9.8 60.2987 9 60.1034C8.3 59.908 7.6 59.7126 6.9 59.5173C6.2 59.3219 5.6 59.2242 5 59.2242C4.6 59.2242 4.2 59.2243 3.9 59.3219V57.6614C4.1 57.6614 4.4 57.5637 4.6 57.5637C4.8 57.5637 5 57.5637 5.3 57.5637C6 57.5637 6.7 57.6614 7.4 57.8567C8.1 58.0521 8.8 58.2475 9.5 58.4428C10.2 58.6382 10.9 58.8335 11.7 59.0289C12.4 59.2243 13.2 59.3219 14 59.3219C14.7 59.3219 15.4 59.2242 16.1 59.1266V60.5918H16Z" fill="#072C74"/>
<path d="M28.5 39.5907H30.5V50.8238C30.5 51.8006 30.4 52.6797 30.1 53.4612C29.8 54.2426 29.4 54.8287 28.9 55.3171C28.4 55.8055 27.8 56.0985 27.1 56.3915C26.4 56.6846 25.6 56.6846 24.8 56.6846C22.8 56.6846 21.2 56.1962 20.2 55.3171C19.2 54.438 18.6 53.0704 18.6 51.2145V39.5907H20.7V50.3354C20.7 51.2145 20.8 51.8983 21 52.4844C21.2 53.0704 21.4 53.5588 21.8 53.9496C22.2 54.3403 22.6 54.5356 23.1 54.731C23.6 54.9264 24.2 54.9264 24.9 54.9264C26.2 54.9264 27.2 54.5356 27.8 53.8519C28.4 53.1681 28.7 51.996 28.7 50.3354V39.5907H28.5Z" fill="#072C74"/>
<path d="M36.2 39.5907H38.3V56.4892H36.2V39.5907Z" fill="#072C74"/>
<path d="M54.9 55.8055C54.4 56.1962 53.8 56.3915 53 56.5869C52.2 56.6846 51.4 56.7823 50.6 56.7823C49.6 56.7823 48.6 56.5869 47.7 56.2939C46.8 55.9031 46 55.4147 45.3 54.731C44.6 54.0472 44.1 53.0704 43.7 51.996C43.3 50.9215 43.1 49.554 43.1 48.0888C43.1 46.5259 43.3 45.1584 43.8 44.0839C44.2 43.0095 44.8 42.0327 45.5 41.3489C46.2 40.6652 47 40.1768 47.9 39.786C48.8 39.493 49.7 39.2976 50.6 39.2976C51.6 39.2976 52.4 39.3953 53 39.493C53.6 39.5907 54.2 39.786 54.6 39.8837L54.1 41.6419C53.3 41.2512 52.2 41.0559 50.7 41.0559C50 41.0559 49.4 41.1536 48.7 41.4466C48 41.6419 47.5 42.1303 46.9 42.6187C46.4 43.2048 46 43.8886 45.7 44.7677C45.4 45.6468 45.2 46.7213 45.2 47.9911C45.2 49.1633 45.3 50.1401 45.6 51.0192C45.9 51.8983 46.3 52.582 46.8 53.1681C47.3 53.7542 47.9 54.1449 48.6 54.438C49.3 54.731 50.1 54.8287 50.9 54.8287C51.6 54.8287 52.3 54.731 52.8 54.6333C53.4 54.5356 53.8 54.3403 54.2 54.0472L54.9 55.8055Z" fill="#072C74"/>
<path d="M62.2 48.6749H61V56.4892H59V39.5907H61V47.5027L62.1 47.2097L67.9 39.6884H70.3L64.5 46.9166L63.5 47.6981L64.8 48.6749L71.1 56.5869H68.5L62.2 48.6749Z" fill="#072C74"/>
<path d="M82.5 51.8006H76.2L74.5 56.4892H72.4L78.9 39.2976H79.8L86.4 56.4892H84.2L82.5 51.8006ZM76.8 50.0424H81.9L80 44.8654L79.4 42.3257L78.7 44.9631L76.8 50.0424Z" fill="#072C74"/>
<path d="M90.2 39.5907H92.3V56.4892H90.2V39.5907Z" fill="#072C74"/>
<path d="M97.9 39.786C98.5 39.6884 99.2 39.5907 100.1 39.493C100.9 39.3953 101.7 39.3953 102.3 39.3953C103.1 39.3953 103.8 39.493 104.5 39.5907C105.2 39.6884 105.8 39.9814 106.3 40.3721C106.8 40.7628 107.2 41.2512 107.5 41.8373C107.8 42.4234 108 43.2048 108 43.9863C108 45.3538 107.6 46.3306 106.9 47.2097C106.2 48.0888 105.2 48.5772 104.1 48.8702L105.3 49.7493L109.6 56.3915H107.2L102.4 49.0656L100 48.6749V56.2939H97.9V39.786ZM102.4 41.1535C102.2 41.1535 102 41.1535 101.7 41.1535C101.5 41.1535 101.2 41.1535 101 41.1535C100.8 41.1535 100.6 41.1535 100.4 41.1535C100.2 41.1535 100.1 41.1536 99.9 41.2512V47.5027H101.8C102.9 47.5027 103.9 47.2097 104.6 46.7213C105.3 46.2329 105.7 45.3538 105.7 44.1816C105.7 43.3025 105.4 42.6187 104.8 42.0327C104.3 41.4466 103.5 41.1535 102.4 41.1535Z" fill="#072C74"/>
<path d="M22.7 65.2804L22.9 66.1595L23.1 65.3781L24.3 61.2755H24.7L25.9 65.3781L26.1 66.2572L26.3 65.3781L27.3 61.2755H27.8L26.3 66.8433H26L24.7 62.4477L24.6 61.8616L24.5 62.4477L23.2 66.8433H22.7L21.2 61.2755H21.7L22.7 65.2804Z" fill="#072C74"/>
<path d="M28.4 64.5966C28.4 64.2059 28.5 63.8152 28.6 63.5222C28.8 63.2291 29 62.9361 29.3 62.7407C29.6 62.5454 29.9 62.4477 30.3 62.4477C30.9 62.4477 31.3 62.643 31.7 63.0338C32.1 63.4245 32.2 63.9129 32.2 64.5966V64.6943C32.2 65.085 32.1 65.4757 32 65.7688C31.8 66.0618 31.6 66.3549 31.3 66.5502C31 66.7456 30.7 66.8433 30.3 66.8433C29.7 66.8433 29.3 66.6479 28.9 66.2572C28.5 65.8665 28.4 65.3781 28.4 64.5966ZM28.8 64.792C28.8 65.2804 28.9 65.6711 29.2 66.0618C29.5 66.4525 29.8 66.5502 30.2 66.5502C30.6 66.5502 31 66.3549 31.2 66.0618C31.5 65.7688 31.6 65.2804 31.6 64.792V64.6943C31.6 64.4013 31.5 64.1082 31.4 63.8152C31.3 63.5222 31.1 63.3268 30.9 63.2291C30.7 63.1314 30.4 63.0338 30.2 63.0338C29.8 63.0338 29.4 63.2291 29.2 63.5222C29 63.8152 28.8 64.1082 28.8 64.792Z" fill="#072C74"/>
<path d="M35.1 63.0338C35 63.0338 34.9 63.0338 34.8 63.0338C34.5 63.0338 34.3 63.1314 34.1 63.2291C33.9 63.3268 33.8 63.6198 33.7 63.9129V66.7456H33.2V62.5454H33.7V63.2291C33.9 62.7407 34.3 62.4477 34.9 62.4477C35 62.4477 35.1 62.4477 35.2 62.5454L35.1 63.0338Z" fill="#072C74"/>
<path d="M36.4 66.7456H35.9V60.8848H36.4V66.7456Z" fill="#072C74"/>
<path d="M37.5 64.5966C37.5 63.9129 37.6 63.4245 37.9 63.0338C38.2 62.643 38.6 62.4477 39.1 62.4477C39.7 62.4477 40.1 62.643 40.4 63.1314V60.7871H40.9V66.6479H40.5V66.0618C40.2 66.4525 39.8 66.6479 39.2 66.6479C38.7 66.6479 38.3 66.4525 38 66.0618C37.6 65.8665 37.5 65.3781 37.5 64.5966ZM37.9 64.6943C37.9 65.1827 38 65.6711 38.2 65.9641C38.4 66.2572 38.7 66.4525 39.1 66.4525C39.7 66.4525 40.1 66.1595 40.3 65.6711V63.7175C40.1 63.1314 39.6 62.9361 39.1 62.9361C38.7 62.9361 38.4 63.1314 38.2 63.4245C38 63.7175 37.9 64.1082 37.9 64.6943Z" fill="#072C74"/>
<path d="M43.1 65.7688L43.2 66.1595L43.3 65.7688L44.3 62.5454H44.7L45.7 65.6711L45.8 66.0618L45.9 65.6711L46.8 62.4477H47.3L46.1 66.6479H45.7L44.6 63.3268L44.5 63.1314L44.4 63.3268L43.3 66.6479H43L41.8 62.4477H42.3L43.1 65.7688Z" fill="#072C74"/>
<path d="M48.2 61.3732C48.2 61.2755 48.2 61.1778 48.3 61.1778C48.4 61.0802 48.4 61.0802 48.5 61.0802C48.6 61.0802 48.7 61.0802 48.7 61.1778C48.8 61.2755 48.8 61.2755 48.8 61.3732C48.8 61.4709 48.8 61.5686 48.7 61.5686C48.6 61.6662 48.6 61.6662 48.5 61.6662C48.4 61.6662 48.3 61.6662 48.3 61.5686C48.3 61.4709 48.2 61.4709 48.2 61.3732ZM48.7 66.7456H48.2V62.5454H48.7V66.7456Z" fill="#072C74"/>
<path d="M49.8 64.5966C49.8 63.9129 49.9 63.4245 50.2 63.0338C50.5 62.643 50.9 62.4477 51.4 62.4477C52 62.4477 52.4 62.643 52.7 63.1314V60.7871H53.2V66.6479H52.8V66.0618C52.5 66.4525 52.1 66.6479 51.5 66.6479C51 66.6479 50.6 66.4525 50.3 66.0618C50 65.8665 49.8 65.3781 49.8 64.5966ZM50.3 64.6943C50.3 65.1827 50.4 65.6711 50.6 65.9641C50.8 66.2572 51.1 66.4525 51.5 66.4525C52.1 66.4525 52.5 66.1595 52.7 65.6711V63.7175C52.5 63.1314 52 62.9361 51.5 62.9361C51.1 62.9361 50.8 63.1314 50.6 63.4245C50.4 63.7175 50.3 64.1082 50.3 64.6943Z" fill="#072C74"/>
<path d="M56.1 66.8433C55.7 66.8433 55.4 66.7456 55.1 66.5502C54.8 66.3549 54.6 66.1595 54.4 65.8665C54.2 65.5734 54.2 65.1827 54.2 64.792V64.5966C54.2 64.2059 54.3 63.8152 54.4 63.5222C54.6 63.2291 54.8 62.9361 55.1 62.7407C55.4 62.5454 55.7 62.5454 56 62.5454C56.5 62.5454 56.9 62.7407 57.2 63.0338C57.5 63.4245 57.7 63.8152 57.7 64.4013V64.6943H54.7V64.792C54.7 65.2804 54.8 65.6711 55.1 65.9641C55.4 66.2572 55.7 66.4525 56.1 66.4525C56.4 66.4525 56.6 66.4525 56.8 66.3549C57 66.2572 57.2 66.1595 57.3 65.9641L57.6 66.1595C57.3 66.5502 56.8 66.8433 56.1 66.8433ZM56 62.9361C55.6 62.9361 55.3 63.0338 55.1 63.3268C54.9 63.6198 54.7 63.9129 54.7 64.3036H57.3V64.2059C57.3 63.8152 57.2 63.5222 57 63.2291C56.7 63.0338 56.4 62.9361 56 62.9361Z" fill="#072C74"/>
<path d="M60.4 64.5966C60.4 63.9129 60.5 63.4245 60.8 63.0338C61.1 62.643 61.5 62.4477 62 62.4477C62.6 62.4477 63 62.643 63.3 63.1314V60.7871H63.8V66.6479H63.4V66.0618C63.1 66.4525 62.7 66.6479 62.1 66.6479C61.6 66.6479 61.2 66.4525 60.9 66.0618C60.6 65.8665 60.4 65.3781 60.4 64.5966ZM60.9 64.6943C60.9 65.1827 61 65.6711 61.2 65.9641C61.4 66.2572 61.7 66.4525 62.1 66.4525C62.7 66.4525 63.1 66.1595 63.3 65.6711V63.7175C63.1 63.1314 62.6 62.9361 62.1 62.9361C61.7 62.9361 61.4 63.1314 61.2 63.4245C61 63.7175 60.9 64.1082 60.9 64.6943Z" fill="#072C74"/>
<path d="M66.7 66.8433C66.3 66.8433 66 66.7456 65.7 66.5502C65.4 66.3549 65.2 66.1595 65 65.8665C64.8 65.5734 64.8 65.1827 64.8 64.792V64.5966C64.8 64.2059 64.9 63.8152 65 63.5222C65.2 63.2291 65.4 62.9361 65.7 62.7407C66 62.5454 66.3 62.4477 66.6 62.4477C67.1 62.4477 67.5 62.643 67.8 62.9361C68.1 63.3268 68.3 63.7175 68.3 64.3036V64.5966H65.3V64.6943C65.3 65.1827 65.4 65.5734 65.7 65.8665C66 66.1595 66.3 66.3549 66.7 66.3549C67 66.3549 67.2 66.3549 67.4 66.2572C67.6 66.1595 67.8 66.0618 67.9 65.8665L68.2 66.0618C67.9 66.5502 67.4 66.8433 66.7 66.8433ZM66.6 62.9361C66.2 62.9361 65.9 63.0338 65.7 63.3268C65.5 63.6198 65.3 63.9129 65.3 64.3036H67.9V64.2059C67.9 63.8152 67.8 63.5222 67.6 63.2291C67.3 63.0338 67 62.9361 66.6 62.9361Z" fill="#072C74"/>
<path d="M69.8 66.7456H69.3V60.8848H69.8V66.7456Z" fill="#072C74"/>
<path d="M71 61.3732C71 61.2755 71 61.1778 71.1 61.1778C71.2 61.0802 71.2 61.0802 71.3 61.0802C71.4 61.0802 71.5 61.0802 71.5 61.1778C71.6 61.2755 71.6 61.2755 71.6 61.3732C71.6 61.4709 71.6 61.5686 71.5 61.5686C71.4 61.6662 71.4 61.6662 71.3 61.6662C71.2 61.6662 71.1 61.6662 71.1 61.5686C71.1 61.4709 71 61.4709 71 61.3732ZM71.6 66.7456H71.1V62.5454H71.6V66.7456Z" fill="#072C74"/>
<path d="M74.2 66.1595L75.5 62.643H76L74.4 66.8433H74L72.4 62.643H72.9L74.2 66.1595Z" fill="#072C74"/>
<path d="M78.3 66.8433C77.9 66.8433 77.6 66.7456 77.3 66.5502C77 66.3549 76.8 66.1595 76.6 65.8665C76.4 65.5734 76.4 65.1827 76.4 64.792V64.5966C76.4 64.2059 76.5 63.8152 76.6 63.5222C76.8 63.2291 77 62.9361 77.3 62.7407C77.6 62.5454 77.9 62.4477 78.2 62.4477C78.7 62.4477 79.1 62.643 79.4 62.9361C79.7 63.3268 79.9 63.7175 79.9 64.3036V64.5966H76.9V64.6943C76.9 65.1827 77 65.5734 77.3 65.8665C77.6 66.1595 77.9 66.3549 78.3 66.3549C78.6 66.3549 78.8 66.3549 79 66.2572C79.2 66.1595 79.4 66.0618 79.5 65.8665L79.8 66.0618C79.5 66.5502 79 66.8433 78.3 66.8433ZM78.2 62.9361C77.8 62.9361 77.5 63.0338 77.3 63.3268C77.1 63.6198 76.9 63.9129 76.9 64.3036H79.5V64.2059C79.5 63.8152 79.4 63.5222 79.2 63.2291C78.9 63.0338 78.6 62.9361 78.2 62.9361Z" fill="#072C74"/>
<path d="M82.8 63.0338C82.7 63.0338 82.6 63.0338 82.5 63.0338C82.2 63.0338 82 63.1314 81.8 63.2291C81.6 63.3268 81.5 63.6198 81.4 63.9129V66.7456H80.9V62.5454H81.4V63.2291C81.6 62.7407 82 62.4477 82.6 62.4477C82.7 62.4477 82.8 62.4477 82.9 62.5454L82.8 63.0338Z" fill="#072C74"/>
<path d="M85 66.0618L86.2 62.5454H86.7L84.9 67.4293L84.8 67.6247C84.6 68.1131 84.2 68.4061 83.7 68.4061C83.6 68.4061 83.5 68.4061 83.3 68.3084V67.9177H83.5C83.7 67.9177 83.9 67.8201 84.1 67.7224C84.2 67.6247 84.4 67.4293 84.5 67.1363L84.7 66.5502L83.1 62.4477H83.6L85 66.0618Z" fill="#072C74"/>
<path d="M87 66.4525C87 66.3549 87 66.2572 87.1 66.2572C87.2 66.1595 87.2 66.1595 87.3 66.1595C87.4 66.1595 87.5 66.1595 87.5 66.2572C87.6 66.3549 87.6 66.3549 87.6 66.4525C87.6 66.5502 87.6 66.6479 87.5 66.6479C87.4 66.7456 87.4 66.7456 87.3 66.7456C87.2 66.7456 87.1 66.7456 87.1 66.6479C87 66.6479 87 66.5502 87 66.4525Z" fill="#072C74"/>
<path d="M73.8 29.139C73.1 29.2367 72.4 29.0413 71.8 28.6506L60.8 18.9803L64.1 13.7056C64.2 13.901 64.3 14.0964 64.4 14.2917L73.8 29.139ZM64.5 9.50542L65.8 7.45415C66.9 5.7936 67.7 3.93769 68 2.37482C68.3 0.909628 68.1 0.225872 67.8 0.0305128C67.6 -0.0671667 66.8 0.0305128 65.6 0.909628C64.3 1.88642 63 3.35161 61.9 5.10984L60.6 7.16111L54.8 16.2453L51.7 21.1293L47.7 27.9668C47.3 29.5297 47 30.5065 47 30.9949L48.6 31.9717C49 31.7763 49.6 31.2879 50.5 30.5065L51.1 30.0181L55.6 23.4736L58.7 18.5896L64.5 9.50542ZM53.6 14.5847L56.9 9.31006C56.7 9.31006 56.5 9.31006 56.3 9.31006L38.5 7.74719C38.7 8.33327 39.2 8.91934 39.8 9.21238L53.6 14.5847ZM54.8 28.1622L53.1 30.6042L56.8 34.609C57 34.8044 57.4 35.1951 57.7 35.4882L55.1 28.9436C55 28.7483 54.9 28.4552 54.8 28.1622ZM46.9 24.0597L39.7 24.6457C40.1 24.8411 40.6 25.0365 40.9 25.0365L46.2 26.5016L47.7 23.8643C47.5 23.962 47.2 24.0597 46.9 24.0597Z" fill="#072C74"/>
</g>
</svg>
