<svg width="113" height="70" viewBox="0 0 113 70" fill="none" xmlns="http://www.w3.org/2000/svg">
<g opacity="0.2">
<path fill-rule="evenodd" clip-rule="evenodd" d="M56.5 45.3C60.1 45.3 63.5 44.5 66.5 43H46.5C49.5 44.5 52.9 45.3 56.5 45.3Z" fill="#072C74"/>
<path fill-rule="evenodd" clip-rule="evenodd" d="M56.5 0C52.9 0 49.5 0.8 46.5 2.3H66.5C63.5 0.8 60.1 0 56.5 0Z" fill="#072C74"/>
<path fill-rule="evenodd" clip-rule="evenodd" d="M35.2 23.9C35.6 23.9 36 23.7 36.3 23.3H53.4C53.6 23.3 53.8 23.2 53.9 23L59.3 22.9L79.1 22.5L59.3 22.1L53.9 22.2C53.8 22 53.6 21.9 53.4 21.9H36.3C36.1 21.6 35.7 21.3 35.2 21.3C34.5 21.3 33.9 21.9 33.9 22.5C33.9 23.4 34.5 23.9 35.2 23.9Z" fill="#072C74"/>
<path fill-rule="evenodd" clip-rule="evenodd" d="M35.6 20.2C36 20.2 36.4 20 36.7 19.6H53.8C54 19.6 54.2 19.5 54.3 19.3L59.6 19.2L78.9 18.9L59.6 18.5L54.3 18.4C54.2 18.2 54 18.1 53.8 18.1H36.6C36.4 17.8 36 17.5 35.5 17.5C34.8 17.5 34.2 18.1 34.2 18.8C34.3 19.6 34.9 20.2 35.6 20.2Z" fill="#072C74"/>
<path fill-rule="evenodd" clip-rule="evenodd" d="M36.5 16.6C36.9 16.6 37.3 16.4 37.6 16H54.7C54.9 16 55.1 15.9 55.2 15.7L60.5 15.6L78 15.3V15.2L60.5 15L55.2 14.9C55.1 14.7 54.9 14.6 54.7 14.6H37.6C37.4 14.3 37 14 36.5 14C35.8 14 35.2 14.6 35.2 15.3C35.2 16 35.8 16.6 36.5 16.6Z" fill="#072C74"/>
<path fill-rule="evenodd" clip-rule="evenodd" d="M38.2 13C38.6 13 39 12.8 39.3 12.4H56.4C56.6 12.4 56.8 12.3 56.9 12.1L62.2 12L76.4 11.7C76.4 11.6 76.3 11.6 76.3 11.5L62.2 11.2L56.9 11.3C56.8 11.1 56.6 11 56.4 11H39.3C39.1 10.7 38.7 10.4 38.2 10.4C37.8 10.4 37.4 10.6 37.1 11L37 11.1C36.9 11.3 36.9 11.5 36.9 11.7C36.9 12.4 37.5 13 38.2 13Z" fill="#072C74"/>
<path fill-rule="evenodd" clip-rule="evenodd" d="M40.8 9.6C41.2 9.6 41.6 9.4 41.9 9H58.9C59.1 9 59.3 8.9 59.4 8.7L64.7 8.6L74.1 8.4C74 8.3 73.9 8.1 73.8 8L64.7 7.8L59.4 7.7C59.3 7.5 59.1 7.4 58.9 7.4H41.8C41.6 7.2 41.2 7 40.8 7C40.1 7 39.5 7.6 39.5 8.3C39.5 9 40.1 9.6 40.8 9.6Z" fill="#072C74"/>
<path fill-rule="evenodd" clip-rule="evenodd" d="M44.7 6.2C45.1 6.2 45.5 6 45.8 5.6H62.9C63.1 5.6 63.3 5.5 63.4 5.3L68.7 5.2H71C70.7 5 70.5 4.8 70.2 4.5H68.7L63.4 4.4C63.3 4.2 63.1 4.1 62.9 4.1H45.8C45.6 3.8 45.2 3.5 44.7 3.5C44 3.5 43.4 4.1 43.4 4.8C43.4 5.6 44 6.2 44.7 6.2Z" fill="#072C74"/>
<path fill-rule="evenodd" clip-rule="evenodd" d="M54.3 25.9C54.2 25.7 54 25.6 53.8 25.6H36.6C36.4 25.3 36 25 35.5 25C34.8 25 34.2 25.6 34.2 26.3C34.2 27 34.8 27.6 35.5 27.6C35.9 27.6 36.3 27.4 36.6 27H53.7C53.9 27 54.1 26.9 54.2 26.7L59.5 26.6L78.9 26.4L59.6 26L54.3 25.9Z" fill="#072C74"/>
<path fill-rule="evenodd" clip-rule="evenodd" d="M55.2 29.5C55.1 29.3 54.9 29.2 54.7 29.2H37.6C37.4 28.9 37 28.6 36.5 28.6C35.8 28.6 35.2 29.2 35.2 29.9C35.2 30.6 35.8 31.2 36.5 31.2C36.9 31.2 37.3 31 37.6 30.6H54.7C54.9 30.6 55.1 30.5 55.2 30.3L60.5 30.2L78 30V29.9L60.5 29.6L55.2 29.5Z" fill="#072C74"/>
<path fill-rule="evenodd" clip-rule="evenodd" d="M56.9 33.1C56.8 32.9 56.6 32.8 56.4 32.8H39.3C39.1 32.5 38.7 32.2 38.2 32.2C37.5 32.2 36.9 32.8 36.9 33.5C36.9 33.7 37 33.9 37 34.1L37.1 34.2C37.3 34.5 37.7 34.8 38.2 34.8C38.6 34.8 39 34.6 39.3 34.2H56.4C56.6 34.2 56.8 34.1 56.9 33.9L62.2 33.8L76.3 33.5C76.3 33.4 76.4 33.4 76.4 33.3L62.2 33L56.9 33.1Z" fill="#072C74"/>
<path fill-rule="evenodd" clip-rule="evenodd" d="M59.5 36.6C59.4 36.4 59.2 36.3 59 36.3H41.8C41.6 36 41.2 35.7 40.7 35.7C40 35.7 39.4 36.3 39.4 37C39.4 37.7 40 38.3 40.7 38.3C41.1 38.3 41.5 38.1 41.8 37.7H58.9C59.1 37.7 59.3 37.6 59.4 37.4L64.7 37.3L73.8 37.1C73.9 37 74 36.8 74.1 36.7L64.7 36.5L59.5 36.6Z" fill="#072C74"/>
<path fill-rule="evenodd" clip-rule="evenodd" d="M63.4 39.9C63.3 39.7 63.1 39.6 62.9 39.6H45.8C45.6 39.3 45.2 39 44.7 39C44 39 43.4 39.6 43.4 40.3C43.4 41 44 41.6 44.7 41.6C45.1 41.6 45.5 41.4 45.8 41H62.9C63.1 41 63.3 40.9 63.4 40.7L68.7 40.6H70.2C70.5 40.4 70.8 40.2 71 39.9H63.4Z" fill="#072C74"/>
<path d="M17.8 54.4C16.4 54.5 15.8 54.8 15.7 55.9C15.6 56.7 15.5 57.8 15.5 60.1V69.9H14.7L3.7 57.1V63.1C3.7 65.4 3.8 66.5 3.9 67.2C4 68.5 4.6 68.8 6.3 68.9V69.6H0.3V68.9C1.7 68.8 2.4 68.5 2.5 67.3C2.6 66.5 2.7 65.4 2.7 63.1V57.8C2.7 56 2.6 55.9 2.2 55.3C1.7 54.7 1.1 54.5 0 54.4V53.7H3.8L14.5 65.8H14.6V60.1C14.6 57.8 14.5 56.7 14.4 56C14.3 54.8 13.7 54.5 11.9 54.4V53.7H17.9V54.4H17.8Z" fill="#072C74"/>
<path d="M26.5 69.9C26 69.9 25.5 69.7 25.2 69.4C24.9 69.1 24.7 68.7 24.6 68.4C23.6 69 22.4 69.9 21.7 69.9C19.8 69.9 18.6 68.4 18.6 66.9C18.6 65.7 19.3 64.9 20.6 64.5C22.2 64 23.9 63.4 24.4 62.9V62.5C24.4 60.7 23.6 59.8 22.4 59.8C22 59.8 21.6 60 21.3 60.2C21 60.5 20.8 61.1 20.5 61.9C20.3 62.3 20.1 62.5 19.7 62.5C19.2 62.5 18.6 62 18.6 61.4C18.6 61 18.9 60.7 19.4 60.4C20.1 59.9 21.8 58.9 23.2 58.7C24 58.7 24.7 58.9 25.3 59.3C26.2 60.1 26.5 61.1 26.5 62.4V66.8C26.5 67.9 26.9 68.3 27.4 68.3C27.7 68.3 28 68.2 28.3 68L28.6 68.7L26.5 69.9ZM24.5 63.8C24 64.1 23 64.5 22.5 64.8C21.5 65.2 21 65.7 21 66.6C21 67.9 22 68.5 22.7 68.5C23.3 68.5 24.1 68.1 24.5 67.7V63.8Z" fill="#072C74"/>
<path d="M34.2 69.6C33.7 69.9 33.4 69.9 33.1 69.9C31.4 69.9 30.5 69 30.5 67V60H28.9L28.8 59.7L29.5 59H30.6V57.2L32.4 55.5L32.7 55.6V59H35.5C35.8 59.3 35.7 59.8 35.3 60H32.7V66.2C32.7 68.2 33.6 68.5 34.2 68.5C34.8 68.5 35.3 68.3 35.7 68.1L35.9 68.8L34.2 69.6Z" fill="#072C74"/>
<path d="M49.3 69C48.7 69.1 48 69.2 47.3 69.4C46.6 69.6 45.9 69.8 45.4 69.9L45.2 69.8V68C44.6 68.4 44.1 68.8 43.4 69.3C42.7 69.7 42.1 69.9 41.4 69.9C39.7 69.9 38.3 68.9 38.3 66.2V61.5C38.3 60.2 38.1 60 37.5 59.9L36.8 59.7V59.1C37.3 59.1 38 59 38.7 58.9C39.4 58.8 40.1 58.7 40.6 58.6C40.5 59.4 40.5 60.5 40.5 62.1V65.4C40.5 67.4 41.5 68.1 42.6 68.1C43.5 68.1 44.4 67.8 45.2 67V61.4C45.2 60.1 45 59.9 44.2 59.8L43.3 59.6V59C44 59 44.9 58.9 45.6 58.8C46.3 58.7 46.9 58.6 47.3 58.6V66.7C47.3 68 47.5 68.1 48.5 68.2H49.2V69H49.3Z" fill="#072C74"/>
<path d="M54.6 61.3C55.4 60 56.4 58.7 57.6 58.7C58.5 58.7 59.1 59.4 59.1 60C59.1 60.6 58.8 61.1 58.2 61.3C57.9 61.4 57.7 61.4 57.5 61.2C57.1 60.8 56.8 60.7 56.4 60.7C55.8 60.7 55 61.4 54.5 62.7V67.1C54.5 68.7 54.6 68.9 56.6 69V69.7H50.7V69C52.2 68.8 52.4 68.7 52.4 67.1V62C52.4 60.4 52.3 60.3 50.9 60.1V59.5C52.1 59.3 53.3 59 54.6 58.5V61.3Z" fill="#072C74"/>
<path d="M68 69.9C67.5 69.9 67 69.7 66.7 69.4C66.4 69.1 66.2 68.7 66.1 68.4C65.1 69 63.9 69.9 63.2 69.9C61.3 69.9 60.1 68.4 60.1 66.9C60.1 65.7 60.8 64.9 62.1 64.5C63.7 64 65.4 63.4 65.9 62.9V62.5C65.9 60.7 65.1 59.8 63.9 59.8C63.5 59.8 63.1 60 62.8 60.2C62.5 60.5 62.3 61.1 62 61.9C61.8 62.3 61.6 62.5 61.2 62.5C60.7 62.5 60.1 62 60.1 61.4C60.1 61 60.4 60.7 60.9 60.4C61.6 59.9 63.3 58.9 64.7 58.7C65.5 58.7 66.2 58.9 66.8 59.3C67.7 60.1 68 61.1 68 62.4V66.8C68 67.9 68.4 68.3 68.9 68.3C69.2 68.3 69.5 68.2 69.8 68L70.1 68.7L68 69.9ZM66.1 63.8C65.6 64.1 64.6 64.5 64.1 64.8C63.1 65.2 62.6 65.7 62.6 66.6C62.6 67.9 63.6 68.5 64.3 68.5C64.9 68.5 65.7 68.1 66.1 67.7V63.8Z" fill="#072C74"/>
<path d="M71.2 69C72.8 68.8 73 68.7 73 67V55.5C73 53.8 72.8 53.8 71.3 53.6V53C72.6 52.8 74.2 52.4 75.1 52.1V67C75.1 68.7 75.3 68.8 76.9 69V69.7H71.2V69Z" fill="#072C74"/>
<path d="M84.4 69C86 68.8 86.2 68.7 86.2 67V55.5C86.2 53.8 86 53.8 84.5 53.6V53C85.8 52.8 87.4 52.4 88.3 52.1V67C88.3 68.7 88.5 68.8 90.1 69V69.7H84.4V69Z" fill="#072C74"/>
<path d="M99 69.9C98.5 69.9 98 69.7 97.7 69.4C97.4 69.1 97.2 68.7 97.1 68.4C96.1 69 94.9 69.9 94.2 69.9C92.3 69.9 91.1 68.4 91.1 66.9C91.1 65.7 91.8 64.9 93.1 64.5C94.7 64 96.4 63.4 96.9 62.9V62.5C96.9 60.7 96.1 59.8 94.9 59.8C94.5 59.8 94.1 60 93.8 60.2C93.5 60.5 93.3 61.1 93 61.9C92.8 62.3 92.6 62.5 92.2 62.5C91.7 62.5 91.1 62 91.1 61.4C91.1 61 91.4 60.7 91.9 60.4C92.6 59.9 94.3 58.9 95.7 58.7C96.5 58.7 97.2 58.9 97.8 59.3C98.7 60.1 99 61.1 99 62.4V66.8C99 67.9 99.4 68.3 99.9 68.3C100.2 68.3 100.5 68.2 100.8 68L101.1 68.7L99 69.9ZM97.1 63.8C96.6 64.1 95.6 64.5 95.1 64.8C94.1 65.2 93.6 65.7 93.6 66.6C93.6 67.9 94.6 68.5 95.3 68.5C95.9 68.5 96.7 68.1 97.1 67.7V63.8Z" fill="#072C74"/>
<path d="M106.9 58.9C107.4 58.7 107.7 58.6 108 58.6C110.7 58.6 113 60.9 113 63.7C113 67.3 110 69.8 106.7 69.8C105.6 69.8 104.3 69.6 102.9 68.9V55.5C102.9 54 102.8 53.8 101.3 53.6V53C102.5 52.8 104.1 52.5 105.1 52.1V59.6L106.9 58.9ZM105.1 66.7C105.1 67.1 105.2 67.3 105.3 67.5C105.5 68 106.2 68.9 107.4 68.9C109.4 68.9 110.7 67.3 110.7 64.4C110.7 61.6 108.9 60 107 60C106.3 60 105.6 60.2 105.2 60.4V66.7H105.1Z" fill="#072C74"/>
</g>
</svg>
