<svg width="85" height="63" viewBox="0 0 85 63" fill="none" xmlns="http://www.w3.org/2000/svg">
<path d="M17.1091 3.65466C17.4216 4.61796 17.7808 5.8444 18.1476 7.2735M20.2372 31.6713C21.0404 25.5544 20.4489 18.9725 19.4888 13.5048M10.989 62.0001C10.1677 57.7765 16.3297 48.6951 19.173 37.6368" stroke="white" stroke-width="2" stroke-linecap="round" stroke-linejoin="round"/>
<path d="M62.8361 3.65466C61.2424 8.56836 58.4298 20.8477 59.6152 31.4517M68.9562 62.0001C69.7857 57.7343 63.4917 48.5131 60.688 37.3047" stroke="white" stroke-width="2" stroke-linecap="round" stroke-linejoin="round"/>
<path d="M65.3903 50.5076C65.3903 50.5076 58.0461 53.9077 39.9577 53.6357C21.8692 53.3637 14.4571 50.5076 14.4571 50.5076M11.811 57.1718C11.811 57.1718 13.913 59.5014 39.9577 59.9774C66.0023 60.4534 67.7703 57.1718 67.7703 57.1718M39.9577 45.8835V43.0955M68.9944 28.2031V33.4365C64.1918 36.4966 56.4141 39.0154 39.9577 39.1514C26.7925 39.2602 17.2451 36.794 14.117 35.5473V29.6311C14.117 29.6311 17.4491 33.3712 39.9577 33.8472C53.2276 34.1279 60.8769 32.1159 64.9567 30.4169M68.9944 28.2031C68.9944 26.4351 68.2039 23.307 59.6781 21.1989M68.9944 28.2031C69.0203 28.6705 66.3134 29.8738 64.9567 30.4169M59.6781 26.8404C63.8518 27.2484 64.1633 29.3608 64.9567 30.4169M20.3732 23.307C17.2225 22.7403 10.8666 20.8589 10.649 17.8669M10.649 17.8669C10.4314 14.8748 10.5583 12.1321 10.649 11.1347C13.4597 8.93598 21.4188 5.76257 31.3215 5.76257V11.1347C26.8345 11.4504 18.8095 12.5825 14.117 14.8792M10.649 17.8669C11.1426 16.7055 12.409 15.7152 14.117 14.8792M14.117 14.8792C14.1397 15.5124 15.3139 16.8876 19.8292 17.3229" stroke="white" stroke-width="2" stroke-linecap="round" stroke-linejoin="round"/>
<path d="M77.9303 52.7V49.255M77.9303 60.0248V56.6801M72.4284 54.7068H76.0072M79.9539 54.7068H83.4156" stroke="white" stroke-width="2" stroke-linecap="round" stroke-linejoin="round"/>
<circle cx="4.14929" cy="40.3081" r="3.14929" stroke="white" stroke-width="2"/>
<circle cx="74.1669" cy="5.76266" r="4.76266" stroke="white" stroke-width="2"/>
</svg>
