<svg width="95" height="82" viewBox="0 0 95 82" fill="none" xmlns="http://www.w3.org/2000/svg">
<path d="M29.2945 24.3817C22.7227 26.0741 17.867 32.0402 17.867 39.1404C17.867 47.5568 24.6898 54.3796 33.1062 54.3796C40.2477 54.3796 46.2419 49.4672 47.894 42.8372" stroke="white" stroke-width="2" stroke-linecap="round" stroke-linejoin="round"/>
<circle cx="29.745" cy="42.9019" r="1.73611" stroke="white" stroke-width="2" stroke-linecap="round" stroke-linejoin="round"/>
<path d="M40.4364 13.1951C39.0861 15.317 34.7265 18.9242 28.0907 16.3779M28.6694 53.9938C31.6272 58.334 35.556 69.8117 25.6794 81" stroke="white" stroke-width="2" stroke-linecap="round" stroke-linejoin="round"/>
<path d="M70.2242 24.3817C76.796 26.0741 81.6517 32.0402 81.6517 39.1404C81.6517 47.5568 74.8289 54.3796 66.4125 54.3796C59.271 54.3796 53.2769 49.4672 51.6248 42.8372" stroke="white" stroke-width="2" stroke-linecap="round" stroke-linejoin="round"/>
<path d="M9.09427 63.9769V58.9088M9.09427 74.7529V69.8323M1 66.9292H6.26497M12.0712 66.9292H17.1639" stroke="white" stroke-width="2" stroke-linecap="round" stroke-linejoin="round"/>
<path d="M20.3521 4.34587V1M20.3521 11.4599V8.2115M15.0084 6.29493H18.4842M22.3174 6.29493H25.6795" stroke="white" stroke-width="2" stroke-linecap="round" stroke-linejoin="round"/>
<circle cx="89.2975" cy="51.0126" r="3.91507" stroke="white" stroke-width="2"/>
<circle r="1.73611" transform="matrix(-1 0 0 1 69.7737 42.9019)" stroke="white" stroke-width="2" stroke-linecap="round" stroke-linejoin="round"/>
<path d="M59.0823 13.1951C60.4326 15.317 64.7921 18.9242 71.428 16.3779M70.8493 53.8009C67.8914 58.1411 63.9627 69.6188 73.8392 80.8071" stroke="white" stroke-width="2" stroke-linecap="round" stroke-linejoin="round"/>
</svg>
