<svg width="30" height="35" viewBox="0 0 30 35" fill="none" xmlns="http://www.w3.org/2000/svg">
<path d="M14.9359 4.54905C16.2125 4.54905 17.2338 3.53815 17.2338 2.27452C17.2338 1.0109 16.2125 0 14.9359 0C13.6593 0 12.7656 1.0109 12.7656 2.27452C12.7656 3.53815 13.7869 4.54905 14.9359 4.54905Z" fill="black"/>
<path d="M26.809 26.8516C27.0643 27.1043 27.4473 27.2307 27.7026 27.2307C28.3409 27.2307 28.9792 26.7252 28.9792 25.967V8.65538C28.9792 7.8972 28.4686 7.39175 27.7026 7.39175C26.9366 7.39175 26.426 8.02357 26.426 8.65538V16.1108H16.3408V8.65538C16.3408 7.8972 15.8301 7.39175 15.0642 7.39175C14.2982 7.39175 13.7876 8.02357 13.7876 8.65538V16.1108H3.5747V8.65538C3.5747 7.8972 3.06406 7.39175 2.29809 7.39175H1.91511C1.40447 7.51812 1.02148 8.02357 1.02148 8.65538V16.9953C1.02148 17.248 1.02148 17.5007 1.02148 17.6271V25.967C1.02148 26.7252 1.65979 27.2307 2.29809 27.2307C2.9364 27.2307 3.5747 26.5988 3.5747 25.967V18.5116H13.6599V25.967C13.6599 26.3461 13.7876 26.5988 14.0429 26.8516C14.2982 27.1043 14.5535 27.2307 14.9365 27.2307C15.3195 27.2307 15.5748 27.1043 15.8301 26.8516C16.0855 26.5988 16.2131 26.3461 16.2131 25.8407V18.3853H26.2983V25.8407C26.426 26.3461 26.5537 26.5988 26.809 26.8516Z" fill="black"/>
<path d="M27.7022 4.54905C28.9788 4.54905 30.0001 3.53815 30.0001 2.27452C30.0001 1.0109 28.9788 0 27.7022 0C26.4256 0 25.4043 1.0109 25.4043 2.27452C25.4043 3.53815 26.4256 4.54905 27.7022 4.54905Z" fill="black"/>
<path d="M2.2979 30.0734C1.02129 30.0734 0 31.0843 0 32.3479C0 33.6115 1.02129 34.6224 2.2979 34.6224C3.5745 34.6224 4.59579 33.6115 4.59579 32.3479C4.59579 31.0843 3.5745 30.0734 2.2979 30.0734Z" fill="black"/>
<path d="M2.2979 4.54905C3.5745 4.54905 4.59579 3.53815 4.59579 2.27452C4.59579 1.0109 3.5745 0 2.2979 0C1.02129 0 0 1.0109 0 2.27452C0 3.53815 1.02129 4.54905 2.2979 4.54905Z" fill="black"/>
<path d="M27.7022 34.6224C28.9713 34.6224 30.0001 33.6041 30.0001 32.3479C30.0001 31.0917 28.9713 30.0734 27.7022 30.0734C26.4331 30.0734 25.4043 31.0917 25.4043 32.3479C25.4043 33.6041 26.4331 34.6224 27.7022 34.6224Z" fill="black"/>
<path d="M14.9366 34.6224C16.2057 34.6224 17.2345 33.6041 17.2345 32.3479C17.2345 31.0917 16.2057 30.0734 14.9366 30.0734C13.6675 30.0734 12.6387 31.0917 12.6387 32.3479C12.6387 33.6041 13.6675 34.6224 14.9366 34.6224Z" fill="black"/>
</svg>
