<svg width="289" height="306" viewBox="0 0 289 306" fill="none" xmlns="http://www.w3.org/2000/svg">
<path opacity="0.2" d="M354.681 170.841C343.518 188.548 328.977 203.884 311.888 215.972C294.799 228.06 275.497 236.663 255.083 241.291C234.668 245.919 213.543 246.481 192.912 242.945C172.28 239.408 152.548 231.843 134.84 220.681C117.133 209.518 101.797 194.977 89.7093 177.888C77.6214 160.799 69.0178 141.497 64.3898 121.083C59.7617 100.668 59.1998 79.5427 62.7362 58.9115C66.2726 38.2803 73.838 18.5476 85.0004 0.840146L128.095 28.006C120.5 40.0543 115.352 53.4804 112.946 67.518C110.54 81.5555 110.922 95.9295 114.071 109.819C117.22 123.709 123.074 136.843 131.299 148.47C139.524 160.098 149.958 169.991 162.006 177.586C174.054 185.181 187.48 190.329 201.518 192.735C215.555 195.141 229.93 194.759 243.819 191.61C257.709 188.461 270.843 182.607 282.47 174.382C294.098 166.158 303.991 155.723 311.586 143.675L354.681 170.841Z" fill="#FF9D4D"/>
</svg>
