<svg width="18" height="18" viewBox="0 0 18 18" fill="none" xmlns="http://www.w3.org/2000/svg">
<path fill-rule="evenodd" clip-rule="evenodd" d="M17.5938 1.70711C17.9844 1.31658 17.9844 0.683417 17.5938 0.292893C17.2033 -0.0976312 16.5702 -0.097631 16.1796 0.292893L8.94336 7.52917L1.70711 0.292922C1.31658 -0.0976022 0.683417 -0.0976022 0.292893 0.292922C-0.0976312 0.683446 -0.097631 1.31661 0.292893 1.70714L7.52914 8.94339L0.293419 16.1791C-0.0971057 16.5696 -0.0971057 17.2028 0.293419 17.5933C0.683943 17.9838 1.31711 17.9838 1.70763 17.5933L8.94336 10.3576L16.1791 17.5934C16.5696 17.9839 17.2028 17.9839 17.5933 17.5934C17.9838 17.2028 17.9838 16.5697 17.5933 16.1791L10.3576 8.94339L17.5938 1.70711Z" fill="white"/>
</svg>
