<svg width="1596" height="403" viewBox="0 0 1596 403" fill="none" xmlns="http://www.w3.org/2000/svg">
<path d="M1595.2 299.7H1537C1537 299.7 1544 289.3 1550.9 285.8C1557.9 282.3 1562.3 288.8 1565.3 290.3C1568.3 291.8 1573.3 287.9 1576.7 288.3C1583.1 289 1595.2 299.7 1595.2 299.7Z" fill="url(#paint0_linear)"/>
<path d="M492.7 95.8H309.8C309.8 95.8 324.8 90.2 334.2 81.9C343.6 73.6 351.4 62.8 362.7 64.7C373.9 66.6 383.3 79.5 388.5 80.1C393.7 80.7 397.1 73.3 401.2 71.4C405.3 69.5 412.1 71.4 417.7 77C423.3 82.6 427.8 87.1 432.7 83.4C437.6 79.7 441.3 73.7 452.6 76.7C463.9 79.7 466.1 84 472 87.6C481.4 93.2 492.7 95.8 492.7 95.8Z" fill="url(#paint1_linear)"/>
<path d="M0.899902 197.3H79.2999C79.2999 197.3 60.0999 192.6 55.2999 189.9C50.4999 187.1 44.3999 189.3 42.4999 189.9C40.5999 190.5 39.2999 188 35.5999 185.5C31.8999 183 23.5999 186.3 20.0999 188.5C16.5999 190.7 0.899902 197.3 0.899902 197.3Z" fill="url(#paint2_linear)"/>
<path d="M1263.2 203.7H1397.7C1397.7 203.7 1379.6 195.2 1372.8 191.2C1366 187.1 1361.7 191.7 1358.5 192.6C1355.3 193.4 1352.6 186.4 1348.8 182.6C1345 178.8 1338.3 184.5 1335 186.9C1331.7 189.3 1329.1 186.8 1323.6 181.3C1318.1 175.8 1307.7 178.2 1300.6 184.2C1293.7 190 1263.2 203.7 1263.2 203.7Z" fill="url(#paint3_linear)"/>
<path d="M1310.9 402.3H1278.4C1278.4 402.3 1282.3 396.5 1286.2 394.5C1290.1 392.6 1292.6 396.2 1294.3 397C1296 397.8 1298.8 395.7 1300.7 395.9C1304.1 396.3 1310.9 402.3 1310.9 402.3Z" fill="url(#paint4_linear)"/>
<path d="M247 325.4H293.3C293.3 325.4 287.8 317.1 282.2 314.3C276.6 311.5 273.1 316.7 270.7 317.9C268.3 319.1 264.3 316 261.6 316.3C256.6 316.8 247 325.4 247 325.4Z" fill="url(#paint5_linear)"/>
<path d="M79.2998 398.1H46.7998C46.7998 398.1 50.6998 392.3 54.5998 390.3C58.4998 388.4 60.9998 392 62.6998 392.8C64.3998 393.6 67.1998 391.5 69.0998 391.7C72.5998 392.1 79.2998 398.1 79.2998 398.1Z" fill="url(#paint6_linear)"/>
<path d="M1024.8 32.3H899.1C899.1 32.3 914.1 9.79998 929.2 2.19998C944.2 -5.30002 953.9 8.59998 960.3 11.9C966.7 15.2 977.5 6.79998 985 7.59998C998.7 9.09999 1024.8 32.3 1024.8 32.3Z" fill="url(#paint7_linear)"/>
<defs>
<linearGradient id="paint0_linear" x1="1565.87" y1="291.125" x2="1566.02" y2="297.054" gradientUnits="userSpaceOnUse">
<stop offset="0.000578704" stop-color="#E3F8FC"/>
<stop offset="1" stop-color="#AFEBF6"/>
</linearGradient>
<linearGradient id="paint1_linear" x1="401.671" y1="79.074" x2="401.36" y2="91.1752" gradientUnits="userSpaceOnUse">
<stop offset="0.000578704" stop-color="#E3F8FC"/>
<stop offset="1" stop-color="#AFEBF6"/>
</linearGradient>
<linearGradient id="paint2_linear" x1="39.9138" y1="190.108" x2="40.0466" y2="195.287" gradientUnits="userSpaceOnUse">
<stop offset="0.000578704" stop-color="#E3F8FC"/>
<stop offset="1" stop-color="#AFEBF6"/>
</linearGradient>
<linearGradient id="paint3_linear" x1="1330.12" y1="189.209" x2="1330.39" y2="199.47" gradientUnits="userSpaceOnUse">
<stop offset="0.000578704" stop-color="#E3F8FC"/>
<stop offset="1" stop-color="#AFEBF6"/>
</linearGradient>
<linearGradient id="paint4_linear" x1="1294.49" y1="397.46" x2="1294.57" y2="400.773" gradientUnits="userSpaceOnUse">
<stop offset="0.000578704" stop-color="#E3F8FC"/>
<stop offset="1" stop-color="#AFEBF6"/>
</linearGradient>
<linearGradient id="paint5_linear" x1="270.311" y1="318.551" x2="270.19" y2="323.275" gradientUnits="userSpaceOnUse">
<stop offset="0.000578704" stop-color="#E3F8FC"/>
<stop offset="1" stop-color="#AFEBF6"/>
</linearGradient>
<linearGradient id="paint6_linear" x1="62.9431" y1="393.289" x2="63.028" y2="396.601" gradientUnits="userSpaceOnUse">
<stop offset="0.000578704" stop-color="#E3F8FC"/>
<stop offset="1" stop-color="#AFEBF6"/>
</linearGradient>
<linearGradient id="paint7_linear" x1="961.473" y1="13.6753" x2="961.802" y2="26.4822" gradientUnits="userSpaceOnUse">
<stop offset="0.000578704" stop-color="#E3F8FC"/>
<stop offset="1" stop-color="#AFEBF6"/>
</linearGradient>
</defs>
</svg>
