<svg width="511" height="254" viewBox="0 0 511 254" fill="none" xmlns="http://www.w3.org/2000/svg">
<g clip-path="url(#clip0)">
<path d="M357.6 15.1H269.3C269.3 15.1 276.6 12.4 281.1 8.39999C285.6 4.39999 289.4 -0.800013 294.8 0.0999875C300.2 0.999987 304.7 7.19999 307.3 7.49999C309.8 7.79999 311.5 4.19999 313.4 3.29999C315.4 2.39999 318.6 3.29999 321.4 5.99999C324.1 8.69999 326.3 10.9 328.6 9.09999C330.9 7.29999 332.8 4.39999 338.2 5.79999C343.6 7.19999 344.8 9.29999 347.6 11C352.2 13.8 357.6 15.1 357.6 15.1Z" fill="url(#paint0_linear)"/>
<path d="M275.7 68.1H314.9C314.9 68.1 310.8 67.5 307.9 64.2C305 60.9 302.1 58.5 298.5 59.4C294.9 60.4 293.4 64 291.8 63.6C290.2 63.2 287.5 61.3 284.8 61.8C282.2 62.4 275.7 68.1 275.7 68.1Z" fill="url(#paint1_linear)"/>
<path d="M385 36.7H407.4C406.8 36.7 403.9 35.8 401.9 34.3C399.8 32.6 398.5 32.7 396.6 33.1C394.7 33.5 393.8 30.8 391.4 30.8C389 30.8 385 36.7 385 36.7Z" fill="url(#paint2_linear)"/>
<path d="M461.6 134.4C461.6 134.4 466.4 132.7 469.3 130.5C472.2 128.3 473.5 126.8 475.7 126.9C477.9 127 478.7 130.5 480.3 131.8C481.9 133.1 482.7 131.2 483.6 130.1C484.5 129 486.6 128.3 487.5 130C488.5 131.7 489.4 132.7 491.3 132.4C493.2 132.2 493.9 133.3 495.1 133.7C496.3 134.1 497.4 134.4 497.4 134.4H461.6Z" fill="url(#paint3_linear)"/>
<path d="M12.5 46.5H85.1C85.1 46.5 75.3 42.9 70 38.9C64.7 34.9 61.1 31.8 56.2 33.1C51.3 34.4 48.2 36.9 44.2 32.8C40.2 28.7 34.8 27.3 30.4 30.9C26 34.5 24.7 38.3 19.3 42.6C16.1 45.1 12.5 46.5 12.5 46.5Z" fill="url(#paint4_linear)"/>
<path d="M338.5 101.5C342.5 97.9 346.1 93.8 347.8 96C349.6 98.2 351.5 98.7 353.7 97.6C355.9 96.5 357.5 98.4 359.4 99.8C361.3 101.2 365.2 101.5 365.2 101.5H338.5Z" fill="url(#paint5_linear)"/>
<path d="M5.2 117.1C10.3 113.2 12.5 112.3 16 114.5C19.5 116.7 21.6 117 23.8 115.1C26 113.2 28.1 114.5 31.6 117.1C35.1 119.7 38.4 121.9 38.4 121.9H0C0 121.8 0.6 120.6 5.2 117.1Z" fill="url(#paint6_linear)"/>
<path d="M142.7 19.2H68.5V80.7H142.7V19.2Z" fill="url(#paint7_linear)"/>
<path d="M186.2 19.2H142.6V80.7H186.2V19.2Z" fill="url(#paint8_linear)"/>
<path d="M185.1 20.8L143.8 79" stroke="#6D737D" stroke-miterlimit="10" stroke-linecap="round" stroke-linejoin="round"/>
<path d="M143.8 20.8L169.2 56.5" stroke="#6D737D" stroke-miterlimit="10" stroke-linecap="round" stroke-linejoin="round"/>
<path d="M228.4 43.1H172.5V80.6H228.4V43.1Z" fill="#FFCF7D"/>
<path d="M261.1 43.1H228.3V80.6H261.1V43.1Z" fill="url(#paint9_linear)"/>
<path d="M227.1 44.1L173.7 79.6" stroke="#6D737D" stroke-miterlimit="10" stroke-linecap="round" stroke-linejoin="round"/>
<path d="M173.7 44.1L227.1 79.6" stroke="#6D737D" stroke-miterlimit="10" stroke-linecap="round" stroke-linejoin="round"/>
<path d="M113.7 51.5C113.2 51 112.4 51 111.9 51.5L107.1 56.3C106.6 56.8 106.6 57.6 107.1 58.1L111.9 62.9C112.4 63.4 113.2 63.4 113.7 62.9L118.5 58.1C119 57.6 119 56.8 118.5 56.3L113.7 51.5Z" fill="#6D737D"/>
<path d="M111.9 48.3C112.4 48.8 113.2 48.8 113.7 48.3L118.5 43.5C119 43 119 42.2 118.5 41.7L113.7 36.9C113.2 36.4 112.4 36.4 111.9 36.9L108.2 40.6C107.9 40.8 106.9 41.6 105.5 41.6C103.9 41.6 102.8 40.5 102.8 40.5L99.2 36.8C98.7 36.3 97.9 36.3 97.4 36.8L92.6 41.6C92.1 42.1 92.1 42.9 92.6 43.4L96.3 47.1C96.5 47.3 97.3 48.4 97.3 49.7C97.3 51 96.5 52 96.3 52.3L92.5 56.1C92 56.6 92 57.4 92.5 57.9L97.4 62.7C97.9 63.2 98.7 63.2 99.2 62.7L104 57.9C104.5 57.4 104.5 56.6 104 56.1L100.3 52.4C100.1 52.1 99.3 51.1 99.3 49.7C99.3 48.3 100.1 47.3 100.3 47.1L102.9 44.5C102.9 44.5 104 43.4 105.6 43.4C106.9 43.4 107.9 44.2 108.2 44.4L111.9 48.3Z" fill="#6D737D"/>
<path d="M458.6 163.6H433.7V252.5H458.6V163.6Z" fill="url(#paint10_linear)"/>
<path d="M192.7 80.6H45.4V252.6H192.7V80.6Z" fill="url(#paint11_linear)"/>
<path d="M188.7 120.4L174.2 106.7V115.3H143.6V125.4H174.2V134L188.7 120.4Z" fill="url(#paint12_linear)"/>
<path d="M143.6 125.4H174.2V134L188.7 120.4L174.2 106.7V115.3H143.6" stroke="#6D737D" stroke-miterlimit="10" stroke-linecap="round" stroke-linejoin="round"/>
<path d="M158.1 208.1V199.6L143.6 213.2L158.1 226.9V218.3H188.7V208.1H158.1Z" fill="url(#paint13_linear)"/>
<path d="M188.7 218.3H158.1V226.9L143.6 213.2L158.1 199.6V208.1H188.7" stroke="#6D737D" stroke-miterlimit="10" stroke-linecap="round" stroke-linejoin="round"/>
<path d="M273.2 80.6H192.7V252.6H273.2V80.6Z" fill="url(#paint14_linear)"/>
<path d="M219.9 163.6V174.4H422.8V252.5H433.7V163.6H219.9Z" fill="url(#paint15_linear)"/>
<path d="M248.8 103.8H219.9V163.6H248.8V103.8Z" fill="url(#paint16_linear)"/>
<path d="M248.8 192.7H219.9V252.5H248.8V192.7Z" fill="url(#paint17_linear)"/>
<path d="M248.8 192.7H219.9V199.9H248.8V192.7Z" fill="url(#paint18_linear)"/>
<path d="M248.8 104H219.9V111.2H248.8V104Z" fill="url(#paint19_linear)"/>
<path d="M9.5 252.6H499.6" stroke="#6D737D" stroke-miterlimit="10" stroke-linecap="round" stroke-linejoin="round"/>
<path d="M128.4 171.2C127.5 170.3 126 170.3 125.1 171.2L116.5 179.8C115.6 180.7 115.6 182.2 116.5 183.1L125.1 191.7C126 192.6 127.5 192.6 128.4 191.7L137 183.1C137.9 182.2 137.9 180.7 137 179.8L128.4 171.2Z" fill="#6D737D"/>
<path d="M125.1 165.5C126 166.4 127.5 166.4 128.4 165.5L137 156.9C137.9 156 137.9 154.5 137 153.6L128.4 145C127.5 144.1 126 144.1 125.1 145L118.4 151.7C117.9 152.1 116 153.6 113.6 153.6C110.7 153.6 108.8 151.6 108.8 151.6L102.3 145C101.4 144.1 99.9 144.1 99 145L90.4 153.6C89.5 154.5 89.5 156 90.4 156.9L97.1 163.6C97.5 164 99 165.9 99 168.3C99 170.7 97.6 172.5 97.1 173L90.3 179.8C89.4 180.7 89.4 182.2 90.3 183.1L99 191.7C99.9 192.6 101.4 192.6 102.3 191.7L110.9 183.1C111.8 182.2 111.8 180.7 110.9 179.8L104.2 173.1C103.8 172.6 102.3 170.7 102.3 168.3C102.3 165.9 103.8 164.1 104.2 163.6L108.9 158.9C108.9 158.9 110.9 156.9 113.7 156.9C116.1 156.9 117.9 158.3 118.3 158.8L125.1 165.5Z" fill="#6D737D"/>
<path d="M45.4 252.6V148.6" stroke="#6D737D" stroke-miterlimit="10" stroke-linecap="round" stroke-linejoin="round"/>
<path d="M45.4 95.2V80.6H158" stroke="#6D737D" stroke-miterlimit="10" stroke-linecap="round" stroke-linejoin="round"/>
<path d="M192.7 252.6V183.7" stroke="#6D737D" stroke-miterlimit="10" stroke-linecap="round" stroke-linejoin="round"/>
<path d="M192.7 106.7V80.6H273.2V87.9" stroke="#6D737D" stroke-miterlimit="10" stroke-linecap="round" stroke-linejoin="round"/>
<path d="M422.7 196.1V252.5" stroke="#6D737D" stroke-miterlimit="10" stroke-linecap="round" stroke-linejoin="round"/>
<path d="M219.9 174.6H422.7" stroke="#6D737D" stroke-miterlimit="10" stroke-linecap="round" stroke-linejoin="round"/>
<path d="M433.7 163.6H219.9" stroke="#6D737D" stroke-miterlimit="10" stroke-linecap="round" stroke-linejoin="round"/>
<path d="M433.7 252.5V222.7" stroke="#6D737D" stroke-miterlimit="10" stroke-linecap="round" stroke-linejoin="round"/>
<path d="M248.7 116V103.8H219.9V163.6H248.7V157.6" stroke="#6D737D" stroke-miterlimit="10" stroke-linecap="round" stroke-linejoin="round"/>
<path d="M219.9 252.5V192.7H248.7V206.6" stroke="#6D737D" stroke-miterlimit="10" stroke-linecap="round" stroke-linejoin="round"/>
<path d="M219.9 107.6H248.7" stroke="#6D737D" stroke-miterlimit="10" stroke-linecap="round" stroke-linejoin="round"/>
<path d="M219.9 111H248.7" stroke="#6D737D" stroke-miterlimit="10" stroke-linecap="round" stroke-linejoin="round"/>
<path d="M219.9 196.5H248.7" stroke="#6D737D" stroke-miterlimit="10" stroke-linecap="round" stroke-linejoin="round"/>
<path d="M219.9 199.9H248.7" stroke="#6D737D" stroke-miterlimit="10" stroke-linecap="round" stroke-linejoin="round"/>
<path d="M248.7 252.5V241.7" stroke="#6D737D" stroke-miterlimit="10" stroke-linecap="round" stroke-linejoin="round"/>
<path d="M371 216.7H351.8V234.6H371V216.7Z" fill="url(#paint20_linear)"/>
<path d="M385.4 216.7H371V234.6H385.4V216.7Z" fill="url(#paint21_linear)"/>
<path d="M373.9 199.5H356.7V216.7H373.9V199.5Z" fill="url(#paint22_linear)"/>
<path d="M389.9 199.5H373.9V216.7H389.9V199.5Z" fill="url(#paint23_linear)"/>
<path d="M372.8 200.9L358.1 215.5" stroke="#6D737D" stroke-miterlimit="10" stroke-linecap="round" stroke-linejoin="round"/>
<path d="M358.1 200.6L372.8 215.3" stroke="#6D737D" stroke-miterlimit="10" stroke-linecap="round" stroke-linejoin="round"/>
<path d="M397.8 213.3H379.6V234H397.8V213.3Z" fill="#FFCF7D"/>
<path d="M407 213.3H397.8V234H407V213.3Z" fill="url(#paint24_linear)"/>
<path d="M352 233.6V213.8C352 213.1 351.4 212.6 350.8 212.6H347.9V237.9L408.3 237.8V235.3C408.3 234.6 407.7 234.1 407.1 234.1L352.7 234.2C352.3 234.1 352 233.9 352 233.6Z" fill="white"/>
<path d="M322 230.5L319.5 227.2C319.4 227.1 319.2 227 319 227H316.4C315.6 227 314.9 227.7 314.9 228.5C314.9 229.3 315.6 230 316.4 230H319.5" stroke="#6D737D" stroke-miterlimit="10" stroke-linecap="round" stroke-linejoin="round"/>
<path d="M408.2 236.1V235.1C408.2 234.6 407.8 234.1 407.2 234.1H352.3C352.1 234.1 351.9 233.9 351.9 233.7V213.5C351.9 213 351.5 212.5 350.9 212.5H347.7" stroke="#6D737D" stroke-miterlimit="10" stroke-linecap="round" stroke-linejoin="round"/>
<path d="M378 252.5C381.424 252.5 384.2 249.724 384.2 246.3C384.2 242.876 381.424 240.1 378 240.1C374.576 240.1 371.8 242.876 371.8 246.3C371.8 249.724 374.576 252.5 378 252.5Z" fill="#AFB5BF"/>
<path d="M324.4 252.5C327.824 252.5 330.6 249.724 330.6 246.3C330.6 242.876 327.824 240.1 324.4 240.1C320.976 240.1 318.2 242.876 318.2 246.3C318.2 249.724 320.976 252.5 324.4 252.5Z" fill="#AFB5BF"/>
<path d="M329.2 212.4H347.8C348.6 212.4 349.2 213 349.2 213.8V233V235.6C349.2 236.4 349.8 237 350.6 237H408.2V244.3C408.2 244.9 407.7 245.5 407 245.5H314V233.8C314 232.8 314.3 231.8 314.9 230.9L328 213C328.4 212.6 328.8 212.4 329.2 212.4Z" fill="url(#paint25_linear)"/>
<path d="M349.2 233V235.6C349.2 236.4 349.8 237 350.6 237H393.7" stroke="#6D737D" stroke-miterlimit="10" stroke-linecap="round" stroke-linejoin="round"/>
<path d="M343.1 212.4L329.6 230.9C329 231.7 328.7 232.7 328.7 233.8V245.5H314.2V233.8C314.2 232.8 314.5 231.8 315.1 230.9L328.2 213C328.5 212.6 328.9 212.4 329.3 212.4H343.1Z" fill="url(#paint26_linear)"/>
<path d="M340.3 252.5C343.724 252.5 346.5 249.724 346.5 246.3C346.5 242.876 343.724 240.1 340.3 240.1C336.876 240.1 334.1 242.876 334.1 246.3C334.1 249.724 336.876 252.5 340.3 252.5Z" fill="url(#paint27_linear)"/>
<path d="M340.3 248.1C341.294 248.1 342.1 247.294 342.1 246.3C342.1 245.306 341.294 244.5 340.3 244.5C339.306 244.5 338.5 245.306 338.5 246.3C338.5 247.294 339.306 248.1 340.3 248.1Z" stroke="#6D737D" stroke-miterlimit="10" stroke-linecap="round" stroke-linejoin="round"/>
<path d="M393.8 252.5C397.224 252.5 400 249.724 400 246.3C400 242.876 397.224 240.1 393.8 240.1C390.376 240.1 387.6 242.876 387.6 246.3C387.6 249.724 390.376 252.5 393.8 252.5Z" fill="url(#paint28_linear)"/>
<path d="M393.8 248.1C394.794 248.1 395.6 247.294 395.6 246.3C395.6 245.306 394.794 244.5 393.8 244.5C392.806 244.5 392 245.306 392 246.3C392 247.294 392.806 248.1 393.8 248.1Z" stroke="#6D737D" stroke-miterlimit="10" stroke-linecap="round" stroke-linejoin="round"/>
<path d="M333.8 229H346.2C346.4 229 346.5 228.9 346.5 228.7V214.2C346.5 214 346.4 213.9 346.2 213.9H344.2C344.1 213.9 344 213.9 344 214L333.6 228.5C333.5 228.7 333.6 229 333.8 229Z" fill="url(#paint29_linear)"/>
<path d="M329.4 229H318.1C317.9 229 317.7 228.7 317.9 228.6L328.4 214.3C328.5 214.1 328.8 214 329 214H340.4C340.6 214 340.8 214.3 340.6 214.4L330 228.7C329.9 228.9 329.7 229 329.4 229Z" fill="url(#paint30_linear)"/>
<path d="M332 230.5L334.5 227.2C334.6 227.1 334.8 227 335 227H337.6C338.4 227 339.1 227.7 339.1 228.5C339.1 229.3 338.4 230 337.6 230H334.5" stroke="#6D737D" stroke-miterlimit="10" stroke-linecap="round" stroke-linejoin="round"/>
<path d="M315 237.9H314.1V235.4H315C315.7 235.4 316.3 236 316.3 236.7C316.3 237.3 315.7 237.9 315 237.9Z" stroke="#6D737D" stroke-miterlimit="10" stroke-linecap="round" stroke-linejoin="round"/>
<path d="M329.5 237.9H327.6C326.9 237.9 326.3 237.3 326.3 236.6C326.3 235.9 326.9 235.3 327.6 235.3H329.5C330.2 235.3 330.8 235.9 330.8 236.6C330.8 237.3 330.2 237.9 329.5 237.9Z" stroke="#6D737D" stroke-miterlimit="10" stroke-linecap="round" stroke-linejoin="round"/>
<path d="M316.6 239.5H325.6" stroke="#6D737D" stroke-miterlimit="10" stroke-linecap="round" stroke-linejoin="round"/>
<path d="M316.6 241.4H325.6" stroke="#6D737D" stroke-miterlimit="10" stroke-linecap="round" stroke-linejoin="round"/>
<path d="M328.6 237.9V245.5H332.4" stroke="#6D737D" stroke-miterlimit="10" stroke-linecap="round" stroke-linejoin="round"/>
<path d="M348.3 245.4H380.5" stroke="#6D737D" stroke-miterlimit="10" stroke-linecap="round" stroke-linejoin="round"/>
<path d="M328.6 245.5H314.1V241.7" stroke="#6D737D" stroke-miterlimit="10" stroke-linecap="round" stroke-linejoin="round"/>
<path d="M330.8 229.7L342.7 213.4" stroke="#6D737D" stroke-miterlimit="10" stroke-linecap="round" stroke-linejoin="round"/>
<path d="M329.4 229H318C317.8 229 317.7 228.8 317.8 228.6L320.3 225.2" stroke="#6D737D" stroke-miterlimit="10" stroke-linecap="round" stroke-linejoin="round"/>
<path d="M398.5 214L406.3 232.5" stroke="#6D737D" stroke-miterlimit="10" stroke-linecap="round" stroke-linejoin="round"/>
<path d="M406.5 214L398.5 232.5" stroke="#6D737D" stroke-miterlimit="10" stroke-linecap="round" stroke-linejoin="round"/>
<path d="M379.6 234V213.3H386.5" stroke="#6D737D" stroke-miterlimit="10" stroke-linecap="round" stroke-linejoin="round"/>
<path d="M371 234V228.3" stroke="#6D737D" stroke-miterlimit="10" stroke-linecap="round" stroke-linejoin="round"/>
<path d="M407.5 239.3H406.2C405.7 239.3 405.3 239.7 405.3 240.2C405.3 240.7 405.7 241.1 406.2 241.1H407.5" stroke="#6D737D" stroke-miterlimit="10" stroke-linecap="round" stroke-linejoin="round"/>
<path d="M284.9 163.4C287.109 163.4 288.9 161.609 288.9 159.4C288.9 157.191 287.109 155.4 284.9 155.4C282.691 155.4 280.9 157.191 280.9 159.4C280.9 161.609 282.691 163.4 284.9 163.4Z" fill="#AFB5BF"/>
<path d="M287.3 145.8H268.2V159.4H287.3V145.8Z" fill="#FFCF7D"/>
<path d="M294.8 145.8H287.3V159.4H294.8V145.8Z" fill="#F9A932"/>
<path d="M317.3 163.4C319.509 163.4 321.3 161.609 321.3 159.4C321.3 157.191 319.509 155.4 317.3 155.4C315.091 155.4 313.3 157.191 313.3 159.4C313.3 161.609 315.091 163.4 317.3 163.4Z" fill="#AFB5BF"/>
<path d="M314.1 137.4H293.2V159.4H314.1V137.4Z" fill="url(#paint31_linear)"/>
<path d="M326.4 137.4H314.1V159.4H326.4V137.4Z" fill="url(#paint32_linear)"/>
<path d="M312.3 139.2L294.6 157.9" stroke="#6D737D" stroke-miterlimit="10" stroke-linecap="round" stroke-linejoin="round"/>
<path d="M294.6 138.9L312.3 157.6" stroke="#6D737D" stroke-miterlimit="10" stroke-linecap="round" stroke-linejoin="round"/>
<path d="M329.2 159.3H268.2H264.2V133.7C264.2 132.5 265.2 131.5 266.4 131.5H274.1C275.3 131.5 276.3 132.5 276.3 133.7V143.9" stroke="#6D737D" stroke-miterlimit="10" stroke-linecap="round" stroke-linejoin="round"/>
<path d="M273.3 163.4C275.509 163.4 277.3 161.609 277.3 159.4C277.3 157.191 275.509 155.4 273.3 155.4C271.091 155.4 269.3 157.191 269.3 159.4C269.3 161.609 271.091 163.4 273.3 163.4Z" fill="url(#paint33_linear)"/>
<path d="M305.6 163.4C307.809 163.4 309.6 161.609 309.6 159.4C309.6 157.191 307.809 155.4 305.6 155.4C303.391 155.4 301.6 157.191 301.6 159.4C301.6 161.609 303.391 163.4 305.6 163.4Z" fill="url(#paint34_linear)"/>
<path d="M305.6 160.5C306.208 160.5 306.7 160.007 306.7 159.4C306.7 158.792 306.208 158.3 305.6 158.3C304.992 158.3 304.5 158.792 304.5 159.4C304.5 160.007 304.992 160.5 305.6 160.5Z" stroke="#6D737D" stroke-miterlimit="10" stroke-linecap="round" stroke-linejoin="round"/>
<path d="M273.3 160.5C273.908 160.5 274.4 160.007 274.4 159.4C274.4 158.792 273.908 158.3 273.3 158.3C272.692 158.3 272.2 158.792 272.2 159.4C272.2 160.007 272.692 160.5 273.3 160.5Z" stroke="#6D737D" stroke-miterlimit="10" stroke-linecap="round" stroke-linejoin="round"/>
<path d="M268.2 159.3V145.8H270.9" stroke="#6D737D" stroke-miterlimit="10" stroke-linecap="round" stroke-linejoin="round"/>
<path d="M393.9 68.9C394.9 63.9 395.1 60.1 395.1 57.9C395.1 56.3 393.7 55.8 392.8 56.9C392.1 57.8 389.4 64.7 387.7 68.5L393.9 68.9Z" fill="url(#paint35_linear)"/>
<path d="M467.6 41.3C466.5 35.8 463.3 24.2 461.8 19.8C460.8 16.8 459.6 15.6 458.2 15.4C456.8 15.2 455.5 16 455 17.4L444 48.2L442.9 53.3C449.5 50 461.7 44.1 467.6 41.3Z" fill="url(#paint36_linear)"/>
<path d="M464.2 34.9L460.1 18.7" stroke="#6D737D" stroke-miterlimit="10" stroke-linecap="round" stroke-linejoin="round"/>
<path d="M509.4 33.8C507.8 35.8 502.5 40.3 500.2 42C499 42.9 495.7 45.1 494.2 45.9L428.2 82.4C422.5 85.5 415.9 86.3 409.7 84.5L376.7 74.9C375.2 74.5 374.1 73 374.2 71.4C374.3 69.5 375.9 68.1 377.8 68.1L401.8 69.3C404.2 69.4 406.7 68.9 408.8 67.7L479 28.8C484.4 25.8 490.6 24.5 496.8 25.1L507 26.1C509 26.3 510.5 27.8 510.9 29.7C511.2 31.2 510.6 32.3 509.4 33.8Z" fill="url(#paint37_linear)"/>
<path d="M470.9 58.7999L494.2 45.9C497.3 43.9 500.4 41.9 502.6 40.2" stroke="#6D737D" stroke-miterlimit="10" stroke-linecap="round" stroke-linejoin="round"/>
<path d="M409.7 84.5C415.9 86.3 422.6 85.6 428.2 82.4L433.6 79.4" stroke="#6D737D" stroke-miterlimit="10" stroke-linecap="round" stroke-linejoin="round"/>
<path d="M377.8 68.1L401.8 69.3" stroke="#6D737D" stroke-miterlimit="10" stroke-linecap="round" stroke-linejoin="round"/>
<path d="M464.9 54.5C461.2 56.5 448.9 63.2 441.8 67.2C440.7 67.8 440 68.9 439.9 70.1L436.9 98.8C436.7 100.4 438.1 101.8 439.7 101.6C440.5 101.5 441.3 101.1 441.7 100.3L467 56.8C467.4 56.2 467.3 55.4 466.8 54.9C466.4 54.3 465.6 54.2 464.9 54.5Z" fill="url(#paint38_linear)"/>
<path d="M439.8 101.5C440.6 101.4 441.4 101 441.8 100.2L467.1 56.7C467.5 56.1 467.4 55.3 466.9 54.8C466.4 54.3 465.6 54.1 465 54.5C461.3 56.5 447.6 64 447.6 64" stroke="#6D737D" stroke-miterlimit="10" stroke-linecap="round" stroke-linejoin="round"/>
<path d="M390.9 72.1C389.5 73.4 385 77.3 385 77.3C384.1 82 382.7 90.3 382.2 93.5C382.1 94.2 382.8 94.7 383.4 94.5C384 94.3 384.8 93.8 385.6 93C386.3 92.2 386.8 91.3 387.6 89.2C388 88.3 391.3 79 393 72.7C393.3 71.7 392.3 70.8 390.9 72.1Z" fill="url(#paint39_linear)"/>
<path d="M385.6 92.9C386.3 92.1 386.8 91.2 387.6 89.1C388 88.2 391.3 78.9 393 72.6C393.3 71.7 392.3 70.8 390.9 72.1C389.5 73.4 387.1 75.5 387.1 75.5" stroke="#6D737D" stroke-miterlimit="10" stroke-linecap="round" stroke-linejoin="round"/>
<path d="M396.7 90C395.2 88.1 395.4 85.3 397.2 83.6L407.2 74.6C408.3 73.6 410 73.4 411.3 74.1H411.4C411.9 74.3 412.5 74.7 412.9 75.1L414.5 77.1C414.8 77.5 415.2 78.5 415.4 78.9C415.8 80.4 415.3 81.9 414 82.8L403.2 90.8C401.1 92.4 398.3 92 396.7 90Z" fill="url(#paint40_linear)"/>
<path d="M414.5 77.3L412.9 75.3C412.6 74.9 411.9 74.5 411.4 74.3H411.3C410.5 73.9 409.7 73.8 408.9 74C408.3 74.1 407.9 74.7 408 75.3C408.1 75.9 408.4 76.5 408.8 77.1C409.9 78.6 411.3 80.8 413.7 81.9C414.3 82.2 415.1 81.8 415.3 81.2C415.5 80.6 415.5 79.9 415.3 79.3C415.2 78.6 414.8 77.6 414.5 77.3Z" fill="url(#paint41_radial)"/>
<path d="M396.7 90C395.2 88.1 395.4 85.3 397.2 83.6L407.1 74.7C407.2 74.6 407.3 74.5 407.4 74.5C408.3 73.9 409.6 73.4 410.9 73.9C412.4 74.4 413.7 75.8 414.6 77.4C415.6 79.1 415.4 80.1 415.4 80.1" stroke="#6D737D" stroke-miterlimit="10" stroke-linecap="round" stroke-linejoin="round"/>
<path d="M502.4 28.9C502.7 27.6 502.6 26.5 502.3 25.6L496.9 25.1C495.3 24.9 493.7 24.9 492.2 25C494.3 25.6 495.9 27.4 494.3 30.2C492.7 32.9 489 35.7 489.2 37.2C489.4 38.8 492.5 38.9 495.4 37.2C498.2 35.5 501.6 32.1 502.4 28.9Z" fill="url(#paint42_linear)"/>
<path d="M494.2 26.1C495 27 495.3 28.4 494.3 30.1C492.7 32.8 489 35.6 489.2 37.1" stroke="#6D737D" stroke-miterlimit="10" stroke-linecap="round" stroke-linejoin="round"/>
<path d="M497.1 37.4C499.9 35.7 502.3 32.8 503.3 29.7C503.7 28.3 503.6 26.7 503.6 26.7" stroke="#6D737D" stroke-miterlimit="10" stroke-linecap="round" stroke-linejoin="round"/>
<path d="M347.9 134.4C347.9 134.4 361.4 128.5 381.8 116.1C397.3 106.6 405.6 97.8 405.6 97.8" stroke="#D6E2E5" stroke-miterlimit="10" stroke-linecap="round" stroke-linejoin="round"/>
<path d="M373.9 128.5C373.9 128.5 395.4 118.5 415.5 99.9" stroke="#D6E2E5" stroke-miterlimit="10" stroke-linecap="round" stroke-linejoin="round"/>
<path d="M440.1 97.6999L461.1 61.7" stroke="#6D737D" stroke-miterlimit="10" stroke-linecap="round" stroke-linejoin="round"/>
<path d="M408.4 75.8C408.7 76.9 409.7 78.2 411 79.7C412 80.8 413 81.4 413.6 81.6" stroke="#6D737D" stroke-miterlimit="10" stroke-linecap="round" stroke-linejoin="round"/>
<path d="M410.5 76.8C410.5 76.8 411.6 76.3999 412.4 77.1999C413.2 77.9999 412.8 79.1999 412.8 79.1999" stroke="#6D737D" stroke-miterlimit="10" stroke-linecap="round" stroke-linejoin="round"/>
<path d="M469.5 54.7L491.2 42.4" stroke="#6D737D" stroke-miterlimit="10" stroke-linecap="round" stroke-linejoin="round"/>
<path d="M421.9 81.1L438.1 71.4" stroke="#6D737D" stroke-miterlimit="10" stroke-linecap="round" stroke-linejoin="round"/>
</g>
<defs>
<linearGradient id="paint0_linear" x1="313.682" y1="7.02729" x2="313.533" y2="12.8681" gradientUnits="userSpaceOnUse">
<stop offset="0.000578704" stop-color="#E3F8FC"/>
<stop offset="1" stop-color="#AFEBF6"/>
</linearGradient>
<linearGradient id="paint1_linear" x1="295.196" y1="63.2128" x2="295.284" y2="66.6498" gradientUnits="userSpaceOnUse">
<stop offset="0.000578704" stop-color="#E3F8FC"/>
<stop offset="1" stop-color="#AFEBF6"/>
</linearGradient>
<linearGradient id="paint2_linear" x1="396.109" y1="33.3152" x2="396.169" y2="35.6632" gradientUnits="userSpaceOnUse">
<stop offset="0.000578704" stop-color="#E3F8FC"/>
<stop offset="1" stop-color="#AFEBF6"/>
</linearGradient>
<linearGradient id="paint3_linear" x1="479.379" y1="130.066" x2="479.456" y2="133.083" gradientUnits="userSpaceOnUse">
<stop offset="0.000578704" stop-color="#E3F8FC"/>
<stop offset="1" stop-color="#AFEBF6"/>
</linearGradient>
<linearGradient id="paint4_linear" x1="48.5703" y1="36.4075" x2="48.7502" y2="43.4234" gradientUnits="userSpaceOnUse">
<stop offset="0.000578704" stop-color="#E3F8FC"/>
<stop offset="1" stop-color="#AFEBF6"/>
</linearGradient>
<linearGradient id="paint5_linear" x1="351.809" y1="98.0438" x2="351.872" y2="100.475" gradientUnits="userSpaceOnUse">
<stop offset="0.000578704" stop-color="#E3F8FC"/>
<stop offset="1" stop-color="#AFEBF6"/>
</linearGradient>
<linearGradient id="paint6_linear" x1="19.0279" y1="112.981" x2="19.2456" y2="124.196" gradientUnits="userSpaceOnUse">
<stop offset="0.000578704" stop-color="#E3F8FC"/>
<stop offset="1" stop-color="#AFEBF6"/>
</linearGradient>
<linearGradient id="paint7_linear" x1="105.551" y1="66.8397" x2="105.551" y2="80.2868" gradientUnits="userSpaceOnUse">
<stop offset="0.4268" stop-color="#FFCB7D"/>
<stop offset="1" stop-color="#F9B032"/>
</linearGradient>
<linearGradient id="paint8_linear" x1="164.44" y1="23.835" x2="164.44" y2="43.5317" gradientUnits="userSpaceOnUse">
<stop offset="0.4268" stop-color="#FFC061"/>
<stop offset="1" stop-color="#F9A932"/>
</linearGradient>
<linearGradient id="paint9_linear" x1="257.417" y1="61.8654" x2="243.463" y2="61.8654" gradientUnits="userSpaceOnUse">
<stop offset="0.4268" stop-color="#FFC061"/>
<stop offset="1" stop-color="#F9A932"/>
</linearGradient>
<linearGradient id="paint10_linear" x1="450.15" y1="208.07" x2="417.061" y2="208.07" gradientUnits="userSpaceOnUse">
<stop stop-color="#D3DBDE"/>
<stop offset="0.0117034" stop-color="#D4DCDF"/>
<stop offset="0.2646" stop-color="#E2E9ED"/>
<stop offset="0.4799" stop-color="#E7EEF2"/>
</linearGradient>
<linearGradient id="paint11_linear" x1="194.055" y1="167.862" x2="43.9702" y2="165.381" gradientUnits="userSpaceOnUse">
<stop stop-color="#D3DBDE"/>
<stop offset="0.0746544" stop-color="#DDE4E8"/>
<stop offset="0.1962" stop-color="#E5ECF0"/>
<stop offset="0.4223" stop-color="#E7EEF2"/>
<stop offset="0.6821" stop-color="#E2E9ED"/>
<stop offset="0.991" stop-color="#D4DCDF"/>
<stop offset="1" stop-color="#D3DBDE"/>
</linearGradient>
<linearGradient id="paint12_linear" x1="143.595" y1="120.362" x2="188.732" y2="120.362" gradientUnits="userSpaceOnUse">
<stop offset="0.4171" stop-color="#82C5F5"/>
<stop offset="1" stop-color="#3A9BE0"/>
</linearGradient>
<linearGradient id="paint13_linear" x1="186.761" y1="213.207" x2="134.948" y2="213.207" gradientUnits="userSpaceOnUse">
<stop offset="0.00415427" stop-color="#FC77A8"/>
<stop offset="0.3458" stop-color="#F370A1"/>
<stop offset="0.8989" stop-color="#DB5E8C"/>
<stop offset="1" stop-color="#D65A88"/>
</linearGradient>
<linearGradient id="paint14_linear" x1="247.998" y1="166.622" x2="170.289" y2="166.622" gradientUnits="userSpaceOnUse">
<stop stop-color="#D3DBDE"/>
<stop offset="0.0117034" stop-color="#D4DCDF"/>
<stop offset="0.2646" stop-color="#E2E9ED"/>
<stop offset="0.4799" stop-color="#E7EEF2"/>
</linearGradient>
<linearGradient id="paint15_linear" x1="359.609" y1="207.611" x2="214.58" y2="206.642" gradientUnits="userSpaceOnUse">
<stop stop-color="#D3DBDE"/>
<stop offset="0.0117034" stop-color="#D4DCDF"/>
<stop offset="0.2646" stop-color="#E2E9ED"/>
<stop offset="0.4799" stop-color="#E7EEF2"/>
</linearGradient>
<linearGradient id="paint16_linear" x1="253.065" y1="115.402" x2="223.237" y2="144.477" gradientUnits="userSpaceOnUse">
<stop offset="0.4291" stop-color="#A1B4BB"/>
<stop offset="1" stop-color="#D6E2E5"/>
</linearGradient>
<linearGradient id="paint17_linear" x1="253.065" y1="204.289" x2="223.237" y2="233.365" gradientUnits="userSpaceOnUse">
<stop offset="0.4291" stop-color="#A1B4BB"/>
<stop offset="1" stop-color="#D6E2E5"/>
</linearGradient>
<linearGradient id="paint18_linear" x1="234.282" y1="193.059" x2="234.282" y2="199.914" gradientUnits="userSpaceOnUse">
<stop offset="0.4291" stop-color="#A1B4BB"/>
<stop offset="1" stop-color="#D6E2E5"/>
</linearGradient>
<linearGradient id="paint19_linear" x1="234.282" y1="104.356" x2="234.282" y2="111.211" gradientUnits="userSpaceOnUse">
<stop offset="0.4291" stop-color="#A1B4BB"/>
<stop offset="1" stop-color="#D6E2E5"/>
</linearGradient>
<linearGradient id="paint20_linear" x1="358.741" y1="225.628" x2="352.462" y2="225.628" gradientUnits="userSpaceOnUse">
<stop offset="0.4268" stop-color="#FFCB7D"/>
<stop offset="1" stop-color="#E69D20"/>
</linearGradient>
<linearGradient id="paint21_linear" x1="386.181" y1="225.628" x2="381.505" y2="225.628" gradientUnits="userSpaceOnUse">
<stop offset="0.4268" stop-color="#FFC061"/>
<stop offset="1" stop-color="#F9A932"/>
</linearGradient>
<linearGradient id="paint22_linear" x1="365.284" y1="212.819" x2="365.284" y2="216.59" gradientUnits="userSpaceOnUse">
<stop offset="0.4268" stop-color="#FFCB7D"/>
<stop offset="1" stop-color="#F9B032"/>
</linearGradient>
<linearGradient id="paint23_linear" x1="391.553" y1="208.306" x2="382.265" y2="208.079" gradientUnits="userSpaceOnUse">
<stop offset="0.4268" stop-color="#FFC061"/>
<stop offset="1" stop-color="#F9A932"/>
</linearGradient>
<linearGradient id="paint24_linear" x1="407.511" y1="223.632" x2="404.526" y2="223.632" gradientUnits="userSpaceOnUse">
<stop offset="0.4268" stop-color="#FFC061"/>
<stop offset="1" stop-color="#F9A932"/>
</linearGradient>
<linearGradient id="paint25_linear" x1="336.641" y1="230.164" x2="409.734" y2="245.616" gradientUnits="userSpaceOnUse">
<stop stop-color="#3A9BE0"/>
<stop offset="0.1045" stop-color="#53AAE7"/>
<stop offset="0.2408" stop-color="#6DB9EF"/>
<stop offset="0.3636" stop-color="#7CC2F3"/>
<stop offset="0.4602" stop-color="#82C5F5"/>
<stop offset="1" stop-color="#3A9BE0"/>
</linearGradient>
<linearGradient id="paint26_linear" x1="328.559" y1="233.658" x2="328.559" y2="242.783" gradientUnits="userSpaceOnUse">
<stop offset="0.4171" stop-color="#82C5F5"/>
<stop offset="1" stop-color="#3A9BE0"/>
</linearGradient>
<linearGradient id="paint27_linear" x1="334.522" y1="243.977" x2="346.107" y2="248.585" gradientUnits="userSpaceOnUse">
<stop offset="0.00858799" stop-color="#AFB5BF"/>
<stop offset="0.603" stop-color="#CED5E0"/>
<stop offset="1" stop-color="#AFB5BF"/>
</linearGradient>
<linearGradient id="paint28_linear" x1="388.018" y1="243.977" x2="399.604" y2="248.585" gradientUnits="userSpaceOnUse">
<stop offset="0.00858799" stop-color="#AFB5BF"/>
<stop offset="0.603" stop-color="#CED5E0"/>
<stop offset="1" stop-color="#AFB5BF"/>
</linearGradient>
<linearGradient id="paint29_linear" x1="340.045" y1="226.517" x2="340.045" y2="218.188" gradientUnits="userSpaceOnUse">
<stop stop-color="#D3DBDE"/>
<stop offset="0.4799" stop-color="#E7EEF2"/>
</linearGradient>
<linearGradient id="paint30_linear" x1="329.223" y1="226.517" x2="329.223" y2="218.188" gradientUnits="userSpaceOnUse">
<stop stop-color="#D3DBDE"/>
<stop offset="0.4799" stop-color="#E7EEF2"/>
</linearGradient>
<linearGradient id="paint31_linear" x1="303.608" y1="154.453" x2="303.608" y2="159.276" gradientUnits="userSpaceOnUse">
<stop offset="0.4268" stop-color="#FFCB7D"/>
<stop offset="1" stop-color="#F9B032"/>
</linearGradient>
<linearGradient id="paint32_linear" x1="324.945" y1="148.38" x2="319.723" y2="148.38" gradientUnits="userSpaceOnUse">
<stop offset="0.4268" stop-color="#FFC061"/>
<stop offset="1" stop-color="#F9A932"/>
</linearGradient>
<linearGradient id="paint33_linear" x1="269.34" y1="159.4" x2="277.246" y2="159.4" gradientUnits="userSpaceOnUse">
<stop offset="0.4223" stop-color="#E7EEF2"/>
<stop offset="0.6821" stop-color="#E2E9ED"/>
<stop offset="0.991" stop-color="#D4DCDF"/>
<stop offset="1" stop-color="#D3DBDE"/>
</linearGradient>
<linearGradient id="paint34_linear" x1="301.684" y1="159.4" x2="309.59" y2="159.4" gradientUnits="userSpaceOnUse">
<stop offset="0.4223" stop-color="#E7EEF2"/>
<stop offset="0.6821" stop-color="#E2E9ED"/>
<stop offset="0.991" stop-color="#D4DCDF"/>
<stop offset="1" stop-color="#D3DBDE"/>
</linearGradient>
<linearGradient id="paint35_linear" x1="392.095" y1="59.6885" x2="391.371" y2="65.125" gradientUnits="userSpaceOnUse">
<stop offset="0.4171" stop-color="#82C5F5"/>
<stop offset="1" stop-color="#3A9BE0"/>
</linearGradient>
<linearGradient id="paint36_linear" x1="451.677" y1="35.0476" x2="454.374" y2="39.8432" gradientUnits="userSpaceOnUse">
<stop offset="0.4171" stop-color="#82C5F5"/>
<stop offset="1" stop-color="#3A9BE0"/>
</linearGradient>
<linearGradient id="paint37_linear" x1="443.676" y1="52.7668" x2="450.512" y2="64.8305" gradientUnits="userSpaceOnUse">
<stop offset="0.4171" stop-color="#82C5F5"/>
<stop offset="1" stop-color="#3A9BE0"/>
</linearGradient>
<linearGradient id="paint38_linear" x1="449.673" y1="76.3278" x2="452.82" y2="78.1261" gradientUnits="userSpaceOnUse">
<stop offset="0.4171" stop-color="#82C5F5"/>
<stop offset="1" stop-color="#3A9BE0"/>
</linearGradient>
<linearGradient id="paint39_linear" x1="385.565" y1="82.2102" x2="389.138" y2="83.4528" gradientUnits="userSpaceOnUse">
<stop offset="0.4171" stop-color="#82C5F5"/>
<stop offset="1" stop-color="#3A9BE0"/>
</linearGradient>
<linearGradient id="paint40_linear" x1="403.029" y1="80.4373" x2="406.871" y2="85.0705" gradientUnits="userSpaceOnUse">
<stop offset="0.4171" stop-color="#82C5F5"/>
<stop offset="1" stop-color="#3A9BE0"/>
</linearGradient>
<radialGradient id="paint41_radial" cx="0" cy="0" r="1" gradientUnits="userSpaceOnUse" gradientTransform="translate(411.035 78.698) rotate(-131.185) scale(5.66778 3.39641)">
<stop offset="0.3399" stop-color="#3596DB"/>
<stop offset="0.4558" stop-color="#3A99DC"/>
<stop offset="0.5974" stop-color="#49A1E0"/>
<stop offset="0.752" stop-color="#62AFE5"/>
<stop offset="0.871" stop-color="#7ABCEB"/>
</radialGradient>
<linearGradient id="paint42_linear" x1="496.997" y1="27.7036" x2="494.769" y2="34.1097" gradientUnits="userSpaceOnUse">
<stop offset="0.2238" stop-color="#E7EEF2"/>
<stop offset="0.2497" stop-color="#E4EBEF"/>
<stop offset="0.5667" stop-color="#C3CACD"/>
<stop offset="0.8281" stop-color="#AFB5B8"/>
<stop offset="1" stop-color="#A8AEB0"/>
</linearGradient>
<clipPath id="clip0">
<rect width="511" height="253.1" fill="white"/>
</clipPath>
</defs>
</svg>
