<svg width="1496" height="350" viewBox="0 0 1496 350" fill="none" xmlns="http://www.w3.org/2000/svg">
<g clip-path="url(#clip0)">
<path d="M478.6 90.2H530.6C530.6 90.2 526.7 88.3 524.3 86.5C521.1 84.1 519.5 82 516 82.6C511.5 83.4 509.3 87.3 506.8 87.1C504.3 86.9 502.1 82.8 498.6 81.8C495.1 80.8 493 82 489.9 84.7C485.3 88.7 478.6 90.2 478.6 90.2Z" fill="url(#paint0_linear)"/>
<path d="M385.7 30.2H482.4C482.4 30.2 472.3 28.6 465 23.6C459.6 19.8 456.9 15.3 453.9 11.9C450.6 8.10002 444.8 7.70002 441.3 11.7C437.8 15.7 434 19.4 430.5 18.9C427.1 18.5 425.6 16.6 422.3 12.6C418.2 7.70002 411.6 7.60002 407.6 12.9C403.6 18.2 398.8 22.7 395 25.5C391.2 28.4 385.7 30.2 385.7 30.2Z" fill="url(#paint1_linear)"/>
<path d="M649.3 8.70001H694.3C694.3 8.70001 690.5 4.20001 685.3 1.40001C680.1 -1.39999 676.3 0.400014 671.8 3.50001C667.3 6.60001 665.2 5.50001 661.1 4.40001C655 2.60001 649.3 8.70001 649.3 8.70001Z" fill="url(#paint2_linear)"/>
<path d="M106.8 74.5H167.6C167.6 74.5 161.6 70.7 158.2 67.7C154.8 64.7 150 61.9 144.5 63.6C138.8 65.3 134.9 70.9 130.7 71.1C126.5 71.3 125.2 68.4 121.2 67.7C117.2 67.1 114.4 69.8 112.1 72.1C109.9 74.5 106.8 74.5 106.8 74.5Z" fill="url(#paint3_linear)"/>
<path d="M982.5 81.4C982.5 81.4 1014.8 81.4 1019 81.4C1023.2 81.4 1021.1 73.3 1014.8 73.3C1008.5 73.3 1005.6 75 1002.7 76.4C999.8 77.9 997.5 76.8 992.9 77.3C988.3 77.8 982.5 81.4 982.5 81.4Z" fill="url(#paint4_linear)"/>
<path d="M1114.3 34.9H1248.8C1248.8 34.9 1237.7 30.8 1230.9 24.7C1224 18.6 1218.2 10.6 1210 12C1201.7 13.4 1194.8 22.9 1191 23.4C1187.1 23.9 1184.7 18.4 1181.6 17C1178.6 15.6 1173.6 17 1169.5 21.1C1165.4 25.2 1162.1 28.5 1158.5 25.8C1154.9 23 1152.2 18.6 1143.9 20.8C1135.6 23 1133.9 26.2 1129.6 28.8C1122.6 32.9 1114.3 34.9 1114.3 34.9Z" fill="url(#paint5_linear)"/>
<path d="M1264.8 65.6H1302.5C1302.5 65.6 1299.2 64.3 1296.3 61C1293.4 57.7 1290.7 57 1288.2 59.2C1286.5 60.7 1283.9 62.7 1282.1 61C1280.3 59.3 1278.1 57.3 1275.7 58.1C1272.9 59 1271.8 61.6 1269.5 63.6C1267 65.6 1264.8 65.6 1264.8 65.6Z" fill="url(#paint6_linear)"/>
<path d="M434.4 104.6H543.6V257.3H366.7V172.3C366.7 134.9 397 104.6 434.4 104.6Z" fill="white"/>
<path d="M543.7 156.7H393.2V177.8H543.7V156.7Z" fill="#F3FDFF"/>
<path d="M366.7 257.3V148.1C366.7 124.1 386.2 104.6 410.2 104.6H543.6" stroke="#6D737D" stroke-width="0.7" stroke-miterlimit="10" stroke-linecap="round" stroke-linejoin="round"/>
<path d="M393.2 257.3V156.7H543.6" stroke="#6D737D" stroke-width="0.7" stroke-miterlimit="10" stroke-linecap="round" stroke-linejoin="round"/>
<path d="M393.2 162H543.6" stroke="#6D737D" stroke-width="0.7" stroke-miterlimit="10" stroke-linecap="round" stroke-linejoin="round"/>
<path d="M393.2 167.2H543.6" stroke="#6D737D" stroke-width="0.7" stroke-miterlimit="10" stroke-linecap="round" stroke-linejoin="round"/>
<path d="M393.2 172.6H543.6" stroke="#6D737D" stroke-width="0.7" stroke-miterlimit="10" stroke-linecap="round" stroke-linejoin="round"/>
<path d="M393.2 177.8H543.6" stroke="#6D737D" stroke-width="0.7" stroke-miterlimit="10" stroke-linecap="round" stroke-linejoin="round"/>
<path d="M393.2 146.2H543.6" stroke="#6D737D" stroke-width="0.7" stroke-miterlimit="10" stroke-linecap="round" stroke-linejoin="round"/>
<path d="M142.1 100H75.8V166.3H142.1V100Z" fill="url(#paint7_linear)"/>
<path d="M98.6 123.6C98.6 123.6 96.9 121.3 96.9 118.2C96.9 113.8 100.3 111 106.8 111" stroke="#6D737D" stroke-width="0.7" stroke-miterlimit="10" stroke-linecap="round" stroke-linejoin="round"/>
<path d="M115 123.6C115 123.6 116.7 121.3 116.7 118.2C116.7 113.8 113.3 111 106.8 111V101.4" stroke="#6D737D" stroke-width="0.7" stroke-miterlimit="10" stroke-linecap="round" stroke-linejoin="round"/>
<path d="M106.8 112.3C107.518 112.3 108.1 111.718 108.1 111C108.1 110.282 107.518 109.7 106.8 109.7C106.082 109.7 105.5 110.282 105.5 111C105.5 111.718 106.082 112.3 106.8 112.3Z" fill="#6D737D"/>
<path d="M236.9 166.4H75.8V174.4H236.9V166.4Z" fill="white"/>
<path d="M89.6 132.2V116H75.8V132.4L89.6 132.2Z" fill="#AFB5BF"/>
<path d="M142.4 102.2V132.4" stroke="#6D737D" stroke-width="0.7" stroke-miterlimit="10" stroke-linecap="round" stroke-linejoin="round"/>
<path d="M75.8 132.3V102.3H239.5V93.2H38.2C35.3 93.2 32.9 95.6 32.9 98.5V257.3H239.5V132.3H75.8Z" fill="url(#paint8_linear)"/>
<path d="M189.3 197H145.5V257.3H189.3V197Z" fill="url(#paint9_linear)"/>
<path d="M145.5 197H56.1V257.3H145.5V197Z" fill="url(#paint10_linear)"/>
<path d="M354.5 257.3H286V64.9H346.8C351.1 64.9 354.6 68.4 354.6 72.7V257.3H354.5Z" fill="#E7EEF2"/>
<path d="M286 257.3H236.9V73.3C236.9 68.7 240.6 65 245.2 65H286V257.3Z" fill="url(#paint11_linear)"/>
<path d="M336.4 32.8L296 5.70001L255.5 32.8V64.9H336.4V32.8Z" fill="url(#paint12_linear)"/>
<path d="M302.5 37.2H289V50.7H302.5V37.2Z" fill="white"/>
<path d="M114.7 116.6H98.9V132.4H114.7V116.6Z" fill="url(#paint13_linear)"/>
<path d="M149.1 116.6H133.3V132.4H149.1V116.6Z" fill="url(#paint14_linear)"/>
<path d="M183.4 116.6H167.6V132.4H183.4V116.6Z" fill="url(#paint15_linear)"/>
<path d="M217.8 116.6H202V132.4H217.8V116.6Z" fill="url(#paint16_linear)"/>
<path d="M76.4 116H89.6V132.4" stroke="#6D737D" stroke-width="0.7" stroke-miterlimit="10" stroke-linecap="round" stroke-linejoin="round"/>
<path d="M236.9 132.4H76.4" stroke="#6D737D" stroke-width="0.7" stroke-miterlimit="10" stroke-linecap="round" stroke-linejoin="round"/>
<path d="M75.8 132.4V102.2H156.3" stroke="#6D737D" stroke-width="0.7" stroke-miterlimit="10" stroke-linecap="round" stroke-linejoin="round"/>
<path d="M56.1 197H145.5" stroke="#6D737D" stroke-width="0.7" stroke-miterlimit="10" stroke-linecap="round" stroke-linejoin="round"/>
<path d="M145.5 197H189.3V211.8" stroke="#6D737D" stroke-width="0.7" stroke-miterlimit="10" stroke-linecap="round" stroke-linejoin="round"/>
<path d="M67 202.6V257.3" stroke="#6D737D" stroke-width="0.7" stroke-miterlimit="10" stroke-linecap="round" stroke-linejoin="round"/>
<path d="M76.7 202.6V257.3" stroke="#6D737D" stroke-width="0.7" stroke-miterlimit="10" stroke-linecap="round" stroke-linejoin="round"/>
<path d="M86.3 202.6V257.3" stroke="#6D737D" stroke-width="0.7" stroke-miterlimit="10" stroke-linecap="round" stroke-linejoin="round"/>
<path d="M95.9 202.6V257.3" stroke="#6D737D" stroke-width="0.7" stroke-miterlimit="10" stroke-linecap="round" stroke-linejoin="round"/>
<path d="M105.5 202.6V257.3" stroke="#6D737D" stroke-width="0.7" stroke-miterlimit="10" stroke-linecap="round" stroke-linejoin="round"/>
<path d="M124.8 202.6V257.3" stroke="#6D737D" stroke-width="0.7" stroke-miterlimit="10" stroke-linecap="round" stroke-linejoin="round"/>
<path d="M115.2 202.6V257.3" stroke="#6D737D" stroke-width="0.7" stroke-miterlimit="10" stroke-linecap="round" stroke-linejoin="round"/>
<path d="M134.4 202.6V257.3" stroke="#6D737D" stroke-width="0.7" stroke-miterlimit="10" stroke-linecap="round" stroke-linejoin="round"/>
<path d="M701.3 257.3C701.8 256.7 706.5 251.8 709 248.7C711.5 245.6 715 241.9 718.7 243C722.4 244.1 724.4 248.3 727.9 250C731.4 251.7 733.6 248.3 735.7 246.3C737.9 244.3 741.2 244.5 742.8 247.1C744.4 249.7 746 254 749.9 252C753.7 250 755.6 252 757.7 254.2C759.9 256.4 762.5 257.3 762.5 257.3H701.3Z" fill="url(#paint17_linear)"/>
<path d="M0.599976 257.3H1494.6" stroke="#6D737D" stroke-width="1.2" stroke-miterlimit="10" stroke-linecap="round" stroke-linejoin="round"/>
<path d="M271.6 287.5C270.6 285.1 275.9 284.9 280 286C284.1 287.1 283.2 288.4 280 288.6C276.8 288.8 272.3 289.4 271.6 287.5Z" fill="#E7EEF2"/>
<path d="M332 316.5C332.8 315.2 340.9 313.3 344.8 314.5C348.8 315.6 352.7 315.8 356.2 314.1C359.7 312.4 365.5 313.4 365.8 315.3C366.2 317.2 363.4 317.6 357.4 317.8C351.5 318 338.6 318 335.6 318.1C332.7 318.1 331.2 317.8 332 316.5Z" fill="#E7EEF2"/>
<path d="M496.5 287.1C495.6 288.5 499.3 288.7 503.2 288.9C507.1 289.1 511.4 289.3 511.3 287.1C511.2 284.9 506.7 285.9 502.2 285.8C497.7 285.7 497.3 285.8 496.5 287.1Z" fill="#E7EEF2"/>
<path d="M148.8 303.4C148.1 305.1 151.7 305 155.2 304.7C158.7 304.4 165.6 304.1 170.2 304.9C174.8 305.7 177.1 306.7 179 304.9C180.9 303.1 178.5 302.8 176.5 302.5C174.5 302.3 171.3 301.4 166.5 301.5C161.8 301.6 159.5 301.2 156.1 301.5C153.3 301.8 149.5 301.6 148.8 303.4Z" fill="#E7EEF2"/>
<path d="M934.1 277.7C938.7 277.1 942.4 276.6 948.9 277.7C955.4 278.8 961.2 278.6 961.2 280.7C961.2 282.8 952.9 280.4 945.8 280.9C938.6 281.3 930.4 284.7 928.5 281.6C926.7 278.5 929.6 278.3 934.1 277.7Z" fill="#E7EEF2"/>
<path d="M930.7 326.2C933 325.2 937.8 324.5 942.4 326.2C947 327.9 943.8 329 939.7 329C935.6 329 931.4 329 929.9 329C928.4 329 928.4 327.2 930.7 326.2Z" fill="#E7EEF2"/>
<path d="M842.3 348.1C842 349.8 845.6 349.8 851.9 349.4C858.2 349 860.5 348.6 858.6 346.7C856.7 344.8 852.7 347.1 849.6 346.7C846.5 346.2 842.8 346 842.3 348.1Z" fill="#E7EEF2"/>
<path d="M1174 269.8C1172.3 270.8 1175 272.2 1178.4 272.5C1181.7 272.8 1183 272.5 1183 271.2C1183 269.8 1177.5 267.7 1174 269.8Z" fill="#E7EEF2"/>
<path d="M1208.5 268.9C1207.9 270.2 1210.6 270 1211.7 269.8C1212.7 269.6 1214.5 268.4 1212 268C1209.7 267.7 1208.9 268.1 1208.5 268.9Z" fill="#E7EEF2"/>
<path d="M1237.6 284.3C1237.6 286 1241.5 285.7 1244.5 285.1C1247.5 284.5 1254.1 284.9 1259.4 284.9C1264.7 284.8 1268.9 285.7 1269.4 283.9C1269.9 282.1 1266.4 280.4 1262.5 280.4C1258.6 280.3 1257.6 281.3 1255.9 281.6C1254.2 281.8 1249.7 280.9 1246.8 281.1C1243.9 281.3 1242.7 281.4 1240.8 282.2C1239 282.9 1237.6 282.9 1237.6 284.3Z" fill="#E7EEF2"/>
<path d="M1417.9 299.4C1419 298.6 1421.8 298.2 1424.1 299.4C1426.4 300.6 1424.4 301.3 1421 301.3C1417.6 301.3 1415.3 301.3 1417.9 299.4Z" fill="#E7EEF2"/>
<path d="M1463.2 319C1467.7 318.8 1472.8 319.4 1473.1 320.4C1473.4 321.4 1470 320.7 1466.6 321.3C1463.2 321.9 1458.5 322.5 1458.4 321.3C1458.3 320.1 1460.6 319.1 1463.2 319Z" fill="#E7EEF2"/>
<path d="M1230.1 109.5H1215.4V86.9H1227.9C1229.1 86.9 1230.1 87.9 1230.1 89.1V109.5Z" fill="url(#paint18_linear)"/>
<path d="M1245.9 130.1H1231.2V109.5H1243.7C1244.9 109.5 1245.9 110.5 1245.9 111.6V130.1Z" fill="url(#paint19_linear)"/>
<path d="M1233.1 130.1V110.8C1233.1 110 1232.5 109.4 1231.7 109.4H1217.3V88.3C1217.3 87.5 1216.7 86.9 1215.9 86.9H1205.9C1205.1 86.9 1204.5 87.5 1204.5 88.3V130.1H1233.1Z" fill="url(#paint20_linear)"/>
<path d="M1233.1 130.1V110.8C1233.1 110 1232.5 109.4 1231.7 109.4H1217.3V105.2" stroke="#6D737D" stroke-width="0.7" stroke-miterlimit="10" stroke-linecap="round" stroke-linejoin="round"/>
<path d="M1255.4 139L1246.9 130.5C1246.6 130.2 1246.3 130.1 1245.9 130.1H1233.1L1242 139H1255.4Z" fill="url(#paint21_linear)"/>
<path d="M1437.6 130.4L1432.4 135.6C1430.2 137.8 1427.2 139.1 1424 139.1H1244C1243.6 139.1 1243.3 139 1243 138.7L1234.9 130.6C1234.6 130.3 1234.3 130.2 1233.9 130.2H1181C1180.2 130.2 1179.6 130.8 1179.6 131.6V137.7C1179.6 138.2 1179.9 138.6 1180.3 138.9L1215.5 159.5H1241.7C1242.3 159.5 1242.8 159.7 1243.2 160.1L1248.2 164.3C1248.6 164.7 1249.2 164.9 1249.7 164.9H1424.4C1436 164.9 1443.9 161.3 1456.7 150.1C1465.9 142.1 1469.7 135.3 1471.1 132.1C1471.5 131.2 1470.8 130.2 1469.8 130.2H1438.3C1438.2 130 1437.8 130.1 1437.6 130.4Z" fill="url(#paint22_linear)"/>
<path d="M1185 159.3C1187.9 159.3 1188.1 157.1 1190.4 157.1C1192.7 157.1 1192.9 159.3 1195.8 159.3C1198.7 159.3 1198.9 157.1 1201.2 157.1C1203.4 157.1 1203.7 159.3 1206.6 159.3C1209.5 159.3 1209.7 157.1 1212 157.1C1214.2 157.1 1214.5 159.3 1217.4 159.3C1220.3 159.3 1220.5 157.1 1222.8 157.1C1225.1 157.1 1225.3 159.3 1228.2 159.3C1231.1 159.3 1231.3 157.1 1233.6 157.1C1235.8 157.1 1236.1 159.3 1239 159.3C1241.9 159.3 1242.1 157.1 1244.4 157.1C1246.6 157.1 1246.9 159.3 1249.8 159.3C1252.7 159.3 1252.9 157.1 1255.2 157.1C1257.5 157.1 1257.7 159.3 1260.6 159.3C1263.5 159.3 1263.7 157.1 1266 157.1C1268.2 157.1 1268.5 159.3 1271.4 159.3C1274.3 159.3 1274.5 157.1 1276.8 157.1C1279 157.1 1279.3 159.3 1282.2 159.3C1285.1 159.3 1285.3 157.1 1287.6 157.1C1289.9 157.1 1290.1 159.3 1293 159.3C1295.9 159.3 1296.1 157.1 1298.4 157.1C1300.6 157.1 1300.9 159.3 1303.8 159.3C1306.7 159.3 1306.9 157.1 1309.2 157.1C1311.4 157.1 1311.7 159.3 1314.6 159.3C1317.5 159.3 1317.7 157.1 1320 157.1C1322.3 157.1 1322.5 159.3 1325.4 159.3C1328.3 159.3 1328.5 157.1 1330.8 157.1C1333 157.1 1333.3 159.3 1336.2 159.3C1339.1 159.3 1339.3 157.1 1341.6 157.1C1343.8 157.1 1344.1 159.3 1347 159.3C1349.9 159.3 1350.1 157.1 1352.4 157.1C1354.7 157.1 1354.9 159.3 1357.8 159.3C1360.7 159.3 1360.9 157.1 1363.2 157.1C1365.4 157.1 1365.7 159.3 1368.6 159.3C1371.5 159.3 1371.7 157.1 1374 157.1C1376.2 157.1 1376.5 159.3 1379.4 159.3C1382.3 159.3 1382.5 157.1 1384.8 157.1C1387.1 157.1 1387.3 159.3 1390.2 159.3C1393.1 159.3 1393.3 157.1 1395.6 157.1C1397.8 157.1 1398.1 159.3 1401 159.3C1403.9 159.3 1404.1 157.1 1406.4 157.1C1408.6 157.1 1408.9 159.3 1411.8 159.3C1414.7 159.3 1414.9 157.1 1417.2 157.1C1419.5 157.1 1419.7 159.3 1422.6 159.3C1425.5 159.3 1425.7 157.1 1428 157.1C1430.2 157.1 1430.5 159.3 1433.4 159.3C1436.3 159.3 1436.5 157.1 1438.8 157.1C1441 157.1 1441.3 159.3 1444.2 159.3C1447.1 159.3 1447.3 157.1 1449.6 157.1C1451.9 157.1 1452.1 159.3 1455 159.3C1457.9 159.3 1458.1 157.1 1460.4 157.1C1462.6 157.1 1462.9 159.3 1465.8 159.3C1468.7 159.3 1468.9 157.1 1471.2 157.1C1473.4 157.1 1473.7 159.3 1476.6 159.3V181.7H1185V159.3Z" fill="white"/>
<path d="M1191.3 138.4H1227.1" stroke="#6D737D" stroke-width="0.7" stroke-miterlimit="10" stroke-linecap="round" stroke-linejoin="round"/>
<path d="M1403.1 111.3H1261.8V139H1403.1V111.3Z" fill="url(#paint23_linear)"/>
<path d="M1418.9 111.3H1403.1V139H1418.9V111.3Z" fill="url(#paint24_linear)"/>
<path d="M1263.5 125.2H1417.2" stroke="#6D737D" stroke-width="0.7" stroke-miterlimit="10" stroke-linecap="round" stroke-linejoin="round"/>
<path d="M1287.9 112.9V137.7" stroke="#6D737D" stroke-width="0.7" stroke-miterlimit="10" stroke-linecap="round" stroke-linejoin="round"/>
<path d="M1316.7 112.9V137.7" stroke="#6D737D" stroke-width="0.7" stroke-miterlimit="10" stroke-linecap="round" stroke-linejoin="round"/>
<path d="M1345.5 112.9V137.7" stroke="#6D737D" stroke-width="0.7" stroke-miterlimit="10" stroke-linecap="round" stroke-linejoin="round"/>
<path d="M1374.3 112.9V137.7" stroke="#6D737D" stroke-width="0.7" stroke-miterlimit="10" stroke-linecap="round" stroke-linejoin="round"/>
<path d="M1403.1 112.9V137.7" stroke="#6D737D" stroke-width="0.7" stroke-miterlimit="10" stroke-linecap="round" stroke-linejoin="round"/>
<path d="M1424 139H1244C1243.6 139 1243.3 138.9 1243 138.6L1234.9 130.5C1234.6 130.2 1234.3 130.1 1233.9 130.1H1181" stroke="#6D737D" stroke-width="0.7" stroke-miterlimit="10" stroke-linecap="round" stroke-linejoin="round"/>
<path d="M1231.2 130.1H1245.9" stroke="#6D737D" stroke-width="0.7" stroke-miterlimit="10" stroke-linecap="round" stroke-linejoin="round"/>
<path d="M1261.8 139V111.3H1274.8" stroke="#6D737D" stroke-width="0.7" stroke-miterlimit="10" stroke-linecap="round" stroke-linejoin="round"/>
<path d="M1474.2 159.3C1471.3 159.3 1471.1 157.1 1468.8 157.1C1466.6 157.1 1466.3 159.3 1463.4 159.3C1460.5 159.3 1460.3 157.1 1458 157.1C1455.8 157.1 1455.5 159.3 1452.6 159.3C1449.7 159.3 1449.5 157.1 1447.2 157.1C1444.9 157.1 1444.7 159.3 1441.8 159.3C1438.9 159.3 1438.7 157.1 1436.4 157.1C1434.2 157.1 1433.9 159.3 1431 159.3C1428.1 159.3 1427.9 157.1 1425.6 157.1C1423.4 157.1 1423.1 159.3 1420.2 159.3C1417.3 159.3 1417.1 157.1 1414.8 157.1C1412.5 157.1 1412.3 159.3 1409.4 159.3C1406.5 159.3 1406.3 157.1 1404 157.1C1401.8 157.1 1401.5 159.3 1398.6 159.3C1395.7 159.3 1395.5 157.1 1393.2 157.1C1391 157.1 1390.7 159.3 1387.8 159.3C1384.9 159.3 1384.7 157.1 1382.4 157.1C1380.1 157.1 1379.9 159.3 1377 159.3C1374.1 159.3 1373.9 157.1 1371.6 157.1C1369.4 157.1 1369.1 159.3 1366.2 159.3C1363.3 159.3 1363.1 157.1 1360.8 157.1C1358.6 157.1 1358.3 159.3 1355.4 159.3C1352.5 159.3 1352.3 157.1 1350 157.1C1347.7 157.1 1347.5 159.3 1344.6 159.3C1341.7 159.3 1341.5 157.1 1339.2 157.1C1337 157.1 1336.7 159.3 1333.8 159.3C1330.9 159.3 1330.7 157.1 1328.4 157.1C1326.2 157.1 1325.9 159.3 1323 159.3C1320.1 159.3 1319.9 157.1 1317.6 157.1C1315.3 157.1 1315.1 159.3 1312.2 159.3C1309.3 159.3 1309.1 157.1 1306.8 157.1C1304.6 157.1 1304.3 159.3 1301.4 159.3C1298.5 159.3 1298.3 157.1 1296 157.1C1293.8 157.1 1293.5 159.3 1290.6 159.3C1287.7 159.3 1287.5 157.1 1285.2 157.1C1282.9 157.1 1282.7 159.3 1279.8 159.3C1276.9 159.3 1276.7 157.1 1274.4 157.1C1272.2 157.1 1271.9 159.3 1269 159.3C1266.1 159.3 1265.9 157.1 1263.6 157.1C1261.4 157.1 1261.1 159.3 1258.2 159.3C1255.3 159.3 1255.1 157.1 1252.8 157.1C1250.5 157.1 1250.3 159.3 1247.4 159.3C1244.5 159.3 1244.3 157.1 1242 157.1C1239.8 157.1 1239.5 159.3 1236.6 159.3C1233.7 159.3 1233.5 157.1 1231.2 157.1C1229 157.1 1228.7 159.3 1225.8 159.3C1222.9 159.3 1222.7 157.1 1220.4 157.1C1218.1 157.1 1217.9 159.3 1215 159.3C1212.1 159.3 1211.9 157.1 1209.6 157.1C1207.4 157.1 1207.1 159.3 1204.2 159.3C1201.3 159.3 1201.1 157.1 1198.8 157.1C1196.6 157.1 1196.3 159.3 1193.4 159.3C1190.5 159.3 1190.3 157.1 1188 157.1C1185.7 157.1 1185.5 159.3 1182.6 159.3" stroke="#6D737D" stroke-width="0.7" stroke-miterlimit="10" stroke-linecap="round" stroke-linejoin="round"/>
<path d="M1442.1 167.6C1439.2 167.6 1439 165.4 1436.7 165.4C1434.5 165.4 1434.2 167.6 1431.3 167.6C1428.4 167.6 1428.2 165.4 1425.9 165.4C1423.7 165.4 1423.4 167.6 1420.5 167.6" stroke="#6D737D" stroke-width="0.7" stroke-miterlimit="10" stroke-linecap="round" stroke-linejoin="round"/>
<path d="M1380.6 168.7C1377.7 168.7 1377.5 166.5 1375.2 166.5C1373 166.5 1372.7 168.7 1369.8 168.7C1366.9 168.7 1366.7 166.5 1364.4 166.5C1362.1 166.5 1361.9 168.7 1359 168.7" stroke="#6D737D" stroke-width="0.7" stroke-miterlimit="10" stroke-linecap="round" stroke-linejoin="round"/>
<path d="M1341.4 168.7C1338.5 168.7 1338.3 166.5 1336 166.5C1333.8 166.5 1333.5 168.7 1330.6 168.7C1327.7 168.7 1327.5 166.5 1325.2 166.5C1322.9 166.5 1322.7 168.7 1319.8 168.7" stroke="#6D737D" stroke-width="0.7" stroke-miterlimit="10" stroke-linecap="round" stroke-linejoin="round"/>
<path d="M1279.1 168.7C1276.2 168.7 1276 166.5 1273.7 166.5C1271.5 166.5 1271.2 168.7 1268.3 168.7C1265.4 168.7 1265.2 166.5 1262.9 166.5C1260.7 166.5 1260.4 168.7 1257.5 168.7" stroke="#6D737D" stroke-width="0.7" stroke-miterlimit="10" stroke-linecap="round" stroke-linejoin="round"/>
<path d="M1136 256.6C1141.14 256.6 1145.3 252.436 1145.3 247.3C1145.3 242.164 1141.14 238 1136 238C1130.86 238 1126.7 242.164 1126.7 247.3C1126.7 252.436 1130.86 256.6 1136 256.6Z" fill="url(#paint25_linear)"/>
<path d="M1132.2 249.6C1131 247.5 1131.7 244.7 1133.8 243.5C1135.9 242.3 1138.7 243 1139.9 245.1C1141.1 247.2 1140.4 250 1138.3 251.2C1137.8 251.5 1137.2 251.7 1136.6 251.8" stroke="#6D737D" stroke-width="0.7" stroke-miterlimit="10" stroke-linecap="round" stroke-linejoin="round"/>
<path d="M1126.7 247.3C1126.7 242.1 1130.9 238 1136 238C1141.1 238 1145.3 242.2 1145.3 247.3" stroke="#6D737D" stroke-width="0.7" stroke-miterlimit="10" stroke-linecap="round" stroke-linejoin="round"/>
<path d="M1097.9 208.3L1134.7 249.5C1135.6 250.5 1137 250.5 1138 249.7C1138.9 248.9 1139.1 247.5 1138.3 246.5L1108.3 208.3H1097.9Z" fill="url(#paint26_linear)"/>
<path d="M1179 194.5L1110.6 127.4C1099.6 116.6 1084.6 111 1069.3 111.8H757L748.3 99L738.8 85L728.4 69.8H702.7L709.5 85H662.4C660.9 85 659.6 86 659.4 87.5C659.1 89.2 660.3 90.7 661.9 90.9L715.7 98.8L756.5 189.3C762.8 202.9 776.4 211.7 791.4 211.7H848.5L836.5 217.1C834.7 217.9 833.3 219.7 833.2 221.7C833 224.9 835.5 227.5 838.6 227.5H919.2C920.2 227.5 921.2 227.4 922.2 227.1L974.1 211.6H1172.2C1181 211.5 1185.4 200.7 1179 194.5Z" fill="url(#paint27_linear)"/>
<path d="M757 111.7L728.3 69.7H716.8L741.1 111.3L757 111.7Z" fill="url(#paint28_linear)"/>
<path d="M1017.1 171.6C1019.7 171.6 1021.8 169.496 1021.8 166.9C1021.8 164.304 1019.7 162.2 1017.1 162.2C1014.5 162.2 1012.4 164.304 1012.4 166.9C1012.4 169.496 1014.5 171.6 1017.1 171.6Z" fill="url(#paint29_linear)"/>
<path d="M995.1 171.6C997.696 171.6 999.8 169.496 999.8 166.9C999.8 164.304 997.696 162.2 995.1 162.2C992.504 162.2 990.4 164.304 990.4 166.9C990.4 169.496 992.504 171.6 995.1 171.6Z" fill="url(#paint30_linear)"/>
<path d="M972.9 171.6C975.496 171.6 977.6 169.496 977.6 166.9C977.6 164.304 975.496 162.2 972.9 162.2C970.304 162.2 968.2 164.304 968.2 166.9C968.2 169.496 970.304 171.6 972.9 171.6Z" fill="url(#paint31_linear)"/>
<path d="M915.9 181.2L836.4 216.9C834.6 217.7 833.2 219.5 833.1 221.5C832.9 224.7 835.4 227.3 838.5 227.3H919.1C920.1 227.3 921.1 227.2 922.1 226.9L1014.6 199.5C1019.4 198.1 1022.2 193.2 1021 188.3C1020 184.1 1016.2 181.1 1011.9 181.1H915.9V181.2Z" fill="url(#paint32_linear)"/>
<path d="M916 181.2L836.4 216.9C834.6 217.7 833.2 219.5 833.1 221.5C832.9 224.7 835.4 227.3 838.5 227.3H916V181.2Z" fill="url(#paint33_linear)"/>
<path d="M780.3 84.9H738.7L748.2 98.9L781 91C782.3 90.7 783.3 89.5 783.3 88.1V87.9C783.2 86.2 781.9 84.9 780.3 84.9Z" fill="url(#paint34_linear)"/>
<path d="M720.6 84.9H662.3C660.8 84.9 659.5 85.9 659.3 87.4C659 89.1 660.2 90.6 661.8 90.8L729.4 100.7L720.6 84.9Z" fill="url(#paint35_linear)"/>
<path d="M819.9 159.3H818.3C811.9 159.3 806.7 164.5 806.7 170.9V196.6H831.5V170.9C831.5 164.5 826.3 159.3 819.9 159.3Z" fill="url(#paint36_linear)"/>
<path d="M1058.5 159.3H1056.9C1050.5 159.3 1045.3 164.5 1045.3 170.9V196.6H1070.1V170.9C1070.1 164.5 1064.9 159.3 1058.5 159.3Z" fill="url(#paint37_linear)"/>
<path d="M1132.4 148.6C1123.6 148.6 1104.3 147 1093.3 143.6C1082.3 140.2 1078.6 146.6 1080 152.2C1082.3 161.5 1107.6 172.5 1133.5 174.9C1145.3 176 1154.1 176.1 1160.1 175.8L1132.4 148.6Z" fill="url(#paint38_linear)"/>
<path d="M1132.4 148.6C1131 148.6 1129.4 148.6 1127.6 148.5L1129.6 174.5C1130.9 174.7 1132.2 174.8 1133.5 174.9C1145.3 176 1154.1 176.1 1160.1 175.8L1132.4 148.6Z" fill="url(#paint39_linear)"/>
<path d="M1098.7 166.5L1102.9 145.9C1099.4 145.3 1096 144.5 1093.3 143.7C1082.3 140.3 1078.6 146.7 1080 152.3C1081.2 157 1088.4 162.2 1098.7 166.5Z" fill="url(#paint40_linear)"/>
<path d="M1133.4 174.9L1127.5 148.5C1120.6 148.2 1111.2 147.3 1102.9 145.9L1098.7 166.5" stroke="#6D737D" stroke-width="0.7" stroke-miterlimit="10" stroke-linecap="round" stroke-linejoin="round"/>
<path d="M1132.4 148.6C1123.6 148.6 1104.3 147 1093.3 143.6C1082.3 140.2 1078.6 146.6 1080 152.2" stroke="#6D737D" stroke-width="0.7" stroke-miterlimit="10" stroke-linecap="round" stroke-linejoin="round"/>
<path d="M1070.1 211.5H1172C1180.9 211.5 1185.3 200.7 1179 194.5L1110.6 127.4" stroke="#6D737D" stroke-width="1.2" stroke-miterlimit="10" stroke-linecap="round" stroke-linejoin="round"/>
<path d="M1058.5 159.3H1056.9C1050.5 159.3 1045.3 164.5 1045.3 170.9V196.6H1070.1V170.9C1070.1 164.5 1064.9 159.3 1058.5 159.3Z" stroke="#6D737D" stroke-width="1.2" stroke-miterlimit="10" stroke-linecap="round" stroke-linejoin="round"/>
<path d="M819.9 159.3H818.3C811.9 159.3 806.7 164.5 806.7 170.9V196.6H831.5V170.9C831.5 164.5 826.3 159.3 819.9 159.3Z" stroke="#6D737D" stroke-width="1.2" stroke-miterlimit="10" stroke-linecap="round" stroke-linejoin="round"/>
<path d="M762 171L714.4 166.4C707.1 165.7 701.5 159.6 701.5 152.2C701.5 144.9 707 138.8 714.2 138C714.2 138 753.6 133.6 761.9 132.8C770.2 132 774.1 135.8 774.6 144.2C775 150.8 774.8 156.7 773.8 161.6C772.5 167.9 770.6 172.3 762 171Z" fill="url(#paint41_linear)"/>
<path d="M771.4 135.4C771.3 135.3 771.2 135.2 771.2 135.2C771.3 135.3 771.3 135.4 771.4 135.4Z" fill="url(#paint42_linear)"/>
<path d="M775.1 153.3C774.1 167.2 771 170.4 767 170.2C763 170 760.1 162.9 760.5 152.6C760.9 142.3 764.5 133.9 768.5 134.1C772.5 134.3 775.8 143.1 775.1 153.3Z" fill="url(#paint43_radial)"/>
<path d="M701.5 152.2C701.5 144.9 707 138.8 714.2 138C714.2 138 753.6 133.4 761.9 132.8C762.9 132.7 769.1 132.3 771.2 134.8C771.2 134.8 776 138.5 775.3 152.5C774.6 166.4 769.8 169.7 769.8 169.7" stroke="#6D737D" stroke-width="1.2" stroke-miterlimit="10" stroke-linecap="round" stroke-linejoin="round"/>
<path d="M1045.3 196.6L1008.2 268" stroke="#6D737D" stroke-width="1.2" stroke-miterlimit="10" stroke-linecap="round" stroke-linejoin="round"/>
<path d="M1070.1 196.6L1033 268" stroke="#6D737D" stroke-width="1.2" stroke-miterlimit="10" stroke-linecap="round" stroke-linejoin="round"/>
<path d="M1040.4 206H1065.2" stroke="#6D737D" stroke-width="1.2" stroke-miterlimit="10" stroke-linecap="round" stroke-linejoin="round"/>
<path d="M1035.5 215.5H1060.3" stroke="#6D737D" stroke-width="1.2" stroke-miterlimit="10" stroke-linecap="round" stroke-linejoin="round"/>
<path d="M1030.6 224.9H1055.4" stroke="#6D737D" stroke-width="1.2" stroke-miterlimit="10" stroke-linecap="round" stroke-linejoin="round"/>
<path d="M1025.7 234.4H1050.5" stroke="#6D737D" stroke-width="1.2" stroke-miterlimit="10" stroke-linecap="round" stroke-linejoin="round"/>
<path d="M1020.7 243.8H1045.5" stroke="#6D737D" stroke-width="1.2" stroke-miterlimit="10" stroke-linecap="round" stroke-linejoin="round"/>
<path d="M1015.8 253.2H1040.6" stroke="#6D737D" stroke-width="1.2" stroke-miterlimit="10" stroke-linecap="round" stroke-linejoin="round"/>
<path d="M1010.8 262.7H1035.7" stroke="#6D737D" stroke-width="1.2" stroke-miterlimit="10" stroke-linecap="round" stroke-linejoin="round"/>
<path d="M806.6 196.6L769.5 268" stroke="#6D737D" stroke-width="1.2" stroke-miterlimit="10" stroke-linecap="round" stroke-linejoin="round"/>
<path d="M831.5 196.6L794.4 268" stroke="#6D737D" stroke-width="1.2" stroke-miterlimit="10" stroke-linecap="round" stroke-linejoin="round"/>
<path d="M801.7 206H826.6" stroke="#6D737D" stroke-width="1.2" stroke-miterlimit="10" stroke-linecap="round" stroke-linejoin="round"/>
<path d="M796.8 215.5H821.7" stroke="#6D737D" stroke-width="1.2" stroke-miterlimit="10" stroke-linecap="round" stroke-linejoin="round"/>
<path d="M791.9 224.9H816.8" stroke="#6D737D" stroke-width="1.2" stroke-miterlimit="10" stroke-linecap="round" stroke-linejoin="round"/>
<path d="M787 234.4H811.9" stroke="#6D737D" stroke-width="1.2" stroke-miterlimit="10" stroke-linecap="round" stroke-linejoin="round"/>
<path d="M782.1 243.8H806.9" stroke="#6D737D" stroke-width="1.2" stroke-miterlimit="10" stroke-linecap="round" stroke-linejoin="round"/>
<path d="M777.2 253.2H802" stroke="#6D737D" stroke-width="1.2" stroke-miterlimit="10" stroke-linecap="round" stroke-linejoin="round"/>
<path d="M772.2 262.7H797.1" stroke="#6D737D" stroke-width="1.2" stroke-miterlimit="10" stroke-linecap="round" stroke-linejoin="round"/>
<path d="M842.3 219.4H919.6L997.2 191.7" stroke="#6D737D" stroke-width="0.7" stroke-miterlimit="10" stroke-linecap="round" stroke-linejoin="round"/>
<path d="M936.6 181.2H1012.1C1016.9 181.2 1020.7 185.1 1020.7 189.8V191.2C1020.7 195 1018.2 198.4 1014.5 199.5L920.6 227.4" stroke="#6D737D" stroke-width="1.2" stroke-miterlimit="10" stroke-linecap="round" stroke-linejoin="round"/>
<path d="M950.9 171.6C953.496 171.6 955.6 169.496 955.6 166.9C955.6 164.304 953.496 162.2 950.9 162.2C948.304 162.2 946.2 164.304 946.2 166.9C946.2 169.496 948.304 171.6 950.9 171.6Z" fill="url(#paint44_linear)"/>
<path d="M1015.3 171.3C1013.9 170.7 1012.8 169.5 1012.5 168C1011.9 165.4 1013.5 162.9 1016 162.3C1018.5 161.7 1021.1 163.3 1021.7 165.8" stroke="#6D737D" stroke-width="0.7" stroke-miterlimit="10" stroke-linecap="round" stroke-linejoin="round"/>
<path d="M993.3 171.3C991.9 170.7 990.8 169.5 990.5 168C989.9 165.4 991.5 162.9 994 162.3C996.5 161.7 999.1 163.3 999.7 165.8" stroke="#6D737D" stroke-width="0.7" stroke-miterlimit="10" stroke-linecap="round" stroke-linejoin="round"/>
<path d="M971.2 171.3C969.8 170.7 968.7 169.5 968.4 168C967.8 165.4 969.4 162.9 971.9 162.3C974.5 161.7 977 163.3 977.6 165.8" stroke="#6D737D" stroke-width="0.7" stroke-miterlimit="10" stroke-linecap="round" stroke-linejoin="round"/>
<path d="M949.1 171.3C947.7 170.7 946.6 169.5 946.3 168C945.7 165.4 947.3 162.9 949.8 162.3C952.4 161.7 954.9 163.3 955.5 165.8" stroke="#6D737D" stroke-width="0.7" stroke-miterlimit="10" stroke-linecap="round" stroke-linejoin="round"/>
<path d="M767.5 147.4C767.5 147.4 769.9 147.6 770.7 149.8C771.5 152 771 156 767.5 157.1" stroke="#6D737D" stroke-width="1.2" stroke-miterlimit="10" stroke-linecap="round" stroke-linejoin="round"/>
<path d="M662.3 84.9H720.6L729.4 100.7" stroke="#6D737D" stroke-width="1.2" stroke-miterlimit="10" stroke-linecap="round" stroke-linejoin="round"/>
<path d="M728.3 69.7L756.9 111.5" stroke="#6D737D" stroke-width="1.2" stroke-miterlimit="10" stroke-linecap="round" stroke-linejoin="round"/>
<path d="M1154.2 210C1154.2 210 1155.1 200 1160.1 194.8C1165.2 189.6 1170.9 188.5 1170.9 188.5" stroke="#6D737D" stroke-width="0.7" stroke-miterlimit="10" stroke-linecap="round" stroke-linejoin="round"/>
<path d="M1079.7 161.2C1079.7 161.2 1090.6 172 1118 177.9C1145.4 183.8 1164 181 1164 181" stroke="#6D737D" stroke-width="0.7" stroke-miterlimit="10" stroke-linecap="round" stroke-linejoin="round"/>
<path d="M793.3 148.5H1070.1" stroke="#6D737D" stroke-width="0.7" stroke-miterlimit="10" stroke-linecap="round" stroke-linejoin="round"/>
<path d="M755.1 133.5C755.1 133.5 744.4 148 752.5 167.3" stroke="#6D737D" stroke-width="0.7" stroke-miterlimit="10" stroke-linecap="round" stroke-linejoin="round"/>
<path d="M738 111.7H767.1" stroke="#6D737D" stroke-width="0.7" stroke-miterlimit="10" stroke-linecap="round" stroke-linejoin="round"/>
<path d="M938.7 302.5C938.7 300.2 936.8 298.3 934.5 298.3H548.5C545.7 298.3 542.9 298.7 540.2 299.4L440.9 326.2C439.1 326.7 437.8 328.3 437.8 330.2C437.8 332.5 439.7 334.4 442 334.4H830.8C833.7 334.4 836.5 334 839.3 333.2L935.7 306.5C937.5 306 938.7 304.4 938.7 302.5Z" fill="url(#paint45_linear)"/>
<path d="M925.9 26.7H556.9C549.8 26.7 544 32.5 544 39.6V287.7C544 293.6 548.8 298.4 554.7 298.4H928C933.9 298.4 938.7 293.6 938.7 287.7V39.6C938.7 32.5 932.9 26.7 925.9 26.7ZM931.8 290.1H551.3V43.3H931.8V290.1Z" fill="white"/>
<path d="M931.8 69.7H856.3V290.1H931.8V69.7Z" fill="url(#paint46_linear)"/>
<path d="M931.8 43.3H551.3V69.7H931.8V43.3Z" fill="url(#paint47_linear)"/>
<path d="M925.9 26.7H556.9C549.8 26.7 544 32.5 544 39.6V287.7C544 293.6 548.8 298.4 554.7 298.4H928C933.9 298.4 938.7 293.6 938.7 287.7V39.6C938.7 32.5 932.9 26.7 925.9 26.7ZM931.8 290.1H551.3V43.3H931.8V290.1Z" stroke="#6D737D" stroke-width="1.2" stroke-miterlimit="10" stroke-linecap="round" stroke-linejoin="round"/>
<path d="M931.8 43.3H551.3V290.2H931.8V43.3Z" stroke="#6D737D" stroke-width="1.2" stroke-miterlimit="10" stroke-linecap="round" stroke-linejoin="round"/>
<path d="M551.3 69.7H931.8" stroke="#6D737D" stroke-width="0.7" stroke-miterlimit="10" stroke-linecap="round" stroke-linejoin="round"/>
<path d="M746.1 57.4C745.8 57.1 745.3 57.1 745 57.4L742.2 60.2C741.9 60.5 741.9 61 742.2 61.3L745 64C745.3 64.3 745.8 64.3 746.1 64L748.9 61.2C749.2 60.9 749.2 60.4 748.9 60.1L746.1 57.4Z" fill="#6D737D"/>
<path d="M745 55.6C745.3 55.9 745.8 55.9 746.1 55.6L748.9 52.8C749.2 52.5 749.2 52 748.9 51.7L746.1 48.9C745.8 48.6 745.3 48.6 745 48.9L742.8 51.1C742.6 51.2 742 51.7 741.2 51.7C740.3 51.7 739.6 51.1 739.6 51.1L737.5 49C737.2 48.7 736.7 48.7 736.4 49L733.6 51.8C733.3 52.1 733.3 52.6 733.6 52.9L735.8 55.1C735.9 55.2 736.4 55.8 736.4 56.6C736.4 57.4 736 57.9 735.8 58.1L733.6 60.3C733.3 60.6 733.3 61.1 733.6 61.4L736.4 64.2C736.7 64.5 737.2 64.5 737.5 64.2L740.3 61.4C740.6 61.1 740.6 60.6 740.3 60.3L738.1 58.1C738 57.9 737.5 57.3 737.5 56.5C737.5 55.7 738 55.1 738.1 55L739.6 53.5C739.6 53.5 740.2 52.9 741.2 52.9C742 52.9 742.5 53.3 742.7 53.5L745 55.6Z" fill="#6D737D"/>
<path d="M897.5 61.9L893.7 65.7L889.7 61.8" stroke="#6D737D" stroke-width="0.7" stroke-miterlimit="10" stroke-linecap="round" stroke-linejoin="round"/>
<path d="M559.4 51.6H575" stroke="#6D737D" stroke-width="1.2" stroke-miterlimit="10" stroke-linecap="round" stroke-linejoin="round"/>
<path d="M559.4 56.7H575" stroke="#6D737D" stroke-width="1.2" stroke-miterlimit="10" stroke-linecap="round" stroke-linejoin="round"/>
<path d="M559.4 61.8H575" stroke="#6D737D" stroke-width="1.2" stroke-miterlimit="10" stroke-linecap="round" stroke-linejoin="round"/>
<path d="M882.3 89H920.2" stroke="#6D737D" stroke-width="1.2" stroke-miterlimit="10" stroke-linecap="round" stroke-linejoin="round"/>
<path d="M872.1 93.1C874.364 93.1 876.2 91.2644 876.2 89C876.2 86.7356 874.364 84.9 872.1 84.9C869.836 84.9 868 86.7356 868 89C868 91.2644 869.836 93.1 872.1 93.1Z" fill="white"/>
<path d="M882.3 112.4H920.2" stroke="#6D737D" stroke-width="1.2" stroke-miterlimit="10" stroke-linecap="round" stroke-linejoin="round"/>
<path d="M872.1 116.5C874.364 116.5 876.2 114.664 876.2 112.4C876.2 110.136 874.364 108.3 872.1 108.3C869.836 108.3 868 110.136 868 112.4C868 114.664 869.836 116.5 872.1 116.5Z" fill="white"/>
<path d="M882.3 135.9H920.2" stroke="#6D737D" stroke-width="1.2" stroke-miterlimit="10" stroke-linecap="round" stroke-linejoin="round"/>
<path d="M872.1 140C874.364 140 876.2 138.164 876.2 135.9C876.2 133.636 874.364 131.8 872.1 131.8C869.836 131.8 868 133.636 868 135.9C868 138.164 869.836 140 872.1 140Z" fill="white"/>
<path d="M882.3 159.3H920.2" stroke="#6D737D" stroke-width="1.2" stroke-miterlimit="10" stroke-linecap="round" stroke-linejoin="round"/>
<path d="M872.1 163.4C874.364 163.4 876.2 161.564 876.2 159.3C876.2 157.036 874.364 155.2 872.1 155.2C869.836 155.2 868 157.036 868 159.3C868 161.564 869.836 163.4 872.1 163.4Z" fill="white"/>
<path d="M882.3 182.1H920.2" stroke="#6D737D" stroke-width="1.2" stroke-miterlimit="10" stroke-linecap="round" stroke-linejoin="round"/>
<path d="M872.1 186.2C874.364 186.2 876.2 184.364 876.2 182.1C876.2 179.836 874.364 178 872.1 178C869.836 178 868 179.836 868 182.1C868 184.364 869.836 186.2 872.1 186.2Z" fill="white"/>
<path d="M920.1 204.3H868.9V279.1H920.1V204.3Z" fill="white"/>
<path d="M666.6 268H579.7C574.7 268 570.6 263.9 570.6 258.9V120.8C570.6 115.8 574.7 111.7 579.7 111.7H666.6C671.6 111.7 675.7 115.8 675.7 120.8V258.9C675.7 263.9 671.7 268 666.6 268Z" fill="url(#paint48_linear)"/>
<path d="M600.9 124H583.7V138.7H600.9V124Z" fill="url(#paint49_linear)"/>
<path d="M609.6 126.4H662.6" stroke="#6D737D" stroke-width="0.7" stroke-miterlimit="10" stroke-linecap="round" stroke-linejoin="round"/>
<path d="M609.6 131.4H662.6" stroke="#6D737D" stroke-width="0.7" stroke-miterlimit="10" stroke-linecap="round" stroke-linejoin="round"/>
<path d="M609.6 136.3H642.9" stroke="#6D737D" stroke-width="0.7" stroke-miterlimit="10" stroke-linecap="round" stroke-linejoin="round"/>
<path d="M600.9 148.8H583.7V163.5H600.9V148.8Z" fill="url(#paint50_linear)"/>
<path d="M609.6 151.1H662.6" stroke="#6D737D" stroke-width="0.7" stroke-miterlimit="10" stroke-linecap="round" stroke-linejoin="round"/>
<path d="M609.6 156.2H662.6" stroke="#6D737D" stroke-width="0.7" stroke-miterlimit="10" stroke-linecap="round" stroke-linejoin="round"/>
<path d="M609.6 161.1H642.9" stroke="#6D737D" stroke-width="0.7" stroke-miterlimit="10" stroke-linecap="round" stroke-linejoin="round"/>
<path d="M600.9 173.6H583.7V188.3H600.9V173.6Z" fill="url(#paint51_linear)"/>
<path d="M609.6 176H662.6" stroke="#6D737D" stroke-width="0.7" stroke-miterlimit="10" stroke-linecap="round" stroke-linejoin="round"/>
<path d="M609.6 181.1H662.6" stroke="#6D737D" stroke-width="0.7" stroke-miterlimit="10" stroke-linecap="round" stroke-linejoin="round"/>
<path d="M609.6 185.9H642.9" stroke="#6D737D" stroke-width="0.7" stroke-miterlimit="10" stroke-linecap="round" stroke-linejoin="round"/>
<path d="M600.9 198.5H583.7V213.2H600.9V198.5Z" fill="white"/>
<path d="M609.6 200.8H662.6" stroke="#6D737D" stroke-width="0.7" stroke-miterlimit="10" stroke-linecap="round" stroke-linejoin="round"/>
<path d="M609.6 205.9H662.6" stroke="#6D737D" stroke-width="0.7" stroke-miterlimit="10" stroke-linecap="round" stroke-linejoin="round"/>
<path d="M609.6 210.8H642.9" stroke="#6D737D" stroke-width="0.7" stroke-miterlimit="10" stroke-linecap="round" stroke-linejoin="round"/>
<path d="M576.6 226.9H669.8" stroke="#6D737D" stroke-width="1.2" stroke-miterlimit="10" stroke-linecap="round" stroke-linejoin="round"/>
<path d="M662.7 247.3H633.1C631.1 247.3 629.5 245.7 629.5 243.7V239.7C629.5 237.7 631.1 236.1 633.1 236.1H662.7C664.7 236.1 666.3 237.7 666.3 239.7V243.7C666.4 245.7 664.7 247.3 662.7 247.3Z" fill="url(#paint52_linear)"/>
<path d="M938.7 302.5C938.7 300.2 936.8 298.3 934.5 298.3H548.5C545.7 298.3 542.9 298.7 540.2 299.4L440.9 326.2C439.1 326.7 437.8 328.3 437.8 330.2C437.8 332.5 439.7 334.4 442 334.4H830.8C833.7 334.4 836.5 334 839.3 333.2L935.7 306.5C937.5 306 938.7 304.4 938.7 302.5Z" stroke="#6D737D" stroke-width="1.2" stroke-miterlimit="10" stroke-linecap="round" stroke-linejoin="round"/>
<path d="M523.9 317.6H809.8" stroke="#6D737D" stroke-width="0.7" stroke-miterlimit="10" stroke-linecap="round" stroke-linejoin="round"/>
<path d="M934.5 298.3L845.4 322.8" stroke="#6D737D" stroke-width="1.2" stroke-miterlimit="10" stroke-linecap="round" stroke-linejoin="round"/>
<path d="M741.3 36.3C742.018 36.3 742.6 35.718 742.6 35C742.6 34.282 742.018 33.7 741.3 33.7C740.582 33.7 740 34.282 740 35C740 35.718 740.582 36.3 741.3 36.3Z" fill="#183C85"/>
<path d="M1047.5 333.6C1053.08 333.6 1057.6 329.078 1057.6 323.5C1057.6 317.922 1053.08 313.4 1047.5 313.4C1041.92 313.4 1037.4 317.922 1037.4 323.5C1037.4 329.078 1041.92 333.6 1047.5 333.6Z" fill="#AFB5BF"/>
<path d="M1145.4 333.6C1150.98 333.6 1155.5 329.078 1155.5 323.5C1155.5 317.922 1150.98 313.4 1145.4 313.4C1139.82 313.4 1135.3 317.922 1135.3 323.5C1135.3 329.078 1139.82 333.6 1145.4 333.6Z" fill="#AFB5BF"/>
<path d="M1183.7 320.3H1002.9V275.5C1002.9 274.6 1002.2 273.9 1001.3 273.9C1000.4 273.9 999.7 274.6 999.7 275.5V320.3V323.5V323.8H1183.8C1184.8 323.8 1185.6 323 1185.5 322C1185.4 321 1184.6 320.3 1183.7 320.3Z" fill="white"/>
<path d="M1045.6 291H1012V320.4H1045.6V291Z" fill="url(#paint53_linear)"/>
<path d="M1063.5 291H1045.6V320.4H1063.5V291Z" fill="#F9A932"/>
<path d="M1119.3 279.3H1095V320.6H1119.3V279.3Z" fill="#F9A932"/>
<path d="M1142.3 288.5H1105.8V320.6H1142.3V288.5Z" fill="#FFCF7D"/>
<path d="M1094.9 279.3H1042.4V320.6H1094.9V279.3Z" fill="#FFCF7D"/>
<path d="M1162.2 288.5H1142.2V320.6H1162.2V288.5Z" fill="url(#paint54_linear)"/>
<path d="M1143.7 318.9L1161.3 290" stroke="#6D737D" stroke-width="0.7" stroke-miterlimit="10" stroke-linecap="round" stroke-linejoin="round"/>
<path d="M1127.5 305.2C1127.2 304.9 1126.8 304.9 1126.5 305.2L1123.9 307.8C1123.6 308.1 1123.6 308.5 1123.9 308.8L1126.5 311.4C1126.8 311.7 1127.2 311.7 1127.5 311.4L1130.1 308.8C1130.4 308.5 1130.4 308.1 1130.1 307.8L1127.5 305.2Z" fill="#6D737D"/>
<path d="M1126.6 303.5C1126.9 303.8 1127.3 303.8 1127.6 303.5L1130.2 300.9C1130.5 300.6 1130.5 300.2 1130.2 299.9L1127.6 297.3C1127.3 297 1126.9 297 1126.6 297.3L1124.6 299.3C1124.5 299.4 1123.9 299.9 1123.2 299.9C1122.3 299.9 1121.8 299.3 1121.8 299.3L1119.8 297.3C1119.5 297 1119.1 297 1118.8 297.3L1116.2 299.9C1115.9 300.2 1115.9 300.6 1116.2 300.9L1118.2 302.9C1118.3 303 1118.8 303.6 1118.8 304.3C1118.8 305 1118.4 305.5 1118.2 305.7L1116.2 307.7C1115.9 308 1115.9 308.4 1116.2 308.7L1118.8 311.3C1119.1 311.6 1119.5 311.6 1119.8 311.3L1122.4 308.7C1122.7 308.4 1122.7 308 1122.4 307.7L1120.4 305.7C1120.3 305.6 1119.8 305 1119.8 304.3C1119.8 303.6 1120.2 303 1120.4 302.9L1121.8 301.5C1121.8 301.5 1122.4 300.9 1123.2 300.9C1123.9 300.9 1124.4 301.3 1124.6 301.5L1126.6 303.5Z" fill="#6D737D"/>
<path d="M999.7 320.6V275.6C999.7 274.7 1000.4 274 1001.3 274C1002.2 274 1002.9 274.7 1002.9 275.6V317.9" stroke="#6D737D" stroke-width="1.2" stroke-miterlimit="10" stroke-linecap="round" stroke-linejoin="round"/>
<path d="M999.7 320.6H1167.4" stroke="#6D737D" stroke-width="1.2" stroke-miterlimit="10" stroke-linecap="round" stroke-linejoin="round"/>
<path d="M1175.8 320.6H1183.9C1184.8 320.6 1185.5 321.3 1185.5 322.2C1185.5 323.1 1184.8 323.8 1183.9 323.8H999.7" stroke="#6D737D" stroke-width="1.2" stroke-miterlimit="10" stroke-linecap="round" stroke-linejoin="round"/>
<path d="M1021.1 333.6C1026.68 333.6 1031.2 329.078 1031.2 323.5C1031.2 317.922 1026.68 313.4 1021.1 313.4C1015.52 313.4 1011 317.922 1011 323.5C1011 329.078 1015.52 333.6 1021.1 333.6Z" fill="url(#paint55_linear)"/>
<path d="M1021.1 326.2C1022.59 326.2 1023.8 324.991 1023.8 323.5C1023.8 322.009 1022.59 320.8 1021.1 320.8C1019.61 320.8 1018.4 322.009 1018.4 323.5C1018.4 324.991 1019.61 326.2 1021.1 326.2Z" stroke="#6D737D" stroke-width="0.7" stroke-miterlimit="10" stroke-linecap="round" stroke-linejoin="round"/>
<path d="M1119 333.6C1124.58 333.6 1129.1 329.078 1129.1 323.5C1129.1 317.922 1124.58 313.4 1119 313.4C1113.42 313.4 1108.9 317.922 1108.9 323.5C1108.9 329.078 1113.42 333.6 1119 333.6Z" fill="url(#paint56_linear)"/>
<path d="M1014.5 315.9C1016.3 314.4 1018.6 313.4 1021.1 313.4C1026.7 313.4 1031.2 317.9 1031.2 323.5C1031.2 325.5 1030.6 327.3 1029.7 328.8" stroke="#6D737D" stroke-width="0.7" stroke-miterlimit="10" stroke-linecap="round" stroke-linejoin="round"/>
<path d="M1119 326.2C1120.49 326.2 1121.7 324.991 1121.7 323.5C1121.7 322.009 1120.49 320.8 1119 320.8C1117.51 320.8 1116.3 322.009 1116.3 323.5C1116.3 324.991 1117.51 326.2 1119 326.2Z" stroke="#6D737D" stroke-width="0.7" stroke-miterlimit="10" stroke-linecap="round" stroke-linejoin="round"/>
<path d="M1093.8 240.7H1054.6V279.3H1093.8V240.7Z" fill="url(#paint57_linear)"/>
<path d="M1115.5 240.7H1093.8V279.3H1115.5V240.7Z" fill="url(#paint58_linear)"/>
<path d="M1143.2 290L1161.2 318.9" stroke="#6D737D" stroke-width="0.7" stroke-miterlimit="10" stroke-linecap="round" stroke-linejoin="round"/>
<path d="M1114.3 242.9L1094.6 277.7" stroke="#6D737D" stroke-width="0.7" stroke-miterlimit="10" stroke-linecap="round" stroke-linejoin="round"/>
<path d="M1095 242.9L1114.6 277.7" stroke="#6D737D" stroke-width="0.7" stroke-miterlimit="10" stroke-linecap="round" stroke-linejoin="round"/>
<path d="M1079.3 261.6C1079 261.3 1078.5 261.3 1078.2 261.6L1075.4 264.4C1075.1 264.7 1075.1 265.2 1075.4 265.5L1078.2 268.3C1078.5 268.6 1079 268.6 1079.3 268.3L1082.1 265.5C1082.4 265.2 1082.4 264.7 1082.1 264.4L1079.3 261.6Z" fill="#6D737D"/>
<path d="M1078.2 259.8C1078.5 260.1 1079 260.1 1079.3 259.8L1082.1 257C1082.4 256.7 1082.4 256.2 1082.1 255.9L1079.3 253.1C1079 252.8 1078.5 252.8 1078.2 253.1L1076 255.3C1075.8 255.4 1075.2 255.9 1074.4 255.9C1073.5 255.9 1072.8 255.3 1072.8 255.3L1070.7 253.2C1070.4 252.9 1069.9 252.9 1069.6 253.2L1066.8 256C1066.5 256.3 1066.5 256.8 1066.8 257.1L1069 259.3C1069.1 259.4 1069.6 260 1069.6 260.8C1069.6 261.6 1069.2 262.1 1069 262.3L1066.8 264.5C1066.5 264.8 1066.5 265.3 1066.8 265.6L1069.6 268.4C1069.9 268.7 1070.4 268.7 1070.7 268.4L1073.5 265.6C1073.8 265.3 1073.8 264.8 1073.5 264.5L1071.3 262.3C1071.2 262.1 1070.7 261.5 1070.7 260.7C1070.7 259.9 1071.2 259.3 1071.3 259.2L1072.8 257.7C1072.8 257.7 1073.4 257.1 1074.4 257.1C1075.2 257.1 1075.7 257.5 1075.9 257.7L1078.2 259.8Z" fill="#6D737D"/>
<path d="M1093.2 280.7L1045 318.6" stroke="#6D737D" stroke-width="0.7" stroke-miterlimit="10" stroke-linecap="round" stroke-linejoin="round"/>
<path d="M1044.4 280.9L1092.4 318.6" stroke="#6D737D" stroke-width="0.7" stroke-miterlimit="10" stroke-linecap="round" stroke-linejoin="round"/>
<path d="M986.9 333.6H1208.4" stroke="#6D737D" stroke-width="1.2" stroke-miterlimit="10" stroke-linecap="round" stroke-linejoin="round"/>
<path d="M1112.4 315.9C1114.2 314.4 1116.5 313.4 1119 313.4C1124.6 313.4 1129.1 317.9 1129.1 323.5C1129.1 325.5 1128.5 327.3 1127.6 328.8" stroke="#6D737D" stroke-width="0.7" stroke-miterlimit="10" stroke-linecap="round" stroke-linejoin="round"/>
<path d="M1311.8 267.1L1283.9 267.6L1283.4 240.8L1311.3 240.3L1311.8 267.1Z" fill="url(#paint59_linear)"/>
<path d="M1323.11 239.986L1311.21 240.202L1311.7 267.096L1323.6 266.88L1323.11 239.986Z" fill="#F9A932"/>
<path d="M1301 254.5C1300.8 254.3 1300.4 254.3 1300.2 254.5L1298.3 256.5C1298.1 256.7 1298.1 257.1 1298.3 257.3L1300.3 259.3C1300.5 259.5 1300.9 259.5 1301.1 259.3L1303.1 257.3C1303.3 257.1 1303.3 256.7 1303.1 256.5L1301 254.5Z" fill="#6D737D"/>
<path d="M1300.2 253.2C1300.4 253.4 1300.8 253.4 1301 253.2L1303 251.2C1303.2 251 1303.2 250.6 1303 250.4L1301 248.4C1300.8 248.2 1300.4 248.2 1300.2 248.4L1298.7 250C1298.6 250.1 1298.2 250.4 1297.6 250.5C1296.9 250.5 1296.5 250.1 1296.5 250.1L1295 248.6C1294.8 248.4 1294.4 248.4 1294.2 248.6L1292.2 250.6C1292 250.8 1292 251.2 1292.2 251.4L1293.8 252.9C1293.9 253 1294.2 253.4 1294.3 254C1294.3 254.5 1294 255 1293.9 255.1L1292.4 256.7C1292.2 256.9 1292.2 257.3 1292.4 257.5L1294.5 259.5C1294.7 259.7 1295.1 259.7 1295.3 259.5L1297.3 257.5C1297.5 257.3 1297.5 256.9 1297.3 256.7L1295.7 255.2C1295.6 255.1 1295.3 254.7 1295.2 254.1C1295.1 253.5 1295.5 253.1 1295.6 253L1296.7 251.9C1296.7 251.9 1297.1 251.4 1297.8 251.4C1298.3 251.4 1298.8 251.7 1298.9 251.8L1300.2 253.2Z" fill="#6D737D"/>
<path d="M1283.6 240.7H1311.5V246.6" stroke="#6D737D" stroke-width="0.7" stroke-miterlimit="10" stroke-linecap="round" stroke-linejoin="round"/>
<path d="M1316.1 265.5C1317.4 264.4 1322.1 264.7 1326.7 265.5C1331.3 266.3 1335.1 268.4 1336.2 270.5C1337.3 272.6 1335.7 274.9 1333.6 278C1331.5 281.1 1326.4 288.3 1325.7 289.7C1324.9 291 1322.9 293.3 1325.3 294.4C1327.7 295.5 1333 298.2 1333 298.2H1320.7C1320.7 298.2 1318.9 298.2 1319.1 296.2C1319.3 294.2 1320.4 287.8 1323.1 281.5C1325.8 275.2 1326.1 274.5 1326.1 274.5C1326.1 274.5 1324.7 274.4 1321.4 274.5C1318.1 274.6 1315.7 272.8 1314.8 270.5C1313.8 268.1 1315.2 266.2 1316.1 265.5Z" fill="url(#paint60_linear)"/>
<path d="M1317.3 274C1317.3 274 1322.1 274.5 1324 274.4C1325.9 274.3 1325.9 274.3 1325.9 274.3C1325.9 274.3 1324.7 277.2 1322.9 281.3C1322.2 283 1321.9 284 1321.2 286.1" stroke="#6D737D" stroke-width="1.2" stroke-miterlimit="10" stroke-linecap="round" stroke-linejoin="round"/>
<path d="M1323.3 265C1326.9 265.5 1330.8 266.3 1333.5 268C1337.1 270.3 1337 272 1335.4 275C1333.8 278 1326 288.6 1324.8 291C1323.7 293.4 1324.2 294 1326.5 295C1328.9 296 1332.9 298.2 1332.9 298.2H1324.8" stroke="#6D737D" stroke-width="1.2" stroke-miterlimit="10" stroke-linecap="round" stroke-linejoin="round"/>
<path d="M1310.5 275.5H1301.2C1300.4 275.5 1299.8 274.9 1299.8 274.1C1299.8 273.3 1300.5 272.6 1301.4 272.7L1310.7 273.5C1311.2 273.5 1311.6 274 1311.6 274.5C1311.5 275.1 1311.1 275.5 1310.5 275.5Z" fill="white"/>
<path d="M1352.9 333C1364.88 333 1374.6 323.285 1374.6 311.3C1374.6 299.315 1364.88 289.6 1352.9 289.6C1340.92 289.6 1331.2 299.315 1331.2 311.3C1331.2 323.285 1340.92 333 1352.9 333Z" stroke="#6D737D" stroke-width="1.2" stroke-miterlimit="10" stroke-linecap="round" stroke-linejoin="round"/>
<path d="M1352.9 314.6C1354.72 314.6 1356.2 313.123 1356.2 311.3C1356.2 309.477 1354.72 308 1352.9 308C1351.08 308 1349.6 309.477 1349.6 311.3C1349.6 313.123 1351.08 314.6 1352.9 314.6Z" fill="#AFB5BF"/>
<path d="M1291.2 333C1303.18 333 1312.9 323.285 1312.9 311.3C1312.9 299.315 1303.18 289.6 1291.2 289.6C1279.22 289.6 1269.5 299.315 1269.5 311.3C1269.5 323.285 1279.22 333 1291.2 333Z" stroke="#6D737D" stroke-width="1.2" stroke-miterlimit="10" stroke-linecap="round" stroke-linejoin="round"/>
<path d="M1291.2 317.5C1294.62 317.5 1297.4 314.724 1297.4 311.3C1297.4 307.876 1294.62 305.1 1291.2 305.1C1287.78 305.1 1285 307.876 1285 311.3C1285 314.724 1287.78 317.5 1291.2 317.5Z" fill="url(#paint61_linear)"/>
<path d="M1291.2 317.9C1294.85 317.9 1297.8 314.945 1297.8 311.3C1297.8 307.655 1294.85 304.7 1291.2 304.7C1287.55 304.7 1284.6 307.655 1284.6 311.3C1284.6 314.945 1287.55 317.9 1291.2 317.9Z" stroke="#6D737D" stroke-width="1.2" stroke-miterlimit="10" stroke-linecap="round" stroke-linejoin="round"/>
<path d="M1291.2 313.4C1292.36 313.4 1293.3 312.46 1293.3 311.3C1293.3 310.14 1292.36 309.2 1291.2 309.2C1290.04 309.2 1289.1 310.14 1289.1 311.3C1289.1 312.46 1290.04 313.4 1291.2 313.4Z" stroke="#6D737D" stroke-width="0.7" stroke-miterlimit="10" stroke-linecap="round" stroke-linejoin="round"/>
<path d="M1322 312.2C1318.9 312.7 1297.8 317.1 1297.8 317.1" stroke="#6D737D" stroke-width="0.7" stroke-miterlimit="10" stroke-linecap="round" stroke-linejoin="round"/>
<path d="M1291.2 304.7C1291.2 304.7 1319.3 305.9 1321.8 306" stroke="#6D737D" stroke-width="0.7" stroke-miterlimit="10" stroke-linecap="round" stroke-linejoin="round"/>
<path d="M1321.8 314.1C1324.51 314.1 1326.7 311.906 1326.7 309.2C1326.7 306.494 1324.51 304.3 1321.8 304.3C1319.09 304.3 1316.9 306.494 1316.9 309.2C1316.9 311.906 1319.09 314.1 1321.8 314.1Z" fill="#AFB5BF"/>
<path d="M1324.4 299.9L1318.9 319.3" stroke="#6D737D" stroke-width="1.2" stroke-miterlimit="10" stroke-linecap="round" stroke-linejoin="round"/>
<path d="M1315.7 319.3H1322.4" stroke="#6D737D" stroke-width="1.2" stroke-miterlimit="10" stroke-linecap="round" stroke-linejoin="round"/>
<path d="M1310.3 281.5H1340.2" stroke="#6D737D" stroke-width="1.2" stroke-miterlimit="10" stroke-linecap="round" stroke-linejoin="round"/>
<path d="M1352.9 311.3L1336.5 272.5H1346.5C1349.2 272.5 1351.4 274.7 1351.4 277.4V277.8C1351.4 280.5 1349.2 282.7 1346.5 282.7" stroke="#6D737D" stroke-width="1.2" stroke-miterlimit="10" stroke-linecap="round" stroke-linejoin="round"/>
<path d="M1321.8 309.2L1307.6 275.5" stroke="#6D737D" stroke-width="1.2" stroke-miterlimit="10" stroke-linecap="round" stroke-linejoin="round"/>
<path d="M1291.2 311.3L1310.3 281.5" stroke="#6D737D" stroke-width="1.2" stroke-miterlimit="10" stroke-linecap="round" stroke-linejoin="round"/>
<path d="M1321.8 309.2L1340.2 281.5" stroke="#6D737D" stroke-width="1.2" stroke-miterlimit="10" stroke-linecap="round" stroke-linejoin="round"/>
<path d="M1344.7 272.5H1354.3C1357 272.5 1359.2 274.7 1359.2 277.4V277.8C1359.2 280.5 1357 282.7 1354.3 282.7" stroke="#6D737D" stroke-width="1.2" stroke-miterlimit="10" stroke-linecap="round" stroke-linejoin="round"/>
<path d="M1310.5 275.5H1301.2C1300.4 275.5 1299.8 274.9 1299.8 274.1C1299.8 273.3 1300.5 272.6 1301.4 272.7L1310.7 273.5C1311.2 273.5 1311.6 274 1311.6 274.5C1311.5 275.1 1311.1 275.5 1310.5 275.5Z" stroke="#6D737D" stroke-width="1.2" stroke-miterlimit="10" stroke-linecap="round" stroke-linejoin="round"/>
<path d="M1334.1 242.4C1334.7 241.6 1335.9 241.4 1336.8 241.9C1338 242.6 1339.6 244 1341 246.3C1343 249.6 1344.7 252.7 1347.9 258.2C1351.7 264.6 1353.4 267.9 1354.6 269C1355.8 270.2 1358.7 271.1 1359.1 273.5C1359.5 275.9 1358.1 274.5 1357.4 273.5C1356.7 272.5 1355.4 271.9 1355.4 271.9C1355.4 271.9 1356.6 274 1355.7 274.1C1354.7 274.3 1353.5 272.8 1352.6 271.6C1351.7 270.4 1347.6 265.6 1344.4 261.9C1342.1 259.2 1338 254 1334.5 247.6C1333.3 245.5 1333.5 243.4 1334 242.5C1334 242.6 1334 242.5 1334.1 242.4Z" fill="white"/>
<path d="M1334.1 242.4C1334.7 241.6 1335.9 241.4 1336.8 241.9C1338 242.6 1339.6 244 1341 246.3C1343 249.6 1344.7 252.7 1347.9 258.2C1351.7 264.6 1353.4 267.9 1354.6 269C1355.8 270.2 1358.7 271.1 1359.1 273.5C1359.5 275.9 1358.1 274.5 1357.4 273.5C1356.7 272.5 1355.4 271.9 1355.4 271.9C1355.4 271.9 1356.6 274 1355.7 274.1C1354.7 274.3 1353.5 272.8 1352.6 271.6C1351.7 270.4 1347.6 265.6 1344.4 261.9C1342.1 259.2 1338 254 1334.5 247.6C1333.3 245.5 1333.5 243.4 1334 242.5C1334 242.6 1334 242.5 1334.1 242.4Z" stroke="#6D737D" stroke-width="1.2" stroke-miterlimit="10" stroke-linecap="round" stroke-linejoin="round"/>
<path d="M1350.1 272.2C1348 271.4 1347 270.4 1344.4 267.1C1342.3 264.4 1337.1 257.4 1334 252.7C1335.6 251.1 1336.3 250.6 1337 249.2C1338.8 245.7 1336.2 241.4 1336.2 241.4C1336.2 241.4 1337 241 1337.6 239.8C1338.1 239 1338.6 238.2 1339.1 236.2C1340.1 232.1 1339.2 227.6 1335.7 227.4C1332.1 227.1 1329.4 229 1329.6 233C1329.7 235.8 1330.2 237.9 1329.9 239.2C1329.7 239.8 1329.2 240.2 1328.6 240.3H1328.1C1327.5 240.3 1325.3 240.4 1323.7 240.6C1321.8 240.8 1318.5 241.7 1314.8 246C1312.7 248.4 1309.2 253.9 1306.8 258.3C1304.9 261.8 1304.1 264 1303.2 267.5C1302 271.9 1305.4 279.9 1309.2 287.3C1310.6 290.2 1312 292.9 1313.1 295.4C1316.1 302.3 1318.6 307.5 1319.6 310.7C1320 312 1320.2 312.9 1320.2 313.6C1320 315.8 1319.3 317.2 1321.1 317.6C1322.8 318 1331.1 317.7 1333.2 317.6C1335.3 317.5 1335.6 316.9 1333.1 316.4C1330.6 315.9 1325.8 314.4 1324.9 312.3C1324 310.2 1322.3 298.7 1321.1 292.5C1319.8 286.2 1317.5 274.2 1317.5 274.2C1317.5 274.2 1318.1 273.5 1318.9 272.3C1321.1 269.4 1322.2 266.9 1325.9 261.5C1327 259.9 1328.3 258.5 1329.6 257.1C1334.6 264 1343.1 271.2 1344.8 272.7C1346.5 274.3 1347.7 273.2 1348.6 274.9C1349.5 276.5 1350.6 277.9 1351.2 277.1C1351.8 276.1 1352.3 272.9 1350.1 272.2Z" fill="url(#paint62_linear)"/>
<path d="M1326 243.4C1328.9 244 1330.1 245.5 1332.1 249.4C1334.1 253.3 1341.8 263.6 1344.4 267C1347 270.4 1348 271.4 1350.1 272.1C1352.2 272.9 1351.7 276.1 1351.1 276.9C1350.5 277.7 1349.4 276.4 1348.5 274.7C1347.6 273 1346.4 274.2 1344.7 272.5C1343 270.9 1332.7 262.4 1327.3 253.8" stroke="#6D737D" stroke-width="1.2" stroke-miterlimit="10" stroke-linecap="round" stroke-linejoin="round"/>
<path d="M1346.1 232.3H1329.2C1329.2 232.3 1329 226.3 1334.8 226.3C1340.5 226.3 1340.6 232.3 1340.6 232.3" stroke="#6D737D" stroke-width="1.2" stroke-miterlimit="10" stroke-linecap="round" stroke-linejoin="round"/>
<path d="M1311.8 240.9H1325.6C1327.8 240.9 1329.7 242.1 1330.4 242.8C1333.9 246.6 1332.1 249.4 1332.1 249.4" stroke="#6D737D" stroke-width="1.2" stroke-miterlimit="10" stroke-linecap="round" stroke-linejoin="round"/>
<path d="M1305.3 261C1305.3 261 1308 262.7 1315.4 261.6C1323.4 260.4 1328.2 255.3 1328.2 255.3" stroke="#6D737D" stroke-width="1.2" stroke-miterlimit="10" stroke-linecap="round" stroke-linejoin="round"/>
<path d="M1329.5 257C1328.2 258.4 1326.9 259.8 1325.8 261.4C1322.1 266.8 1321.1 269.3 1318.8 272.2C1317.9 273.3 1317.4 274.1 1317.4 274.1" stroke="#6D737D" stroke-width="1.2" stroke-miterlimit="10" stroke-linecap="round" stroke-linejoin="round"/>
<path d="M1316.1 268.5C1317.4 274.8 1323.9 310.1 1324.7 312.2C1325.6 314.3 1330.4 315.8 1332.9 316.3" stroke="#6D737D" stroke-width="1.2" stroke-miterlimit="10" stroke-linecap="round" stroke-linejoin="round"/>
<path d="M1257 333H1398.3" stroke="#6D737D" stroke-width="1.2" stroke-miterlimit="10" stroke-linecap="round" stroke-linejoin="round"/>
<path d="M376.9 202.6H365.2V251.1H376.9V202.6Z" fill="url(#paint63_linear)"/>
<path d="M365.2 202.6H318.9V251H365.2V202.6Z" fill="#FFCF7D"/>
<path d="M339 229.8L332 237.2" stroke="#6D737D" stroke-width="0.7" stroke-miterlimit="10" stroke-linecap="round" stroke-linejoin="round"/>
<path d="M363.8 204L348.2 220.2" stroke="#6D737D" stroke-width="0.7" stroke-miterlimit="10" stroke-linecap="round" stroke-linejoin="round"/>
<path d="M359.7 245.3L365 250.8" stroke="#6D737D" stroke-width="0.7" stroke-miterlimit="10" stroke-linecap="round" stroke-linejoin="round"/>
<path d="M341.2 225.9L348.6 233.7" stroke="#6D737D" stroke-width="0.7" stroke-miterlimit="10" stroke-linecap="round" stroke-linejoin="round"/>
<path d="M320.2 204L335.7 220.2" stroke="#6D737D" stroke-width="0.7" stroke-miterlimit="10" stroke-linecap="round" stroke-linejoin="round"/>
<path d="M227 204.9H201.2V229.8H227V204.9Z" fill="url(#paint64_linear)"/>
<path d="M246.7 204.9H227V229.8H246.7V204.9Z" fill="url(#paint65_linear)"/>
<path d="M228 206.2L245.7 228.5" stroke="#6D737D" stroke-width="0.7" stroke-miterlimit="10" stroke-linecap="round" stroke-linejoin="round"/>
<path d="M236.9 217.4L245.7 206.3" stroke="#6D737D" stroke-width="0.7" stroke-miterlimit="10" stroke-linecap="round" stroke-linejoin="round"/>
<path d="M219.5 220.4C219.5 220.3 219.4 220.1 219.3 220L217.3 218C217.1 217.8 216.8 217.8 216.5 218L214.5 220C214.4 220.1 214.3 220.2 214.3 220.4H219.5Z" fill="#6D737D"/>
<path d="M208.5 220C208.4 220.1 208.3 220.2 208.3 220.4H213.4C213.4 220.3 213.3 220.1 213.2 220L211.6 218.4C211.5 218.3 211.2 217.9 211.2 217.3C211.2 216.7 211.5 216.3 211.6 216.2L212.7 215.1C212.7 215.1 213.2 214.6 213.8 214.6C214.3 214.6 214.8 214.9 214.9 215L216.5 216.6C216.7 216.8 217 216.8 217.3 216.6L219.3 214.6C219.5 214.4 219.5 214.1 219.3 213.8L217.3 211.8C217.1 211.6 216.8 211.6 216.5 211.8L214.9 213.4C214.8 213.5 214.4 213.8 213.8 213.8C213.1 213.8 212.7 213.3 212.7 213.3L211.2 211.8C211 211.6 210.7 211.6 210.4 211.8L208.4 213.8C208.2 214 208.2 214.3 208.4 214.6L210 216.2C210.1 216.3 210.4 216.7 210.4 217.3C210.4 217.8 210.1 218.3 210 218.4L208.5 220Z" fill="#6D737D"/>
<path d="M463.1 182.2L493.4 228.5H376.8V183.3C376.8 182.2 377.7 181.4 378.7 181.4L461.5 181.3C462.2 181.4 462.8 181.7 463.1 182.2Z" fill="white"/>
<path d="M429.4 180.6H411.3C410.3 180.6 409.4 179.8 409.4 178.7V176.8C409.4 175.8 410.2 174.9 411.3 174.9H429.4C430.4 174.9 431.3 175.7 431.3 176.8V178.7C431.3 179.7 430.5 180.6 429.4 180.6Z" fill="white"/>
<path d="M253.8 229.8H223.7V250.8H253.8V229.8Z" fill="#F9A932"/>
<path d="M291.8 215.2H253.8V250.9H291.8V215.2Z" fill="#FFCF7D"/>
<path d="M312.7 215.2H291.7V250.9H312.7V215.2Z" fill="url(#paint66_linear)"/>
<path d="M286.5 190.3H258.2V215.2H286.5V190.3Z" fill="url(#paint67_linear)"/>
<path d="M308.1 190.3H286.5V215.2H308.1V190.3Z" fill="url(#paint68_linear)"/>
<path d="M287.7 191.6L307 213.9" stroke="#6D737D" stroke-width="0.7" stroke-miterlimit="10" stroke-linecap="round" stroke-linejoin="round"/>
<path d="M287.7 213.9L307 191.6" stroke="#6D737D" stroke-width="0.7" stroke-miterlimit="10" stroke-linecap="round" stroke-linejoin="round"/>
<path d="M302.3 233L292.7 249.1" stroke="#6D737D" stroke-width="0.7" stroke-miterlimit="10" stroke-linecap="round" stroke-linejoin="round"/>
<path d="M308.9 244.2L312.8 250.8" stroke="#6D737D" stroke-width="0.7" stroke-miterlimit="10" stroke-linecap="round" stroke-linejoin="round"/>
<path d="M292.7 216.9L302.3 233" stroke="#6D737D" stroke-width="0.7" stroke-miterlimit="10" stroke-linecap="round" stroke-linejoin="round"/>
<path d="M277 233.9C276.7 233.6 276.3 233.6 276 233.9L273.3 236.6C273 236.9 273 237.3 273.3 237.6L276 240.3C276.3 240.6 276.7 240.6 277 240.3L279.7 237.6C280 237.3 280 236.9 279.7 236.6L277 233.9Z" fill="#6D737D"/>
<path d="M276 232.2C276.3 232.5 276.7 232.5 277 232.2L279.7 229.5C280 229.2 280 228.8 279.7 228.5L277 225.8C276.7 225.5 276.3 225.5 276 225.8L273.9 227.9C273.7 228 273.2 228.5 272.4 228.5C271.5 228.5 270.9 227.9 270.9 227.9L268.9 225.8C268.6 225.5 268.2 225.5 267.9 225.8L265.2 228.5C264.9 228.8 264.9 229.2 265.2 229.5L267.3 231.6C267.4 231.7 267.9 232.3 267.9 233.1C267.9 233.8 267.5 234.4 267.3 234.6L265.2 236.7C264.9 237 264.9 237.4 265.2 237.7L267.9 240.4C268.2 240.7 268.6 240.7 268.9 240.4L271.6 237.7C271.9 237.4 271.9 237 271.6 236.7L269.5 234.6C269.4 234.4 268.9 233.9 268.9 233.1C268.9 232.3 269.4 231.8 269.5 231.6L271 230.1C271 230.1 271.6 229.5 272.5 229.5C273.2 229.5 273.8 229.9 274 230.1L276 232.2Z" fill="#6D737D"/>
<path d="M275.1 203.2C274.9 203 274.6 203 274.3 203.2L272.3 205.2C272.1 205.4 272.1 205.7 272.3 206L274.3 208C274.5 208.2 274.8 208.2 275.1 208L277.1 206C277.3 205.8 277.3 205.5 277.1 205.2L275.1 203.2Z" fill="#6D737D"/>
<path d="M274.4 201.9C274.6 202.1 274.9 202.1 275.2 201.9L277.2 199.9C277.4 199.7 277.4 199.4 277.2 199.1L275.2 197.1C275 196.9 274.7 196.9 274.4 197.1L272.8 198.7C272.7 198.8 272.3 199.1 271.7 199.1C271 199.1 270.6 198.6 270.6 198.6L269.1 197.1C268.9 196.9 268.6 196.9 268.3 197.1L266.3 199.1C266.1 199.3 266.1 199.6 266.3 199.9L267.9 201.5C268 201.6 268.3 202 268.3 202.6C268.3 203.1 268 203.6 267.9 203.7L266.3 205.3C266.1 205.5 266.1 205.8 266.3 206.1L268.3 208.1C268.5 208.3 268.8 208.3 269.1 208.1L271.1 206.1C271.3 205.9 271.3 205.6 271.1 205.3L269.5 203.7C269.4 203.6 269.1 203.2 269.1 202.6C269.1 202 269.4 201.6 269.5 201.5L270.6 200.4C270.6 200.4 271.1 199.9 271.7 199.9C272.2 199.9 272.7 200.2 272.8 200.3L274.4 201.9Z" fill="#6D737D"/>
<path d="M208.5 254.1C208 255.4 207.7 256.8 207.7 258.2C207.8 264.2 212.7 269 218.7 269H225.2C225.5 269 225.9 269 226.2 268.9C231.1 267.8 235 263.3 235 258C235 256.6 234.7 255.3 234.3 254.1H208.5Z" fill="#AFB5BF"/>
<path d="M223.7 229.8H174.9V250.8H223.7V229.8Z" fill="#FFCF7D"/>
<path d="M162.7 254.1H159.5V221.1C159.5 220.2 160.2 219.5 161.1 219.5C162 219.5 162.7 220.2 162.7 221.1V254.1Z" fill="white"/>
<path d="M159.5 254.1H377.3V250.8L159.5 250.9V254.1Z" fill="white"/>
<path d="M233.9 237.2H161.1V240.4H233.9V237.2Z" fill="white"/>
<path d="M233.9 222.7H161.1V225.9H233.9V222.7Z" fill="white"/>
<path d="M307 254.1H303.8V221.1C303.8 220.2 304.5 219.5 305.4 219.5C306.3 219.5 307 220.2 307 221.1V254.1Z" fill="white"/>
<path d="M378.2 237.2H305.4V240.4H378.2V237.2Z" fill="white"/>
<path d="M378.2 222.7H305.4V225.9H378.2V222.7Z" fill="white"/>
<path d="M237.1 254.1H233.9V221.1C233.9 220.2 234.6 219.5 235.5 219.5C236.4 219.5 237.1 220.2 237.1 221.1V254.1Z" fill="white"/>
<path d="M409.4 258C409.4 252.6 405.5 248.1 400.4 247.2V247H393.5C387.4 247 382.1 252 382.3 258.2C382.4 264.2 387.3 269 393.3 269H399.8C400.3 269 400.9 268.9 401.4 268.8C406 267.5 409.4 263.1 409.4 258Z" fill="url(#paint69_linear)"/>
<path d="M509 258C509 252.6 505.1 248.1 500 247.2V247H493.1C487 247 481.7 252 481.9 258.2C482 264.2 486.9 269 492.9 269H499.4C499.9 269 500.5 268.9 501 268.8C505.5 267.5 509 263.1 509 258Z" fill="#AFB5BF"/>
<path d="M448.6 258C448.6 252.6 444.7 248.1 439.6 247.2V247H432.7C426.6 247 421.3 252 421.5 258.2C421.6 264.2 426.5 269 432.5 269H439C439.5 269 440.1 268.9 440.6 268.8C445.1 267.5 448.6 263.1 448.6 258Z" fill="#AFB5BF"/>
<path d="M469.1 258C469.1 252.6 465.2 248.1 460.1 247.2V247H453.2C447.1 247 441.8 252 442 258.2C442.1 264.2 447 269 453 269H459.5C460 269 460.6 268.9 461.1 268.8C465.6 267.5 469.1 263.1 469.1 258Z" fill="url(#paint70_linear)"/>
<path d="M347.1 254.1C346.6 255.4 346.3 256.8 346.3 258.2C346.4 264.2 351.3 269 357.3 269H363.8C364.3 269 364.9 268.9 365.4 268.8C370.1 267.5 373.5 263.1 373.5 258C373.5 256.6 373.2 255.3 372.8 254.1H347.1Z" fill="#AFB5BF"/>
<path d="M303.8 250.9V221.1C303.8 220.2 304.5 219.5 305.4 219.5C306.3 219.5 307 220.2 307 221.1V247.5" stroke="#6D737D" stroke-width="1.2" stroke-miterlimit="10" stroke-linecap="round" stroke-linejoin="round"/>
<path d="M402.8 203.8H385.7V226.5" stroke="#6D737D" stroke-width="1.2" stroke-miterlimit="10" stroke-linecap="round" stroke-linejoin="round"/>
<path d="M391.5 203.8L398.4 226.5" stroke="#6D737D" stroke-width="1.2" stroke-miterlimit="10" stroke-linecap="round" stroke-linejoin="round"/>
<path d="M393.2 266.7C398.06 266.7 402 262.76 402 257.9C402 253.04 398.06 249.1 393.2 249.1C388.34 249.1 384.4 253.04 384.4 257.9C384.4 262.76 388.34 266.7 393.2 266.7Z" fill="white"/>
<path d="M452.9 266.7C457.76 266.7 461.7 262.76 461.7 257.9C461.7 253.04 457.76 249.1 452.9 249.1C448.04 249.1 444.1 253.04 444.1 257.9C444.1 262.76 448.04 266.7 452.9 266.7Z" fill="white"/>
<path d="M393.2 262C395.464 262 397.3 260.164 397.3 257.9C397.3 255.636 395.464 253.8 393.2 253.8C390.936 253.8 389.1 255.636 389.1 257.9C389.1 260.164 390.936 262 393.2 262Z" fill="#CED5E0"/>
<path d="M452.6 262C454.864 262 456.7 260.164 456.7 257.9C456.7 255.636 454.864 253.8 452.6 253.8C450.336 253.8 448.5 255.636 448.5 257.9C448.5 260.164 450.336 262 452.6 262Z" fill="#CED5E0"/>
<path d="M489.1 218.6H494.8C496.5 218.6 497.8 219.9 497.8 221.6C497.8 223.3 496.5 224.6 494.8 224.6H493.3" stroke="#6D737D" stroke-width="1.2" stroke-miterlimit="10" stroke-linecap="round" stroke-linejoin="round"/>
<path d="M435.3 226.5C434.3 224.6 433.8 222.4 433.8 220.1C433.8 212.3 440.1 206.1 447.8 206.1C455.4 206.1 461.6 212.2 461.8 219.8" stroke="#6D737D" stroke-width="1.2" stroke-miterlimit="10" stroke-linecap="round" stroke-linejoin="round"/>
<path d="M418.4 199.4C418.4 199.4 422.8 199 426.6 202.9C430.4 206.7 432.8 207.8 434.8 207.9C437.6 208.1 442.1 206.7 444.8 205.1C447.5 203.5 450.1 202.6 452.1 203.6C454.1 204.6 452.5 208.4 450.5 208.3C448.4 208.2 448.2 206.4 448.3 205.7" stroke="#6D737D" stroke-width="1.2" stroke-miterlimit="10" stroke-linecap="round" stroke-linejoin="round"/>
<path d="M420.4 163C417.1 163 414.5 165.7 414.5 168.9V174.8H426.4V169C426.3 165.7 423.6 163 420.4 163Z" fill="#EA78A2"/>
<path d="M409.4 179.7V175.8C409.4 175.3 409.8 174.9 410.3 174.9H430.5C431 174.9 431.4 175.3 431.4 175.8V179.7" stroke="#6D737D" stroke-width="1.2" stroke-miterlimit="10" stroke-linecap="round" stroke-linejoin="round"/>
<path d="M445.1 219.7H487.2" stroke="#6D737D" stroke-width="1.2" stroke-miterlimit="10" stroke-linecap="round" stroke-linejoin="round"/>
<path d="M494.7 227L463.8 180.8C463.3 180.1 462.5 179.7 461.7 179.7H413.7V182.8H461.6L491 226.6H456.3L446.5 230.5L471.7 258.1H513.2C516.2 258.1 518.6 255.7 518.6 252.7C518.6 251.2 518 249.8 517 248.8L494.7 227Z" fill="url(#paint71_linear)"/>
<path d="M478.6 248.6L456.4 227L425.5 180.8C425 180.1 424.2 179.7 423.4 179.7H378C376.6 179.7 375.5 180.8 375.5 182.2V252.4C375.5 255.5 378 258 381.1 258H382.3C382.3 251.9 387.2 247 393.3 247C399.4 247 404.3 251.9 404.3 258H442C442 251.9 446.9 247 453 247C459.1 247 464 251.9 464 258H475.1C478.1 258 480.6 255.5 480.5 252.5C480.3 251 479.6 249.6 478.6 248.6ZM378.6 226.5V182.7H422.8L451.9 226.5H378.6Z" fill="url(#paint72_linear)"/>
<path d="M472.4 232.4L486 245.6" stroke="#6D737D" stroke-width="1.2" stroke-miterlimit="10" stroke-linecap="round" stroke-linejoin="round"/>
<path d="M478.6 232.4L492.1 245.6" stroke="#6D737D" stroke-width="1.2" stroke-miterlimit="10" stroke-linecap="round" stroke-linejoin="round"/>
<path d="M484.8 232.4L498.3 245.6" stroke="#6D737D" stroke-width="1.2" stroke-miterlimit="10" stroke-linecap="round" stroke-linejoin="round"/>
<path d="M491 232.4L504.5 245.6" stroke="#6D737D" stroke-width="1.2" stroke-miterlimit="10" stroke-linecap="round" stroke-linejoin="round"/>
<path d="M481.2 245.6H508.5" stroke="#6D737D" stroke-width="1.2" stroke-miterlimit="10" stroke-linecap="round" stroke-linejoin="round"/>
<path d="M486.2 255.9C487.47 255.9 488.5 254.423 488.5 252.6C488.5 250.777 487.47 249.3 486.2 249.3C484.93 249.3 483.9 250.777 483.9 252.6C483.9 254.423 484.93 255.9 486.2 255.9Z" stroke="#6D737D" stroke-width="1.2" stroke-miterlimit="10" stroke-linecap="round" stroke-linejoin="round"/>
<path d="M512.2 255.6C513.47 255.6 514.5 254.123 514.5 252.3C514.5 250.477 513.47 249 512.2 249C510.93 249 509.9 250.477 509.9 252.3C509.9 254.123 510.93 255.6 512.2 255.6Z" stroke="#6D737D" stroke-width="1.2" stroke-miterlimit="10" stroke-linecap="round" stroke-linejoin="round"/>
<path d="M378.8 226.9V245" stroke="#6D737D" stroke-width="0.7" stroke-miterlimit="10" stroke-linecap="round" stroke-linejoin="round"/>
<path d="M404 199C407.2 197.2 409.2 194.5 410.1 191.3C411 188.1 412.7 186.5 415.3 186.8C417.8 187.2 418.8 190.4 418.1 193.6C417.4 196.8 416.1 198.2 416.1 198.2C416.1 198.2 421.9 200.2 423.4 204.6C425.3 209.8 424.6 215.1 423.8 219.7C423.4 221.8 423 222.5 423 222.5C423 222.5 428.7 220.5 430.2 222.1C432.1 224.1 433.6 226.5 433.6 226.5H407.1C407.1 226.5 404.7 222 402.7 215.6C400.7 209.2 398.1 202.4 404 199Z" fill="url(#paint73_linear)"/>
<path d="M408.9 201.7C411.4 203.9 416.1 210 418.5 211.1C420.9 212.2 425.4 210.2 428.9 209.5C432.3 208.8 434.9 208.8 436.6 210.8C438.3 212.8 437.4 214.2 436.6 214.6C435.8 215 434.3 214.6 433.4 213.4C432.5 212.2 432.2 212 430 213.7C427.8 215.3 422.7 219.6 417.7 218.4C411.5 216.9 405.9 211.3 405.9 211.3" stroke="#6D737D" stroke-width="1.2" stroke-miterlimit="10" stroke-linecap="round" stroke-linejoin="round"/>
<path d="M448.9 228.1C448.9 228.1 448.7 245 448.9 245" stroke="#6D737D" stroke-width="0.7" stroke-miterlimit="10" stroke-linecap="round" stroke-linejoin="round"/>
<path d="M444.3 224.6H438.6C436.9 224.6 435.6 223.3 435.6 221.6C435.6 219.9 436.9 218.6 438.6 218.6H444.3L451.1 228.6" stroke="#6D737D" stroke-width="1.2" stroke-miterlimit="10" stroke-linecap="round" stroke-linejoin="round"/>
<path d="M418.8 190.3C418.8 190.3 418.9 185.4 413.7 185.6C409.5 185.8 409.4 190.3 409.4 190.3H423.3" stroke="#6D737D" stroke-width="1.2" stroke-miterlimit="10" stroke-linecap="round" stroke-linejoin="round"/>
<path d="M406.3 198.5C406.3 198.5 408.7 198.1 411.4 200.6C414.1 203.1 415.4 205.5 415.4 205.5H423.6" stroke="#6D737D" stroke-width="1.2" stroke-miterlimit="10" stroke-linecap="round" stroke-linejoin="round"/>
<path d="M393.2 262C395.464 262 397.3 260.164 397.3 257.9C397.3 255.636 395.464 253.8 393.2 253.8C390.936 253.8 389.1 255.636 389.1 257.9C389.1 260.164 390.936 262 393.2 262Z" stroke="#6D737D" stroke-width="1.2" stroke-miterlimit="10" stroke-linecap="round" stroke-linejoin="round"/>
<path d="M392.2 257.9C392.2 259.6 393.6 261 395.3 261C395.5 261 395.7 261 395.9 260.9C396.7 260.1 397.3 259.1 397.3 257.8C397.3 256.6 396.8 255.5 395.9 254.7C395.7 254.7 395.5 254.6 395.3 254.6C393.6 254.7 392.2 256.1 392.2 257.9Z" stroke="#6D737D" stroke-width="0.7" stroke-miterlimit="10" stroke-linecap="round" stroke-linejoin="round"/>
<path d="M452.6 262C454.864 262 456.7 260.164 456.7 257.9C456.7 255.636 454.864 253.8 452.6 253.8C450.336 253.8 448.5 255.636 448.5 257.9C448.5 260.164 450.336 262 452.6 262Z" stroke="#6D737D" stroke-width="1.2" stroke-miterlimit="10" stroke-linecap="round" stroke-linejoin="round"/>
<path d="M451.6 257.9C451.6 259.6 453 261 454.7 261C454.9 261 455.1 261 455.3 260.9C456.1 260.1 456.7 259.1 456.7 257.8C456.7 256.6 456.2 255.5 455.3 254.7C455.1 254.7 454.9 254.6 454.7 254.6C453 254.7 451.6 256.1 451.6 257.9Z" stroke="#6D737D" stroke-width="0.7" stroke-miterlimit="10" stroke-linecap="round" stroke-linejoin="round"/>
<path d="M384.4 231.4H393.5V233.7H386.2" stroke="#6D737D" stroke-width="1.2" stroke-miterlimit="10" stroke-linecap="round" stroke-linejoin="round"/>
<path d="M373.2 225.9H308.9" stroke="#6D737D" stroke-width="1.2" stroke-miterlimit="10" stroke-linecap="round" stroke-linejoin="round"/>
<path d="M307 222.7H373.2" stroke="#6D737D" stroke-width="1.2" stroke-miterlimit="10" stroke-linecap="round" stroke-linejoin="round"/>
<path d="M373.2 240.4H307" stroke="#6D737D" stroke-width="1.2" stroke-miterlimit="10" stroke-linecap="round" stroke-linejoin="round"/>
<path d="M315.3 237.2H373.2" stroke="#6D737D" stroke-width="1.2" stroke-miterlimit="10" stroke-linecap="round" stroke-linejoin="round"/>
<path d="M233.9 248.2V221.1C233.9 220.2 234.6 219.5 235.5 219.5C236.4 219.5 237.1 220.2 237.1 221.1V252.6" stroke="#6D737D" stroke-width="1.2" stroke-miterlimit="10" stroke-linecap="round" stroke-linejoin="round"/>
<path d="M159.5 247.4V221.2C159.5 220.3 160.2 219.6 161.1 219.6C162 219.6 162.7 220.3 162.7 221.2V251" stroke="#6D737D" stroke-width="1.2" stroke-miterlimit="10" stroke-linecap="round" stroke-linejoin="round"/>
<path d="M162.7 222.7H233.9" stroke="#6D737D" stroke-width="1.2" stroke-miterlimit="10" stroke-linecap="round" stroke-linejoin="round"/>
<path d="M229.5 225.9H162.7" stroke="#6D737D" stroke-width="1.2" stroke-miterlimit="10" stroke-linecap="round" stroke-linejoin="round"/>
<path d="M159.5 250.9H367.5" stroke="#6D737D" stroke-width="1.2" stroke-miterlimit="10" stroke-linecap="round" stroke-linejoin="round"/>
<path d="M373.2 254.1H159.5" stroke="#6D737D" stroke-width="1.2" stroke-miterlimit="10" stroke-linecap="round" stroke-linejoin="round"/>
<path d="M166 237.2H233.9" stroke="#6D737D" stroke-width="1.2" stroke-miterlimit="10" stroke-linecap="round" stroke-linejoin="round"/>
<path d="M233.9 240.4H162.7" stroke="#6D737D" stroke-width="1.2" stroke-miterlimit="10" stroke-linecap="round" stroke-linejoin="round"/>
<path d="M418.8 174.9V169.3" stroke="#6D737D" stroke-width="0.7" stroke-miterlimit="10" stroke-linecap="round" stroke-linejoin="round"/>
<path d="M421.9 174.9V169.3" stroke="#6D737D" stroke-width="0.7" stroke-miterlimit="10" stroke-linecap="round" stroke-linejoin="round"/>
<path d="M428.7 183.8H461.6" stroke="#6D737D" stroke-width="1.2" stroke-miterlimit="10" stroke-linecap="round" stroke-linejoin="round"/>
<path d="M193.7 258C193.7 253 190.4 248.6 185.8 247.3C185.2 247.1 184.5 247 183.8 247H177.8C171.7 247 166.4 252 166.6 258.2C166.7 264.2 171.6 269 177.6 269H184.1C184.5 269 185 269 185.4 268.9C190 267.7 193.7 263.2 193.7 258Z" fill="url(#paint74_linear)"/>
<path d="M177.4 266.7C182.26 266.7 186.2 262.76 186.2 257.9C186.2 253.04 182.26 249.1 177.4 249.1C172.54 249.1 168.6 253.04 168.6 257.9C168.6 262.76 172.54 266.7 177.4 266.7Z" fill="white"/>
<path d="M177.4 262C179.664 262 181.5 260.164 181.5 257.9C181.5 255.636 179.664 253.8 177.4 253.8C175.136 253.8 173.3 255.636 173.3 257.9C173.3 260.164 175.136 262 177.4 262Z" fill="#CED5E0"/>
<path d="M177.4 262C179.664 262 181.5 260.164 181.5 257.9C181.5 255.636 179.664 253.8 177.4 253.8C175.136 253.8 173.3 255.636 173.3 257.9C173.3 260.164 175.136 262 177.4 262Z" stroke="#6D737D" stroke-width="1.2" stroke-miterlimit="10" stroke-linecap="round" stroke-linejoin="round"/>
<path d="M176.5 257.9C176.5 259.6 177.9 261 179.6 261C179.8 261 180 261 180.2 260.9C181 260.1 181.6 259.1 181.6 257.8C181.6 256.6 181.1 255.5 180.2 254.7C180 254.7 179.8 254.6 179.6 254.6C177.9 254.7 176.5 256.1 176.5 257.9Z" stroke="#6D737D" stroke-width="0.7" stroke-miterlimit="10" stroke-linecap="round" stroke-linejoin="round"/>
<path d="M354.5 186.1H330.3V202.5H354.5V186.1Z" fill="url(#paint75_linear)"/>
<path d="M368.8 186.1H354.5V202.5H368.8V186.1Z" fill="url(#paint76_linear)"/>
<path d="M331.9 201.5L352.6 187.4" stroke="#6D737D" stroke-width="0.7" stroke-miterlimit="10" stroke-linecap="round" stroke-linejoin="round"/>
<path d="M352.9 201.5L331.9 187.2" stroke="#6D737D" stroke-width="0.7" stroke-miterlimit="10" stroke-linecap="round" stroke-linejoin="round"/>
<path d="M336.1 258C336.1 256.2 335.7 254.5 334.9 253C333 249.3 329.1 247.1 325 247.1H320.1C314 247.1 308.7 252.1 308.9 258.3C309 264.3 313.9 269.1 319.9 269.1H326.4C326.9 269.1 327.5 269 328 268.9C332.6 267.5 336.1 263.1 336.1 258Z" fill="url(#paint77_linear)"/>
<path d="M319.8 266.7C324.66 266.7 328.6 262.76 328.6 257.9C328.6 253.04 324.66 249.1 319.8 249.1C314.94 249.1 311 253.04 311 257.9C311 262.76 314.94 266.7 319.8 266.7Z" fill="white"/>
<path d="M319.8 262C322.064 262 323.9 260.164 323.9 257.9C323.9 255.636 322.064 253.8 319.8 253.8C317.536 253.8 315.7 255.636 315.7 257.9C315.7 260.164 317.536 262 319.8 262Z" fill="#CED5E0"/>
<path d="M319.8 262C322.064 262 323.9 260.164 323.9 257.9C323.9 255.636 322.064 253.8 319.8 253.8C317.536 253.8 315.7 255.636 315.7 257.9C315.7 260.164 317.536 262 319.8 262Z" stroke="#6D737D" stroke-width="1.2" stroke-miterlimit="10" stroke-linecap="round" stroke-linejoin="round"/>
<path d="M318.9 257.9C318.9 259.6 320.3 261 322 261C322.2 261 322.4 261 322.6 260.9C323.4 260.1 324 259.1 324 257.8C324 256.6 323.5 255.5 322.6 254.7C322.4 254.7 322.2 254.6 322 254.6C320.3 254.7 318.9 256.1 318.9 257.9Z" stroke="#6D737D" stroke-width="0.7" stroke-miterlimit="10" stroke-linecap="round" stroke-linejoin="round"/>
<path d="M522.3 269H138.5" stroke="#6D737D" stroke-width="1.2" stroke-miterlimit="10" stroke-linecap="round" stroke-linejoin="round"/>
</g>
<defs>
<linearGradient id="paint0_linear" x1="504.611" y1="85.4065" x2="504.611" y2="88.9732" gradientUnits="userSpaceOnUse">
<stop offset="0.000578704" stop-color="#E3F8FC"/>
<stop offset="1" stop-color="#AFEBF6"/>
</linearGradient>
<linearGradient id="paint1_linear" x1="434.062" y1="14.1885" x2="434.062" y2="28.424" gradientUnits="userSpaceOnUse">
<stop offset="0.000578704" stop-color="#E3F8FC"/>
<stop offset="1" stop-color="#AFEBF6"/>
</linearGradient>
<linearGradient id="paint2_linear" x1="671.817" y1="3.07641" x2="671.817" y2="7.67471" gradientUnits="userSpaceOnUse">
<stop offset="0.000578704" stop-color="#E3F8FC"/>
<stop offset="1" stop-color="#AFEBF6"/>
</linearGradient>
<linearGradient id="paint3_linear" x1="137.228" y1="67.121" x2="137.228" y2="73.1659" gradientUnits="userSpaceOnUse">
<stop offset="0.000578704" stop-color="#E3F8FC"/>
<stop offset="1" stop-color="#AFEBF6"/>
</linearGradient>
<linearGradient id="paint4_linear" x1="1001.78" y1="76.2039" x2="1001.78" y2="80.5193" gradientUnits="userSpaceOnUse">
<stop offset="0.000578704" stop-color="#E3F8FC"/>
<stop offset="1" stop-color="#AFEBF6"/>
</linearGradient>
<linearGradient id="paint5_linear" x1="1181.19" y1="22.5524" x2="1181.42" y2="31.4525" gradientUnits="userSpaceOnUse">
<stop offset="0.000578704" stop-color="#E3F8FC"/>
<stop offset="1" stop-color="#AFEBF6"/>
</linearGradient>
<linearGradient id="paint6_linear" x1="1283.5" y1="61.2129" x2="1283.57" y2="64.3223" gradientUnits="userSpaceOnUse">
<stop offset="0.000578704" stop-color="#E3F8FC"/>
<stop offset="1" stop-color="#AFEBF6"/>
</linearGradient>
<linearGradient id="paint7_linear" x1="108.93" y1="116.566" x2="108.93" y2="141.404" gradientUnits="userSpaceOnUse">
<stop stop-color="#D3DBDE"/>
<stop offset="0.4799" stop-color="#E7EEF2"/>
</linearGradient>
<linearGradient id="paint8_linear" x1="32.8634" y1="175.196" x2="239.487" y2="175.196" gradientUnits="userSpaceOnUse">
<stop offset="0.4345" stop-color="#EAF1F5"/>
<stop offset="1" stop-color="#D8E0E3"/>
</linearGradient>
<linearGradient id="paint9_linear" x1="142.121" y1="227.359" x2="186.355" y2="226.942" gradientUnits="userSpaceOnUse">
<stop offset="0.4171" stop-color="#82C5F5"/>
<stop offset="1" stop-color="#3A9BE0"/>
</linearGradient>
<linearGradient id="paint10_linear" x1="90.4984" y1="224.129" x2="145.551" y2="240.051" gradientUnits="userSpaceOnUse">
<stop offset="0.4171" stop-color="#82C5F5"/>
<stop offset="1" stop-color="#3A9BE0"/>
</linearGradient>
<linearGradient id="paint11_linear" x1="225.993" y1="161.095" x2="306.361" y2="161.095" gradientUnits="userSpaceOnUse">
<stop offset="0.0797483" stop-color="#EAF1F5"/>
<stop offset="0.7155" stop-color="#DDE5E8"/>
<stop offset="1" stop-color="#D8E0E3"/>
</linearGradient>
<linearGradient id="paint12_linear" x1="255.276" y1="35.8844" x2="336.453" y2="35.1396" gradientUnits="userSpaceOnUse">
<stop offset="0.4345" stop-color="#EAF1F5"/>
<stop offset="1" stop-color="#D8E0E3"/>
</linearGradient>
<linearGradient id="paint13_linear" x1="106.824" y1="123.159" x2="106.824" y2="128.66" gradientUnits="userSpaceOnUse">
<stop offset="0.4268" stop-color="#FFCB7D"/>
<stop offset="1" stop-color="#F9B032"/>
</linearGradient>
<linearGradient id="paint14_linear" x1="141.172" y1="123.159" x2="141.172" y2="128.66" gradientUnits="userSpaceOnUse">
<stop offset="0.4268" stop-color="#FFCB7D"/>
<stop offset="1" stop-color="#F9B032"/>
</linearGradient>
<linearGradient id="paint15_linear" x1="175.52" y1="123.159" x2="175.52" y2="128.66" gradientUnits="userSpaceOnUse">
<stop offset="0.4268" stop-color="#FFCB7D"/>
<stop offset="1" stop-color="#F9B032"/>
</linearGradient>
<linearGradient id="paint16_linear" x1="209.868" y1="123.159" x2="209.868" y2="128.66" gradientUnits="userSpaceOnUse">
<stop offset="0.4268" stop-color="#FFCB7D"/>
<stop offset="1" stop-color="#F9B032"/>
</linearGradient>
<linearGradient id="paint17_linear" x1="731.782" y1="255.114" x2="731.414" y2="247.77" gradientUnits="userSpaceOnUse">
<stop stop-color="#D3DBDE"/>
<stop offset="0.0117034" stop-color="#D4DCDF"/>
<stop offset="0.2646" stop-color="#E2E9ED"/>
<stop offset="0.4799" stop-color="#E7EEF2"/>
</linearGradient>
<linearGradient id="paint18_linear" x1="1228.3" y1="97.8751" x2="1206.68" y2="99.1855" gradientUnits="userSpaceOnUse">
<stop stop-color="#D8E0E3"/>
<stop offset="0.5715" stop-color="#EAF1F5"/>
</linearGradient>
<linearGradient id="paint19_linear" x1="1236" y1="119.493" x2="1259.16" y2="124.093" gradientUnits="userSpaceOnUse">
<stop stop-color="#D8E0E3"/>
<stop offset="0.4799" stop-color="#EAF1F5"/>
</linearGradient>
<linearGradient id="paint20_linear" x1="1225.78" y1="103.116" x2="1207.69" y2="118.195" gradientUnits="userSpaceOnUse">
<stop stop-color="#D8E0E3"/>
<stop offset="0.4799" stop-color="#EAF1F5"/>
</linearGradient>
<linearGradient id="paint21_linear" x1="1235.6" y1="135.213" x2="1217.53" y2="136.528" gradientUnits="userSpaceOnUse">
<stop stop-color="#D3DBDE"/>
<stop offset="0.4799" stop-color="#E7EEF2"/>
</linearGradient>
<linearGradient id="paint22_linear" x1="1325.54" y1="158.614" x2="1325.54" y2="143.768" gradientUnits="userSpaceOnUse">
<stop stop-color="#D8E0E3"/>
<stop offset="0.672" stop-color="#EAF1F5"/>
</linearGradient>
<linearGradient id="paint23_linear" x1="1261.16" y1="119.607" x2="1403.76" y2="130.781" gradientUnits="userSpaceOnUse">
<stop offset="0.4171" stop-color="#82C5F5"/>
<stop offset="1" stop-color="#3A9BE0"/>
</linearGradient>
<linearGradient id="paint24_linear" x1="1399.08" y1="122.525" x2="1414.46" y2="125.965" gradientUnits="userSpaceOnUse">
<stop offset="0.4171" stop-color="#82C5F5"/>
<stop offset="1" stop-color="#3A9BE0"/>
</linearGradient>
<linearGradient id="paint25_linear" x1="1135.98" y1="242.907" x2="1136.04" y2="250.253" gradientUnits="userSpaceOnUse">
<stop offset="0.4223" stop-color="#E7EEF2"/>
<stop offset="0.6821" stop-color="#E2E9ED"/>
<stop offset="0.991" stop-color="#D4DCDF"/>
<stop offset="1" stop-color="#D3DBDE"/>
</linearGradient>
<linearGradient id="paint26_linear" x1="1128.13" y1="238.264" x2="1111.69" y2="218.619" gradientUnits="userSpaceOnUse">
<stop offset="0.4171" stop-color="#82C5F5"/>
<stop offset="1" stop-color="#3A9BE0"/>
</linearGradient>
<linearGradient id="paint27_linear" x1="920.624" y1="109.214" x2="920.624" y2="204.367" gradientUnits="userSpaceOnUse">
<stop stop-color="#3A9BE0"/>
<stop offset="0.00829579" stop-color="#409EE2"/>
<stop offset="0.0486018" stop-color="#58ADE9"/>
<stop offset="0.0943016" stop-color="#6BB7EE"/>
<stop offset="0.1479" stop-color="#78BFF2"/>
<stop offset="0.2166" stop-color="#80C4F4"/>
<stop offset="0.3535" stop-color="#82C5F5"/>
<stop offset="0.4824" stop-color="#7EC3F4"/>
<stop offset="0.6029" stop-color="#73BCF1"/>
<stop offset="0.72" stop-color="#60B1EB"/>
<stop offset="0.8343" stop-color="#46A2E3"/>
<stop offset="0.8764" stop-color="#3A9BE0"/>
</linearGradient>
<linearGradient id="paint28_linear" x1="742.902" y1="86.8191" x2="733.892" y2="92.605" gradientUnits="userSpaceOnUse">
<stop offset="0.4812" stop-color="#82C5F5"/>
<stop offset="0.5842" stop-color="#6DB9EF"/>
<stop offset="0.7482" stop-color="#51A8E7"/>
<stop offset="0.8924" stop-color="#409EE2"/>
<stop offset="1" stop-color="#3A9BE0"/>
</linearGradient>
<linearGradient id="paint29_linear" x1="1013.72" y1="170.004" x2="1018.1" y2="165.946" gradientUnits="userSpaceOnUse">
<stop offset="0.2238" stop-color="#E7EEF2"/>
<stop offset="0.2497" stop-color="#E4EBEF"/>
<stop offset="0.5667" stop-color="#C3CACD"/>
<stop offset="0.8281" stop-color="#AFB5B8"/>
<stop offset="1" stop-color="#A8AEB0"/>
</linearGradient>
<linearGradient id="paint30_linear" x1="991.71" y1="170.004" x2="996.099" y2="165.946" gradientUnits="userSpaceOnUse">
<stop offset="0.2238" stop-color="#E7EEF2"/>
<stop offset="0.2497" stop-color="#E4EBEF"/>
<stop offset="0.5667" stop-color="#C3CACD"/>
<stop offset="0.8281" stop-color="#AFB5B8"/>
<stop offset="1" stop-color="#A8AEB0"/>
</linearGradient>
<linearGradient id="paint31_linear" x1="969.583" y1="170.004" x2="973.971" y2="165.946" gradientUnits="userSpaceOnUse">
<stop offset="0.2238" stop-color="#E7EEF2"/>
<stop offset="0.2497" stop-color="#E4EBEF"/>
<stop offset="0.5667" stop-color="#C3CACD"/>
<stop offset="0.8281" stop-color="#AFB5B8"/>
<stop offset="1" stop-color="#A8AEB0"/>
</linearGradient>
<linearGradient id="paint32_linear" x1="927.362" y1="206.736" x2="930.412" y2="217.825" gradientUnits="userSpaceOnUse">
<stop offset="0.4171" stop-color="#82C5F5"/>
<stop offset="1" stop-color="#3A9BE0"/>
</linearGradient>
<linearGradient id="paint33_linear" x1="874.503" y1="216.016" x2="874.503" y2="222.199" gradientUnits="userSpaceOnUse">
<stop offset="0.4171" stop-color="#82C5F5"/>
<stop offset="1" stop-color="#3A9BE0"/>
</linearGradient>
<linearGradient id="paint34_linear" x1="761.532" y1="88.9418" x2="762.536" y2="93.837" gradientUnits="userSpaceOnUse">
<stop offset="0.4171" stop-color="#82C5F5"/>
<stop offset="1" stop-color="#3A9BE0"/>
</linearGradient>
<linearGradient id="paint35_linear" x1="694.982" y1="88.4935" x2="694.27" y2="94.6158" gradientUnits="userSpaceOnUse">
<stop offset="0.4171" stop-color="#82C5F5"/>
<stop offset="1" stop-color="#3A9BE0"/>
</linearGradient>
<linearGradient id="paint36_linear" x1="807.312" y1="188.312" x2="824.883" y2="176.8" gradientUnits="userSpaceOnUse">
<stop offset="0.4171" stop-color="#82C5F5"/>
<stop offset="1" stop-color="#3A9BE0"/>
</linearGradient>
<linearGradient id="paint37_linear" x1="1048.31" y1="190.874" x2="1063.87" y2="175.128" gradientUnits="userSpaceOnUse">
<stop offset="0.4171" stop-color="#82C5F5"/>
<stop offset="1" stop-color="#3A9BE0"/>
</linearGradient>
<linearGradient id="paint38_linear" x1="1141.5" y1="168.242" x2="1088.21" y2="146.35" gradientUnits="userSpaceOnUse">
<stop stop-color="#D3DBDE"/>
<stop offset="0.0746544" stop-color="#DDE4E8"/>
<stop offset="0.1962" stop-color="#E5ECF0"/>
<stop offset="0.4223" stop-color="#E7EEF2"/>
<stop offset="0.6821" stop-color="#E2E9ED"/>
<stop offset="0.991" stop-color="#D4DCDF"/>
<stop offset="1" stop-color="#D3DBDE"/>
</linearGradient>
<linearGradient id="paint39_linear" x1="1132.17" y1="171.572" x2="1155.53" y2="152.71" gradientUnits="userSpaceOnUse">
<stop offset="0.2238" stop-color="#E7EEF2"/>
<stop offset="0.2438" stop-color="#E4EBEF"/>
<stop offset="0.4882" stop-color="#C3CACD"/>
<stop offset="0.6898" stop-color="#AFB5B8"/>
<stop offset="0.8224" stop-color="#A8AEB0"/>
</linearGradient>
<linearGradient id="paint40_linear" x1="1099.74" y1="155.773" x2="1077.45" y2="147.242" gradientUnits="userSpaceOnUse">
<stop stop-color="#E2EAED"/>
<stop offset="0.2265" stop-color="#D9E0E3"/>
<stop offset="0.6067" stop-color="#C0C7C9"/>
<stop offset="0.9061" stop-color="#A8AEB0"/>
</linearGradient>
<linearGradient id="paint41_linear" x1="738.318" y1="146.916" x2="737.536" y2="165.244" gradientUnits="userSpaceOnUse">
<stop stop-color="#82C5F5"/>
<stop offset="1" stop-color="#3A9BE0"/>
</linearGradient>
<linearGradient id="paint42_linear" x1="771.372" y1="142.935" x2="771.525" y2="157.001" gradientUnits="userSpaceOnUse">
<stop offset="0.4171" stop-color="#82C5F5"/>
<stop offset="1" stop-color="#3A9BE0"/>
</linearGradient>
<radialGradient id="paint43_radial" cx="0" cy="0" r="1" gradientUnits="userSpaceOnUse" gradientTransform="translate(760.319 149.617) rotate(0.608441) scale(12.6771 24.0363)">
<stop offset="0.3399" stop-color="#3596DB"/>
<stop offset="0.4839" stop-color="#3A99DC"/>
<stop offset="0.6599" stop-color="#49A1E0"/>
<stop offset="0.852" stop-color="#62AFE5"/>
<stop offset="1" stop-color="#7ABCEB"/>
</radialGradient>
<linearGradient id="paint44_linear" x1="947.516" y1="170.004" x2="951.904" y2="165.946" gradientUnits="userSpaceOnUse">
<stop offset="0.2238" stop-color="#E7EEF2"/>
<stop offset="0.2497" stop-color="#E4EBEF"/>
<stop offset="0.5667" stop-color="#C3CACD"/>
<stop offset="0.8281" stop-color="#AFB5B8"/>
<stop offset="1" stop-color="#A8AEB0"/>
</linearGradient>
<linearGradient id="paint45_linear" x1="688.253" y1="328.831" x2="688.253" y2="295.349" gradientUnits="userSpaceOnUse">
<stop stop-color="#D3DBDE"/>
<stop offset="0.0117034" stop-color="#D4DCDF"/>
<stop offset="0.2646" stop-color="#E2E9ED"/>
<stop offset="0.4799" stop-color="#E7EEF2"/>
</linearGradient>
<linearGradient id="paint46_linear" x1="894.083" y1="69.6944" x2="894.083" y2="290.125" gradientUnits="userSpaceOnUse">
<stop stop-color="#D3DBDE"/>
<stop offset="0.0117034" stop-color="#D4DCDF"/>
<stop offset="0.2646" stop-color="#E2E9ED"/>
<stop offset="0.4799" stop-color="#E7EEF2"/>
</linearGradient>
<linearGradient id="paint47_linear" x1="741.572" y1="46.7584" x2="741.572" y2="63.0476" gradientUnits="userSpaceOnUse">
<stop stop-color="#D3DBDE"/>
<stop offset="0.0117034" stop-color="#D4DCDF"/>
<stop offset="0.2646" stop-color="#E2E9ED"/>
<stop offset="0.4799" stop-color="#E7EEF2"/>
</linearGradient>
<linearGradient id="paint48_linear" x1="624.057" y1="259.969" x2="622.979" y2="174.775" gradientUnits="userSpaceOnUse">
<stop stop-color="#D3DBDE"/>
<stop offset="0.00825162" stop-color="#D4DCDF"/>
<stop offset="0.1865" stop-color="#E2E9ED"/>
<stop offset="0.3384" stop-color="#E7EEF2"/>
</linearGradient>
<linearGradient id="paint49_linear" x1="593.396" y1="131.33" x2="597.667" y2="131.33" gradientUnits="userSpaceOnUse">
<stop offset="0.4268" stop-color="#FFC061"/>
<stop offset="1" stop-color="#F9A932"/>
</linearGradient>
<linearGradient id="paint50_linear" x1="593.396" y1="156.097" x2="597.667" y2="156.097" gradientUnits="userSpaceOnUse">
<stop offset="0.4268" stop-color="#FFC061"/>
<stop offset="1" stop-color="#F9A932"/>
</linearGradient>
<linearGradient id="paint51_linear" x1="593.396" y1="180.957" x2="597.667" y2="180.957" gradientUnits="userSpaceOnUse">
<stop offset="0.4268" stop-color="#FFC061"/>
<stop offset="1" stop-color="#F9A932"/>
</linearGradient>
<linearGradient id="paint52_linear" x1="638.209" y1="241.572" x2="668.123" y2="241.727" gradientUnits="userSpaceOnUse">
<stop offset="0.4171" stop-color="#82C5F5"/>
<stop offset="1" stop-color="#3A9BE0"/>
</linearGradient>
<linearGradient id="paint53_linear" x1="1019.3" y1="305.784" x2="1038.27" y2="305.538" gradientUnits="userSpaceOnUse">
<stop offset="0.4268" stop-color="#FFC061"/>
<stop offset="1" stop-color="#F9A932"/>
</linearGradient>
<linearGradient id="paint54_linear" x1="1163.44" y1="304.547" x2="1156.91" y2="304.547" gradientUnits="userSpaceOnUse">
<stop offset="0.4268" stop-color="#FFC061"/>
<stop offset="1" stop-color="#F9A932"/>
</linearGradient>
<linearGradient id="paint55_linear" x1="1011.71" y1="319.768" x2="1030.48" y2="327.237" gradientUnits="userSpaceOnUse">
<stop offset="0.00858799" stop-color="#AFB5BF"/>
<stop offset="0.603" stop-color="#CED5E0"/>
<stop offset="1" stop-color="#AFB5BF"/>
</linearGradient>
<linearGradient id="paint56_linear" x1="1109.64" y1="319.768" x2="1128.41" y2="327.237" gradientUnits="userSpaceOnUse">
<stop offset="0.00858799" stop-color="#AFB5BF"/>
<stop offset="0.603" stop-color="#CED5E0"/>
<stop offset="1" stop-color="#AFB5BF"/>
</linearGradient>
<linearGradient id="paint57_linear" x1="1074.17" y1="270.664" x2="1074.17" y2="279.109" gradientUnits="userSpaceOnUse">
<stop offset="0.4268" stop-color="#FFCB7D"/>
<stop offset="1" stop-color="#F9B032"/>
</linearGradient>
<linearGradient id="paint58_linear" x1="1112.97" y1="260.029" x2="1103.75" y2="260.029" gradientUnits="userSpaceOnUse">
<stop offset="0.4268" stop-color="#FFC061"/>
<stop offset="1" stop-color="#F9A932"/>
</linearGradient>
<linearGradient id="paint59_linear" x1="1296.29" y1="248.786" x2="1300.58" y2="266.716" gradientUnits="userSpaceOnUse">
<stop offset="0.4268" stop-color="#FFCF7D"/>
<stop offset="1" stop-color="#F9B032"/>
</linearGradient>
<linearGradient id="paint60_linear" x1="1324.9" y1="281.743" x2="1321.07" y2="279.237" gradientUnits="userSpaceOnUse">
<stop offset="0.00415427" stop-color="#FC77A8"/>
<stop offset="0.3458" stop-color="#F370A1"/>
<stop offset="0.8989" stop-color="#DB5E8C"/>
<stop offset="1" stop-color="#D65A88"/>
</linearGradient>
<linearGradient id="paint61_linear" x1="1296.79" y1="317.611" x2="1289.68" y2="309.564" gradientUnits="userSpaceOnUse">
<stop offset="0.1561" stop-color="#E7EEF2"/>
<stop offset="0.4148" stop-color="#E2E9ED"/>
<stop offset="0.7226" stop-color="#D4DCDF"/>
<stop offset="0.7315" stop-color="#D3DBDE"/>
</linearGradient>
<linearGradient id="paint62_linear" x1="1326.54" y1="257.124" x2="1327.67" y2="280.367" gradientUnits="userSpaceOnUse">
<stop offset="0.00415427" stop-color="#FC77A8"/>
<stop offset="0.3458" stop-color="#F370A1"/>
<stop offset="0.8989" stop-color="#DB5E8C"/>
<stop offset="1" stop-color="#D65A88"/>
</linearGradient>
<linearGradient id="paint63_linear" x1="384.628" y1="226.701" x2="370.223" y2="226.808" gradientUnits="userSpaceOnUse">
<stop offset="0.4268" stop-color="#FFC061"/>
<stop offset="1" stop-color="#F9A932"/>
</linearGradient>
<linearGradient id="paint64_linear" x1="214.147" y1="220.254" x2="214.39" y2="231.661" gradientUnits="userSpaceOnUse">
<stop offset="0.4268" stop-color="#FFC061"/>
<stop offset="1" stop-color="#F9A932"/>
</linearGradient>
<linearGradient id="paint65_linear" x1="247.862" y1="217.376" x2="241.44" y2="217.376" gradientUnits="userSpaceOnUse">
<stop offset="0.4268" stop-color="#FFC061"/>
<stop offset="1" stop-color="#F9A932"/>
</linearGradient>
<linearGradient id="paint66_linear" x1="310.36" y1="233.016" x2="301.425" y2="233.016" gradientUnits="userSpaceOnUse">
<stop offset="0.4268" stop-color="#FFC061"/>
<stop offset="1" stop-color="#F9A932"/>
</linearGradient>
<linearGradient id="paint67_linear" x1="272.387" y1="204.692" x2="272.387" y2="216.851" gradientUnits="userSpaceOnUse">
<stop offset="0.4268" stop-color="#FFCB7D"/>
<stop offset="1" stop-color="#F9B032"/>
</linearGradient>
<linearGradient id="paint68_linear" x1="309.384" y1="202.733" x2="302.35" y2="202.733" gradientUnits="userSpaceOnUse">
<stop offset="0.4268" stop-color="#FFC061"/>
<stop offset="1" stop-color="#F9A932"/>
</linearGradient>
<linearGradient id="paint69_linear" x1="387.911" y1="258.096" x2="403.233" y2="257.947" gradientUnits="userSpaceOnUse">
<stop stop-color="#AFB5BF"/>
<stop offset="0.4188" stop-color="#CED5E0"/>
<stop offset="1" stop-color="#AFB5BF"/>
</linearGradient>
<linearGradient id="paint70_linear" x1="447.575" y1="258.096" x2="462.897" y2="257.947" gradientUnits="userSpaceOnUse">
<stop stop-color="#AFB5BF"/>
<stop offset="0.4188" stop-color="#CED5E0"/>
<stop offset="1" stop-color="#AFB5BF"/>
</linearGradient>
<linearGradient id="paint71_linear" x1="466.678" y1="238.148" x2="467.035" y2="253.169" gradientUnits="userSpaceOnUse">
<stop offset="0.4171" stop-color="#82C5F5"/>
<stop offset="1" stop-color="#3A9BE0"/>
</linearGradient>
<linearGradient id="paint72_linear" x1="377.489" y1="218.541" x2="426.381" y2="219.145" gradientUnits="userSpaceOnUse">
<stop offset="0.4171" stop-color="#82C5F5"/>
<stop offset="1" stop-color="#3A9BE0"/>
</linearGradient>
<linearGradient id="paint73_linear" x1="416.962" y1="216.738" x2="416.493" y2="223.89" gradientUnits="userSpaceOnUse">
<stop offset="0.00144676" stop-color="#EA78A2"/>
<stop offset="1" stop-color="#D65F8B"/>
</linearGradient>
<linearGradient id="paint74_linear" x1="172.16" y1="258.095" x2="187.482" y2="257.947" gradientUnits="userSpaceOnUse">
<stop stop-color="#AFB5BF"/>
<stop offset="0.4188" stop-color="#CED5E0"/>
<stop offset="1" stop-color="#AFB5BF"/>
</linearGradient>
<linearGradient id="paint75_linear" x1="342.418" y1="195.855" x2="342.418" y2="200.367" gradientUnits="userSpaceOnUse">
<stop offset="0.4268" stop-color="#FFCB7D"/>
<stop offset="1" stop-color="#F9B032"/>
</linearGradient>
<linearGradient id="paint76_linear" x1="370.421" y1="194.518" x2="359.67" y2="194.303" gradientUnits="userSpaceOnUse">
<stop offset="0.4268" stop-color="#FFC061"/>
<stop offset="1" stop-color="#F9A932"/>
</linearGradient>
<linearGradient id="paint77_linear" x1="314.56" y1="258.096" x2="329.882" y2="257.947" gradientUnits="userSpaceOnUse">
<stop stop-color="#AFB5BF"/>
<stop offset="0.4188" stop-color="#CED5E0"/>
<stop offset="1" stop-color="#AFB5BF"/>
</linearGradient>
<clipPath id="clip0">
<rect width="1495.2" height="349.6" fill="white"/>
</clipPath>
</defs>
</svg>
