<svg width="1197" height="91" viewBox="0 0 1197 91" fill="none" xmlns="http://www.w3.org/2000/svg">
<path d="M372.6 90.2H424.6C424.6 90.2 420.7 88.3 418.3 86.5C415.1 84.1 413.5 82 410 82.6C405.5 83.4 403.3 87.3 400.8 87.1C398.3 86.9 396.1 82.8 392.6 81.8C389.1 80.8 387 82 383.9 84.7C379.3 88.7 372.6 90.2 372.6 90.2Z" fill="url(#paint0_linear)"/>
<path d="M279.7 30.2H376.4C376.4 30.2 366.3 28.6 359 23.6C353.6 19.8 350.9 15.3 347.9 11.9C344.6 8.10002 338.8 7.70002 335.3 11.7C331.8 15.7 328 19.4 324.5 18.9C321.1 18.5 319.6 16.6 316.3 12.6C312.2 7.70002 305.6 7.60002 301.6 12.9C297.6 18.2 292.8 22.7 289 25.5C285.2 28.4 279.7 30.2 279.7 30.2Z" fill="url(#paint1_linear)"/>
<path d="M543.3 8.70001H588.3C588.3 8.70001 584.5 4.20001 579.3 1.40001C574.1 -1.39999 570.3 0.400014 565.8 3.50001C561.3 6.60001 559.2 5.50001 555.1 4.40001C549 2.60001 543.3 8.70001 543.3 8.70001Z" fill="url(#paint2_linear)"/>
<path d="M0.799988 74.5H61.6C61.6 74.5 55.6 70.7 52.2 67.7C48.8 64.7 44 61.9 38.5 63.6C32.8 65.3 28.9 70.9 24.7 71.1C20.5 71.3 19.2 68.4 15.2 67.7C11.2 67.1 8.39998 69.8 6.09998 72.1C3.89998 74.5 0.799988 74.5 0.799988 74.5Z" fill="url(#paint3_linear)"/>
<path d="M876.5 81.4C876.5 81.4 908.8 81.4 913 81.4C917.2 81.4 915.1 73.3 908.8 73.3C902.5 73.3 899.6 75 896.7 76.4C893.8 77.9 891.5 76.8 886.9 77.3C882.3 77.8 876.5 81.4 876.5 81.4Z" fill="url(#paint4_linear)"/>
<path d="M1008.3 34.9H1142.8C1142.8 34.9 1131.7 30.8 1124.9 24.7C1118 18.6 1112.2 10.6 1104 12C1095.7 13.4 1088.8 22.9 1085 23.4C1081.1 23.9 1078.7 18.4 1075.6 17C1072.6 15.6 1067.6 17 1063.5 21.1C1059.4 25.2 1056.1 28.5 1052.5 25.8C1048.9 23 1046.2 18.6 1037.9 20.8C1029.6 23 1027.9 26.2 1023.6 28.8C1016.6 32.9 1008.3 34.9 1008.3 34.9Z" fill="url(#paint5_linear)"/>
<path d="M1158.8 65.6H1196.5C1196.5 65.6 1193.2 64.3 1190.3 61C1187.4 57.7 1184.7 57 1182.2 59.2C1180.5 60.7 1177.9 62.7 1176.1 61C1174.3 59.3 1172.1 57.3 1169.7 58.1C1166.9 59 1165.8 61.6 1163.5 63.6C1161 65.6 1158.8 65.6 1158.8 65.6Z" fill="url(#paint6_linear)"/>
<defs>
<linearGradient id="paint0_linear" x1="398.611" y1="85.4065" x2="398.611" y2="88.9732" gradientUnits="userSpaceOnUse">
<stop offset="0.000578704" stop-color="#E3F8FC"/>
<stop offset="1" stop-color="#AFEBF6"/>
</linearGradient>
<linearGradient id="paint1_linear" x1="328.062" y1="14.1885" x2="328.062" y2="28.424" gradientUnits="userSpaceOnUse">
<stop offset="0.000578704" stop-color="#E3F8FC"/>
<stop offset="1" stop-color="#AFEBF6"/>
</linearGradient>
<linearGradient id="paint2_linear" x1="565.817" y1="3.07641" x2="565.817" y2="7.67471" gradientUnits="userSpaceOnUse">
<stop offset="0.000578704" stop-color="#E3F8FC"/>
<stop offset="1" stop-color="#AFEBF6"/>
</linearGradient>
<linearGradient id="paint3_linear" x1="31.2282" y1="67.121" x2="31.2282" y2="73.1659" gradientUnits="userSpaceOnUse">
<stop offset="0.000578704" stop-color="#E3F8FC"/>
<stop offset="1" stop-color="#AFEBF6"/>
</linearGradient>
<linearGradient id="paint4_linear" x1="895.782" y1="76.2039" x2="895.782" y2="80.5193" gradientUnits="userSpaceOnUse">
<stop offset="0.000578704" stop-color="#E3F8FC"/>
<stop offset="1" stop-color="#AFEBF6"/>
</linearGradient>
<linearGradient id="paint5_linear" x1="1075.19" y1="22.5524" x2="1075.42" y2="31.4525" gradientUnits="userSpaceOnUse">
<stop offset="0.000578704" stop-color="#E3F8FC"/>
<stop offset="1" stop-color="#AFEBF6"/>
</linearGradient>
<linearGradient id="paint6_linear" x1="1177.5" y1="61.2129" x2="1177.57" y2="64.3223" gradientUnits="userSpaceOnUse">
<stop offset="0.000578704" stop-color="#E3F8FC"/>
<stop offset="1" stop-color="#AFEBF6"/>
</linearGradient>
</defs>
</svg>
