<svg width="1760" height="169" viewBox="0 0 1760 169" fill="none" xmlns="http://www.w3.org/2000/svg">
<path opacity="0.5" d="M279.9 167.3C276.4 167.3 267.3 164.6 262.2 158.8C257 153.1 251.6 144.9 246.1 144.1C240.6 143.3 237.4 146.3 233 148.5C228.6 150.7 227.4 145.5 221.3 139.8C215.2 134.1 210.6 130 203.5 130.2C196.4 130.5 193.4 135.7 186.6 142.2C179.8 148.7 177.3 150.4 171.9 146.3C166.4 142.2 164.8 138.9 159.1 141.7C153.4 144.4 152.3 148.2 148.7 147.2C145.2 146.1 143 143.4 139.1 145.3C135.3 147.2 133.1 146.9 130.4 144.5C127.7 142 122.5 143.1 114 148.9C105.5 154.6 95.4002 159.8 85.6002 162.6C75.8002 165.4 54.2002 167.5 54.2002 167.5H279.9" fill="url(#paint0_linear)"/>
<path opacity="0.5" d="M1574.9 168H1415C1415 168 1431.2 163.1 1439.2 154.8C1447.2 146.5 1452.9 143.3 1457.4 143.7C1461.9 144 1467.9 151 1473.3 146.6C1478.7 142.2 1484.4 139 1489.5 139.3C1494.6 139.6 1501.3 147.6 1504.5 147.3C1507.7 147 1511.5 140.6 1516 136.2C1520.5 131.7 1531 132.1 1536.1 138.4C1541.2 144.8 1548.4 154.7 1553.6 158.5C1562.5 164.7 1574.9 168 1574.9 168Z" fill="url(#paint1_linear)"/>
<g opacity="0.5">
<path opacity="0.5" d="M887.7 154.2C880.4 148.7 874.1 147.9 869.4 151.3C864.6 154.6 860.4 154 855.8 152C851.3 150 845.2 152.5 839.2 158.3C833.2 164.1 825.1 167.7 824.4 167.7H901.8C901.7 167.6 895 159.7 887.7 154.2Z" fill="url(#paint2_linear)"/>
<path opacity="0.5" d="M926.101 167.6V113.9C926.101 112.3 927.401 110.9 929.101 110.9H1011.4C1013 110.9 1014.4 112.2 1014.4 113.9V167.6H926.101Z" fill="url(#paint3_linear)"/>
<path opacity="0.5" d="M1045.5 139.3V134.8C1045.5 133.8 1044.7 133 1043.7 133H1002.5C1001.5 133 1000.7 133.8 1000.7 134.8V167.6H1094.7V140.8C1094.7 140 1094 139.3 1093.2 139.3H1045.5Z" fill="url(#paint4_linear)"/>
<path opacity="0.5" d="M1160.7 139.1H1135V167.6H1160.7V139.1Z" fill="url(#paint5_linear)"/>
<path opacity="0.5" d="M1176.9 139.1H1160.6V167.6H1176.9V139.1Z" fill="url(#paint6_linear)"/>
<path opacity="0.5" d="M929.101 110.9C927.501 110.9 926.101 112.2 926.101 113.9V167.6H982.801V115C982.801 112.8 981.001 111 978.801 111H929.101V110.9Z" fill="url(#paint7_linear)"/>
<path opacity="0.5" d="M1045.5 167.6H1094.8V140.8C1094.8 140 1094.1 139.3 1093.3 139.3H1045.6V167.6H1045.5Z" fill="url(#paint8_linear)"/>
</g>
<path d="M535.3 168H1208.3" stroke="#6D737D" stroke-width="1.2" stroke-miterlimit="10" stroke-linecap="round" stroke-linejoin="round"/>
<path d="M1759.4 168H1388.5" stroke="#6D737D" stroke-width="1.2" stroke-miterlimit="10" stroke-linecap="round" stroke-linejoin="round"/>
<path d="M359.1 168H0.600098" stroke="#6D737D" stroke-width="1.2" stroke-miterlimit="10" stroke-linecap="round" stroke-linejoin="round"/>
<path d="M435.7 168H385.1" stroke="#6D737D" stroke-width="1.2" stroke-miterlimit="10" stroke-linecap="round" stroke-linejoin="round"/>
<path d="M668.9 22.9H625.2V65H668.9V22.9Z" fill="url(#paint9_linear)"/>
<path d="M687.5 22.9H668.9V65H687.5V22.9Z" fill="#F9A932"/>
<path d="M652.4 44.9C652.1 44.6 651.5 44.6 651.2 44.9L648.1 48C647.8 48.3 647.8 48.9 648.1 49.2L651.2 52.3C651.5 52.6 652.1 52.6 652.4 52.3L655.5 49.2C655.8 48.9 655.8 48.3 655.5 48L652.4 44.9Z" fill="#6D737D"/>
<path d="M651.2 42.9C651.5 43.2 652.1 43.2 652.4 42.9L655.5 39.8C655.8 39.5 655.8 38.9 655.5 38.6L652.4 35.5C652.1 35.2 651.5 35.2 651.2 35.5L648.8 37.9C648.6 38 647.9 38.6 647.1 38.6C646.1 38.6 645.4 37.9 645.4 37.9L643 35.5C642.7 35.2 642.1 35.2 641.8 35.5L638.7 38.6C638.4 38.9 638.4 39.5 638.7 39.8L641.1 42.2C641.2 42.3 641.8 43 641.8 43.9C641.8 44.8 641.3 45.4 641.1 45.6L638.6 48.1C638.3 48.4 638.3 49 638.6 49.3L641.8 52.4C642.1 52.7 642.7 52.7 643 52.4L646.1 49.3C646.4 49 646.4 48.4 646.1 48.1L643.7 45.7C643.6 45.5 643 44.8 643 44C643 43.1 643.5 42.5 643.7 42.3L645.4 40.6C645.4 40.6 646.1 39.9 647.1 39.9C648 39.9 648.6 40.4 648.8 40.6L651.2 42.9Z" fill="#6D737D"/>
<path d="M625.2 23.3H668.9V32.6" stroke="#6D737D" stroke-width="0.7" stroke-miterlimit="10" stroke-linecap="round" stroke-linejoin="round"/>
<path d="M676.1 62.2C678.2 60.4 685.5 61 692.6 62.2C699.8 63.4 705.7 66.8 707.5 70C709.3 73.2 706.6 76.9 703.4 81.7C700.1 86.5 692.2 97.9 691 100C689.8 102.1 686.7 105.6 690.4 107.3C694.2 109.1 702.5 113.3 702.5 113.3H683.2C683.2 113.3 680.4 113.2 680.7 110.1C681 107 682.8 96.9 687 87C691.2 77.1 691.6 76.1 691.6 76.1C691.6 76.1 689.4 76 684.2 76.1C679 76.2 675.3 73.5 673.8 69.9C672.5 66.3 674.8 63.3 676.1 62.2Z" fill="url(#paint10_linear)"/>
<path d="M678.101 75.5C678.101 75.5 685.601 76.3 688.701 76.2C691.701 76 691.701 76 691.701 76C691.701 76 689.801 80.5 687.101 86.9C686.001 89.6 685.501 91.1 684.501 94.4" stroke="#6D737D" stroke-width="1.2" stroke-miterlimit="10" stroke-linecap="round" stroke-linejoin="round"/>
<path d="M687.4 61.4C693 62.2 699.1 63.5 703.4 66.1C709.1 69.6 708.8 72.4 706.3 77C703.8 81.6 691.5 98.3 689.7 102C687.9 105.7 688.7 106.6 692.4 108.3C696.1 109.9 702.4 113.3 702.4 113.3H689.7" stroke="#6D737D" stroke-width="1.2" stroke-miterlimit="10" stroke-linecap="round" stroke-linejoin="round"/>
<path d="M667.3 77.8999H652.7C651.5 77.8999 650.4 76.8999 650.4 75.5999C650.4 74.2999 651.5 73.1999 652.9 73.2999L667.5 74.5999C668.3 74.6999 669 75.3999 669 76.1999C668.9 77.1999 668.2 77.8999 667.3 77.8999Z" fill="white"/>
<path d="M733.801 168C752.578 168 767.801 152.778 767.801 134C767.801 115.222 752.578 100 733.801 100C715.023 100 699.801 115.222 699.801 134C699.801 152.778 715.023 168 733.801 168Z" stroke="#6D737D" stroke-width="1.2" stroke-miterlimit="10" stroke-linecap="round" stroke-linejoin="round"/>
<path d="M733.801 139.2C736.672 139.2 739.001 136.872 739.001 134C739.001 131.128 736.672 128.8 733.801 128.8C730.929 128.8 728.601 131.128 728.601 134C728.601 136.872 730.929 139.2 733.801 139.2Z" fill="#AFB5BF"/>
<path d="M637.101 168C655.878 168 671.101 152.778 671.101 134C671.101 115.222 655.878 100 637.101 100C618.323 100 603.101 115.222 603.101 134C603.101 152.778 618.323 168 637.101 168Z" stroke="#6D737D" stroke-width="1.2" stroke-miterlimit="10" stroke-linecap="round" stroke-linejoin="round"/>
<path d="M637.1 143.7C642.458 143.7 646.8 139.357 646.8 134C646.8 128.643 642.458 124.3 637.1 124.3C631.743 124.3 627.4 128.643 627.4 134C627.4 139.357 631.743 143.7 637.1 143.7Z" fill="url(#paint11_linear)"/>
<path d="M637.101 144.3C642.789 144.3 647.401 139.688 647.401 134C647.401 128.311 642.789 123.7 637.101 123.7C631.412 123.7 626.801 128.311 626.801 134C626.801 139.688 631.412 144.3 637.101 144.3Z" stroke="#6D737D" stroke-width="1.2" stroke-miterlimit="10" stroke-linecap="round" stroke-linejoin="round"/>
<path d="M637.101 137.3C638.923 137.3 640.401 135.822 640.401 134C640.401 132.177 638.923 130.7 637.101 130.7C635.278 130.7 633.801 132.177 633.801 134C633.801 135.822 635.278 137.3 637.101 137.3Z" stroke="#6D737D" stroke-width="0.7" stroke-miterlimit="10" stroke-linecap="round" stroke-linejoin="round"/>
<path d="M685.401 135.3C680.501 136 647.5 143 647.5 143" stroke="#6D737D" stroke-width="0.7" stroke-miterlimit="10" stroke-linecap="round" stroke-linejoin="round"/>
<path d="M637.101 123.6C637.101 123.6 681.101 125.5 685.001 125.6" stroke="#6D737D" stroke-width="0.7" stroke-miterlimit="10" stroke-linecap="round" stroke-linejoin="round"/>
<path d="M685 138.2C689.198 138.2 692.6 134.797 692.6 130.6C692.6 126.403 689.198 123 685 123C680.803 123 677.4 126.403 677.4 130.6C677.4 134.797 680.803 138.2 685 138.2Z" fill="#AFB5BF"/>
<path d="M689.1 116.1L680.4 146.4" stroke="#6D737D" stroke-width="1.2" stroke-miterlimit="10" stroke-linecap="round" stroke-linejoin="round"/>
<path d="M675.5 146.4H685.901" stroke="#6D737D" stroke-width="1.2" stroke-miterlimit="10" stroke-linecap="round" stroke-linejoin="round"/>
<path d="M667.101 87.2999H713.801" stroke="#6D737D" stroke-width="1.2" stroke-miterlimit="10" stroke-linecap="round" stroke-linejoin="round"/>
<path d="M733.8 134L708 73.2H723.701C727.901 73.2 731.3 76.5999 731.3 80.7999V81.4C731.3 85.6 727.901 88.9999 723.701 88.9999" stroke="#6D737D" stroke-width="1.2" stroke-miterlimit="10" stroke-linecap="round" stroke-linejoin="round"/>
<path d="M685.001 130.6L662.701 77.8999" stroke="#6D737D" stroke-width="1.2" stroke-miterlimit="10" stroke-linecap="round" stroke-linejoin="round"/>
<path d="M637.101 134L667.101 87.2999" stroke="#6D737D" stroke-width="1.2" stroke-miterlimit="10" stroke-linecap="round" stroke-linejoin="round"/>
<path d="M685 130.6L713.8 87.2999" stroke="#6D737D" stroke-width="1.2" stroke-miterlimit="10" stroke-linecap="round" stroke-linejoin="round"/>
<path d="M720.801 73.2H735.801C740.001 73.2 743.401 76.5999 743.401 80.7999V81.4C743.401 85.6 740.001 88.9999 735.801 88.9999" stroke="#6D737D" stroke-width="1.2" stroke-miterlimit="10" stroke-linecap="round" stroke-linejoin="round"/>
<path d="M667.3 77.8999H652.7C651.5 77.8999 650.4 76.8999 650.4 75.5999C650.4 74.2999 651.5 73.1999 652.9 73.2999L667.5 74.5999C668.3 74.6999 669 75.3999 669 76.1999C668.9 77.1999 668.2 77.8999 667.3 77.8999Z" stroke="#6D737D" stroke-width="1.2" stroke-miterlimit="10" stroke-linecap="round" stroke-linejoin="round"/>
<path d="M704.3 26.0001C705.3 24.7001 707.1 24.4001 708.5 25.2001C710.4 26.2001 712.9 28.6001 715 32.1001C718.1 37.3001 720.8 42.2001 725.9 50.7001C731.9 60.8001 734.5 65.9001 736.5 67.7001C738.5 69.5001 742.9 71.1001 743.5 74.8001C744.1 78.6001 742 76.3001 740.8 74.8001C739.7 73.3001 737.7 72.3001 737.7 72.3001C737.7 72.3001 739.7 75.5001 738.1 75.8001C736.5 76.1001 734.6 73.7001 733.2 71.9001C731.8 70.1001 725.4 62.6001 720.4 56.6001C716.8 52.3001 710.4 44.2001 704.9 34.3001C703 31.0001 703.3 27.8001 704.1 26.4001C704.1 26.3001 704.2 26.1001 704.3 26.0001Z" fill="white"/>
<path d="M704.3 26.0001C705.3 24.7001 707.1 24.4001 708.5 25.2001C710.4 26.2001 712.9 28.6001 715 32.1001C718.1 37.3001 720.8 42.2001 725.9 50.7001C731.9 60.8001 734.5 65.9001 736.5 67.7001C738.5 69.5001 742.9 71.1001 743.5 74.8001C744.1 78.6001 742 76.3001 740.8 74.8001C739.7 73.3001 737.7 72.3001 737.7 72.3001C737.7 72.3001 739.7 75.5001 738.1 75.8001C736.5 76.1001 734.6 73.7001 733.2 71.9001C731.8 70.1001 725.4 62.6001 720.4 56.6001C716.8 52.3001 710.4 44.2001 704.9 34.3001C703 31.0001 703.3 27.8001 704.1 26.4001C704.1 26.3001 704.2 26.1001 704.3 26.0001Z" stroke="#6D737D" stroke-width="1.2" stroke-miterlimit="10" stroke-linecap="round" stroke-linejoin="round"/>
<path d="M729.4 72.5999C726.1 71.3999 724.5 69.7999 720.4 64.5999C717.1 60.3999 708.9 49.3999 704.1 41.9999C706.6 39.4999 707.7 38.6999 708.9 36.4999C711.7 30.9999 707.6 24.2999 707.6 24.2999C707.6 24.2999 708.8 23.6999 709.8 21.7999C710.5 20.4999 711.4 19.1999 712.2 16.0999C713.8 9.6999 712.4 2.69994 706.8 2.19994C701.2 1.79994 697 4.69995 697.2 10.9C697.4 15.2999 698.2 18.6999 697.7 20.5999C697.5 21.5999 696.6 22.1999 695.6 22.2999H694.8C693.9 22.2999 690.5 22.4999 688 22.7999C685.1 23.1999 679.9 24.4999 674 31.2999C670.8 35.0999 665.2 43.6999 661.5 50.5999C658.5 56.0999 657.3 59.4999 655.8 65.0999C653.9 71.9999 659.3 84.4999 665.1 96.1999C667.3 100.7 669.4 104.9 671.2 108.9C675.9 119.7 679.8 127.9 681.4 132.9C682.1 134.9 682.4 136.4 682.3 137.4C681.9 140.9 680.9 143 683.7 143.6C686.5 144.2 699.4 143.8 702.7 143.6C706 143.4 706.4 142.4 702.5 141.7C698.6 140.9 691.1 138.6 689.7 135.3C688.3 132 685.7 114 683.7 104.2C681.7 94.3999 678.1 75.4999 678.1 75.4999C678.1 75.4999 679 74.2999 680.3 72.5999C683.8 68.0999 685.4 64.0999 691.2 55.5999C692.9 53.0999 694.9 50.8999 697 48.7999C704.9 59.5999 718.2 70.7999 720.8 73.2999C723.5 75.8999 725.4 74.1999 726.8 76.6999C728.2 79.2999 729.9 81.3999 730.9 80.0999C731.9 78.7999 732.8 73.8999 729.4 72.5999Z" fill="url(#paint12_linear)"/>
<path d="M691.601 27.6C696.101 28.5 698.001 30.9 701.201 37C704.301 43.1 716.301 59.3 720.501 64.6C724.601 69.9 726.201 71.5 729.501 72.6C732.901 73.8 732.101 78.8 731.101 80.1C730.101 81.4 728.401 79.2 727.001 76.7C725.601 74.1 723.701 75.8 721.001 73.3C718.301 70.7 702.201 57.4 693.801 44" stroke="#6D737D" stroke-width="1.2" stroke-miterlimit="10" stroke-linecap="round" stroke-linejoin="round"/>
<path d="M723 10.3H696.5C696.5 10.3 696.2 0.900024 705.3 0.900024C714.3 0.900024 714.4 10.3 714.4 10.3" stroke="#6D737D" stroke-width="1.2" stroke-miterlimit="10" stroke-linecap="round" stroke-linejoin="round"/>
<path d="M669.3 23.6H691C694.5 23.6 697.4 25.5 698.4 26.6C703.9 32.5 701.1 37 701.1 37" stroke="#6D737D" stroke-width="1.2" stroke-miterlimit="10" stroke-linecap="round" stroke-linejoin="round"/>
<path d="M659.2 55.1C659.2 55.1 663.4 57.8 675 56C687.5 54 695.1 46.1 695.1 46.1" stroke="#6D737D" stroke-width="1.2" stroke-miterlimit="10" stroke-linecap="round" stroke-linejoin="round"/>
<path d="M697.001 48.8C694.901 50.9 692.901 53.2001 691.201 55.7001C685.401 64.2001 683.801 68.2001 680.301 72.7001C679.001 74.4001 678.101 75.6 678.101 75.6" stroke="#6D737D" stroke-width="1.2" stroke-miterlimit="10" stroke-linecap="round" stroke-linejoin="round"/>
<path d="M676.101 66.9C678.101 76.7 688.301 132 689.601 135.3C691.001 138.6 698.501 140.9 702.401 141.7" stroke="#6D737D" stroke-width="1.2" stroke-miterlimit="10" stroke-linecap="round" stroke-linejoin="round"/>
<path d="M804.4 168H588.9" stroke="#6D737D" stroke-width="1.2" stroke-miterlimit="10" stroke-linecap="round" stroke-linejoin="round"/>
<defs>
<linearGradient id="paint0_linear" x1="167.018" y1="166.805" x2="167.018" y2="140.059" gradientUnits="userSpaceOnUse">
<stop stop-color="#D8E0E3"/>
<stop offset="0.3563" stop-color="#DDE5E8"/>
<stop offset="0.8244" stop-color="#EAF1F5"/>
</linearGradient>
<linearGradient id="paint1_linear" x1="1495" y1="168.145" x2="1496.27" y2="134.066" gradientUnits="userSpaceOnUse">
<stop stop-color="#D8E0E3"/>
<stop offset="0.672" stop-color="#EAF1F5"/>
</linearGradient>
<linearGradient id="paint2_linear" x1="863.048" y1="164.403" x2="863.048" y2="156.52" gradientUnits="userSpaceOnUse">
<stop stop-color="#D8E0E3"/>
<stop offset="0.672" stop-color="#EAF1F5"/>
</linearGradient>
<linearGradient id="paint3_linear" x1="1008.36" y1="139.492" x2="958.237" y2="139.218" gradientUnits="userSpaceOnUse">
<stop stop-color="#C5CCCF"/>
<stop offset="0.672" stop-color="#D1D8DB"/>
</linearGradient>
<linearGradient id="paint4_linear" x1="1063.08" y1="161.674" x2="1006.39" y2="132.369" gradientUnits="userSpaceOnUse">
<stop stop-color="#D8E0E3"/>
<stop offset="0.672" stop-color="#EAF1F5"/>
</linearGradient>
<linearGradient id="paint5_linear" x1="1139.93" y1="143.12" x2="1158.16" y2="166.871" gradientUnits="userSpaceOnUse">
<stop stop-color="#D8E0E3"/>
<stop offset="0.672" stop-color="#EAF1F5"/>
</linearGradient>
<linearGradient id="paint6_linear" x1="1160.62" y1="153.361" x2="1176.96" y2="153.361" gradientUnits="userSpaceOnUse">
<stop stop-color="#C5CCCF"/>
<stop offset="0.672" stop-color="#D1D8DB"/>
</linearGradient>
<linearGradient id="paint7_linear" x1="972.522" y1="157.243" x2="935.657" y2="122.881" gradientUnits="userSpaceOnUse">
<stop stop-color="#D8E0E3"/>
<stop offset="0.672" stop-color="#EAF1F5"/>
</linearGradient>
<linearGradient id="paint8_linear" x1="1045.48" y1="153.448" x2="1094.73" y2="153.448" gradientUnits="userSpaceOnUse">
<stop stop-color="#D8E0E3"/>
<stop offset="0.672" stop-color="#EAF1F5"/>
</linearGradient>
<linearGradient id="paint9_linear" x1="645.294" y1="35.829" x2="651.505" y2="64.0365" gradientUnits="userSpaceOnUse">
<stop offset="0.4268" stop-color="#FFCF7D"/>
<stop offset="1" stop-color="#F9B032"/>
</linearGradient>
<linearGradient id="paint10_linear" x1="689.898" y1="87.6477" x2="683.894" y2="83.7224" gradientUnits="userSpaceOnUse">
<stop offset="0.00415427" stop-color="#FC77A8"/>
<stop offset="0.3458" stop-color="#F370A1"/>
<stop offset="0.8989" stop-color="#DB5E8C"/>
<stop offset="1" stop-color="#D65A88"/>
</linearGradient>
<linearGradient id="paint11_linear" x1="645.854" y1="143.84" x2="634.713" y2="131.233" gradientUnits="userSpaceOnUse">
<stop offset="0.1561" stop-color="#E7EEF2"/>
<stop offset="0.4148" stop-color="#E2E9ED"/>
<stop offset="0.7226" stop-color="#D4DCDF"/>
<stop offset="0.7315" stop-color="#D3DBDE"/>
</linearGradient>
<linearGradient id="paint12_linear" x1="692.455" y1="49.0801" x2="694.232" y2="85.4921" gradientUnits="userSpaceOnUse">
<stop offset="0.00415427" stop-color="#FC77A8"/>
<stop offset="0.3458" stop-color="#F370A1"/>
<stop offset="0.8989" stop-color="#DB5E8C"/>
<stop offset="1" stop-color="#D65A88"/>
</linearGradient>
</defs>
</svg>
