<svg width="93" height="92" viewBox="0 0 93 92" fill="none" xmlns="http://www.w3.org/2000/svg">
<path d="M14.2261 11.2457V5.98584M14.2261 22.4292V17.3225M5.82574 14.3096H11.2898M17.3156 14.3096H22.601" stroke="white" stroke-width="2" stroke-linecap="round" stroke-linejoin="round"/>
<path d="M64.8701 4.47241V1M64.8701 11.8555V8.48423M59.3243 6.49518H62.9316M66.9097 6.49518H70.399" stroke="white" stroke-width="2" stroke-linecap="round" stroke-linejoin="round"/>
<circle cx="68.9248" cy="86.5216" r="4.06313" stroke="white" stroke-width="2"/>
<path d="M32.9674 19.9111L25.0011 26.5497L40.1362 44.4014L25.0011 62.2961L32.9674 68.8326L46.7883 52.2475L60.8496 68.8326L68.2031 62.2961L53.3268 44.4014L68.2031 26.5497L60.8496 19.9111L46.7883 36.5363L32.9674 19.9111Z" stroke="white" stroke-width="2" stroke-linecap="round" stroke-linejoin="round"/>
<path d="M62.2831 39.9291L70.5852 49.9157L84.6465 33.2905L92 39.9291L77.1236 57.7808L92 75.6755L84.6465 82.212L70.5852 65.6269L56.7643 82.212L48.798 75.6755L53.7003 69.8519" stroke="white" stroke-width="2" stroke-linecap="round" stroke-linejoin="round"/>
<path d="M29.8179 41.6031L22.7872 49.9157L8.96633 33.2905L1 39.9291L16.1351 57.7808L1 75.6755L8.96633 82.212L22.7872 65.6269L36.8485 82.212L44.202 75.6755L39.1975 70.0562" stroke="white" stroke-width="2" stroke-linecap="round" stroke-linejoin="round"/>
</svg>
