<svg width="80" height="75" viewBox="0 0 80 75" fill="none" xmlns="http://www.w3.org/2000/svg">
<path d="M21.0969 32.9829C19.3431 32.9829 16.5739 35.0598 16.5739 37.6444C16.5739 40.229 18.9739 42.2597 21.0969 42.2597M21.0969 32.9829V42.2597M21.0969 32.9829V27.906M21.0969 42.2597V42.2597C21.0969 51.436 28.5358 58.8749 37.7121 58.8749H38.2659C47.4422 58.8749 54.8811 51.436 54.8811 42.2597V42.2597M54.8811 32.9829C56.2657 33.3521 58.998 34.8013 58.8503 37.6444C58.7026 40.4874 56.1426 41.9059 54.8811 42.2597M54.8811 32.9829V42.2597M54.8811 32.9829V28.8291M32.0353 58.3672V58.3672C32.0353 62.1801 29.6204 65.5747 26.0184 66.8252L23.1522 67.8203C20.9592 68.5816 18.8274 69.75 17.382 71.5665C16.9144 72.1542 16.5739 72.7278 16.5739 73.1824M43.9428 58.3672V58.3672C43.9428 62.1854 46.3465 65.5902 49.9445 66.8682L54.1562 68.3643C55.3122 68.7749 56.4484 69.2927 57.3084 70.1676C58.0679 70.9401 58.8503 72.0185 58.8503 73.1824M21.0969 27.906V23.983C21.0969 14.6538 28.6598 7.09092 37.989 7.09092V7.09092C47.3183 7.09092 54.8811 14.6538 54.8811 23.983V28.8291M21.0969 27.906C25.5738 27.4291 35.7525 25.167 39.6663 21.2901M54.8811 28.8291C51.3273 28.2291 37.0143 23.4072 36.4198 15.0754M32.0353 7.59861C31.6353 5.49094 32.2291 1.25715 37.8044 1.1833C43.3797 1.10946 44.1582 5.4294 43.8505 7.59861M26.2661 37.4136C27.2507 38.5521 29.7091 40.1459 31.666 37.4136M44.4043 37.6444C45.2966 38.6597 47.5335 40.0813 49.3427 37.6444M35.2198 47.5673C36.1121 48.8288 38.4136 50.595 40.4813 47.5673" stroke="white" stroke-width="2" stroke-linecap="round" stroke-linejoin="round"/>
<path d="M70.9198 27.0748V22.321M70.9198 37.1824V32.5671M63.3276 29.844H68.266M73.7121 29.844H78.4889" stroke="white" stroke-width="2" stroke-linecap="round" stroke-linejoin="round"/>
<path d="M8.35211 8.83088V5.69254M8.35211 15.5037V12.4567M3.3399 10.659H6.60012M10.1955 10.659H13.3491" stroke="white" stroke-width="2" stroke-linecap="round" stroke-linejoin="round"/>
<circle cx="4.67223" cy="55.6464" r="3.67223" stroke="white" stroke-width="2"/>
</svg>
