<svg width="749" height="559" viewBox="0 0 749 559" fill="none" xmlns="http://www.w3.org/2000/svg">
<path d="M749 491.188H0V491.488H749V491.188Z" fill="#EBEBEB"/>
<path d="M664.963 505.59H615.379V505.89H664.963V505.59Z" fill="#EBEBEB"/>
<path d="M271.738 510.691H196.987V510.991H271.738V510.691Z" fill="#EBEBEB"/>
<path d="M613.731 519.543H569.54V519.843H613.731V519.543Z" fill="#EBEBEB"/>
<path d="M111.002 516.992H78.6455V517.292H111.002V516.992Z" fill="#EBEBEB"/>
<path d="M181.857 516.992H124.334V517.292H181.857V516.992Z" fill="#EBEBEB"/>
<path d="M496.138 501.54H355.775V501.84H496.138V501.54Z" fill="#EBEBEB"/>
<path d="M562.199 353.613C537.183 353.613 516.211 371.767 511.866 395.621C509.919 406.573 507.971 417.525 505.275 428.477L489.846 491.638H634.553L619.123 428.477C616.427 417.675 614.479 406.723 612.532 395.621C608.188 371.767 587.366 353.613 562.199 353.613Z" fill="#EEF1F6"/>
<path d="M570.139 353.613C545.122 353.613 524.15 371.767 519.806 395.621C517.858 406.573 515.911 417.525 513.215 428.477L497.785 491.638H642.492L627.063 428.477C624.366 417.675 622.419 406.723 620.471 395.621C616.127 371.767 595.305 353.613 570.139 353.613Z" fill="#EEF1F6"/>
<path d="M252.863 110.27C256.158 96.4672 270.239 87.9157 284.021 91.2162L516.211 147.176C529.992 150.477 538.531 164.579 535.235 178.382C531.94 192.184 517.859 200.736 504.077 197.435L271.887 141.475C258.106 138.175 249.567 124.072 252.863 110.27Z" fill="#EEF1F6"/>
<path d="M257.357 107.569C260.652 93.7667 274.733 85.2152 288.515 88.5158L520.705 144.476C534.487 147.776 543.025 161.879 539.73 175.681C536.434 189.484 522.353 198.035 508.571 194.735L276.381 138.775C262.6 135.474 254.061 121.372 257.357 107.569Z" fill="#EEF1F6"/>
<path d="M288.514 115.071C290.162 108.019 297.352 103.519 304.543 105.319L498.683 152.127C505.724 153.778 510.218 160.979 508.42 168.18C506.773 175.231 499.582 179.732 492.392 177.932L298.251 131.123C291.21 129.473 286.716 122.272 288.514 115.071Z" fill="#E0E6F0"/>
<path d="M257.805 109.82C244.773 96.7673 226.946 91.8164 210.169 94.817C194.44 97.5174 188.597 117.171 199.832 128.423L239.23 167.88C250.465 179.132 269.939 173.281 272.785 157.528C275.781 140.725 270.838 122.872 257.805 109.82Z" fill="#F1F6FF"/>
<path d="M167.177 282.651V267.648C204.027 267.648 233.987 237.643 233.987 200.736C233.987 163.829 204.027 133.824 167.177 133.824C130.326 133.824 100.366 163.829 100.366 200.736H85.3857C85.3857 155.578 122.087 118.821 167.177 118.821C212.266 118.821 248.967 155.578 248.967 200.736C248.967 245.894 212.266 282.651 167.177 282.651Z" fill="#EEF1F6"/>
<path d="M211.517 156.328C216.76 161.579 225.748 162.029 235.185 158.278C243.874 154.828 249.566 143.576 244.922 138.925L228.744 122.722C224.1 118.071 212.865 123.772 209.42 132.474C205.825 141.925 206.274 150.927 211.517 156.328Z" fill="#F5F5F5"/>
<path d="M257.805 126.323C266.906 126.323 274.283 118.934 274.283 109.82C274.283 100.705 266.906 93.3167 257.805 93.3167C248.705 93.3167 241.327 100.705 241.327 109.82C241.327 118.934 248.705 126.323 257.805 126.323Z" fill="#E0E6F0"/>
<path d="M586.467 399.071L576.88 402.672C559.503 409.273 539.879 400.422 533.288 383.018L454.343 174.331C447.752 156.928 456.59 137.274 473.967 130.673L483.554 127.073C500.931 120.471 520.555 129.323 527.146 146.726L606.091 355.413C612.532 372.817 603.694 392.47 586.467 399.071Z" fill="#EEF1F6"/>
<path d="M594.406 399.071L584.818 402.672C567.441 409.273 547.818 400.422 541.226 383.018L462.282 174.331C455.691 156.928 464.529 137.274 481.906 130.673L491.493 127.073C508.87 120.471 528.494 129.323 535.085 146.726L614.029 355.413C620.621 372.817 611.782 392.47 594.406 399.071Z" fill="#F1F6FF"/>
<path d="M572.835 373.417C572.086 373.417 571.037 372.967 570.588 371.916L491.643 163.229C491.494 162.629 491.493 162.029 491.793 161.429C492.093 160.829 492.542 160.379 492.992 160.229L502.579 156.628C502.878 156.478 503.028 156.478 503.328 156.478C504.077 156.478 505.125 156.928 505.575 157.978L584.519 366.666C584.969 367.866 584.37 369.216 583.171 369.666L573.584 373.267C573.434 373.417 573.135 373.417 572.835 373.417Z" fill="#E0E6F0"/>
<path d="M586.916 353.613C561.899 353.613 540.927 371.767 536.583 395.621C534.636 406.573 532.688 417.525 529.992 428.477L514.562 491.638H659.269L643.84 428.477C641.143 417.675 639.196 406.723 637.249 395.621C632.904 371.767 612.082 353.613 586.916 353.613Z" fill="#EEF1F6"/>
<path d="M594.855 353.613C569.839 353.613 548.867 371.767 544.523 395.621C542.575 406.573 540.628 417.525 537.931 428.477L522.502 491.638H667.209L651.779 428.477C649.083 417.675 647.136 406.723 645.188 395.621C640.844 371.767 620.022 353.613 594.855 353.613Z" fill="#F1F6FF"/>
<path d="M526.046 191.665C539.969 177.721 539.969 155.113 526.046 141.169C512.123 127.225 489.55 127.225 475.627 141.169C461.704 155.113 461.704 177.721 475.627 191.665C489.55 205.609 512.123 205.609 526.046 191.665Z" fill="#FAFAFA"/>
<path d="M500.782 195.335C484.753 195.335 471.87 182.283 471.87 166.38C471.87 150.477 484.903 137.425 500.782 137.425C516.81 137.425 529.693 150.477 529.693 166.38C529.693 182.283 516.81 195.335 500.782 195.335ZM500.782 138.775C485.502 138.775 473.218 151.227 473.218 166.38C473.218 181.683 485.652 193.985 500.782 193.985C516.061 193.985 528.345 181.532 528.345 166.38C528.495 151.077 516.061 138.775 500.782 138.775Z" fill="#EEF1F6"/>
<path d="M212.716 393.07H108.155V491.188H212.716V393.07Z" fill="#F1F6FF"/>
<path d="M76.7305 491.329H108.188L108.188 393.211H76.7305L76.7305 491.329Z" fill="#EEF1F6"/>
<path d="M113.648 393.179H202.629V332.868H113.648L113.648 393.179Z" fill="#E0E6F0"/>
<path d="M229.494 332.76H202.68V393.07H229.494V332.76Z" fill="#E0E0E0"/>
<path d="M260.698 491.258H338.145V400.192H260.698V491.258Z" fill="#EEF1F6"/>
<path d="M330.609 482.186H268.292V409.123H330.609V482.186ZM269.79 480.686H329.111V410.623H269.79V480.686Z" fill="#F5F5F5"/>
<path d="M361.318 400.122H338.099V491.188H361.318V400.122Z" fill="#F5F5F5"/>
<path d="M66.4431 291.879H143.89V200.812H66.4431L66.4431 291.879Z" fill="#EEF1F6"/>
<path d="M167.027 200.736H143.808V291.802H167.027V200.736Z" fill="#F5F5F5"/>
<path d="M374.5 559C534.918 559 664.962 551.41 664.962 542.047C664.962 532.684 534.918 525.094 374.5 525.094C214.082 525.094 84.0381 532.684 84.0381 542.047C84.0381 551.41 214.082 559 374.5 559Z" fill="#E0E6F0"/>
<path d="M236.534 335.01H377.046V321.057H236.534C232.639 321.057 229.493 324.208 229.493 328.109C229.493 331.859 232.639 335.01 236.534 335.01Z" fill="#072C74"/>
<path d="M290.758 540.092H299.746V335.155H290.758V540.092Z" fill="#407BFF"/>
<path opacity="0.7" d="M290.758 540.092H299.746V335.155H290.758V540.092Z" fill="white"/>
<path d="M246.328 540.092H255.316L255.316 335.155H246.328L246.328 540.092Z" fill="#407BFF"/>
<path opacity="0.7" d="M246.328 540.092H255.316L255.316 335.155H246.328L246.328 540.092Z" fill="white"/>
<path d="M236.534 332.609C239.016 332.609 241.028 330.594 241.028 328.109C241.028 325.623 239.016 323.608 236.534 323.608C234.052 323.608 232.04 325.623 232.04 328.109C232.04 330.594 234.052 332.609 236.534 332.609Z" fill="#7886FF"/>
<path d="M251.963 328.109C251.963 330.659 254.06 332.61 256.457 332.61C259.004 332.61 260.951 330.509 260.951 328.109C260.951 325.558 258.854 323.608 256.457 323.608C254.06 323.458 251.963 325.558 251.963 328.109Z" fill="#7886FF"/>
<path d="M276.681 332.609C279.162 332.609 281.174 330.594 281.174 328.109C281.174 325.623 279.162 323.608 276.681 323.608C274.199 323.608 272.187 325.623 272.187 328.109C272.187 330.594 274.199 332.609 276.681 332.609Z" fill="#7886FF"/>
<path d="M296.754 332.609C299.236 332.609 301.248 330.594 301.248 328.109C301.248 325.623 299.236 323.608 296.754 323.608C294.272 323.608 292.26 325.623 292.26 328.109C292.26 330.594 294.272 332.609 296.754 332.609Z" fill="#7886FF"/>
<path d="M316.826 332.609C319.308 332.609 321.32 330.594 321.32 328.109C321.32 325.623 319.308 323.608 316.826 323.608C314.344 323.608 312.332 325.623 312.332 328.109C312.332 330.594 314.344 332.609 316.826 332.609Z" fill="#7886FF"/>
<path d="M336.9 332.609C339.382 332.609 341.394 330.594 341.394 328.109C341.394 325.623 339.382 323.608 336.9 323.608C334.418 323.608 332.406 325.623 332.406 328.109C332.406 330.594 334.418 332.609 336.9 332.609Z" fill="#7886FF"/>
<path d="M356.973 332.609C359.455 332.609 361.467 330.594 361.467 328.109C361.467 325.623 359.455 323.608 356.973 323.608C354.491 323.608 352.479 325.623 352.479 328.109C352.479 330.594 354.491 332.609 356.973 332.609Z" fill="#7886FF"/>
<path d="M377.046 323.458V332.609C374.5 332.609 372.552 330.509 372.552 328.109C372.403 325.558 374.5 323.458 377.046 323.458Z" fill="#7886FF"/>
<path d="M340.345 169.68H484.453C491.194 169.68 496.736 175.231 496.736 181.983V540.097H328.062V181.983C328.062 175.231 333.604 169.68 340.345 169.68Z" fill="#7886FF"/>
<path opacity="0.2" d="M374.799 278.3H328.062V276.949H373.451V169.68H374.799V278.3Z" fill="white"/>
<path opacity="0.4" d="M458.238 169.68H484.603C491.344 169.68 496.886 175.231 496.886 181.983V540.097H445.954V181.983C445.954 175.231 451.347 169.68 458.238 169.68Z" fill="#263238"/>
<path d="M462.133 231.191H480.558C483.854 231.191 486.55 233.892 486.55 237.192V350.013H456.141V237.192C456.141 233.892 458.837 231.191 462.133 231.191Z" fill="#7886FF"/>
<path d="M462.133 231.191H478.161C481.457 231.191 484.153 233.892 484.153 237.192V350.013H456.141V237.192C456.141 233.892 458.837 231.191 462.133 231.191Z" fill="#4C4C4C"/>
<path opacity="0.2" d="M445.954 519.843H393.674V350.763H445.954V352.113H395.022V518.493H445.954V519.843Z" fill="white"/>
<path opacity="0.2" d="M373.6 519.843C368.807 519.843 364.912 515.942 364.912 511.141C364.912 506.34 368.807 502.44 373.6 502.44C378.394 502.44 382.289 506.34 382.289 511.141C382.289 515.942 378.544 519.843 373.6 519.843ZM373.6 503.79C369.556 503.79 366.26 507.091 366.26 511.141C366.26 515.192 369.556 518.493 373.6 518.493C377.645 518.493 380.941 515.192 380.941 511.141C380.941 507.091 377.645 503.79 373.6 503.79Z" fill="white"/>
<path opacity="0.2" d="M350.382 519.843C345.588 519.843 341.693 515.942 341.693 511.141C341.693 506.34 345.588 502.44 350.382 502.44C355.175 502.44 359.07 506.34 359.07 511.141C359.07 515.942 355.175 519.843 350.382 519.843ZM350.382 503.79C346.337 503.79 343.042 507.091 343.042 511.141C343.042 515.192 346.337 518.493 350.382 518.493C354.426 518.493 357.722 515.192 357.722 511.141C357.722 507.091 354.426 503.79 350.382 503.79Z" fill="white"/>
<path d="M640.994 335.01H500.481V321.057H640.994C644.889 321.057 648.035 324.208 648.035 328.109C648.035 331.859 644.889 335.01 640.994 335.01Z" fill="#7886FF"/>
<path d="M596.653 335.01H456.141V321.057H596.653C600.548 321.057 603.694 324.208 603.694 328.109C603.694 331.859 600.548 335.01 596.653 335.01Z" fill="#072C74"/>
<path d="M586.766 335.01H577.778V539.947H586.766V335.01Z" fill="#407BFF"/>
<path opacity="0.7" d="M586.766 335.01H577.778V539.947H586.766V335.01Z" fill="white"/>
<path d="M631.256 335.01H622.269V539.947H631.256V335.01Z" fill="#407BFF"/>
<path opacity="0.7" d="M631.256 335.01H622.269V539.947H631.256V335.01Z" fill="white"/>
<path d="M596.653 332.61C599.135 332.61 601.147 330.594 601.147 328.109C601.147 325.623 599.135 323.608 596.653 323.608C594.171 323.608 592.159 325.623 592.159 328.109C592.159 330.594 594.171 332.61 596.653 332.61Z" fill="#7886FF"/>
<path d="M576.58 332.61C579.062 332.61 581.074 330.594 581.074 328.109C581.074 325.623 579.062 323.608 576.58 323.608C574.098 323.608 572.086 325.623 572.086 328.109C572.086 330.594 574.098 332.61 576.58 332.61Z" fill="#7886FF"/>
<path d="M556.507 332.61C558.989 332.61 561.001 330.594 561.001 328.109C561.001 325.623 558.989 323.608 556.507 323.608C554.025 323.608 552.013 325.623 552.013 328.109C552.013 330.594 554.025 332.61 556.507 332.61Z" fill="#7886FF"/>
<path d="M536.433 332.61C538.915 332.61 540.927 330.594 540.927 328.109C540.927 325.623 538.915 323.608 536.433 323.608C533.951 323.608 531.939 325.623 531.939 328.109C531.939 330.594 533.951 332.61 536.433 332.61Z" fill="#7886FF"/>
<path d="M516.36 332.61C518.842 332.61 520.854 330.594 520.854 328.109C520.854 325.623 518.842 323.608 516.36 323.608C513.878 323.608 511.866 325.623 511.866 328.109C511.866 330.594 513.878 332.61 516.36 332.61Z" fill="#7886FF"/>
<path d="M496.287 332.61C498.769 332.61 500.781 330.594 500.781 328.109C500.781 325.623 498.769 323.608 496.287 323.608C493.805 323.608 491.793 325.623 491.793 328.109C491.793 330.594 493.805 332.61 496.287 332.61Z" fill="#7886FF"/>
<path d="M476.214 332.61C478.696 332.61 480.708 330.594 480.708 328.109C480.708 325.623 478.696 323.608 476.214 323.608C473.732 323.608 471.72 325.623 471.72 328.109C471.72 330.594 473.732 332.61 476.214 332.61Z" fill="#7886FF"/>
<path d="M456.141 323.458V332.609C458.687 332.609 460.635 330.509 460.635 328.109C460.635 325.558 458.687 323.458 456.141 323.458Z" fill="#7886FF"/>
<path d="M426.481 373.567H347.536C344.69 373.567 342.293 371.166 342.293 368.316V211.988C342.293 209.137 344.69 206.737 347.536 206.737H426.481C429.327 206.737 431.724 209.137 431.724 211.988V368.466C431.724 371.166 429.327 373.567 426.481 373.567Z" fill="white"/>
<path opacity="0.3" d="M416.594 274.249H357.423C354.277 274.249 351.88 271.699 351.88 268.698V230.141C351.88 226.991 354.427 224.59 357.423 224.59H416.594C419.739 224.59 422.136 227.141 422.136 230.141V268.698C422.136 271.849 419.59 274.249 416.594 274.249Z" fill="#407BFF"/>
<path opacity="0.3" d="M416.893 315.656H357.123C354.127 315.656 351.88 313.256 351.88 310.405V286.701C351.88 283.701 354.277 281.45 357.123 281.45H416.893C419.889 281.45 422.136 283.851 422.136 286.701V310.405C422.136 313.256 419.739 315.656 416.893 315.656Z" fill="#407BFF"/>
<path d="M373.002 298.553L361.317 294.203C363.115 289.252 367.759 285.951 373.002 285.951C378.994 285.951 384.237 290.302 385.285 296.303L373.002 298.553Z" fill="#FF7898"/>
<path d="M373.002 298.553L385.285 296.453C385.435 297.203 385.435 297.953 385.435 298.553C385.435 305.455 379.743 311.006 373.002 311.006C366.261 311.006 360.568 305.305 360.568 298.553C360.568 297.053 360.868 295.703 361.317 294.203L373.002 298.553Z" fill="white"/>
<path d="M407.156 296.903H402.362V311.005H407.156V296.903Z" fill="white"/>
<path d="M399.216 304.404H394.423V311.006H399.216V304.404Z" fill="white"/>
<path d="M399.216 300.354H394.423V304.404H399.216V300.354Z" fill="#FF7898"/>
<path d="M407.156 288.351H402.362V296.903H407.156V288.351Z" fill="#FF7898"/>
<path d="M415.245 299.453H410.451V311.006H415.245V299.453Z" fill="white"/>
<path d="M415.245 294.203H410.451V299.454H415.245V294.203Z" fill="#FF7898"/>
<path d="M362.066 260.146H411.8C413.298 260.146 414.196 258.646 413.597 257.296C412.249 254.595 410.601 250.095 410.152 243.944C409.253 233.442 402.063 230.891 399.067 243.944C396.071 256.996 383.937 250.245 378.993 244.094C374.35 238.393 366.86 244.694 360.268 257.296C359.519 258.496 360.568 260.146 362.066 260.146Z" fill="#FF7898"/>
<path d="M360.119 327.358C364.014 327.358 367.01 330.509 367.01 334.26C367.01 338.16 363.864 341.161 360.119 341.161C356.224 341.161 353.228 338.01 353.228 334.26C353.228 330.359 356.374 327.358 360.119 327.358ZM360.119 325.858C355.475 325.858 351.73 329.609 351.73 334.26C351.73 338.911 355.475 342.661 360.119 342.661C364.763 342.661 368.508 338.911 368.508 334.26C368.508 329.609 364.763 325.858 360.119 325.858Z" fill="#4C4C4C"/>
<path d="M382.739 327.358C386.634 327.358 389.63 330.509 389.63 334.26C389.63 338.16 386.484 341.161 382.739 341.161C378.845 341.161 375.849 338.01 375.849 334.26C375.849 330.359 378.845 327.358 382.739 327.358ZM382.739 325.858C378.096 325.858 374.351 329.609 374.351 334.26C374.351 338.911 378.096 342.661 382.739 342.661C387.383 342.661 391.128 338.911 391.128 334.26C391.128 329.609 387.383 325.858 382.739 325.858Z" fill="#FF7898"/>
<path d="M422.137 356.314C422.137 358.264 420.489 359.914 418.542 359.914C416.594 359.914 414.946 358.264 414.946 356.314C414.946 354.363 416.594 352.713 418.542 352.713C420.489 352.713 422.137 354.363 422.137 356.314Z" fill="#FF7898"/>
<path opacity="0.3" d="M406.407 356.314C406.407 358.264 404.759 359.914 402.812 359.914C400.865 359.914 399.217 358.264 399.217 356.314C399.217 354.363 400.865 352.713 402.812 352.713C404.759 352.713 406.407 354.363 406.407 356.314Z" fill="#407BFF"/>
<path d="M390.528 356.314C390.528 358.264 388.881 359.914 386.933 359.914C384.986 359.914 383.338 358.264 383.338 356.314C383.338 354.363 384.986 352.713 386.933 352.713C389.03 352.713 390.528 354.363 390.528 356.314Z" fill="#FF7898"/>
<path d="M374.8 356.314C374.8 358.264 373.152 359.914 371.205 359.914C369.257 359.914 367.609 358.264 367.609 356.314C367.609 354.363 369.257 352.713 371.205 352.713C373.152 352.713 374.8 354.363 374.8 356.314Z" fill="#FF7898"/>
<path d="M359.07 356.314C359.07 358.264 357.422 359.914 355.475 359.914C353.528 359.914 351.88 358.264 351.88 356.314C351.88 354.363 353.528 352.713 355.475 352.713C357.422 352.713 359.07 354.363 359.07 356.314Z" fill="#FF7898"/>
<path d="M517.559 302.604V321.057H596.653V266.448H517.559V273.199" fill="#FFD978"/>
<path opacity="0.7" d="M551.862 266.448H537.781V286.551H551.862V266.448Z" fill="white"/>
<path opacity="0.2" d="M596.504 266.448H571.937V321.057H596.504V266.448Z" fill="black"/>
<path opacity="0.7" d="M588.265 266.448H580.325V286.551H588.265V266.448Z" fill="#FFD978"/>
<path d="M532.838 305.755V314.606H524V305.755H532.838ZM534.186 304.404H522.502V316.106H534.186V304.404Z" fill="white"/>
<path opacity="0.4" d="M550.814 304.404H539.13V316.106H550.814V304.404Z" fill="#263238"/>
<path d="M303.794 275.449H280.575C279.976 275.449 279.377 276.049 279.377 276.649V319.857C279.377 320.457 279.976 321.057 280.575 321.057H303.794C304.394 321.057 304.993 320.457 304.993 319.857V276.649C304.843 275.899 304.394 275.449 303.794 275.449Z" fill="#C1A463"/>
<path d="M302.296 275.449H279.077C278.478 275.449 277.879 276.049 277.879 276.649V319.857C277.879 320.457 278.478 321.057 279.077 321.057H302.296C302.895 321.057 303.495 320.457 303.495 319.857V276.649C303.495 275.899 303.045 275.449 302.296 275.449Z" fill="#FFD978"/>
<path d="M279.377 318.507V277.85C279.377 277.25 279.826 276.799 280.426 276.799H301.098C301.697 276.799 302.147 277.25 302.147 277.85V318.507C302.147 319.107 301.697 319.557 301.098 319.557H280.426C279.826 319.557 279.377 319.107 279.377 318.507Z" fill="white"/>
<path opacity="0.2" d="M290.312 276.799H285.668L282.073 319.557H286.867L290.312 276.799Z" fill="#407BFF"/>
<path opacity="0.2" d="M295.106 276.799H291.96L288.515 319.557H291.511L295.106 276.799Z" fill="#407BFF"/>
<path d="M281.175 232.392H243.275C242.526 232.392 241.927 231.791 242.077 230.891L251.964 178.382C252.113 177.632 252.862 176.882 253.761 176.882H291.661C292.41 176.882 293.009 177.482 292.859 178.382L282.972 230.891C282.822 231.791 282.073 232.392 281.175 232.392Z" fill="#FF7898"/>
<path d="M279.976 230.141H244.174C243.425 230.141 242.976 229.541 243.125 228.791L252.413 179.282C252.563 178.532 253.312 177.932 254.061 177.932H289.713C290.462 177.932 290.912 178.532 290.762 179.282L281.474 228.791C281.324 229.541 280.725 230.141 279.976 230.141Z" fill="white"/>
<path d="M188.898 215.138C189.348 215.289 188.898 215.139 190.097 214.988C191.295 214.838 192.643 214.538 193.991 214.088C199.384 212.438 205.077 210.038 210.619 207.637L214.214 213.338C209.121 217.389 203.878 220.99 197.587 223.84C195.939 224.59 194.291 225.19 192.493 225.79C190.696 226.24 188.599 226.691 185.902 226.541C184.554 226.391 182.906 226.09 181.109 225.04C179.461 223.99 177.963 222.19 177.364 220.389C176.764 218.739 176.465 217.239 176.465 215.889V213.338C176.465 206.737 177.064 200.136 178.412 193.685C179.011 190.384 179.91 187.233 180.959 183.933C181.408 182.283 182.007 180.782 182.756 179.132C183.056 178.382 183.356 177.482 183.805 176.732L184.404 175.531C184.554 175.081 184.854 174.781 185.153 174.181L196.987 180.782L196.688 181.532L196.238 182.433L195.489 184.383C195.04 185.733 194.441 187.083 193.991 188.434C193.093 191.134 192.344 193.985 191.595 196.835C190.396 202.086 189.348 209.137 188.898 215.138Z" fill="#B55B52"/>
<path d="M205.975 127.073C207.473 134.874 210.918 152.127 205.525 157.378C205.525 157.378 207.623 165.329 222.303 165.329C238.332 165.329 229.943 157.378 229.943 157.378C221.254 155.278 221.404 148.827 222.902 142.675L205.975 127.073Z" fill="#B55B52"/>
<path d="M202.23 160.079C202.23 160.079 200.882 155.578 200.283 152.877C199.834 150.177 219.457 151.077 225.899 152.727C232.34 154.378 234.437 162.029 234.437 162.029L202.23 160.079Z" fill="#4857D7"/>
<path d="M241.028 125.272C241.028 125.272 241.927 130.073 243.425 132.774C241.777 133.824 239.53 132.774 239.53 132.774L241.028 125.272Z" fill="#A02724"/>
<path d="M238.781 117.171C238.631 117.171 238.631 117.021 238.482 117.021C238.182 116.721 238.182 116.421 238.482 116.121C240.878 113.72 243.725 114.32 243.874 114.32C244.174 114.32 244.474 114.771 244.324 115.071C244.324 115.371 243.874 115.671 243.575 115.521C243.425 115.521 241.328 115.071 239.231 117.021C239.231 117.321 238.931 117.321 238.781 117.171Z" fill="#263238"/>
<path d="M240.429 123.322C240.279 124.372 240.579 125.272 241.328 125.422C242.077 125.572 242.676 124.822 242.976 123.772C243.125 122.722 242.826 121.822 242.077 121.672C241.478 121.522 240.729 122.272 240.429 123.322Z" fill="#263238"/>
<path d="M241.777 121.672L244.474 121.522C244.474 121.372 242.826 123.172 241.777 121.672Z" fill="#263238"/>
<path d="M138.565 539.196H151.748L156.092 508.591H142.76L138.565 539.196Z" fill="#B55B52"/>
<path d="M153.994 530.195H139.164C138.565 530.195 138.115 530.645 138.115 531.095L136.467 542.947C136.318 544.147 137.366 545.348 138.565 545.348C143.808 545.198 146.204 544.897 152.796 544.897C156.84 544.897 162.682 545.348 168.225 545.348C173.618 545.348 174.067 539.797 171.82 539.346C161.484 537.096 159.836 534.096 156.241 531.095C155.642 530.495 154.893 530.195 153.994 530.195Z" fill="#072C74"/>
<path opacity="0.2" d="M142.759 508.591H156.091L153.844 524.344H140.662L142.759 508.591Z" fill="black"/>
<path d="M196.388 197.585C196.388 197.585 207.474 177.932 204.328 171.331C200.882 164.429 195.19 158.578 188.898 160.529C183.506 162.179 179.461 182.583 179.461 182.583" fill="#4857D7"/>
<path d="M185.003 164.88C186.201 162.329 189.197 159.028 192.343 158.578C196.238 157.978 200.882 157.528 205.526 157.228C214.514 156.778 222.004 156.478 229.943 157.228C234.737 157.678 239.83 158.428 243.874 159.028C249.567 159.929 253.911 165.03 253.911 170.881C253.911 178.382 254.21 191.584 250.465 213.938C250.016 216.939 249.417 220.089 248.668 223.39C248.219 225.64 248.368 227.291 248.518 228.791C248.818 230.891 249.267 232.992 248.668 235.992C248.069 239.443 246.121 238.843 245.971 240.643H192.193C192.193 238.993 189.797 238.243 189.347 234.792C188.149 226.841 192.643 226.24 192.493 221.14C192.193 212.588 191.295 203.136 189.048 190.234" fill="#4857D7"/>
<path opacity="0.4" d="M251.814 195.635C251.515 199.386 251.664 203.736 251.065 208.537C242.227 204.037 240.879 192.484 243.725 186.633C246.721 188.884 249.567 192.484 251.814 195.635Z" fill="black"/>
<path d="M269.34 215.739C271.437 214.538 273.684 212.588 275.931 210.638C278.178 208.687 280.425 206.587 282.523 204.487L287.915 208.387C286.417 211.388 284.77 214.088 282.822 216.789C280.875 219.489 278.778 222.04 275.931 224.59C275.182 225.19 274.433 225.79 273.385 226.39C272.486 226.991 271.288 227.591 269.79 228.041C268.292 228.491 266.194 228.641 263.798 227.741C261.551 226.841 259.903 224.89 259.154 223.69C257.356 220.689 255.858 217.689 254.51 214.688C251.814 208.687 249.716 202.536 247.769 196.535C246.87 193.535 245.822 190.384 245.073 187.384C244.174 184.233 243.425 181.232 242.676 178.082L255.858 175.081C257.356 180.932 259.004 186.933 260.652 192.784C262.449 198.636 264.247 204.487 266.344 210.038C267.393 212.438 267.992 213.188 269.34 215.739Z" fill="#B55B52"/>
<path d="M241.478 198.936C241.478 198.936 231.591 176.432 233.988 169.53C237.134 160.379 244.923 156.178 251.664 163.829C258.555 171.631 261.551 185.883 261.551 185.883" fill="#4857D7"/>
<path d="M288.964 207.937C289.863 205.237 287.017 202.386 287.916 196.985C288.215 195.035 286.568 194.285 286.418 195.185C285.819 198.636 281.025 204.037 279.677 207.487" fill="#B55B52"/>
<path d="M285.369 211.088C287.766 210.638 290.013 209.738 291.811 208.237L292.11 207.937C292.859 207.337 293.159 206.437 293.009 205.537L292.709 202.536C292.56 199.386 290.313 195.785 288.066 200.436L286.867 201.336" fill="#B55B52"/>
<path d="M206.124 112.37C204.327 125.422 203.128 130.823 208.371 138.775C216.011 150.777 232.489 150.177 238.182 138.025C243.275 127.073 245.522 107.569 233.987 99.9178C222.602 92.2664 207.922 99.3177 206.124 112.37Z" fill="#B55B52"/>
<path d="M232.04 122.272C237.283 118.821 242.826 114.02 242.377 107.419C241.927 100.818 233.538 94.5168 222.004 94.5168C206.724 94.5168 207.323 104.569 207.323 104.569C204.327 104.869 174.517 131.423 211.518 141.625C248.369 151.827 232.04 122.272 232.04 122.272Z" fill="#4C4C4C"/>
<path d="M201.331 105.319C201.331 105.319 199.833 108.619 200.282 110.12C205.226 111.47 222.752 112.22 231.591 110.57C232.34 108.769 235.485 105.769 235.485 105.769L201.331 105.319Z" fill="white"/>
<path d="M199.983 106.971C200.732 109.671 231.141 108.171 240.878 107.121C244.324 106.671 247.769 105.47 247.769 105.47V104.42H243.575C243.575 104.42 240.878 86.1168 222.303 86.1168C206.424 86.1168 197.136 97.2188 199.983 106.971Z" fill="#7886FF"/>
<path opacity="0.2" d="M214.064 104.719C214.064 104.719 213.914 104.719 214.064 104.719C213.615 104.719 213.465 104.419 213.465 104.119C215.562 90.7662 225.299 86.1154 225.599 85.9654C225.898 85.8153 226.198 85.9654 226.348 86.2654C226.497 86.5655 226.348 86.8655 226.048 87.0155C225.898 87.0155 216.461 91.5163 214.513 104.269C214.513 104.419 214.364 104.719 214.064 104.719Z" fill="black"/>
<path d="M237.134 120.772C238.032 123.622 237.583 126.623 236.684 128.873C235.186 132.324 232.04 131.423 230.393 128.573C228.895 125.872 227.996 120.922 230.393 118.521C232.789 116.121 236.085 117.621 237.134 120.772Z" fill="#B55B52"/>
<path d="M191.594 383.018C178.112 424.426 156.391 521.193 156.391 521.193H138.415C138.415 521.193 144.707 460.282 152.496 415.274C153.545 409.423 154.593 404.022 155.642 398.921C156.541 394.421 157.589 390.22 158.488 386.469C184.553 282.801 167.626 274.399 192.343 240.793H231.89L191.594 383.018Z" fill="#7886FF"/>
<path opacity="0.4" d="M206.874 267.048C199.085 295.553 199.684 326.608 202.98 341.911C207.773 325.258 212.567 308.005 216.911 292.402C215.563 284.001 211.069 274.099 206.874 267.048Z" fill="black"/>
<path d="M159.088 521.643H136.019L136.618 513.542L161.185 512.792L159.088 521.643Z" fill="#072C74"/>
<path d="M227.696 539.196H240.878L239.83 508.591H226.647L227.696 539.196Z" fill="#B55B52"/>
<path d="M241.927 530.195H227.096C226.497 530.195 226.048 530.645 226.048 531.095L224.4 542.947C224.25 544.147 225.299 545.348 226.497 545.348C231.74 545.198 234.137 544.897 240.728 544.897C244.773 544.897 250.615 545.348 256.158 545.348C261.55 545.348 262 539.797 259.753 539.346C249.417 537.096 247.769 534.096 244.174 531.095C243.425 530.495 242.676 530.195 241.927 530.195Z" fill="#072C74"/>
<path opacity="0.2" d="M226.647 508.591H239.83L240.429 524.344H227.097L226.647 508.591Z" fill="black"/>
<path d="M245.971 240.793C245.971 240.793 245.971 331.709 242.376 383.018C239.38 424.426 242.526 521.193 242.526 521.193H224.55C224.55 521.193 210.169 427.276 210.019 386.319C209.42 282.65 190.396 274.249 206.424 240.643H245.971V240.793Z" fill="#7886FF"/>
<path d="M245.072 521.643H222.003L220.805 513.542L245.222 512.792L245.072 521.643Z" fill="#072C74"/>
<path d="M191.295 237.642L188.898 242.443C188.748 242.743 189.198 243.193 189.797 243.193H246.122C246.571 243.193 247.021 242.893 247.021 242.593L247.47 237.792C247.47 237.492 247.021 237.192 246.571 237.192H192.194C191.894 237.192 191.445 237.342 191.295 237.642Z" fill="white"/>
<path d="M198.635 243.794H197.137C196.837 243.794 196.688 243.644 196.688 243.494L197.436 237.192C197.436 237.042 197.736 236.892 198.036 236.892H199.534C199.833 236.892 199.983 237.042 199.983 237.192L199.234 243.494C199.234 243.644 198.934 243.794 198.635 243.794Z" fill="#072C74"/>
<path d="M233.987 243.794H232.489C232.19 243.794 232.04 243.644 232.04 243.494L232.789 237.192C232.789 237.042 233.089 236.892 233.388 236.892H234.886C235.186 236.892 235.336 237.042 235.336 237.192L234.587 243.494C234.587 243.644 234.287 243.794 233.987 243.794Z" fill="#072C74"/>
</svg>
