<svg width="79" height="64" viewBox="0 0 79 64" fill="none" xmlns="http://www.w3.org/2000/svg">
<path d="M32.9761 17.883H50.495C51.5996 17.883 52.495 18.7784 52.495 19.883V25.3552M32.9761 17.883C32.9761 26.4367 26.0418 33.371 17.488 33.371C8.93421 33.371 2 26.4368 2 17.883C2 9.32923 8.93421 2.39502 17.488 2.39502C26.0418 2.39502 32.9761 9.32919 32.9761 17.883ZM6.91001 29.5244V53.1086C6.91001 54.2131 7.80544 55.1086 8.91001 55.1086H15.0616M52.495 55.1086V25.3552M52.495 55.1086H30.4137M52.495 55.1086H54.6688M52.495 25.3552H61.0542M61.0542 25.3552H68.6107C69.2417 25.3552 69.8357 25.653 70.2132 26.1587L76.824 35.0125C77.0821 35.358 77.2215 35.7778 77.2215 36.209V38.3978M61.0542 25.3552V36.3978C61.0542 37.5024 61.9496 38.3978 63.0542 38.3978H77.2215M77.2215 38.3978V53.1086C77.2215 54.2131 76.326 55.1086 75.2215 55.1086H69.885M17.488 8.40473V15.9597C17.488 17.0219 18.3491 17.883 19.4113 17.883H23.5698" stroke="white" stroke-width="3" stroke-linecap="round" stroke-linejoin="round"/>
<circle cx="22.6706" cy="54.8369" r="7.60813" stroke="white" stroke-width="3" stroke-linecap="round" stroke-linejoin="round"/>
<circle cx="62.2771" cy="54.8369" r="7.60813" stroke="white" stroke-width="3" stroke-linecap="round" stroke-linejoin="round"/>
</svg>
