<svg width="27" height="26" viewBox="0 0 27 26" fill="none" xmlns="http://www.w3.org/2000/svg">
<path d="M21.5654 0.363629L26.3658 5.03339C26.868 5.52187 26.868 6.30928 26.3621 6.79411L21.5616 11.4639C21.0632 11.9487 20.25 11.9487 19.7516 11.4639L15.9892 7.80389C15.7007 7.556 14.7151 6.80505 13.3773 6.80505C11.7734 6.80505 10.6754 7.88409 10.6754 7.88409V7.87315L8.05224 10.4249C7.83114 10.6582 6.99547 11.6389 6.99547 12.9694C6.99547 14.2927 7.8199 15.3098 8.04474 15.565L11.7847 19.2031C12.2831 19.6879 12.2831 20.4789 11.7847 20.9638L6.98423 25.6335C6.48582 26.1184 5.67264 26.1184 5.17423 25.6335L0.373804 20.9638C-0.124601 20.4789 -0.124601 19.6879 0.373804 19.2031L4.1362 15.5394C4.39102 15.2587 5.16299 14.3 5.16299 12.9986C5.16299 11.6425 4.32732 10.6582 4.10622 10.4249L0.373804 6.79411C-0.124601 6.30928 -0.124601 5.51823 0.373804 5.03339L5.17798 0.363629C5.67638 -0.12121 6.48957 -0.12121 6.98797 0.363629L10.6792 3.95435V3.94341C10.6792 3.94341 11.7772 5.02245 13.3511 5.02245C14.7076 5.02245 15.7532 4.22046 16.0155 4.00174L19.7554 0.363629C20.2538 -0.12121 21.067 -0.12121 21.5654 0.363629Z" fill="#072C74"/>
<path d="M26.366 19.2032L21.5655 14.5334C21.0634 14.0449 20.2539 14.0449 19.7518 14.5334L14.9514 19.2032C14.453 19.688 14.453 20.479 14.9514 20.9639L19.7555 25.6336C20.2539 26.1221 21.0671 26.1221 21.5655 25.6336L26.366 20.9639C26.8644 20.479 26.8644 19.688 26.366 19.2032Z" fill="#072C74"/>
</svg>
