<svg width="182" height="45" viewBox="0 0 182 45" fill="none" xmlns="http://www.w3.org/2000/svg">
<path d="M36.0088 24.6919L44.0242 32.6252C44.8564 33.4489 44.8564 34.7928 44.0242 35.6164L36.0088 43.5497C35.1766 44.3796 33.8188 44.3796 32.9866 43.5497L24.965 35.6164C24.1328 34.7928 24.1328 33.4489 24.965 32.6252L32.9804 24.6919C33.8188 23.862 35.1703 23.862 36.0088 24.6919Z" fill="#072C74"/>
<path d="M44.0236 8.55255L36.0082 0.619252C35.176 -0.204424 33.8182 -0.204424 32.986 0.619252L26.7414 6.79992C26.3034 7.1715 24.5577 8.53397 22.2926 8.53397C19.6646 8.53397 17.8313 6.70083 17.8313 6.70083V6.71941L11.668 0.619252C10.8358 -0.204424 9.47799 -0.204424 8.64579 0.619252L0.624149 8.55255C-0.20805 9.37623 -0.20805 10.7201 0.624149 11.5438L6.85625 17.7121C7.22542 18.1084 8.62076 19.7806 8.62076 22.0844C8.62076 24.2953 7.33179 25.9241 6.90631 26.4009L0.624149 32.6249C-0.20805 33.4486 -0.20805 34.7925 0.624149 35.6162L8.63953 43.5495C9.47173 44.3732 10.8295 44.3732 11.6617 43.5495L19.6771 35.6162C20.5093 34.7925 20.5093 33.4486 19.6771 32.6249L13.4325 26.4443C13.0571 26.0108 11.6805 24.2829 11.6805 22.0348C11.6805 19.7744 13.0758 18.1084 13.445 17.7121L17.825 13.3769V13.3955C17.825 13.3955 19.6583 11.5624 22.3364 11.5624C24.5702 11.5624 26.2158 12.8381 26.6976 13.2593L32.9798 19.4771C33.812 20.3008 35.1698 20.3008 36.002 19.4771L44.0173 11.5438C44.8621 10.7201 44.8621 9.38242 44.0236 8.55255Z" fill="#072C74"/>
<path d="M67.539 35.0467H56.6641V8.21838H67.539C74.8723 8.25554 80.7665 14.2628 80.7665 21.6325C80.7665 29.0332 74.8723 35.0095 67.539 35.0467ZM74.9849 21.6325C74.9849 17.3036 71.9127 13.049 67.5014 12.9746H62.4457V30.2842H67.5014C71.9502 30.2533 74.9849 25.9615 74.9849 21.6325Z" fill="#072C74"/>
<path d="M93.5231 20.9884C90.3445 20.9884 89.6187 23.348 89.6187 27.6769V35.0467H84.0186V16.8019H89.6187V19.8056C90.1943 17.799 91.6085 16.6223 94.0988 16.6223C95.4378 16.6223 96.4139 17.1611 96.9896 17.8733L96.1949 22.128C95.9447 21.8802 95.0436 20.9884 93.5231 20.9884Z" fill="#072C74"/>
<path d="M117.739 25.9615C117.739 31.9378 113.222 35.2263 108.091 35.2263C102.96 35.2263 98.4424 31.9378 98.4424 25.9615C98.4424 19.9914 102.96 16.6285 108.091 16.6285C113.222 16.6223 117.739 19.9852 117.739 25.9615ZM104.043 25.9615C104.043 28.8227 105.382 30.8602 108.091 30.8602C110.8 30.8602 112.139 28.8227 112.139 25.9615C112.139 23.0631 110.8 20.9884 108.091 20.9884C105.382 20.9884 104.043 23.0631 104.043 25.9615Z" fill="#072C74"/>
<path d="M126.593 32.6128V41.6609H120.993V16.8019H126.593V19.2358C128.145 17.1983 130.679 16.6223 132.519 16.6223C137.074 16.6223 140.647 19.7684 140.647 25.9243C140.647 31.721 137.068 35.2263 132.519 35.2263C130.679 35.2263 128.151 34.6503 126.593 32.6128ZM126.593 25.9243C126.593 28.8227 128.114 30.8602 130.823 30.8602C133.532 30.8602 135.053 28.8227 135.053 25.9243C135.053 23.0631 133.532 20.9884 130.823 20.9884C128.114 20.9884 126.593 23.0631 126.593 25.9243Z" fill="#072C74"/>
<path d="M148.425 27.6026C148.425 29.6773 150.483 30.854 152.542 30.854C153.987 30.854 155.652 30.2842 156.734 29.1385L160.057 32.1793C158.105 34.0744 155.614 35.2201 152.248 35.2201C146.391 35.2201 142.818 31.1079 142.818 25.8871C142.818 20.6664 146.397 16.6223 151.922 16.6223C157.56 16.6223 161.064 20.5921 161.064 25.8871V27.7141L148.425 27.6026ZM151.929 20.9884C149.977 20.9884 148.425 22.2766 148.425 24.246H155.47C155.47 22.2766 153.956 20.9884 151.929 20.9884Z" fill="#072C74"/>
<path d="M182 35.0467H175.855L172.095 29.4667L168.34 35.0467H162.158L168.878 25.8871L162.158 16.8019H168.303L172.057 22.3447L175.855 16.8019H182L175.311 25.8871L182 35.0467Z" fill="#072C74"/>
</svg>
