<svg width="206" height="50" viewBox="0 0 206 50" fill="none" xmlns="http://www.w3.org/2000/svg">
<path d="M40.7563 27.8846L49.8286 36.8441C50.7706 37.7743 50.7706 39.2921 49.8286 40.2223L40.7563 49.1819C39.8144 50.1191 38.2776 50.1191 37.3356 49.1819L28.2563 40.2223C27.3143 39.2921 27.3143 37.7743 28.2563 36.8441L37.3286 27.8846C38.2776 26.9473 39.8073 26.9473 40.7563 27.8846Z" fill="white"/>
<path d="M49.8286 9.65739L40.7563 0.697682C39.8144 -0.232561 38.2775 -0.232561 37.3356 0.697682L30.2676 7.678C29.7718 8.09766 27.7959 9.6364 25.2321 9.6364C22.2576 9.6364 20.1825 7.56609 20.1825 7.56609V7.58707L13.2065 0.697682C12.2646 -0.232561 10.7278 -0.232561 9.78583 0.697682L0.70645 9.65739C-0.235483 10.5876 -0.235483 12.1054 0.70645 13.0356L7.76032 20.002C8.17817 20.4496 9.7575 22.3381 9.7575 24.9399C9.7575 27.4369 8.29857 29.2764 7.81698 29.815L0.70645 36.8442C-0.235483 37.7745 -0.235483 39.2923 0.70645 40.2225L9.77875 49.1822C10.7207 50.1124 12.2575 50.1124 13.1995 49.1822L22.2718 40.2225C23.2137 39.2923 23.2137 37.7745 22.2718 36.8442L15.2037 29.8639C14.7788 29.3743 13.2207 27.4229 13.2207 24.884C13.2207 22.3311 14.8 20.4496 15.2179 20.002L20.1754 15.1059V15.1269C20.1754 15.1269 22.2505 13.0566 25.2817 13.0566C27.81 13.0566 29.6727 14.4974 30.218 14.9731L37.3285 21.9953C38.2704 22.9256 39.8073 22.9256 40.7492 21.9953L49.8215 13.0356C50.7776 12.1054 50.7776 10.5946 49.8286 9.65739Z" fill="white"/>
<path d="M76.4436 39.5801H64.1348V9.2793H76.4436C84.744 9.32126 91.4154 16.1061 91.4154 24.4297C91.4154 32.7883 84.744 39.5381 76.4436 39.5801ZM84.8714 24.4297C84.8714 19.5404 81.3941 14.7351 76.4011 14.6512H70.6787V34.2012H76.4011C81.4366 34.1662 84.8714 29.3189 84.8714 24.4297Z" fill="white"/>
<path d="M105.856 23.7024C102.259 23.7024 101.437 26.3671 101.437 31.2561V39.5791H95.0986V18.9743H101.437V22.3665C102.089 20.1004 103.689 18.7715 106.508 18.7715C108.024 18.7715 109.128 19.38 109.78 20.1843L108.881 24.9893C108.597 24.7095 107.577 23.7024 105.856 23.7024Z" fill="white"/>
<path d="M133.264 29.3187C133.264 36.0682 128.151 39.7822 122.344 39.7822C116.536 39.7822 111.423 36.0682 111.423 29.3187C111.423 22.5762 116.536 18.7783 122.344 18.7783C128.151 18.7713 133.264 22.5692 133.264 29.3187ZM117.761 29.3187C117.761 32.5501 119.277 34.8512 122.344 34.8512C125.41 34.8512 126.926 32.5501 126.926 29.3187C126.926 26.0454 125.41 23.7023 122.344 23.7023C119.277 23.7023 117.761 26.0454 117.761 29.3187Z" fill="white"/>
<path d="M143.286 36.831V47.0498H136.947V18.9743H143.286V21.7231C145.042 19.422 147.911 18.7715 149.993 18.7715C155.149 18.7715 159.193 22.3246 159.193 29.2771C159.193 35.8238 155.141 39.7826 149.993 39.7826C147.911 39.7826 145.049 39.1322 143.286 36.831ZM143.286 29.2771C143.286 32.5504 145.007 34.8516 148.073 34.8516C151.14 34.8516 152.861 32.5504 152.861 29.2771C152.861 26.0457 151.14 23.7025 148.073 23.7025C145.007 23.7025 143.286 26.0457 143.286 29.2771Z" fill="white"/>
<path d="M167.996 31.1724C167.996 33.5155 170.326 34.8444 172.656 34.8444C174.292 34.8444 176.176 34.2009 177.401 32.907L181.162 36.3412C178.952 38.4814 176.134 39.7754 172.323 39.7754C165.694 39.7754 161.65 35.1312 161.65 29.235C161.65 23.3388 165.701 18.7715 171.955 18.7715C178.336 18.7715 182.302 23.2548 182.302 29.235V31.2983L167.996 31.1724ZM171.962 23.7025C169.752 23.7025 167.996 25.1573 167.996 27.3815H175.971C175.971 25.1573 174.257 23.7025 171.962 23.7025Z" fill="white"/>
<path d="M205.999 39.5791H199.044L194.788 33.2772L190.538 39.5791H183.541L191.147 29.2344L183.541 18.9736H190.496L194.745 25.2336L199.044 18.9736H205.999L198.428 29.2344L205.999 39.5791Z" fill="white"/>
</svg>
