<svg width="654" height="549" viewBox="0 0 654 549" fill="none" xmlns="http://www.w3.org/2000/svg">
<path d="M213.314 88.6136H97.7021C92.8589 88.6136 88.7969 92.4807 88.7969 97.4305V434.792H222.063V97.2758C222.219 92.4807 218.313 88.6136 213.314 88.6136Z" fill="#C2D5F9"/>
<path d="M117.074 109.032H99.8887V146.929H117.074V109.032Z" fill="white"/>
<path d="M211.126 109.032H193.94V146.929H211.126V109.032Z" fill="white"/>
<path d="M148.477 109.032H131.292V146.929H148.477V109.032Z" fill="white"/>
<path d="M179.88 109.032H162.694V146.929H179.88V109.032Z" fill="white"/>
<path d="M117.074 168.739H99.8887V206.636H117.074V168.739Z" fill="white"/>
<path d="M211.126 168.739H193.94V206.636H211.126V168.739Z" fill="white"/>
<path d="M148.477 168.739H131.292V206.636H148.477V168.739Z" fill="white"/>
<path d="M179.88 168.739H162.694V206.636H179.88V168.739Z" fill="white"/>
<path d="M117.074 228.601H99.8887V266.498H117.074V228.601Z" fill="white"/>
<path d="M211.126 228.601H193.94V266.498H211.126V228.601Z" fill="white"/>
<path d="M148.477 228.601H131.292V266.498H148.477V228.601Z" fill="white"/>
<path d="M179.88 228.601H162.694V266.498H179.88V228.601Z" fill="white"/>
<path d="M117.074 288.463H99.8887V326.36H117.074V288.463Z" fill="white"/>
<path d="M211.126 288.463H193.94V326.36H211.126V288.463Z" fill="white"/>
<path d="M148.477 288.463H131.292V326.36H148.477V288.463Z" fill="white"/>
<path d="M179.88 288.463H162.694V326.36H179.88V288.463Z" fill="white"/>
<path d="M117.074 348.17H99.8887V386.067H117.074V348.17Z" fill="white"/>
<path d="M211.126 348.17H193.94V386.067H211.126V348.17Z" fill="white"/>
<path d="M148.477 348.17H131.292V386.067H148.477V348.17Z" fill="white"/>
<path d="M179.88 348.17H162.694V386.067H179.88V348.17Z" fill="white"/>
<path d="M590.456 120.014H507.653C503.748 120.014 500.467 123.262 500.467 127.129V434.637H597.643V127.129C597.799 123.262 594.518 120.014 590.456 120.014Z" fill="#C2D5F9"/>
<path d="M528.433 138.576H512.81V173.07H528.433V138.576Z" fill="white"/>
<path d="M556.866 138.576H541.243V173.07H556.866V138.576Z" fill="white"/>
<path d="M585.457 138.576H569.834V173.07H585.457V138.576Z" fill="white"/>
<path d="M528.433 193.024H512.81V227.518H528.433V193.024Z" fill="white"/>
<path d="M556.866 193.024H541.243V227.518H556.866V193.024Z" fill="white"/>
<path d="M585.457 193.024H569.834V227.518H585.457V193.024Z" fill="white"/>
<path d="M528.433 247.317H512.81V281.811H528.433V247.317Z" fill="white"/>
<path d="M556.866 247.317H541.243V281.811H556.866V247.317Z" fill="white"/>
<path d="M585.457 247.317H569.834V281.811H585.457V247.317Z" fill="white"/>
<path d="M528.433 301.765H512.81V336.26H528.433V301.765Z" fill="white"/>
<path d="M556.866 301.765H541.243V336.26H556.866V301.765Z" fill="white"/>
<path d="M585.457 301.765H569.834V336.26H585.457V301.765Z" fill="white"/>
<path d="M528.433 356.059H512.81V390.553H528.433V356.059Z" fill="white"/>
<path d="M556.866 356.059H541.243V390.553H556.866V356.059Z" fill="white"/>
<path d="M585.457 356.059H569.834V390.553H585.457V356.059Z" fill="white"/>
<path d="M452.505 32H317.989C312.365 32 307.678 36.6405 307.678 42.209V434.637H462.816V42.209C462.816 36.6405 458.129 32 452.505 32Z" fill="#C2D5F9"/>
<path d="M340.487 55.821H320.489V99.9054H340.487V55.821Z" fill="white"/>
<path d="M449.849 55.821H429.852V99.9054H449.849V55.821Z" fill="white"/>
<path d="M377.045 55.821H357.047V99.9054H377.045V55.821Z" fill="white"/>
<path d="M413.448 55.821H393.45V99.9054H413.448V55.821Z" fill="white"/>
<path d="M340.487 125.428H320.489V169.512H340.487V125.428Z" fill="white"/>
<path d="M449.849 125.428H429.852V169.512H449.849V125.428Z" fill="white"/>
<path d="M377.045 125.428H357.047V169.512H377.045V125.428Z" fill="white"/>
<path d="M413.448 125.428H393.45V169.512H413.448V125.428Z" fill="white"/>
<path d="M340.487 194.88H320.489V238.965H340.487V194.88Z" fill="white"/>
<path d="M449.849 194.88H429.852V238.965H449.849V194.88Z" fill="white"/>
<path d="M377.045 194.88H357.047V238.965H377.045V194.88Z" fill="white"/>
<path d="M413.448 194.88H393.45V238.965H413.448V194.88Z" fill="white"/>
<path d="M340.487 264.487H320.489V308.571H340.487V264.487Z" fill="white"/>
<path d="M449.849 264.487H429.852V308.571H449.849V264.487Z" fill="white"/>
<path d="M377.045 264.487H357.047V308.571H377.045V264.487Z" fill="white"/>
<path d="M413.448 264.487H393.45V308.571H413.448V264.487Z" fill="white"/>
<path d="M340.487 334.094H320.489V378.178H340.487V334.094Z" fill="white"/>
<path d="M449.849 334.094H429.852V378.178H449.849V334.094Z" fill="white"/>
<path d="M377.045 334.094H357.047V378.178H377.045V334.094Z" fill="white"/>
<path d="M413.448 334.094H393.45V378.178H413.448V334.094Z" fill="white"/>
<path d="M307.678 176.164H222.22V434.637H307.678V176.164Z" fill="#F1F6FF"/>
<path d="M500.623 203.852H462.815V434.637H500.623V203.852Z" fill="#F1F6FF"/>
<path d="M88.9532 434.637H14.1182V326.669L88.9532 301.765V434.637Z" fill="#F1F6FF"/>
<path d="M313 495C470.401 495 598 486.717 598 476.5C598 466.283 470.401 458 313 458C155.599 458 28 466.283 28 476.5C28 486.717 155.599 495 313 495Z" fill="#E0E6F0"/>
<path d="M385.351 406.741C405.251 406.741 421.441 422.77 421.441 442.473C421.441 462.175 405.251 478.204 385.351 478.204H378.1V406.741H385.351Z" fill="#4C4C4C"/>
<path d="M122.604 406.741C142.504 406.741 158.694 422.77 158.694 442.473C158.694 462.175 142.504 478.204 122.604 478.204H115.353V406.741H122.604Z" fill="#4C4C4C"/>
<path d="M241.667 478.037C261.599 478.037 277.757 462.04 277.757 442.306C277.757 422.572 261.599 406.574 241.667 406.574C221.735 406.574 205.577 422.572 205.577 442.306C205.577 462.04 221.735 478.037 241.667 478.037Z" fill="#4C4C4C"/>
<path d="M504.414 478.037C524.346 478.037 540.504 462.04 540.504 442.306C540.504 422.572 524.346 406.574 504.414 406.574C484.482 406.574 468.324 422.572 468.324 442.306C468.324 462.04 484.482 478.037 504.414 478.037Z" fill="#4C4C4C"/>
<path d="M201.446 425.178L338.216 425.178L338.216 253.031L201.446 253.031L201.446 425.178Z" fill="#407BFF"/>
<path opacity="0.2" d="M201.446 425.178L338.216 425.178L338.216 253.031L201.446 253.031L201.446 425.178Z" fill="black"/>
<path d="M202.542 425.275H32.5488V350.472C32.5488 344.962 34.5726 339.619 38.1141 335.277L91.0682 273.832C102.367 260.641 119.063 253.128 136.433 253.128H202.373V425.275H202.542Z" fill="#7886FF"/>
<path d="M174.547 343.459V280.177C174.547 274.5 169.825 269.825 164.091 269.825H147.732C130.531 269.825 114.172 277.338 102.873 290.362L62.9047 336.78C61.2182 338.617 60.375 341.121 60.375 343.459C60.375 349.136 65.097 353.811 70.8309 353.811H163.922C169.993 353.811 174.547 349.136 174.547 343.459Z" fill="white"/>
<path d="M32.5488 404.904H53.4606C58.3513 404.904 61.5555 399.561 59.1945 395.387L55.653 389.042C54.4725 387.038 52.2801 385.703 49.9191 385.703H32.5488V404.904Z" fill="white"/>
<path d="M232.617 425.156L563.327 425.156L563.327 224.123L232.617 224.123L232.617 425.156Z" fill="#407BFF"/>
<path opacity="0.6" d="M232.617 425.156L563.327 425.156L563.327 224.123L232.617 224.123L232.617 425.156Z" fill="white"/>
<path d="M368.666 329.409L386.421 347.161C388.265 349.005 388.265 352.012 386.421 353.855L368.666 371.607C366.823 373.464 363.815 373.464 361.972 371.607L344.203 353.855C342.359 352.012 342.359 349.005 344.203 347.161L361.958 329.409C363.815 327.552 366.809 327.552 368.666 329.409Z" fill="#E7EDFF"/>
<path d="M386.414 293.974L368.677 276.371C366.836 274.543 363.832 274.543 361.99 276.371L348.172 290.085C347.203 290.91 343.34 293.933 338.328 293.933C332.513 293.933 328.456 289.865 328.456 289.865V289.906L314.818 276.371C312.977 274.543 309.972 274.543 308.131 276.371L290.381 293.974C288.54 295.802 288.54 298.784 290.381 300.611L304.171 314.298C304.988 315.178 308.076 318.888 308.076 324C308.076 328.906 305.223 332.52 304.282 333.578L290.381 347.389C288.54 349.216 288.54 352.198 290.381 354.026L308.117 371.629C309.959 373.457 312.963 373.457 314.805 371.629L332.541 354.026C334.382 352.198 334.382 349.216 332.541 347.389L318.723 333.674C317.892 332.712 314.846 328.878 314.846 323.89C314.846 318.874 317.934 315.178 318.751 314.298L328.442 304.679V304.72C328.442 304.72 332.499 300.653 338.425 300.653C343.368 300.653 347.009 303.483 348.075 304.418L361.976 318.215C363.818 320.042 366.822 320.042 368.664 318.215L386.4 300.611C388.269 298.784 388.269 295.815 386.414 293.974Z" fill="#E7EDFF"/>
<path opacity="0.5" d="M417.486 406.69L473.812 406.69L473.813 394.668L417.486 394.668L417.486 406.69Z" fill="#407BFF"/>
<path opacity="0.5" d="M547.857 406.69L563.372 406.69L563.372 394.668L547.857 394.668L547.857 406.69Z" fill="#407BFF"/>
<path opacity="0.4" d="M449.227 425.156L563.398 425.156L563.398 224.123L449.227 224.123L449.227 425.156Z" fill="#407BFF"/>
<path opacity="0.4" d="M512.023 425.156L513.878 425.156L513.878 224.123L512.023 224.123L512.023 425.156Z" fill="#407BFF"/>
<path d="M30.8624 439.133H564.957C566.474 439.133 567.655 437.964 567.655 436.462V427.946C567.655 426.443 566.474 425.275 564.957 425.275H30.8624C29.3446 425.275 28.1641 426.443 28.1641 427.946V436.462C28.1641 437.964 29.3446 439.133 30.8624 439.133Z" fill="#4C4C4C"/>
<path d="M115.352 478.037C135.284 478.037 151.442 462.04 151.442 442.306C151.442 422.572 135.284 406.574 115.352 406.574C95.4206 406.574 79.2627 422.572 79.2627 442.306C79.2627 462.04 95.4206 478.037 115.352 478.037Z" fill="#4C4C4C"/>
<path d="M115.353 465.348C128.206 465.348 138.626 455.031 138.626 442.306C138.626 429.58 128.206 419.264 115.353 419.264C102.5 419.264 92.0801 429.58 92.0801 442.306C92.0801 455.031 102.5 465.348 115.353 465.348Z" fill="white"/>
<path d="M378.099 478.037C398.031 478.037 414.189 462.04 414.189 442.306C414.189 422.572 398.031 406.574 378.099 406.574C358.168 406.574 342.01 422.572 342.01 442.306C342.01 462.04 358.168 478.037 378.099 478.037Z" fill="#4C4C4C"/>
<path d="M378.1 465.348C390.953 465.348 401.373 455.031 401.373 442.306C401.373 429.58 390.953 419.264 378.1 419.264C365.247 419.264 354.827 429.58 354.827 442.306C354.827 455.031 365.247 465.348 378.1 465.348Z" fill="white"/>
<path d="M535.739 451.587L543.487 481.952L556.561 504.166C557.53 505.764 556.884 507.841 555.27 508.64C554.302 509.12 553.172 509.12 552.365 508.64C546.554 505.444 524.924 493.778 524.44 491.54C523.956 488.983 514.109 460.057 514.109 460.057L535.739 451.587Z" fill="#FF7898"/>
<path d="M432.597 456.221L434.372 481.632C434.372 481.632 408.707 490.102 408.546 494.737L458.584 495.056L457.616 455.263L432.597 456.221Z" fill="#FF7898"/>
<g opacity="0.3">
<g opacity="0.3">
<g opacity="0.3">
<g opacity="0.3">
<path opacity="0.3" d="M432.919 461.336L433.242 465.81L457.777 464.851V460.856L432.919 461.336Z" fill="black"/>
</g>
</g>
</g>
</g>
<path d="M433.565 470.605C433.565 470.764 434.534 470.764 436.148 470.445C436.955 470.285 437.762 469.965 438.731 469.646C439.215 469.486 439.699 469.166 440.183 468.847C440.345 468.687 440.668 468.527 440.99 468.207C441.313 467.888 441.313 467.249 440.99 466.929C440.668 466.609 440.345 466.45 439.861 466.45C439.538 466.45 439.215 466.609 438.892 466.609C438.408 466.769 437.762 466.929 437.278 467.249C436.309 467.728 435.502 468.207 435.018 468.847C433.888 469.965 433.565 470.924 433.565 470.924C433.727 470.924 434.211 470.285 435.341 469.326C435.987 468.847 436.632 468.367 437.601 468.048C438.085 467.888 438.569 467.728 439.054 467.568C439.538 467.408 440.022 467.408 440.183 467.568C440.183 467.728 440.183 467.728 440.183 467.888C440.022 468.048 439.861 468.207 439.699 468.367C439.215 468.687 438.892 469.007 438.408 469.166C437.601 469.646 436.794 469.965 435.987 470.125C434.373 470.285 433.565 470.445 433.565 470.605Z" fill="#4C4C4C"/>
<path d="M433.887 470.924C434.049 470.924 434.372 470.125 434.533 468.527C434.533 467.728 434.372 466.769 434.049 465.81C433.887 465.331 433.726 464.851 433.403 464.372C433.08 463.892 432.758 463.253 431.789 463.093C431.305 463.093 430.821 463.413 430.821 463.893C430.659 464.212 430.659 464.532 430.659 464.851C430.659 465.491 430.659 465.97 430.659 466.45C430.821 467.568 431.305 468.367 431.789 469.007C432.758 470.285 433.887 470.445 433.887 470.445C433.887 470.285 433.08 469.806 432.273 468.687C431.95 468.048 431.466 467.249 431.466 466.45C431.466 465.97 431.466 465.491 431.466 465.011C431.466 464.532 431.789 464.052 431.951 464.052C432.273 464.052 432.596 464.372 432.919 464.851C433.242 465.331 433.403 465.81 433.565 466.13C433.888 467.089 434.049 467.888 434.049 468.527C433.887 469.965 433.726 470.924 433.887 470.924Z" fill="#4C4C4C"/>
<path d="M432.434 234.081L508.784 233.601L545.586 473.162L513.949 477.157L473.434 280.107L461.166 477.796V478.436L426.946 477.796L432.434 234.081Z" fill="#485099"/>
<path d="M442.5 122L419.036 152.576L446.961 174.31L468.59 153.535L442.5 122Z" fill="#4857D7"/>
<path d="M442.602 122.691C447.121 119.974 462.456 116.618 462.456 116.618L492.156 113.421L517.982 125.088L507.329 169.037L516.529 251.82L428.074 256.614L439.026 155.648L440.272 144.163L442.602 122.691Z" fill="#4857D7"/>
<path d="M493.125 159.448H477.952V163.443H493.125V159.448Z" fill="#E0E6F0"/>
<path d="M493.287 163.443H477.952V159.288H493.287V163.443ZM477.952 163.443H493.125V159.448H477.952V163.443Z" fill="#4C4C4C"/>
<path d="M494.74 73.1484L491.511 118.695C491.027 126.207 484.732 131.96 477.146 131.96C468.913 131.96 462.295 125.088 462.78 116.778C463.102 112.463 463.264 108.947 463.264 108.947C463.264 108.947 452.126 107.189 451.965 96.1616C451.965 89.769 452.933 75.3858 453.902 64.1989C454.548 56.6876 460.843 50.9343 468.429 50.9343H475.209C486.992 51.5736 495.708 61.6418 494.74 73.1484Z" fill="#FFBE9D"/>
<path d="M463.264 108.627C463.264 108.627 470.366 109.266 477.791 104.472C477.791 104.472 474.401 112.463 463.264 111.344V108.627Z" fill="#EB996E"/>
<path d="M456.323 78.1026C456.323 78.9017 456.969 79.7008 457.937 79.7008C458.744 79.7008 459.551 79.0615 459.551 78.2624C459.551 77.4634 458.906 76.6643 457.937 76.6643C457.13 76.6643 456.323 77.3036 456.323 78.1026Z" fill="#4C4C4C"/>
<path d="M454.438 73.3873C454.673 73.4962 456.073 72.3452 458.052 71.8786C460.23 71.3654 461.799 71.8165 462.158 71.5676C462.319 71.3654 461.85 71.1476 461.183 70.9765C460.516 70.8054 459.218 70.6187 457.832 70.9453C456.447 71.2719 455.53 71.8163 455.046 72.423C454.328 72.9207 454.24 73.434 454.438 73.3873Z" fill="#4C4C4C"/>
<path d="M472.788 78.1026C472.788 78.9017 473.434 79.7008 474.402 79.7008C475.209 79.7008 476.016 79.0615 476.016 78.2624C476.016 77.4634 475.371 76.6643 474.402 76.6643C473.595 76.6643 472.788 77.3036 472.788 78.1026Z" fill="#4C4C4C"/>
<path d="M472.767 71.0993C472.942 71.3232 474.973 71.1364 477.207 71.854C479.665 72.6433 480.984 73.9064 481.48 73.8977C481.752 73.8173 481.403 73.3695 480.83 72.8499C480.258 72.3303 479.064 71.4433 477.5 70.9411C475.937 70.4388 474.722 70.3843 473.905 70.6255C473.137 70.7146 472.767 71.0993 472.767 71.0993Z" fill="#4C4C4C"/>
<path d="M466.814 87.6914C466.814 87.5316 467.783 73.6279 467.621 73.6279C467.46 73.6279 465.846 77.3036 464.07 81.9382C463.586 83.0569 463.263 84.1756 462.779 85.2942C462.618 85.7737 462.295 86.4129 462.618 87.0522C462.779 87.3718 463.102 87.5316 463.263 87.6914C463.586 87.8513 463.748 87.8513 464.07 87.8513C465.684 87.8513 466.814 87.8513 466.814 87.6914Z" fill="#EB996E"/>
<path d="M491.027 81.2989C491.189 81.1391 498.614 79.0615 498.452 86.5728C498.13 94.084 490.543 92.3261 490.543 92.1662C490.543 92.0064 491.027 81.2989 491.027 81.2989Z" fill="#FFBE9D"/>
<path d="M492.964 89.4494C492.964 89.4494 493.125 89.6092 493.287 89.6092C493.448 89.769 493.932 89.769 494.255 89.6092C495.062 89.2896 495.869 88.1709 495.869 86.7326C495.869 86.0933 495.708 85.4541 495.547 84.8148C495.385 84.1756 495.062 83.8559 494.578 83.6961C494.255 83.5363 493.932 83.8559 493.771 84.0158C493.61 84.1756 493.771 84.3354 493.61 84.3354C493.61 84.3354 493.448 84.1756 493.448 83.8559C493.448 83.6961 493.61 83.5363 493.771 83.3765C493.932 83.2167 494.255 83.2167 494.578 83.2167C495.224 83.2167 495.708 83.8559 495.869 84.4952C496.192 85.1344 496.354 85.7737 496.192 86.5728C496.031 88.1709 495.224 89.4494 494.094 89.769C493.61 89.9288 493.125 89.769 492.964 89.6092C492.964 89.6092 492.964 89.4494 492.964 89.4494Z" fill="#EB996E"/>
<path d="M495.225 81.1391C494.095 80.8195 491.996 81.9382 491.512 83.0569C491.028 84.1756 490.866 85.2943 490.382 86.413C489.898 87.5317 488.768 88.4905 487.638 88.1709C486.831 88.0111 486.185 87.212 486.024 86.413C485.862 85.6139 485.862 84.8148 486.024 84.0158C486.508 80.4999 487.154 76.984 487.315 73.4681C487.477 69.9522 486.992 66.2765 485.055 63.24C483.118 60.2035 479.729 57.9661 476.178 58.2858C473.756 58.4456 471.658 59.7241 469.237 60.0437C466.493 60.3634 463.426 59.4045 461.489 57.4867C461.166 57.1671 460.036 56.5278 460.036 56.5278C460.036 56.368 460.198 54.7699 460.843 54.1306C465.524 49.8157 473.918 48.697 480.052 50.1353C486.185 51.7334 491.996 56.0484 494.579 61.6419C497.484 67.3951 496.677 75.3858 495.225 81.1391Z" fill="#4C4C4C"/>
<path d="M453.901 62.4409C453.901 62.4409 483.117 53.1717 495.869 78.1027C495.869 78.1027 497.806 71.8699 497.806 68.5139C497.806 66.2765 496.515 52.8521 482.633 48.697C482.472 48.697 461.488 40.8661 453.901 62.4409Z" fill="#FF7898"/>
<path d="M479.082 63.0802C478.114 64.6783 476.177 65.797 474.24 66.1167C472.303 66.2765 470.204 65.4774 468.913 64.0391C468.267 65.4774 466.815 66.4363 465.201 66.4363C463.586 66.2765 462.134 65.1578 461.811 63.7194C461.004 64.5185 460.035 65.3176 458.905 65.797C457.775 66.2765 456.323 66.1166 455.677 65.1578C454.87 64.1989 455.193 62.7606 455.838 61.8017C456.646 60.8428 457.614 60.3634 458.744 59.8839C462.295 58.4456 466.008 57.8063 469.72 58.2858C473.433 58.7652 477.145 60.5232 479.405 63.5596" fill="#4C4C4C"/>
<g opacity="0.4">
<g opacity="0.4">
<g opacity="0.4">
<path opacity="0.4" d="M453.901 62.4402C453.901 62.4402 457.291 58.4448 463.263 58.285C471.818 57.9654 488.121 62.7598 495.869 78.2617C495.869 78.2617 497.806 72.029 497.806 68.6729C497.806 66.4355 496.515 53.0112 482.633 48.856C482.472 48.6962 461.488 40.8653 453.901 62.4402Z" fill="black"/>
</g>
</g>
</g>
<path d="M494.578 75.226C490.22 68.6737 484.247 63.24 477.468 59.0848C470.689 54.9297 459.551 50.7745 451.965 48.8568C449.705 48.2175 447.284 47.7381 444.862 48.0577C442.441 48.5371 440.181 49.9755 439.697 52.2129C438.89 55.0895 444.055 59.5643 446.476 61.1624C448.898 62.9204 453.74 65.4774 453.74 65.4774C453.74 65.4774 453.74 60.2035 462.295 59.0848C474.078 57.8063 494.578 75.226 494.578 75.226Z" fill="#FF7898"/>
<path d="M470.689 53.6512C470.689 53.6512 466.493 51.4138 462.296 50.7746C463.103 50.1353 463.587 49.8157 464.556 49.3362C466.654 49.8157 468.914 50.2951 471.174 51.5736L470.689 53.6512Z" fill="#E0E6F0"/>
<path d="M492.965 81.6186C492.965 81.6186 492.319 82.098 491.35 82.7373C490.059 83.6961 488.929 84.4952 487.476 85.4541C484.41 87.6915 481.988 89.2896 481.827 89.1298C481.666 88.97 484.087 87.0522 486.992 84.9746C490.221 82.8971 492.803 81.4588 492.965 81.6186Z" fill="#E0E6F0"/>
<path d="M493.771 92.6457C493.932 92.8055 492.157 95.2027 489.251 97.7597C486.346 100.157 483.602 101.435 483.44 101.276C483.279 101.116 486.023 99.6775 488.767 97.2803C491.673 94.8831 493.61 92.4859 493.771 92.6457Z" fill="#E0E6F0"/>
<path d="M451.803 88.9697C451.803 88.9697 454.87 89.7687 455.677 89.7687C461.165 89.4491 463.102 87.6912 472.141 89.6089C473.594 89.9286 475.047 89.9286 476.499 89.7687C477.791 89.6089 479.728 89.4491 481.826 89.4491L483.602 101.435C483.602 101.435 472.948 110.704 463.263 109.586C450.835 108.147 449.382 93.7641 451.803 88.9697Z" fill="white"/>
<path d="M452.772 96.0018C461.005 100.157 471.335 99.8373 479.567 95.5223C477.953 97.4401 476.178 99.5177 473.918 100.636C471.335 101.915 468.268 102.075 465.201 102.075C462.78 102.075 460.359 102.075 458.261 100.956C456.162 99.8373 454.548 97.9195 453.095 96.0018" fill="#E0E6F0"/>
<path d="M478.275 92.9653C478.275 92.9653 476.984 93.4447 474.886 93.9242C472.787 94.4036 469.72 94.7233 466.331 94.8831C462.941 95.0429 459.874 94.7233 457.776 94.5635C455.516 94.2438 454.225 93.9242 454.225 93.9242C454.225 93.7644 455.516 93.9242 457.776 94.084C460.036 94.2438 462.941 94.4036 466.331 94.2438C469.72 94.084 472.626 93.7644 474.886 93.4448C476.984 93.1251 478.275 92.8055 478.275 92.9653Z" fill="#E0E6F0"/>
<path d="M338.975 243.51V146.982H474.401V243.51L402.572 243.989L338.975 243.51Z" fill="#FFD978"/>
<g opacity="0.4">
<path opacity="0.4" d="M474.401 146.982H338.975V243.35H474.401V146.982Z" fill="black"/>
</g>
<path d="M402.572 243.989L338.975 243.51V146.982H402.411L402.572 243.989Z" fill="#FFD978"/>
<path d="M373.195 146.982H364.802V163.763H373.195V146.982Z" fill="#4C4C4C"/>
<path d="M360.281 222.095H343.494V238.715H360.281V222.095Z" fill="#E0E6F0"/>
<path d="M360.282 238.875H343.333V222.095H360.282V238.875ZM343.494 238.715H360.282V222.095H343.494V238.715Z" fill="#4C4C4C"/>
<path d="M506.199 169.196L508.943 191.57L466.976 216.341L473.432 230.565L521.211 211.387C527.022 208.511 532.026 204.196 531.541 197.803L529.282 166.48L506.199 169.196Z" fill="#FFBE9D"/>
<path d="M517.982 125.088C517.982 125.088 523.955 129.403 525.73 138.672C527.344 147.302 532.832 171.594 532.832 171.594L504.1 174.95V168.238C504.1 168.078 501.356 155.772 501.356 155.772L506.683 138.672L517.982 125.088Z" fill="#4857D7"/>
<path d="M467.33 215.063L461.196 217.94L458.613 216.981L445.216 216.182L436.822 218.099L436.661 218.579C436.661 223.054 445.377 221.296 447.96 222.095C450.543 222.734 448.121 228.487 448.121 228.487C448.121 228.487 436.177 243.829 434.078 247.505C433.11 249.423 433.433 250.382 433.917 250.861C434.563 251.5 435.531 251.5 436.177 251.021L440.535 247.984C440.535 247.984 452.641 248.624 453.448 248.304C454.578 247.665 456.354 245.268 456.354 245.268C462.487 239.514 468.944 234.72 475.562 231.204L467.33 215.063Z" fill="#E0E6F0"/>
<path d="M451.835 237.277C451.996 237.437 449.414 239.674 446.347 242.551C444.733 243.989 443.28 245.268 442.312 246.226C441.182 247.185 440.536 247.665 440.536 247.665C440.375 247.505 442.796 245.108 446.024 242.231C448.93 239.195 451.674 237.117 451.835 237.277Z" fill="#4C4C4C"/>
<path d="M455.385 240.154C455.546 240.313 454.094 242.231 451.834 244.309C449.736 246.386 447.799 247.984 447.637 247.825C447.476 247.665 449.251 245.907 451.35 243.829C453.609 241.752 455.385 240.154 455.385 240.154Z" fill="#4C4C4C"/>
</svg>
