<svg width="669" height="471" viewBox="0 0 669 471" fill="none" xmlns="http://www.w3.org/2000/svg">
<path d="M284.484 466.236C284.484 466.236 280.56 467.782 277.944 468.258C275.328 468.734 272.236 468.853 268.906 468.496C265.577 468.258 261.891 467.425 258.085 466.593C254.28 465.641 250.118 464.57 245.837 463.856C241.438 463.143 236.8 462.905 232.044 463.618C227.287 464.213 222.531 465.641 217.536 467.069C212.661 468.496 207.785 469.805 202.91 470.519C198.154 471.233 193.397 470.876 188.997 470.162C184.598 469.448 180.555 468.258 176.749 467.188C172.944 466.117 169.377 465.046 166.166 464.332C162.956 463.499 159.864 463.262 157.248 463.024C155.94 463.024 154.632 462.905 153.561 463.024C152.491 463.143 151.421 463.143 150.47 463.381C149.091 463.725 148.649 463.831 147.312 464.332L148.092 461.737C148.092 461.737 149.637 461.381 150.47 461.143C151.421 460.905 152.491 460.905 153.561 460.667C154.751 460.548 155.94 460.548 157.248 460.548C159.864 460.667 162.956 461.024 166.285 461.737C169.615 462.451 173.182 463.403 176.868 464.474C180.673 465.544 184.717 466.615 189.116 467.448C193.516 468.162 198.154 468.519 202.91 467.805C207.667 467.21 212.542 465.782 217.417 464.355C222.293 462.927 227.168 461.618 232.044 460.905C236.8 460.191 241.557 460.429 245.956 461.143C250.356 461.856 254.399 463.046 258.204 463.998C262.009 464.95 265.577 465.663 268.906 466.02C272.236 466.377 275.328 466.258 277.944 465.901C280.56 465.544 284.484 463.998 284.484 463.998V466.236Z" fill="#C2C8F2"/>
<path d="M492.818 448.034C492.818 448.034 489.013 446.13 485.922 445.773C482.83 445.416 479.144 445.654 475.101 446.606C471.057 447.439 466.658 448.748 461.901 448.985C457.026 449.223 452.626 447.915 448.583 446.963C446.562 446.487 444.659 446.011 442.875 445.773C441.092 445.535 439.427 445.535 437.881 445.654C434.789 445.892 431.103 447.828 431.103 447.828V445.141C431.103 445.141 434.789 443.535 437.881 443.178C439.427 442.941 441.211 442.941 442.994 443.178C444.778 443.416 446.799 443.773 448.821 444.249C452.864 445.201 457.264 446.51 461.901 446.272C466.658 446.034 470.939 444.725 474.982 444.011C479.025 443.178 482.83 442.941 485.922 443.297C489.013 443.654 493 445.5 493 445.5L492.818 448.034Z" fill="#C2C8F2"/>
<path d="M529.04 213.074H526.662V297.661H529.04V213.074Z" fill="#E7EDF8"/>
<path d="M534.629 213.074H532.251V297.661H534.629V213.074Z" fill="#E7EDF8"/>
<path d="M555.914 213.074H553.536V297.661H555.914V213.074Z" fill="#E7EDF8"/>
<path d="M507.16 213.074H504.782V297.661H507.16V213.074Z" fill="#E7EDF8"/>
<path d="M528.921 213.074H504.782V215.454H528.921V213.074Z" fill="#E7EDF8"/>
<path d="M584.216 218.785H418.928V221.521H584.216V218.785Z" fill="#E7EDF8"/>
<path d="M555.796 255.427H505.853V258.045H555.796V255.427Z" fill="#E7EDF8"/>
<path d="M555.096 222.943L553.376 221.882L532.587 255.599L534.308 256.661L555.096 222.943Z" fill="#E7EDF8"/>
<path d="M528.328 222.024L526.607 220.962L505.815 254.68L507.535 255.742L528.328 222.024Z" fill="#E7EDF8"/>
<path d="M567.093 207.126H529.992V218.785H567.093V207.126Z" fill="#E7EDF8"/>
<path d="M457.098 220.569L515.484 175.837L536.294 210.576L537.008 210.1L515.722 174.528L515.365 174.766L456.504 219.855L457.098 220.569Z" fill="#E7EDF8"/>
<path d="M504.188 220.569L515.603 173.338L529.04 222.473L504.188 220.569ZM505.258 219.736L527.732 221.402L515.603 176.907L505.258 219.736Z" fill="#E7EDF8"/>
<path d="M636.061 295.877H384.919V311.224H636.061V295.877Z" fill="#E7EDF8"/>
<path d="M449.013 264.35H473.509V296.353H449.013V264.35ZM472.557 265.183H449.964V295.401H472.557V265.183Z" fill="#E7EDF8"/>
<path d="M492.654 264.707H473.033V297.661H492.654V264.707Z" fill="#E7EDF8"/>
<path d="M374.47 277.209H378.513V129.33H374.47V277.209Z" fill="#E7EDF8"/>
<path d="M364.662 277.209H368.705V129.33H364.662V277.209Z" fill="#E7EDF8"/>
<path d="M327.399 277.209H331.442V129.33H327.399V277.209Z" fill="#E7EDF8"/>
<path d="M412.59 277.209H416.633V129.33H412.59V277.209Z" fill="#E7EDF8"/>
<path d="M374.385 133.493H416.718V129.329H374.385V133.493Z" fill="#E7EDF8"/>
<path d="M277.922 144.166L566.641 144.166V139.407L277.922 139.407V144.166Z" fill="#E7EDF8"/>
<path d="M327.351 207.713H414.633V203.192H327.351V207.713Z" fill="#E7EDF8"/>
<path d="M364.951 205.355L367.987 203.481L331.654 144.551L328.617 146.425L364.951 205.355Z" fill="#E7EDF8"/>
<path d="M411.649 203.774L414.686 201.899L378.345 142.969L375.309 144.843L411.649 203.774Z" fill="#E7EDF8"/>
<path d="M307.644 139.34H372.451V118.877H307.644V139.34Z" fill="#E7EDF8"/>
<path d="M500.026 142.406L397.881 64.2434L361.613 124.918L360.186 124.204L397.524 61.864L398.237 62.3399L500.978 141.098L500.026 142.406Z" fill="#E7EDF8"/>
<path d="M374.217 145.737L397.761 59.8416L417.62 142.406L374.217 145.737ZM397.642 66.1469L376.357 143.953L415.717 140.979L397.642 66.1469Z" fill="#E7EDF8"/>
<path d="M116.296 414.249C116.296 414.249 112.491 412.345 109.518 412.226C107.972 412.107 106.426 412.345 104.643 412.583C102.859 412.821 101.075 413.178 99.0537 413.654C95.1296 414.486 90.8488 415.676 86.2112 415.795C81.4547 415.914 77.1739 414.486 73.3687 413.535C71.4661 413.059 69.5635 412.702 67.7798 412.464C65.9961 412.345 64.3314 412.345 62.9044 412.464C59.9316 412.821 56.5 415 56.5 415V413.5C56.5 413.5 59.8127 411.345 62.9044 410.988C64.4503 410.75 66.1151 410.75 67.8987 410.869C69.6824 410.988 71.585 411.464 73.4876 411.94C77.4117 412.892 81.6926 414.2 86.2112 414.081C90.8488 413.962 95.1296 412.892 99.0537 412.059C100.956 411.583 102.859 411.345 104.643 411.107C106.426 410.869 108.091 410.631 109.637 410.75C112.729 410.988 116.296 412.688 116.296 412.688V414.249Z" fill="#072C74"/>
<path d="M666 371.5C666 371.5 662.092 367.593 659 367C655.908 366.407 652.79 366.587 648.747 368.168C644.704 369.55 640.304 371.723 635.547 372.118C630.672 372.513 626.272 370.341 622.229 368.76C620.208 367.97 618.305 367.18 616.521 366.785C614.738 366.39 613.073 366.587 611.527 366.785C608.435 367.18 604.749 371.538 604.749 371.538L604.749 368.76C604.749 368.76 608.409 365.093 611.5 364.5C613.046 364.105 614.857 364.402 616.64 364.797C618.424 365.192 620.445 365.785 622.467 366.575C626.51 368.155 630.91 370.328 635.547 369.933C640.304 369.538 644.585 367.365 648.628 366.18C652.671 364.797 656.476 364.402 659.568 364.995C662.659 365.587 666.583 369.143 666.583 369.143L666 371.5Z" fill="#072C74"/>
<path d="M76.4603 379.034C76.4603 379.034 72.6551 377.13 69.5634 376.773C66.4717 376.416 62.7854 376.654 58.7424 377.606C54.6994 378.439 50.2996 379.748 45.5431 379.985C40.6677 380.223 36.268 378.915 32.225 377.963C30.2035 377.487 28.3009 377.011 26.5172 376.773C24.7335 376.535 23.0687 376.535 21.5229 376.654C18.4312 376.892 14.5 379 14.5 379V377.5C14.5 377.5 18.4312 375.535 21.5229 375.178C23.0687 374.941 24.8524 374.941 26.6361 375.178C28.4198 375.416 30.4413 375.773 32.4628 376.249C36.5058 377.201 40.9056 378.51 45.5431 378.272C50.2996 378.034 54.5805 376.725 58.6235 376.011C62.6665 375.178 66.4717 374.941 69.5634 375.297C72.6551 375.654 76.5 377.5 76.5 377.5L76.4603 379.034Z" fill="#072C74"/>
<path d="M649.5 417C649.5 417 643.9 413.81 639.5 412C637.241 411.095 634.635 409.86 632.018 409.498C629.283 408.955 626.43 408.955 623.338 409.498C617.273 410.584 610.733 413.299 603.598 414.747C600.031 415.471 596.464 415.471 593.134 414.747C589.805 414.023 586.594 413.118 583.621 412.032C577.557 410.041 572.138 408.638 567.5 409C562.862 409.181 556.747 413.25 556.747 413.25V411.575C556.747 411.575 562.744 407.681 567.5 407.5C572.256 406.957 577.935 408.509 584 410.5C590.065 412.31 596.464 414.652 603.48 413.023C610.495 411.575 617.036 408.86 623.219 407.774C626.311 407.231 629.283 407.231 632.018 407.774C634.753 408.317 637.251 409.222 639.51 410.127C644.029 412.118 649.974 415.556 649.974 415.556L649.5 417Z" fill="#072C74"/>
<path d="M435.814 298.263H118.675V326.459H435.814V298.263Z" fill="#4857D7"/>
<path d="M138.295 298.858H94.0596V240.801H138.295V298.858ZM95.2487 297.668H137.106V241.99H95.2487V297.668Z" fill="#4857D7"/>
<path d="M173.493 241.396H137.7V301.594H173.493V241.396Z" fill="#4857D7"/>
<path d="M239.964 81.7385H235.684V302.308H239.964V81.7385Z" fill="#4857D7"/>
<path d="M250.191 81.7385H245.91V302.308H250.191V81.7385Z" fill="#4857D7"/>
<path d="M289.195 81.7385H284.914V302.308H289.195V81.7385Z" fill="#4857D7"/>
<path d="M200.01 81.7385H195.729V302.308H200.01V81.7385Z" fill="#4857D7"/>
<path d="M239.965 81.7385H195.729V86.1404H239.965V81.7385Z" fill="#4857D7"/>
<path d="M341.041 92.208H86V97.2047H341.041V92.208Z" fill="#4857D7"/>
<path d="M289.195 159.069H197.87V163.828H289.195V159.069Z" fill="#4857D7"/>
<path d="M287.941 99.8201L284.702 97.821L246.676 159.485L249.914 161.484L287.941 99.8201Z" fill="#4857D7"/>
<path d="M238.953 97.9789L235.715 95.9802L197.696 157.644L200.934 159.643L238.953 97.9789Z" fill="#4857D7"/>
<path d="M309.766 70.7935H241.986V92.208H309.766V70.7935Z" fill="#4857D7"/>
<path d="M108.329 95.1821L107.615 94.2304L215.706 11.5466L254.591 76.5039L253.52 77.0988L215.35 13.2122L108.329 95.1821Z" fill="#4857D7"/>
<path d="M239.727 98.6322L195.016 95.3011L215.469 10L239.727 98.6322ZM196.443 94.2304L238.181 97.3236L215.587 14.7588L196.443 94.2304Z" fill="#4857D7"/>
<path d="M68.4316 178.461L71.999 158.95L94.2356 92.0889L95.4247 92.4458L73.1881 159.188L69.8586 177.271L143.822 175.962L114.807 92.4458L115.997 92.0889L145.487 177.152L68.4316 178.461Z" fill="#4857D7"/>
<path d="M78.8957 160.139H50V195.235H78.8957V160.139Z" fill="#4857D7"/>
<path d="M159.756 160.139H78.8955V195.235H159.756V160.139Z" fill="#4857D7"/>
<rect x="82" y="164" width="73" height="2" fill="#7886FF"/>
<rect x="82" y="190" width="73" height="2" fill="#7886FF"/>
<rect x="82" y="165" width="2" height="27" fill="#7886FF"/>
<rect x="153" y="165" width="2" height="27" fill="#7886FF"/>
<rect x="92" y="165" width="2" height="27" fill="#7886FF"/>
<rect x="64" y="161" width="2" height="33" fill="#7886FF"/>
<rect x="77" y="161" width="2" height="33" fill="#7886FF"/>
<rect x="105" y="165" width="2" height="27" fill="#7886FF"/>
<rect x="118" y="165" width="2" height="27" fill="#7886FF"/>
<rect x="131" y="165" width="2" height="27" fill="#7886FF"/>
<rect x="144" y="165" width="2" height="27" fill="#7886FF"/>
<path d="M511.797 259.235H499.906V239.01H508.349L511.797 259.235Z" fill="#FF7898"/>
<path d="M261.775 269.347H232.879V304.443H261.775V269.347Z" fill="#FF7898"/>
<path opacity="0.4" d="M261.775 269.347H232.879V304.443H261.775V269.347Z" fill="white"/>
<rect x="247" y="272" width="2" height="31" fill="#C2667C"/>
<path d="M341.754 269.347H260.894V304.443H341.754V269.347Z" fill="#FF7898"/>
<path opacity="0.2" d="M341.754 269.347H260.894V304.443H341.754V269.347Z" fill="white"/>
<path d="M356.38 201.274H327.484V236.37H356.38V201.274Z" fill="#FF7898"/>
<path opacity="0.4" d="M356.38 201.274H327.484V236.37H356.38V201.274Z" fill="white"/>
<path d="M437.24 201.274H356.38V236.37H437.24V201.274Z" fill="#FF7898"/>
<path opacity="0.2" d="M437.24 201.274H356.38V236.37H437.24V201.274Z" fill="white"/>
<rect x="360" y="207" width="32" height="25" fill="#C2667C" fill-opacity="0.5"/>
<rect x="342" y="203" width="2" height="31" fill="#C2667C" fill-opacity="0.5"/>
<rect x="396" y="207" width="8" height="25" fill="#C2667C" fill-opacity="0.5"/>
<rect x="409" y="207" width="8" height="25" fill="#C2667C" fill-opacity="0.5"/>
<rect x="422" y="207" width="8" height="25" fill="#C2667C" fill-opacity="0.5"/>
<path d="M107.496 289.073H78.6006V324.169H107.496V289.073Z" fill="#FF7898"/>
<path opacity="0.4" d="M107.496 289.073H78.6006V324.169H107.496V289.073Z" fill="white"/>
<path d="M188.356 289.073H107.496V324.169H188.356V289.073Z" fill="#FF7898"/>
<path opacity="0.2" d="M188.356 289.073H107.496V324.169H188.356V289.073Z" fill="white"/>
<rect x="111" y="295" width="7" height="25" fill="#C2667C" fill-opacity="0.6"/>
<rect x="154" y="295" width="30" height="25" fill="#C2667C" fill-opacity="0.6"/>
<rect x="124" y="295" width="7" height="25" fill="#C2667C" fill-opacity="0.6"/>
<rect x="93" y="291" width="2" height="31" fill="#C2667C" fill-opacity="0.6"/>
<rect x="137" y="295" width="10" height="25" fill="#C2667C" fill-opacity="0.6"/>
<path d="M293.832 234.608H264.937V269.704H293.832V234.608Z" fill="#FFD978"/>
<path d="M374.692 234.608H293.832V269.704H374.692V234.608Z" fill="#FFD978"/>
<rect x="294" y="241" width="32" height="25" fill="#E3C063"/>
<rect x="276" y="237" width="2" height="31" fill="#E3C063"/>
<rect x="330" y="241" width="8" height="25" fill="#E3C063"/>
<rect x="343" y="241" width="8" height="25" fill="#E3C063"/>
<rect x="356" y="241" width="8" height="25" fill="#E3C063"/>
<path d="M223.911 304.633H195.016V339.729H223.911V304.633Z" fill="#FF7898"/>
<path d="M304.771 304.633H223.911V339.729H304.771V304.633Z" fill="#FF7898"/>
<path opacity="0.4" d="M304.771 304.633H223.911V339.729H304.771V304.633Z" fill="black"/>
<rect x="227" y="308.818" width="73" height="1.87879" fill="#C2667C"/>
<rect x="227" y="333.242" width="73" height="1.87879" fill="#C2667C"/>
<rect x="227" y="309.758" width="2" height="25.3636" fill="#C2667C"/>
<rect x="298" y="309.758" width="2" height="25.3636" fill="#C2667C"/>
<rect x="237" y="309.758" width="2" height="25.3636" fill="#C2667C"/>
<rect x="209" y="306" width="2" height="31" fill="#C2667C"/>
<rect x="250" y="309.758" width="2" height="25.3636" fill="#C2667C"/>
<rect x="263" y="309.758" width="2" height="25.3636" fill="#C2667C"/>
<rect x="276" y="309.758" width="2" height="25.3636" fill="#C2667C"/>
<rect x="289" y="309.758" width="2" height="25.3636" fill="#C2667C"/>
<path d="M316.306 304.443H287.41V339.539H316.306V304.443Z" fill="#FFD978"/>
<path d="M397.166 304.443H316.306V339.539H397.166V304.443Z" fill="#FFD978"/>
<rect x="315" y="311" width="32" height="25" fill="#E3C063"/>
<rect x="297" y="307" width="2" height="31" fill="#E3C063"/>
<rect x="351" y="311" width="8" height="25" fill="#E3C063"/>
<rect x="364" y="311" width="8" height="25" fill="#E3C063"/>
<rect x="377" y="311" width="8" height="25" fill="#E3C063"/>
<path d="M339.019 234.727H310.123V269.823H339.019V234.727Z" fill="#7886FF"/>
<path d="M419.879 234.727H339.019V269.823H419.879V234.727Z" fill="#7886FF"/>
<rect x="324" y="237" width="2" height="31" fill="#4857D7"/>
<path d="M354.952 265.897C354.834 265.897 354.596 259.829 354.596 252.453C354.596 245.077 354.715 239.01 354.952 239.01C355.19 239.01 355.309 245.077 355.309 252.453C355.309 259.829 355.19 265.897 354.952 265.897Z" fill="#4857D7"/>
<path d="M361.85 265.897C361.731 265.897 361.493 259.829 361.493 252.453C361.493 245.077 361.612 239.01 361.85 239.01C361.969 239.01 362.207 245.077 362.207 252.453C362.207 259.829 361.969 265.897 361.85 265.897Z" fill="#4857D7"/>
<path d="M368.746 265.897C368.628 265.897 368.39 259.829 368.39 252.453C368.39 245.077 368.509 239.01 368.746 239.01C368.865 239.01 369.103 245.077 369.103 252.453C368.984 259.829 368.865 265.897 368.746 265.897Z" fill="#4857D7"/>
<path d="M375.525 265.897C375.406 265.897 375.168 259.829 375.168 252.453C375.168 245.077 375.287 239.01 375.525 239.01C375.644 239.01 375.881 245.077 375.881 252.453C375.881 259.829 375.763 265.897 375.525 265.897Z" fill="#4857D7"/>
<path d="M382.421 265.897C382.302 265.897 382.064 259.829 382.064 252.453C382.064 245.077 382.183 239.01 382.421 239.01C382.54 239.01 382.778 245.077 382.778 252.453C382.659 259.829 382.54 265.897 382.421 265.897Z" fill="#4857D7"/>
<path d="M389.2 265.897C389.081 265.897 388.843 259.829 388.843 252.453C388.843 245.077 388.962 239.01 389.2 239.01C389.437 239.01 389.556 245.077 389.556 252.453C389.556 259.829 389.437 265.897 389.2 265.897Z" fill="#4857D7"/>
<path d="M396.096 265.897C395.977 265.897 395.739 259.829 395.739 252.453C395.739 245.077 395.858 239.01 396.096 239.01C396.215 239.01 396.453 245.077 396.453 252.453C396.453 259.829 396.215 265.897 396.096 265.897Z" fill="#4857D7"/>
<path d="M402.993 265.897C402.875 265.897 402.637 259.829 402.637 252.453C402.637 245.077 402.756 239.01 402.993 239.01C403.112 239.01 403.35 245.077 403.35 252.453C403.231 259.829 403.112 265.897 402.993 265.897Z" fill="#4857D7"/>
<path d="M409.772 265.897C409.653 265.897 409.415 259.829 409.415 252.453C409.415 245.077 409.534 239.01 409.772 239.01C409.891 239.01 410.129 245.077 410.129 252.453C410.129 259.829 410.01 265.897 409.772 265.897Z" fill="#4857D7"/>
<path d="M295.735 269.347H266.839V304.443H295.735V269.347Z" fill="#FF7898"/>
<path d="M376.714 269.347H295.854V304.443H376.714V269.347Z" fill="#FF7898"/>
<path opacity="0.4" d="M376.714 269.347H295.854V304.443H376.714V269.347Z" fill="black"/>
<rect x="280" y="272" width="2" height="31" fill="#C2667C"/>
<rect x="303" y="272" width="11" height="31" fill="#C2667C"/>
<rect x="319" y="272" width="11" height="31" fill="#C2667C"/>
<rect x="334" y="272" width="11" height="31" fill="#C2667C"/>
<path d="M377.07 269.228H348.175V304.324H377.07V269.228Z" fill="#7886FF"/>
<path d="M457.931 269.228H377.07V304.324H457.931V269.228Z" fill="#7886FF"/>
<rect x="381" y="274.818" width="73" height="1.87879" fill="#B3BAFF"/>
<rect x="381" y="299.242" width="73" height="1.87879" fill="#B3BAFF"/>
<rect x="381" y="275.758" width="2" height="25.3636" fill="#B3BAFF"/>
<rect x="452" y="275.758" width="2" height="25.3636" fill="#B3BAFF"/>
<rect x="391" y="275.758" width="2" height="25.3636" fill="#B3BAFF"/>
<rect x="363" y="272" width="2" height="31" fill="#B3BAFF"/>
<rect x="404" y="275.758" width="2" height="25.3636" fill="#B3BAFF"/>
<rect x="417" y="275.758" width="2" height="25.3636" fill="#B3BAFF"/>
<rect x="430" y="275.758" width="2" height="25.3636" fill="#B3BAFF"/>
<rect x="443" y="275.758" width="2" height="25.3636" fill="#B3BAFF"/>
<path d="M121.885 219.049H92.9893V254.145H121.885V219.049Z" fill="#7886FF"/>
<path d="M201.864 219.049H121.004V254.145H201.864V219.049Z" fill="#7886FF"/>
<rect x="126" y="223.818" width="73" height="1.87879" fill="#B3BAFF"/>
<rect x="126" y="248.242" width="73" height="1.87879" fill="#B3BAFF"/>
<rect x="126" y="224.758" width="2" height="25.3636" fill="#B3BAFF"/>
<rect x="197" y="224.758" width="2" height="25.3636" fill="#B3BAFF"/>
<rect x="136" y="224.758" width="2" height="25.3636" fill="#B3BAFF"/>
<rect x="108" y="221" width="2" height="31" fill="#B3BAFF"/>
<rect x="149" y="224.758" width="2" height="25.3636" fill="#B3BAFF"/>
<rect x="162" y="224.758" width="2" height="25.3636" fill="#B3BAFF"/>
<rect x="175" y="224.758" width="2" height="25.3636" fill="#B3BAFF"/>
<rect x="188" y="224.758" width="2" height="25.3636" fill="#B3BAFF"/>
<path d="M378.854 234.656H349.958V269.752H378.854V234.656Z" fill="#FFD978"/>
<path d="M459.714 234.656H378.854V269.752H459.714V234.656Z" fill="#FFD978"/>
<rect x="383" y="239.818" width="73" height="1.87879" fill="#E3C063"/>
<rect x="383" y="264.242" width="73" height="1.87879" fill="#E3C063"/>
<rect x="383" y="240.758" width="2" height="25.3636" fill="#E3C063"/>
<rect x="454" y="240.758" width="2" height="25.3636" fill="#E3C063"/>
<rect x="393" y="240.758" width="2" height="25.3636" fill="#E3C063"/>
<rect x="365" y="237" width="2" height="31" fill="#E3C063"/>
<rect x="378" y="237" width="2" height="31" fill="#E3C063"/>
<rect x="406" y="240.758" width="2" height="25.3636" fill="#E3C063"/>
<rect x="419" y="240.758" width="2" height="25.3636" fill="#E3C063"/>
<rect x="432" y="240.758" width="2" height="25.3636" fill="#E3C063"/>
<rect x="445" y="240.758" width="2" height="25.3636" fill="#E3C063"/>
<path d="M383.372 304.324H354.477V339.42H383.372V304.324Z" fill="#FF7898"/>
<path d="M464.232 304.324H383.372V339.42H464.232V304.324Z" fill="#FF7898"/>
<path opacity="0.4" d="M464.232 304.324H383.372V339.42H464.232V304.324Z" fill="black"/>
<rect x="387" y="309.818" width="73" height="1.87879" fill="#C2667C"/>
<rect x="387" y="334.242" width="73" height="1.87879" fill="#C2667C"/>
<rect x="387" y="310.758" width="2" height="25.3636" fill="#C2667C"/>
<rect x="458" y="310.758" width="2" height="25.3636" fill="#C2667C"/>
<rect x="397" y="310.758" width="2" height="25.3636" fill="#C2667C"/>
<rect x="369" y="307" width="2" height="31" fill="#C2667C"/>
<rect x="410" y="310.758" width="2" height="25.3636" fill="#C2667C"/>
<rect x="423" y="310.758" width="2" height="25.3636" fill="#C2667C"/>
<rect x="436" y="310.758" width="2" height="25.3636" fill="#C2667C"/>
<rect x="449" y="310.758" width="2" height="25.3636" fill="#C2667C"/>
<rect x="194" y="328" width="144" height="3" fill="#4857D7"/>
<rect x="194" y="329" width="2" height="12" fill="#4857D7"/>
<rect x="205" y="329" width="2" height="12" fill="#4857D7"/>
<rect x="224" y="329" width="2" height="12" fill="#4857D7"/>
<rect x="243" y="329" width="2" height="12" fill="#4857D7"/>
<rect x="262" y="329" width="2" height="12" fill="#4857D7"/>
<rect x="281" y="329" width="2" height="12" fill="#4857D7"/>
<rect x="300" y="329" width="2" height="12" fill="#4857D7"/>
<rect x="319" y="329" width="2" height="12" fill="#4857D7"/>
<rect x="337" y="328" width="2" height="13" fill="#4857D7"/>
<rect x="354" y="328" width="144" height="3" fill="#4857D7"/>
<rect x="354" y="329" width="2" height="12" fill="#4857D7"/>
<rect x="365" y="329" width="2" height="12" fill="#4857D7"/>
<rect x="384" y="329" width="2" height="12" fill="#4857D7"/>
<rect x="403" y="329" width="2" height="12" fill="#4857D7"/>
<rect x="422" y="329" width="2" height="12" fill="#4857D7"/>
<rect x="441" y="329" width="2" height="12" fill="#4857D7"/>
<rect x="460" y="329" width="2" height="12" fill="#4857D7"/>
<rect x="479" y="329" width="2" height="12" fill="#4857D7"/>
<rect x="497" y="328" width="2" height="13" fill="#4857D7"/>
<rect x="48" y="311" width="144" height="3" fill="#4857D7"/>
<rect x="48" y="312" width="2" height="12" fill="#4857D7"/>
<rect x="59" y="312" width="2" height="12" fill="#4857D7"/>
<rect x="78" y="312" width="2" height="12" fill="#4857D7"/>
<rect x="97" y="312" width="2" height="12" fill="#4857D7"/>
<rect x="116" y="312" width="2" height="12" fill="#4857D7"/>
<rect x="135" y="312" width="2" height="12" fill="#4857D7"/>
<rect x="154" y="312" width="2" height="12" fill="#4857D7"/>
<rect x="173" y="312" width="2" height="12" fill="#4857D7"/>
<rect x="191" y="311" width="2" height="13" fill="#4857D7"/>
<path d="M121.885 254.145H92.9893V289.241H121.885V254.145Z" fill="#FF7898"/>
<path d="M201.864 254.145H121.004V289.241H201.864V254.145Z" fill="#FF7898"/>
<path opacity="0.4" d="M201.864 254.145H121.004V289.241H201.864V254.145Z" fill="black"/>
<rect x="126" y="260" width="7" height="25" fill="#C2667C" fill-opacity="0.6"/>
<rect x="169" y="260" width="30" height="25" fill="#C2667C" fill-opacity="0.6"/>
<rect x="139" y="260" width="7" height="25" fill="#C2667C" fill-opacity="0.6"/>
<rect x="108" y="256" width="2" height="31" fill="#C2667C" fill-opacity="0.6"/>
<rect x="152" y="260" width="10" height="25" fill="#C2667C" fill-opacity="0.6"/>
<path d="M486.47 339.063V258.521H566.379V339.777" fill="#7886FF"/>
<path d="M544.974 329.427H540.574V339.063H544.974V329.427Z" fill="#FFD978"/>
<path d="M495.745 316.34H493.01V323.24H495.745V316.34Z" fill="#FFD978"/>
<path d="M495.745 328.594H493.01V335.494H495.745V328.594Z" fill="#FFD978"/>
<path d="M511.679 316.34H508.944V323.24H511.679V316.34Z" fill="#FFD978"/>
<path d="M511.679 328.475H508.944V335.375H511.679V328.475Z" fill="#FFD978"/>
<path d="M527.732 316.34H524.997V323.24H527.732V316.34Z" fill="#4857D7"/>
<path d="M527.732 328.356H524.997V335.256H527.732V328.356Z" fill="#FFD978"/>
<path d="M543.785 316.34H541.05V323.24H543.785V316.34Z" fill="#4857D7"/>
<path d="M559.839 316.34H557.104V323.24H559.839V316.34Z" fill="#FFD978"/>
<path d="M559.839 327.999H557.104V334.899H559.839V327.999Z" fill="#FFD978"/>
<path d="M544.617 285.527H540.218V295.163H544.617V285.527Z" fill="#FFD978"/>
<path d="M495.745 266.968H493.01V273.868H495.745V266.968Z" fill="#4857D7"/>
<path d="M495.745 279.221H493.01V286.122H495.745V279.221Z" fill="#4857D7"/>
<path d="M511.679 266.968H508.944V273.868H511.679V266.968Z" fill="#FFD978"/>
<path d="M511.679 279.103H508.944V286.003H511.679V279.103Z" fill="#FFD978"/>
<path d="M527.732 266.968H524.997V273.868H527.732V266.968Z" fill="#4857D7"/>
<path d="M527.732 278.983H524.997V285.884H527.732V278.983Z" fill="#FFD978"/>
<path d="M543.785 266.968H541.05V273.868H543.785V266.968Z" fill="#FFD978"/>
<path d="M559.839 266.968H557.104V273.868H559.839V266.968Z" fill="#4857D7"/>
<path d="M559.839 278.626H557.104V285.527H559.839V278.626Z" fill="#FFD978"/>
<path d="M118.674 415.323C118.674 415.323 131.16 369.519 85.9733 359.169C43.7594 349.413 44.8296 323.359 44.8296 323.359H196.086V339.063H594.085C594.085 339.063 591.945 390.339 554.606 415.204" fill="#7886FF"/>
<path d="M119.744 393.789H575.891C575.891 393.789 563.286 410.802 554.606 415.323H118.674C118.674 415.323 120.22 405.686 119.744 393.789Z" fill="#4857D7"/>
<path d="M566.26 295.163H477.908V303.967H566.26V295.163Z" fill="#4857D7"/>
<path opacity="0.4" d="M499.906 246.148H509.538L510.608 252.334H499.906V246.148Z" fill="white"/>
<rect x="486" y="328" width="104" height="3" fill="#4857D7"/>
<rect x="496" y="329" width="2" height="10" fill="#4857D7"/>
<rect x="515" y="329" width="2" height="10" fill="#4857D7"/>
<rect x="534" y="329" width="2" height="10" fill="#4857D7"/>
<rect x="552" y="329" width="2" height="10" fill="#4857D7"/>
<rect x="572" y="329" width="2" height="10" fill="#4857D7"/>
<rect x="588" y="328" width="2" height="11" fill="#4857D7"/>
</svg>
