<svg width="505" height="455" viewBox="0 0 505 455" fill="none" xmlns="http://www.w3.org/2000/svg">
<g clip-path="url(#clip0)">
<path d="M476.303 18.2366H289.874V183.695H476.303V18.2366Z" fill="#F1F6FF"/>
<path d="M471.427 22.7727H294.523V179.272H471.427V22.7727Z" fill="#F1F6FF"/>
<path d="M336.028 22.7727L294.523 178.932V105.559L316.41 22.7727H336.028Z" fill="white"/>
<path d="M350.77 22.7727L308.926 179.272H302.235L344.08 22.7727H350.77Z" fill="white"/>
<path d="M471.428 121.549V146.498L462.923 179.273H456.232L471.428 121.549Z" fill="white"/>
<path d="M356.213 19.9377H353.265V182.788H356.213V19.9377Z" fill="#F1F6FF"/>
<path d="M413.934 19.9377H410.985V182.788H413.934V19.9377Z" fill="#F1F6FF"/>
<path d="M116.935 291.901H0V396.723H116.935V291.901Z" fill="#F1F6FF"/>
<path d="M40.7404 291.901H0V396.723H40.7404V291.901Z" fill="#E7EDF8"/>
<path d="M140.142 189.272H23.207V294.093H140.142V189.272Z" fill="#F1F6FF"/>
<path d="M63.9474 189.272H23.207V294.093H63.9474V189.272Z" fill="#E7EDF8"/>
<path d="M116.935 84.7083H0V189.53H116.935V84.7083Z" fill="#F1F6FF"/>
<path d="M40.7404 84.7083H0V189.53H40.7404V84.7083Z" fill="#E7EDF8"/>
<path d="M244.184 292.031H127.249V396.852H244.184V292.031Z" fill="#EBEBEB"/>
<path d="M167.989 292.031H127.249V396.852H167.989V292.031Z" fill="#E0E0E0"/>
<path d="M257.077 228.467H140.142V294.093H257.077V228.467Z" fill="#F5F5F5"/>
<path d="M180.882 228.467H140.142V294.093H180.882V228.467Z" fill="#EEF1F6"/>
<path d="M206.667 124.806H131.117V229.627H206.667V124.806Z" fill="#F1F6FF"/>
<path d="M157.418 124.806H131.117V229.627H157.418V124.806Z" fill="#E0E6F0"/>
<path d="M379.009 396.978H495.944V292.157H379.009V396.978Z" fill="#F1F6FF"/>
<path d="M455.224 396.978H495.965V292.157H455.224V396.978Z" fill="#F1F6FF"/>
<path d="M355.816 294.283H472.751V208.93H355.816V294.283Z" fill="#F1F6FF"/>
<path d="M432.032 294.283H472.772V208.93H432.032V294.283Z" fill="#E0E6F0"/>
<path d="M383.311 208.942H495.991V167.168H383.311V208.942Z" fill="#F1F6FF"/>
<path d="M456.806 208.942H495.999V167.168H456.806V208.942Z" fill="#EEF1F6"/>
<path d="M254.628 455C392.691 455 504.614 448.477 504.614 440.431C504.614 432.384 392.691 425.861 254.628 425.861C116.564 425.861 4.6416 432.384 4.6416 440.431C4.6416 448.477 116.564 455 254.628 455Z" fill="#E0E6F0"/>
<path d="M385.738 89.7365H349.896C346.673 89.7365 344.095 87.1579 344.095 83.9346V51.3149C344.095 48.0916 346.673 45.5129 349.896 45.5129H385.738C388.961 45.5129 391.539 48.0916 391.539 51.3149V83.8057C391.539 87.1579 388.961 89.7365 385.738 89.7365Z" fill="#FF7898"/>
<path d="M363.176 84.0635C363.176 84.0635 366.141 98.6328 386.64 106.627C386.64 106.627 374.134 98.6328 374.908 84.0635H363.176Z" fill="#FF7898"/>
<path d="M357.503 66.3998L364.336 75.8118L378.131 59.4375" stroke="white" stroke-width="3" stroke-miterlimit="10" stroke-linecap="round" stroke-linejoin="round"/>
<path d="M438.475 91.441C444.792 95.9536 450.465 103.689 446.21 125.35C441.956 147.011 440.924 152.168 440.924 152.168L399.668 147.526C399.668 147.526 397.734 128.315 401.086 110.265C405.212 87.0573 420.038 78.161 438.475 91.441Z" fill="#4C4C4C"/>
<path d="M397.089 211.09C397.089 211.09 383.165 285.612 379.426 316.169C374.527 356.009 354.673 414.415 354.673 414.415L362.666 416.478C362.666 416.478 390.772 366.839 396.187 322.229C418.491 276.587 420.296 220.502 420.296 220.502L397.089 211.09Z" fill="#EEC1BB"/>
<path d="M411.658 209.929C411.658 209.929 413.334 285.741 416.042 316.427C419.523 356.525 412.045 417.638 412.045 417.638L420.296 418.025C420.296 418.025 437.572 363.745 433.704 318.877C446.081 269.625 436.283 214.313 436.283 214.313L411.658 209.929Z" fill="#EEC1BB"/>
<path d="M341.847 425.465C343.136 424.821 344.554 424.563 345.972 424.434C345.972 424.434 350.872 421.597 355.771 410.38H361.186C363.119 410.38 364.795 411.541 365.44 413.346C365.569 413.604 365.569 413.862 365.569 414.119C365.569 415.409 365.311 416.698 365.182 418.116C364.667 422.242 361.959 431.009 361.959 431.009L361.057 430.752L362.733 422.629C363.248 419.921 360.412 422.5 358.994 425.336C357.705 428.173 355.513 430.881 349.582 429.591C342.491 427.657 339.655 426.755 341.847 425.465Z" fill="#072C74"/>
<path d="M365.44 413.475C366.472 410.767 367.761 406.126 367.761 406.126L356.029 404.449C356.029 404.449 356.029 410.251 353.837 413.99C360.025 413.861 365.44 413.475 365.44 413.475Z" fill="#072C74"/>
<path d="M399.281 434.915C400.441 434.141 401.859 433.626 403.277 433.497C403.277 433.497 407.79 430.144 411.4 418.412L416.815 417.767C418.748 417.638 420.553 418.541 421.327 420.346C421.456 420.604 421.585 420.861 421.585 421.119C421.714 422.409 421.714 423.698 421.585 425.116C421.585 429.242 419.78 438.267 419.78 438.267L418.877 438.138L419.651 429.887C419.909 427.05 417.33 430.016 416.299 432.981C415.267 435.946 413.462 438.912 407.403 438.138C400.183 437.107 397.347 436.462 399.281 434.915Z" fill="#072C74"/>
<path d="M421.586 420.475C422.359 417.767 423.133 412.868 423.133 412.868L411.272 412.481C411.272 412.481 411.916 418.154 410.111 422.151C416.171 421.506 421.586 420.475 421.586 420.475Z" fill="#072C74"/>
<path d="M394.124 198.712L378.782 304.694C378.782 304.694 428.676 312.43 448.66 307.917C448.66 307.917 453.559 246.675 432.673 202.193L394.124 198.712Z" fill="#4857D7"/>
<path d="M347.969 161.193L334.689 148.042C334.689 148.042 334.174 144.561 332.884 143.529C331.595 142.498 322.441 139.275 321.281 139.919C320.121 140.693 318.574 148.042 320.121 149.46C321.668 150.749 330.048 152.555 330.821 152.426L345.261 169.573L347.969 161.193Z" fill="#EEC1BB"/>
<path d="M395.801 137.212C389.999 140.306 369.629 168.8 366.664 170.218C363.698 171.636 340.621 152.941 340.621 152.941L336.753 159.517C336.753 159.517 355.576 186.206 366.277 184.916C376.978 183.627 397.348 161.064 397.348 161.064L408.951 141.853L395.801 137.212Z" fill="#7886FF"/>
<path opacity="0.2" d="M389.097 169.445C393.867 164.932 397.348 161.064 397.348 161.064L396.961 155.391L395.156 149.847C395.156 149.847 387.163 157.325 389.097 169.445Z" fill="black"/>
<path d="M393.866 197.552C392.319 169.187 392.964 153.586 393.737 145.721C394.511 137.47 395.8 137.083 395.8 137.083C395.8 137.083 404.825 136.18 412.69 136.309C418.749 136.567 424.808 137.212 430.739 138.243C436.412 139.146 441.956 140.564 447.499 142.24C446.597 144.819 445.694 147.268 444.921 149.718C443.889 152.812 442.987 155.649 442.213 158.357C440.666 163.385 439.506 167.64 438.475 171.508C435.509 183.498 434.865 191.105 434.22 201.162C434.22 201.162 444.147 227.077 446.081 246.03L413.205 249.64L408.693 230.558L404.18 250.156L385.873 243.709L393.866 197.552Z" fill="#7886FF"/>
<path opacity="0.2" d="M436.799 178.341C437.186 176.149 437.701 173.828 438.346 171.379C438.733 169.831 439.248 168.155 439.635 166.35C438.346 161.967 437.057 165.448 437.057 165.448C437.057 165.448 435.896 170.863 436.799 178.341Z" fill="black"/>
<path d="M413.076 138.114C413.463 137.856 413.849 137.727 414.365 137.598C415.268 136.825 416.428 135.149 416.428 130.765C416.428 129.347 416.299 127.671 415.912 125.737L427.902 123.545C427.902 123.545 423.777 131.539 427.258 137.598C428.418 138.114 429.063 138.888 429.063 139.79C428.16 146.753 413.334 153.328 413.334 153.328C413.334 153.328 405.856 141.982 413.076 138.114Z" fill="#EEC1BB"/>
<path opacity="0.2" d="M415.783 125.737C416.041 127.671 416.17 129.347 416.299 130.765C424.421 130.765 427.773 123.545 427.773 123.545L415.783 125.737Z" fill="black"/>
<path d="M422.488 92.3435C412.045 91.8278 408.435 97.114 407.145 107.815C405.469 121.095 407.919 130.765 421.069 128.702C438.861 125.737 439.764 93.246 422.488 92.3435Z" fill="#EEC1BB"/>
<path d="M413.85 107.557C413.85 107.557 412.303 110.136 410.627 111.683C410.627 111.683 411.401 113.101 413.334 112.972L413.85 107.557Z" fill="#D4827D"/>
<path d="M420.167 107.042C420.038 107.944 420.553 108.589 421.069 108.718C421.585 108.718 422.1 108.073 422.229 107.299C422.358 106.397 421.843 105.752 421.327 105.623C420.811 105.494 420.295 106.139 420.167 107.042Z" fill="#263238"/>
<path d="M421.585 105.623L419.78 104.721C419.78 104.721 420.554 106.397 421.585 105.623Z" fill="#263238"/>
<path d="M409.595 106.01C409.466 106.913 409.982 107.557 410.498 107.686C411.013 107.686 411.529 107.042 411.658 106.268C411.787 105.366 411.271 104.721 410.756 104.592C410.24 104.592 409.724 105.237 409.595 106.01Z" fill="#263238"/>
<path d="M411.013 104.592L409.208 103.689C409.208 103.818 409.982 105.366 411.013 104.592Z" fill="#263238"/>
<path d="M420.683 99.8216C420.683 99.8216 423.648 99.5637 425.066 101.627" stroke="#263238" stroke-width="0.6862" stroke-miterlimit="10" stroke-linecap="round" stroke-linejoin="round"/>
<path d="M413.206 99.048C413.206 99.048 411.401 98.2744 409.08 99.6926" stroke="#263238" stroke-width="0.6862" stroke-miterlimit="10" stroke-linecap="round" stroke-linejoin="round"/>
<path d="M432.802 110.394C432.802 110.394 428.418 101.627 429.45 95.0511C429.45 95.0511 409.337 85.5101 407.146 106.397C407.146 106.397 406.114 87.702 424.035 88.3466C441.956 88.8623 440.409 115.035 430.739 122.385C430.868 122.256 435.509 115.938 432.802 110.394Z" fill="#4C4C4C"/>
<path d="M430.997 112.586C431.126 110.91 433.06 108.202 436.154 108.718C439.377 109.234 440.537 115.938 432.415 117.098C431.255 117.227 430.739 116.067 430.997 112.586Z" fill="#EEC1BB"/>
<path d="M421.328 115.422C421.328 115.422 418.878 118.001 415.397 117.872" stroke="#263238" stroke-width="0.6862" stroke-miterlimit="10" stroke-linecap="round" stroke-linejoin="round"/>
<path d="M429.579 95.0511C429.579 95.0511 407.146 89.2492 405.212 110.265" stroke="#4C4C4C" stroke-width="0.6862" stroke-miterlimit="10" stroke-linecap="round" stroke-linejoin="round"/>
<path d="M409.466 143.143C409.466 143.143 407.79 160.162 410.497 175.762C410.497 175.762 417.073 151.781 426.484 143.658L415.783 145.205L409.466 143.143Z" fill="#C2D5F9"/>
<path opacity="0.5" d="M409.466 143.143C409.466 143.143 407.79 160.162 410.497 175.762C410.497 175.762 417.073 151.781 426.484 143.658L415.783 145.205L409.466 143.143Z" fill="#C2D5F9"/>
<path d="M426.742 135.664L415.912 143.658V135.149C415.912 135.149 407.145 138.372 407.79 148.042L415.01 144.69V148.042L416.686 144.819L422.358 151.265C422.358 151.265 429.32 143.142 430.094 140.693C430.738 138.243 426.742 135.664 426.742 135.664Z" fill="#C2D5F9"/>
<path opacity="0.7" d="M426.742 135.664L415.912 143.658V135.149C415.912 135.149 407.145 138.372 407.79 148.042L415.01 144.69V148.042L416.686 144.819L422.358 151.265C422.358 151.265 429.32 143.142 430.094 140.693C430.738 138.243 426.742 135.664 426.742 135.664Z" fill="#C2D5F9"/>
<path d="M438.088 210.961L428.161 163.385C427.903 162.353 427 161.58 425.969 161.58H395.156C394.253 161.58 393.48 162.482 393.609 163.385L401.86 210.058C401.989 211.09 402.891 211.863 403.923 211.863L436.412 212.766C437.443 212.766 438.217 211.863 438.088 210.961Z" fill="#FF7898"/>
<path opacity="0.1" d="M438.088 210.961L428.161 163.385C427.903 162.353 427 161.58 425.969 161.58H395.156C394.253 161.58 393.48 162.482 393.609 163.385L401.86 210.058C401.989 211.09 402.891 211.863 403.923 211.863L436.412 212.766C437.443 212.766 438.217 211.863 438.088 210.961Z" fill="#FF7898"/>
<path d="M451.367 195.489L435.509 185.432C435.509 185.432 434.349 182.08 432.802 181.435C431.383 180.791 421.714 179.501 420.683 180.404C419.78 181.306 419.78 188.913 421.585 189.945C423.39 190.976 431.899 190.847 432.673 190.461L450.464 204.127L451.367 195.489Z" fill="#EEC1BB"/>
<path d="M445.952 143.142C443.889 146.623 437.314 159.387 438.604 170.218L452.399 193.039L443.116 188.268L438.99 196.133C438.99 196.133 449.562 212.507 463.228 208.639C475.734 205.029 451.367 150.878 447.499 142.626C447.113 142.239 446.21 142.755 445.952 143.142Z" fill="#7886FF"/>
<path d="M424.937 161.58C423.777 161.58 423.777 193.297 423.777 193.297L396.058 192.523C396.058 192.523 392.964 165.706 396.058 161.58H424.937Z" fill="white"/>
<path opacity="0.1" d="M424.937 161.58C423.777 161.58 423.777 193.297 423.777 193.297L396.058 192.523C396.058 192.523 392.964 165.706 396.058 161.58H424.937Z" fill="black"/>
<path d="M310.323 136.438L336.495 147.397C337.139 147.655 337.397 148.3 337.139 148.944C336.881 149.589 336.237 149.847 335.592 149.589L309.163 138.372C309.034 138.372 309.034 138.243 308.905 138.243L305.811 135.922L309.807 136.309C310.194 136.309 310.323 136.309 310.323 136.438Z" fill="#4C4C4C"/>
<path d="M223.428 191.718L197.9 194.039L187.715 188.237C187.715 188.237 154.968 169.929 146.459 164.256C143.881 162.451 141.431 158.583 139.368 154.07C137.563 150.331 136.145 146.076 134.856 142.208C134.211 140.403 133.696 138.598 133.309 137.051C132.277 133.57 131.762 130.991 131.504 130.347C131.504 130.218 131.504 130.218 131.504 130.218H131.633L139.755 127.639L146.459 125.447C146.459 125.447 146.717 126.994 147.233 129.444C147.362 130.089 147.491 130.862 147.748 131.636C147.877 132.281 148.006 132.925 148.135 133.57C149.811 141.048 152.39 151.363 154.324 153.039C157.418 155.746 195.838 181.919 197.127 182.564C198.545 183.209 210.793 182.564 210.793 182.564L223.428 191.718Z" fill="#E4897B"/>
<path d="M131.504 93.9881C143.236 93.8592 150.714 130.218 150.714 130.218L135.243 137.954C135.243 137.954 128.281 126.866 128.668 112.941C128.926 99.0165 131.504 93.9881 131.504 93.9881Z" fill="#C2D5F9"/>
<path opacity="0.5" d="M131.504 93.9881C143.236 93.8592 150.714 130.218 150.714 130.218L135.243 137.954C135.243 137.954 128.281 126.866 128.668 112.941C128.926 99.0165 131.504 93.9881 131.504 93.9881Z" fill="#C2D5F9"/>
<path d="M150.198 127.897L150.585 127.639L152.39 130.862L148.135 133.57L142.72 137.18L134.856 142.208L133.438 143.111L131.762 137.954L133.309 137.18L134.34 136.535" fill="#7886FF"/>
<path opacity="0.2" d="M143.365 143.111C143.494 147.495 141.689 151.105 139.368 154.07C137.563 150.331 136.145 146.077 134.856 142.209L133.438 143.111L131.762 137.954L133.309 137.051C132.277 133.57 131.762 130.991 131.504 130.347V130.218L133.309 116.035C133.309 116.035 136.661 120.935 139.497 127.639C140.142 129.186 140.787 130.863 141.302 132.668C141.431 133.312 141.689 133.828 141.818 134.473C142.076 135.375 142.334 136.278 142.463 137.18C143.107 139.114 143.365 141.177 143.365 143.111Z" fill="black"/>
<path d="M129.699 427.534L140.529 428.695L142.463 405.358L131.762 404.327L129.699 427.534Z" fill="#E4897B"/>
<path d="M75.8086 426.761H86.2515L87.154 402.521H76.7111L75.8086 426.761Z" fill="#E4897B"/>
<path d="M87.7984 425.6H75.0348C74.6481 425.6 74.2613 425.858 74.1323 426.374L72.0695 435.657C71.9406 436.431 72.4563 437.333 73.2299 437.462C73.3588 437.462 73.4877 437.462 73.6166 437.462C77.7423 437.333 80.7075 437.204 85.8645 437.204C89.0877 437.204 98.6281 437.591 103.012 437.591C107.395 437.591 107.911 433.207 106.235 432.821C98.1124 431.015 92.0529 428.695 89.4744 426.374C89.0877 425.729 88.443 425.6 87.7984 425.6Z" fill="#072C74"/>
<path d="M141.56 425.214H128.925C128.539 425.214 128.152 425.471 128.023 425.987L125.96 435.27C125.831 436.044 126.347 436.946 127.121 437.075C127.249 437.075 127.378 437.075 127.507 437.075C131.633 436.946 134.598 436.817 139.755 436.817C142.978 436.817 152.519 437.204 156.902 437.204C161.286 437.204 161.801 432.821 160.125 432.434C152.003 430.629 145.944 428.308 143.365 425.987C142.849 425.471 142.205 425.214 141.56 425.214Z" fill="#072C74"/>
<path opacity="0.2" d="M131.762 404.327L142.463 405.358L141.431 417.478L130.602 416.317L131.762 404.327Z" fill="black"/>
<path opacity="0.2" d="M76.711 402.521H87.154L86.7672 415.028H76.1953L76.711 402.521Z" fill="black"/>
<path d="M80.9651 190.171H136.403C141.689 218.923 158.191 320.908 146.33 411.805L127.636 409.355C127.636 409.355 129.312 288.804 112.81 244.194C110.876 268.046 108.684 293.445 106.621 306.983C101.851 340.248 91.537 412.836 91.537 412.836H72.4561C72.4561 412.836 76.3238 343.342 78.1288 310.593C80.0626 275.137 80.9651 197.391 80.9651 190.171Z" fill="#7886FF"/>
<path opacity="0.2" d="M112.81 244.193C115.259 250.769 117.322 259.021 118.998 268.175C120.545 246.901 114.357 224.467 114.357 224.467L112.81 244.193Z" fill="black"/>
<path d="M148.651 416.06L125.315 412.578L126.089 406.261L150.198 409.355L148.651 416.06Z" fill="#407BFF"/>
<path opacity="0.6" d="M148.651 416.06L125.315 412.578L126.089 406.261L150.198 409.355L148.651 416.06Z" fill="white"/>
<path d="M93.8578 413.094H71.2959V406.261L94.6314 405.874L93.8578 413.094Z" fill="#407BFF"/>
<path opacity="0.6" d="M93.8578 413.094H71.2959V406.261L94.6314 405.874L93.8578 413.094Z" fill="white"/>
<path d="M80.9649 199.712L80.8359 191.718L137.434 188.237L137.821 195.973L80.9649 199.712Z" fill="#072C74"/>
<path d="M95.2758 189.655H92.6973V201.388H95.2758V189.655Z" fill="#7886FF"/>
<path d="M134.293 185.832L131.722 186.02L132.576 197.721L135.147 197.533L134.293 185.832Z" fill="#7886FF"/>
<path d="M137.435 188.237L80.8366 192.492C80.9655 187.592 80.7076 182.048 80.3209 176.246C79.6762 165.416 78.2581 153.683 76.8399 142.595C73.7457 119.13 69.8779 99.0163 69.8779 99.0163C96.1787 92.3119 131.504 93.988 131.504 93.988C140.658 128.284 137.435 188.237 137.435 188.237Z" fill="#C2D5F9"/>
<path d="M89.9902 95.4062C95.1472 100.048 107.524 98.3716 107.524 98.3716C107.524 98.3716 115.26 96.1798 113.712 93.859C109.071 93.0854 106.879 91.0225 105.977 88.186C105.461 86.6388 105.332 84.8338 105.461 82.8998C105.59 81.8684 105.719 80.9658 105.848 79.9344L90.377 68.4595C92.4398 76.0664 94.8894 89.8621 89.9902 95.4062Z" fill="#E4897B"/>
<path opacity="0.2" d="M93.9863 75.8086C94.631 85.0917 102.238 87.6703 105.976 88.186C105.461 86.6389 105.332 84.8338 105.461 82.8998L93.9863 75.8086Z" fill="black"/>
<path d="M120.546 46.5412C124.285 50.1513 122.738 60.9815 115.131 66.5256C107.524 72.0697 107.524 45.2519 107.524 45.2519C107.524 45.2519 118.225 44.2204 120.546 46.5412Z" fill="#4C4C4C"/>
<path d="M92.9551 77.8716C96.694 83.1578 102.753 84.5761 107.91 82.9C111.263 81.8685 114.357 79.5477 116.162 76.1955C116.42 75.8087 116.677 75.293 116.806 74.7773C120.545 66.0099 121.705 50.5381 112.423 44.8651C105.848 40.7393 97.0807 42.6733 92.9551 49.2488C91.7948 51.1828 91.0213 53.2457 90.7634 55.4375C89.8609 65.881 88.7006 71.8118 92.9551 77.8716Z" fill="#E4897B"/>
<path d="M105.977 60.9816C105.719 61.7552 106.106 62.5288 106.751 62.6577C107.267 62.7866 107.911 62.142 108.04 61.3684C108.169 60.5948 107.911 59.8212 107.267 59.6923C106.622 59.5634 106.106 60.208 105.977 60.9816Z" fill="#263238"/>
<path d="M115.388 62.6576C115.131 63.4312 115.517 64.2048 116.162 64.3337C116.678 64.4627 117.322 63.818 117.451 63.0444C117.58 62.2708 117.322 61.4972 116.678 61.3683C116.033 61.2394 115.517 61.884 115.388 62.6576Z" fill="#263238"/>
<path d="M112.294 62.5288C112.81 65.2364 113.841 67.815 115.002 70.2647C113.712 70.9094 112.165 70.9094 110.876 70.2647L112.294 62.5288Z" fill="#DE5753"/>
<path d="M103.527 57.5005C103.656 57.5005 103.914 57.5005 104.043 57.3716C104.946 56.469 106.235 56.0822 107.395 56.2112C107.653 56.3401 107.911 56.0822 108.04 55.8244C108.169 55.5665 107.911 55.3087 107.653 55.1797C106.106 54.9219 104.43 55.4376 103.398 56.469C103.141 56.598 103.141 56.9848 103.398 57.1137C103.398 57.3716 103.527 57.5005 103.527 57.5005Z" fill="#263238"/>
<path d="M108.813 74.5192C106.364 74.5192 104.043 73.2299 102.625 71.167C102.496 71.0381 102.625 70.9091 102.754 70.7802C102.883 70.6513 103.011 70.7802 103.14 70.9091C104.43 72.8431 106.621 73.8746 108.813 74.0035C108.942 74.0035 109.071 74.1324 109.071 74.2614C109.2 74.3903 109.071 74.5192 108.813 74.5192Z" fill="#263238"/>
<path d="M119.901 60.079C120.03 60.079 120.03 60.2079 120.159 60.2079C120.417 60.079 120.546 59.8211 120.546 59.5633C120.159 58.0161 118.998 56.7268 117.451 56.2111C117.194 56.0821 116.936 56.34 116.807 56.5978C116.678 56.8557 116.936 57.1136 117.194 57.2425C118.354 57.7582 119.256 58.6608 119.514 59.9501C119.643 59.9501 119.772 60.079 119.901 60.079Z" fill="#263238"/>
<path d="M100.562 44.0916V48.7331C99.0152 49.3778 97.8548 50.9249 98.3705 52.73C99.4019 56.7269 96.4367 62.3999 93.2135 64.3338C93.2135 64.3338 93.3425 62.6577 91.9243 62.9156C90.5061 63.1735 89.8615 71.8119 92.0532 76.1956C92.0532 76.1956 88.4433 71.9408 87.1541 62.6577C85.9937 54.0193 86.6384 47.057 88.7012 44.0916H100.562Z" fill="#4C4C4C"/>
<path d="M85.091 63.1732C85.8645 65.6229 87.5405 67.8148 89.8612 68.9751C92.9554 70.6513 95.1471 68.0726 95.0182 64.8493C94.7603 61.8839 92.9554 57.5002 89.6033 57.2424C86.1224 56.9845 84.1885 60.0789 85.091 63.1732Z" fill="#E4897B"/>
<path d="M86.7675 51.8274C86.7675 51.8274 83.5444 44.2204 91.9245 38.5474C100.176 32.8744 120.03 39.4499 121.448 43.9625C122.738 48.6041 107.911 56.9846 86.7675 51.8274Z" fill="#4C4C4C"/>
<path d="M91.9237 90.6358L104.558 97.4691L106.234 88.0571L115.001 93.8591V105.85L105.719 100.306L99.1435 110.233L86.1221 95.922L91.9237 90.6358Z" fill="#407BFF"/>
<path d="M121.061 198.294L111.134 198.809C110.361 198.809 109.587 198.165 109.587 197.391L109.2 190.687C109.2 189.913 109.845 189.14 110.618 189.14L120.546 188.624C121.319 188.624 122.093 189.268 122.093 190.042L122.479 196.746C122.479 197.52 121.835 198.294 121.061 198.294Z" fill="white"/>
<path d="M91.9237 90.6358L104.558 97.4691L106.234 88.0571L115.001 93.8591V105.85L105.719 100.306L99.1435 110.233L86.1221 95.922L91.9237 90.6358Z" fill="#7886FF"/>
<path opacity="0.2" d="M100.562 173.668C96.8232 179.341 84.8332 179.341 80.3208 176.117C79.6762 165.287 78.258 153.554 76.8398 142.466L100.562 173.668Z" fill="black"/>
<path d="M80.8361 130.218C80.8361 130.218 83.5436 147.624 86.1221 150.976C88.7006 154.328 142.849 183.982 142.849 183.982L161.543 182.564L170.181 192.363C170.181 192.363 145.299 196.231 142.591 195.457C139.884 194.684 137.821 193.652 137.821 193.652C137.821 193.652 81.094 171.347 76.3238 166.19C71.5535 161.032 66.1387 134.859 66.1387 134.859L80.8361 130.218Z" fill="#E4897B"/>
<path d="M69.8776 98.8873C79.8048 96.8244 84.8329 137.954 84.8329 137.954L64.5916 143.111C64.5916 143.111 57.6297 101.466 69.8776 98.8873Z" fill="#C2D5F9"/>
<path d="M86.1225 136.665V140.661L64.463 146.85L63.4316 142.08" fill="#7886FF"/>
<path d="M141.302 402.783V226.017C141.302 218.41 138.981 210.932 134.598 204.615L128.409 195.718H238.125L244.313 204.615C248.696 210.932 251.017 218.41 251.017 226.017V400.978" stroke="#4C4C4C" stroke-width="6" stroke-miterlimit="10" stroke-linecap="round" stroke-linejoin="round"/>
<path d="M374.398 441.462C380.664 441.462 385.744 436.382 385.744 430.116C385.744 423.85 380.664 418.77 374.398 418.77C368.132 418.77 363.053 423.85 363.053 430.116C363.053 436.382 368.132 441.462 374.398 441.462Z" fill="#4C4C4C"/>
<path opacity="0.4" d="M380.071 430.116C380.071 427.022 377.493 424.443 374.398 424.443C371.304 424.443 368.726 427.022 368.726 430.116C368.726 433.21 371.304 435.789 374.398 435.789C377.493 435.789 380.071 433.21 380.071 430.116Z" fill="white"/>
<path d="M372.98 432.695C371.175 432.695 369.499 431.534 368.983 429.858L362.279 411.55H377.364V428.44C377.364 430.761 375.43 432.695 372.98 432.695Z" fill="#4C4C4C"/>
<path opacity="0.2" d="M372.98 432.695C371.175 432.695 369.499 431.534 368.983 429.858L362.279 411.55H377.364V428.44C377.364 430.761 375.43 432.695 372.98 432.695Z" fill="white"/>
<path d="M248.051 441.462C254.317 441.462 259.397 436.382 259.397 430.116C259.397 423.85 254.317 418.77 248.051 418.77C241.786 418.77 236.706 423.85 236.706 430.116C236.706 436.382 241.786 441.462 248.051 441.462Z" fill="#4C4C4C"/>
<path opacity="0.4" d="M253.724 430.116C253.724 427.022 251.146 424.443 248.052 424.443C244.957 424.443 242.379 427.022 242.379 430.116C242.379 433.21 244.957 435.789 248.052 435.789C251.146 435.789 253.724 433.21 253.724 430.116Z" fill="white"/>
<path d="M246.633 432.695C244.828 432.695 243.152 431.534 242.637 429.858L235.933 411.55H251.017V428.44C251.017 430.761 249.083 432.695 246.633 432.695Z" fill="#4C4C4C"/>
<path opacity="0.2" d="M246.633 432.695C244.828 432.695 243.152 431.534 242.637 429.858L235.933 411.55H251.017V428.44C251.017 430.761 249.083 432.695 246.633 432.695Z" fill="white"/>
<path d="M393.866 398.27V408.971C393.866 410.905 392.19 412.581 390.257 412.581H136.403C134.34 412.581 132.793 410.905 132.793 408.971V398.27H393.866Z" fill="#4C4C4C"/>
<path opacity="0.2" d="M304 398V409.21C304 411.263 302.313 413 300.367 413H136.633C134.687 413 133 411.263 133 409.21V398H304Z" fill="white"/>
<path d="M282.862 441.462C289.128 441.462 294.207 436.382 294.207 430.116C294.207 423.85 289.128 418.77 282.862 418.77C276.596 418.77 271.517 423.85 271.517 430.116C271.517 436.382 276.596 441.462 282.862 441.462Z" fill="#4C4C4C"/>
<path opacity="0.6" d="M288.535 430.116C288.535 427.022 285.956 424.443 282.862 424.443C279.768 424.443 277.189 427.022 277.189 430.116C277.189 433.21 279.768 435.789 282.862 435.789C285.956 435.789 288.535 433.21 288.535 430.116Z" fill="white"/>
<path d="M281.444 432.695C279.639 432.695 277.963 431.534 277.447 429.858L270.743 411.55H285.827V428.44C285.827 430.761 283.893 432.695 281.444 432.695Z" fill="#4C4C4C"/>
<path opacity="0.4" d="M281.444 432.695C279.639 432.695 277.963 431.534 277.447 429.858L270.743 411.55H285.827V428.44C285.827 430.761 283.893 432.695 281.444 432.695Z" fill="white"/>
<path d="M156.515 441.462C162.781 441.462 167.861 436.382 167.861 430.116C167.861 423.85 162.781 418.77 156.515 418.77C150.249 418.77 145.17 423.85 145.17 430.116C145.17 436.382 150.249 441.462 156.515 441.462Z" fill="#4C4C4C"/>
<path opacity="0.6" d="M162.188 430.116C162.188 427.022 159.61 424.443 156.515 424.443C153.421 424.443 150.843 427.022 150.843 430.116C150.843 433.21 153.421 435.789 156.515 435.789C159.61 435.789 162.188 433.21 162.188 430.116Z" fill="white"/>
<path d="M155.097 432.695C153.292 432.695 151.616 431.534 151.101 429.858L144.396 411.55H159.481V428.44C159.481 430.761 157.547 432.695 155.097 432.695Z" fill="#4C4C4C"/>
<path opacity="0.4" d="M155.097 432.695C153.292 432.695 151.616 431.534 151.101 429.858L144.396 411.55H159.481V428.44C159.481 430.761 157.547 432.695 155.097 432.695Z" fill="white"/>
<path d="M284.408 314.98H164.25V398.27H284.408V314.98Z" fill="#FF7898"/>
<path opacity="0.2" d="M220 315H164V398H220V315Z" fill="white"/>
<path opacity="0.2" d="M214.789 392.597H207.827C207.183 392.597 206.667 392.081 206.667 391.437V381.896C206.667 381.251 207.183 380.735 207.827 380.735H214.789C215.434 380.735 215.95 381.251 215.95 381.896V391.437C215.95 391.952 215.434 392.597 214.789 392.597Z" fill="black"/>
<path opacity="0.2" d="M202.154 392.597H195.192C194.547 392.597 194.031 392.081 194.031 391.437V381.896C194.031 381.251 194.547 380.735 195.192 380.735H202.154C202.798 380.735 203.314 381.251 203.314 381.896V391.437C203.314 391.952 202.798 392.597 202.154 392.597Z" fill="black"/>
<path opacity="0.4" d="M258.623 314.98H251.79V323.619H258.623V314.98Z" fill="black"/>
<path opacity="0.2" d="M277.189 350.565H230.389V361.396H277.189V350.565Z" fill="black"/>
<path opacity="0.2" d="M183.846 319.364H167.859V335.351H183.846V319.364Z" fill="black"/>
<path d="M296.656 233H176.498V317.109H296.656V233Z" fill="#C2D5F9"/>
<path opacity="0.2" d="M234 234.192H178V315.989H234V234.192Z" fill="white"/>
<path opacity="0.2" d="M227.037 311.25H220.075C219.431 311.25 218.915 310.729 218.915 310.078V300.444C218.915 299.793 219.431 299.272 220.075 299.272H227.037C227.682 299.272 228.198 299.793 228.198 300.444V310.078C228.198 310.729 227.682 311.25 227.037 311.25Z" fill="black"/>
<path opacity="0.2" d="M214.402 311.25H207.44C206.795 311.25 206.279 310.729 206.279 310.078V300.444C206.279 299.793 206.795 299.272 207.44 299.272H214.402C215.046 299.272 215.562 299.793 215.562 300.444V310.078C215.691 310.729 215.046 311.25 214.402 311.25Z" fill="black"/>
<path opacity="0.4" d="M270.871 233H264.038V241.723H270.871V233Z" fill="black"/>
<path opacity="0.2" d="M289.437 268.805H242.637V279.742H289.437V268.805Z" fill="black"/>
<path opacity="0.2" d="M196.095 237.297H180.108V253.441H196.095V237.297Z" fill="black"/>
<path d="M370.273 232.819H250.114V316.109H370.273V232.819Z" fill="#072C74"/>
<path opacity="0.4" d="M370 233H248V316H370V233Z" fill="white"/>
<path opacity="0.2" d="M305.939 232.819H250.114V316.109H305.939V232.819Z" fill="white"/>
<path opacity="0.2" d="M300.654 310.307H293.692C293.047 310.307 292.531 309.792 292.531 309.147V299.606C292.531 298.961 293.047 298.446 293.692 298.446H300.654C301.298 298.446 301.814 298.961 301.814 299.606V309.147C301.814 309.792 301.298 310.307 300.654 310.307Z" fill="black"/>
<path opacity="0.2" d="M288.018 310.307H281.056C280.411 310.307 279.896 309.792 279.896 309.147V299.606C279.896 298.961 280.411 298.446 281.056 298.446H288.018C288.662 298.446 289.178 298.961 289.178 299.606V309.147C289.178 309.792 288.662 310.307 288.018 310.307Z" fill="black"/>
<path opacity="0.4" d="M344.487 232.819H337.654V241.458H344.487V232.819Z" fill="black"/>
<path opacity="0.2" d="M363.053 268.276H316.253V279.106H363.053V268.276Z" fill="black"/>
<path opacity="0.2" d="M269.711 237.074H253.725V253.062H269.711V237.074Z" fill="black"/>
<path d="M252.048 149.529H328.759V232.819H208.472V149.529H229.615" fill="#FFD978"/>
<path opacity="0.2" d="M264.296 150.174H209.245V232.174H264.296V150.174Z" fill="white"/>
<path opacity="0.2" d="M259.011 227.146H252.049C251.404 227.146 250.889 226.63 250.889 225.986V216.316C250.889 215.671 251.404 215.156 252.049 215.156H259.011C259.656 215.156 260.171 215.671 260.171 216.316V225.857C260.171 226.502 259.656 227.146 259.011 227.146Z" fill="black"/>
<path opacity="0.2" d="M246.505 227.146H239.543C238.899 227.146 238.383 226.63 238.383 225.986V216.316C238.383 215.671 238.899 215.156 239.543 215.156H246.505C247.15 215.156 247.665 215.671 247.665 216.316V225.857C247.665 226.502 247.15 227.146 246.505 227.146Z" fill="black"/>
<path opacity="0.4" d="M302.974 149.529H296.141V158.168H302.974V149.529Z" fill="black"/>
<path opacity="0.2" d="M321.41 185.115H274.61V195.945H321.41V185.115Z" fill="black"/>
<path opacity="0.2" d="M228.198 153.913H212.211V169.9H228.198V153.913Z" fill="black"/>
<path d="M360.861 314.98H240.703V398.27H360.861V314.98Z" fill="#7886FF"/>
<path opacity="0.2" d="M296.528 314.98H240.703V398.27H296.528V314.98Z" fill="white"/>
<path opacity="0.2" d="M291.242 392.597H284.28C283.636 392.597 283.12 392.081 283.12 391.437V381.896C283.12 381.251 283.636 380.735 284.28 380.735H291.242C291.887 380.735 292.403 381.251 292.403 381.896V391.437C292.403 391.952 291.887 392.597 291.242 392.597Z" fill="black"/>
<path opacity="0.2" d="M278.607 392.597H271.645C271 392.597 270.484 392.081 270.484 391.437V381.896C270.484 381.251 271 380.735 271.645 380.735H278.607C279.251 380.735 279.767 381.251 279.767 381.896V391.437C279.896 391.952 279.38 392.597 278.607 392.597Z" fill="black"/>
<path opacity="0.4" d="M335.205 314.98H328.372V323.619H335.205V314.98Z" fill="black"/>
<path opacity="0.2" d="M353.642 350.565H306.842V361.396H353.642V350.565Z" fill="black"/>
<path opacity="0.2" d="M260.3 319.364H244.313V335.351H260.3V319.364Z" fill="black"/>
</g>
<defs>
<clipPath id="clip0">
<rect width="505" height="455" fill="white"/>
</clipPath>
</defs>
</svg>
