<?xml version="1.0" encoding="utf-8"?>
<!-- Generator: Adobe Illustrator 17.1.0, SVG Export Plug-In . SVG Version: 6.00 Build 0)  -->
<!DOCTYPE svg PUBLIC "-//W3C//DTD SVG 1.1//EN" "http://www.w3.org/Graphics/SVG/1.1/DTD/svg11.dtd">
<svg version="1.1" id="Layer_1" xmlns="http://www.w3.org/2000/svg" xmlns:xlink="http://www.w3.org/1999/xlink" x="0px" y="0px"
	 viewBox="92.9 106.2 1139.6 1179" enable-background="new 92.9 106.2 1139.6 1179" xml:space="preserve">
<g>
	<path opacity= "0.3" fill="#5F553A" d="M1229.9,802.7l-64.1-389.4c-11.6-70.4-60-129.4-126.4-154L668,119.4c-22.9-8.8-46.8-13.2-70.9-13.2
		c-45.2,0-89.2,16-124.1,45.2l0,0L165.8,402c-27.1,22.4-47.9,51.6-60.2,84.4s-15.8,68.3-10.1,102.9l64,389.4
		c11.6,70.4,60,129.4,126.4,154l371.4,139.8c22.3,8.4,45.7,12.7,69.6,12.7c0,0,0,0,0,0c45.7,0,90.3-15.9,125.4-44.7l307-251.4
		C1214.4,944.5,1241.4,873.1,1229.9,802.7z M1158.1,987.5l-307,251.4c-34.8,28.6-78.9,44.3-124.2,44.3c-23.7,0-46.8-4.2-68.9-12.5
		l-371.4-139.8c-65.7-24.3-113.7-82.7-125.1-152.4l-64-389.4c-11.4-69.3,15.3-140.4,69.6-185.4l307.1-250.4l0.1-0.1
		c34.4-28.9,78.1-44.8,122.9-44.8c23.9,0,47.5,4.4,70.2,13.1l371.4,139.8c65.7,24.3,113.7,82.7,125.1,152.4l64,389.4
		C1239.3,872.7,1212.6,943.4,1158.1,987.5z"/>
</g>
</svg>
