<svg width="78" height="83" viewBox="0 0 78 83" fill="none" xmlns="http://www.w3.org/2000/svg">
<path d="M31.4296 81.5381V76.1428C28.7319 72.4076 23.3366 67.6348 30.7033 57.9855V56.9479M30.7033 56.9479V42.7334C30.7725 41.2808 31.8861 38.4794 35.7873 38.8945C39.6885 39.3095 40.4563 41.6267 40.3526 42.7334V56.9479C40.3526 56.9479 46.8892 56.9479 48.5493 56.9479C50.2094 56.9479 52.4712 56.9064 52.3882 54.2503V29.1414M30.7033 56.9479C25.8614 56.9479 15.555 56.9479 13.0648 56.9479C10.5747 56.9479 9.88297 54.7345 9.84839 53.6278C9.84839 39.102 9.84839 9.1788 9.84839 5.69261C9.84839 2.20642 12.3385 1.47321 13.5836 1.54238C23.8208 1.54238 45.1461 1.54238 48.5493 1.54238C51.9525 1.54238 52.5266 4.3092 52.3882 5.69261V29.1414M52.3882 81.5381V76.1428C54.913 70.5399 60.4397 58.5873 62.3488 55.5991C64.7352 51.8639 65.669 47.2987 61.83 42.0071C58.7588 37.7739 54.2558 31.6661 52.3882 29.1414" stroke="white" stroke-width="2" stroke-linecap="round" stroke-linejoin="round"/>
<path d="M68.9161 71.9376V67.4224M68.9161 81.5381V77.1543M61.7048 74.5679H66.3955M71.5683 74.5679H76.1055" stroke="white" stroke-width="2" stroke-linecap="round" stroke-linejoin="round"/>
<circle cx="5.72048" cy="65.6417" r="4.12771" stroke="white" stroke-width="2"/>
<circle cx="65.2286" cy="12.765" r="6.24232" stroke="white" stroke-width="2"/>
<rect x="28.231" y="6.52266" width="5.01415" height="19.5061" rx="2.50708" stroke="white" stroke-width="2" stroke-linecap="round" stroke-linejoin="round"/>
<circle cx="30.738" cy="32.5484" r="2.50708" stroke="white" stroke-width="2" stroke-linecap="round" stroke-linejoin="round"/>
</svg>
