<svg width="54" height="54" viewBox="0 0 54 54" fill="none" xmlns="http://www.w3.org/2000/svg">
<path fill-rule="evenodd" clip-rule="evenodd" d="M41.9521 16.351L22.3011 35.947L12.0481 25.723C11.5781 25.256 10.8181 25.257 10.3501 25.725C9.8831 26.195 9.8841 26.955 10.3521 27.422L21.4531 38.492C21.5351 38.573 21.6341 38.622 21.7301 38.675C21.7711 38.698 21.8061 38.736 21.8491 38.754C21.9941 38.813 22.1471 38.842 22.3011 38.842C22.4541 38.842 22.6081 38.813 22.7521 38.754C22.7961 38.736 22.8301 38.698 22.8711 38.675C22.9681 38.622 23.0661 38.573 23.1481 38.492L43.6471 18.05C44.1161 17.582 44.1171 16.823 43.6491 16.353C43.1821 15.885 42.4231 15.883 41.9521 16.351ZM27 51.6C13.436 51.6 2.4 40.565 2.4 27C2.4 13.436 13.436 2.401 27 2.401C40.564 2.401 51.6 13.436 51.6 27C51.6 40.565 40.564 51.6 27 51.6ZM27 0C12.112 0 0 12.113 0 27C0 41.888 12.112 54 27 54C41.888 54 54 41.888 54 27C54 12.113 41.888 0 27 0Z" fill="#3FA2F7"/>
</svg>
