<svg width="120" height="107" viewBox="0 0 120 107" fill="none" xmlns="http://www.w3.org/2000/svg">
<g clip-path="url(#clip0)">
<path d="M114.548 19.0379C108.4 7.40363 98.0184 0.117518 87.5786 0C87.5206 0 87.4046 0 87.3466 0C87.2886 0 87.2886 0 87.2306 0C87.7526 0.352554 88.0426 0.998902 87.6946 1.70401C82.8227 10.3416 80.8507 21.5645 83.4026 31.2597C85.3166 38.4283 89.8405 44.7155 93.6105 50.944C98.8884 59.5816 100.338 71.0983 99.1784 81.4986C104.804 76.3278 109.328 70.9808 112.924 65.3987C123.538 48.9462 120.696 30.6722 114.548 19.0379Z" fill="url(#paint0_linear)"/>
<path d="M29.5797 48.6524C24.0118 58.4064 19.1399 70.0994 20.8218 81.4986L20.7638 81.4399C15.1959 76.3279 10.672 70.9808 7.07606 65.4574C-3.47977 48.9462 -0.695812 30.6722 5.45208 19.0379C11.658 7.40363 21.9818 0.117518 32.4796 0C32.5376 0 32.6536 0 32.7116 0C32.8276 0 32.8856 0 33.0016 0H33.0596C32.5956 0.352554 32.2476 0.998902 32.5956 1.70401C39.6135 17.0401 37.8735 34.0802 29.5797 48.6524Z" fill="url(#paint1_linear)"/>
<path d="M94.9444 60.3454C94.1324 57.3487 92.7984 54.6458 91.2904 52.0604C90.7685 51.2966 90.4785 50.709 89.8405 49.6513C88.5065 47.4772 87.0565 45.3031 85.8385 43.0703C78.2987 29.6145 77.7767 14.0434 85.4325 0.41133C85.4905 0.235054 85.6065 0.176295 85.7225 0.0587769C78.5307 0.528848 68.9028 4.34818 59.971 18.3328C51.1551 4.52446 41.7013 0.587607 34.5094 0.0587769C34.5674 0.176295 34.6834 0.235054 34.7414 0.41133C40.1353 12.2219 41.1793 25.6189 37.2353 38.1933C35.7854 42.7178 33.4074 46.8309 31.0295 50.8852C30.6235 51.6491 30.1015 52.5893 29.6955 53.2944C28.3035 55.7622 27.0275 58.2301 26.0995 60.8743C23.4896 68.1016 22.0976 76.6804 23.9536 84.3191C33.0594 92.0752 44.6592 99.4201 58.811 106.412L60.029 107L61.2469 106.412C75.5727 99.3026 87.1725 91.899 96.3364 84.084C97.4963 76.2691 96.9743 67.8666 94.9444 60.3454ZM59.971 39.7798C59.971 39.7798 59.913 39.7798 59.971 39.7798C59.913 39.7798 59.913 39.7798 59.971 39.7798C58.289 39.7798 58.289 37.2532 59.913 37.2532C61.5949 37.1944 61.5949 39.7798 59.971 39.7798Z" fill="url(#paint2_linear)"/>
<path d="M34.6256 0.4113C34.5676 0.293782 34.5096 0.176264 34.3936 0.0587463C35.1475 0.117505 35.9015 0.176264 36.6555 0.352541C36.4815 0.470059 36.3655 0.587577 36.1915 0.646336C35.7855 0.94013 35.4375 1.23392 35.0315 1.52772C34.9735 1.17517 34.7995 0.763853 34.6256 0.4113Z" fill="white"/>
<path d="M22.7357 63.4596C20.8217 69.2768 19.8357 75.3877 20.7057 81.3811C15.1958 76.2691 10.6719 70.9808 7.13391 65.4574C-3.47991 48.9462 -0.695959 30.6722 5.50994 19.0379C11.6578 7.40363 21.9817 0.117518 32.4795 0C32.5375 0 32.6535 0 32.7115 0C32.7695 0 32.8855 0 32.9435 0C32.4795 0.352554 32.1895 0.998902 32.4795 1.70401C32.7115 2.23284 32.9435 2.70291 33.1175 3.23174C24.2436 10.9292 17.5157 22.0934 16.2398 33.9039C15.3118 42.4239 17.3417 51.1203 20.6477 58.994C21.2277 60.4042 21.8657 61.7556 22.5617 63.1071C22.5617 63.1658 22.6777 63.3421 22.7357 63.4596Z" fill="white"/>
<path d="M60.6092 106.706L60.0292 107L58.8112 106.412C44.6014 99.3613 33.0016 92.0165 23.8378 84.2015C22.4458 78.5019 22.9098 72.2147 24.3018 66.3976C28.4197 73.7424 33.5816 80.4997 38.9755 86.9632C44.6594 93.7792 50.6913 100.419 58.0572 105.178C58.8692 105.707 59.7392 106.236 60.6092 106.706Z" fill="white"/>
<path d="M22.7357 63.4596C22.6777 63.3421 22.6197 63.2246 22.5617 63.0483C21.9237 61.6969 21.2857 60.3454 20.7057 58.9352C17.3998 51.0615 15.3698 42.3652 16.2978 33.8451C17.5738 22.0933 24.3597 10.8704 33.2335 3.17296C33.0015 2.64413 32.8275 2.17406 32.5955 1.64523C32.3055 0.940125 32.5955 0.293777 33.0595 -0.0587769C33.0015 -0.0587769 32.8855 -0.0587769 32.8275 -0.0587769C32.7695 -0.0587769 32.6535 -0.0587769 32.5955 -0.0587769C21.9817 0.1175 11.6579 7.40361 5.50997 19.0379C-0.637926 30.6721 -3.47988 48.9462 7.13395 65.4574C10.6719 70.9808 15.1958 76.2691 20.7057 81.3811C19.8357 75.3877 20.8217 69.2768 22.7357 63.4596Z" fill="url(#paint3_linear)"/>
<path d="M34.6256 0.4113C34.7995 0.763853 34.9735 1.17517 35.1475 1.52772C35.5535 1.23392 35.9015 0.94013 36.3075 0.646336C36.4235 0.528818 36.5975 0.4113 36.7135 0.352541C35.9015 0.235023 35.1475 0.117505 34.3936 0.0587463C34.5096 0.176264 34.5676 0.293782 34.6256 0.4113Z" fill="url(#paint4_linear)"/>
<path d="M38.9755 87.022C33.5816 80.5585 28.4197 73.8012 24.3018 66.4563C22.9098 72.2735 22.4458 78.5019 23.8378 84.2015C33.0016 92.0165 44.6014 99.3613 58.8112 106.412L60.0292 107L60.6092 106.706C59.7392 106.236 58.8692 105.707 58.0572 105.178C50.6333 100.419 44.6014 93.7792 38.9755 87.022Z" fill="url(#paint5_linear)"/>
<path opacity="0.3" d="M34.6256 0.4113C34.7995 0.763853 34.9735 1.17517 35.1475 1.52772C35.5535 1.23392 35.9015 0.94013 36.3075 0.646336C36.4235 0.528818 36.5975 0.4113 36.7135 0.352541C35.9015 0.235023 35.1475 0.117505 34.3936 0.0587463C34.5096 0.176264 34.5676 0.293782 34.6256 0.4113Z" fill="white"/>
<path opacity="0.3" d="M22.7357 63.4596C22.6777 63.3421 22.6197 63.2246 22.5617 63.0483C21.9237 61.6969 21.2857 60.3454 20.7057 58.9352C17.3998 51.0615 15.3698 42.3652 16.2978 33.8451C17.5738 22.0933 24.3597 10.8704 33.2335 3.17296C33.0015 2.64413 32.8275 2.17406 32.5955 1.64523C32.3055 0.940125 32.5955 0.293777 33.0595 -0.0587769C33.0015 -0.0587769 32.8855 -0.0587769 32.8275 -0.0587769C32.7695 -0.0587769 32.6535 -0.0587769 32.5955 -0.0587769C21.9817 0.1175 11.6579 7.40361 5.50997 19.0379C-0.637926 30.6721 -3.47988 48.9462 7.13395 65.4574C10.6719 70.9808 15.1958 76.2691 20.7057 81.3811C19.8357 75.3877 20.8217 69.2768 22.7357 63.4596Z" fill="white"/>
<path opacity="0.3" d="M38.9755 87.022C33.5816 80.5585 28.4197 73.8012 24.3018 66.4563C22.9098 72.2735 22.4458 78.5019 23.8378 84.2015C33.0016 92.0165 44.6014 99.3613 58.8112 106.412L60.0292 107L60.6092 106.706C59.7392 106.236 58.8692 105.707 58.0572 105.178C50.6333 100.419 44.6014 93.7792 38.9755 87.022Z" fill="white"/>
</g>
<defs>
<linearGradient id="paint0_linear" x1="135.986" y1="78.5027" x2="78.7354" y2="21.9922" gradientUnits="userSpaceOnUse">
<stop stop-color="#00B0E2"/>
<stop offset="0.8166" stop-color="#0062D9"/>
</linearGradient>
<linearGradient id="paint1_linear" x1="58.3787" y1="72.6993" x2="9.22719" y2="24.1833" gradientUnits="userSpaceOnUse">
<stop stop-color="#00B0E2"/>
<stop offset="0.8166" stop-color="#0062D9"/>
</linearGradient>
<linearGradient id="paint2_linear" x1="122.539" y1="110.747" x2="33.1121" y2="22.4769" gradientUnits="userSpaceOnUse">
<stop stop-color="#00B0E2"/>
<stop offset="0.8166" stop-color="#0062D9"/>
</linearGradient>
<linearGradient id="paint3_linear" x1="5.99183" y1="19.6815" x2="35.7772" y2="49.0817" gradientUnits="userSpaceOnUse">
<stop stop-color="#00B0E2"/>
<stop offset="0.7027" stop-color="#004FD5"/>
<stop offset="0.8166" stop-color="#0062D9"/>
</linearGradient>
<linearGradient id="paint4_linear" x1="34.7958" y1="-0.200381" x2="35.757" y2="0.748399" gradientUnits="userSpaceOnUse">
<stop stop-color="#00B0E2"/>
<stop offset="0.7027" stop-color="#004FD5"/>
<stop offset="0.8166" stop-color="#0062D9"/>
</linearGradient>
<linearGradient id="paint5_linear" x1="21.5645" y1="72.7802" x2="50.1431" y2="100.989" gradientUnits="userSpaceOnUse">
<stop stop-color="#00B0E2"/>
<stop offset="0.7027" stop-color="#004FD5"/>
<stop offset="0.8166" stop-color="#0062D9"/>
</linearGradient>
<clipPath id="clip0">
<rect width="120" height="107" fill="white"/>
</clipPath>
</defs>
</svg>
