<svg width="36" height="12" viewBox="0 0 36 12" fill="none" xmlns="http://www.w3.org/2000/svg">
<path fill-rule="evenodd" clip-rule="evenodd" d="M26.1675 0.491028C25.587 0.252855 24.6825 0 23.5575 0C20.6775 0 18.645 1.57912 18.63 3.84176C18.612 5.50571 20.076 6.44209 21.1815 7C22.317 7.57096 22.6965 7.92985 22.6935 8.44372C22.686 9.22186 21.786 9.57423 20.9505 9.57423C19.8015 9.57423 19.1715 9.39967 18.204 8.96248L17.8455 8.7814L17.439 11.3883C18.138 11.7064 19.398 11.9788 20.7015 12C23.763 12 25.764 10.4323 25.788 8.02121C25.812 6.69494 25.023 5.68842 23.3565 4.85971C22.3455 4.32137 21.7155 3.96085 21.7155 3.41436C21.7155 2.93148 22.254 2.41599 23.379 2.41599C24.3465 2.39967 25.023 2.62643 25.5615 2.86134L25.8315 2.99347L26.238 0.474715L26.1675 0.491028ZM33.642 0.213703H31.392C30.6915 0.213703 30.168 0.420881 29.8605 1.17781L25.533 11.8369H28.5945L29.2065 10.0914L32.9415 10.0946C33.033 10.5024 33.3015 11.8369 33.3015 11.8369H36L33.642 0.213703ZM17.4045 0.115824H14.49V0.112561L12.666 11.7455H15.582L17.4045 0.115824ZM7.0815 6.52529L7.3845 8.14029L10.236 0.213703H13.3245L8.733 11.8206H5.652L3.132 1.99021C3.0795 1.82219 3.015 1.70799 2.862 1.60359C2.01 1.11909 1.0575 0.724307 0 0.450245L0.0375 0.205546H4.734C5.37 0.231648 5.883 0.450245 6.0585 1.19086L7.0815 6.53018V6.52529ZM30.0447 7.70799L30.0435 7.71126V7.70799H30.0447ZM30.0447 7.70799H32.466L31.7925 4.35237L31.593 3.3491C31.5043 3.61287 31.3763 3.97402 31.292 4.21187C31.2366 4.36826 31.2001 4.47134 31.206 4.4584L30.0447 7.70799Z" fill="#5C5C5C"/>
</svg>
