<svg width="101" height="18" viewBox="0 0 101 18" fill="none" xmlns="http://www.w3.org/2000/svg">
<path fill-rule="evenodd" clip-rule="evenodd" d="M13.4999 3.6V13.5391H12.1695C11.6217 8.6087 8.49124 5.55652 3.5608 4.93043V3.6H13.4999ZM0.0390625 0.0782609V8.29565H1.7608C6.37819 8.29565 8.72602 10.6435 8.72602 15.2609V16.9826H16.9434V0L0.0390625 0.0782609Z" fill="#5C5C5C"/>
<path d="M0 16.9857L6.65217 16.9922L6.65869 10.34L0.00651601 10.3335L0 16.9857Z" fill="#5C5C5C"/>
<path fill-rule="evenodd" clip-rule="evenodd" d="M24.2996 6.41699C24.8474 6.41699 25.317 6.49525 25.7865 6.57351C26.2561 6.65177 26.7257 6.88656 27.0387 7.12134C27.43 7.35612 27.6648 7.74743 27.8996 8.13873C28.1344 8.6083 28.2126 9.15612 28.2126 9.78221C28.2126 10.33 28.1344 10.7996 27.9778 11.1909C27.8213 11.5822 27.6648 11.8953 27.43 12.13C27.1952 12.3648 26.9604 12.5996 26.6474 12.7561C26.3344 12.9126 26.0996 12.9909 25.7865 13.0692C25.4735 13.1474 25.1604 13.2257 24.9257 13.2257H24.2213H21.8735V16.8257H19.3691V6.41699H24.2996ZM21.8735 11.3474H23.83C24.4561 11.3474 24.8474 11.2692 25.1604 11.0344C25.4735 10.7996 25.63 10.4083 25.63 9.93873C25.63 9.54743 25.5517 9.31264 25.4735 9.15612C25.317 8.9996 25.1604 8.84308 25.0039 8.76482C24.8474 8.68656 24.6126 8.6083 24.4561 8.6083H23.9083H21.9517V11.3474H21.8735Z" fill="#5C5C5C"/>
<path fill-rule="evenodd" clip-rule="evenodd" d="M34.8646 10.5652H34.5515H34.2385C33.9254 10.5652 33.6124 10.6435 33.2994 10.7217C32.9863 10.8 32.7515 10.9565 32.5167 11.1913C32.282 11.4261 32.1254 11.7391 32.0472 12.2087C31.8907 12.6 31.8907 13.1478 31.8907 13.8522V16.9826H29.6211V9.31304H31.8907V10.5652C32.0472 10.2522 32.2037 10.0174 32.4385 9.78261C32.6733 9.54783 32.8298 9.3913 33.0646 9.31304C33.2994 9.23478 33.5341 9.15652 33.8472 9.07826C34.082 9 34.395 9 34.6298 9H34.8646V10.5652Z" fill="#5C5C5C"/>
<path fill-rule="evenodd" clip-rule="evenodd" d="M35.9609 6.41699H38.2305V8.21699H35.9609V6.41699ZM38.2305 9.31264V16.9822H35.9609V9.31264H38.2305Z" fill="#5C5C5C"/>
<path fill-rule="evenodd" clip-rule="evenodd" d="M44.8048 9.3125H47.2309L44.4135 16.9821H41.9092L39.0918 9.3125H41.5179L43.1614 14.869L44.8048 9.3125Z" fill="#5C5C5C"/>
<path fill-rule="evenodd" clip-rule="evenodd" d="M48.1686 11.8171C48.1686 11.3476 48.2469 11.0345 48.4034 10.7215C48.56 10.4084 48.7165 10.1736 48.9513 9.93886C49.186 9.70408 49.4208 9.54755 49.6556 9.46929C49.8904 9.39103 50.2034 9.23451 50.4382 9.23451C50.673 9.15625 50.9078 9.15625 51.1426 9.15625H51.6904C52.2382 9.15625 52.7078 9.23451 53.1773 9.31277C53.5686 9.39103 53.8817 9.54755 54.1947 9.70408C54.4295 9.8606 54.6643 10.0171 54.8208 10.2519C54.9773 10.4867 55.0556 10.6432 55.1339 10.878C55.2121 11.1128 55.2121 11.2693 55.2904 11.5041V12.0519L55.2121 15.5736C55.2121 15.9649 55.2121 16.3563 55.2904 16.591C55.3686 16.8258 55.4469 16.9823 55.6817 17.0606V17.2171H53.2556L53.0208 16.4345H52.9426C52.6295 16.8258 52.2382 17.0606 51.7686 17.2171C51.2991 17.3736 50.8295 17.4519 50.36 17.4519C49.7339 17.4519 49.2643 17.3736 48.9513 17.2171C48.6382 17.0606 48.3252 16.8258 48.1686 16.591C48.0121 16.3563 47.8556 16.1215 47.8556 15.8867C47.7773 15.6519 47.7773 15.4171 47.7773 15.2606C47.7773 14.791 47.8556 14.478 48.0121 14.1649C48.1686 13.8519 48.4034 13.6171 48.6382 13.4606C48.873 13.3041 49.186 13.1476 49.5773 13.0693C49.8904 12.991 50.2817 12.9128 50.5947 12.8345C50.986 12.7563 51.3773 12.7563 51.6904 12.678C52.0034 12.678 52.2382 12.5997 52.3947 12.5997C52.5513 12.5215 52.7078 12.5215 52.786 12.4432C52.8643 12.3649 52.9426 12.2084 52.9426 12.0519V11.5823C52.9426 11.3476 52.8643 11.1128 52.786 11.0345C52.7078 10.878 52.5513 10.7997 52.3947 10.7215C52.2382 10.6432 52.16 10.6432 52.0034 10.6432H51.6904H51.2991C51.1426 10.6432 50.986 10.7215 50.8295 10.7997C50.673 10.878 50.5165 11.0345 50.4382 11.191C50.36 11.3476 50.2817 11.5823 50.2817 11.8171H48.1686ZM52.9426 13.3823C52.786 13.4606 52.6295 13.5389 52.5513 13.5389C52.473 13.5389 52.3947 13.6171 52.2382 13.6171C52.16 13.6171 52.0817 13.6954 51.9252 13.6954C51.7686 13.6954 51.6121 13.7736 51.3773 13.7736C51.2208 13.7736 51.1426 13.8519 50.986 13.8519C50.8295 13.8519 50.673 13.9302 50.5165 14.0084C50.36 14.0867 50.2817 14.1649 50.2034 14.3215C50.1252 14.478 50.0469 14.6345 50.0469 14.8693C50.0469 15.0258 50.1252 15.1823 50.2034 15.3389C50.2817 15.4171 50.36 15.5736 50.5165 15.5736C50.673 15.6519 50.7513 15.6519 50.9078 15.7302H51.2991C51.4556 15.7302 51.6121 15.7302 51.7686 15.6519C51.9252 15.5736 52.16 15.4954 52.3165 15.3389C52.473 15.1823 52.6295 15.0258 52.786 14.791C52.9426 14.5563 52.9426 14.2432 52.9426 13.8519V13.3823Z" fill="#5C5C5C"/>
<path fill-rule="evenodd" clip-rule="evenodd" d="M56.3867 9.31253H57.7954V7.04297H60.065V9.31253H61.7085V10.8778H60.065V14.556V14.9473C60.065 15.1038 60.065 15.1821 60.1432 15.2604C60.2215 15.3386 60.2998 15.4169 60.378 15.4951C60.5345 15.5734 60.6911 15.5734 60.9258 15.5734C61.0824 15.5734 61.2389 15.5734 61.3954 15.4951C61.5519 15.4951 61.6302 15.4169 61.7085 15.4169V16.9821C61.3954 17.0604 61.0824 17.0604 60.7693 17.1386C60.4563 17.2169 60.1432 17.2169 59.8302 17.2169C59.4389 17.2169 59.1258 17.1386 58.8911 17.0604C58.6563 16.9821 58.4215 16.8256 58.265 16.6691C58.1085 16.5125 57.9519 16.2778 57.9519 15.9647C57.8737 15.6517 57.8737 15.3386 57.8737 14.9473V10.8778H56.465V9.31253H56.3867Z" fill="#5C5C5C"/>
<path fill-rule="evenodd" clip-rule="evenodd" d="M68.4389 6.41699C69.1433 6.41699 69.6911 6.49525 70.0824 6.65177C70.4737 6.8083 70.865 7.04308 71.0998 7.27786C71.3346 7.51264 71.4911 7.82569 71.5694 8.13873C71.6476 8.45177 71.7259 8.76482 71.7259 8.9996C71.7259 9.62569 71.5694 10.0953 71.2563 10.4083C70.9433 10.7213 70.552 11.0344 70.0041 11.1909C70.2389 11.2692 70.4737 11.2692 70.7085 11.4257C70.9433 11.5039 71.1781 11.6605 71.4128 11.8953C71.6476 12.13 71.8041 12.3648 71.9607 12.6779C72.1172 12.9909 72.1954 13.3822 72.1954 13.8518C72.1954 14.4779 72.0389 15.0257 71.8041 15.417C71.5694 15.8083 71.2563 16.1213 70.865 16.2779C70.4737 16.5126 70.0824 16.5909 69.5346 16.6692C69.065 16.7474 68.5954 16.7474 68.1259 16.7474H63.1172V6.41699H68.4389ZM65.6215 10.6431H67.8911C68.1259 10.6431 68.3607 10.6431 68.5172 10.5648C68.6737 10.4866 68.8302 10.4083 68.9085 10.2518C68.9868 10.1735 69.065 10.017 69.065 9.86047C69.065 9.70395 69.1433 9.62569 69.1433 9.54743C69.1433 9.46917 69.1433 9.31264 69.065 9.23438C69.065 9.07786 68.9868 8.9996 68.8302 8.92134C68.752 8.84308 68.5954 8.76482 68.4389 8.68656C68.2824 8.6083 68.0476 8.6083 67.7346 8.6083H65.5433V10.6431H65.6215ZM65.6215 14.9474H68.2041C68.2824 14.9474 68.4389 14.9474 68.5954 14.8692C68.752 14.8692 68.9085 14.7909 69.065 14.7126C69.2215 14.6344 69.2998 14.4779 69.4563 14.3213C69.5346 14.1648 69.6128 13.93 69.6128 13.6953C69.6128 13.4605 69.5346 13.2257 69.4563 13.0692C69.3781 12.9126 69.2215 12.7561 69.065 12.6779C68.9085 12.5996 68.752 12.5213 68.5172 12.5213C68.2824 12.5213 68.1259 12.4431 67.8911 12.4431H65.6215V14.9474Z" fill="#5C5C5C"/>
<path fill-rule="evenodd" clip-rule="evenodd" d="M73.9947 11.8171C73.9947 11.3476 74.0729 11.0345 74.2295 10.7215C74.386 10.4084 74.5425 10.1736 74.7773 9.93886C75.0121 9.70408 75.2469 9.54755 75.4816 9.46929C75.7164 9.39103 76.0295 9.23451 76.2642 9.23451C76.499 9.15625 76.7338 9.15625 76.9686 9.15625H77.5164C78.0642 9.15625 78.5338 9.23451 79.0034 9.31277C79.3947 9.39103 79.7077 9.54755 80.0208 9.70408C80.2556 9.8606 80.4903 10.0171 80.6469 10.2519C80.8034 10.4867 80.8816 10.6432 80.9599 10.878C81.0382 11.1128 81.0382 11.2693 81.1164 11.5041V12.0519L81.0382 15.5736C81.0382 15.9649 81.0382 16.3563 81.1164 16.591C81.1947 16.8258 81.2729 16.9823 81.5077 17.0606V17.2171H79.0816L78.9251 16.4345H78.8469C78.5338 16.8258 78.1425 17.0606 77.6729 17.2171C77.2034 17.3736 76.7338 17.4519 76.2642 17.4519C75.6382 17.4519 75.1686 17.3736 74.8556 17.2171C74.5425 17.0606 74.2295 16.8258 74.0729 16.591C73.9164 16.3563 73.7599 16.1215 73.7599 15.8867C73.6816 15.6519 73.6816 15.4171 73.6816 15.2606C73.6816 14.791 73.7599 14.478 73.9164 14.1649C74.0729 13.8519 74.3077 13.6171 74.5425 13.4606C74.7773 13.3041 75.0903 13.1476 75.4816 13.0693C75.7947 12.991 76.186 12.9128 76.499 12.8345C76.8903 12.7563 77.2816 12.7563 77.5947 12.678C77.9077 12.678 78.1425 12.5997 78.299 12.5997C78.4556 12.5215 78.6121 12.5215 78.6903 12.4432C78.7686 12.3649 78.8469 12.2084 78.8469 12.0519V11.5823C78.8469 11.3476 78.7686 11.1128 78.6903 11.0345C78.6121 10.878 78.4556 10.7997 78.299 10.7215C78.1425 10.6432 78.0642 10.6432 77.9077 10.6432H77.5947H77.2034C77.0469 10.6432 76.8903 10.7215 76.7338 10.7997C76.5773 10.878 76.4208 11.0345 76.3425 11.191C76.2642 11.3476 76.186 11.5823 76.186 11.8171H73.9947ZM78.8469 13.3823C78.6903 13.4606 78.5338 13.5389 78.4556 13.5389C78.3773 13.5389 78.299 13.6171 78.1425 13.6171C78.0642 13.6171 77.986 13.6954 77.8295 13.6954C77.6729 13.6954 77.5164 13.7736 77.2816 13.7736C77.1251 13.7736 77.0469 13.8519 76.8903 13.8519C76.7338 13.8519 76.5773 13.9302 76.4208 14.0084C76.2643 14.0867 76.186 14.1649 76.1077 14.3215C76.0295 14.478 75.9512 14.6345 75.9512 14.8693C75.9512 15.0258 76.0295 15.1823 76.1077 15.3389C76.186 15.4171 76.2643 15.5736 76.4208 15.5736C76.5773 15.6519 76.6556 15.6519 76.8121 15.7302H77.2034C77.3599 15.7302 77.5164 15.7302 77.6729 15.6519C77.8295 15.5736 78.0642 15.4954 78.2208 15.3389C78.3773 15.1823 78.5338 15.0258 78.6903 14.791C78.8469 14.5563 78.8469 14.2432 78.8469 13.8519V13.3823Z" fill="#5C5C5C"/>
<path fill-rule="evenodd" clip-rule="evenodd" d="M85.1871 10.2522C85.5002 9.86087 85.8915 9.54783 86.361 9.31304C86.8306 9.15652 87.3002 9 87.848 9C88.0828 9 88.3958 9 88.7089 9.07826C89.0219 9.15652 89.2567 9.23478 89.5697 9.46957C89.8045 9.70435 90.0393 10.0174 90.1958 10.4087C90.3523 10.8 90.4306 11.4261 90.4306 12.1304V16.9043H88.161V12.4435V11.8174C88.161 11.5826 88.0828 11.3478 88.0045 11.1913C87.9263 10.9565 87.7697 10.8 87.6132 10.7217C87.4567 10.5652 87.2219 10.487 86.9089 10.487C86.5176 10.487 86.2045 10.5652 86.048 10.8C85.8132 10.9565 85.6567 11.1913 85.5784 11.4261C85.5002 11.6609 85.4219 11.8957 85.4219 12.1304V12.6V16.9043H83.1523V9.23478H85.3437V10.2522H85.1871Z" fill="#5C5C5C"/>
<path fill-rule="evenodd" clip-rule="evenodd" d="M97.1609 9.31264H99.9L96.8479 12.2866L100.135 16.9039H97.3957L95.2826 13.6953L94.5 14.4779V16.8257H92.2305V6.41699H94.5V12.2083L97.1609 9.31264Z" fill="#5C5C5C"/>
</svg>
