<svg width="110" height="110" viewBox="0 0 110 110" fill="none" xmlns="http://www.w3.org/2000/svg">
<path fill-rule="evenodd" clip-rule="evenodd" d="M91.525 49.5308L91 50.0617L93.45 52.5389L95.9 55.0162L93.45 57.4934L91 59.9707L91.525 60.4662C91.84 60.7493 92.05 61.0324 92.05 60.997L98 55.0162C98 55.0162 96.18 53.1406 93.1 50.0617L92.05 49L91.525 49.5308Z" fill="#2A2A2A"/>
<path fill-rule="evenodd" clip-rule="evenodd" d="M19.475 60.4692L20 59.9383L17.55 57.4611L15.1 54.9838L17.55 52.5066L20 50.0293L19.475 49.5338C19.16 49.2507 18.95 48.9676 18.95 49.003L13 54.9838C13 54.9838 14.82 56.8594 17.9 59.9383L18.95 61L19.475 60.4692Z" fill="#2A2A2A"/>
<circle cx="55.5" cy="55.5" r="23" stroke="#2A2A2A"/>
</svg>
