<svg width="88" height="79" viewBox="0 0 88 79" fill="none" xmlns="http://www.w3.org/2000/svg">
<path d="M8.48217 60.0573V55.3725M8.48217 70.0184V65.47M1 62.7864H5.86682M11.234 62.7864H15.9416" stroke="white" stroke-width="2" stroke-linecap="round" stroke-linejoin="round"/>
<path d="M18.8886 4.9357V1.84284M18.8886 11.5118V8.509M13.949 6.73736H17.162M20.7053 6.73736H23.8131" stroke="white" stroke-width="2" stroke-linecap="round" stroke-linejoin="round"/>
<circle cx="82.6203" cy="48.0734" r="3.619" stroke="white" stroke-width="2"/>
<path d="M24.1499 24.2556C13.8598 26.4034 7.04126 30.1585 7.04126 34.4317C7.04126 38.4664 13.12 42.0392 22.4601 44.2333M64.1935 24.2556C74.4836 26.4034 81.3021 30.1585 81.3021 34.4317C81.3021 38.4911 75.1486 42.083 65.711 44.2735M22.4601 44.2333C28.5659 45.6677 36.0654 46.5129 44.1717 46.5129C52.2019 46.5129 59.6367 45.6835 65.711 44.2735M22.4601 44.2333V52.4242M65.711 44.2735V72.4488C65.711 72.4488 63.2726 77.8428 44.1717 77.8428C25.0707 77.8428 22.4601 72.4488 22.4601 72.4488V52.4242M22.4601 52.4242C28.6013 55.5769 44.9919 59.7542 60.5386 54.1976" stroke="white" stroke-width="2" stroke-linecap="round" stroke-linejoin="round"/>
<path d="M23.8885 33.2863C22.3367 33.2863 21.1693 35.2519 23.8885 36.3159C27.2875 37.6459 36.6717 38.6804 44.7258 38.6804C48.7899 38.6804 60.4647 37.7198 63.4203 36.3159C65.7849 35.1927 64.9474 33.8282 64.2331 33.2863M28.6914 33.8775C28.2973 24.247 32.0165 4.32094 35.12 4.32094C38.7406 4.32094 41.7209 24.6657 41.4007 35.0597M35.12 33.8775V16.7347M52.8539 33.8775V16.7347M46.4253 35.0597C46.0312 25.4292 49.7504 4.32094 52.8539 4.32094C56.4746 4.32094 59.4548 23.4834 59.1346 33.8775" stroke="white" stroke-width="2" stroke-linecap="round" stroke-linejoin="round"/>
</svg>
