<svg width="65" height="65" viewBox="0 0 65 65" fill="none" xmlns="http://www.w3.org/2000/svg">
<path d="M20.4982 2H4C2.89543 2 2 2.89543 2 4V61C2 62.1046 2.89543 63 4 63H61C62.1046 63 63 62.1046 63 61V4C63 2.89543 62.1046 2 61 2H44.1715M20.4982 2V26.9626C20.4982 28.7028 22.5668 29.6128 23.8496 28.4369L31.0321 21.8529C31.7994 21.1496 32.9779 21.1523 33.7419 21.8592L40.8132 28.4018C42.0938 29.5867 44.1715 28.6784 44.1715 26.9338V2M20.4982 2H44.1715M36.3538 49.0162V52.7599M36.3538 55.843V57.935M41.639 49.0162V51.3285M41.639 54.1913V57.935M46.9242 49.0162V52.7599M46.9242 55.843V57.935M52.3195 49.0162V51.3285M52.3195 54.1913V57.935M57.4946 49.0162V52.7599M57.4946 55.843V57.935" stroke="white" stroke-width="3" stroke-linecap="round" stroke-linejoin="round"/>
</svg>
