<svg width="84" height="87" viewBox="0 0 84 87" fill="none" xmlns="http://www.w3.org/2000/svg">
<path fill-rule="evenodd" clip-rule="evenodd" d="M71.7239 72.8383C71.8332 72.7071 71.9244 72.5972 71.9973 72.5082C72.0702 72.4193 72.1339 72.3328 72.1885 72.2486C72.3247 72.0335 72.4185 71.848 72.4701 71.692C72.5215 71.5358 72.5329 71.3953 72.5041 71.2701C72.4752 71.1451 72.4105 71.0236 72.3104 70.9063C72.2102 70.7887 72.081 70.6657 71.9231 70.5373C71.8208 70.4546 71.7038 70.3967 71.5721 70.3631C71.4405 70.3295 71.3054 70.3157 71.1672 70.3217C71.0289 70.3277 70.8954 70.3545 70.7668 70.4023C70.6382 70.4499 70.5213 70.5138 70.4159 70.5938C70.2833 70.7019 70.1784 70.8214 70.1013 70.9522C70.0241 71.0829 69.9655 71.2182 69.9254 71.358C69.8853 71.4977 69.8566 71.6419 69.8396 71.7908C69.8226 71.9396 69.8055 72.0883 69.7886 72.2372C69.7718 72.4138 69.7838 72.5728 69.8243 72.7141C69.8649 72.8553 69.9305 72.9708 70.0212 73.0604C70.112 73.1501 70.2244 73.2106 70.3584 73.2419C70.4925 73.273 70.6447 73.2714 70.8148 73.2374C70.9943 73.203 71.1621 73.141 71.3179 73.0513C71.4738 72.9615 71.6091 72.8905 71.7239 72.8383ZM67.0244 69.2938C67.039 69.3819 67.0502 69.4642 67.0578 69.5408C67.0654 69.6174 67.072 69.695 67.0773 69.774C67.0825 69.825 67.0887 69.8725 67.096 69.9166C67.1034 69.9605 67.1097 70.0081 67.1147 70.0593C67.268 70.1738 67.4235 70.2884 67.5814 70.403C67.7391 70.5176 67.8994 70.6368 68.0619 70.7606C68.1827 70.8524 68.3041 70.9033 68.4265 70.9138C68.5486 70.9242 68.6716 70.8753 68.7951 70.7674C69.0053 70.5888 69.2181 70.4103 69.4331 70.2317C69.6481 70.053 69.8584 69.8674 70.0639 69.6752C70.2055 69.5389 70.2747 69.4095 70.2712 69.2865C70.2677 69.1633 70.1983 69.0166 70.0629 68.8461C69.9228 68.6615 69.7713 68.4843 69.6083 68.3141C69.4453 68.1438 69.2798 67.9666 69.1122 67.7825C69.0112 67.8391 68.9162 67.9039 68.827 67.9768C68.7378 68.0495 68.6463 68.1202 68.5524 68.1885C68.4586 68.2567 68.3588 68.3146 68.2533 68.3621C68.1477 68.4096 68.028 68.4364 67.8944 68.4423C67.7823 68.2853 67.7347 68.1279 67.7516 67.97C67.7685 67.8118 67.8457 67.6857 67.983 67.5915C68.3267 67.3697 68.6436 67.1263 68.9339 66.861C69.2241 66.5958 69.4619 66.2787 69.6475 65.9102C69.814 65.9827 69.9025 66.0631 69.9126 66.1514C69.9227 66.2395 69.8889 66.3281 69.8114 66.4171C69.7292 66.5107 69.684 66.5994 69.6756 66.6832C69.6672 66.7667 69.7027 66.8569 69.7819 66.9538C70.3741 67.6401 70.9626 68.3252 71.5479 69.0092C72.1331 69.6932 72.7264 70.3877 73.3279 71.0924C73.342 71.1062 73.3778 71.1092 73.4352 71.1018C73.4928 71.0942 73.5376 71.0834 73.5698 71.0691C73.6294 71.0266 73.6854 70.9878 73.7382 70.9526C73.7908 70.9171 73.8447 70.8854 73.8997 70.857C73.9457 70.8378 74.002 70.8245 74.0688 70.8171C74.1356 70.8092 74.1736 70.8194 74.1831 70.8472C74.216 70.8979 74.2407 70.9545 74.2574 71.0172C74.2741 71.0796 74.2736 71.1388 74.2557 71.1949C74.2424 71.2553 74.2119 71.3148 74.164 71.3734C74.1162 71.4317 74.0647 71.4753 74.0097 71.5038C73.8263 71.6076 73.6765 71.7335 73.5603 71.8809C73.4442 72.0284 73.3316 72.1954 73.2228 72.3823C73.0733 72.6485 72.9039 72.8974 72.7147 73.1293C72.5256 73.3609 72.3354 73.5985 72.1441 73.842C71.9026 74.1369 71.6266 74.3195 71.3161 74.39C71.0056 74.4603 70.6747 74.46 70.3237 74.3892C70.0004 74.3273 69.7087 74.214 69.449 74.0494C69.1893 73.8847 68.9361 73.699 68.6899 73.4925C68.6481 73.4602 68.6189 73.4177 68.6022 73.3645C68.5856 73.3112 68.5701 73.259 68.5557 73.2082C68.5368 73.1433 68.5222 73.0761 68.5123 73.0066C68.5025 72.9369 68.5018 72.8697 68.5104 72.8045C68.5446 72.5254 68.5285 72.2864 68.462 72.0874C68.3956 71.8883 68.2947 71.7128 68.1596 71.5609C68.0244 71.4088 67.864 71.2757 67.6785 71.1615C67.493 71.0472 67.3029 70.9353 67.1082 70.8257C67.0062 70.7709 66.9066 70.7207 66.8095 70.6753C66.7121 70.6297 66.6196 70.5864 66.5315 70.5457C66.4027 70.5747 66.2785 70.6038 66.1589 70.6329C66.0394 70.6618 65.9174 70.6932 65.7933 70.7271C65.7702 70.7318 65.7425 70.7159 65.7098 70.679C65.6773 70.6421 65.6468 70.5961 65.6186 70.5406C65.5904 70.4852 65.5703 70.426 65.5581 70.3636C65.546 70.3008 65.5489 70.2463 65.5669 70.1997C65.6615 69.9711 65.8141 69.7724 66.0245 69.6031C66.235 69.4338 66.4988 69.3034 66.8161 69.2122C66.8482 69.1978 66.8908 69.2033 66.9442 69.2284C66.9974 69.2533 67.0242 69.275 67.0244 69.2938Z" fill="#A3A5AD"/>
<path fill-rule="evenodd" clip-rule="evenodd" d="M62.0011 76.206C62.2272 76.4882 62.4758 76.7989 62.747 77.1378C63.0182 77.4767 63.3066 77.8117 63.6122 78.1434C63.6971 78.2363 63.8156 78.3087 63.9675 78.3607C64.1195 78.4125 64.2614 78.4375 64.3934 78.4359C64.7695 78.4359 65.0928 78.341 65.3631 78.1517C65.6334 77.9622 65.8545 77.6953 66.0263 77.3512C66.1909 77.0195 66.2645 76.7075 66.2475 76.4153C66.2302 76.1228 66.0771 75.8409 65.7877 75.5695C65.6069 75.3908 65.4383 75.1982 65.2819 74.9916C65.1255 74.7847 64.9632 74.5838 64.795 74.389C64.6413 74.2157 64.4837 74.0455 64.3217 73.878C64.1598 73.7102 63.994 73.5454 63.824 73.3834C63.6993 73.254 63.5668 73.1633 63.4267 73.1114C63.2865 73.0595 63.1446 73.0344 63.0008 73.0362C62.8571 73.0381 62.7142 73.0589 62.5723 73.0992C62.4303 73.1392 62.288 73.1874 62.1451 73.2439C62.0836 73.2693 62.0198 73.3062 61.9538 73.3546C61.8879 73.4028 61.8285 73.4583 61.7761 73.5213C61.7236 73.584 61.6777 73.6505 61.6378 73.7207C61.598 73.7908 61.5761 73.8587 61.5726 73.9243C61.551 74.1046 61.5333 74.2882 61.5197 74.4749C61.5063 74.6616 61.5097 74.8505 61.5306 75.0419C61.5514 75.2331 61.5965 75.4258 61.6662 75.6198C61.7358 75.8137 61.8474 76.0091 62.0011 76.206ZM61.52 76.7916C61.4367 76.5474 61.3519 76.3006 61.2649 76.0511C61.1782 75.8015 61.1041 75.5473 61.0426 75.2887C60.9485 74.886 60.955 74.5049 61.0616 74.1451C61.1684 73.7853 61.3302 73.438 61.5472 73.1028C61.5562 73.0808 61.5896 73.0426 61.6476 72.988C61.7054 72.9332 61.7552 72.8959 61.7967 72.876C61.8474 72.8576 61.8922 72.8395 61.931 72.8213C61.9699 72.8029 61.9966 72.7931 62.011 72.7912C62.2407 72.7475 62.4709 72.7015 62.7013 72.6533C62.932 72.605 63.162 72.5825 63.3917 72.5864C63.5473 72.5844 63.7027 72.6241 63.8582 72.7053C64.0137 72.7862 64.1611 72.8669 64.3004 72.9472C64.8862 73.2641 65.3699 73.6634 65.7514 74.1454C66.133 74.6271 66.4367 75.175 66.6627 75.7891C66.7766 76.0914 66.8499 76.4034 66.8824 76.725C66.915 77.0464 66.8788 77.3528 66.7739 77.6444C66.6726 77.9177 66.5356 78.1814 66.3628 78.4355C66.1901 78.6895 65.9831 78.8977 65.7417 79.0598C65.5004 79.2219 65.2264 79.323 64.9199 79.3631C64.6133 79.4032 64.2783 79.344 63.915 79.1855C63.6635 79.0779 63.4271 78.9546 63.2056 78.8152C62.9841 78.6757 62.7874 78.494 62.6157 78.27C62.5108 78.135 62.3973 78.0022 62.2753 77.871C62.1533 77.7399 62.0262 77.604 61.8941 77.4639C61.8743 77.4455 61.845 77.4041 61.8061 77.3395C61.7673 77.2748 61.7282 77.2042 61.6894 77.1278C61.6505 77.0512 61.614 76.981 61.5796 76.9173C61.5452 76.8534 61.5255 76.8116 61.52 76.7916Z" fill="#A3A5AD"/>
<path fill-rule="evenodd" clip-rule="evenodd" d="M55.8654 81.5177C55.9545 81.659 56.0401 81.7912 56.1221 81.9143C56.2043 82.0371 56.2721 82.1692 56.3263 82.3102C56.3707 82.4264 56.4251 82.5041 56.4886 82.5427C56.5523 82.5813 56.6289 82.6078 56.7183 82.6224C57.0219 82.6663 57.3046 82.6478 57.5672 82.567C57.8296 82.486 58.058 82.3567 58.252 82.1793C58.4461 82.0016 58.5966 81.783 58.7031 81.5234C58.8099 81.2636 58.8571 80.9812 58.8451 80.6761C58.8269 80.3732 58.7771 80.0883 58.6956 79.8208C58.6141 79.5532 58.5113 79.294 58.3872 79.0431C58.2631 78.792 58.1215 78.5497 57.962 78.3159C57.8026 78.0823 57.6358 77.8478 57.4619 77.6128C57.2548 77.3271 57.0296 77.1315 56.7861 77.0254C56.5429 76.9193 56.2589 76.8801 55.934 76.9079C55.7449 76.9249 55.5794 76.9718 55.4374 77.0481C55.2954 77.1244 55.1725 77.2462 55.0688 77.4132C54.9847 77.5584 54.9016 77.7017 54.8192 77.8428C54.737 77.9839 54.6764 78.1308 54.6369 78.2834C54.5975 78.4359 54.5863 78.5934 54.603 78.7559C54.6198 78.9183 54.6852 79.0936 54.7992 79.2817C54.8573 79.2871 54.9238 79.2965 54.9986 79.3097C55.0735 79.3228 55.1498 79.3212 55.2274 79.3052C55.3525 79.2846 55.4603 79.2973 55.5512 79.3431C55.642 79.3885 55.6924 79.4693 55.7017 79.5854C55.7164 79.6783 55.7095 79.7742 55.6811 79.8734C55.6526 79.9724 55.622 80.0705 55.5894 80.1678C55.5768 80.2078 55.5494 80.2413 55.5073 80.2682C55.4652 80.2952 55.4187 80.315 55.3677 80.3279C55.0636 80.4461 54.7603 80.5622 54.458 80.6762C54.1557 80.7901 53.848 80.894 53.5344 80.9877C53.408 81.0226 53.2828 81.024 53.1584 80.9914C53.0342 80.9586 52.9517 80.8621 52.9113 80.7021C52.8778 80.5601 52.8945 80.4392 52.9611 80.3395C53.0276 80.2397 53.1274 80.1532 53.2603 80.0805C53.3992 80.0054 53.5067 79.9441 53.583 79.897C53.6592 79.8497 53.7125 79.7973 53.7429 79.7397C53.7733 79.6821 53.7845 79.6109 53.7764 79.5261C53.7684 79.4411 53.7508 79.3265 53.7233 79.1824C53.6777 78.9536 53.6656 78.7349 53.6869 78.526C53.7081 78.3171 53.7524 78.1132 53.8195 77.9147C53.8867 77.716 53.9708 77.5249 54.0716 77.3415C54.1726 77.1579 54.2798 76.977 54.3933 76.7993C54.476 76.6684 54.6037 76.5591 54.7759 76.471C54.9485 76.3828 55.1146 76.3287 55.2746 76.3088C55.6313 76.2546 55.9888 76.23 56.3472 76.235C56.7055 76.24 57.0621 76.2862 57.417 76.3736C57.9457 76.5129 58.3865 76.8061 58.7395 77.2534C58.9062 77.4701 59.06 77.6936 59.2008 77.9241C59.3415 78.1546 59.4639 78.3921 59.5681 78.6368C59.6723 78.8813 59.7537 79.1348 59.8122 79.3972C59.8709 79.6596 59.8985 79.9322 59.8949 80.2152C59.8909 80.6603 59.8286 81.0682 59.7086 81.4387C59.5883 81.8092 59.4117 82.1279 59.1785 82.3947C58.9452 82.6613 58.6518 82.8668 58.2983 83.0114C57.9447 83.1558 57.5315 83.2214 57.0582 83.2084C56.9469 83.2095 56.8371 83.2062 56.7296 83.1988C56.6218 83.1914 56.5128 83.1897 56.4026 83.1939C56.2925 83.198 56.1841 83.2118 56.078 83.2357C55.9717 83.2593 55.8662 83.2985 55.7614 83.3534C55.703 83.3832 55.6454 83.3968 55.5884 83.3944C55.5315 83.3917 55.4803 83.3765 55.4346 83.3485C55.3889 83.3204 55.3513 83.2858 55.3214 83.2447C55.2917 83.2034 55.2746 83.1589 55.2703 83.1113C55.2539 82.9768 55.2363 82.8447 55.218 82.7146C55.1995 82.5845 55.1894 82.4527 55.1873 82.32C55.1854 82.1869 55.1963 82.056 55.2202 81.9269C55.2441 81.7979 55.2915 81.6704 55.362 81.5444C55.3755 81.525 55.4056 81.508 55.4524 81.4934C55.4994 81.4787 55.5521 81.4706 55.6108 81.4689C55.6696 81.4671 55.7229 81.4692 55.7705 81.4755C55.8184 81.4814 55.85 81.4955 55.8654 81.5177Z" fill="#A3A5AD"/>
<path fill-rule="evenodd" clip-rule="evenodd" d="M50.8822 84.6892C50.6971 85.0259 50.453 85.2413 50.1497 85.3357C49.8465 85.4298 49.4293 85.4335 48.898 85.3467C48.839 85.2021 48.7981 85.0918 48.7746 85.0155C48.7513 84.9392 48.746 84.8753 48.7589 84.8237C48.7716 84.7724 48.8066 84.7262 48.8636 84.6853C48.9208 84.6443 49.0042 84.5932 49.1145 84.5319C49.1812 84.4895 49.2429 84.435 49.2997 84.3676C49.3565 84.3002 49.3931 84.2289 49.4092 84.1538C49.4383 83.9775 49.4593 83.8024 49.472 83.6283C49.485 83.4542 49.4833 83.2821 49.4671 83.1121C49.426 82.7066 49.3785 82.3038 49.325 81.9035C49.2713 81.5032 49.2046 81.103 49.1246 80.703C49.0882 80.5291 49.0308 80.358 48.9523 80.1896C48.874 80.0213 48.7844 79.8578 48.6844 79.6991C48.5659 79.503 48.4183 79.3459 48.2412 79.2275C48.0641 79.1089 47.8482 79.0803 47.5931 79.1417C47.2939 79.2153 47.0281 79.3309 46.7959 79.4886C46.5638 79.6459 46.4145 79.8949 46.3482 80.2353C46.3137 80.419 46.2639 80.5881 46.1991 80.7428C46.0094 81.1926 45.9247 81.6416 45.9453 82.0896C45.9658 82.5374 46.0425 82.9876 46.1755 83.4401C46.2131 83.5743 46.2433 83.7125 46.2656 83.8554C46.2881 83.998 46.3183 84.1381 46.3565 84.2755C46.3946 84.4127 46.4485 84.5446 46.518 84.6712C46.5877 84.7974 46.6883 84.9114 46.8203 85.0128C46.8729 85.0121 46.9311 85.0042 46.9948 84.9891C47.0585 84.9737 47.1184 84.9788 47.1745 85.0044C47.2443 85.0346 47.3177 85.0793 47.3947 85.1385C47.4717 85.1975 47.511 85.2569 47.5123 85.3164C47.521 85.3814 47.4956 85.4494 47.4361 85.5206C47.3764 85.5916 47.3249 85.6599 47.2809 85.7256C47.2632 85.7412 47.234 85.7551 47.1928 85.7674C47.1517 85.7795 47.1174 85.7808 47.0898 85.7715C46.9583 85.723 46.8326 85.7053 46.7125 85.7184C46.5925 85.7313 46.4759 85.757 46.3626 85.7958C46.2494 85.8343 46.1355 85.8796 46.0207 85.9317C45.906 85.9836 45.7917 86.0274 45.678 86.0627C45.6023 86.0863 45.5256 86.1033 45.4481 86.114C45.3705 86.1244 45.2959 86.1311 45.2238 86.1345C45.211 86.1362 45.1845 86.1231 45.1445 86.0954C45.1048 86.0676 45.0804 86.0447 45.0711 86.026C44.9578 85.7695 44.9188 85.576 44.9539 85.4454C44.9892 85.3146 45.121 85.194 45.3494 85.0834C45.5275 84.9862 45.6423 84.8745 45.6944 84.7483C45.7465 84.6218 45.7457 84.4795 45.6915 84.3212C45.6115 84.0669 45.5539 83.8095 45.519 83.5493C45.4841 83.2888 45.4606 83.0269 45.4484 82.7636C45.4362 82.5 45.4306 82.2374 45.4317 81.9755C45.4327 81.7135 45.4255 81.4509 45.41 81.188C45.3926 80.9584 45.3945 80.7279 45.4161 80.4963C45.4377 80.2647 45.4728 80.0362 45.5216 79.8109C45.6038 79.4419 45.7689 79.1526 46.0173 78.9433C46.2655 78.7338 46.564 78.5789 46.9122 78.4786C47.3123 78.3713 47.6743 78.3716 47.998 78.4802C48.3218 78.5886 48.6207 78.8064 48.8947 79.1337C49.0765 79.3608 49.2206 79.6015 49.3269 79.8554C49.4334 80.1093 49.5191 80.3809 49.5841 80.6704C49.644 80.9208 49.6911 81.1744 49.7255 81.4316C49.76 81.6887 49.7896 81.9463 49.8143 82.2048C49.839 82.4633 49.8621 82.7203 49.8831 82.976C49.9042 83.2317 49.9316 83.4863 49.9657 83.7402C49.9839 83.877 49.9981 83.9826 50.0081 84.0575C50.0181 84.1324 50.0408 84.1906 50.076 84.2323C50.1112 84.2737 50.1646 84.3046 50.2364 84.3247C50.3082 84.3447 50.409 84.3723 50.5386 84.4079C50.5792 84.4157 50.6201 84.4267 50.6615 84.4409C50.7028 84.4552 50.7471 84.4656 50.794 84.4726C50.8217 84.4821 50.8456 84.5136 50.8659 84.5673C50.8863 84.6207 50.8918 84.6614 50.8822 84.6892Z" fill="#A3A5AD"/>
<path fill-rule="evenodd" clip-rule="evenodd" d="M41.6321 85.9491C41.6235 85.9747 41.5945 86.0067 41.5452 86.0453C41.4962 86.0838 41.4586 86.1021 41.4326 86.0997C41.2355 86.1089 41.0371 86.1146 40.8372 86.1169C40.6374 86.1192 40.4363 86.118 40.2338 86.1135C39.8495 86.0932 39.4688 86.0679 39.0917 86.0385C38.7148 86.0087 38.3347 85.9771 37.9513 85.9436C37.2575 85.8696 36.5706 85.7898 35.8909 85.704C35.755 85.6855 35.6452 85.6331 35.5609 85.5466C35.4767 85.4602 35.437 85.3511 35.4418 85.2198C35.4525 84.9438 35.4697 84.6684 35.4933 84.3935C35.5171 84.1187 35.5473 83.8445 35.5839 83.5708C35.5957 83.4333 35.6476 83.3257 35.7393 83.2482C35.8312 83.1704 35.9449 83.1408 36.0808 83.1593C36.2102 83.1771 36.3254 83.2252 36.4266 83.3033C36.5279 83.3814 36.578 83.5027 36.5768 83.6674C36.5832 83.7472 36.5828 83.8263 36.5761 83.9047C36.5693 83.9833 36.5693 84.059 36.5761 84.1323C36.5968 84.2726 36.6456 84.3904 36.7223 84.4862C36.7992 84.5819 36.9149 84.6431 37.0697 84.6699C37.2634 84.7 37.4564 84.7383 37.6487 84.7848C37.8411 84.8313 38.0341 84.8695 38.2278 84.8997C38.6147 84.9665 38.9016 84.9042 39.0882 84.7129C39.2749 84.5216 39.3388 84.2354 39.2799 83.8545C39.2461 83.6404 39.1626 83.508 39.0295 83.4568C38.8965 83.4056 38.7486 83.4521 38.5857 83.596C38.5009 83.6676 38.4284 83.7504 38.3679 83.844C38.3075 83.9376 38.2382 84.0206 38.16 84.0928C37.9878 84.2689 37.8359 84.3413 37.7043 84.31C37.573 84.2787 37.4643 84.1538 37.3784 83.9353C37.2878 83.6966 37.2542 83.4597 37.2776 83.2245C37.3013 82.9892 37.3332 82.7512 37.3735 82.511C37.403 82.3221 37.4335 82.1387 37.4652 81.9602C37.497 81.7816 37.5275 81.598 37.5568 81.4095C37.565 81.3905 37.5686 81.3691 37.5671 81.3461C37.566 81.3229 37.5694 81.3017 37.5775 81.2827C37.6042 81.1269 37.6661 80.9953 37.7637 80.8886C37.8612 80.7817 37.9647 80.7396 38.074 80.7623C38.2223 80.7885 38.3374 80.8579 38.4192 80.9707C38.5012 81.0831 38.5335 81.2014 38.5162 81.3252C38.5039 81.4691 38.5132 81.5886 38.5443 81.6838C38.5754 81.7786 38.6243 81.8572 38.6909 81.919C38.7576 81.9808 38.8433 82.0295 38.9482 82.0651C39.0532 82.1006 39.1733 82.1308 39.3085 82.1561C39.3473 82.0867 39.3912 82.0133 39.4404 81.9352C39.4899 81.857 39.5183 81.7721 39.5262 81.6806C39.5557 81.4919 39.5732 81.3054 39.5793 81.1215C39.5853 80.9374 39.5836 80.7494 39.5739 80.5574C39.5575 80.2921 39.4666 80.0765 39.3008 79.9104C39.1352 79.7443 38.9196 79.6462 38.6537 79.6166C38.5634 79.6021 38.4757 79.5943 38.3906 79.5935C38.3057 79.5926 38.2178 79.5883 38.1268 79.5803C37.9445 79.5709 37.7882 79.5786 37.6584 79.6037C37.5287 79.6285 37.4201 79.675 37.3322 79.7432C37.2447 79.8112 37.1744 79.9058 37.1213 80.0264C37.0685 80.147 37.024 80.3013 36.9882 80.4894C36.9756 80.5608 36.9191 80.6268 36.819 80.6872C36.719 80.7478 36.6108 80.7878 36.4945 80.8072C36.3784 80.8267 36.2746 80.816 36.1832 80.775C36.0919 80.734 36.0488 80.6447 36.0541 80.5066C36.0666 80.2111 36.087 79.9177 36.1152 79.6268C36.1437 79.3359 36.171 79.0366 36.1975 78.7292C36.202 78.6768 36.2366 78.6172 36.3013 78.5503C36.3659 78.4834 36.4181 78.4484 36.4576 78.4454C36.5692 78.4419 36.7225 78.447 36.9176 78.4609C37.1128 78.4745 37.3128 78.4888 37.5177 78.5035C37.7226 78.518 37.911 78.5345 38.0828 78.5529C38.2547 78.5712 38.3697 78.583 38.4282 78.5881C39.297 78.6839 40.1616 78.7891 41.0221 78.904C41.0994 78.9172 41.1782 78.934 41.2582 78.9543C41.3383 78.9745 41.3963 79.0421 41.4321 79.1574C41.4376 79.171 41.4123 79.1985 41.3563 79.2397C41.3004 79.2809 41.2527 79.3031 41.2131 79.3064C41.1271 79.3186 41.0393 79.3291 40.9503 79.3378C40.8612 79.3464 40.7671 79.3563 40.668 79.3674C40.6349 79.5228 40.5986 79.6793 40.5587 79.8376C40.519 79.9956 40.4956 80.1534 40.4884 80.311C40.4711 80.6656 40.4571 81.017 40.4467 81.3655C40.4362 81.7141 40.4321 82.0664 40.434 82.4227C40.4356 82.6336 40.436 82.8382 40.4353 83.0358C40.4346 83.2335 40.399 83.4381 40.3284 83.6495C40.2747 83.8161 40.2609 83.9963 40.2867 84.1898C40.3127 84.3832 40.3474 84.5675 40.3912 84.7428C40.4015 84.7766 40.4261 84.8134 40.4651 84.8531C40.5044 84.8927 40.5487 84.9279 40.5984 84.9587C40.6481 84.9894 40.6999 85.0153 40.7536 85.0366C40.8075 85.0577 40.8574 85.0669 40.9034 85.0645C41.0735 85.0662 41.2158 85.1033 41.3306 85.176C41.4455 85.2487 41.5648 85.3266 41.6883 85.4101C41.6944 85.4171 41.6971 85.4421 41.6967 85.485C41.6963 85.5279 41.6936 85.5769 41.6888 85.6326C41.684 85.6881 41.6776 85.7454 41.6691 85.8039C41.6609 85.8626 41.6485 85.911 41.6321 85.9491Z" fill="#A3A5AD"/>
<path fill-rule="evenodd" clip-rule="evenodd" d="M23.8897 81.1847C23.8311 81.2135 23.777 81.2445 23.7269 81.278C23.6771 81.3112 23.6214 81.3379 23.56 81.3579C23.5279 81.3634 23.4987 81.3704 23.4723 81.379C23.446 81.3875 23.4212 81.3931 23.3978 81.3958C23.1263 81.4402 22.9226 81.3832 22.7871 81.2247C22.6516 81.0663 22.6158 80.8375 22.6799 80.5385C22.7715 80.1135 22.8668 79.6922 22.9653 79.2745C23.0642 78.8567 23.1696 78.437 23.2813 78.0151C23.3299 77.8189 23.3843 77.6218 23.4444 77.4241C23.5047 77.2263 23.5491 77.0205 23.5772 76.8063C23.2604 77.3143 22.9422 77.8217 22.6223 78.3283C22.3027 78.8347 21.9843 79.3421 21.6674 79.8502C21.7309 79.9273 21.801 79.9911 21.8777 80.0417C21.9546 80.0924 22.0278 80.1429 22.0971 80.1937C22.1667 80.2442 22.2216 80.3021 22.2617 80.367C22.3019 80.432 22.3113 80.5144 22.29 80.6141C22.2899 80.6288 22.2604 80.6504 22.2018 80.6793C22.1433 80.7081 22.0936 80.7193 22.0528 80.7131C21.9305 80.6943 21.7815 80.6598 21.6055 80.6096C21.4296 80.5595 21.2493 80.4997 21.0648 80.4303C20.8803 80.361 20.6996 80.2843 20.5225 80.2004C20.3454 80.1163 20.1946 80.0313 20.07 79.9448C20.0208 79.912 19.9775 79.8712 19.94 79.8224C19.9026 79.7736 19.8651 79.721 19.8277 79.6649C19.8048 79.6381 19.7965 79.5896 19.8029 79.5192C19.8095 79.4488 19.8245 79.4048 19.848 79.3875C19.9242 79.3383 19.9997 79.3126 20.0738 79.3103C20.1484 79.3081 20.2234 79.3156 20.299 79.3324C20.3746 79.3493 20.4539 79.3698 20.5367 79.3941C20.6197 79.4184 20.7033 79.4339 20.7878 79.4407C20.8674 79.3562 20.9565 79.2637 21.055 79.1634C21.1538 79.0631 21.2474 78.9545 21.3359 78.8379C21.5869 78.5172 21.8458 78.206 22.1124 77.9047C22.3793 77.6033 22.6164 77.2699 22.824 76.9047C23.0405 76.522 23.2933 76.1617 23.5822 75.8238C23.8712 75.4858 24.1515 75.1434 24.4231 74.7965C24.4556 74.7615 24.4857 74.7272 24.5137 74.6938C24.5418 74.6601 24.5691 74.6245 24.5956 74.5866C24.6843 74.47 24.7826 74.41 24.8904 74.4067C24.9984 74.4032 25.1046 74.4211 25.2092 74.4603C25.3196 74.5025 25.3897 74.5737 25.4192 74.6739C25.449 74.774 25.4472 74.8781 25.4141 74.9867C25.3329 75.262 25.2493 75.5344 25.1635 75.8038C25.078 76.0732 24.9916 76.3442 24.9043 76.6164C24.8231 76.8917 24.7328 77.1773 24.6337 77.473C24.6277 77.4994 24.6389 77.5458 24.6673 77.6122C24.696 77.6785 24.7232 77.7222 24.7492 77.743C24.7696 77.7607 24.7883 77.7742 24.8056 77.7831C24.8231 77.7921 24.842 77.8056 24.8621 77.8233C24.8969 77.856 24.961 77.8706 25.0542 77.8671C25.1476 77.8636 25.209 77.8473 25.2383 77.8182C25.3708 77.6874 25.5041 77.5585 25.6379 77.4322C25.7718 77.3056 25.8956 77.1702 26.0091 77.0258C26.1229 76.8816 26.2212 76.7275 26.3044 76.5639C26.3877 76.4002 26.4477 76.2172 26.4846 76.0149C26.5189 75.789 26.6195 75.649 26.786 75.5949C26.9528 75.5406 27.2124 75.5417 27.5646 75.598C27.6655 75.7311 27.7217 75.8654 27.7335 76.0006C27.7455 76.1358 27.714 76.2911 27.6394 76.4667C27.4092 77.0636 27.19 77.6609 26.9815 78.258C26.7733 78.8552 26.5655 79.4584 26.3584 80.0674C26.2624 80.3721 26.1733 80.6804 26.0915 80.9924C26.0099 81.3045 25.9223 81.6246 25.8287 81.9525C25.8952 82.0237 25.9652 82.1022 26.0386 82.1881C26.1122 82.2741 26.201 82.3733 26.3048 82.486C26.2399 82.5704 26.1615 82.6813 26.0697 82.8186C26.0522 82.8389 26.0141 82.8525 25.9557 82.8593C25.8973 82.866 25.8537 82.862 25.8245 82.8471C25.6623 82.7485 25.4938 82.6691 25.3195 82.6086C25.1453 82.5482 24.9723 82.4885 24.8007 82.4296C24.6293 82.3705 24.4652 82.3007 24.3085 82.2199C24.1517 82.1391 24.0114 82.026 23.8874 81.8809C23.8444 81.8217 23.7989 81.7633 23.7513 81.7056C23.7038 81.6478 23.6717 81.5887 23.6546 81.5284C23.6378 81.468 23.6448 81.407 23.676 81.3457C23.7073 81.2843 23.7757 81.2219 23.8812 81.1582C23.9745 81.1767 24.069 81.1959 24.1649 81.216C24.261 81.2361 24.3584 81.2568 24.4574 81.2784C24.6466 81.3243 24.7944 81.3286 24.9012 81.2915C25.0081 81.2543 25.093 81.1449 25.1558 80.9635C25.258 80.662 25.3527 80.3567 25.4402 80.0475C25.5276 79.7386 25.6166 79.4302 25.707 79.1226C25.4517 79.3081 25.223 79.5056 25.0212 79.7152C24.8196 79.9247 24.623 80.1387 24.4312 80.3572C24.2545 80.5611 24.0818 80.7709 23.9134 80.9867C23.8958 81.0071 23.8882 81.0363 23.8907 81.0746C23.8934 81.1128 23.893 81.1494 23.8897 81.1847Z" fill="#A3A5AD"/>
<path fill-rule="evenodd" clip-rule="evenodd" d="M18.2428 72.8705L16.9601 71.7742C16.9502 71.7657 16.9262 71.7688 16.888 71.7837C16.85 71.7983 16.825 71.818 16.813 71.8422C16.5911 72.2986 16.3729 72.7431 16.1583 73.1754C15.9438 73.6079 15.7208 74.0527 15.4897 74.5099C15.4787 74.5435 15.4847 74.5744 15.5078 74.6028C15.5309 74.6311 15.5559 74.6395 15.5827 74.628C15.8383 74.5278 16.0788 74.4146 16.3044 74.2888C16.5302 74.1631 16.7493 74.0295 16.9622 73.8885C17.1752 73.7474 17.3861 73.5983 17.5954 73.4413C17.8046 73.2841 18.0211 73.1288 18.2444 72.9752C18.2579 72.9694 18.2633 72.9527 18.2611 72.9249C18.2588 72.8971 18.2528 72.8791 18.2428 72.8705ZM16.908 68.8199C17.0039 68.7468 17.0925 68.6999 17.174 68.6791C17.2557 68.6584 17.332 68.659 17.4032 68.6812C17.4744 68.7032 17.5398 68.7398 17.5995 68.7908C17.6591 68.8417 17.7172 68.8999 17.7733 68.9651C17.8956 69.1042 18.0192 69.2442 18.144 69.3853C18.2689 69.5265 18.4028 69.6797 18.5457 69.845C18.5223 69.9542 18.4853 70.0259 18.4349 70.0604C18.3845 70.0949 18.3264 70.1053 18.2605 70.0923C18.1946 70.079 18.1253 70.0497 18.0521 70.0046C17.9792 69.9594 17.9014 69.9146 17.8191 69.87C17.7175 70.0416 17.6156 70.2107 17.5136 70.3776C17.4115 70.5444 17.2992 70.7262 17.1763 70.9227L18.899 72.3952C19.1127 72.2936 19.2813 72.2051 19.4047 72.1296C19.5281 72.0543 19.6107 71.9764 19.6528 71.8959C19.6948 71.8156 19.7001 71.7232 19.6684 71.6186C19.6367 71.5141 19.5775 71.3814 19.4902 71.2208C19.4796 71.2031 19.4792 71.1682 19.4887 71.1162C19.4985 71.0641 19.5142 71.0302 19.5359 71.0144C19.61 70.957 19.6851 70.9287 19.7614 70.9295C19.8378 70.93 19.9081 70.9837 19.9723 71.0902C20.1321 71.3474 20.316 71.5604 20.5239 71.7297C20.7321 71.8988 20.9772 72.0137 21.2597 72.0742C21.2832 72.077 21.3055 72.0961 21.3268 72.1316C21.3482 72.1671 21.3598 72.1941 21.3611 72.2127C21.3385 72.331 21.3099 72.4208 21.2756 72.4819C21.2413 72.543 21.1837 72.5757 21.1031 72.58C21.0226 72.5843 20.9101 72.5656 20.7655 72.524C20.6211 72.4823 20.425 72.4159 20.1768 72.3246C19.528 72.8208 18.8729 73.3245 18.2114 73.8359C17.5498 74.3472 16.8814 74.8569 16.2056 75.3647C16.0619 75.4744 15.9129 75.5751 15.7584 75.6673C15.604 75.7592 15.4437 75.833 15.2769 75.8887C15.1111 75.9537 14.9591 75.9767 14.8211 75.9579C14.6831 75.9389 14.5694 75.8913 14.4798 75.8149C14.3904 75.7383 14.3298 75.6326 14.2979 75.4978C14.2663 75.3629 14.2711 75.2099 14.3126 75.0387C14.3708 74.7869 14.4563 74.5433 14.5688 74.3081C14.6816 74.0728 14.7982 73.8431 14.9186 73.6187C15.6087 72.4338 16.3071 71.2694 17.0142 70.1252C17.1245 69.9438 17.1936 69.7702 17.2217 69.6049C17.25 69.4395 17.1737 69.271 16.9932 69.0995C16.9684 69.0783 16.9527 69.041 16.946 68.9881C16.9394 68.935 16.9268 68.879 16.908 68.8199Z" fill="#A3A5AD"/>
<path fill-rule="evenodd" clip-rule="evenodd" d="M10.3592 71.4238C10.2594 71.3353 10.1703 71.2531 10.092 71.1769C10.0138 71.1008 9.94096 71.0185 9.87364 70.9297C9.73511 70.7471 9.60512 70.5619 9.4833 70.3745C9.36177 70.1872 9.24203 69.9942 9.12411 69.7956C9.08708 69.7248 9.05204 69.6464 9.01928 69.56C8.98662 69.4735 8.98111 69.4014 9.00267 69.3433C9.05394 69.2377 9.12819 69.1869 9.22532 69.1906C9.32255 69.1943 9.41959 69.2168 9.51634 69.2579C9.63427 69.316 9.75362 69.3812 9.87411 69.4537C10.2648 68.9627 10.635 68.4692 10.9845 67.9726C11.3342 67.4762 11.6598 66.9506 11.9613 66.3962C12.1 66.1572 12.2262 65.907 12.3399 65.646C12.0166 65.8039 11.6917 65.957 11.365 66.1051C11.0385 66.2531 10.7174 66.4115 10.4019 66.5798C10.0802 66.7615 9.76454 66.9508 9.45444 67.1481C9.14462 67.3453 8.82502 67.5458 8.49554 67.75C8.51055 67.8127 8.53229 67.8848 8.56106 67.9661C8.58992 68.0472 8.60132 68.1272 8.59543 68.2061C8.58575 68.2799 8.56163 68.3645 8.52336 68.4601C8.48519 68.5557 8.43667 68.6135 8.37828 68.6338C8.30944 68.6619 8.22399 68.6657 8.12211 68.6449C8.02023 68.6241 7.93259 68.5924 7.8591 68.5498C7.7857 68.5071 7.72104 68.4515 7.66502 68.3831C7.609 68.3146 7.55592 68.2418 7.5056 68.1648C7.34969 67.9376 7.19816 67.7133 7.0506 67.4921C6.90334 67.2707 6.75626 67.0471 6.60938 66.8212C6.77525 66.553 6.91321 66.4076 7.02316 66.3848C7.13321 66.3621 7.27393 66.4585 7.44531 66.6737C7.52051 66.7729 7.58517 66.8471 7.63901 66.8965C7.69303 66.946 7.74934 66.9771 7.80802 66.9896C7.86679 67.0022 7.9342 66.9938 8.01026 66.9641C8.08631 66.9346 8.18667 66.8883 8.31125 66.8255C8.86945 66.5444 9.42158 66.2663 9.96735 65.9906C10.5134 65.715 11.0653 65.4367 11.6235 65.1559C11.9729 64.978 12.331 64.8282 12.6982 64.7067C13.0656 64.5851 13.4447 64.5062 13.8355 64.4697C13.9486 64.5646 14.0347 64.643 14.0939 64.7048C14.1531 64.7667 14.1908 64.8246 14.2068 64.8782C14.2231 64.932 14.2142 64.9905 14.1801 65.0539C14.1462 65.1171 14.0943 65.2004 14.0248 65.3035C13.739 65.7056 13.4452 66.0971 13.1434 66.4781C12.8418 66.8591 12.542 67.2429 12.2441 67.6291C11.9695 67.9812 11.6952 68.3307 11.4212 68.6781C11.1473 69.0254 10.873 69.3751 10.5984 69.727C10.4487 69.9083 10.3851 70.0894 10.4075 70.2705C10.4301 70.4517 10.4918 70.6357 10.5925 70.8226C10.6178 70.8775 10.6394 70.9251 10.6573 70.9649C10.6754 71.0048 10.6855 71.0425 10.6876 71.0779C10.6899 71.1134 10.6864 71.1493 10.6769 71.1854C10.6675 71.2218 10.6474 71.2682 10.6165 71.3249C10.5986 71.3553 10.5575 71.385 10.4931 71.4138C10.4289 71.4426 10.3843 71.4459 10.3592 71.4238Z" fill="#A3A5AD"/>
<path fill-rule="evenodd" clip-rule="evenodd" d="M4.95292 63.6903C4.92662 63.6953 4.88465 63.6856 4.82702 63.6615C4.76958 63.6375 4.73539 63.6134 4.72457 63.5895C4.61975 63.4212 4.5171 63.2499 4.41674 63.0758C4.31638 62.9019 4.21849 62.7248 4.12259 62.545C3.95121 62.1978 3.78552 61.8517 3.62553 61.5065C3.46564 61.1613 3.30584 60.8124 3.14613 60.4598C2.86859 59.8148 2.5996 59.1732 2.33906 58.535C2.28826 58.4067 2.27943 58.2845 2.31267 58.1681C2.34599 58.0518 2.42072 57.9633 2.53656 57.9027C2.78029 57.7764 3.02669 57.6559 3.27583 57.5414C3.52498 57.427 3.77688 57.3184 4.03134 57.2158C4.15592 57.1586 4.27451 57.1512 4.38664 57.1933C4.49906 57.2356 4.58063 57.3208 4.63142 57.4491C4.67975 57.5713 4.69495 57.696 4.67728 57.8232C4.65962 57.9505 4.57939 58.0542 4.43649 58.1342C4.37079 58.179 4.30223 58.2175 4.23102 58.2502C4.15981 58.283 4.09449 58.3203 4.03457 58.3623C3.92348 58.4495 3.84553 58.5503 3.80062 58.6646C3.75571 58.7791 3.75988 58.9107 3.81287 59.0597C3.88218 59.2445 3.94409 59.4325 3.99859 59.6241C4.05299 59.8156 4.11499 60.0038 4.18421 60.1886C4.31695 60.5606 4.51188 60.7816 4.7691 60.851C5.02632 60.9206 5.30499 60.8358 5.60522 60.5967C5.77357 60.4616 5.84687 60.3232 5.8256 60.1814C5.80443 60.0395 5.69153 59.9327 5.48692 59.8606C5.38323 59.8216 5.27613 59.7987 5.16551 59.7917C5.0549 59.7848 4.94912 59.7649 4.8481 59.7318C4.6112 59.6673 4.4739 59.57 4.43621 59.4392C4.39851 59.3085 4.45301 59.1519 4.59943 58.969C4.76112 58.7719 4.94931 58.626 5.16428 58.5308C5.37915 58.4356 5.60048 58.3466 5.82798 58.2636C6.00553 58.1966 6.17919 58.133 6.34896 58.0729C6.51902 58.0129 6.69258 57.9493 6.86995 57.8823C6.89046 57.8802 6.91049 57.8728 6.92977 57.8602C6.94933 57.8476 6.96917 57.8404 6.98968 57.8381C7.13752 57.7847 7.28155 57.7743 7.42179 57.8073C7.56222 57.8403 7.64948 57.9103 7.68357 58.0173C7.73408 58.1603 7.73067 58.2954 7.6736 58.4226C7.61673 58.5499 7.53042 58.6364 7.41496 58.6823C7.2845 58.7422 7.18585 58.8091 7.11891 58.8832C7.05216 58.9572 7.00848 59.0387 6.98778 59.1276C6.96718 59.2165 6.96727 59.3157 6.98816 59.4251C7.00915 59.5347 7.04209 59.6549 7.087 59.786C7.16591 59.7859 7.25108 59.7882 7.3427 59.7928C7.43461 59.7977 7.52187 59.7809 7.60495 59.7427C7.78251 59.6757 7.95218 59.5994 8.11407 59.5142C8.27615 59.4289 8.43785 59.3349 8.59898 59.2318C8.82002 59.0869 8.96159 58.9011 9.02359 58.674C9.08569 58.447 9.06423 58.2096 8.95902 57.9618C8.92722 57.8755 8.89066 57.7947 8.84955 57.7197C8.80853 57.6449 8.76894 57.5657 8.73105 57.4819C8.64949 57.3173 8.56584 57.1841 8.48038 57.0827C8.39503 56.981 8.30141 56.9088 8.19924 56.8653C8.09726 56.8219 7.98114 56.8068 7.85078 56.8197C7.72051 56.8327 7.56536 56.8696 7.38505 56.9308C7.31716 56.9549 7.23237 56.9379 7.13087 56.8798C7.02937 56.8219 6.94154 56.7467 6.86758 56.6543C6.79351 56.5622 6.75174 56.4657 6.74205 56.3654C6.73265 56.2652 6.78867 56.1835 6.91049 56.1201C7.17208 55.9856 7.43556 55.8591 7.70076 55.7408C7.96623 55.6225 8.23826 55.4992 8.51694 55.3711C8.56451 55.3493 8.63297 55.3503 8.7226 55.3741C8.81223 55.3979 8.86816 55.4263 8.89019 55.4595C8.9482 55.5557 9.01913 55.6927 9.10316 55.8706C9.18747 56.0484 9.27359 56.2309 9.3617 56.4178C9.45001 56.6046 9.52853 56.7779 9.59718 56.9376C9.66592 57.0973 9.71235 57.2041 9.73675 57.2579C10.0816 58.067 10.4161 58.8771 10.7404 59.688C10.767 59.7624 10.7913 59.8397 10.8131 59.9199C10.8351 60.0001 10.8052 60.0843 10.7232 60.1724C10.7141 60.1839 10.678 60.1753 10.6147 60.1465C10.5516 60.1177 10.509 60.0868 10.4867 60.0536C10.4338 59.9842 10.3816 59.9124 10.3302 59.8386C10.2789 59.7647 10.224 59.687 10.1655 59.6056C10.0151 59.6531 9.8619 59.6983 9.70561 59.7412C9.54961 59.7841 9.40168 59.8413 9.26191 59.9126C8.94706 60.0719 8.63648 60.2326 8.33018 60.395C8.02396 60.5573 7.71737 60.7271 7.41059 60.9041C7.22895 61.0093 7.05244 61.1103 6.88125 61.207C6.71005 61.3037 6.51579 61.3731 6.29835 61.4152C6.12792 61.4502 5.96556 61.5267 5.81098 61.6446C5.65669 61.7626 5.51455 61.8837 5.38447 62.0085C5.36035 62.0342 5.3407 62.0738 5.3256 62.1275C5.31069 62.1815 5.30205 62.2376 5.29996 62.2964C5.29797 62.3551 5.30101 62.4133 5.30908 62.4708C5.31734 62.5285 5.33386 62.5768 5.35864 62.6159C5.44096 62.7659 5.47894 62.909 5.47249 63.0455C5.46631 63.182 5.45758 63.3249 5.44637 63.4744C5.44324 63.4831 5.42302 63.4978 5.3857 63.5185C5.34858 63.5393 5.30471 63.5611 5.25429 63.5843C5.20397 63.6075 5.15127 63.63 5.09658 63.6514C5.04179 63.673 4.99394 63.686 4.95292 63.6903Z" fill="#A3A5AD"/>
<path fill-rule="evenodd" clip-rule="evenodd" d="M7.2268 53.5106C7.03538 53.551 6.84273 53.5932 6.64866 53.6374C6.45477 53.6817 6.2606 53.7175 6.06652 53.7448C5.97452 53.7509 5.87691 53.7462 5.77389 53.731C5.67087 53.7159 5.59681 53.6795 5.55142 53.6218C5.47774 53.5233 5.45638 53.4204 5.48743 53.3132C5.51857 53.2059 5.58228 53.112 5.67865 53.0313C5.77531 52.9507 5.87045 52.8719 5.96445 52.7951C6.05836 52.7183 6.15492 52.6459 6.25405 52.5781C6.38764 52.4829 6.47974 52.3729 6.53035 52.2482C6.58115 52.1235 6.62625 51.9798 6.66575 51.8171C6.73345 51.5009 6.74455 51.2016 6.69926 50.9192C6.65416 50.6368 6.57203 50.3539 6.45325 50.0702C6.28509 49.6763 6.02161 49.3861 5.66327 49.1998C5.55788 49.1414 5.44812 49.1092 5.33351 49.1031C5.219 49.097 5.10763 49.1139 4.9992 49.1533C4.89095 49.1929 4.79297 49.2506 4.70523 49.326C4.61778 49.4015 4.55208 49.4942 4.50821 49.604C4.41412 49.8251 4.36626 50.0516 4.36436 50.2835C4.36247 50.5154 4.38241 50.7477 4.42399 50.9805C4.45077 51.1093 4.48106 51.2387 4.51467 51.3691C4.54847 51.4996 4.56271 51.6324 4.5574 51.7676C4.55198 51.8695 4.54866 51.9743 4.54762 52.0818C4.54657 52.1894 4.54173 52.2944 4.53299 52.3968C4.52426 52.4994 4.50764 52.5952 4.48277 52.6842C4.45798 52.7734 4.4183 52.8472 4.3638 52.9055C4.25992 53.0147 4.15633 53.1254 4.05303 53.2376C3.94982 53.3499 3.84043 53.457 3.72488 53.5584C3.60952 53.6599 3.48523 53.7516 3.3522 53.8331C3.21937 53.915 3.07068 53.9764 2.90594 54.0177C2.70446 54.0736 2.52073 54.0871 2.35486 54.0582C2.18908 54.0295 2.0345 53.9746 1.89122 53.8941C1.74804 53.8135 1.61444 53.7159 1.49072 53.6009C1.367 53.4861 1.24319 53.3713 1.11957 53.2564C0.89653 53.0484 0.729609 52.805 0.618424 52.5265C0.507428 52.2479 0.439634 51.9536 0.415232 51.6433C0.399471 51.4387 0.385893 51.2368 0.374594 51.0378C0.363295 50.8389 0.350572 50.6403 0.335949 50.4421C0.327689 50.3701 0.299014 50.2956 0.249641 50.2186C0.108546 50.0203 0.0456894 49.8374 0.0607863 49.6697C0.0759782 49.5021 0.18555 49.3633 0.389026 49.2532C0.623361 49.1302 0.865482 49.0289 1.11529 48.9493C1.36539 48.87 1.61786 48.7866 1.8727 48.6994C1.92749 48.6744 1.98987 48.6697 2.05966 48.6852C2.12945 48.7007 2.19905 48.7146 2.26807 48.7268C2.42569 48.7475 2.54153 48.8086 2.61587 48.9103C2.69041 49.0122 2.75032 49.1252 2.79618 49.2498C2.82505 49.3242 2.83293 49.3865 2.81982 49.436C2.80691 49.4858 2.78412 49.5291 2.75194 49.5661C2.71956 49.603 2.68006 49.6366 2.63287 49.6666C2.58587 49.6967 2.53887 49.7267 2.49168 49.7567C2.24272 49.9367 2.04314 50.123 1.89331 50.3155C1.74338 50.5081 1.63476 50.707 1.56744 50.9125C1.50022 51.1179 1.46974 51.3324 1.4761 51.5558C1.48256 51.7793 1.51437 52.0125 1.57134 52.2554C1.61881 52.42 1.68784 52.5681 1.77842 52.7C1.86919 52.8318 1.99092 52.9455 2.14378 53.0408C2.29551 53.1296 2.44876 53.1779 2.60353 53.1856C2.75839 53.1933 2.90233 53.1647 3.03526 53.0997C3.16838 53.0348 3.27653 52.9382 3.3598 52.81C3.44307 52.6817 3.48656 52.53 3.49017 52.3548C3.50147 52.0236 3.49453 51.6929 3.46928 51.3626C3.44421 51.0325 3.41345 50.7001 3.37727 50.3655C3.34394 50.0438 3.3804 49.7458 3.48665 49.4718C3.59309 49.1977 3.71548 48.9289 3.85382 48.6648C3.92551 48.5289 4.04571 48.4097 4.21415 48.3071C4.38278 48.2046 4.56784 48.1254 4.76932 48.0694C4.971 48.0136 5.1721 47.9882 5.37292 47.9927C5.57364 47.9975 5.74217 48.0393 5.87843 48.1178C6.09956 48.2524 6.30997 48.4078 6.50955 48.5838C6.70942 48.7599 6.90217 48.9424 7.0878 49.1314C7.17164 49.2145 7.23079 49.3228 7.26507 49.4564C7.29953 49.5901 7.32688 49.722 7.3471 49.8518C7.40265 50.2161 7.45126 50.5782 7.49257 50.9384C7.53406 51.2988 7.58315 51.6641 7.64002 52.0347C7.65246 52.1261 7.68132 52.2173 7.72681 52.3084C7.77238 52.3994 7.82802 52.475 7.89363 52.5349C7.98526 52.6231 8.05505 52.7107 8.10309 52.7978C8.15113 52.885 8.16091 52.9887 8.13252 53.1086C8.10176 53.2494 8.03672 53.3369 7.93721 53.3712C7.8379 53.4056 7.73393 53.4341 7.6253 53.4569C7.55514 53.4718 7.48953 53.484 7.42809 53.4934C7.36685 53.5031 7.30048 53.512 7.2288 53.5204L7.2268 53.5106Z" fill="#A3A5AD"/>
<path fill-rule="evenodd" clip-rule="evenodd" d="M5.84944 40.4295C5.65613 40.3998 5.46101 40.3715 5.26389 40.3444C5.06678 40.3175 4.87251 40.2827 4.68119 40.2399C4.59298 40.2131 4.50306 40.1743 4.41182 40.1237C4.32057 40.0731 4.26388 40.013 4.24138 39.943C4.20663 39.8247 4.22239 39.7208 4.28867 39.6313C4.35504 39.5419 4.44733 39.4764 4.56573 39.4348C4.68432 39.3932 4.80073 39.3531 4.91543 39.3141C5.03013 39.2754 5.14577 39.2416 5.26218 39.213C5.42037 39.171 5.54485 39.1004 5.63562 39.0013C5.72648 38.9024 5.81868 38.7837 5.91221 38.6452C6.08549 38.3729 6.19981 38.0965 6.25545 37.816C6.31128 37.5356 6.33264 37.2415 6.31992 36.9339C6.29922 36.5057 6.15328 36.1408 5.8823 35.8401C5.80396 35.7483 5.71215 35.6793 5.60694 35.6332C5.50183 35.5872 5.3916 35.5637 5.27633 35.5624C5.16116 35.5614 5.0494 35.5808 4.94106 35.6206C4.83282 35.6604 4.73911 35.724 4.65982 35.8115C4.49499 35.9855 4.37137 36.1807 4.28905 36.3973C4.20682 36.6138 4.14472 36.8385 4.10285 37.0713C4.0831 37.2013 4.06658 37.3333 4.05272 37.4672C4.03904 37.6014 4.00629 37.7309 3.95425 37.8557C3.91381 37.9492 3.8744 38.0462 3.83595 38.1465C3.79778 38.2469 3.75667 38.3435 3.71289 38.4365C3.66912 38.5294 3.62022 38.6133 3.56601 38.688C3.51179 38.7628 3.44903 38.8179 3.37763 38.8533C3.24251 38.919 3.10693 38.9861 2.97115 39.0549C2.83547 39.1238 2.69589 39.1854 2.55233 39.2397C2.40905 39.294 2.26074 39.336 2.10787 39.3656C1.955 39.3953 1.79435 39.4006 1.62572 39.3812C1.41749 39.3625 1.2407 39.3104 1.09543 39.2248C0.950058 39.1394 0.824345 39.0337 0.718097 38.9077C0.611944 38.7816 0.520697 38.6431 0.444738 38.4919C0.368683 38.3407 0.292724 38.1894 0.21667 38.0382C0.0800374 37.7647 0.0081608 37.478 0.000849698 37.1778C-0.00636645 36.8777 0.0323729 36.5781 0.117353 36.2788C0.173657 36.0815 0.231007 35.8876 0.289496 35.6973C0.348079 35.507 0.405144 35.3164 0.46031 35.1256C0.47759 35.0552 0.476641 34.9753 0.457081 34.8859C0.393845 34.6504 0.398403 34.4568 0.470944 34.305C0.54339 34.1535 0.69417 34.062 0.923092 34.0306C1.18525 33.998 1.44731 33.9885 1.70899 34.0021C1.97067 34.0159 2.23615 34.0268 2.50533 34.0348C2.56534 34.0308 2.62534 34.0484 2.68526 34.0876C2.74536 34.1267 2.80565 34.1643 2.86614 34.2C3.00657 34.2749 3.09392 34.3731 3.1282 34.4945C3.16257 34.6161 3.17947 34.7434 3.17918 34.876C3.18032 34.956 3.16618 35.017 3.13665 35.0589C3.10721 35.1009 3.07085 35.1335 3.02783 35.1568C2.98473 35.18 2.93592 35.1975 2.88133 35.209C2.82692 35.2206 2.77242 35.2321 2.71782 35.2436C2.42206 35.3244 2.17044 35.4285 1.96307 35.5561C1.7558 35.6837 1.58489 35.8318 1.45054 36.0005C1.31618 36.1692 1.21316 36.3594 1.14157 36.5709C1.06988 36.7826 1.01871 37.0121 0.987563 37.2598C0.97503 37.4307 0.988133 37.5938 1.02716 37.7493C1.06637 37.9048 1.141 38.0542 1.25114 38.1974C1.36242 38.3341 1.48918 38.4333 1.63141 38.495C1.77384 38.5568 1.91864 38.5808 2.06571 38.5668C2.21298 38.553 2.34781 38.5006 2.47039 38.4098C2.59297 38.3191 2.6864 38.1923 2.75068 38.0293C2.8762 37.7232 2.98463 37.4109 3.07569 37.0927C3.16684 36.7745 3.25362 36.4523 3.33594 36.1261C3.41646 35.8129 3.55404 35.5467 3.74878 35.3275C3.94372 35.1084 4.15175 34.8996 4.37308 34.701C4.48749 34.5989 4.6414 34.5297 4.83491 34.4929C5.02851 34.4564 5.22942 34.4474 5.43755 34.4661C5.64587 34.4849 5.84318 34.5319 6.02956 34.607C6.21604 34.6822 6.35942 34.7807 6.45968 34.9023C6.62015 35.1065 6.76324 35.3262 6.88904 35.5614C7.01514 35.7968 7.13221 36.0357 7.24045 36.2782C7.2902 36.3855 7.30796 36.5079 7.29362 36.6451C7.27948 36.7826 7.25935 36.9157 7.23314 37.0445C7.1587 37.4053 7.07837 37.7616 6.99197 38.1137C6.90566 38.4659 6.82467 38.8254 6.74928 39.1926C6.72915 39.2827 6.7245 39.3781 6.73551 39.4795C6.74652 39.5808 6.77235 39.6713 6.81308 39.7505C6.86834 39.8655 6.90319 39.9721 6.91791 40.0707C6.93263 40.1693 6.90576 40.2699 6.83758 40.3723C6.75982 40.4933 6.66848 40.5523 6.56346 40.5493C6.45845 40.5466 6.35106 40.5366 6.24139 40.5197C6.17056 40.5088 6.10476 40.4972 6.04399 40.4844C5.98332 40.4717 5.918 40.4567 5.84802 40.4393L5.84944 40.4295Z" fill="#A3A5AD"/>
<path fill-rule="evenodd" clip-rule="evenodd" d="M6.97146 28.0643C6.62404 27.9693 6.24178 27.8646 5.82476 27.7505C5.40784 27.6363 4.97914 27.5354 4.53848 27.4474C4.41571 27.4225 4.27746 27.4339 4.12422 27.4815C3.97097 27.5292 3.84155 27.5929 3.73559 27.6723C3.43099 27.8947 3.22448 28.1624 3.11576 28.4756C3.00723 28.7888 2.98359 29.1355 3.04493 29.5159C3.10475 29.8817 3.22685 30.1779 3.41086 30.4045C3.59506 30.6311 3.88333 30.7689 4.27566 30.8177C4.52614 30.8555 4.7749 30.9118 5.02187 30.9868C5.26902 31.0619 5.51731 31.1285 5.76703 31.187C5.99234 31.2364 6.21927 31.2811 6.44791 31.3211C6.67674 31.3613 6.90699 31.3968 7.13905 31.4275C7.31537 31.4585 7.47545 31.4536 7.61921 31.4128C7.76296 31.3721 7.89238 31.3086 8.00783 31.222C8.1231 31.1356 8.22669 31.0343 8.31832 30.9178C8.40994 30.8015 8.49711 30.6783 8.5799 30.548C8.61494 30.4912 8.64504 30.4237 8.67039 30.3454C8.69574 30.2674 8.71141 30.1873 8.7172 30.1054C8.72309 30.0236 8.72166 29.9425 8.71302 29.8621C8.70448 29.7819 8.68254 29.7141 8.64722 29.6588C8.55977 29.5 8.4671 29.3409 8.3694 29.1816C8.2716 29.0226 8.1588 28.8715 8.03043 28.7289C7.90225 28.5863 7.75356 28.457 7.58407 28.341C7.41478 28.225 7.21064 28.1328 6.97146 28.0643ZM7.02467 27.3046C7.23422 27.4533 7.44672 27.603 7.66235 27.7536C7.87797 27.9045 8.08601 28.0665 8.28645 28.2396C8.59712 28.5101 8.81389 28.8226 8.93694 29.1769C9.06009 29.5315 9.13131 29.9085 9.15077 30.3081C9.15628 30.3312 9.15144 30.3819 9.13634 30.4604C9.12143 30.5389 9.10282 30.5985 9.08079 30.6393C9.05041 30.6841 9.02477 30.7252 9.00388 30.7629C8.98309 30.8008 8.96723 30.8246 8.9566 30.8345C8.79604 31.0056 8.63643 31.1789 8.47787 31.3542C8.3193 31.5296 8.14602 31.6837 7.95783 31.8164C7.83297 31.9099 7.68399 31.9697 7.51081 31.9958C7.33771 32.0222 7.17136 32.044 7.01185 32.0613C6.3529 32.1508 5.72861 32.1133 5.13897 31.9485C4.54934 31.784 3.98429 31.5198 3.44375 31.156C3.17542 30.9786 2.93444 30.7692 2.7209 30.5279C2.50726 30.2868 2.3581 30.0174 2.27331 29.7192C2.19621 29.4381 2.15358 29.1436 2.14541 28.8357C2.13743 28.5278 2.18377 28.2369 2.28489 27.9629C2.38592 27.6891 2.54894 27.4452 2.77378 27.2316C2.99872 27.0181 3.30446 26.868 3.69109 26.7815C3.95733 26.7201 4.22062 26.6803 4.48116 26.6622C4.7418 26.6441 5.0069 26.6751 5.27636 26.755C5.43987 26.8023 5.60916 26.8428 5.78434 26.877C5.95962 26.911 6.14145 26.9459 6.33011 26.9814C6.35679 26.9846 6.40484 27.0007 6.47386 27.03C6.54299 27.0596 6.61572 27.0936 6.69168 27.1326C6.76773 27.1716 6.83818 27.2069 6.90313 27.2381C6.96817 27.2695 7.00852 27.2917 7.02467 27.3046Z" fill="#A3A5AD"/>
<path fill-rule="evenodd" clip-rule="evenodd" d="M9.54315 23.5388L10.4335 22.101C10.4404 22.0899 10.4339 22.0664 10.4137 22.0305C10.3937 21.9947 10.3708 21.9727 10.3453 21.9643C9.86484 21.8095 9.39665 21.6566 8.9407 21.5054C8.48485 21.3544 8.0157 21.1969 7.53308 21.0329C7.49851 21.0268 7.46898 21.0373 7.44449 21.0643C7.42009 21.0917 7.41543 21.1177 7.43053 21.1427C7.56621 21.3829 7.71224 21.6063 7.86853 21.8128C8.02491 22.0196 8.18785 22.2187 8.35733 22.4102C8.52672 22.602 8.7039 22.7907 8.88857 22.9764C9.07325 23.1621 9.25726 23.3553 9.44051 23.5555C9.4482 23.5682 9.46548 23.5712 9.49236 23.5649C9.51932 23.5587 9.53622 23.55 9.54315 23.5388ZM13.3251 21.6191C13.4109 21.704 13.4698 21.7856 13.5021 21.8638C13.5343 21.9421 13.5447 22.0183 13.5334 22.0925C13.5221 22.1666 13.4957 22.2372 13.4543 22.3041C13.4129 22.3709 13.3643 22.4372 13.3082 22.5026C13.1896 22.6448 13.0699 22.7883 12.9494 22.9331C12.829 23.0781 12.698 23.2338 12.5563 23.4003C12.4457 23.3928 12.3699 23.3664 12.3287 23.3212C12.2875 23.276 12.2688 23.2196 12.2722 23.152C12.2756 23.0844 12.2942 23.0111 12.328 22.9316C12.3617 22.8523 12.3945 22.7683 12.4262 22.6798C12.243 22.6035 12.0621 22.5265 11.8833 22.4489C11.7047 22.3715 11.5099 22.2859 11.299 22.192L10.1032 24.1229C10.234 24.3212 10.3453 24.4765 10.4374 24.5885C10.5294 24.7005 10.6179 24.7716 10.7029 24.8018C10.788 24.832 10.8795 24.8239 10.9776 24.777C11.0757 24.7303 11.1973 24.652 11.3423 24.5417C11.3583 24.5285 11.3925 24.523 11.445 24.525C11.4975 24.5271 11.5331 24.5379 11.5518 24.5572C11.6189 24.6226 11.6576 24.6934 11.6681 24.7696C11.6784 24.8459 11.636 24.9237 11.5408 25.0032C11.3115 25.1998 11.1289 25.414 10.9929 25.6459C10.8568 25.878 10.7797 26.139 10.7613 26.4293C10.7621 26.453 10.7466 26.4781 10.7147 26.5046C10.683 26.5311 10.6581 26.5465 10.6401 26.5506C10.5206 26.5452 10.4282 26.5298 10.3633 26.5043C10.2983 26.4791 10.2579 26.4265 10.2419 26.3467C10.226 26.2671 10.228 26.1522 10.2478 26.0021C10.2678 25.8521 10.3045 25.647 10.3582 25.3863C9.7766 24.8118 9.18668 24.2321 8.58822 23.647C7.99004 23.062 7.39233 22.4697 6.79548 21.8699C6.66682 21.7426 6.54614 21.6087 6.43334 21.4681C6.32064 21.3277 6.22474 21.1784 6.14584 21.0203C6.05782 20.8645 6.01329 20.7164 6.01177 20.5761C6.01034 20.4358 6.04054 20.3156 6.10263 20.2152C6.16473 20.1149 6.25968 20.0392 6.38758 19.9879C6.51547 19.9367 6.66635 19.9192 6.84058 19.9357C7.09637 19.9572 7.34789 20.007 7.59533 20.085C7.84277 20.1632 8.08546 20.246 8.32331 20.3334C9.58708 20.8491 10.8322 21.3762 12.0586 21.9146C12.253 21.9981 12.4333 22.0418 12.5998 22.0458C12.7664 22.0499 12.9208 21.9495 13.063 21.7446C13.0802 21.7168 13.1145 21.6956 13.1655 21.6813C13.2167 21.667 13.2699 21.6464 13.3251 21.6191Z" fill="#A3A5AD"/>
<path fill-rule="evenodd" clip-rule="evenodd" d="M11.8777 14.7562C12.0364 14.8934 12.1998 15.0326 12.3677 15.1742C12.5357 15.3159 12.7081 15.4503 12.8852 15.5777C13.0857 15.7283 13.2916 15.7881 13.5033 15.757C13.715 15.7263 13.9164 15.6257 14.1076 15.4557C14.2761 15.3094 14.4054 15.1496 14.4951 14.9764C14.5849 14.8033 14.6469 14.626 14.6812 14.4443C14.7155 14.2627 14.7244 14.0744 14.7078 13.8794C14.6912 13.6846 14.6608 13.4878 14.6164 13.2886C14.5818 13.1173 14.5058 12.9628 14.3886 12.825C14.2713 12.6875 14.1361 12.5779 13.9827 12.4964C13.8295 12.415 13.6698 12.3709 13.5037 12.364C13.3376 12.3572 13.1836 12.3988 13.0421 12.489C12.8822 12.5983 12.7236 12.7085 12.5661 12.8199C12.4086 12.9314 12.2616 13.0531 12.1251 13.185C11.9887 13.3172 11.8676 13.4686 11.7616 13.6396C11.6557 13.8107 11.5766 14.0081 11.5245 14.2317C11.52 14.2459 11.5296 14.2759 11.5534 14.3219C11.577 14.368 11.6079 14.4188 11.6455 14.4738C11.6831 14.5292 11.7231 14.5821 11.7653 14.6324C11.8074 14.6829 11.845 14.7242 11.8777 14.7562ZM14.7497 18.765L10.9205 15.0158C10.8924 14.9883 10.8426 14.9694 10.771 14.9588C10.6993 14.9482 10.6521 14.9546 10.6295 14.9782C10.5431 15.0677 10.4624 15.1491 10.3874 15.222C10.3124 15.2952 10.2386 15.3741 10.166 15.4586C10.0932 15.534 10.0156 15.5792 9.93278 15.5944C9.84999 15.6094 9.77564 15.5758 9.71003 15.493C9.68174 15.4471 9.67613 15.3797 9.69332 15.2913C9.71041 15.2028 9.73956 15.1373 9.78048 15.0949C10.2211 14.6288 10.6572 14.1649 11.0887 13.7035C11.5201 13.2422 11.9702 12.7922 12.439 12.3534C12.7573 12.0517 13.0694 11.8603 13.3749 11.7791C13.6802 11.6981 13.9662 11.6986 14.2325 11.7807C14.4988 11.8629 14.7417 12.0092 14.9614 12.2196C15.1811 12.4302 15.3645 12.6761 15.5113 12.9572C15.6061 13.1325 15.6526 13.3408 15.6516 13.5823C15.6503 13.8238 15.6329 14.0518 15.599 14.2659C15.5607 14.4942 15.4937 14.7192 15.3976 14.9411C15.3016 15.1631 15.1928 15.3749 15.0712 15.5763C14.9226 15.8341 14.8153 16.0677 14.7491 16.2776C14.6829 16.4877 14.6615 16.6889 14.685 16.8813C14.7084 17.0737 14.778 17.2608 14.8935 17.4426C15.0092 17.6245 15.172 17.8183 15.3824 18.0243L15.4806 18.1205C15.4946 18.1342 15.5463 18.1209 15.6356 18.0799C15.725 18.0392 15.829 17.9832 15.9479 17.9117C16.0668 17.8404 16.1856 17.7597 16.3042 17.6697C16.4229 17.5798 16.5207 17.4948 16.5979 17.4147C16.6206 17.3911 16.6584 17.3755 16.7114 17.3678C16.7643 17.3601 16.8002 17.3654 16.8188 17.3837C16.8515 17.4157 16.8868 17.4569 16.9243 17.5075C16.962 17.5581 16.9972 17.6086 17.0301 17.6593C17.0631 17.7099 17.0881 17.7572 17.1048 17.801C17.1217 17.845 17.1254 17.8716 17.1163 17.881C17.0803 17.9466 17.0467 18.0075 17.0151 18.0636C16.9836 18.1199 16.9452 18.1668 16.8996 18.2046C16.312 18.7195 15.7876 19.2914 15.3262 19.9202C15.2854 19.9718 15.2342 20.0156 15.1725 20.0513C15.1107 20.087 15.0478 20.1148 14.9834 20.1342C14.855 20.1733 14.7393 20.1494 14.6367 20.0625C14.534 19.9758 14.5002 19.8671 14.5352 19.7365C14.5612 19.6155 14.602 19.4976 14.6581 19.3829C14.7141 19.2683 14.7712 19.1433 14.8292 19.0077C14.8382 18.989 14.833 18.9496 14.8137 18.8894C14.7945 18.8295 14.7731 18.7879 14.7497 18.765Z" fill="#A3A5AD"/>
<path fill-rule="evenodd" clip-rule="evenodd" d="M19.8052 14.1484C19.6972 13.984 19.5872 13.8193 19.4747 13.6539C19.3622 13.4888 19.2575 13.3202 19.1606 13.1486C19.1211 13.0647 19.0893 12.9717 19.0653 12.8695C19.0412 12.7674 19.0476 12.6846 19.0839 12.6209C19.1476 12.5156 19.2346 12.4575 19.345 12.447C19.4554 12.4366 19.5655 12.4615 19.6756 12.5221C19.7857 12.5826 19.8935 12.6427 19.9991 12.7022C20.1045 12.7619 20.207 12.8256 20.3062 12.8933C20.4432 12.9832 20.5787 13.0289 20.7126 13.0301C20.8464 13.0316 20.9956 13.0208 21.1602 12.9977C21.4769 12.9443 21.7571 12.8441 22.0009 12.6975C22.2447 12.551 22.4753 12.3696 22.6932 12.1536C22.9944 11.8507 23.1649 11.4969 23.2044 11.0926C23.2194 10.9725 23.2084 10.8577 23.1718 10.7482C23.1351 10.6388 23.0785 10.5407 23.0019 10.4538C22.9255 10.3671 22.8361 10.2966 22.7343 10.2424C22.6322 10.1883 22.5225 10.161 22.405 10.1605C22.1663 10.1542 21.9396 10.1929 21.725 10.2768C21.5105 10.3607 21.3035 10.4652 21.1041 10.5901C20.9953 10.6626 20.887 10.7387 20.7792 10.8184C20.6712 10.8982 20.5539 10.9606 20.4272 11.0056C20.3313 11.0381 20.2334 11.0737 20.1338 11.1124C20.0342 11.1513 19.9355 11.1854 19.8377 11.2151C19.74 11.2448 19.6455 11.2646 19.5541 11.2742C19.4627 11.284 19.38 11.2741 19.306 11.2445C19.167 11.1876 19.0267 11.1315 18.8849 11.0763C18.7432 11.0212 18.6041 10.9583 18.4679 10.8875C18.3316 10.817 18.2012 10.7344 18.0768 10.6401C17.9523 10.5459 17.8408 10.4294 17.7418 10.2904C17.6157 10.1224 17.5355 9.95543 17.5008 9.78947C17.4662 9.6236 17.4596 9.4587 17.481 9.29475C17.5026 9.13099 17.5433 8.96982 17.6036 8.81161C17.6638 8.6533 17.7241 8.49509 17.7844 8.33678C17.8938 8.05126 18.0567 7.80514 18.2726 7.59815C18.4886 7.39135 18.7351 7.21927 19.0123 7.08181C19.1952 6.99152 19.3765 6.90419 19.5558 6.82011C19.7351 6.73612 19.9136 6.6508 20.0912 6.56395C20.1545 6.52961 20.2126 6.47518 20.2653 6.40057C20.3962 6.1953 20.5418 6.06885 20.7021 6.02112C20.8622 5.97348 21.0308 6.02475 21.2074 6.17464C21.4074 6.34854 21.5903 6.53784 21.7559 6.74234C21.9214 6.94713 22.0916 7.15269 22.2663 7.35911C22.3095 7.4012 22.3369 7.45783 22.3483 7.5289C22.3599 7.59997 22.3727 7.67027 22.3868 7.73943C22.4261 7.89458 22.4124 8.02562 22.3461 8.13275C22.2797 8.24008 22.1974 8.33803 22.0995 8.42698C22.0415 8.48141 21.987 8.51183 21.9364 8.51785C21.8858 8.52407 21.8374 8.51881 21.7913 8.50226C21.7454 8.48572 21.6998 8.46104 21.6547 8.42794C21.6096 8.39504 21.5646 8.36213 21.5194 8.32913C21.2614 8.16241 21.016 8.04437 20.783 7.97512C20.55 7.90596 20.3263 7.87774 20.112 7.89066C19.8977 7.90347 19.6885 7.95417 19.4848 8.04265C19.281 8.13122 19.0776 8.24716 18.8746 8.39016C18.7403 8.49538 18.6291 8.61466 18.5409 8.74819C18.4528 8.88181 18.3929 9.03782 18.3616 9.21622C18.3356 9.39107 18.3476 9.55225 18.3977 9.69994C18.4479 9.84782 18.5273 9.97197 18.6363 10.0725C18.7453 10.1731 18.8745 10.2387 19.0235 10.2693C19.1725 10.3 19.3285 10.2847 19.4916 10.2233C19.8012 10.1115 20.1036 9.98297 20.399 9.83729C20.6943 9.6919 20.9897 9.54039 21.2849 9.38294C21.5693 9.23296 21.8577 9.15701 22.1497 9.15538C22.4418 9.15376 22.735 9.16906 23.0297 9.20101C23.1816 9.21804 23.3359 9.28643 23.4927 9.40638C23.6496 9.52633 23.791 9.67038 23.917 9.83835C24.0429 10.0065 24.1407 10.1854 24.2106 10.3751C24.2804 10.5647 24.3042 10.738 24.2819 10.8945C24.2395 11.1513 24.1738 11.4056 24.0852 11.6575C23.9965 11.9095 23.8993 12.1575 23.7935 12.401C23.7479 12.5102 23.6699 12.6056 23.5592 12.687C23.4487 12.7686 23.3371 12.8429 23.2248 12.9099C22.9093 13.0963 22.5932 13.2755 22.276 13.4472C21.959 13.6192 21.6401 13.8001 21.3192 13.9902C21.2395 14.0355 21.1661 14.0962 21.0989 14.1724C21.0317 14.2487 20.9825 14.3287 20.9515 14.4123C20.9041 14.5307 20.8489 14.6284 20.7863 14.7055C20.7236 14.7827 20.6316 14.8301 20.5105 14.8478C20.3693 14.871 20.2645 14.8424 20.1962 14.762C20.1277 14.6816 20.0631 14.5949 20.0018 14.5016C19.9623 14.4414 19.9267 14.3845 19.8954 14.3304C19.8638 14.2766 19.8311 14.2178 19.797 14.1538L19.8052 14.1484Z" fill="#A3A5AD"/>
<path fill-rule="evenodd" clip-rule="evenodd" d="M32.9872 5.95886L34.627 5.58112C34.6396 5.57816 34.6516 5.55692 34.6627 5.51732C34.6738 5.47782 34.6731 5.44587 34.661 5.42167C34.4312 4.96923 34.2087 4.52702 33.9937 4.09477C33.7784 3.6627 33.5585 3.21639 33.3336 2.7561C33.3136 2.72712 33.2854 2.71335 33.2491 2.71497C33.2126 2.71669 33.191 2.73181 33.184 2.76022C33.1107 3.02651 33.0564 3.28832 33.0213 3.54562C32.986 3.80312 32.9607 4.05986 32.9453 4.31611C32.9299 4.57227 32.922 4.83187 32.9215 5.09473C32.9209 5.35758 32.9148 5.62531 32.903 5.89735C32.8996 5.9118 32.9095 5.92624 32.933 5.94097C32.9565 5.95589 32.9744 5.96182 32.9872 5.95886ZM37.0041 7.30652C37.0048 7.42762 36.989 7.52729 36.9567 7.60553C36.9243 7.68378 36.878 7.7449 36.8178 7.78909C36.7576 7.83328 36.6893 7.86418 36.613 7.88168C36.5368 7.89928 36.4558 7.91134 36.3704 7.91746C36.1865 7.93295 36.0012 7.94864 35.8142 7.96471C35.6273 7.98088 35.4253 7.99714 35.2083 8.0133C35.1355 7.92903 35.1007 7.85624 35.1035 7.79493C35.1063 7.73371 35.1328 7.68052 35.1826 7.63519C35.2327 7.59004 35.2974 7.55158 35.3772 7.51964C35.4569 7.48788 35.539 7.45201 35.6237 7.41231C35.5482 7.22761 35.4748 7.04415 35.4034 6.86173C35.3319 6.67952 35.2548 6.47998 35.1722 6.26314L32.9699 6.77048C32.9226 7.00378 32.8918 7.19269 32.8778 7.33742C32.8639 7.48214 32.8763 7.59549 32.915 7.67756C32.9537 7.75963 33.024 7.81922 33.1261 7.85634C33.2281 7.89345 33.369 7.92511 33.5488 7.95094C33.5694 7.95294 33.5974 7.97351 33.6331 8.01244C33.6686 8.05147 33.6861 8.08447 33.6857 8.11144C33.6869 8.20556 33.6644 8.28314 33.6181 8.34426C33.5718 8.40548 33.487 8.43006 33.364 8.41801C33.0638 8.39285 32.7844 8.41352 32.5253 8.4798C32.2661 8.54638 32.0279 8.67532 31.8105 8.86681C31.7944 8.88413 31.7658 8.89073 31.7247 8.88662C31.6837 8.88269 31.6553 8.87571 31.6397 8.86576C31.5593 8.77661 31.505 8.69971 31.4771 8.63543C31.449 8.57115 31.4576 8.50525 31.5024 8.43752C31.5473 8.37009 31.6295 8.2905 31.7492 8.19877C31.8688 8.10723 32.0392 7.98891 32.2604 7.84352C32.2547 7.02291 32.2468 6.19264 32.2367 5.35262C32.2267 4.51278 32.2221 3.66826 32.2234 2.81896C32.2223 2.63731 32.2314 2.45672 32.2508 2.27699C32.2703 2.09735 32.3077 1.92374 32.3633 1.75587C32.411 1.58321 32.4837 1.44681 32.5814 1.34685C32.6792 1.2469 32.7852 1.18367 32.8996 1.15727C33.014 1.13097 33.1342 1.14541 33.2605 1.20051C33.3867 1.2557 33.5055 1.35125 33.6165 1.48737C33.7819 1.68518 33.9242 1.90002 34.0437 2.13178C34.1632 2.36374 34.276 2.59541 34.3821 2.82699C34.9104 4.09334 35.4174 5.35443 35.903 6.61017C35.9814 6.80788 36.0778 6.96753 36.1924 7.08929C36.3069 7.21116 36.4864 7.25066 36.7309 7.20771C36.7627 7.20044 36.8017 7.2101 36.8478 7.23641C36.8939 7.2629 36.9459 7.28634 37.0041 7.30652Z" fill="#A3A5AD"/>
<path fill-rule="evenodd" clip-rule="evenodd" d="M39.899 6.90437C39.9096 6.75315 39.9219 6.60842 39.9361 6.4702C39.95 6.33208 39.9592 6.19396 39.9636 6.05593C39.9738 5.4778 39.9842 4.90608 39.9946 4.34087C40.0052 3.77585 40.0121 3.20422 40.016 2.626C40.0246 2.35664 40.0058 2.09752 39.9594 1.84853C39.913 1.59964 39.8161 1.35496 39.6689 1.1142C39.571 1.10942 39.4747 1.10598 39.3802 1.10416C39.2856 1.10253 39.1894 1.09919 39.0915 1.09412C38.9803 1.08283 38.8886 1.05155 38.8161 1.00009C38.7435 0.948723 38.7193 0.860435 38.7434 0.735225C38.7613 0.629911 38.8021 0.535597 38.866 0.452379C38.9298 0.369257 39.0302 0.329943 39.1673 0.334152C39.4152 0.343335 39.6597 0.344291 39.9009 0.336926C40.142 0.329848 40.3865 0.333961 40.6347 0.349648C40.7848 0.360361 40.9096 0.414022 41.009 0.511015C41.1083 0.607911 41.1884 0.724799 41.2494 0.861775C41.4183 1.24008 41.5843 1.61504 41.7467 1.98685C41.9092 2.35865 42.0814 2.73026 42.2635 3.10168C42.4052 3.39505 42.558 3.68 42.7223 3.95644C42.8865 4.23297 43.0524 4.51754 43.2203 4.81043C43.3236 4.7562 43.4009 4.69584 43.452 4.62926C43.5031 4.56288 43.5395 4.49487 43.5612 4.42552C43.5829 4.35617 43.5932 4.28386 43.592 4.2082C43.5908 4.13282 43.5895 4.05888 43.5884 3.98657C43.5839 3.7043 43.5744 3.42365 43.5603 3.14454C43.5459 2.86561 43.5299 2.58516 43.5124 2.30288C43.5105 2.18466 43.5101 2.06643 43.5116 1.9482C43.5129 1.82988 43.5127 1.71165 43.5108 1.59343C43.5091 1.48849 43.5027 1.40145 43.4919 1.33258C43.4811 1.2638 43.4573 1.20852 43.4208 1.16633C43.3841 1.12425 43.3331 1.0923 43.2676 1.0702C43.202 1.04839 43.1136 1.0284 43.0026 1.01052C42.9306 0.998654 42.857 0.988228 42.782 0.979619C42.7068 0.97101 42.6331 0.951019 42.5609 0.919166C42.5081 0.887314 42.4504 0.843887 42.3876 0.788983C42.3247 0.734269 42.2931 0.68386 42.2923 0.637851C42.2978 0.578641 42.3279 0.520676 42.3824 0.463953C42.4368 0.407327 42.4897 0.35223 42.5412 0.29876C42.5475 0.29216 42.5556 0.288621 42.5655 0.288525C42.5753 0.288334 42.5865 0.284891 42.5995 0.278099C42.9961 0.212481 43.3949 0.166568 43.7955 0.140359C44.1961 0.114054 44.6125 0.156524 45.0446 0.267673C45.0707 0.273891 45.086 0.311387 45.0905 0.380257C45.0948 0.449223 45.0875 0.500301 45.0684 0.533397C45.024 0.606476 44.9791 0.656503 44.9339 0.683381C44.7791 0.791087 44.6571 0.909601 44.568 1.03921C44.4786 1.16873 44.4142 1.30771 44.3742 1.45616C44.3341 1.60462 44.3138 1.75938 44.3131 1.92027C44.3124 2.08135 44.32 2.24377 44.3357 2.40762C44.3755 2.86026 44.4089 3.31145 44.4357 3.76092C44.4626 4.21049 44.4796 4.66179 44.4868 5.11489C44.498 5.40386 44.4913 5.6913 44.4665 5.97749C44.4418 6.26359 44.4154 6.55476 44.3876 6.85071C44.3765 6.97583 44.3475 7.08965 44.3003 7.19219C44.2529 7.29483 44.1545 7.3571 44.0049 7.37929C43.8616 7.39479 43.7374 7.37059 43.6321 7.3065C43.5267 7.2427 43.4403 7.14551 43.373 7.01514C43.1377 6.58547 42.8948 6.16421 42.6435 5.75099C42.3924 5.33805 42.1816 4.90618 42.0115 4.45575C41.9365 4.26655 41.8522 4.09055 41.7584 3.92784C41.6644 3.76523 41.5625 3.60587 41.4524 3.44996C41.3423 3.29414 41.2289 3.14167 41.1125 2.99245C40.9959 2.84323 40.8841 2.68741 40.7773 2.5249C40.7374 2.88694 40.7156 3.24861 40.7116 3.60989C40.7076 3.97127 40.7101 4.33255 40.7193 4.69364C40.7283 5.05482 40.739 5.41601 40.7514 5.77701C40.7635 6.13819 40.7728 6.50263 40.7787 6.87032C40.8702 6.88209 40.9534 6.89213 41.0286 6.90074C41.1037 6.90935 41.177 6.90982 41.2487 6.90208C41.366 6.89366 41.4512 6.92188 41.5044 6.98654C41.5576 7.05139 41.5815 7.12657 41.5765 7.21199C41.5774 7.27111 41.5491 7.32745 41.4912 7.38092C41.4334 7.43448 41.3787 7.48795 41.3275 7.54123C41.3146 7.55453 41.2952 7.56304 41.2692 7.56687C41.2431 7.5705 41.2204 7.57251 41.2009 7.57289C40.9333 7.564 40.6691 7.55845 40.4083 7.55625C40.1474 7.55395 39.88 7.55166 39.6062 7.54965C39.4953 7.55147 39.4005 7.53176 39.3215 7.49025C39.2426 7.44883 39.1989 7.36906 39.1906 7.25102C39.1895 7.1854 39.2017 7.13423 39.2273 7.09769C39.2526 7.06124 39.2849 7.03437 39.3237 7.01724C39.3626 7.00031 39.408 6.9897 39.4602 6.98549C39.5122 6.98137 39.561 6.97563 39.6066 6.96827C39.6391 6.96129 39.6749 6.95239 39.7138 6.94196C39.7527 6.93144 39.8144 6.91901 39.899 6.90437Z" fill="#A3A5AD"/>
<path fill-rule="evenodd" clip-rule="evenodd" d="M50.0511 1.89049C49.8874 2.28515 49.7554 2.67991 49.6552 3.07467C49.5547 3.46963 49.4662 3.86362 49.3896 4.25676C49.3129 4.64999 49.2414 5.04264 49.1749 5.43463C49.1084 5.82671 49.0312 6.21468 48.9432 6.59873C48.8946 6.79654 48.929 6.95676 49.0464 7.07929C49.1637 7.20191 49.3264 7.27547 49.5347 7.30015C49.6265 7.30656 49.7211 7.30847 49.8185 7.30579C49.9155 7.30321 50.0104 7.28838 50.1028 7.26112C50.3569 7.19493 50.5992 7.11277 50.8302 7.01463C51.061 6.91658 51.273 6.79606 51.4668 6.65296C51.6604 6.50986 51.8318 6.33845 51.9808 6.13883C52.1297 5.9392 52.25 5.7015 52.3419 5.42564C52.4814 5.01911 52.5715 4.61718 52.6125 4.21955C52.6534 3.82211 52.5939 3.41816 52.4344 3.00762C52.3613 2.81727 52.2685 2.64117 52.1564 2.47933C52.0439 2.31758 51.8871 2.20825 51.6858 2.15143C51.4526 2.08792 51.2162 2.03196 50.9764 1.98375C50.7366 1.93564 50.489 1.88398 50.2342 1.82908C50.2085 1.82363 50.174 1.82975 50.1303 1.84706C50.0866 1.86457 50.0601 1.87901 50.0511 1.89049ZM47.225 7.72286C47.1798 7.55862 47.1634 7.41581 47.1759 7.29414C47.1883 7.17266 47.2676 7.09728 47.4138 7.0683C47.5945 7.03329 47.7395 6.97054 47.8488 6.87977C47.9579 6.78919 48.045 6.68521 48.1098 6.56813C48.1745 6.45115 48.2228 6.32555 48.2547 6.19135C48.2864 6.05715 48.3119 5.9284 48.3316 5.80491C48.3986 5.36271 48.5013 4.93313 48.6397 4.51618C48.778 4.09932 48.8991 3.67711 49.0031 3.24945C49.0367 3.12242 49.0652 2.99587 49.0886 2.86989C49.1119 2.74392 49.1435 2.61823 49.1836 2.49245C49.2454 2.26384 49.2524 2.06564 49.2047 1.89749C49.1569 1.72952 49.0033 1.59733 48.7437 1.50119C48.6761 1.47326 48.6152 1.42314 48.5606 1.35092C48.5058 1.27871 48.4533 1.20362 48.4033 1.12576C48.3868 1.10883 48.3784 1.06999 48.3779 1.00944C48.3773 0.948798 48.3862 0.907189 48.4044 0.884232C48.4813 0.773179 48.5636 0.706891 48.6516 0.685465C48.7394 0.664039 48.8521 0.674943 48.9897 0.717891C49.3422 0.847597 49.6938 0.949946 50.0446 1.02542C50.3951 1.10079 50.7598 1.1424 51.1382 1.14977C51.4756 1.16191 51.7835 1.2349 52.0618 1.36862C52.34 1.50253 52.5782 1.68466 52.7761 1.91518C52.9737 2.1458 53.1221 2.41277 53.2214 2.71608C53.3203 3.0195 53.3585 3.35007 53.3362 3.70801C53.3049 4.13787 53.2604 4.56812 53.2025 4.99894C53.1445 5.42976 53.0195 5.84614 52.8277 6.24817C52.6621 6.5887 52.4639 6.88694 52.233 7.14282C52.0021 7.39878 51.7119 7.59659 51.3623 7.73625C51.1077 7.83601 50.8503 7.91827 50.5899 7.98313C50.3295 8.04808 50.0676 8.11934 49.8046 8.1971C49.5916 8.2587 49.3973 8.24703 49.2219 8.16238C49.0464 8.07773 48.8847 7.97576 48.7367 7.85658C48.5987 7.75308 48.4659 7.68746 48.3384 7.66011C48.2107 7.63256 48.0672 7.64882 47.9081 7.70851C47.8269 7.74495 47.747 7.768 47.6684 7.77786C47.5895 7.7878 47.5052 7.79995 47.4157 7.8142C47.3888 7.81507 47.3528 7.80397 47.3077 7.78092C47.2626 7.75786 47.235 7.73854 47.225 7.72286Z" fill="#A3A5AD"/>
<path fill-rule="evenodd" clip-rule="evenodd" d="M62.9219 8.98073C63.0245 9.14813 63.1632 9.30758 63.3381 9.459C63.5127 9.61042 63.7018 9.74567 63.9049 9.86457C64.1079 9.98356 64.3135 10.077 64.5222 10.1448C64.7304 10.2127 64.9241 10.2457 65.1032 10.2441C65.1556 10.2467 65.2062 10.2402 65.2547 10.2246C65.3032 10.2091 65.3534 10.1908 65.4056 10.1698C65.5902 10.0859 65.7392 9.95764 65.8525 9.78518C65.9659 9.61252 66.0395 9.42619 66.0736 9.22599C66.1077 9.02579 66.0975 8.82826 66.0431 8.63351C65.9885 8.43867 65.885 8.27271 65.7323 8.13545C65.5739 7.99455 65.4004 7.86542 65.212 7.74796C65.0234 7.63059 64.8359 7.52355 64.6496 7.42704C64.3059 7.23707 64.0204 7.30279 63.7935 7.62428C63.6295 7.84619 63.4792 8.07098 63.3427 8.29873C63.2059 8.52638 63.0657 8.75375 62.9219 8.98073ZM61.7949 12.7808C61.9966 12.9262 62.2068 13.034 62.4252 13.1045C62.6435 13.1748 62.8774 13.2084 63.1271 13.2054C63.4 13.2018 63.6284 13.1345 63.8123 13.0032C63.9958 12.8721 64.1343 12.6843 64.2272 12.4402C64.2768 12.3008 64.3222 12.1624 64.363 12.0249C64.4037 11.8875 64.4244 11.7508 64.4255 11.615C64.4263 11.4793 64.4044 11.3463 64.3595 11.216C64.3143 11.0858 64.2364 10.9615 64.1256 10.8434C63.9264 10.6451 63.7196 10.4556 63.5055 10.2748C63.2912 10.0942 63.044 9.95651 62.7637 9.86181C62.6416 9.8224 62.5398 9.7938 62.4581 9.7763C62.3764 9.75879 62.3038 9.75707 62.241 9.77103C62.1778 9.785 62.1193 9.81944 62.0652 9.87424C62.0111 9.92905 61.9525 10.0062 61.8894 10.1059C61.7631 10.3052 61.644 10.5112 61.5325 10.7238C61.4207 10.9365 61.3101 11.1477 61.2003 11.3576C61.0813 11.5694 61.0333 11.7549 61.0564 11.9139C61.0793 12.0728 61.1729 12.2363 61.3373 12.4044C61.4056 12.4795 61.4801 12.5451 61.5609 12.6008C61.6415 12.6567 61.7195 12.7167 61.7949 12.7808ZM64.9004 10.7794C64.9317 10.9009 64.9613 11.0098 64.9895 11.1057C65.0175 11.2016 65.0442 11.2968 65.0698 11.391C65.2103 11.9257 65.1611 12.3909 64.9218 12.7865C64.6828 13.182 64.2995 13.4597 63.7729 13.6195C63.4095 13.7287 63.0641 13.7519 62.7365 13.6892C62.4087 13.6263 62.0914 13.5078 61.7841 13.3335C61.338 13.0855 60.901 12.8257 60.4736 12.5545C60.0459 12.2833 59.6144 12.0154 59.1788 11.7506C59.1017 11.701 59.0334 11.6533 58.9739 11.6071C58.9141 11.5609 58.8798 11.496 58.8711 11.4124C58.8739 11.3831 58.898 11.3361 58.9429 11.2715C58.9878 11.2068 59.0209 11.1697 59.0425 11.1602C59.152 11.1216 59.2603 11.1095 59.3673 11.1237C59.4743 11.1381 59.5822 11.1996 59.6911 11.3087C59.8514 11.4586 59.98 11.5238 60.0774 11.5047C60.1747 11.4854 60.2847 11.379 60.4076 11.1852C60.5533 10.9674 60.6928 10.7473 60.8261 10.5251C60.9592 10.3029 61.0986 10.083 61.2446 9.86498C61.4978 9.49011 61.7557 9.11659 62.019 8.74421C62.2821 8.37183 62.542 7.99544 62.7988 7.61512C62.8884 7.4857 62.9661 7.3449 63.0321 7.19233C63.0977 7.03986 63.1679 6.88634 63.2428 6.73176C63.1675 6.66768 63.0794 6.61105 62.9791 6.56198C62.8785 6.513 62.7866 6.45973 62.7033 6.40214C62.6198 6.34456 62.5551 6.27578 62.5094 6.19553C62.4634 6.11537 62.4591 6.00939 62.4964 5.87739C62.5029 5.84257 62.5359 5.79962 62.5956 5.74835C62.6551 5.69708 62.6995 5.67298 62.7284 5.67604C62.7899 5.67661 62.839 5.68484 62.8755 5.70043C63.1168 5.83234 63.3633 5.95592 63.6151 6.07118C63.867 6.18644 64.117 6.30467 64.3654 6.42529C64.6137 6.5462 64.8585 6.67246 65.0999 6.80436C65.3411 6.93627 65.5729 7.08941 65.7952 7.2635C66.0394 7.45184 66.2365 7.66247 66.3867 7.89538C66.5367 8.12839 66.6373 8.37241 66.6886 8.62742C66.7395 8.88233 66.7392 9.13926 66.6872 9.39819C66.6352 9.65693 66.5321 9.90821 66.3777 10.1517C66.2598 10.3255 66.126 10.4633 65.9761 10.5655C65.826 10.6678 65.6416 10.7148 65.4226 10.7063C65.3445 10.6951 65.2656 10.7008 65.1855 10.7233C65.1055 10.7458 65.0104 10.7646 64.9004 10.7794Z" fill="#A3A5AD"/>
<path fill-rule="evenodd" clip-rule="evenodd" d="M68.4399 15.3333L69.6361 16.5247C69.6453 16.5339 69.6695 16.5327 69.7086 16.5208C69.7477 16.509 69.7742 16.4913 69.7879 16.4681C70.0436 16.03 70.2947 15.6036 70.5414 15.1888C70.7879 14.7741 71.0438 14.3477 71.3087 13.9096C71.3222 13.8769 71.3186 13.8456 71.2978 13.8155C71.2768 13.7855 71.2525 13.7752 71.2251 13.7846C70.9625 13.865 70.7142 13.9594 70.4797 14.0676C70.2452 14.1757 70.0165 14.2919 69.7936 14.4163C69.5707 14.5406 69.3491 14.6732 69.1285 14.8138C68.908 14.9544 68.6804 15.0927 68.4462 15.2287C68.4323 15.2335 68.4257 15.2497 68.4258 15.2776C68.426 15.3054 68.4305 15.3239 68.4399 15.3333ZM69.4654 19.4733C69.3643 19.5388 69.2723 19.5789 69.1894 19.5933C69.1065 19.6076 69.0304 19.6011 68.9611 19.5737C68.8918 19.5462 68.8292 19.5048 68.7736 19.4493C68.718 19.394 68.6645 19.3315 68.6136 19.2621C68.5019 19.1143 68.3894 18.965 68.2756 18.8148C68.1617 18.6645 68.0398 18.5015 67.9098 18.3257C67.9414 18.2186 67.9837 18.1499 68.0366 18.1195C68.0893 18.0889 68.1481 18.0828 68.2128 18.101C68.2775 18.1193 68.3444 18.1537 68.4139 18.2044C68.4833 18.255 68.5574 18.3056 68.6361 18.3564C68.7503 18.1931 68.8647 18.0322 68.9792 17.8737C69.0935 17.7152 69.2193 17.5426 69.3566 17.356L67.75 15.7559C67.5293 15.8407 67.3544 15.916 67.2258 15.9818C67.097 16.0475 67.0088 16.1189 66.9608 16.1958C66.9128 16.2727 66.9005 16.3644 66.9243 16.4712C66.9479 16.5778 66.997 16.7146 67.0718 16.8814C67.0811 16.9 67.0789 16.9348 67.0654 16.986C67.0519 17.0371 67.0335 17.0697 67.0107 17.0837C66.9326 17.1354 66.8555 17.1578 66.7795 17.1513C66.7033 17.1448 66.6372 17.0859 66.5814 16.9748C66.4414 16.7062 66.2741 16.4796 66.0796 16.2949C65.8848 16.1102 65.649 15.9769 65.3719 15.8949C65.3488 15.8905 65.3279 15.8697 65.3094 15.8325C65.2906 15.7956 65.2812 15.7677 65.2812 15.7491C65.3128 15.6329 65.348 15.5454 65.387 15.4873C65.4258 15.4289 65.4856 15.4008 65.5663 15.4026C65.6469 15.4046 65.7577 15.4318 65.8987 15.4843C66.0396 15.5369 66.2301 15.6183 66.4706 15.7283C67.155 15.2833 67.8462 14.8311 68.5445 14.3719C69.2426 13.9128 69.9477 13.4558 70.6598 13.0013C70.8114 12.9029 70.9676 12.8138 71.1285 12.7339C71.2895 12.654 71.455 12.5927 71.6255 12.55C71.7956 12.4978 71.9489 12.4866 72.085 12.5159C72.2212 12.5454 72.331 12.6016 72.4145 12.6848C72.498 12.7679 72.5504 12.8778 72.5719 13.0148C72.5934 13.1517 72.5771 13.3038 72.5228 13.4713C72.4457 13.718 72.3421 13.9543 72.212 14.1802C72.0818 14.4062 71.9482 14.6264 71.8113 14.8409C71.0338 15.9694 70.2493 17.077 69.458 18.1636C69.3344 18.3361 69.2523 18.5038 69.2119 18.6666C69.1711 18.8293 69.2344 19.0031 69.4015 19.188C69.4246 19.2111 69.4376 19.2494 69.4402 19.3027C69.4427 19.3562 69.451 19.413 69.4654 19.4733Z" fill="#A3A5AD"/>
<path fill-rule="evenodd" clip-rule="evenodd" d="M77.7916 20.856C77.5836 20.8588 77.3955 20.8958 77.2274 20.9667C77.0592 21.0375 76.8932 21.1267 76.7292 21.234C76.3338 21.477 75.9359 21.71 75.5355 21.933C75.135 22.1559 74.7354 22.3861 74.3365 22.6236C74.1106 22.7557 73.8907 22.8938 73.6766 23.038C73.4622 23.1821 73.2422 23.3319 73.0161 23.4878C72.9943 23.5021 72.9695 23.536 72.9418 23.5893C72.9139 23.6428 72.9027 23.6796 72.9079 23.6996C72.9464 23.8075 73.0018 23.9084 73.0738 24.0023C73.1459 24.096 73.2131 24.191 73.2754 24.2875C73.3375 24.3837 73.3842 24.4865 73.4154 24.5952C73.4466 24.704 73.4389 24.8246 73.3921 24.9571C73.3828 24.9788 73.3523 25.0008 73.3005 25.0229C73.2487 25.0451 73.212 25.0514 73.1905 25.042C72.9777 24.9775 72.8 24.8706 72.6571 24.7214C72.5142 24.5721 72.3821 24.4156 72.2612 24.2521C72.0869 24.0058 71.9218 23.7556 71.7655 23.5015C71.6093 23.2473 71.4496 22.9934 71.2862 22.7401C71.208 22.6189 71.1782 22.5034 71.1967 22.3934C71.2151 22.2834 71.2718 22.1934 71.3668 22.1236C71.4178 22.0822 71.4956 22.0704 71.6005 22.0881C71.7051 22.1057 71.7905 22.1359 71.8571 22.1786C71.9576 22.2381 72.0516 22.3057 72.1396 22.3814C72.2272 22.4572 72.3202 22.5412 72.4186 22.6335C72.4382 22.6518 72.4805 22.6634 72.5458 22.6678C72.6108 22.6722 72.6569 22.6655 72.6843 22.6475C73.0667 22.4208 73.452 22.1922 73.8398 21.9619C74.2278 21.7315 74.6077 21.4887 74.9796 21.2336C75.3515 20.9784 75.7122 20.703 76.0621 20.4076C76.4119 20.1121 76.7444 19.7867 77.0598 19.4316C77.0743 19.4063 77.0844 19.3586 77.0899 19.2885C77.0952 19.2185 77.0891 19.1696 77.0712 19.1421C77.0108 19.0484 76.9553 18.9595 76.9049 18.8751C76.8543 18.7907 76.7986 18.7134 76.7381 18.6435C76.6453 18.5239 76.5555 18.43 76.4688 18.3615C76.3818 18.2931 76.2928 18.2514 76.2017 18.2368C76.1105 18.2219 76.0119 18.2317 75.9057 18.266C75.7996 18.3002 75.6808 18.3603 75.5496 18.4462C75.3909 18.5501 75.2395 18.6588 75.0954 18.7728C74.9511 18.8867 74.8025 18.9939 74.6495 19.094C74.5729 19.1442 74.5101 19.1794 74.4611 19.1997C74.4119 19.2201 74.3639 19.2239 74.3171 19.2117C74.2701 19.1992 74.2212 19.1686 74.1703 19.1197C74.1194 19.0708 74.0592 18.9987 73.9899 18.903C73.9792 18.8865 74.0036 18.8371 74.0634 18.7549C74.1231 18.6728 74.1804 18.6139 74.2351 18.5781C74.4392 18.4365 74.6411 18.3006 74.8408 18.1699C75.0403 18.0394 75.2447 17.9132 75.4543 17.7919C75.629 17.7011 75.7666 17.6345 75.8675 17.5919C75.9684 17.5494 76.0571 17.5363 76.1338 17.5528C76.2104 17.5691 76.2876 17.6166 76.3654 17.6949C76.4432 17.7733 76.5471 17.8833 76.6776 18.0252C77.188 18.5997 77.6619 19.1961 78.0995 19.8144C78.5372 20.4327 78.9528 21.0712 79.3465 21.7299C79.4902 21.9649 79.5383 22.1604 79.4914 22.3165C79.4443 22.4725 79.3089 22.6122 79.085 22.7352C78.8048 22.8793 78.5314 23.025 78.2648 23.1721C77.998 23.3191 77.7264 23.4676 77.4497 23.6174C77.3332 23.6779 77.2264 23.699 77.129 23.6805C77.0315 23.662 76.958 23.6024 76.9086 23.5016C76.8591 23.4007 76.8286 23.2934 76.8174 23.1795C76.806 23.0654 76.8598 22.9618 76.9786 22.8684C77.0441 22.8255 77.1144 22.7871 77.19 22.7534C77.2654 22.7198 77.3379 22.6842 77.407 22.6468C77.6109 22.5289 77.7723 22.4174 77.891 22.3124C78.0098 22.2071 78.0916 22.0929 78.1366 21.9696C78.1813 21.8464 78.192 21.706 78.1687 21.5492C78.145 21.3922 78.0876 21.2065 77.9961 20.9924C77.9873 20.9667 77.9568 20.9376 77.9049 20.9051C77.8529 20.8726 77.8151 20.8562 77.7916 20.856Z" fill="#A3A5AD"/>
<path fill-rule="evenodd" clip-rule="evenodd" d="M75.8177 29.34C75.7951 29.4113 75.7746 29.4888 75.7566 29.5725C75.7385 29.6562 75.7048 29.735 75.6555 29.8094C75.6238 29.856 75.5766 29.8979 75.5138 29.9353C75.451 29.9725 75.3917 29.991 75.3361 29.9906C75.2948 29.9918 75.2468 29.9745 75.1921 29.9389C75.1375 29.9031 75.1022 29.8637 75.0865 29.8205C74.9814 29.5515 74.8805 29.2844 74.7839 29.0195C74.6872 28.7543 74.5883 28.4831 74.487 28.2056C74.478 28.181 74.4783 28.1388 74.4878 28.0794C74.4974 28.0198 74.5121 27.9793 74.5322 27.958C74.5582 27.9343 74.5848 27.9123 74.6122 27.8916C74.6393 27.8711 74.6691 27.8478 74.7013 27.8219C74.7334 27.7959 74.7848 27.77 74.8552 27.7439C74.9255 27.7179 74.9756 27.7168 75.0051 27.741C75.0453 27.775 75.0901 27.8214 75.1393 27.8802C75.1884 27.939 75.2367 27.9998 75.2841 28.0627C75.3312 28.1257 75.377 28.1893 75.4214 28.2534C75.4655 28.3175 75.5026 28.3719 75.533 28.4167L80.8847 26.4356C80.8843 26.3587 80.8807 26.2865 80.8735 26.2193C80.8663 26.152 80.869 26.088 80.8817 26.0273C80.9058 25.9413 80.9311 25.8533 80.9573 25.7632C80.9833 25.673 81.0229 25.6146 81.0758 25.5882C81.1814 25.535 81.2622 25.5471 81.3182 25.6243C81.3741 25.7016 81.4189 25.7865 81.4527 25.879L81.9789 27.3216C81.9879 27.3462 81.9756 27.384 81.9421 27.435C81.9085 27.4857 81.8775 27.52 81.8492 27.5375C81.7903 27.5663 81.7347 27.5904 81.6828 27.6096C81.6308 27.6289 81.59 27.6265 81.5604 27.6024C81.4023 27.493 81.2468 27.4282 81.0935 27.408C80.9402 27.3876 80.7882 27.3898 80.6374 27.4141C80.4864 27.4385 80.3381 27.4792 80.1924 27.5368C80.0466 27.5942 79.8992 27.647 79.7501 27.6953C79.6315 27.7322 79.5158 27.7768 79.403 27.829C79.29 27.8814 79.1673 27.9355 79.035 27.9915L79.8784 30.3034C80.0555 30.3706 80.2294 30.4044 80.3996 30.4043C80.5698 30.4043 80.7368 30.3861 80.9008 30.3501C81.0647 30.3138 81.2283 30.2724 81.3921 30.2259C81.5556 30.1793 81.7207 30.1462 81.8872 30.1266C81.9201 30.1214 81.9472 30.0816 81.9687 30.0073C81.99 29.9327 82.0196 29.8711 82.0575 29.8222C82.0951 29.7731 82.1365 29.7246 82.1815 29.6766C82.2265 29.6284 82.2744 29.5983 82.3258 29.5864C82.3646 29.5788 82.4124 29.5911 82.4692 29.6225C82.5257 29.654 82.5651 29.6902 82.5869 29.7311C82.6862 29.9462 82.7845 30.1635 82.8819 30.3829C82.9792 30.6022 83.0624 30.8252 83.131 31.0517C83.1446 31.0886 83.1366 31.1336 83.1073 31.1864C83.078 31.2393 83.0386 31.3028 82.9893 31.377C82.9754 31.3961 82.9401 31.404 82.8832 31.4005C82.8263 31.397 82.7851 31.3791 82.7594 31.3467C82.6699 31.2539 82.5793 31.1719 82.4875 31.101C82.3955 31.0301 82.3405 30.9979 82.3222 31.0047C82.1324 31.075 81.9447 31.1461 81.7592 31.2183C81.5736 31.2905 81.3838 31.3555 81.1896 31.4135C80.5358 31.6205 79.8871 31.8273 79.2436 32.0341C78.6002 32.2409 77.9503 32.4447 77.2943 32.6456C77.1734 32.6762 77.0856 32.721 77.0306 32.7799C76.9756 32.8386 76.9543 32.9323 76.9665 33.0608C76.9715 33.0939 76.9755 33.1239 76.9785 33.1508C76.9813 33.1777 76.9822 33.2088 76.9813 33.2443C76.978 33.2733 76.9549 33.31 76.9119 33.3539C76.8688 33.3977 76.8338 33.4212 76.8072 33.4241C76.7169 33.4434 76.6462 33.4539 76.5947 33.4556C76.5432 33.4571 76.5032 33.4474 76.4747 33.4265C76.4462 33.4055 76.4224 33.3688 76.4033 33.3165C76.3842 33.264 76.363 33.1966 76.34 33.1143C76.2802 32.9123 76.211 32.7176 76.1321 32.53C76.0531 32.3422 75.988 32.1493 75.9367 31.9515C75.918 31.8814 75.9177 31.7993 75.9354 31.7053C75.9533 31.6112 75.984 31.5386 76.0279 31.4874C76.1116 31.3934 76.1919 31.3706 76.2687 31.4192C76.3454 31.4678 76.4118 31.5306 76.4678 31.6079C76.5192 31.673 76.5672 31.7425 76.6117 31.817C76.6562 31.8914 76.7098 31.9766 76.7727 32.0724C76.8461 32.0452 76.9531 32.0056 77.0939 31.9534C77.2347 31.9014 77.3874 31.8396 77.5525 31.7679C77.7173 31.6965 77.8868 31.6232 78.0609 31.5482C78.2351 31.4733 78.3927 31.4008 78.534 31.3311C78.6753 31.2613 78.7889 31.2017 78.8751 31.1524C78.9613 31.103 79.001 31.069 78.9943 31.0505C78.8613 30.6099 78.7296 30.1776 78.5993 29.7535C78.4689 29.3295 78.3372 28.897 78.2044 28.4564L75.8177 29.34Z" fill="#A3A5AD"/>
<path fill-rule="evenodd" clip-rule="evenodd" d="M81.7804 42.2455C81.7841 42.4031 81.7893 42.5606 81.7962 42.7182C81.8031 42.8756 81.8019 43.0334 81.7926 43.1913C81.788 43.2767 81.7784 43.3591 81.7641 43.4383C81.7496 43.5175 81.7236 43.5903 81.686 43.6569C81.6546 43.7102 81.6051 43.7525 81.5373 43.7837C81.4696 43.8148 81.4096 43.831 81.3575 43.8322C81.2792 43.8275 81.2051 43.8014 81.1356 43.7537C81.066 43.7061 81.0235 43.6331 81.0082 43.535C80.9839 43.3318 80.9548 43.1304 80.9208 42.931C80.8868 42.7313 80.8593 42.5316 80.8384 42.3317C80.8173 42.1317 80.8061 41.93 80.8048 41.7264C80.8033 41.5228 80.8198 41.3187 80.8542 41.1143C80.8656 41.0483 80.8854 40.9854 80.9133 40.9256C80.9413 40.8659 80.9743 40.8091 81.0121 40.7558C81.0627 40.6888 81.1233 40.6365 81.1944 40.5988C81.2651 40.5609 81.3466 40.5573 81.4386 40.588C81.6422 40.6554 81.7498 40.7876 81.7609 40.9845C81.7642 41.1289 81.7676 41.2717 81.7708 41.4129C81.7741 41.5541 81.7741 41.697 81.771 41.8416C81.7727 41.9138 81.7726 41.9811 81.7708 42.0436C81.7689 42.1061 81.7656 42.1734 81.7608 42.2459L81.7804 42.2455Z" fill="#A3A5AD"/>
</svg>
