<svg width="129" height="38" viewBox="0 0 129 38" fill="none" xmlns="http://www.w3.org/2000/svg">
<path fill-rule="evenodd" clip-rule="evenodd" d="M48.5194 3.6043C48.2278 3.95272 48.082 4.54173 48.082 5.37139C48.082 6.20105 48.2278 6.79017 48.5194 7.13847C48.8109 7.48688 49.236 7.661 49.7946 7.661C50.3593 7.661 50.7875 7.48824 51.0791 7.14242C51.3706 6.79678 51.5165 6.20641 51.5165 5.37139C51.5165 4.53648 51.3706 3.94611 51.0791 3.60035C50.7875 3.25465 50.3593 3.08177 49.7946 3.08177C49.236 3.08177 48.8109 3.25607 48.5194 3.6043ZM47.5472 12.1549C47.3307 12.5003 47.2227 12.8517 47.2227 13.2093C47.2227 13.6093 47.3529 13.9425 47.6138 14.2092C47.8746 14.4758 48.2095 14.6728 48.6185 14.8001C49.0275 14.9273 49.4483 14.991 49.881 14.991C50.4203 14.991 50.9479 14.8924 51.4636 14.6955C51.9793 14.4986 52.403 14.2016 52.735 13.8047C53.0669 13.4077 53.2329 12.9275 53.2329 12.3639C53.2329 12.1215 53.1929 11.926 53.1129 11.7776C53.0329 11.6292 52.892 11.5171 52.6905 11.4413C52.489 11.3656 52.2074 11.3276 51.8459 11.3276H48.4585C48.0673 11.5337 47.7635 11.8094 47.5472 12.1549ZM53.5142 10.1193C53.9007 10.3779 54.0939 10.7946 54.0939 11.3692C54.0939 11.9323 53.9094 12.4926 53.5404 13.0501C53.1712 13.6074 52.6105 14.07 51.858 14.4378C51.1054 14.8055 50.1858 14.9895 49.0992 14.9895C48.4772 14.9895 47.8919 14.9276 47.3427 14.8042C46.7935 14.6805 46.3504 14.4967 46.0134 14.2525C45.6763 14.0082 45.5078 13.7137 45.5078 13.369C45.5078 12.9666 45.7214 12.5773 46.1486 12.201C46.5756 11.8245 47.1088 11.4956 47.7481 11.214H47.6871C47.2338 11.214 46.8226 11.1192 46.4536 10.9296C46.0846 10.74 45.9001 10.3865 45.9001 9.86936C45.9001 9.46716 46.0686 9.08497 46.4056 8.72292C46.7426 8.36087 47.318 7.99889 48.1316 7.63684C47.6086 7.43577 47.2018 7.12547 46.9112 6.70593C46.6206 6.28653 46.4754 5.75776 46.4754 5.11989C46.4754 4.18898 46.7761 3.49222 47.3776 3.02961C47.9791 2.56712 48.7766 2.33572 49.7703 2.33572C50.2352 2.33572 50.6565 2.3874 51.0343 2.4909C51.1505 1.83576 51.3597 1.31292 51.6619 0.922061C51.9815 0.531333 52.3883 0.335938 52.8823 0.335938C53.1787 0.335938 53.4096 0.422164 53.5753 0.594553C53.7409 0.766943 53.8236 0.988213 53.8236 1.25824C53.8236 1.49958 53.7422 1.70084 53.5796 1.86163C53.4168 2.02255 53.2135 2.10298 52.9695 2.10298C52.6672 2.10298 52.4493 2.01248 52.3157 1.83142C52.1819 1.65049 52.0832 1.37034 52.0193 0.991017C51.845 1.1462 51.6851 1.43362 51.5399 1.85303C51.4527 2.11158 51.3917 2.35592 51.3568 2.58567C51.8972 2.78113 52.3185 3.0899 52.6207 3.5123C52.9229 3.93464 53.0741 4.47061 53.0741 5.11989C53.0741 5.74629 52.9316 6.26779 52.6469 6.68439C52.3621 7.10106 51.9727 7.40989 51.4788 7.61096C50.9848 7.81222 50.4154 7.91266 49.7703 7.91266C49.2879 7.91266 48.8492 7.85811 48.4541 7.74887C47.9717 8.00182 47.6013 8.23596 47.3427 8.45137C47.0841 8.6669 46.9548 8.89831 46.9548 9.14532C46.9548 9.34072 47.0216 9.48723 47.1553 9.58493C47.2889 9.68269 47.5069 9.73145 47.8091 9.73145H52.0018C52.6236 9.73145 53.1277 9.86075 53.5142 10.1193Z" fill="#A3A5AD"/>
<path fill-rule="evenodd" clip-rule="evenodd" d="M60.5231 8.0834C60.3202 8.21506 59.8971 8.45831 59.2537 8.81346C58.9116 8.99763 58.6219 9.18676 58.3843 9.38071C58.1465 9.5748 57.9437 9.83622 57.7756 10.165C57.6075 10.4939 57.5234 10.8984 57.5234 11.3785C57.5234 11.9639 57.6539 12.4062 57.9147 12.7053C58.1755 13.0047 58.5204 13.1543 58.9494 13.1543C59.7376 13.1543 60.4071 12.6446 60.9579 11.6251V7.65918C60.8709 7.81053 60.7259 7.95189 60.5231 8.0834ZM60.1378 3.85707C59.8659 3.5907 59.4801 3.45755 58.9803 3.45755C58.1839 3.45755 57.6264 3.68114 57.308 4.12798C57.5331 4.18923 57.7212 4.32244 57.8723 4.52743C58.0233 4.73262 58.0988 4.98201 58.0988 5.27588C58.0988 5.59432 58.0095 5.84385 57.831 6.02439C57.6526 6.20507 57.4122 6.2953 57.1102 6.2953C56.8246 6.2953 56.6007 6.18823 56.4388 5.97387C56.2767 5.75965 56.1958 5.47794 56.1958 5.12894C56.1958 4.63926 56.4594 4.19228 56.9867 3.78815C57.2612 3.58615 57.6004 3.41783 58.0041 3.28305C58.4077 3.14848 58.8568 3.08105 59.3511 3.08105C59.8124 3.08105 60.2188 3.14393 60.5703 3.26934C60.9217 3.39488 61.1964 3.56775 61.3942 3.78815C61.6522 4.08202 61.8294 4.42341 61.9255 4.81213C62.0215 5.20098 62.0697 5.73826 62.0697 6.42384V11.6493C62.0697 11.9615 62.1095 12.1881 62.1891 12.3288C62.2687 12.4698 62.4019 12.5401 62.5887 12.5401C62.7259 12.5401 62.8523 12.5065 62.9676 12.4391C63.083 12.3717 63.2093 12.2738 63.3466 12.1452L63.536 12.4666C63.3384 12.6319 63.1736 12.7605 63.0418 12.8523C62.91 12.9441 62.7589 13.0177 62.5887 13.0727C62.4184 13.1279 62.2207 13.1554 61.9955 13.1554C61.4518 13.1554 61.0741 13.0039 60.8628 12.7008C60.6513 12.3978 60.5456 11.9922 60.5456 11.484C60.2161 12.0901 59.8206 12.5203 59.3593 12.7743C58.8979 13.0283 58.4283 13.1554 57.9506 13.1554C57.5605 13.1554 57.2036 13.0803 56.8796 12.9304C56.5554 12.7804 56.2959 12.5479 56.101 12.2325C55.906 11.9172 55.8086 11.5239 55.8086 11.0523C55.8086 10.5748 55.9129 10.1677 56.1216 9.83092C56.3303 9.49428 56.6242 9.19885 57.0032 8.94477C57.3821 8.69077 57.8901 8.41367 58.5272 8.11363C58.637 8.06467 58.9062 7.94225 59.3345 7.7463C59.763 7.55041 60.0719 7.35452 60.2614 7.15857C60.4508 6.96268 60.5456 6.74839 60.5456 6.5157V5.34941C60.5456 4.62086 60.4097 4.12337 60.1378 3.85707Z" fill="#A3A5AD"/>
<path fill-rule="evenodd" clip-rule="evenodd" d="M68.6424 4.36574C68.8842 3.99366 69.1717 3.68664 69.5052 3.44482C69.8386 3.20294 70.1915 3.08203 70.5639 3.08203C70.864 3.08203 71.1321 3.14874 71.3683 3.28203C71.6045 3.41546 71.7893 3.59682 71.9227 3.82619C72.0561 4.05569 72.1228 4.30686 72.1228 4.5797C72.1228 4.91457 72.0338 5.19827 71.856 5.43087C71.678 5.6634 71.4419 5.7797 71.1474 5.7797C70.8973 5.7797 70.6833 5.69132 70.5055 5.51457C70.3276 5.33782 70.2387 5.09758 70.2387 4.79366C70.2387 4.37825 70.4333 4.03403 70.8223 3.76106C70.7444 3.63712 70.625 3.57502 70.4639 3.57502C70.0137 3.57502 69.608 3.76732 69.2468 4.15177C68.8855 4.53637 68.6021 5.01079 68.3965 5.57502C68.1909 6.1394 68.0881 6.66657 68.0881 7.15639V11.1935C68.0881 11.7828 68.2381 12.1905 68.5382 12.4168C68.8383 12.6433 69.2912 12.7563 69.897 12.7563V13.1563C68.4966 13.1068 67.6213 13.0819 67.2711 13.0819C66.971 13.0819 66.2986 13.1068 65.2539 13.1563V12.7563C65.5761 12.7563 65.8304 12.7161 66.0166 12.6354C66.2027 12.5549 66.3388 12.4154 66.425 12.2168C66.5111 12.0184 66.5543 11.7424 66.5543 11.3889V5.42619C66.5543 4.83713 66.4584 4.4092 66.2666 4.14249C66.075 3.87591 65.7373 3.74249 65.2539 3.74249V3.34249C65.6094 3.37969 65.9624 3.39833 66.3125 3.39833C67.0349 3.39833 67.6267 3.31154 68.0881 3.13781V5.51918C68.2158 5.12241 68.4007 4.73781 68.6424 4.36574Z" fill="#A3A5AD"/>
<path fill-rule="evenodd" clip-rule="evenodd" d="M81.9721 3.13549C82.4827 3.13549 82.9204 3.11765 83.2853 3.08203V3.44714C83.0551 3.47689 82.8503 3.5867 82.6708 3.77656C82.4911 3.96662 82.3228 4.28413 82.1657 4.72928L79.3374 12.5649L78.7481 14.1498C78.5293 14.7493 78.2823 15.1767 78.0074 15.432C77.6818 15.7465 77.233 15.9039 76.6605 15.9039C76.3182 15.9039 76.0376 15.8073 75.8188 15.6145C75.5999 15.4215 75.4904 15.1529 75.4904 14.8087C75.4904 14.5178 75.5718 14.2847 75.7346 14.1098C75.8973 13.9346 76.1218 13.847 76.408 13.847C76.6605 13.847 76.8696 13.9212 77.0351 14.0697C77.2006 14.218 77.2835 14.4287 77.2835 14.7019C77.2835 15.0639 77.129 15.3369 76.8205 15.521C76.8428 15.5329 76.8765 15.5388 76.9215 15.5388C77.5556 15.5388 78.0438 15.0639 78.3862 14.1142L79.0007 12.4491L75.8693 4.48893C75.6728 4.06747 75.4779 3.79144 75.2842 3.66083C75.0907 3.53035 74.8956 3.46491 74.6992 3.46491V3.08203C75.2379 3.15925 75.8019 3.19783 76.3912 3.19783C76.885 3.19783 77.6314 3.15925 78.6303 3.08203V3.46491C78.3496 3.46491 78.1307 3.47538 77.9737 3.49612C77.8165 3.51698 77.6861 3.57334 77.5823 3.66524C77.4784 3.7574 77.4265 3.90125 77.4265 4.0971C77.4265 4.31678 77.4994 4.61664 77.6454 4.99643L79.7246 10.4457L81.627 5.16562C81.7503 4.80947 81.8122 4.53047 81.8122 4.32863C81.8122 4.04371 81.7097 3.83304 81.5049 3.69644C81.3 3.55997 80.9731 3.47689 80.5242 3.44714V3.08203C81.1303 3.11765 81.6129 3.13549 81.9721 3.13549Z" fill="#A3A5AD"/>
<path fill-rule="evenodd" clip-rule="evenodd" d="M1.99822 35.5076C2.74473 36.7091 3.89456 37.3097 5.44727 37.3097C6.04107 37.3097 6.59477 37.1743 7.10823 36.903C7.6215 36.632 8.03733 36.2089 8.35551 35.6338C8.67369 35.0588 8.83279 34.3414 8.83279 33.4811C8.83279 32.7427 8.66928 32.0811 8.34275 31.4967C8.01605 30.9125 7.57281 30.3771 7.0128 29.8909C6.45279 29.4049 5.70602 28.8531 4.77276 28.2361C3.73743 27.5537 2.90603 26.9412 2.27819 26.3989C1.65016 25.8568 1.13474 25.2092 0.731859 24.4566C0.328733 23.7041 0.127261 22.8181 0.127261 21.7989C0.127261 20.7145 0.350014 19.7982 0.795459 19.0502C1.2409 18.3023 1.83471 17.7437 2.5773 17.3743C3.31965 17.005 4.13639 16.8203 5.02734 16.8203C5.56184 16.8203 6.022 16.8694 6.4082 16.9676C6.79422 17.0657 7.11461 17.1873 7.36913 17.3322C7.62371 17.4773 7.90369 17.6618 8.20918 17.8861C8.5993 18.1575 8.89645 18.2929 9.10007 18.2929C9.26112 18.2929 9.38421 18.1925 9.46909 17.9913C9.55385 17.7904 9.62187 17.4702 9.67277 17.0307H10.271C10.186 18.1526 10.1437 20.1068 10.1437 22.8928H9.54551C9.47749 21.9111 9.28461 21.0044 8.96643 20.1721C8.64824 19.3401 8.18145 18.6645 7.56643 18.1456C6.9511 17.6267 6.18545 17.3672 5.2691 17.3672C4.65819 17.3672 4.11094 17.5075 3.62728 17.788C3.14369 18.0685 2.76601 18.4612 2.49456 18.966C2.22293 19.4709 2.08727 20.0507 2.08727 20.705C2.08727 21.7428 2.37147 22.5797 2.94001 23.2154C3.50836 23.8513 4.17239 24.4239 4.93185 24.9333C5.69112 25.443 6.20237 25.7866 6.46548 25.9641C7.56005 26.7214 8.42549 27.3784 9.06186 27.9345C9.69822 28.4909 10.2073 29.136 10.5891 29.8699C10.971 30.6039 11.1619 31.457 11.1619 32.4293C11.1619 33.6074 10.9156 34.6054 10.4237 35.4235C9.93153 36.2417 9.2675 36.8563 8.43187 37.2677C7.59599 37.679 6.66058 37.8848 5.6255 37.8848C4.79385 37.8848 4.11094 37.7888 3.57638 37.5972C3.04188 37.4057 2.53694 37.1463 2.06182 36.8189C1.67145 36.5478 1.37454 36.4122 1.17093 36.4122C1.00963 36.4122 0.886535 36.5128 0.801838 36.7138C0.716895 36.9149 0.649124 37.2351 0.59822 37.6744H0C0.0678318 36.6274 0.101809 34.332 0.101809 30.7884H0.700029C0.818765 32.7332 1.25145 34.3064 1.99822 35.5076Z" fill="#A3A5AD"/>
<path fill-rule="evenodd" clip-rule="evenodd" d="M19.9741 19.02C19.0747 19.877 18.3822 21.0714 17.8965 22.6029C17.4108 24.1344 17.168 25.8885 17.168 27.8649C17.168 29.8601 17.4378 31.6164 17.9774 33.1339C18.5171 34.6513 19.2523 35.8224 20.1832 36.6465C21.1141 37.4709 22.1462 37.883 23.2794 37.883C24.4576 37.883 25.494 37.4545 26.3891 36.5973C27.2839 35.7403 27.9743 34.546 28.4599 33.0144C28.9456 31.4829 29.1885 29.729 29.1885 27.7525C29.1885 25.7572 28.9187 24.0009 28.379 22.4835C27.8394 20.966 27.1062 19.7952 26.18 18.9708C25.2535 18.1466 24.2238 17.7344 23.0906 17.7344C21.9122 17.7344 20.8734 18.1629 19.9741 19.02ZM27.704 18.0456C28.994 18.8652 29.9936 20.055 30.7025 21.6146C31.4113 23.1745 31.7659 25.0299 31.7659 27.181C31.7659 29.2857 31.4004 31.148 30.6696 32.7684C29.9384 34.3888 28.9213 35.6459 27.6181 36.54C26.3148 37.4339 24.831 37.8809 23.1667 37.8809C21.4494 37.8809 19.9456 37.4712 18.6556 36.6517C17.3654 35.8323 16.3659 34.6426 15.6571 33.0827C14.9481 31.523 14.5938 29.6675 14.5938 27.5162C14.5938 25.4118 14.9591 23.5492 15.6902 21.9289C16.421 20.3085 17.4381 19.0514 18.7415 18.1574C20.0447 17.2634 21.5287 16.8164 23.1931 16.8164C24.9103 16.8164 26.4138 17.2263 27.704 18.0456Z" fill="#A3A5AD"/>
<path fill-rule="evenodd" clip-rule="evenodd" d="M38.8412 18.5264C38.5524 18.647 38.3544 18.8693 38.2467 19.1934C38.1389 19.5178 38.0852 20.0365 38.0852 20.7497V34.8676C38.0852 35.5811 38.1389 36.0974 38.2467 36.417C38.3544 36.7366 38.5524 36.952 38.8412 37.0632C39.1298 37.1744 39.5927 37.2299 40.2305 37.2299H42.169C43.2718 37.2299 44.1096 37.0632 44.6826 36.7297C45.2555 36.3962 45.6691 35.8636 45.9233 35.1317C46.1773 34.4 46.3734 33.3252 46.5113 31.9079H47.1187C47.067 32.5009 47.0412 33.279 47.0412 34.2424C47.0412 35.3171 47.1013 36.5305 47.2221 37.883C46.0244 37.8274 44.0041 37.7996 41.161 37.7996C37.775 37.7996 35.2162 37.8274 33.4844 37.883V37.3132C34.1219 37.2855 34.5849 37.2114 34.8737 37.0909C35.1622 36.9707 35.3603 36.7483 35.4681 36.4239C35.5757 36.0998 35.6297 35.5811 35.6297 34.8676V20.7497C35.6297 20.0365 35.5757 19.5178 35.4681 19.1934C35.3603 18.8693 35.1622 18.647 34.8737 18.5264C34.5849 18.4062 34.1219 18.3319 33.4844 18.3041V17.7344C34.2166 17.79 35.3454 17.8178 36.8704 17.8178C38.3004 17.8178 39.4205 17.79 40.2305 17.7344V18.3041C39.5927 18.3319 39.1298 18.4062 38.8412 18.5264Z" fill="#A3A5AD"/>
<path fill-rule="evenodd" clip-rule="evenodd" d="M54.3257 19.02C53.4262 19.877 52.7337 21.0714 52.248 22.6029C51.7623 24.1344 51.5195 25.8885 51.5195 27.8649C51.5195 29.8601 51.7893 31.6164 52.329 33.1339C52.8686 34.6513 53.6039 35.8224 54.5348 36.6465C55.4657 37.4709 56.4977 37.883 57.631 37.883C58.8091 37.883 59.8456 37.4545 60.7407 36.5973C61.6355 35.7403 62.3259 34.546 62.8115 33.0144C63.2972 31.4829 63.54 29.729 63.54 27.7525C63.54 25.7572 63.2702 24.0009 62.7306 22.4835C62.1909 20.966 61.4578 19.7952 60.5315 18.9708C59.605 18.1466 58.5753 17.7344 57.4421 17.7344C56.2638 17.7344 55.2249 18.1629 54.3257 19.02ZM62.0517 18.0456C63.3417 18.8652 64.3413 20.055 65.0502 21.6146C65.759 23.1745 66.1135 25.0299 66.1135 27.181C66.1135 29.2857 65.748 31.148 65.0172 32.7684C64.2861 34.3888 63.269 35.6459 61.9658 36.54C60.6624 37.4339 59.1787 37.8809 57.5143 37.8809C55.7971 37.8809 54.2933 37.4712 53.0033 36.6517C51.7131 35.8323 50.7135 34.6426 50.0048 33.0827C49.2958 31.523 48.9414 29.6675 48.9414 27.5162C48.9414 25.4118 49.3067 23.5492 50.0378 21.9289C50.7686 20.3085 51.7858 19.0514 53.0891 18.1574C54.3924 17.2634 55.8763 16.8164 57.5407 16.8164C59.2579 16.8164 60.7615 17.2263 62.0517 18.0456Z" fill="#A3A5AD"/>
<path fill-rule="evenodd" clip-rule="evenodd" d="M88.7212 18.521C88.4236 18.6407 88.2196 18.8615 88.1086 19.1834C87.9976 19.5056 87.9422 20.0208 87.9422 20.7291V34.7502C87.9422 35.4589 87.9976 35.974 88.1086 36.2959C88.2196 36.6181 88.4236 36.8389 88.7212 36.9584C89.0185 37.078 89.4955 37.1516 90.1527 37.1791V37.745C89.3004 37.6898 88.1463 37.6622 86.6905 37.6622C85.128 37.6622 83.9651 37.6898 83.2017 37.745V37.1791C83.8586 37.1516 84.3336 37.078 84.6265 36.9584C84.9195 36.8389 85.1213 36.6181 85.2324 36.2959C85.3433 35.974 85.3989 35.4589 85.3989 34.7502V19.6251L78.8342 37.883H78.3947L71.5237 19.5422V34.4605C71.5237 35.1874 71.5858 35.7349 71.7102 36.1027C71.8344 36.4708 72.0674 36.7354 72.4092 36.8962C72.7509 37.0573 73.2814 37.1516 74.0005 37.1791V37.745C73.3524 37.6898 72.4246 37.6622 71.2175 37.6622C70.1343 37.6622 69.2911 37.6898 68.6875 37.745V37.1791C69.3177 37.1516 69.786 37.0573 70.0924 36.8962C70.3986 36.7354 70.6093 36.4708 70.7248 36.1027C70.8401 35.7349 70.8979 35.1874 70.8979 34.4605V20.7291C70.8979 20.0208 70.8423 19.5056 70.7315 19.1834C70.6203 18.8615 70.4163 18.6407 70.1189 18.521C69.8214 18.4016 69.3443 18.3278 68.6875 18.3002V17.7344C69.2821 17.7896 70.1256 17.8172 71.2175 17.8172C72.1762 17.8172 72.9529 17.7896 73.5477 17.7344L79.5399 34.1293L85.3989 17.8172H86.6905C88.1463 17.8172 89.3004 17.7896 90.1527 17.7344V18.3002C89.4955 18.3278 89.0185 18.4016 88.7212 18.521Z" fill="#A3A5AD"/>
<path fill-rule="evenodd" clip-rule="evenodd" d="M98.1108 19.02C97.2113 19.877 96.5189 21.0714 96.0332 22.6029C95.5475 24.1344 95.3047 25.8885 95.3047 27.8649C95.3047 29.8601 95.5745 31.6164 96.1141 33.1339C96.6538 34.6513 97.3891 35.8224 98.32 36.6465C99.2508 37.4709 100.283 37.883 101.416 37.883C102.594 37.883 103.631 37.4545 104.526 36.5973C105.421 35.7403 106.111 34.546 106.597 33.0144C107.082 31.4829 107.325 29.729 107.325 27.7525C107.325 25.7572 107.055 24.0009 106.516 22.4835C105.976 20.966 105.243 19.7952 104.317 18.9708C103.39 18.1466 102.36 17.7344 101.227 17.7344C100.049 17.7344 99.0101 18.1629 98.1108 19.02ZM105.841 18.0456C107.131 18.8652 108.13 20.055 108.839 21.6146C109.548 23.1745 109.903 25.0299 109.903 27.181C109.903 29.2857 109.537 31.148 108.806 32.7684C108.075 34.3888 107.058 35.6459 105.755 36.54C104.452 37.4339 102.968 37.8809 101.303 37.8809C99.5861 37.8809 98.0823 37.4712 96.7923 36.6517C95.5022 35.8323 94.5026 34.6426 93.7938 33.0827C93.0848 31.523 92.7305 29.6675 92.7305 27.5162C92.7305 25.4118 93.0958 23.5492 93.8269 21.9289C94.5577 20.3085 95.5748 19.0514 96.8782 18.1574C98.1814 17.2634 99.6654 16.8164 101.33 16.8164C103.047 16.8164 104.551 17.2263 105.841 18.0456Z" fill="#A3A5AD"/>
<path fill-rule="evenodd" clip-rule="evenodd" d="M127.381 18.5831C127.073 18.7442 126.862 19.0087 126.746 19.3766C126.63 19.7447 126.573 20.2922 126.573 21.0189V37.883H125.945L114.461 19.5422V34.4605C114.461 35.1874 114.524 35.7349 114.648 36.1027C114.773 36.4708 115.007 36.7354 115.349 36.8962C115.692 37.0573 116.224 37.1516 116.945 37.1791V37.745C116.295 37.6898 115.365 37.6622 114.154 37.6622C113.068 37.6622 112.222 37.6898 111.617 37.745V37.1791C112.249 37.1516 112.719 37.0573 113.026 36.8962C113.333 36.7354 113.544 36.4708 113.66 36.1027C113.776 35.7349 113.834 35.1874 113.834 34.4605V20.7291C113.834 20.0208 113.778 19.5056 113.667 19.1834C113.555 18.8615 113.351 18.6407 113.053 18.521C112.754 18.4016 112.276 18.3278 111.617 18.3002V17.7344C112.213 17.7896 113.059 17.8172 114.154 17.8172C114.973 17.8172 115.685 17.7896 116.291 17.7344L125.945 33.108V21.0189C125.945 20.2922 125.885 19.7447 125.765 19.3766C125.645 19.0087 125.411 18.7442 125.064 18.5831C124.717 18.4223 124.182 18.3278 123.461 18.3002V17.7344C124.111 17.7896 125.041 17.8172 126.252 17.8172C127.338 17.8172 128.184 17.7896 128.789 17.7344V18.3002C128.157 18.3278 127.688 18.4223 127.381 18.5831Z" fill="#A3A5AD"/>
</svg>
