<svg xmlns="http://www.w3.org/2000/svg" width="317" height="220" viewBox="0 0 317 220">
  <defs>
    <style>
      .cls-1 {
        fill: #94dee8;
        fill-rule: evenodd;
        opacity: 0.25;
      }
    </style>
  </defs>
  <path class="cls-1" d="M316.455,62.516c0-2.111-.864-5.264-5.157-8.272-5.388-3.731-15.213-6.421-27.113-7.636a25.448,25.448,0,1,0-29.533-.029c-3.659.376-7.117,0.9-10.315,1.533A87.158,87.158,0,0,0,231,46.29a25.442,25.442,0,1,0-30.426,0c-8.644.607-14.954,1.823-19.247,3.731a62.111,62.111,0,0,0-12.476-3.239,25.442,25.442,0,1,0-29.043,0,55.555,55.555,0,0,0-19.766,6.739,75.127,75.127,0,0,0-26.824-7.26,25.442,25.442,0,1,0-30.484,0C48.152,47.592,27.81,52.8,13.807,72.523,7.151,81.924,2.57,96.067.7,105.351a14.084,14.084,0,0,0,7.837,15.561,53.6,53.6,0,0,0,9.22,3.152c-0.346,3.616-.98,9.979-1.988,18.858-3.285,28.894,11.9,41.071,22.992,49.979C44,197.1,48.526,200.74,49.823,204.962c2.68,8.677,7.405,13.1,14.09,13.1,6.915,0,11.9-3.355,14.06-9.2,2.161,5.842,7.145,9.2,14.09,9.2,6.656,0,11.381-4.425,14.061-13.1,1.3-4.222,5.82-7.867,11.064-12.061,1.181-.954,2.42-1.938,3.688-3.008,2.651,5.843,4.754,10.441,5.128,14.259,1.038,10.268,8.327,13.912,14.234,13.912,6.944,0,11.928-3.355,14.09-9.2,2.16,5.842,7.145,9.2,14.06,9.2,5.935,0,13.225-3.644,14.262-13.912a26.276,26.276,0,0,1,2.046-7.143c0.634,3.933,1.3,7.317,1.844,10.036a15.028,15.028,0,0,0,29.245.781,15.014,15.014,0,0,0,28.035,2.718,15.2,15.2,0,0,0,13.8,8.793h0.4a15.221,15.221,0,0,0,11.525-5.293,15.225,15.225,0,0,0,11.266,4.975h0.4a15.326,15.326,0,0,0,15.27-15.329V127.159a13.3,13.3,0,0,0,19.967-11.569v-51.6c0-.26-0.028-0.52-0.057-0.81A4.061,4.061,0,0,0,316.455,62.516Zm-64.4-36.674A17.36,17.36,0,1,1,269.4,43.282,17.4,17.4,0,0,1,252.059,25.842Zm-53.62,0a17.345,17.345,0,1,1,17.345,17.441A17.4,17.4,0,0,1,198.439,25.842Zm-61.458,0a17.345,17.345,0,1,1,17.346,17.441A17.4,17.4,0,0,1,136.981,25.842Zm-76.353,0A17.345,17.345,0,1,1,77.973,43.282,17.4,17.4,0,0,1,60.628,25.842Zm51.517,160.725c-6.022,4.83-11.7,9.4-13.744,15.994-2.276,7.405-5.129,7.405-6.339,7.405-4.668,0-6.8-2.14-7.145-7.144-0.663-9-2.91-38.584-2.91-38.584a4.044,4.044,0,0,0-8.068,0s-2.247,29.589-2.881,38.584c-0.375,5-2.507,7.144-7.146,7.144-1.239,0-4.091,0-6.368-7.405C55.5,195.967,49.823,191.4,43.8,186.567c-10.661-8.561-22.791-18.308-20-42.748,1.671-14.548,2.305-22.5,2.334-22.56a4.093,4.093,0,0,0-3.256-4.339,56.767,56.767,0,0,1-10.92-3.355,5.989,5.989,0,0,1-3.342-6.594c1.873-9.169,6.224-21.924,11.756-29.733C37.2,53.55,64.4,53.839,76.013,53.955l1.959,0.029,1.988-.029c7.059-.057,19.91-0.2,32.7,5.061a41.635,41.635,0,0,0-8.24,10.759A134.749,134.749,0,0,0,91.6,105.987a14.146,14.146,0,0,0,19.391,15.793,73.257,73.257,0,0,0-2.564,17.556,105.843,105.843,0,0,0,9.018,42.835C115.688,183.7,113.9,185.15,112.145,186.567Zm68.314-.116c-2.881,6.306-5.359,11.743-5.877,16.892-0.548,5.755-4.12,6.623-6.195,6.623-4.639,0-6.771-2.14-7.146-7.144-0.605-8.85-2.852-45.7-2.881-46.075a4.042,4.042,0,0,0-8.068,0c-0.028.376-2.276,37.225-2.91,46.075-0.345,5-2.478,7.144-7.145,7.144-2.046,0-5.619-.868-6.195-6.623-0.518-5.149-3-10.586-5.849-16.892-0.345-.752-0.691-1.5-1.037-2.285-1.153-2.545-2.362-5.264-3.515-8.156a95.782,95.782,0,0,1-7.146-36.674c0-13.767,7.895-32.192,7.981-32.394a4.075,4.075,0,0,0-2.42-5.438l-1.93-.636a4.045,4.045,0,0,0-4.87,1.967l-4.5,8.677a6.007,6.007,0,0,1-11.236-3.905,125.6,125.6,0,0,1,12.044-34.013,32.443,32.443,0,0,1,8.9-10.586,35.074,35.074,0,0,1,7.694-4.57c9.969-4.454,20.8-4.454,26.162-4.454,4.321,0,12.158,0,20.255,2.314l-0.289.694a239.266,239.266,0,0,0-14.867,51.049,14.082,14.082,0,0,0,10.661,16.139c0.029,0,.346.087,0.375,0.087a13.844,13.844,0,0,0,10.66-1.88c-0.605,6.623-.98,14.086-0.98,22.386a307.492,307.492,0,0,0,2.334,37.166C181.814,183.5,181.122,185.005,180.459,186.451ZM237.134,205.4a6.961,6.961,0,0,1-13.772-1.417c-0.116-17.325-.836-40.232-3.66-50.963a4.056,4.056,0,0,0-7.837,0c-2.824,10.76-3.544,33.638-3.659,50.963a6.961,6.961,0,0,1-13.772,1.417c-1.066-5.206-2.449-12.842-3.659-22.184-0.75-5.727-1.412-12.119-1.873-18.944-0.432-6.161-.692-12.727-0.692-19.5,0-8.561.432-16.2,1.095-22.907a181.5,181.5,0,0,1,3.112-20.246,100.566,100.566,0,0,1,4.091-14.577,4,4,0,0,0-.346-3.818,4.063,4.063,0,0,0-3.371-1.822h-1.584a4.061,4.061,0,0,0-3.746,2.487,152.8,152.8,0,0,0-8.068,27.709,5.888,5.888,0,0,1-2.564,3.9,6.161,6.161,0,0,1-9.421-6.1,229.418,229.418,0,0,1,14.348-49.313l0.374-.9,0.029-.058c0.058-.145,1.009-2.14,9.509-3.615,4.984-.839,12.591-1.533,24.116-1.533,4.5,0,8.384.115,11.755,0.26a0.41,0.41,0,0,0-.115.087c-4.178,2.921-5.042,6.074-5.042,8.185a4.476,4.476,0,0,0,.029.665,7.555,7.555,0,0,0-.029.81v51.6a13.276,13.276,0,0,0,19.938,11.569v41.707A323.457,323.457,0,0,1,237.134,205.4Zm71.254-89.806a5.23,5.23,0,1,1-10.459,0V72.871a4.035,4.035,0,0,0-4.841-3.962l-1.383.231a4.035,4.035,0,0,0-3.285,3.992V203.69a7.218,7.218,0,0,1-7.2,7.23h-0.4a7.219,7.219,0,0,1-7.2-7.23V138.352a4.053,4.053,0,0,0-4.034-4.049H269.26a4.035,4.035,0,0,0-4.034,4.049v65.656a7.238,7.238,0,0,1-7.2,7.23h-0.4a7.219,7.219,0,0,1-7.2-7.23V73.131a4.033,4.033,0,0,0-3.314-3.992l-1.354-.231a3.964,3.964,0,0,0-3.371.839,3.982,3.982,0,0,0-1.5,3.124V115.59a5.215,5.215,0,1,1-10.429,0V64.049l0.057-.492a3.312,3.312,0,0,0,0-1.07V62.458a5.029,5.029,0,0,1,1.585-1.5c2.334-1.62,6.483-3.21,12.13-4.483h0.029a95.97,95.97,0,0,1,11.9-1.851c4.034-.4,8.471-0.636,13.254-0.636,18.815,0,32.3,3.5,37.37,7a5.222,5.222,0,0,1,1.556,1.475v0.029a4.511,4.511,0,0,0-.029,1.07,2.3,2.3,0,0,0,.087.434v51.6Z"/>
</svg>
