<?xml version="1.0" encoding="utf-8"?>
<!-- Generator: Adobe Illustrator 22.1.0, SVG Export Plug-In . SVG Version: 6.00 Build 0)  -->
<svg version="1.1" id="Слой_1" xmlns="http://www.w3.org/2000/svg" xmlns:xlink="http://www.w3.org/1999/xlink" x="0px" y="0px"
	 viewBox="0 0 27.265 23" enable-background="new 0 0 27.265 23" xml:space="preserve">
<g>
	<defs>
		<rect id="SVGID_1_" width="27.265" height="23"/>
	</defs>
	<clipPath id="SVGID_2_">
		<use xlink:href="#SVGID_1_"  overflow="visible"/>
	</clipPath>
	<path clip-path="url(#SVGID_2_)" d="M26.898,0.5c-0.488-0.488-1.279-0.488-1.767,0l-4.299,4.299C18.745,1.896,15.348,0,11.5,0
		C5.148,0,0,5.149,0,11.5C0,17.852,5.148,23,11.5,23S23,17.852,23,11.5c0-1.575-0.318-3.075-0.892-4.442l4.79-4.79
		C27.387,1.779,27.387,0.988,26.898,0.5 M20.5,11.5c0,4.963-4.037,9-9,9s-9-4.037-9-9c0-4.962,4.037-9,9-9
		c3.153,0,5.928,1.634,7.536,4.095l-7.567,7.567L6.937,9.63c-0.489-0.488-1.28-0.488-1.768,0s-0.488,1.279,0,1.767l5.416,5.416
		c0.244,0.245,0.563,0.367,0.884,0.367c0.32,0,0.639-0.122,0.884-0.367l7.792-7.792C20.371,9.81,20.5,10.64,20.5,11.5"/>
</g>
</svg>
