<?xml version="1.0" encoding="utf-8"?>
<!-- Generator: Adobe Illustrator 22.1.0, SVG Export Plug-In . SVG Version: 6.00 Build 0)  -->
<svg version="1.1" id="Слой_1" xmlns="http://www.w3.org/2000/svg" xmlns:xlink="http://www.w3.org/1999/xlink" x="0px" y="0px"
	 viewBox="0 0 264.622 40.297" enable-background="new 0 0 264.622 40.297" xml:space="preserve">
<g>
	<defs>
		<path id="SVGID_1_" d="M18.878,21c-0.462-0.218-0.718-0.717-0.617-1.21c0.313-1.556,0.955-3.897,2.219-6.244
			c0.441-0.822,1.008-1.459,1.64-1.943c0.447-0.349,0.929-0.625,1.418-0.839c1.837-0.817,3.833-0.817,4.82-0.817
			c0.797,0,2.24,0,3.732,0.425L32.037,10.5c-0.526,1.284-1.928,4.682-2.738,9.369c-0.235,1.36,0.636,2.665,1.963,2.963
			c0.005,0,0.063,0.016,0.07,0.016c0.678,0.154,1.379,0.031,1.964-0.345c-0.112,1.214-0.181,2.585-0.181,4.109
			c0,2.499,0.185,4.841,0.429,6.821c-0.122,0.287-0.248,0.563-0.371,0.828c-0.531,1.158-0.987,2.156-1.083,3.1
			c-0.1,1.057-0.758,1.216-1.142,1.216c-0.854,0-1.246-0.392-1.315-1.311c-0.112-1.625-0.526-8.388-0.532-8.457
			c-0.027-0.393-0.35-0.696-0.743-0.696s-0.722,0.303-0.743,0.696c-0.005,0.069-0.42,6.832-0.537,8.457
			c-0.063,0.919-0.455,1.311-1.316,1.311c-0.377,0-1.035-0.159-1.142-1.216c-0.094-0.944-0.551-1.942-1.077-3.1
			c-0.063-0.138-0.128-0.276-0.191-0.42c-0.212-0.466-0.435-0.965-0.648-1.496c-0.701-1.757-1.315-3.896-1.315-6.732
			c0-2.526,1.453-5.908,1.47-5.945c0.085-0.192,0.079-0.409-0.006-0.595c-0.085-0.191-0.244-0.34-0.44-0.403l-0.356-0.117
			c-0.345-0.117-0.728,0.037-0.897,0.361l-0.829,1.593c-0.194,0.38-0.579,0.599-0.98,0.599C19.192,21.106,19.031,21.072,18.878,21
			 M31.607,21.383c-0.573-0.128-0.94-0.68-0.839-1.264c0.781-4.523,2.135-7.815,2.645-9.052l0.068-0.164l0.005-0.011
			c0.01-0.026,0.187-0.392,1.753-0.664c0.918-0.153,2.319-0.281,4.443-0.281c0.828,0,1.544,0.022,2.165,0.048
			c-0.01,0.006-0.016,0.011-0.02,0.015c-0.771,0.538-0.93,1.116-0.93,1.503c0,0.049,0,0.09,0.005,0.123
			c-0.005,0.047-0.005,0.1-0.005,0.148v9.471c0,1.353,1.1,2.453,2.447,2.453c0.446,0,0.866-0.122,1.227-0.33v7.655
			c-0.244,2.898-0.669,5.293-0.955,6.705c-0.123,0.589-0.649,1.014-1.259,1.014c-0.701,0-1.274-0.574-1.279-1.274
			c-0.022-3.18-0.154-7.384-0.674-9.354c-0.091-0.324-0.383-0.552-0.722-0.552s-0.632,0.228-0.723,0.552
			c-0.52,1.975-0.652,6.174-0.674,9.354c-0.005,0.7-0.579,1.274-1.284,1.274c-0.605,0-1.131-0.425-1.254-1.014
			c-0.196-0.955-0.451-2.358-0.673-4.071c-0.138-1.052-0.26-2.225-0.345-3.478c-0.08-1.13-0.128-2.335-0.128-3.577
			c0-1.572,0.08-2.973,0.202-4.205c0.149-1.492,0.361-2.734,0.573-3.716c0.377-1.742,0.748-2.655,0.755-2.675
			c0.099-0.229,0.073-0.495-0.064-0.702c-0.139-0.207-0.372-0.334-0.621-0.334h-0.292c-0.303,0-0.574,0.18-0.69,0.456
			c-0.67,1.593-1.243,3.753-1.487,5.086c-0.054,0.297-0.223,0.552-0.473,0.718c-0.173,0.117-0.372,0.179-0.593,0.179
			C31.814,21.419,31.713,21.407,31.607,21.383 M42.383,21.255v-9.46l0.011-0.09c0.01-0.065,0.01-0.133,0-0.197v-0.006
			c0.021-0.036,0.09-0.137,0.292-0.276c0.43-0.297,1.194-0.589,2.236-0.822h0.004c0.632-0.144,1.37-0.261,2.193-0.34
			c0.743-0.074,1.561-0.117,2.442-0.117c3.467,0,5.951,0.643,6.886,1.285c0.196,0.138,0.265,0.234,0.285,0.27v0.006
			c-0.009,0.064-0.009,0.132-0.004,0.197c0,0.004,0.011,0.074,0.015,0.079v9.471c0,0.531-0.435,0.965-0.966,0.965
			c-0.53,0-0.96-0.434-0.96-0.965v-7.841c0-0.222-0.102-0.436-0.271-0.573c-0.175-0.144-0.404-0.196-0.622-0.154l-0.253,0.042
			c-0.351,0.064-0.606,0.372-0.606,0.733v23.963c0,0.733-0.595,1.327-1.328,1.327h-0.073c-0.733,0-1.328-0.594-1.328-1.327V25.433
			c0-0.409-0.335-0.744-0.742-0.744h-0.06c-0.414,0-0.742,0.335-0.742,0.744v12.051c0,0.731-0.601,1.326-1.328,1.326H47.39
			c-0.733,0-1.327-0.595-1.327-1.326v-6.451V19.052v-5.59c0-0.361-0.255-0.669-0.61-0.733l-0.251-0.042
			c-0.053-0.011-0.1-0.016-0.148-0.016c-0.17,0-0.34,0.058-0.473,0.17c-0.174,0.137-0.276,0.351-0.276,0.573v1.577v5.403v0.861
			c0,0.531-0.43,0.965-0.961,0.965C42.814,22.22,42.383,21.786,42.383,21.255 M10.526,37.217c-0.376-1.209-1.422-2.048-2.531-2.935
			c-1.965-1.571-4.2-3.36-3.685-7.846c0.308-2.67,0.425-4.131,0.429-4.14c0.033-0.377-0.227-0.723-0.599-0.797
			c-0.011,0-1.205-0.239-2.012-0.615c-0.461-0.218-0.717-0.717-0.616-1.211c0.346-1.683,1.147-4.023,2.166-5.457
			c3.101-4.348,8.111-4.295,10.251-4.274l0.361,0.005l0.366-0.005c1.301-0.01,3.669-0.037,6.026,0.929
			c-0.573,0.531-1.089,1.183-1.518,1.974c-1.343,2.501-2.028,4.997-2.363,6.647c-0.239,1.174,0.356,2.347,1.445,2.856
			c0.7,0.33,1.469,0.324,2.128,0.043c-0.265,1.03-0.472,2.176-0.472,3.222c0,3.393,0.833,5.914,1.661,7.863
			c-0.323,0.281-0.652,0.546-0.976,0.806c-1.11,0.887-2.156,1.726-2.533,2.935c-0.419,1.36-0.945,1.36-1.168,1.36
			c-0.861,0-1.253-0.392-1.316-1.311c-0.122-1.651-0.536-7.081-0.536-7.081c-0.033-0.388-0.356-0.691-0.744-0.691
			c-0.388,0-0.712,0.303-0.742,0.691c0,0-0.415,5.43-0.532,7.081c-0.069,0.919-0.462,1.311-1.316,1.311
			C11.471,38.577,10.946,38.577,10.526,37.217 M11.094,4.782c0-1.763,1.434-3.196,3.196-3.196c1.763,0,3.196,1.433,3.196,3.196
			s-1.433,3.201-3.196,3.201C12.528,7.983,11.094,6.545,11.094,4.782 M25.162,4.782c0-1.763,1.434-3.196,3.196-3.196
			c1.762,0,3.196,1.433,3.196,3.196s-1.434,3.201-3.196,3.201C26.596,7.983,25.162,6.545,25.162,4.782 M36.486,4.782
			c0-1.763,1.434-3.196,3.196-3.196s3.195,1.433,3.195,3.196s-1.433,3.201-3.195,3.201S36.486,6.545,36.486,4.782 M46.365,4.782
			c0-1.763,1.433-3.196,3.196-3.196c1.762,0,3.201,1.433,3.201,3.196s-1.439,3.201-3.201,3.201
			C47.798,7.983,46.365,6.545,46.365,4.782 M44.878,4.782c0,1.572,0.775,2.962,1.965,3.807c-0.675,0.069-1.311,0.164-1.901,0.281
			c-0.663-0.154-1.481-0.266-2.458-0.335c1.143-0.855,1.885-2.218,1.885-3.753c0-2.585-2.102-4.687-4.687-4.687
			c-2.586,0-4.688,2.102-4.688,4.687c0,1.535,0.744,2.898,1.884,3.753c-1.593,0.112-2.754,0.335-3.546,0.686
			c-0.785-0.298-1.576-0.483-2.298-0.595c1.216-0.845,2.011-2.251,2.011-3.844c0-2.585-2.101-4.687-4.687-4.687
			S23.67,2.197,23.67,4.782c0,1.593,0.797,2.999,2.013,3.844c-1.142,0.175-2.442,0.53-3.643,1.237
			c-1.724-0.86-3.487-1.2-4.942-1.333c1.141-0.854,1.88-2.213,1.88-3.748c0-2.585-2.103-4.687-4.688-4.687
			c-2.586,0-4.687,2.102-4.687,4.687c0,1.535,0.737,2.894,1.879,3.748c-2.686,0.244-6.434,1.199-9.014,4.82
			c-1.226,1.726-2.07,4.322-2.416,6.026C0.018,19.543,0.001,19.71,0,19.875v0.032c0.006,0.98,0.573,1.892,1.497,2.324
			c0.551,0.261,1.216,0.457,1.698,0.579c-0.064,0.663-0.18,1.831-0.366,3.461c-0.605,5.304,2.192,7.539,4.236,9.174
			c0.967,0.77,1.8,1.438,2.039,2.214c0.493,1.592,1.364,2.404,2.596,2.404c1.274,0,2.192-0.616,2.59-1.688
			c0.399,1.072,1.317,1.688,2.596,1.688c1.227,0,2.097-0.812,2.591-2.404c0.238-0.776,1.072-1.444,2.038-2.214
			c0.218-0.175,0.446-0.356,0.68-0.552c0.488,1.071,0.876,1.916,0.945,2.617c0.191,1.884,1.534,2.553,2.622,2.553
			c1.279,0,2.198-0.616,2.596-1.688c0.398,1.072,1.317,1.688,2.59,1.688c1.095,0,2.437-0.669,2.628-2.553
			c0.038-0.388,0.176-0.818,0.377-1.311c0.117,0.722,0.24,1.343,0.341,1.842c0.259,1.274,1.401,2.197,2.712,2.197
			c1.279,0,2.356-0.87,2.676-2.053c0.319,1.183,1.396,2.053,2.681,2.053c1.072,0,2.033-0.626,2.484-1.555
			c0.445,0.955,1.417,1.614,2.543,1.614h0.074c0.844,0,1.608-0.377,2.123-0.972c0.516,0.563,1.259,0.913,2.077,0.913h0.073
			c1.55,0,2.814-1.262,2.814-2.813V23.378c0.362,0.208,0.78,0.33,1.226,0.33c1.354,0,2.453-1.1,2.453-2.453v-9.471
			c0-0.048-0.005-0.095-0.011-0.148c0.006-0.033,0.011-0.074,0.011-0.123c0-0.387-0.159-0.965-0.95-1.518
			c-0.992-0.685-2.803-1.179-4.995-1.401c1.188-0.85,1.963-2.24,1.963-3.812c0-2.585-2.102-4.687-4.687-4.687
			C46.981,0.095,44.878,2.197,44.878,4.782"/>
	</defs>
	<clipPath id="SVGID_2_">
		<use xlink:href="#SVGID_1_"  overflow="visible"/>
	</clipPath>
	
		<linearGradient id="SVGID_3_" gradientUnits="userSpaceOnUse" x1="9.094947e-13" y1="40.2971" x2="1" y2="40.2971" gradientTransform="matrix(58.23 0 0 -58.23 0 2366.697)">
		<stop  offset="0" style="stop-color:#BE1E2D"/>
		<stop  offset="0.33" style="stop-color:#F15A29"/>
		<stop  offset="0.67" style="stop-color:#D0D828"/>
		<stop  offset="1" style="stop-color:#8DC73F"/>
	</linearGradient>
	<rect y="0.095" clip-path="url(#SVGID_2_)" fill="url(#SVGID_3_)" width="58.23" height="40.202"/>
</g>
<g>
	<defs>
		<rect id="SVGID_4_" y="0" width="264.622" height="40.297"/>
	</defs>
	<clipPath id="SVGID_5_">
		<use xlink:href="#SVGID_4_"  overflow="visible"/>
	</clipPath>
	<path clip-path="url(#SVGID_5_)" d="M70.942,37.524c-1.554-1.777-2.33-4.126-2.33-7.045v-1.066c0-0.374,0.187-0.562,0.561-0.562
		h0.506c0.373,0,0.561,0.188,0.561,0.562v1.009c0,2.471,0.627,4.463,1.881,5.979c1.253,1.516,2.871,2.273,4.855,2.273
		s3.62-0.729,4.911-2.189c1.291-1.459,1.937-3.368,1.937-5.726c0-1.571-0.3-2.909-0.898-4.012c-0.599-1.104-1.338-2.049-2.217-2.835
		c-0.879-0.786-2.311-1.927-4.294-3.424c-1.909-1.46-3.378-2.667-4.407-3.621s-1.862-2.077-2.498-3.368
		c-0.636-1.291-0.954-2.816-0.954-4.575c0-2.769,0.758-4.948,2.274-6.54C72.345,0.794,74.3,0,76.696,0
		c2.544,0,4.593,0.897,6.146,2.694c1.552,1.796,2.329,4.153,2.329,7.072v1.403c0,0.375-0.187,0.562-0.561,0.562h-0.562
		c-0.374,0-0.56-0.187-0.56-0.562V9.822c0-2.506-0.628-4.519-1.881-6.034c-1.254-1.516-2.891-2.274-4.911-2.274
		c-1.909,0-3.462,0.655-4.659,1.965C70.838,4.79,70.24,6.642,70.24,9.037c0,1.384,0.243,2.591,0.73,3.62
		c0.486,1.03,1.206,1.984,2.161,2.863s2.348,2.012,4.182,3.396c2.207,1.647,3.845,2.966,4.911,3.957
		c1.067,0.992,1.881,2.068,2.443,3.227c0.56,1.161,0.841,2.583,0.841,4.267c0,2.956-0.786,5.332-2.357,7.129
		c-1.572,1.796-3.612,2.694-6.119,2.694S72.495,39.301,70.942,37.524"/>
	<path clip-path="url(#SVGID_5_)" d="M110.542,0.448h0.617c0.374,0,0.562,0.188,0.562,0.562v38.169c0,0.375-0.188,0.562-0.562,0.562
		h-0.561c-0.374,0-0.561-0.187-0.561-0.562V5.164c0-0.112-0.038-0.169-0.112-0.169c-0.076,0-0.132,0.038-0.169,0.112l-6.568,15.717
		c-0.112,0.301-0.318,0.449-0.617,0.449h-0.056c-0.3,0-0.505-0.148-0.618-0.449l-6.679-15.66c-0.038-0.075-0.094-0.112-0.168-0.112
		c-0.076,0-0.112,0.055-0.112,0.167v33.96c0,0.375-0.189,0.562-0.562,0.562h-0.562c-0.375,0-0.561-0.187-0.561-0.562V1.01
		c0-0.374,0.186-0.562,0.561-0.562h0.618c0.299,0,0.506,0.15,0.618,0.449l7.297,17.177c0.037,0.075,0.092,0.112,0.168,0.112
		c0.075,0,0.131-0.037,0.169-0.112l7.241-17.177C110.037,0.598,110.242,0.448,110.542,0.448"/>
	<path clip-path="url(#SVGID_5_)" d="M134.904,39.236l-1.685-7.803c0-0.074-0.027-0.131-0.084-0.168
		c-0.056-0.037-0.122-0.056-0.196-0.056h-11.956c-0.075,0-0.141,0.019-0.197,0.056c-0.056,0.037-0.084,0.094-0.084,0.168
		l-1.684,7.803c-0.037,0.337-0.244,0.505-0.617,0.505h-0.562c-0.187,0-0.328-0.056-0.421-0.168
		c-0.093-0.112-0.122-0.262-0.084-0.449l8.588-38.17c0.074-0.337,0.281-0.506,0.617-0.506h0.786c0.337,0,0.542,0.169,0.618,0.506
		l8.644,38.17v0.112c0,0.337-0.168,0.505-0.505,0.505h-0.561C135.184,39.741,134.978,39.573,134.904,39.236 M121.179,29.609
		c0.057,0.056,0.121,0.084,0.196,0.084h11.171c0.074,0,0.14-0.028,0.196-0.084c0.056-0.057,0.065-0.103,0.029-0.141l-5.726-25.877
		c-0.038-0.112-0.076-0.168-0.112-0.168c-0.038,0-0.075,0.056-0.112,0.168l-5.67,25.877
		C121.114,29.506,121.123,29.552,121.179,29.609"/>
	<path clip-path="url(#SVGID_5_)" d="M157.468,39.292l-6.68-18.356c-0.038-0.112-0.112-0.168-0.224-0.168h-6.456
		c-0.15,0-0.224,0.076-0.224,0.225V39.18c0,0.375-0.188,0.561-0.562,0.561h-0.561c-0.375,0-0.562-0.186-0.562-0.561V1.01
		c0-0.373,0.187-0.562,0.562-0.562h7.971c2.506,0,4.518,0.937,6.034,2.807c1.515,1.872,2.273,4.342,2.273,7.41
		c0,2.619-0.581,4.818-1.74,6.595c-1.16,1.778-2.731,2.891-4.715,3.34c-0.15,0.076-0.206,0.168-0.169,0.281l6.681,18.243
		l0.056,0.225c0,0.261-0.168,0.392-0.505,0.392h-0.506C157.804,39.741,157.58,39.592,157.468,39.292 M143.884,2.245v16.783
		c0,0.151,0.074,0.225,0.224,0.225h6.568c2.021,0,3.639-0.786,4.855-2.358c1.215-1.572,1.825-3.648,1.825-6.23
		s-0.61-4.668-1.825-6.259c-1.216-1.591-2.834-2.386-4.855-2.386h-6.568C143.958,2.02,143.884,2.096,143.884,2.245"/>
	<path clip-path="url(#SVGID_5_)" d="M181.267,1.01v0.449c0,0.374-0.187,0.562-0.562,0.562h-7.521c-0.149,0-0.225,0.075-0.225,0.224
		V39.18c0,0.375-0.187,0.561-0.561,0.561h-0.561c-0.375,0-0.561-0.186-0.561-0.561V2.245c0-0.149-0.075-0.224-0.225-0.224h-7.073
		c-0.374,0-0.561-0.188-0.561-0.562V1.01c0-0.373,0.187-0.562,0.561-0.562h16.727C181.08,0.448,181.267,0.637,181.267,1.01"/>
	<path clip-path="url(#SVGID_5_)" d="M188.396,39.18V1.01c0-0.373,0.186-0.562,0.561-0.562h7.691c2.582,0,4.631,0.909,6.146,2.723
		c1.516,1.815,2.274,4.294,2.274,7.437v18.973c0,3.144-0.758,5.623-2.274,7.438c-1.515,1.815-3.564,2.722-6.146,2.722h-7.691
		C188.582,39.741,188.396,39.555,188.396,39.18 M190.304,38.17h6.399c2.021,0,3.63-0.767,4.828-2.302
		c1.197-1.534,1.796-3.629,1.796-6.287V10.665c0-2.694-0.589-4.808-1.768-6.344c-1.179-1.533-2.798-2.3-4.856-2.3h-6.399
		c-0.149,0-0.224,0.075-0.224,0.224v35.7C190.08,38.095,190.155,38.17,190.304,38.17"/>
	<path clip-path="url(#SVGID_5_)" d="M214.161,39.18V1.01c0-0.373,0.187-0.561,0.562-0.561h0.561c0.373,0,0.562,0.188,0.562,0.561
		v38.17c0,0.375-0.189,0.562-0.562,0.562h-0.561C214.348,39.742,214.161,39.555,214.161,39.18"/>
	<path clip-path="url(#SVGID_5_)" d="M241.327,2.021h-13.696c-0.15,0-0.224,0.075-0.224,0.225v16.839
		c0,0.15,0.074,0.224,0.224,0.224h8.981c0.374,0,0.562,0.189,0.562,0.562v0.393c0,0.374-0.188,0.561-0.562,0.561h-8.981
		c-0.15,0-0.224,0.076-0.224,0.224v16.897c0,0.149,0.074,0.224,0.224,0.224h13.696c0.374,0,0.562,0.188,0.562,0.561v0.449
		c0,0.375-0.188,0.562-0.562,0.562h-15.043c-0.375,0-0.561-0.187-0.561-0.562V1.01c0-0.373,0.186-0.561,0.561-0.561h15.043
		c0.374,0,0.562,0.188,0.562,0.561v0.449C241.889,1.834,241.701,2.021,241.327,2.021"/>
	<path clip-path="url(#SVGID_5_)" d="M264.622,1.01v0.449c0,0.374-0.187,0.562-0.562,0.562h-7.521c-0.149,0-0.225,0.075-0.225,0.224
		V39.18c0,0.375-0.187,0.561-0.561,0.561h-0.561c-0.375,0-0.561-0.186-0.561-0.561V2.245c0-0.149-0.075-0.224-0.225-0.224h-7.073
		c-0.374,0-0.561-0.188-0.561-0.562V1.01c0-0.373,0.187-0.562,0.561-0.562h16.727C264.435,0.448,264.622,0.637,264.622,1.01"/>
</g>
</svg>
