<svg xmlns="http://www.w3.org/2000/svg" viewBox="0 0 37 37"><path d="M18.5 2C27.6 2 35 9.4 35 18.5S27.6 35 18.5 35 2 27.6 2 18.5 9.4 2 18.5 2m0-2C8.3 0 0 8.3 0 18.5S8.3 37 18.5 37 37 28.7 37 18.5 28.7 0 18.5 0z"/><path d="M18.5 24c4.7 0 9 2.4 11.4 6.4-3.1 3-7.2 4.6-11.4 4.6s-8.4-1.7-11.4-4.6c2.4-4 6.7-6.4 11.4-6.4m0-2c-6.1 0-11.4 3.5-13.9 8.7C8 34.5 13 37 18.5 37s10.5-2.5 13.9-6.3c-2.5-5.2-7.8-8.7-13.9-8.7zM18.5 7c3 0 5.5 2.5 5.5 5.5S21.5 18 18.5 18 13 15.5 13 12.5 15.5 7 18.5 7m0-2C14.4 5 11 8.4 11 12.5s3.4 7.5 7.5 7.5 7.5-3.4 7.5-7.5S22.6 5 18.5 5z"/></svg>