<svg xmlns="http://www.w3.org/2000/svg" width="821.375" height="569.5" viewBox="0 0 821.375 569.5">
  <defs>
    <style>
      .cls-1 {
        fill: #ffba3a;
        fill-rule: evenodd;
      }
    </style>
  </defs>
  <path id="Shape_3_copy_4" data-name="Shape 3 copy 4" class="cls-1" d="M365.4,456.371a20.906,20.906,0,0,1-11.486,5.874,20.6,20.6,0,0,1-20.265-8.455l-36.27-51.183a8.7,8.7,0,0,0-7.257-3.665l-62.9,1.106a20.749,20.749,0,0,1-16.937-33.221l37.669-50.593a8.779,8.779,0,0,0,1.283-8.055L229.1,248.705a20.954,20.954,0,0,1,26.455-26.556L315.1,242.064a8.775,8.775,0,0,0,8.051-1.313L373.6,202.888a20.748,20.748,0,0,1,33.285,16.81l-0.865,62.9a8.7,8.7,0,0,0,3.694,7.241l51.322,36.074a20.6,20.6,0,0,1,8.531,20.234,20.866,20.866,0,0,1-14.415,16.713L395.066,381.82a8.83,8.83,0,0,0-5.767,5.79L370.57,447.766A21.02,21.02,0,0,1,365.4,456.371ZM242.653,235.756a8.618,8.618,0,0,0-2.109,9.012l20.143,59.475a20.889,20.889,0,0,1-3.053,19.172l-37.668,50.592a8.718,8.718,0,0,0,7.114,13.959l62.9-1.106a20.708,20.708,0,0,1,17.273,8.721l36.271,51.184a8.544,8.544,0,0,0,8.514,3.553,8.657,8.657,0,0,0,7-6.083l18.729-60.157A21.012,21.012,0,0,1,391.489,370.3l60.087-18.96a8.657,8.657,0,0,0,6.055-7.021,8.542,8.542,0,0,0-3.584-8.5l-51.321-36.073a20.7,20.7,0,0,1-8.789-17.24l0.864-62.9a8.717,8.717,0,0,0-13.984-7.062L330.368,250.4a20.892,20.892,0,0,1-19.161,3.126l-59.549-19.915A8.62,8.62,0,0,0,242.653,235.756Zm374,261.932a15.643,15.643,0,0,1-7.634-6.7,16.4,16.4,0,0,1,1.016-17.629l29.57-42.682a7.006,7.006,0,0,0,.855-6.509l-17.9-46.271a16.757,16.757,0,0,1,3.587-17.435,17.815,17.815,0,0,1,17.4-5.373l49.151,12.3a7.5,7.5,0,0,0,6.549-1.536l40.321-33.29a17.553,17.553,0,0,1,17.873-2.9,15.546,15.546,0,0,1,9.738,14.309l0.808,50.28a6.563,6.563,0,0,0,3.192,5.561L814,425.505a15.6,15.6,0,0,1,7.459,15.642,17.818,17.818,0,0,1-11.379,14.215l-48.653,18.78a7.583,7.583,0,0,0-4.572,4.972L742.99,528.286a18,18,0,0,1-13.263,12.569,16.389,16.389,0,0,1-16.771-5.523l-30.877-38.675a6.855,6.855,0,0,0-6.02-2.486l-51.379,4.692A16.945,16.945,0,0,1,616.654,497.688ZM753.209,338.61a7.279,7.279,0,0,0-7.508,1.219l-40.322,33.29a17.822,17.822,0,0,1-15.585,3.657l-49.152-12.3a7.389,7.389,0,0,0-7.308,2.257,6.954,6.954,0,0,0-1.508,7.325l17.9,46.271a16.677,16.677,0,0,1-2.032,15.494L618.12,478.51a6.8,6.8,0,0,0-.428,7.406,6.668,6.668,0,0,0,6.578,3.308l51.382-4.694a16.313,16.313,0,0,1,14.328,5.919l30.878,38.676a6.8,6.8,0,0,0,7.045,2.32,7.464,7.464,0,0,0,5.573-5.281l13.859-49.171a18.054,18.054,0,0,1,10.889-11.835l48.653-18.78a7.394,7.394,0,0,0,4.781-5.973,6.475,6.475,0,0,0-3.135-6.572l-42.817-25.7a15.621,15.621,0,0,1-7.6-13.234l-0.808-50.28A6.45,6.45,0,0,0,753.209,338.61Zm-577.271,230.4a8.622,8.622,0,0,1-5.6.207,9.042,9.042,0,0,1-6.27-7.448l-4.32-28.3a3.865,3.865,0,0,0-2.123-2.932l-24.7-11.76a9.24,9.24,0,0,1-5.166-8.345,9.822,9.822,0,0,1,4.934-8.743L157.05,488a4.129,4.129,0,0,0,2.041-3.1l3.547-28.612a9.677,9.677,0,0,1,6.061-7.933,8.573,8.573,0,0,1,9.323,2.044l19.369,19.841a3.621,3.621,0,0,0,3.386,1.018l26.89-5.922a8.6,8.6,0,0,1,8.914,3.441,9.826,9.826,0,0,1,.825,10.007l-12.38,25.954a4.184,4.184,0,0,0,.051,3.725l13.073,24.952a9.926,9.926,0,0,1-.553,10.061,9.035,9.035,0,0,1-8.812,4.139l-27.022-3.8a3.778,3.778,0,0,0-3.354,1.284L179.6,566.442A9.353,9.353,0,0,1,175.938,569.011ZM170.4,453.543a4.014,4.014,0,0,0-2.547,3.333L164.3,485.489a9.829,9.829,0,0,1-4.859,7.369L135.091,506.55a4.078,4.078,0,0,0-2.074,3.673,3.837,3.837,0,0,0,2.171,3.506l24.7,11.761a9.2,9.2,0,0,1,5.055,6.978l4.32,28.3A3.749,3.749,0,0,0,171.9,563.9a3.675,3.675,0,0,0,3.889-1.166l18.81-21.344a8.995,8.995,0,0,1,7.983-3.056l27.022,3.8a3.748,3.748,0,0,0,3.7-1.739,4.116,4.116,0,0,0,.233-4.227l-13.073-24.952a9.954,9.954,0,0,1-.12-8.866l12.38-25.955a4.075,4.075,0,0,0-.347-4.2,3.568,3.568,0,0,0-3.745-1.446l-26.89,5.923a8.613,8.613,0,0,1-8.058-2.425l-19.37-19.84A3.554,3.554,0,0,0,170.4,453.543Zm421.594-203.08a11.77,11.77,0,0,1-7.484-1.582,12.354,12.354,0,0,1-5.836-11.951l3.673-38.937a5.281,5.281,0,0,0-1.84-4.591L551.68,169.619a12.621,12.621,0,0,1-4.076-12.773,13.418,13.418,0,0,1,9.441-9.946l36.814-10.057a5.642,5.642,0,0,0,3.733-3.425l14.2-36.735a13.221,13.221,0,0,1,10.665-8.5,11.71,11.71,0,0,1,11.674,5.8l19.079,32.721a4.943,4.943,0,0,0,4.148,2.474l37.6,1.08a11.746,11.746,0,0,1,10.669,7.521,13.42,13.42,0,0,1-2.229,13.532L678.372,181.6a5.714,5.714,0,0,0-1.169,4.953l9.038,37.4a13.557,13.557,0,0,1-4.073,13.147,12.341,12.341,0,0,1-13.051,2.56l-34.544-14.007a5.165,5.165,0,0,0-4.871.588l-32.009,22.036A12.754,12.754,0,0,1,591.989,250.463ZM622.98,95.623a5.481,5.481,0,0,0-4.48,3.571l-14.2,36.736a13.425,13.425,0,0,1-8.886,8.151L558.6,154.137a5.57,5.57,0,0,0-3.968,4.179,5.239,5.239,0,0,0,1.712,5.366l28.822,23.784a12.562,12.562,0,0,1,4.381,10.925l-3.673,38.938a5.124,5.124,0,0,0,2.452,5.021,5.019,5.019,0,0,0,5.54-.255l32.011-22.036a12.286,12.286,0,0,1,11.592-1.4l34.545,14.007a5.12,5.12,0,0,0,5.482-1.075,5.619,5.619,0,0,0,1.712-5.524l-9.038-37.4a13.6,13.6,0,0,1,2.784-11.789L697.979,146.6a5.569,5.569,0,0,0,.936-5.686,4.876,4.876,0,0,0-4.483-3.159l-37.6-1.08a11.763,11.763,0,0,1-9.872-5.888l-19.079-32.72A4.858,4.858,0,0,0,622.98,95.623ZM44.989,162.463a11.777,11.777,0,0,1-7.484-1.582,12.353,12.353,0,0,1-5.836-11.951l3.673-38.937A5.278,5.278,0,0,0,33.5,105.4L4.68,81.619A12.619,12.619,0,0,1,.6,68.846,13.418,13.418,0,0,1,10.045,58.9L46.859,48.843a5.641,5.641,0,0,0,3.733-3.424l14.2-36.736A13.222,13.222,0,0,1,75.456.183a11.712,11.712,0,0,1,11.674,5.8l19.078,32.721a4.943,4.943,0,0,0,4.148,2.474l37.6,1.08a11.747,11.747,0,0,1,10.669,7.521,13.423,13.423,0,0,1-2.229,13.532L131.371,93.6a5.714,5.714,0,0,0-1.168,4.952l9.038,37.4a13.557,13.557,0,0,1-4.073,13.148,12.343,12.343,0,0,1-13.051,2.559L87.573,137.651a5.166,5.166,0,0,0-4.87.588l-32.01,22.036A12.751,12.751,0,0,1,44.989,162.463ZM75.98,7.623A5.481,5.481,0,0,0,71.5,11.193L57.3,47.929a13.429,13.429,0,0,1-8.885,8.151L11.6,66.137a5.567,5.567,0,0,0-3.967,4.179,5.238,5.238,0,0,0,1.712,5.366L38.168,99.467a12.56,12.56,0,0,1,4.381,10.925l-3.673,38.938a5.123,5.123,0,0,0,2.451,5.021,5.019,5.019,0,0,0,5.54-.255l32.011-22.036a12.287,12.287,0,0,1,11.592-1.4l34.545,14.007a5.12,5.12,0,0,0,5.482-1.075,5.619,5.619,0,0,0,1.712-5.524l-9.038-37.4a13.6,13.6,0,0,1,2.784-11.789l25.022-30.281a5.566,5.566,0,0,0,.937-5.686,4.876,4.876,0,0,0-4.483-3.16l-37.6-1.08a11.765,11.765,0,0,1-9.872-5.888L80.885,10.062A4.858,4.858,0,0,0,75.98,7.623Z" transform="translate(-0.219 -0.094)"/>
</svg>
