<svg xmlns="http://www.w3.org/2000/svg" width="867.344" height="888.5" viewBox="0 0 867.344 888.5">
  <defs>
    <style>
      .cls-1 {
        fill: #ffba3a;
        fill-rule: evenodd;
      }
    </style>
  </defs>
  <path id="Shape_3_copy_4" data-name="Shape 3 copy 4" class="cls-1" d="M558.4,452.371a20.906,20.906,0,0,1-11.486,5.874,20.6,20.6,0,0,1-20.265-8.455l-36.27-51.183a8.7,8.7,0,0,0-7.257-3.665l-62.9,1.106a20.749,20.749,0,0,1-16.937-33.221l37.669-50.593a8.775,8.775,0,0,0,1.282-8.055L422.1,244.705a20.954,20.954,0,0,1,26.455-26.556L508.1,238.064a8.772,8.772,0,0,0,8.05-1.313L566.6,198.887A20.749,20.749,0,0,1,599.884,215.7l-0.865,62.9a8.7,8.7,0,0,0,3.693,7.24l51.323,36.074a20.6,20.6,0,0,1,8.531,20.234A20.865,20.865,0,0,1,648.15,358.86l-60.084,18.961a8.826,8.826,0,0,0-5.767,5.789L563.57,443.765A21.017,21.017,0,0,1,558.4,452.371ZM435.653,231.756a8.62,8.62,0,0,0-2.109,9.012l20.143,59.474a20.892,20.892,0,0,1-3.052,19.172l-37.669,50.593a8.718,8.718,0,0,0,7.114,13.959l62.9-1.106a20.705,20.705,0,0,1,17.273,8.721l36.271,51.184a8.544,8.544,0,0,0,8.514,3.553,8.658,8.658,0,0,0,7-6.083l18.729-60.156A21.012,21.012,0,0,1,584.489,366.3l60.087-18.96a8.658,8.658,0,0,0,6.056-7.021,8.544,8.544,0,0,0-3.585-8.5l-51.321-36.073a20.7,20.7,0,0,1-8.789-17.24l0.864-62.9a8.717,8.717,0,0,0-13.985-7.062L523.368,246.4a20.89,20.89,0,0,1-19.16,3.126l-59.55-19.916A8.62,8.62,0,0,0,435.653,231.756Zm168,459.932a15.643,15.643,0,0,1-7.634-6.7,16.4,16.4,0,0,1,1.016-17.629l29.57-42.682a7.006,7.006,0,0,0,.855-6.509l-17.9-46.271a16.757,16.757,0,0,1,3.587-17.435,17.815,17.815,0,0,1,17.4-5.373l49.151,12.3a7.493,7.493,0,0,0,6.548-1.536l40.323-33.29a17.551,17.551,0,0,1,17.872-2.9,15.545,15.545,0,0,1,9.738,14.309l0.808,50.28a6.563,6.563,0,0,0,3.192,5.561L801,619.505a15.6,15.6,0,0,1,7.459,15.642,17.818,17.818,0,0,1-11.379,14.215l-48.653,18.779a7.584,7.584,0,0,0-4.572,4.973L729.99,722.286a18,18,0,0,1-13.263,12.569,16.389,16.389,0,0,1-16.771-5.523l-30.877-38.675a6.855,6.855,0,0,0-6.02-2.486l-51.379,4.692A16.945,16.945,0,0,1,603.654,691.688ZM740.21,532.61a7.278,7.278,0,0,0-7.508,1.219l-40.323,33.29a17.824,17.824,0,0,1-15.585,3.657l-49.151-12.3a7.393,7.393,0,0,0-7.31,2.257,6.953,6.953,0,0,0-1.507,7.325l17.9,46.271a16.677,16.677,0,0,1-2.032,15.494L605.12,672.51a6.8,6.8,0,0,0-.428,7.406,6.667,6.667,0,0,0,6.578,3.308l51.382-4.694a16.314,16.314,0,0,1,14.328,5.919l30.878,38.676a6.8,6.8,0,0,0,7.045,2.32,7.464,7.464,0,0,0,5.573-5.281l13.859-49.171a18.055,18.055,0,0,1,10.888-11.835l48.654-18.781a7.391,7.391,0,0,0,4.781-5.972,6.475,6.475,0,0,0-3.135-6.572l-42.817-25.7a15.622,15.622,0,0,1-7.6-13.234l-0.807-50.28A6.449,6.449,0,0,0,740.21,532.61Zm-597.8,354.938a15.639,15.639,0,0,1-10.149.371A16.4,16.4,0,0,1,120.9,874.4l-7.8-51.335a7.008,7.008,0,0,0-3.848-5.32L64.469,796.39a16.755,16.755,0,0,1-9.361-15.14A17.815,17.815,0,0,1,64.067,765.4l44.181-24.8a7.49,7.49,0,0,0,3.706-5.613L118.42,683.1a17.55,17.55,0,0,1,11-14.381,15.548,15.548,0,0,1,16.906,3.719l35.1,36a6.56,6.56,0,0,0,6.138,1.851l48.774-10.709a15.594,15.594,0,0,1,16.162,6.252,17.817,17.817,0,0,1,1.485,18.148l-22.484,47.056a7.587,7.587,0,0,0,.089,6.754l23.679,45.27a17.992,17.992,0,0,1-1.015,18.244,16.385,16.385,0,0,1-15.986,7.5l-49-6.924a6.856,6.856,0,0,0-6.085,2.325l-34.137,38.685A16.935,16.935,0,0,1,142.408,887.548Zm-9.917-209.415a7.275,7.275,0,0,0-4.622,6.041L121.4,736.061a17.827,17.827,0,0,1-8.822,13.358l-44.18,24.8a7.392,7.392,0,0,0-3.765,6.659,6.953,6.953,0,0,0,3.932,6.361L113.348,808.6a16.677,16.677,0,0,1,9.159,12.661l7.8,51.335a6.8,6.8,0,0,0,4.773,5.678,6.666,6.666,0,0,0,7.055-2.11l34.138-38.687a16.314,16.314,0,0,1,14.481-5.533l49,6.924a6.8,6.8,0,0,0,6.715-3.15,7.464,7.464,0,0,0,.427-7.665l-23.679-45.268a18.06,18.06,0,0,1-.209-16.081L245.5,719.649a7.39,7.39,0,0,0-.624-7.625,6.474,6.474,0,0,0-6.791-2.627l-48.774,10.71A15.619,15.619,0,0,1,174.7,715.7l-35.106-36A6.448,6.448,0,0,0,132.491,678.133ZM350.938,569.011a8.629,8.629,0,0,1-5.6.208,9.045,9.045,0,0,1-6.27-7.449l-4.32-28.3a3.865,3.865,0,0,0-2.123-2.932l-24.7-11.761a9.24,9.24,0,0,1-5.167-8.344,9.825,9.825,0,0,1,4.935-8.743L332.05,488a4.129,4.129,0,0,0,2.041-3.1l3.547-28.612a9.68,9.68,0,0,1,6.061-7.934,8.575,8.575,0,0,1,9.323,2.045l19.369,19.841a3.621,3.621,0,0,0,3.386,1.019l26.89-5.923a8.6,8.6,0,0,1,8.914,3.442,9.824,9.824,0,0,1,.825,10.006l-12.38,25.954a4.181,4.181,0,0,0,.051,3.725l13.073,24.952a9.926,9.926,0,0,1-.553,10.061,9.038,9.038,0,0,1-8.812,4.14l-27.022-3.8a3.78,3.78,0,0,0-3.354,1.285L354.6,566.442A9.361,9.361,0,0,1,350.938,569.011ZM345.4,453.543a4.011,4.011,0,0,0-2.546,3.333L339.3,485.489a9.829,9.829,0,0,1-4.859,7.369l-24.352,13.691a4.079,4.079,0,0,0-2.074,3.674,3.834,3.834,0,0,0,2.171,3.506l24.7,11.761a9.2,9.2,0,0,1,5.055,6.978l4.32,28.3A3.749,3.749,0,0,0,346.9,563.9a3.676,3.676,0,0,0,3.889-1.166l18.81-21.344a8.995,8.995,0,0,1,7.983-3.056l27.023,3.8a3.747,3.747,0,0,0,3.7-1.739,4.115,4.115,0,0,0,.233-4.227l-13.073-24.952a9.959,9.959,0,0,1-.121-8.867L407.721,476.4a4.075,4.075,0,0,0-.346-4.2,3.571,3.571,0,0,0-3.746-1.446l-26.89,5.923a8.616,8.616,0,0,1-8.058-2.425l-19.37-19.84A3.556,3.556,0,0,0,345.4,453.543Zm407.594-206.08a11.775,11.775,0,0,1-7.484-1.582,12.352,12.352,0,0,1-5.836-11.951l3.673-38.937a5.278,5.278,0,0,0-1.84-4.59L712.68,166.619a12.621,12.621,0,0,1-4.076-12.773,13.418,13.418,0,0,1,9.441-9.946l36.814-10.057a5.644,5.644,0,0,0,3.733-3.425l14.2-36.735a13.221,13.221,0,0,1,10.665-8.5,11.713,11.713,0,0,1,11.675,5.8l19.078,32.72a4.945,4.945,0,0,0,4.148,2.474l37.6,1.08a11.746,11.746,0,0,1,10.669,7.521,13.42,13.42,0,0,1-2.229,13.532L839.372,178.6a5.709,5.709,0,0,0-1.169,4.951l9.038,37.4a13.557,13.557,0,0,1-4.073,13.147,12.341,12.341,0,0,1-13.051,2.56l-34.544-14.007a5.164,5.164,0,0,0-4.871.588l-32.009,22.036A12.754,12.754,0,0,1,752.989,247.463ZM783.98,92.623a5.482,5.482,0,0,0-4.481,3.571l-14.2,36.736a13.427,13.427,0,0,1-8.886,8.151L719.6,151.137a5.568,5.568,0,0,0-3.966,4.179,5.237,5.237,0,0,0,1.711,5.366l28.822,23.785a12.557,12.557,0,0,1,4.381,10.923l-3.672,38.939a5.122,5.122,0,0,0,2.451,5.021,5.019,5.019,0,0,0,5.54-.255l32.011-22.036a12.286,12.286,0,0,1,11.592-1.4l34.545,14.007a5.122,5.122,0,0,0,5.483-1.075,5.624,5.624,0,0,0,1.711-5.524l-9.038-37.4a13.6,13.6,0,0,1,2.784-11.789L858.979,143.6a5.569,5.569,0,0,0,.936-5.686,4.876,4.876,0,0,0-4.483-3.159l-37.6-1.08a11.765,11.765,0,0,1-9.872-5.888l-19.079-32.72A4.857,4.857,0,0,0,783.98,92.623ZM44.989,508.463a11.776,11.776,0,0,1-7.484-1.582,12.354,12.354,0,0,1-5.836-11.952l3.673-38.937a5.278,5.278,0,0,0-1.84-4.59L4.68,427.618A12.619,12.619,0,0,1,.6,414.846a13.419,13.419,0,0,1,9.441-9.946l36.814-10.057a5.643,5.643,0,0,0,3.733-3.425l14.2-36.735a13.222,13.222,0,0,1,10.665-8.5,11.71,11.71,0,0,1,11.674,5.8l19.079,32.721a4.945,4.945,0,0,0,4.148,2.474l37.6,1.08a11.749,11.749,0,0,1,10.669,7.52,13.421,13.421,0,0,1-2.229,13.533L131.372,439.6a5.712,5.712,0,0,0-1.169,4.952l9.038,37.4a13.558,13.558,0,0,1-4.074,13.148,12.34,12.34,0,0,1-13.05,2.559L87.573,483.651a5.163,5.163,0,0,0-4.87.588l-32.01,22.036A12.749,12.749,0,0,1,44.989,508.463ZM75.98,353.623a5.481,5.481,0,0,0-4.481,3.57L57.3,393.929a13.426,13.426,0,0,1-8.885,8.151L11.6,412.137a5.569,5.569,0,0,0-3.967,4.179,5.237,5.237,0,0,0,1.712,5.366l28.822,23.785a12.558,12.558,0,0,1,4.381,10.924l-3.673,38.938a5.125,5.125,0,0,0,2.451,5.021,5.021,5.021,0,0,0,5.54-.255l32.011-22.036a12.287,12.287,0,0,1,11.592-1.4l34.545,14.007a5.122,5.122,0,0,0,5.483-1.075,5.624,5.624,0,0,0,1.711-5.524l-9.038-37.4a13.6,13.6,0,0,1,2.784-11.789L150.979,404.6a5.567,5.567,0,0,0,.936-5.685,4.876,4.876,0,0,0-4.483-3.16l-37.6-1.08a11.767,11.767,0,0,1-9.872-5.887L80.884,356.062A4.856,4.856,0,0,0,75.98,353.623Zm144.009-191.16a11.775,11.775,0,0,1-7.484-1.582,12.352,12.352,0,0,1-5.836-11.952l3.673-38.937a5.281,5.281,0,0,0-1.84-4.59L179.68,81.619A12.62,12.62,0,0,1,175.6,68.846a13.417,13.417,0,0,1,9.441-9.946l36.814-10.057a5.64,5.64,0,0,0,3.733-3.425l14.2-36.736a13.221,13.221,0,0,1,10.665-8.5,11.711,11.711,0,0,1,11.675,5.8l19.078,32.721a4.944,4.944,0,0,0,4.148,2.474l37.6,1.08a11.747,11.747,0,0,1,10.669,7.52,13.421,13.421,0,0,1-2.229,13.533L306.372,93.6a5.712,5.712,0,0,0-1.169,4.952l9.038,37.4a13.557,13.557,0,0,1-4.073,13.146,12.341,12.341,0,0,1-13.051,2.56l-34.544-14.007a5.164,5.164,0,0,0-4.871.588l-32.009,22.036A12.766,12.766,0,0,1,219.989,162.463ZM250.98,7.623a5.483,5.483,0,0,0-4.481,3.57L232.3,47.929a13.429,13.429,0,0,1-8.886,8.151L186.6,66.137a5.569,5.569,0,0,0-3.968,4.179,5.24,5.24,0,0,0,1.712,5.366l28.822,23.784a12.558,12.558,0,0,1,4.381,10.924l-3.672,38.938a5.122,5.122,0,0,0,2.451,5.021,5.019,5.019,0,0,0,5.54-.255l32.011-22.036a12.283,12.283,0,0,1,11.592-1.4l34.545,14.007a5.122,5.122,0,0,0,5.482-1.075,5.619,5.619,0,0,0,1.712-5.524l-9.038-37.4a13.6,13.6,0,0,1,2.784-11.789L325.979,58.6a5.568,5.568,0,0,0,.936-5.686,4.876,4.876,0,0,0-4.483-3.16l-37.6-1.08a11.766,11.766,0,0,1-9.872-5.888L255.884,10.062A4.857,4.857,0,0,0,250.98,7.623Z" transform="translate(-0.219 -0.094)"/>
</svg>
