<svg xmlns="http://www.w3.org/2000/svg" xmlns:xlink="http://www.w3.org/1999/xlink" width="0" height="0" style="position:absolute">
	
		<symbol id="i1" viewBox="0 0 71.665 78.952">
			<defs><path id="i1-a" d="M0 0h71.665v78.952H0z"></path></defs><clipPath id="i1-b"><use xlink:href="#a" overflow="visible"></use></clipPath><g clip-path="url(#b)"><defs><path id="i1-c" d="M0 0h71.665v78.952H0z"></path></defs><clipPath id="i1-d"><use xlink:href="#c" overflow="visible"></use></clipPath><g opacity=".2" clip-path="url(#d)"><defs><path id="i1-e" d="M5.462 21.288h47.157v57.664H5.462z"></path></defs><clipPath id="i1-f"><use xlink:href="#e" overflow="visible"></use></clipPath><path clip-path="url(#f)" fill="#FFF31A" d="M35.938 78.813L8.13 70.943a3.666 3.666 0 0 1-2.528-4.525l12.017-42.462a3.664 3.664 0 0 1 4.525-2.528l27.807 7.869a3.667 3.667 0 0 1 2.529 4.525L40.463 76.284a3.666 3.666 0 0 1-4.525 2.529"></path></g><path clip-path="url(#d)" fill="none" stroke="#000" stroke-width="3" stroke-linecap="round" stroke-linejoin="round" stroke-miterlimit="10" d="M57.313 32.877L46.472 71.183c-.741 2.616-3.46 4.148-6.077 3.406l-25.387-7.184a4.938 4.938 0 0 1-3.403-6.09l10.84-38.306c.741-2.617 3.47-4.131 6.086-3.39l3.746 1.06-.007.026a3.451 3.451 0 0 0 2.37 4.259l11.263 3.187a3.447 3.447 0 0 0 2.623-.31 3.447 3.447 0 0 0 1.64-2.072l.007-.025 3.745 1.06a4.916 4.916 0 0 1 3.395 6.073z"></path><path clip-path="url(#d)" fill="none" stroke="#000" stroke-width="3" stroke-linecap="round" stroke-linejoin="round" stroke-miterlimit="10" d="M50.173 25.744l-.008.025a3.443 3.443 0 0 1-1.639 2.072 3.444 3.444 0 0 1-2.624.311l-11.263-3.188a3.451 3.451 0 0 1-2.369-4.259l.007-.025a3.434 3.434 0 0 1 1.628-2.034 3.417 3.417 0 0 1 2.611-.314l11.263 3.187c1.822.516 2.893 2.413 2.394 4.225zM25.548 33.866l1.845 3.302 7.678-4.291M37.144 38.547l11.47 3.246M22.334 45.223l1.845 3.302 7.678-4.29M33.929 49.906l11.47 3.245M19.119 56.581l1.845 3.302 7.678-4.291M30.715 61.263l11.47 3.246"></path><path clip-path="url(#d)" fill="none" stroke="#50C962" stroke-width="3" stroke-linecap="round" stroke-linejoin="round" stroke-miterlimit="10" d="M61.083 53.227a5.686 5.686 0 0 1 8.093 1.322c1.666 2.41 1.179 5.803-1.098 7.648a5.69 5.69 0 0 1-6.321.572c-1.411-.773-3.16-.571-4.448.394l-.971.726M51.87 67.236l-.083.062M61.369 9.079a4.167 4.167 0 0 1 2.176-1.189 4.19 4.19 0 0 1 3.871 1.218c1.491 1.563 1.528 4.09.083 5.696a4.196 4.196 0 0 1-4.538 1.146c-1.117-.4-2.367-.052-3.194.8l-.623.641M56.514 20.1l-.053.055M1.671 10.406a7.31 7.31 0 0 1 .365-4.323 7.33 7.33 0 0 1 5.513-4.471c3.721-.668 7.443 1.716 8.391 5.376a7.337 7.337 0 0 1-2.708 7.727c-1.662 1.243-2.36 3.404-1.915 5.432l.334 1.528M12.722 26.56l.029.131"></path></g>
		</symbol>
	
		<symbol id="i2" viewBox="0 0 76.113 76.558">
			<defs><path id="i2-a" d="M0 0h76.113v76.558H0z"></path></defs><clipPath id="i2-b"><use xlink:href="#a" overflow="visible"></use></clipPath><g clip-path="url(#b)"><defs><path id="i2-c" d="M0 0h76.112v76.558H0z"></path></defs><clipPath id="i2-d"><use xlink:href="#c" overflow="visible"></use></clipPath><g opacity=".2" clip-path="url(#d)"><defs><path id="i2-e" d="M17.485 13.569h37.817v52.084H17.485z"></path></defs><clipPath id="i2-f"><use xlink:href="#e" overflow="visible"></use></clipPath><path clip-path="url(#f)" fill="#FFF31A" d="M51.535 65.652H21.253a3.767 3.767 0 0 1-3.767-3.767V17.336a3.767 3.767 0 0 1 3.767-3.768h30.282a3.768 3.768 0 0 1 3.768 3.768v44.549a3.768 3.768 0 0 1-3.768 3.767"></path></g><path clip-path="url(#d)" fill="none" stroke="#000" stroke-width="3" stroke-linecap="round" stroke-linejoin="round" stroke-miterlimit="10" d="M36.412 69.02l-18.85 5.87c-1.97.61-4.07-.49-4.69-2.46l-11.2-36.01c-.62-1.98.49-4.07 2.46-4.69l18.22-5.67.63-.2c1.98-.61 4.08.49 4.69 2.47l6.46 20.73 1.86 6 1.93 6.2.96 3.071a3.745 3.745 0 0 1-2.47 4.689z"></path><path clip-path="url(#d)" fill="none" stroke="#000" stroke-width="3" stroke-linecap="round" stroke-linejoin="round" stroke-miterlimit="10" d="M49.582 13.61v37.709a3.735 3.735 0 0 1-3.74 3.741h-9.85l-1.86-6-6.46-20.73a3.747 3.747 0 0 0-4.691-2.47l-.629.2V13.61c0-2.07 1.669-3.74 3.74-3.74h19.75c2.07 0 3.74 1.67 3.74 3.74z"></path><path clip-path="url(#d)" fill="none" stroke="#000" stroke-width="3" stroke-linecap="round" stroke-linejoin="round" stroke-miterlimit="10" d="M74.112 34.28L55.253 66.94a3.743 3.743 0 0 1-5.111 1.37l-12.219-7.05-1.931-6.2h9.85a3.735 3.735 0 0 0 3.741-3.74V22.3l.939-1.63a3.739 3.739 0 0 1 5.12-1.37l17.1 9.87a3.742 3.742 0 0 1 1.37 5.11zM17.373 41.05l5.804 18.649M53.585 30.918l-3.666 6.309M58.208 33.766L50.432 47.15M62.832 36.614l-9.813 16.888M32.39 20.699v19.532M38.05 20.699v19.532"></path><path clip-path="url(#d)" fill="none" stroke="#50C962" stroke-width="3" stroke-linecap="round" stroke-linejoin="round" stroke-miterlimit="10" d="M10.996 19.699l-4.702-.906M14.58 11.908L4.71 5.015M20.701 4.784L17.996 1.5M51.752 5.44l1.544-3.064M56.846 10.547l6.778-6.638M61.826 15.142l6.65-.255"></path></g>
		</symbol>
	
		<symbol id="i3" viewBox="0 0 76.213 77.025">
			<defs><path id="i3-a" d="M0 0h76.213v77.025H0z"></path></defs><clipPath id="i3-b"><use xlink:href="#a" overflow="visible"></use></clipPath><g clip-path="url(#b)"><defs><path id="i3-c" d="M0 0h76.213v77.025H0z"></path></defs><clipPath id="i3-d"><use xlink:href="#c" overflow="visible"></use></clipPath><g opacity=".2" clip-path="url(#d)"><defs><path id="i3-e" d="M17.754 35.267h39.877v34.109H17.754z"></path></defs><clipPath id="i3-f"><use xlink:href="#e" overflow="visible"></use></clipPath><path clip-path="url(#f)" fill="#FFF31A" d="M54.501 69.376H20.885a3.13 3.13 0 0 1-3.131-3.13V38.398a3.131 3.131 0 0 1 3.131-3.131h33.616a3.131 3.131 0 0 1 3.131 3.131v27.848a3.13 3.13 0 0 1-3.131 3.13"></path></g><path clip-path="url(#d)" fill="none" stroke="#50C962" stroke-width="3" stroke-linecap="round" stroke-linejoin="round" stroke-miterlimit="10" d="M30.929 8.827l6.743 7.554L50.955 1.5"></path></g><path clip-path="url(#b)" fill="none" stroke="#50C962" stroke-width="3" stroke-linecap="round" stroke-linejoin="round" stroke-miterlimit="10" d="M59.568 17.009l2.945 3.3 5.802-6.501"></path><g clip-path="url(#b)"><defs><path id="i3-g" d="M0 0h76.213v77.025H0z"></path></defs><clipPath id="i3-h"><use xlink:href="#g" overflow="visible"></use></clipPath><path clip-path="url(#h)" fill="none" stroke="#50C962" stroke-width="3" stroke-linecap="round" stroke-linejoin="round" stroke-miterlimit="10" d="M5.16 18.608l4.257 4.769 8.386-9.395"></path><path clip-path="url(#h)" fill="none" stroke="#000" stroke-width="3" stroke-linecap="round" stroke-linejoin="round" stroke-miterlimit="10" d="M3.201 62.897c-.02-.021-.04-.03-.06-.05-.03-.03-.06-.07-.09-.11.05.05.1.099.15.16zM7.262 54.767v.01l-4.12 4.11c-.58.59-.86 1.38-.81 2.14l-.81-7.271a2.792 2.792 0 0 1 2.42-3.119 2.795 2.795 0 0 1 3.13 2.42l.19 1.71z"></path><path clip-path="url(#h)" fill="none" stroke="#000" stroke-width="3" stroke-linecap="round" stroke-linejoin="round" stroke-miterlimit="10" d="M3.201 62.897c-.02-.021-.04-.03-.06-.05-.03-.03-.06-.07-.09-.11.05.05.1.099.15.16zM73.101 62.797c-.01.021-.02.03-.04.051-.02.019-.04.029-.06.05l.1-.101zM74.691 53.757l-.81 7.271c.04-.76-.23-1.55-.82-2.14l-4.109-4.11.189-1.72c.08-.651.37-1.2.79-1.62.601-.59 1.441-.92 2.33-.8a2.798 2.798 0 0 1 2.43 3.119z"></path><path clip-path="url(#h)" fill="none" stroke="#000" stroke-width="3" stroke-linecap="round" stroke-linejoin="round" stroke-miterlimit="10" d="M73.101 62.797c-.01.021-.02.03-.04.051-.02.019-.04.029-.06.05l.1-.101z"></path><path clip-path="url(#h)" fill="none" stroke="#000" stroke-width="3" stroke-linecap="round" stroke-linejoin="round" stroke-miterlimit="10" d="M73.882 61.027l-.02.189c-.01.111-.03.231-.06.341-.01.02-.01.07-.03.1-.03.099-.06.18-.1.269-.03.08-.07.161-.11.25-.08.151-.19.311-.31.461a1.1 1.1 0 0 1-.15.16l-.1.1c-.02.02-.04.029-.06.05-.05.05-.1.09-.16.14-.06.05-.12.089-.19.129-.07.051-.13.091-.2.131-.08.04-.16.07-.25.11-.08.03-.17.07-.26.09-.07.02-.15.05-.24.06-.01.01-.01 0-.02.01-.17.04-.36.05-.54.05-.11 0-.22-.01-.33-.02-.14-.02-.27-.04-.41-.08-.34-.101-.65-.26-.93-.47a1.81 1.81 0 0 1-.3-.25l-11.48-11.48c-.54-.54-.82-1.26-.82-1.97.02-1.01.57-2.05 1.67-2.55 1.08-.5 2.37-.171 3.21.67l7.26 7.26 4.11 4.11c.59.59.86 1.38.82 2.14z"></path><path clip-path="url(#h)" fill="none" stroke="#000" stroke-width="3" stroke-linecap="round" stroke-linejoin="round" stroke-miterlimit="10" d="M69.112 66.797a2.793 2.793 0 0 1-3.95 0l-3.261-3.26-8.22-8.21-2.389-2.4a2.773 2.773 0 0 1-.821-1.97c0-.72.271-1.439.821-1.979a2.794 2.794 0 0 1 3.95 0l13.87 13.87a2.793 2.793 0 0 1 0 3.949z"></path><path clip-path="url(#h)" fill="none" stroke="#000" stroke-width="3" stroke-linecap="round" stroke-linejoin="round" stroke-miterlimit="10" d="M65.162 70.757a2.793 2.793 0 0 1-3.95 0l-11.481-11.48a2.762 2.762 0 0 1-.819-1.98 2.796 2.796 0 0 1 4.77-1.97l8.219 8.21 3.261 3.26a2.807 2.807 0 0 1 0 3.96z"></path><path clip-path="url(#h)" fill="none" stroke="#000" stroke-width="3" stroke-linecap="round" stroke-linejoin="round" stroke-miterlimit="10" d="M61.212 74.707a2.807 2.807 0 0 1-3.96 0l-8.73-8.73a2.802 2.802 0 0 1-.8-2.31c.07-.59.34-1.17.8-1.64 1.09-1.1 2.86-1.1 3.96 0l8.73 8.73a2.794 2.794 0 0 1 0 3.95zM28.502 63.997c0 .72-.27 1.44-.82 1.98l-8.73 8.73a2.794 2.794 0 0 1-3.95 0 2.794 2.794 0 0 1 0-3.95l7.09-7.09 1.64-1.64c1.09-1.1 2.86-1.1 3.95 0a2.768 2.768 0 0 1 .82 1.97z"></path><path clip-path="url(#h)" fill="none" stroke="#000" stroke-width="3" stroke-linecap="round" stroke-linejoin="round" stroke-miterlimit="10" d="M27.302 57.297a2.8 2.8 0 0 1-.82 1.98l-2.75 2.75-1.64 1.64-7.09 7.09a2.793 2.793 0 0 1-3.95 0 2.807 2.807 0 0 1 0-3.96l3.13-3.13 8.34-8.34a2.807 2.807 0 0 1 3.96 0c.54.55.82 1.26.82 1.97z"></path><path clip-path="url(#h)" fill="none" stroke="#000" stroke-width="3" stroke-linecap="round" stroke-linejoin="round" stroke-miterlimit="10" d="M25.742 50.957c0 .71-.28 1.42-.82 1.97l-2.4 2.4-8.34 8.34-3.13 3.13a2.793 2.793 0 0 1-3.95 0 2.775 2.775 0 0 1 0-3.949l6.42-6.421 7.45-7.449a2.794 2.794 0 0 1 4.77 1.979z"></path><path clip-path="url(#h)" fill="none" stroke="#000" stroke-width="3" stroke-linecap="round" stroke-linejoin="round" stroke-miterlimit="10" d="M19.391 49.397c0 .71-.27 1.43-.81 1.97l-5.06 5.059-6.42 6.421c-.09.09-.2.18-.3.25-.28.21-.59.369-.94.47-.13.04-.26.059-.4.08-.11.01-.22.02-.33.02-.18 0-.37-.01-.54-.05-.01-.01-.02 0-.03-.01-.08-.01-.16-.04-.23-.061-.09-.019-.18-.059-.26-.089-.09-.04-.18-.07-.25-.11-.12-.07-.24-.15-.35-.221-.02-.019-.03-.029-.05-.04-.05-.049-.1-.089-.16-.139-.02-.021-.04-.03-.06-.05-.05-.061-.1-.11-.15-.16-.03-.03-.06-.07-.09-.1-.12-.15-.23-.31-.31-.461-.04-.09-.08-.17-.12-.25-.03-.09-.06-.17-.09-.269a.224.224 0 0 1-.029-.1 1.952 1.952 0 0 1-.071-.341l-.01-.189c-.05-.76.23-1.55.81-2.14l4.12-4.11v-.01l6.26-6.25 1-1c.84-.841 2.13-1.17 3.21-.67 1.1.5 1.65 1.54 1.66 2.55z"></path><path clip-path="url(#h)" fill="none" stroke="#000" stroke-width="3" stroke-linecap="round" stroke-linejoin="round" stroke-miterlimit="10" d="M33.772 40.607v23.06h-5.29c-.07-.59-.33-1.17-.8-1.64a2.775 2.775 0 0 0-3.95 0l2.75-2.75c.54-.54.82-1.26.82-1.981 0-.71-.28-1.419-.82-1.969a2.807 2.807 0 0 0-3.96 0l2.4-2.401a2.81 2.81 0 0 0 .82-1.969 2.794 2.794 0 0 0-4.77-1.98l-2.39 2.39c.54-.54.81-1.26.81-1.97a2.81 2.81 0 0 0-1.66-2.55c-1.08-.5-2.37-.171-3.21.67l-1 1v-7.91h20.25zM61.901 40.607v7.12l-.21-.21c-.84-.841-2.13-1.17-3.21-.67-1.1.5-1.649 1.54-1.67 2.55 0 .71.28 1.43.82 1.97l-2.389-2.39a2.794 2.794 0 0 0-3.95 0c-.55.54-.821 1.26-.821 1.98 0 .71.271 1.42.821 1.969l2.389 2.401a2.794 2.794 0 0 0-4.769 1.969c0 .721.269 1.441.819 1.981l2.75 2.75a2.787 2.787 0 0 0-3.96 0c-.46.47-.729 1.05-.8 1.64h-5.78v-23.06h19.96z"></path><path clip-path="url(#h)" fill="none" stroke="#000" stroke-width="3" stroke-linecap="round" stroke-linejoin="round" stroke-miterlimit="10" d="M11.482 31.928h22.29v8.68h-22.29zM41.941 31.928h22v8.68h-22zM33.772 31.207h8.169v33.34h-8.169z"></path><path clip-path="url(#h)" fill="none" stroke="#000" stroke-width="3" stroke-linecap="round" stroke-linejoin="round" stroke-miterlimit="10" d="M38.518 30.999s14.776 2.038 14.417-6.643c-.253-6.105-6.523-7.404-10.166-3.319-3.644 4.085-4.251 9.962-4.251 9.962zM37.693 30.999s-14.776 2.038-14.417-6.643c.252-6.105 6.523-7.404 10.166-3.319 3.644 4.085 4.251 9.962 4.251 9.962z"></path></g>
		</symbol>
	
		<symbol id="i4" viewBox="0 0 66.23 76.855">
			<defs><path id="i4-a" d="M0 0h66.23v76.855H0z"></path></defs><clipPath id="i4-b"><use xlink:href="#a" overflow="visible"></use></clipPath><g clip-path="url(#b)"><defs><path id="i4-c" d="M0 0h66.23v76.855H0z"></path></defs><clipPath id="i4-d"><use xlink:href="#c" overflow="visible"></use></clipPath><g opacity=".2" clip-path="url(#d)"><defs><path id="i4-e" d="M14.68 62.394h48.86v14.461H14.68z"></path></defs><clipPath id="i4-f"><use xlink:href="#e" overflow="visible"></use></clipPath><path clip-path="url(#f)" fill="#FFF31A" d="M61.607 76.855H16.613a1.933 1.933 0 0 1-1.933-1.934V64.327c0-1.068.865-1.933 1.933-1.933h44.994c1.067 0 1.934.865 1.934 1.933v10.594a1.935 1.935 0 0 1-1.934 1.934"></path></g></g><path clip-path="url(#b)" fill="none" stroke="#000" stroke-width="3" stroke-linecap="round" stroke-linejoin="round" stroke-miterlimit="10" d="M10.68 33.715v-13.24h15.19"></path><g clip-path="url(#b)"><defs><path id="i4-g" d="M0 0h66.23v76.855H0z"></path></defs><clipPath id="i4-h"><use xlink:href="#g" overflow="visible"></use></clipPath><path clip-path="url(#h)" fill="none" stroke="#000" stroke-width="3" stroke-linecap="round" stroke-linejoin="round" stroke-miterlimit="10" d="M52.96 33.895v33.18H26.44c0 4.29-3.48 7.77-7.77 7.77l-.64.01a7.35 7.35 0 0 1-7.35-7.35v-26.65M37.77 20.475h15.189v6.25"></path><path clip-path="url(#h)" fill="none" stroke="#000" stroke-width="3" stroke-linecap="round" stroke-linejoin="round" stroke-miterlimit="10" d="M64.73 67.075c0 4.29-3.48 7.77-7.771 7.77H18.67c4.289 0 7.77-3.48 7.77-7.77h38.29zM26.724 38.202h11.149M17.214 45.862h29.383M17.214 53.138h29.383M17.214 60.415h19.021"></path><path clip-path="url(#h)" fill="none" stroke="#50C962" stroke-width="3" stroke-linecap="round" stroke-linejoin="round" stroke-miterlimit="10" d="M37.08 21.145l1.24 7.24-6.5-3.42-6.5 3.42 1.24-7.24-.69-.67-4.56-4.45 7.26-1.05 3.25-6.58 3.25 6.58 7.26 1.05-4.56 4.45z"></path><path clip-path="url(#h)" fill="none" stroke="#000" stroke-width="3" stroke-linecap="round" stroke-linejoin="round" stroke-miterlimit="10" d="M62.29 30.715l-3.77 1.68-.57.25-.88 4.67-3.17-3.54-.94.12-3.779.49 2.38-4.11-.261-.56-1.77-3.73 3.43.74 1.21.26 3.46-3.26.49 4.72zM14.68 41.285l-4-.43-.73-.08-3.09 3.61-.98-4.66-.58-.24-3.8-1.59 4.12-2.36.38-4.73 3.53 3.18 1.15-.27 3.47-.83-1.69 3.77-.25.57z"></path><path clip-path="url(#h)" fill="none" stroke="#50C962" stroke-width="3" stroke-linecap="round" stroke-linejoin="round" stroke-miterlimit="10" d="M31.905 1.5v1.787M23.786 2.948l.791 1.603M18.198 7.915l1.507.96M15.158 14.552l1.75.362M39.798 2.948l-.791 1.603M45.386 7.915l-1.509.96M48.425 14.552l-1.751.362"></path></g>
		</symbol>
	
		<symbol id="i5" viewBox="0 0 66.761 76.891">
			<defs><path id="i5-a" d="M0 0h66.761v76.891H0z"></path></defs><clipPath id="i5-b"><use xlink:href="#a" overflow="visible"></use></clipPath><g clip-path="url(#b)"><defs><path id="i5-c" d="M0 0h66.761v76.891H0z"></path></defs><clipPath id="i5-d"><use xlink:href="#c" overflow="visible"></use></clipPath><g opacity=".2" clip-path="url(#d)"><defs><path id="i5-e" d="M4.536 39.071H61.71v30.846H4.536z"></path></defs><clipPath id="i5-f"><use xlink:href="#e" overflow="visible"></use></clipPath><path clip-path="url(#f)" fill="#FFF31A" d="M33.123 53.923c-10.358 0-19.425-5.512-24.437-13.76-1.167-1.92-4.145-1.153-4.15 1.094-.002.831.032 1.671.104 2.518C5.839 57.889 17.484 69.16 31.631 69.879c16.466.837 30.079-12.267 30.079-28.549v-.084c-.006-2.241-2.985-2.999-4.15-1.084-5.012 8.249-14.079 13.761-24.437 13.761"></path></g><path clip-path="url(#d)" fill="none" stroke="#000" stroke-width="3" stroke-linecap="round" stroke-linejoin="round" stroke-miterlimit="10" d="M33.381 9.615c17.607 0 31.881 14.273 31.881 31.88 0 17.608-14.274 31.881-31.881 31.881S1.5 59.103 1.5 41.495c0-17.607 14.274-31.88 31.881-31.88z"></path><path clip-path="url(#d)" fill="none" stroke="#000" stroke-width="3" stroke-linecap="round" stroke-linejoin="round" stroke-miterlimit="10" d="M50.509 23.355c4.815 4.548 7.82 10.994 7.82 18.141 0 13.779-11.17 24.949-24.948 24.949-13.779 0-24.949-11.17-24.949-24.949s11.17-24.949 24.949-24.949c2.441 0 4.802.35 7.032 1.005"></path><path clip-path="url(#d)" fill="none" stroke="#50C962" stroke-width="3" stroke-linecap="round" stroke-linejoin="round" stroke-miterlimit="10" d="M33.381 38.967a2.528 2.528 0 1 1 0 5.057 2.528 2.528 0 0 1 0-5.057z"></path><path clip-path="url(#d)" fill="none" stroke="#000" stroke-width="3" stroke-linecap="round" stroke-linejoin="round" stroke-miterlimit="10" d="M45.49 53.605c-6.687 6.688-17.531 6.688-24.219 0M22.436 6.362l-14.841 8.76a8.617 8.617 0 0 1 14.841-8.76zM16.452 13.175l-1.437-2.434M10.636 3.321l-1.075-1.82M44.522 6.362l14.841 8.76a8.618 8.618 0 0 0-14.841-8.76zM51.943 10.741l-1.437 2.434M57.397 1.5l-1.074 1.82M56.683 73.487l-2.844 1.904-5.596-4.906 6.037-4.042zM10.197 73.487l2.845 1.904 5.596-4.906-6.037-4.042z"></path><path clip-path="url(#d)" fill="none" stroke="#50C962" stroke-width="3" stroke-linecap="round" stroke-linejoin="round" stroke-miterlimit="10" d="M33.381 28.311v10.656M34.64 39.315l11.544-19.98"></path></g>
		</symbol>
	
		<symbol id="i6" viewBox="0 0 75.603 76.4">
			<defs><path id="i6-a" d="M0 0h75.603v76.4H0z"></path></defs><clipPath id="i6-b"><use xlink:href="#a" overflow="visible"></use></clipPath><g clip-path="url(#b)"><defs><path id="i6-c" d="M0 0h75.603v76.4H0z"></path></defs><clipPath id="i6-d"><use xlink:href="#c" overflow="visible"></use></clipPath><g opacity=".2" clip-path="url(#d)"><defs><path id="i6-e" d="M26.286 29.517h23.059v43.745H26.286z"></path></defs><clipPath id="i6-f"><use xlink:href="#e" overflow="visible"></use></clipPath><path clip-path="url(#f)" fill="#FFF31A" d="M49.345 51.39c0 12.08-5.162 21.872-11.529 21.872-6.368 0-11.53-9.792-11.53-21.872s5.162-21.873 11.53-21.873c6.367 0 11.529 9.793 11.529 21.873"></path></g><path clip-path="url(#d)" fill="none" stroke="#000" stroke-width="3" stroke-linecap="round" stroke-linejoin="round" stroke-miterlimit="10" d="M42.671 54.1v5.2c0 2.7-2.2 4.901-4.9 5h-.5c-2.701-.099-4.8-2.3-4.9-5v-5.599c1.6 1.599 3.4 2.699 5.3 2.699 1.899 0 3.5-.9 5-2.3z"></path><path clip-path="url(#d)" fill="none" stroke="#000" stroke-width="3" stroke-linecap="round" stroke-linejoin="round" stroke-miterlimit="10" d="M48.471 38.3c0 4.7-2.5 12.1-6.2 15.8-1.401 1.4-2.901 2.2-4.5 2.2-1.8 0-3.4-1-4.9-2.7-3.4-3.8-5.8-10.9-5.8-15.4 0-6.4 4.8-11.7 10.7-11.7 5.9.1 10.7 5.3 10.7 11.8zM62.471 74.9h-49.3s-1.1-8 6.6-11.699c3.2-1.5 5.8-2.5 8.3-3.101 0 7.2 4.5 7.5 4.5 7.5l5.1-3.2 5.1 3.2s4.5-.3 4.5-7.5l-.1-.099.6.2c2.4.599 5.099 1.599 8.2 3.099 7.5 3.6 6.5 11.6 6.5 11.6z"></path><path clip-path="url(#d)" fill="none" stroke="#000" stroke-width="3" stroke-linecap="round" stroke-linejoin="round" stroke-miterlimit="10" d="M37.771 64.3l-.2.1-5.1 3.2s-4.5-.3-4.5-7.5c1.9-2.4 4.5-4.7 4.5-4.7v3.9c.1 2.7 2.2 4.8 4.9 5h.4z"></path><path clip-path="url(#d)" fill="none" stroke="#000" stroke-width="3" stroke-linecap="round" stroke-linejoin="round" stroke-miterlimit="10" d="M47.171 60.1c0 7.2-4.5 7.5-4.5 7.5l-5.101-3.2.201-.1c2.7-.099 4.9-2.3 4.9-5V55.5c.3.3 2.6 2.3 4.3 4.5.099 0 .099.1.2.1zM42.671 55.5c0-.101 0-.101 0 0M37.57 64.4l-.2-.1M74.07 74.9h-11.6s1.1-8-6.6-11.699c-.6-.301-1.199-.601-1.8-.801l.3-.3v-.599c-2.1-2.601-3.5-6.901-3.5-9.8 0-4.2 3.1-7.7 7-7.7s7 3.399 7 7.7c0 3-1.5 7.599-3.8 10.099v.3c.2.2 1.7 1.5 2.8 3l.4.101c1.6.399 3.3 1 5.401 2C74.77 69.6 74.07 74.9 74.07 74.9zM5.933 67.2c2.1-1 3.8-1.601 5.4-2l.4-.101c1.1-1.5 2.6-2.799 2.8-3V61.8c-2.3-2.5-3.8-7.1-3.8-10.1 0-4.301 3.1-7.7 7-7.7s7 3.5 7 7.7c0 2.899-1.4 7.199-3.5 9.8v.599l.3.3c-.6.2-1.2.5-1.8.801-7.7 3.699-6.6 11.699-6.6 11.699h-11.6s-.7-5.3 4.4-7.699z"></path><path clip-path="url(#d)" fill="none" stroke="#50C962" stroke-width="3" stroke-linecap="round" stroke-linejoin="round" stroke-miterlimit="10" d="M30.771 8.7l6.5 6.9 13.3-14.1"></path><path clip-path="url(#d)" fill="none" stroke="#50C962" stroke-width="3" stroke-linecap="round" stroke-linejoin="round" stroke-miterlimit="10" d="M33.57 5.6c1.2-.7 2.7-1.1 4.2-1.1 4.7 0 8.401 3.8 8.401 8.4s-3.801 8.4-8.401 8.4-8.4-3.8-8.4-8.4"></path><path clip-path="url(#d)" fill="none" stroke="#000" stroke-width="3" stroke-linecap="round" stroke-linejoin="round" stroke-miterlimit="10" d="M27.07 38.2s2.198 1.956 5.3 1.616c-.472-.937 0-4.426 0-4.426s5.39 7.441 16.076 3.721"></path></g>
		</symbol>
	
</svg>
