<svg width="46" height="29" viewBox="0 0 46 29" fill="none" xmlns="http://www.w3.org/2000/svg">
<path d="M29.367 3.81714H17.1426V25.6974H29.367V3.81714Z" fill="#F26522"/>
<path d="M17.9523 14.7737C17.9523 10.3459 20.0276 6.37063 23.2701 3.84971C20.903 1.97518 17.9199 0.843994 14.6773 0.843994C6.96007 0.843994 0.734375 7.08165 0.734375 14.7414C0.734375 22.4334 6.9925 28.6387 14.6773 28.6387C17.9199 28.6387 20.9355 27.5399 23.3025 25.6654C20.06 23.1444 17.9523 19.2015 17.9523 14.7737Z" fill="#E52423"/>
<path d="M44.5416 23.3707V22.9182H44.7362V22.8213H44.2822V22.9182H44.4768V23.3707H44.5416ZM45.4495 23.3707V22.8213H45.2874L45.1253 23.1768L44.9632 22.8213H44.8335V23.3707H44.9307V22.9506L45.0929 23.3061H45.1901L45.3523 22.9506V23.3707H45.4495Z" fill="#F99F1C"/>
<path d="M31.9279 0.843994C28.6854 0.843994 25.6698 1.94286 23.3027 3.81739C26.5453 6.37063 28.6205 10.3136 28.6205 14.7414C28.6205 19.1691 26.5453 23.1444 23.3027 25.6654C25.6698 27.5399 28.6854 28.6387 31.9279 28.6387C39.6452 28.6387 45.8709 22.4011 45.8709 14.7414C45.8709 7.08165 39.6128 0.843994 31.9279 0.843994Z" fill="#F99F1C"/>
</svg>
