<svg width="19" height="19" viewBox="0 0 19 19" fill="none" xmlns="http://www.w3.org/2000/svg">
<path d="M9.5 5C7.01786 5 5 7.01786 5 9.5C5 11.9821 7.01786 14 9.5 14C11.9821 14 14 11.9821 14 9.5C14 7.01786 11.9821 5 9.5 5ZM9.5 12.8393C7.66071 12.8393 6.16071 11.3393 6.16071 9.5C6.16071 7.66071 7.66071 6.16071 9.5 6.16071C11.3393 6.16071 12.8393 7.66071 12.8393 9.5C12.8393 11.3393 11.3393 12.8393 9.5 12.8393Z" fill="black" stroke="black" stroke-width="0.5"/>
<path d="M9.50139 4.07143C9.82282 4.07143 10.0907 3.80357 10.0907 3.48214V1.58929C10.0907 1.26786 9.82282 1 9.50139 1C9.17997 1 8.91211 1.26786 8.91211 1.58929V3.48214C8.91211 3.82143 9.17997 4.07143 9.50139 4.07143Z" fill="black" stroke="black" stroke-width="0.5"/>
<path d="M4.83956 5.66069C4.94671 5.76783 5.10742 5.83926 5.25028 5.83926C5.39314 5.83926 5.55385 5.78569 5.66099 5.66069C5.89314 5.42854 5.89314 5.0714 5.66099 4.83926L4.32171 3.49997C4.08956 3.26783 3.73242 3.26783 3.50028 3.49997C3.26814 3.73212 3.26814 4.08926 3.50028 4.3214L4.83956 5.66069Z" fill="black" stroke="black" stroke-width="0.5"/>
<path d="M4.07143 9.49999C4.07143 9.17856 3.80357 8.91071 3.48214 8.91071H1.58929C1.26786 8.91071 1 9.17856 1 9.49999C1 9.82142 1.26786 10.0893 1.58929 10.0893H3.48214C3.82143 10.0893 4.07143 9.82142 4.07143 9.49999Z" fill="black" stroke="black" stroke-width="0.5"/>
<path d="M4.83956 13.3393L3.50028 14.6786C3.26814 14.9107 3.26814 15.2678 3.50028 15.5C3.60742 15.6071 3.76814 15.6786 3.91099 15.6786C4.05385 15.6786 4.21456 15.625 4.32171 15.5L5.66099 14.1607C5.89314 13.9286 5.89314 13.5714 5.66099 13.3393C5.44671 13.1071 5.07171 13.1071 4.83956 13.3393Z" fill="black" stroke="black" stroke-width="0.5"/>
<path d="M9.50139 14.9286C9.17997 14.9286 8.91211 15.1964 8.91211 15.5179V17.4107C8.91211 17.7322 9.17997 18 9.50139 18C9.82282 18 10.0907 17.7322 10.0907 17.4107V15.5179C10.0907 15.1786 9.82282 14.9286 9.50139 14.9286Z" fill="black" stroke="black" stroke-width="0.5"/>
<path d="M14.1616 13.3393C13.9294 13.1071 13.5723 13.1071 13.3401 13.3393C13.108 13.5714 13.108 13.9286 13.3401 14.1607L14.6794 15.5C14.7866 15.6071 14.9473 15.6786 15.0901 15.6786C15.233 15.6786 15.3937 15.625 15.5008 15.5C15.733 15.2678 15.733 14.9107 15.5008 14.6786L14.1616 13.3393Z" fill="black" stroke="black" stroke-width="0.5"/>
<path d="M17.3923 8.91071H15.4994C15.178 8.91071 14.9102 9.17856 14.9102 9.49999C14.9102 9.82142 15.178 10.0893 15.4994 10.0893H17.3923C17.7137 10.0893 17.9816 9.82142 17.9816 9.49999C17.9816 9.17856 17.7137 8.91071 17.3923 8.91071Z" fill="black" stroke="black" stroke-width="0.5"/>
<path d="M13.7508 5.83926C13.8937 5.83926 14.0544 5.78569 14.1616 5.66069L15.5008 4.3214C15.733 4.08926 15.733 3.73212 15.5008 3.49997C15.2687 3.26783 14.9116 3.26783 14.6794 3.49997L13.3401 4.83926C13.108 5.0714 13.108 5.42854 13.3401 5.66069C13.4473 5.78569 13.5901 5.83926 13.7508 5.83926Z" fill="black" stroke="black" stroke-width="0.5"/>
</svg>
