<svg width="45" height="47" viewBox="0 0 45 47" fill="none" xmlns="http://www.w3.org/2000/svg">
<path d="M44.8438 10.4665C44.8438 9.21654 44.2188 7.96654 43.125 7.18529L39.375 4.37279C39.375 4.21654 39.2188 4.21654 39.0625 4.06029L33.9062 0.622786C33.4375 0.310286 32.8125 0.466536 32.5 0.935286C32.1875 1.40404 32.3438 2.02904 32.8125 2.34154L37.1875 5.15404V8.74779C37.1875 9.84154 37.6562 10.779 38.5938 11.404L42.9688 14.6853V34.9978C42.9688 36.404 41.875 37.4978 40.4688 37.4978C39.0625 37.4978 37.9688 36.404 37.9688 34.9978V22.8103C37.9688 20.4665 36.0938 18.7478 33.9062 18.7478H33.5938V10.6228C33.5938 7.81029 31.4062 5.62279 28.5937 5.62279H8.75C5.9375 5.62279 3.75 7.81029 3.75 10.6228V44.2165H1.09375C0.46875 44.2165 0 44.6853 0 45.3103C0 45.9353 0.46875 46.404 1.09375 46.404H4.84375H32.6562H36.4062C37.0312 46.404 37.5 45.9353 37.5 45.3103C37.5 44.6853 36.875 44.2165 36.4062 44.2165H33.5938V20.6228H33.9062C35 20.6228 35.9375 21.5603 35.9375 22.654V34.8415C35.9375 37.3415 37.9688 39.3728 40.4688 39.3728C42.9688 39.3728 45 37.3415 45 34.8415V14.2165C45 14.0603 45 14.0603 45 13.904L44.8438 10.4665ZM5.78125 44.2165V27.9665H25.1562C25.7812 27.9665 26.25 27.4978 26.25 26.8728C26.25 26.2478 25.7812 25.779 25.1562 25.779H5.78125V10.6228C5.78125 9.06029 7.1875 7.65404 8.75 7.65404H28.5937C30.1562 7.65404 31.5625 9.06029 31.5625 10.6228V25.9353H28.9062C28.2812 25.9353 27.8125 26.404 27.8125 27.029C27.8125 27.654 28.2812 28.1228 28.9062 28.1228H31.5625V44.2165H5.78125ZM42.8125 12.029L39.6875 9.68529C39.375 9.52904 39.2188 9.06029 39.2188 8.74779V6.56029L42.0312 8.74779C42.5 9.06029 42.8125 9.68529 42.8125 10.3103V12.029Z" fill="black"/>
<path d="M29.0625 20.9353V12.9665C29.0625 11.404 27.8125 10.3103 26.4062 10.3103H10.9375C9.53125 10.154 8.28125 11.404 8.28125 12.9665V21.0915C8.28125 22.654 9.53125 23.7478 10.9375 23.7478H26.25C27.8125 23.7478 29.0625 22.4978 29.0625 20.9353ZM27.0312 20.9353C27.0312 21.2478 26.7188 21.5603 26.4062 21.5603H10.9375C10.625 21.5603 10.3125 21.2478 10.3125 20.9353V12.9665C10.3125 12.654 10.625 12.3415 10.9375 12.3415H26.25C26.5625 12.3415 26.875 12.654 26.875 12.9665V20.9353H27.0312Z" fill="black"/>
<path d="M14.0625 30.6228C13.4375 30.6228 12.9688 31.0916 12.9688 31.7166V40.6228C12.9688 41.2478 13.4375 41.7166 14.0625 41.7166C14.6875 41.7166 15.1562 41.2478 15.1562 40.6228V31.7166C15 31.0916 14.5312 30.6228 14.0625 30.6228Z" fill="black"/>
<path d="M18.75 30.6228C18.125 30.6228 17.6562 31.0916 17.6562 31.7166V40.6228C17.6562 41.2478 18.125 41.7166 18.75 41.7166C19.375 41.7166 19.8437 41.2478 19.8437 40.6228V31.7166C19.6875 31.0916 19.2187 30.6228 18.75 30.6228Z" fill="black"/>
<path d="M23.4375 30.6228C22.8125 30.6228 22.3438 31.0916 22.3438 31.7166V40.6228C22.3438 41.2478 22.8125 41.7166 23.4375 41.7166C24.0625 41.7166 24.5312 41.2478 24.5312 40.6228V31.7166C24.375 31.0916 23.9062 30.6228 23.4375 30.6228Z" fill="black"/>
</svg>
