<svg width="37" height="40" viewBox="0 0 37 40" fill="none" xmlns="http://www.w3.org/2000/svg">
<path d="M0 13.354L0 26.6692C0 29.0536 1.28342 31.2522 3.38071 32.4289L15.1506 39.1175C17.2166 40.2942 19.7834 40.2942 21.8494 39.1175L33.6193 32.4289C35.7166 31.2522 37 29.0536 37 26.6692V13.354C37 10.9696 35.7166 8.77105 33.6193 7.59435L21.8494 0.905748C19.7521 -0.301916 17.2166 -0.301916 15.1506 0.905748L3.38071 7.56338C1.28342 8.77105 0 10.9696 0 13.354Z" fill="#FFDD00"/>
<path d="M8 16.3447L8 23.6681C8 24.9795 8.72843 26.1887 9.91878 26.8359L16.599 30.5146C17.7716 31.1618 19.2284 31.1618 20.401 30.5146L27.0812 26.8359C28.2716 26.1887 29 24.9795 29 23.6681V16.3447C29 15.0333 28.2716 13.8241 27.0812 13.1769L20.401 9.49816C19.2107 8.83395 17.7716 8.83395 16.599 9.49816L9.91878 13.1599C8.72843 13.8241 8 15.0333 8 16.3447Z" fill="white"/>
</svg>
