<svg width="197" height="29" viewBox="0 0 197 29" fill="none" xmlns="http://www.w3.org/2000/svg">
<path d="M44.2409 11.401H41.472V10.9542C41.472 10.5074 41.3164 10.1165 41.0364 9.78137C40.7253 9.44627 40.2275 9.27872 39.5119 9.27872C39.1386 9.27872 38.8275 9.33457 38.5786 9.44627C38.3297 9.55797 38.143 9.66967 38.0186 9.83722C37.863 10.0048 37.7697 10.2002 37.7074 10.4236C37.6452 10.647 37.6141 10.8704 37.6141 11.0938C37.6141 11.3731 37.6141 11.5965 37.6452 11.764C37.6763 11.9595 37.7385 12.0991 37.863 12.2388C37.9874 12.3784 38.143 12.518 38.3297 12.6018C38.5475 12.7135 38.8275 12.7973 39.2008 12.909L41.3164 13.5233C41.9386 13.6909 42.4364 13.8863 42.8098 14.1097C43.1831 14.3331 43.4942 14.6124 43.712 14.8916C43.8987 15.1988 44.0542 15.5618 44.1165 15.9528C44.1787 16.3437 44.2409 16.7905 44.2409 17.2932C44.2409 17.8796 44.1476 18.4102 43.992 18.9128C43.8365 19.4155 43.5565 19.8344 43.2142 20.1974C42.8409 20.5604 42.3431 20.8397 41.7209 21.0631C41.0986 21.2585 40.3519 21.3702 39.4497 21.3702C38.7652 21.3702 38.143 21.2865 37.583 21.1189C36.9919 20.9514 36.4941 20.728 36.0896 20.4208C35.6852 20.1136 35.3429 19.7785 35.094 19.3876C34.8452 18.9966 34.7207 18.5498 34.7207 18.103V17.377H37.4897V17.9913C37.4897 18.3543 37.6452 18.6894 37.9252 18.9687C38.2363 19.2479 38.7341 19.4155 39.4497 19.4155C39.9164 19.4155 40.2897 19.3596 40.5386 19.2759C40.7875 19.1921 41.0053 19.0525 41.1608 18.857C41.3164 18.6894 41.3786 18.466 41.4097 18.2147C41.4409 17.9634 41.4409 17.6841 41.4409 17.377C41.4409 17.0139 41.4097 16.7068 41.3786 16.4834C41.3475 16.26 41.2542 16.0645 41.1608 15.9249C41.0364 15.7852 40.8497 15.6735 40.6631 15.5618C40.4453 15.4781 40.1653 15.3664 39.823 15.2826L37.8319 14.6962C36.6185 14.3331 35.8407 13.8863 35.4052 13.2999C35.0007 12.7135 34.7829 11.9874 34.7829 11.1218C34.7829 10.5912 34.8763 10.1165 35.094 9.64175C35.2807 9.16702 35.5918 8.77607 35.9963 8.44097C36.3696 8.10587 36.8674 7.82662 37.4585 7.63115C38.0497 7.43567 38.7652 7.32397 39.5741 7.32397C40.2586 7.32397 40.912 7.40775 41.472 7.60322C42.032 7.7987 42.5298 8.0221 42.9653 8.32927C43.8054 8.94362 44.2098 9.66967 44.2098 10.4795V11.401H44.2409Z" fill="white"/>
<path d="M49.4994 21.258V9.2782H46.2949V7.40723H55.504V9.2782H52.2995V21.258H49.4994Z" fill="white"/>
<path d="M57.6191 10.6743C57.6191 10.1158 57.7436 9.61318 58.0236 9.19431C58.3036 8.77543 58.6458 8.41241 59.1125 8.13316C59.5481 7.85391 60.0459 7.65843 60.6059 7.51881C61.1659 7.37918 61.7259 7.29541 62.2859 7.29541C62.8459 7.29541 63.4059 7.37918 63.966 7.51881C64.526 7.65843 65.0238 7.88183 65.4904 8.13316C65.926 8.41241 66.2682 8.77543 66.5482 9.19431C66.8282 9.61318 66.9527 10.1158 66.9527 10.6743V17.9907C66.9527 18.5771 66.8282 19.0798 66.5482 19.4986C66.2682 19.9175 65.926 20.2526 65.4904 20.5318C65.0238 20.8111 64.526 21.0345 63.966 21.1741C63.4059 21.3137 62.8459 21.3975 62.2859 21.3975C61.7259 21.3975 61.1659 21.3137 60.6059 21.1741C60.0459 21.0345 59.5481 20.8111 59.1125 20.5318C58.6458 20.2526 58.3036 19.9175 58.0236 19.4986C57.7436 19.0798 57.6191 18.5771 57.6191 17.9907V10.6743ZM60.3881 17.9907C60.3881 18.4654 60.5748 18.8284 60.9481 19.0518C61.3214 19.2752 61.757 19.3869 62.2859 19.3869C62.7837 19.3869 63.2504 19.2752 63.6237 19.0518C63.9971 18.8284 64.1837 18.4654 64.1837 17.9907V10.6743C64.1837 10.1996 63.9971 9.83658 63.6237 9.61318C63.2504 9.38978 62.8148 9.27808 62.2859 9.27808C61.7881 9.27808 61.3214 9.38978 60.9481 9.61318C60.5748 9.83658 60.3881 10.1996 60.3881 10.6743V17.9907Z" fill="white"/>
<path d="M70.749 21.258V7.40723H75.2291C78.4959 7.40723 80.1448 8.77555 80.1448 11.4843C80.1448 12.2941 79.9581 12.9922 79.6159 13.5786C79.2737 14.1371 78.6514 14.6119 77.7492 14.947L80.7359 21.258H77.7803L75.198 15.3658H73.5491V21.2859H70.749V21.258ZM73.5491 9.2782V13.6066H75.1358C75.6336 13.6066 76.0069 13.5507 76.318 13.4669C76.598 13.3832 76.8469 13.2435 77.0025 13.0481C77.1581 12.8805 77.2514 12.6292 77.3136 12.3779C77.3758 12.0986 77.407 11.7914 77.407 11.4563C77.407 11.1212 77.3758 10.7861 77.3136 10.5348C77.2514 10.2556 77.1581 10.0322 76.9714 9.8367C76.6292 9.47367 75.9758 9.2782 75.0113 9.2782H73.5491Z" fill="white"/>
<path d="M83.7217 21.258V7.40723H86.4906V19.2753H91.9974V21.258H83.7217Z" fill="white"/>
<path d="M95.1709 21.258V7.40723H103.447V9.2782H97.9399V13.3552H102.731V15.2262H97.9399V19.2753H103.447V21.258H95.1709Z" fill="white"/>
<path d="M108.456 21.258V9.2782H105.251V7.40723H114.46V9.2782H111.256V21.258H108.456Z" fill="white"/>
<path d="M130.265 17.2644V17.6554C130.265 19.4426 129.829 21.0901 127.123 21.0901C124.323 21.0901 123.949 19.4146 123.949 17.5158V10.7858C123.949 8.60769 125.1 7.57446 127.154 7.57446C129.767 7.57446 130.203 9.11034 130.203 10.7579V11.2326H128.927V10.7579C128.927 9.58506 128.74 8.46806 127.123 8.46806C125.598 8.46806 125.256 9.47336 125.256 10.8138V17.5716C125.256 19.2192 125.723 20.2245 127.216 20.2245C128.803 20.2245 129.02 19.1075 129.02 17.6833V17.2644H130.265Z" fill="white"/>
<path d="M133.719 16.2591L132.785 20.9505H131.541L134.372 7.74194H136.177L139.132 20.9505H137.826L136.799 16.2591H133.719ZM136.581 15.3655C135.834 11.9865 135.368 9.66877 135.243 8.57969H135.181C135.119 9.55707 134.466 12.6288 133.906 15.3655H136.581Z" fill="white"/>
<path d="M141.932 14.6115V20.9505H140.688V7.74194H143.208C145.728 7.74194 146.817 8.63554 146.817 10.6741V11.3443C146.817 12.9639 146.194 13.8575 145.074 14.1368C146.225 14.416 146.661 15.0862 146.661 16.8455C146.661 17.9904 146.63 20.0848 146.848 20.9225H145.603C145.385 20.0848 145.416 17.8229 145.416 16.9293C145.416 15.1421 145.074 14.5836 143.27 14.5836H141.932V14.6115ZM141.932 13.7458H143.394C145.168 13.7458 145.541 12.7964 145.541 11.4001V10.7299C145.541 9.38952 145.012 8.60762 143.176 8.60762H141.963V13.7458H141.932Z" fill="white"/>
<path d="M153.754 14.6115V20.9505H152.51V7.74194H155.03C157.55 7.74194 158.639 8.63554 158.639 10.6741V11.3443C158.639 12.9639 158.017 13.8575 156.897 14.1368C158.048 14.416 158.483 15.0862 158.483 16.8455C158.483 17.9904 158.452 20.0848 158.67 20.9225H157.425C157.208 20.0848 157.239 17.8229 157.239 16.9293C157.239 15.1421 156.897 14.5836 155.092 14.5836H153.754V14.6115ZM153.754 13.7458H155.216C156.99 13.7458 157.363 12.7964 157.363 11.4001V10.7299C157.363 9.38952 156.834 8.60762 154.999 8.60762H153.785V13.7458H153.754Z" fill="white"/>
<path d="M165.95 14.3043H162.092V20.0569H166.417L166.23 20.9505H160.816V7.74194H166.137V8.63554H162.061V13.4107H165.919V14.3043H165.95Z" fill="white"/>
<path d="M167.973 20.9505V7.74194H169.528C170.617 10.5903 173.199 17.7949 173.542 19.1353H173.604C173.511 17.2644 173.479 15.3934 173.479 13.2432V7.74194H174.693V20.9505H173.199C172.048 17.8508 169.497 10.5624 169.062 9.16612H169.03C169.124 10.7578 169.217 13.0756 169.217 15.4772V20.9505H167.973Z" fill="white"/>
<path d="M178.83 8.63554H176.062V7.74194H182.782V8.63554H180.044V20.9505H178.799V8.63554H178.83Z" fill="white"/>
<path d="M184.524 16.2591L183.56 20.9505H182.315L185.147 7.74194H186.951L189.907 20.9505H188.6L187.573 16.2591H184.524ZM187.387 15.3655C186.64 11.9865 186.173 9.66877 186.049 8.57969H185.987C185.924 9.55707 185.271 12.6288 184.711 15.3655H187.387Z" fill="white"/>
<path d="M191.493 7.74194H192.738V20.0569H197L196.813 20.9505H191.493V7.74194Z" fill="white"/>
<path d="M2.83105 11.2886V20.0291C2.83105 21.565 3.7333 22.9613 5.19555 23.7152L13.7202 28.0995C15.1824 28.8534 16.9869 28.8534 18.4492 28.0995L26.9738 23.7152C28.4361 22.9613 29.3383 21.5371 29.3383 20.0291V11.2886C29.3383 9.75276 28.4361 8.35651 26.9738 7.60253L18.4492 3.21831C16.9869 2.46434 15.1824 2.46434 13.7202 3.21831L5.22666 7.60253C3.76441 8.35651 2.83105 9.75276 2.83105 11.2886Z" fill="white"/>
<path d="M1.52441 10.032V18.7726C1.52441 20.3084 2.42666 21.7047 3.88891 22.4587L12.4136 26.8429C13.8758 27.5968 15.6803 27.5968 17.1425 26.8429L25.6672 22.4587C27.1294 21.7047 28.0317 20.2805 28.0317 18.7726V10.032C28.0317 8.49617 27.1294 7.09992 25.6672 6.34594L17.1425 1.96172C15.6803 1.20775 13.8758 1.20775 12.4136 1.96172L3.92002 6.34594C2.42666 7.09992 1.52441 8.49617 1.52441 10.032Z" fill="black"/>
<path d="M0 8.5241V17.0412C0 18.5771 0.902243 19.9733 2.3645 20.7273L10.6402 24.9998C12.1025 25.7538 13.907 25.7538 15.3692 24.9998L23.645 20.7273C25.1072 19.9733 26.0095 18.5492 26.0095 17.0412V8.5241C26.0095 6.98822 25.1072 5.59198 23.645 4.838L15.3692 0.565481C13.907 -0.188494 12.1025 -0.188494 10.6402 0.565481L2.3645 4.838C0.902243 5.59198 0 7.01615 0 8.5241Z" fill="white"/>
<path d="M16.9562 11.596C16.3651 11.4285 15.7429 11.3447 15.0895 11.2609C14.4673 11.1771 13.8451 11.1213 13.2228 11.0654C11.8539 10.9537 10.7339 10.7583 10.4539 10.5907C10.0805 10.3673 9.70718 9.69711 10.8583 9.36201C11.2628 9.22238 11.8539 9.19446 12.5384 9.19446C13.0984 9.19446 13.6895 9.22238 14.3117 9.30616C14.9029 9.38993 15.494 9.50163 15.9918 9.61333C16.4896 9.72503 17.2674 9.97636 17.6096 10.1439C17.6407 10.1718 18.4807 7.85406 18.4807 7.85406C18.4807 7.85406 17.7963 7.54688 16.4896 7.26763C15.9295 7.15594 15.3073 7.01631 14.5917 6.90461C13.8762 6.79291 13.0984 6.73706 12.2584 6.73706C11.3561 6.73706 10.5472 6.84876 9.80052 7.04424C7.74714 7.60273 7.34268 8.30086 7.06268 8.80351C6.78267 9.30616 6.62711 9.86466 6.62711 10.5069C6.62711 11.2888 6.876 11.9032 7.37379 12.35C7.87158 12.7968 8.49382 13.1319 9.2405 13.3832C9.98719 13.6345 10.7961 13.7742 11.6672 13.8859C12.5384 13.9696 13.3473 14.0534 14.0939 14.1372C14.8406 14.221 15.494 14.3047 15.9918 14.3885C16.7073 14.5002 17.174 15.4497 15.8984 15.9244C15.3073 16.1478 14.4673 16.2874 13.2539 16.2874C12.6317 16.2874 11.2939 16.1199 10.6716 16.0082C10.0494 15.8965 7.46713 15.1983 7.15601 15.0029L6.22266 17.8233C6.25377 17.8233 6.28488 17.8512 6.31599 17.8512C6.62711 17.9629 7.46713 18.2142 7.99603 18.3538C8.52493 18.4935 10.6094 19.052 13.3784 19.052C14.6851 19.052 15.8051 18.9403 16.7073 18.6889C17.6096 18.4376 18.294 18.1025 18.8229 17.6836C19.3518 17.2648 19.7252 16.7901 19.943 16.2595C20.1608 15.7289 20.2852 15.1983 20.2852 14.6678C20.2852 13.3553 19.5385 12.3221 16.9562 11.596Z" fill="black"/>
</svg>
