<svg width="268" height="44" viewBox="0 0 268 44" fill="none" xmlns="http://www.w3.org/2000/svg">
<path d="M60.1503 17.2687H56.3856V16.5919C56.3856 15.9151 56.1741 15.3229 55.7934 14.8153C55.3704 14.3077 54.6936 14.0539 53.7207 14.0539C53.2131 14.0539 52.7901 14.1385 52.4517 14.3077C52.1133 14.4769 51.8595 14.6461 51.6903 14.8999C51.4788 15.1537 51.3519 15.4498 51.2673 15.7882C51.1827 16.1266 51.1404 16.465 51.1404 16.8034C51.1404 17.2264 51.1404 17.5648 51.1827 17.8186C51.225 18.1147 51.3096 18.3262 51.4788 18.5377C51.648 18.7492 51.8595 18.9607 52.1133 19.0876C52.4094 19.2568 52.7901 19.3837 53.2977 19.5529L56.1741 20.4835C57.0201 20.7373 57.6969 21.0334 58.2045 21.3718C58.7121 21.7102 59.1351 22.1332 59.4312 22.5562C59.685 23.0215 59.8965 23.5714 59.9811 24.1635C60.0657 24.7557 60.1503 25.4325 60.1503 26.1939C60.1503 27.0822 60.0234 27.8859 59.8119 28.6473C59.6004 29.4087 59.2197 30.0432 58.7544 30.5931C58.2468 31.143 57.57 31.566 56.724 31.9044C55.878 32.2005 54.8628 32.3697 53.6361 32.3697C52.7055 32.3697 51.8595 32.2428 51.0981 31.989C50.2944 31.7352 49.6176 31.3968 49.0677 30.9315C48.5178 30.4662 48.0525 29.9586 47.7141 29.3664C47.3757 28.7742 47.2065 28.0974 47.2065 27.4206V26.3208H50.9712V27.2514C50.9712 27.8013 51.1827 28.3089 51.5634 28.7319C51.9864 29.1549 52.6632 29.4087 53.6361 29.4087C54.2706 29.4087 54.7782 29.3241 55.1166 29.1972C55.455 29.0703 55.7511 28.8588 55.9626 28.5627C56.1741 28.3089 56.2587 27.9705 56.301 27.5898C56.3433 27.2091 56.3433 26.7861 56.3433 26.3208C56.3433 25.7709 56.301 25.3056 56.2587 24.9672C56.2164 24.6288 56.0895 24.3327 55.9626 24.1213C55.7934 23.9098 55.5396 23.7406 55.2858 23.5714C54.9897 23.4445 54.609 23.2753 54.1437 23.1484L51.4365 22.2601C49.7868 21.7102 48.7293 21.0334 48.1371 20.1451C47.5872 19.2568 47.2911 18.157 47.2911 16.8457C47.2911 16.042 47.418 15.3229 47.7141 14.6038C47.9679 13.8847 48.3909 13.2925 48.9408 12.7849C49.4484 12.2773 50.1252 11.8543 50.9289 11.5582C51.7326 11.2621 52.7055 11.0929 53.8053 11.0929C54.7359 11.0929 55.6242 11.2198 56.3856 11.5159C57.147 11.812 57.8238 12.1504 58.416 12.6157C59.5581 13.5463 60.108 14.6461 60.108 15.8728V17.2687H60.1503Z" fill="white"/>
<path d="M67.2991 32.2008V14.0541H62.9422V11.22H75.463V14.0541H71.1061V32.2008H67.2991Z" fill="white"/>
<path d="M78.3393 16.1691C78.3393 15.3231 78.5085 14.5617 78.8892 13.9272C79.2699 13.2927 79.7352 12.7428 80.3697 12.3198C80.9619 11.8968 81.6387 11.6007 82.4001 11.3892C83.1615 11.1777 83.9229 11.0508 84.6843 11.0508C85.4457 11.0508 86.2071 11.1777 86.9685 11.3892C87.7299 11.6007 88.4067 11.9391 89.0412 12.3198C89.6334 12.7428 90.0987 13.2927 90.4794 13.9272C90.86 14.5617 91.0293 15.3231 91.0293 16.1691V27.2516C91.0293 28.1399 90.86 28.9013 90.4794 29.5358C90.0987 30.1703 89.6334 30.6779 89.0412 31.1009C88.4067 31.5239 87.7299 31.8623 86.9685 32.0738C86.2071 32.2853 85.4457 32.4122 84.6843 32.4122C83.9229 32.4122 83.1615 32.2853 82.4001 32.0738C81.6387 31.8623 80.9619 31.5239 80.3697 31.1009C79.7352 30.6779 79.2699 30.1703 78.8892 29.5358C78.5085 28.9013 78.3393 28.1399 78.3393 27.2516V16.1691ZM82.104 27.2516C82.104 27.9707 82.3578 28.5206 82.8654 28.859C83.373 29.1974 83.9652 29.3666 84.6843 29.3666C85.3611 29.3666 85.9956 29.1974 86.5032 28.859C87.0108 28.5206 87.2646 27.9707 87.2646 27.2516V16.1691C87.2646 15.45 87.0108 14.9001 86.5032 14.5617C85.9956 14.2233 85.4034 14.0541 84.6843 14.0541C84.0075 14.0541 83.373 14.2233 82.8654 14.5617C82.3578 14.9001 82.104 15.45 82.104 16.1691V27.2516Z" fill="white"/>
<path d="M96.1899 32.2008V11.22H102.281C106.723 11.22 108.964 13.2927 108.964 17.3958C108.964 18.6225 108.711 19.68 108.245 20.5683C107.78 21.4143 106.934 22.1334 105.707 22.641L109.768 32.2008H105.75L102.239 23.2755H99.9969V32.2431H96.1899V32.2008ZM99.9969 14.0541V20.6106H102.154C102.831 20.6106 103.339 20.526 103.762 20.3991C104.142 20.2722 104.481 20.0607 104.692 19.7646C104.904 19.5108 105.031 19.1301 105.115 18.7494C105.2 18.3264 105.242 17.8611 105.242 17.3535C105.242 16.8459 105.2 16.3383 105.115 15.9576C105.031 15.5346 104.904 15.1962 104.65 14.9001C104.185 14.3502 103.296 14.0541 101.985 14.0541H99.9969Z" fill="white"/>
<path d="M113.829 32.2008V11.22H117.594V29.1975H125.081V32.2008H113.829Z" fill="white"/>
<path d="M129.395 32.2008V11.22H140.647V14.0541H133.16V20.2299H139.674V23.064H133.16V29.1975H140.647V32.2008H129.395Z" fill="white"/>
<path d="M147.457 32.2008V14.0541H143.1V11.22H155.621V14.0541H151.264V32.2008H147.457Z" fill="white"/>
<path d="M177.109 26.1519V26.7441C177.109 29.4513 176.517 31.947 172.837 31.947C169.03 31.947 168.523 29.409 168.523 26.5326V16.3384C168.523 13.039 170.088 11.4739 172.879 11.4739C176.433 11.4739 177.025 13.8004 177.025 16.2961V17.0152H175.291V16.2961C175.291 14.5195 175.037 12.8275 172.837 12.8275C170.764 12.8275 170.299 14.3503 170.299 16.3807V26.6172C170.299 29.1129 170.934 30.6357 172.964 30.6357C175.121 30.6357 175.417 28.9437 175.417 26.7864V26.1519H177.109Z" fill="#FFDD00"/>
<path d="M181.805 24.6291L180.536 31.7355H178.844L182.693 11.7277H185.146L189.165 31.7355H187.388L185.992 24.6291H181.805ZM185.696 23.2755C184.681 18.1572 184.047 14.6464 183.877 12.9967H183.793C183.708 14.4772 182.82 19.1301 182.059 23.2755H185.696Z" fill="#FFDD00"/>
<path d="M192.972 22.1334V31.7355H191.28V11.7277H194.706C198.132 11.7277 199.613 13.0813 199.613 16.1691V17.1843C199.613 19.6377 198.767 20.9913 197.244 21.4143C198.809 21.8373 199.401 22.8525 199.401 25.5174C199.401 27.2517 199.359 30.4242 199.655 31.6932H197.963C197.667 30.4242 197.709 26.9979 197.709 25.6443C197.709 22.9371 197.244 22.0911 194.791 22.0911H192.972V22.1334ZM192.972 20.8221H194.96C197.371 20.8221 197.879 19.3839 197.879 17.2689V16.2537C197.879 14.2234 197.16 13.039 194.664 13.039H193.014V20.8221H192.972Z" fill="#FFDD00"/>
<path d="M209.046 22.1334V31.7355H207.354V11.7277H210.78C214.206 11.7277 215.687 13.0813 215.687 16.1691V17.1843C215.687 19.6377 214.841 20.9913 213.318 21.4143C214.883 21.8373 215.475 22.8525 215.475 25.5174C215.475 27.2517 215.433 30.4242 215.729 31.6932H214.037C213.741 30.4242 213.783 26.9979 213.783 25.6443C213.783 22.9371 213.318 22.0911 210.865 22.0911H209.046V22.1334ZM209.046 20.8221H211.034C213.445 20.8221 213.953 19.3839 213.953 17.2689V16.2537C213.953 14.2234 213.234 13.039 210.738 13.039H209.088V20.8221H209.046Z" fill="#FFDD00"/>
<path d="M225.627 21.6681H220.382V30.3819H226.262L226.008 31.7355H218.648V11.7277H225.881V13.0813H220.34V20.3145H225.585V21.6681H225.627Z" fill="#FFDD00"/>
<path d="M228.377 31.7355V11.7277H230.492C231.972 16.0422 235.483 26.9556 235.949 28.986H236.033C235.906 26.1519 235.864 23.3178 235.864 20.0607V11.7277H237.514V31.7355H235.483C233.918 27.0402 230.45 15.9999 229.857 13.885H229.815C229.942 16.296 230.069 19.8069 230.069 23.4447V31.7355H228.377Z" fill="#FFDD00"/>
<path d="M243.14 13.0813H239.375V11.7277H248.512V13.0813H244.789V31.7355H243.097V13.0813H243.14Z" fill="#FFDD00"/>
<path d="M250.88 24.6291L249.569 31.7355H247.877L251.726 11.7277H254.18L258.198 31.7355H256.422L255.026 24.6291H250.88ZM254.772 23.2755C253.757 18.1572 253.122 14.6464 252.953 12.9967H252.869C252.784 14.4772 251.896 19.1301 251.134 23.2755H254.772Z" fill="#FFDD00"/>
<path d="M260.356 11.7277H262.048V30.3819H267.843L267.589 31.7355H260.356V11.7277Z" fill="#FFDD00"/>
<path d="M3.8493 17.0997V30.3395C3.8493 32.666 5.076 34.781 7.06409 35.9231L18.6543 42.5642C20.6423 43.7063 23.0957 43.7063 25.0838 42.5642L36.674 35.9231C38.6621 34.781 39.8888 32.6237 39.8888 30.3395V17.0997C39.8888 14.7732 38.6621 12.6582 36.674 11.5161L25.0838 4.875C23.0957 3.73291 20.6423 3.73291 18.6543 4.875L7.10639 11.5161C5.1183 12.6582 3.8493 14.7732 3.8493 17.0997Z" fill="#5F553A"/>
<path d="M2.07263 15.1962V28.4361C2.07263 30.7626 3.29933 32.8776 5.28742 34.0197L16.8776 40.6607C18.8657 41.8028 21.3191 41.8028 23.3072 40.6607L34.8973 34.0197C36.8854 32.8776 38.1121 30.7203 38.1121 28.4361V15.1962C38.1121 12.8697 36.8854 10.7547 34.8973 9.61264L23.3072 2.97156C21.3191 1.82947 18.8657 1.82947 16.8776 2.97156L5.32972 9.61264C3.29933 10.7547 2.07263 12.8697 2.07263 15.1962Z" fill="#FFDD00"/>
<path d="M0 12.912V25.8135C0 28.14 1.2267 30.255 3.21479 31.3971L14.4665 37.8689C16.4546 39.011 18.908 39.011 20.8961 37.8689L32.1479 31.3971C34.136 30.255 35.3627 28.0977 35.3627 25.8135V12.912C35.3627 10.5855 34.136 8.47055 32.1479 7.32845L20.8961 0.856572C18.908 -0.285524 16.4546 -0.285524 14.4665 0.856572L3.21479 7.32845C1.2267 8.47055 0 10.6278 0 12.912Z" fill="#5F553A"/>
<path d="M23.0535 17.565C22.2498 17.3112 21.4038 17.1843 20.5155 17.0574C19.6695 16.9305 18.8235 16.8459 17.9775 16.7613C16.1163 16.5921 14.5935 16.296 14.2128 16.0422C13.7052 15.7038 13.1976 14.6886 14.7627 14.181C15.3126 13.9695 16.1163 13.9272 17.0469 13.9272C17.8083 13.9272 18.612 13.9695 19.458 14.0964C20.2617 14.2233 21.0654 14.3925 21.7422 14.5617C22.419 14.7309 23.4765 15.1116 23.9418 15.3654C23.9841 15.4077 25.1262 11.8968 25.1262 11.8968C25.1262 11.8968 24.1956 11.4315 22.419 11.0085C21.6576 10.8393 20.8116 10.6278 19.8387 10.4586C18.8658 10.2894 17.8083 10.2048 16.6662 10.2048C15.4395 10.2048 14.3397 10.374 13.3245 10.6701C10.5327 11.5161 9.98282 12.5736 9.60212 13.335C9.22142 14.0964 9.00992 14.9424 9.00992 15.9153C9.00992 17.0997 9.34832 18.0303 10.0251 18.7071C10.7019 19.3839 11.5479 19.8915 12.5631 20.2722C13.5783 20.6529 14.6781 20.8644 15.8625 21.0336C17.0469 21.1605 18.1467 21.2874 19.1619 21.4143C20.1771 21.5412 21.0654 21.6681 21.7422 21.795C22.7151 21.9642 23.3496 23.4024 21.6153 24.1215C20.8116 24.4599 19.6695 24.6714 18.0198 24.6714C17.1738 24.6714 15.3549 24.4176 14.5089 24.2484C13.6629 24.0792 10.152 23.0217 9.72902 22.7256L8.46002 26.9979C8.50232 26.9979 8.54462 27.0402 8.58692 27.0402C9.00992 27.2094 10.152 27.5901 10.8711 27.8016C11.5902 28.0131 14.4243 28.8591 18.189 28.8591C19.9656 28.8591 21.4884 28.6899 22.7151 28.3092C23.9418 27.9285 24.8724 27.4209 25.5915 26.7864C26.3106 26.1519 26.8182 25.4328 27.1143 24.6291C27.4104 23.8254 27.5796 23.0217 27.5796 22.218C27.5796 20.2299 26.5644 18.6648 23.0535 17.565Z" fill="white"/>
</svg>
