<?xml version="1.0" encoding="utf-8"?>
<!-- Generator: Adobe Illustrator 17.1.0, SVG Export Plug-In . SVG Version: 6.00 Build 0)  -->
<!DOCTYPE svg PUBLIC "-//W3C//DTD SVG 1.1//EN" "http://www.w3.org/Graphics/SVG/1.1/DTD/svg11.dtd">
<svg version="1.1" id="Layer_1" xmlns="http://www.w3.org/2000/svg" xmlns:xlink="http://www.w3.org/1999/xlink" x="0px" y="0px"
	 viewBox="49.1 5.5 222.8 367" enable-background="new 49.1 5.5 222.8 367" xml:space="preserve">
<path opacity= "0.3" fill="#5F553A" d="M271.9,229.2l0-80.4c0.1-14.9-7.9-28.8-20.9-36.4l-69.2-40c-13-7.5-29.1-7.5-42,0l-69.6,40.2l0,0
	c-13,7.4-21,21.2-20.8,36l0,0.1l-0.2,80.2l1.6,0l-1.6,0h1l-1,0c0.1,15,8.2,29,21.1,36.4l69.2,40c6.2,3.6,13,5.4,19.9,5.6v51.6
	c-2,0.6-3.5,2.5-3.5,4.8c0,2.8,2.2,5,5,5s5-2.2,5-5c0-2.2-1.5-4.1-3.5-4.7v-51.7c6.6-0.3,13.2-2.2,19.1-5.6c0,0,0,0,0,0l69.6-40.2
	l0,0C263.8,257.8,271.8,244,271.9,229.2l-2.1,0c0,14.1-7.6,27.3-19.8,34.3l0,0l-69.6,40.2l0,0c0,0,0,0,0,0
	c-12.3,7.2-27.5,7.2-39.9,0l-69.2-40c-12.3-7.1-20-20.4-20.1-34.7l0.2-80.3l0-0.1c-0.1-14.2,7.2-26.9,19.6-34.1l0.1,0l0.2-0.2
	l69.4-40.1l0.2-0.1c12.2-7.1,27.5-7.1,39.8,0l69.2,40c12.4,7.2,20,20.4,19.9,34.6l0,80.4L271.9,229.2z"/>
</svg>
