<svg width="22" height="25" viewBox="0 0 22 25" fill="none" xmlns="http://www.w3.org/2000/svg">
<path d="M10.7848 3.28475C11.7067 3.28475 12.4441 2.55481 12.4441 1.64238C12.4441 0.729945 11.7067 0 10.7848 0C9.86304 0 9.21777 0.729945 9.21777 1.64238C9.21777 2.55481 9.95522 3.28475 10.7848 3.28475Z" fill="black"/>
<path d="M19.3578 19.3888C19.5422 19.5713 19.8187 19.6626 20.0031 19.6626C20.464 19.6626 20.9249 19.2976 20.9249 18.7501V6.24983C20.9249 5.70237 20.5562 5.3374 20.0031 5.3374C19.45 5.3374 19.0813 5.79362 19.0813 6.24983V11.6332H11.799V6.24983C11.799 5.70237 11.4303 5.3374 10.8772 5.3374C10.3241 5.3374 9.95538 5.79362 9.95538 6.24983V11.6332H2.58092V6.24983C2.58092 5.70237 2.2122 5.3374 1.65911 5.3374H1.38257C1.01385 5.42865 0.737305 5.79362 0.737305 6.24983V12.2719C0.737305 12.4544 0.737305 12.6369 0.737305 12.7281V18.7501C0.737305 19.2976 1.19821 19.6626 1.65911 19.6626C2.12002 19.6626 2.58092 19.2064 2.58092 18.7501V13.3668H9.8632V18.7501C9.8632 19.0239 9.95538 19.2064 10.1397 19.3888C10.3241 19.5713 10.5085 19.6626 10.785 19.6626C11.0615 19.6626 11.2459 19.5713 11.4303 19.3888C11.6146 19.2064 11.7068 19.0239 11.7068 18.6589V13.2756H18.9891V18.6589C19.0813 19.0239 19.1735 19.2064 19.3578 19.3888Z" fill="black"/>
<path d="M20.003 3.28475C20.9248 3.28475 21.6623 2.55481 21.6623 1.64238C21.6623 0.729945 20.9248 0 20.003 0C19.0812 0 18.3438 0.729945 18.3438 1.64238C18.3438 2.55481 19.0812 3.28475 20.003 3.28475Z" fill="black"/>
<path d="M1.65925 21.7152C0.737446 21.7152 0 22.4452 0 23.3576C0 24.2701 0.737446 25 1.65925 25C2.58106 25 3.31851 24.2701 3.31851 23.3576C3.31851 22.4452 2.58106 21.7152 1.65925 21.7152Z" fill="black"/>
<path d="M1.65925 3.28475C2.58106 3.28475 3.31851 2.55481 3.31851 1.64238C3.31851 0.729945 2.58106 0 1.65925 0C0.737446 0 0 0.729945 0 1.64238C0 2.55481 0.737446 3.28475 1.65925 3.28475Z" fill="black"/>
<path d="M20.003 25C20.9194 25 21.6623 24.2647 21.6623 23.3576C21.6623 22.4506 20.9194 21.7152 20.003 21.7152C19.0866 21.7152 18.3438 22.4506 18.3438 23.3576C18.3438 24.2647 19.0866 25 20.003 25Z" fill="black"/>
<path d="M10.7847 25C11.7011 25 12.444 24.2647 12.444 23.3576C12.444 22.4506 11.7011 21.7152 10.7847 21.7152C9.86836 21.7152 9.12549 22.4506 9.12549 23.3576C9.12549 24.2647 9.86836 25 10.7847 25Z" fill="black"/>
</svg>
