<svg width="29" height="29" viewBox="0 0 29 29" fill="none" xmlns="http://www.w3.org/2000/svg">
<path d="M26.2812 4.7125H23.6531V3.17188C23.6531 2.08437 22.5656 0 20.9344 0H17.4906C15.8594 0 14.7719 2.08437 14.7719 3.17188V4.80313H11.9625C10.4219 4.80313 9.24375 5.98125 9.24375 7.52188C9.24375 8.06563 9.60625 8.42813 10.15 8.42813C10.6937 8.42813 11.0562 8.06563 11.0562 7.52188C11.0562 6.97813 11.4187 6.61563 11.9625 6.61563H26.2812C26.825 6.61563 27.1875 6.97813 27.1875 7.52188V26.2812C27.1875 26.825 26.825 27.1875 26.2812 27.1875H19.9375C20.0281 26.9156 20.1188 26.5531 20.1188 26.2812V15.225C20.1188 13.6844 18.9406 12.5063 17.4 12.5063H14.5V12.0531C14.5 10.9656 13.4125 8.88125 11.7812 8.88125H8.3375C6.70625 8.88125 5.61875 10.9656 5.61875 12.0531V12.5063H2.71875C1.17812 12.5063 0 13.6844 0 15.225V26.2812C0 27.8219 1.17812 29 2.71875 29H26.2812C27.8219 29 29 27.8219 29 26.2812V7.43125C29 5.98125 27.8219 4.7125 26.2812 4.7125ZM16.5844 4.7125V3.17188C16.5844 2.71875 17.1281 1.8125 17.4906 1.8125H20.9344C21.2969 1.8125 21.8406 2.71875 21.8406 3.17188V4.80313H16.5844V4.7125ZM7.43125 11.9625C7.43125 11.5094 7.975 10.6031 8.3375 10.6031H11.7812C12.1438 10.6031 12.6875 11.5094 12.6875 11.9625V12.4156H7.43125V11.9625ZM1.8125 26.1906V15.225C1.8125 14.6812 2.175 14.3188 2.71875 14.3188H17.4C17.9438 14.3188 18.3063 14.6812 18.3063 15.225V26.2812C18.3063 26.825 17.9438 27.1875 17.4 27.1875H2.71875C2.175 27.0969 1.8125 26.7344 1.8125 26.1906Z" fill="black"/>
<path d="M17.4004 23.4719C17.4004 22.9281 17.0379 22.5656 16.4941 22.5656C15.9504 22.5656 15.5879 22.9281 15.5879 23.4719V24.3781H14.6816C14.1379 24.3781 13.7754 24.7406 13.7754 25.2844C13.7754 25.8281 14.1379 26.1906 14.6816 26.1906H16.4941C17.0379 26.1906 17.4004 25.8281 17.4004 25.2844V23.4719Z" fill="black"/>
<path d="M20.0283 11.4188V10.15C20.0283 9.60627 19.6658 9.24377 19.1221 9.24377C18.5783 9.24377 18.2158 9.60627 18.2158 10.15V11.4188C18.2158 11.9625 18.5783 12.325 19.1221 12.325C19.6658 12.325 20.0283 11.9625 20.0283 11.4188Z" fill="black"/>
<path d="M22.7471 23.4719V10.15C22.7471 9.60627 22.3846 9.24377 21.8408 9.24377C21.2971 9.24377 20.9346 9.60627 20.9346 10.15V23.4719C20.9346 24.0156 21.2971 24.3781 21.8408 24.3781C22.3846 24.3781 22.7471 24.0156 22.7471 23.4719Z" fill="black"/>
<path d="M17.3096 10.6937V10.2406C17.3096 9.69685 16.9471 9.33435 16.4033 9.33435C15.8596 9.33435 15.4971 9.69685 15.4971 10.2406V10.6937C15.4971 11.2375 15.8596 11.6 16.4033 11.6C16.9471 11.6 17.3096 11.1469 17.3096 10.6937Z" fill="black"/>
<path d="M25.4658 23.4719V10.15C25.4658 9.60627 25.1033 9.24377 24.5596 9.24377C24.0158 9.24377 23.6533 9.60627 23.6533 10.15V23.4719C23.6533 24.0156 24.0158 24.3781 24.5596 24.3781C25.1033 24.3781 25.4658 24.0156 25.4658 23.4719Z" fill="black"/>
</svg>
