<svg width="47" height="37" viewBox="0 0 47 37" fill="none" xmlns="http://www.w3.org/2000/svg">
<path d="M16.6526 36.9592C16.2879 36.9592 15.9638 36.796 15.7207 36.5105L10.8991 30.0243H6.32069C5.67241 30.0243 5.18621 29.4939 5.18621 28.882V23.0893H2.30948V28.882C2.30948 29.5347 1.78276 30.0243 1.175 30.0243C0.567241 30.0243 0 29.4939 0 28.882V15.0121C0 14.3594 0.526724 13.8699 1.13448 13.8699C1.74224 13.8699 2.26897 14.4002 2.26897 15.0121V20.8049H5.14569V13.2988C5.14569 12.6461 5.67241 12.1566 6.28017 12.1566H10.2914V8.11797C10.2914 7.46527 10.8181 6.97574 11.4259 6.97574H18.881V2.32525H13.2086C12.5603 2.32525 12.0741 1.79493 12.0741 1.18302C12.0741 0.571114 12.5603 0 13.2086 0H26.9845C27.6328 0 28.119 0.53032 28.119 1.14223C28.119 1.75413 27.5922 2.28445 26.9845 2.28445H21.231V6.93495H28.6862C29.0509 6.93495 29.375 7.09813 29.5776 7.38368L36.1009 15.624H37.8431V11.5854C37.8431 10.9327 38.3698 10.4432 38.9776 10.4432H42.4216C44.9336 10.4432 47 12.5237 47 15.0529V28.9228C47 31.452 44.9336 33.5325 42.4216 33.5325H38.9776C38.3293 33.5325 37.8431 33.0022 37.8431 32.3903V28.3517H34.9664V35.8578C34.9664 36.5105 34.4397 37 33.8319 37H16.6526V36.9592ZM7.45517 27.7398H11.4664C11.831 27.7398 12.1552 27.903 12.3983 28.1885L17.2198 34.6748H32.6974V27.1279C32.6974 26.4752 33.2241 25.9857 33.8319 25.9857H38.9776C39.6259 25.9857 40.1121 26.516 40.1121 27.1279V31.1665H42.4216C43.6776 31.1665 44.731 30.1466 44.731 28.8412V14.9713C44.731 13.7067 43.7181 12.6461 42.4216 12.6461H40.1121V16.6847C40.1121 17.3374 39.5853 17.8269 38.9776 17.8269H35.5336C35.169 17.8269 34.8448 17.6637 34.6422 17.3782L28.119 9.21941H12.6009V13.258C12.6009 13.9107 12.0741 14.4002 11.4664 14.4002H7.45517V27.7398Z" fill="black"/>
</svg>
