<?xml version="1.0" encoding="utf-8"?>
<!-- Generator: Adobe Illustrator 17.1.0, SVG Export Plug-In . SVG Version: 6.00 Build 0)  -->
<!DOCTYPE svg PUBLIC "-//W3C//DTD SVG 1.1//EN" "http://www.w3.org/Graphics/SVG/1.1/DTD/svg11.dtd">
<svg version="1.1" id="Layer_1" xmlns="http://www.w3.org/2000/svg" xmlns:xlink="http://www.w3.org/1999/xlink" x="0px" y="0px"
	 viewBox="46.3 74.7 463.2 374.6" enable-background="new 46.3 74.7 463.2 374.6" xml:space="preserve">
<path opacity= "0.3" fill="#5F553A" d="M504.4,256.6c-2.2,0-4.1,1.5-4.7,3.5h-51.3l0-60.2c0.1-22.6-12-43.7-31.8-55.1L310,83.2
	c-19.6-11.3-43.9-11.4-63.4-0.1l-0.7,0v0.4L139,145.3c-19.7,11.3-31.8,32.2-31.6,54.7l-0.2,61.1H56c-0.6-2-2.5-3.5-4.7-3.5
	c-2.8,0-5,2.2-5,5s2.2,5,5,5c2.2,0,4.1-1.5,4.7-3.5h51.3l-0.2,59.7l0,0l0,0c0.1,22.7,12.4,43.9,32,55.2l106.8,61.6
	c9.8,5.7,20.8,8.5,31.8,8.5c11,0,22-2.9,31.8-8.6l0,0l107.3-62.1l0,0c19.5-11.2,31.6-32.2,31.6-54.7l0-60.8h51.3
	c0.6,2,2.5,3.5,4.7,3.5c2.8,0,5-2.2,5-5S507.2,256.6,504.4,256.6z M446.4,323.6c0,21.8-11.7,42.4-30.6,53.3l-107.3,62.1l0,0
	c0,0,0,0,0,0l0,0C289.6,450,266,450,246.9,439l-106.8-61.6c-19-11-30.9-32.5-31-54.6l0.3-122.8c-0.3-21.8,11.5-42,30.6-52.9
	l107.1-61.9l0.2-0.1c0,0,0,0,0,0l0.5-0.3v0C266.7,73.9,290,74,309,84.9l106.8,61.6c19.1,11,30.9,31.5,30.8,53.4L446.4,323.6
	L446.4,323.6z"/>
</svg>
