<svg width="146" height="23" viewBox="0 0 146 23" fill="none" xmlns="http://www.w3.org/2000/svg">
<path fill-rule="evenodd" clip-rule="evenodd" d="M145.819 9.88785C145.855 9.9595 145.892 10.1028 145.892 10.2461V10.3894C145.892 10.4969 145.892 10.5685 145.892 10.6044C145.892 10.676 145.928 10.7118 145.964 10.7477V10.8193H145.422C145.422 10.7835 145.386 10.7118 145.386 10.7118C145.386 10.6402 145.35 10.5685 145.35 10.4969V10.2819C145.35 10.1386 145.314 10.0312 145.277 9.99533C145.241 9.9595 145.133 9.92368 144.988 9.92368H144.519V10.8193H144.049V8.52648H145.169C145.314 8.52648 145.458 8.56231 145.53 8.59813C145.603 8.63396 145.675 8.70561 145.747 8.74143C145.783 8.81308 145.819 8.84891 145.855 8.92056C145.892 8.99221 145.892 9.06386 145.892 9.17134C145.892 9.27882 145.855 9.38629 145.819 9.49377C145.747 9.60125 145.675 9.6729 145.53 9.70872C145.711 9.74455 145.783 9.8162 145.819 9.88785ZM145.35 8.95639C145.314 8.92056 145.241 8.92056 145.133 8.92056H144.591V9.5296H145.097C145.205 9.5296 145.277 9.5296 145.314 9.49377C145.422 9.45794 145.458 9.35047 145.458 9.24299C145.494 9.09969 145.422 8.99221 145.35 8.95639ZM142.965 9.74455C142.965 10.8193 143.868 11.715 144.952 11.715V12.4315C143.471 12.4315 142.243 11.2134 142.243 9.74455C142.243 8.2757 143.471 7.05763 144.952 7.05763V7.77414C143.868 7.77414 142.965 8.66978 142.965 9.74455ZM139.171 18.0203C139.171 21.1729 136.39 22.9284 132.885 22.9284C130.681 22.9284 128.477 21.8536 126.743 20.134L129.742 17.1604C130.609 18.1994 131.837 19.0234 132.885 19.095C133.897 19.2025 134.764 18.7726 134.944 18.3069C135.306 17.1246 133.174 17.0888 132.524 16.8738C130.067 16.1215 127.213 15.1184 127.213 12.109C127.213 8.49065 131.006 7.27259 132.885 7.27259C135.053 7.27259 137.257 8.23988 139.027 10.0312L136.064 12.9688C135.269 11.9299 133.86 11.1059 132.885 11.1059C132.379 11.1059 131.404 11.285 131.404 12.2882C131.404 14.0794 139.171 13.2196 139.171 18.0203ZM121.107 21.6386C120.565 22.3551 118.975 22.8925 117.927 22.8925C113.411 22.8925 110.123 19.5607 110.123 15.0826C110.123 10.6044 113.086 7.23676 117.602 7.23676C118.578 7.23676 120.565 7.77414 121.071 8.49065V0.32243H125.37V22.6776H121.107V21.6386ZM118.252 10.676C116.338 10.676 114.784 12.6464 114.784 15.0826C114.784 17.4829 116.338 19.4533 118.252 19.4533C120.348 19.4533 121.721 17.1246 121.721 15.0826C121.721 13.0405 120.384 10.676 118.252 10.676ZM103.945 21.567C103.222 22.3193 101.958 22.8567 100.513 22.8567C96.3217 22.8567 94.6959 20.9938 94.6959 18.1636C94.6959 14.9751 97.2972 12.7897 101.524 12.7897H103.909C103.909 11.6433 103.042 10.9268 101.741 10.9268C100.404 10.9268 99.754 11.1776 99.0676 11.8941L95.6352 9.9595C97.3333 8.06075 99.6456 7.16511 102.03 7.16511C106.619 7.16511 108.497 9.6729 108.497 12.0016V22.6059H103.909V21.567H103.945ZM103.945 16.3006H101.235C100.007 16.3006 99.1398 17.1246 99.3205 18.3069C99.4289 19.1308 100.188 19.4891 101.235 19.4891C103.259 19.4891 103.945 18.3427 103.945 17.662V16.3006ZM93.3229 16.1215H82.3756C82.3756 17.9128 84.2183 19.1667 85.7357 19.1667C87.217 19.1667 88.59 18.5935 89.3125 17.3037L92.3836 20.0981C91.1552 21.7461 89.2403 22.9284 85.7357 22.9284C80.7137 22.9284 77.6427 19.5966 77.6427 15.1184C77.6427 10.6402 80.6053 7.27259 85.4828 7.27259C90.3242 7.27259 93.3229 10.5685 93.3229 15.1184V16.1215ZM85.4467 10.9984C83.7847 10.9984 82.7369 11.8941 82.484 13.2196H88.5177C88.2648 11.7508 87.217 10.9984 85.4467 10.9984ZM63.6244 22.7492H59.0359V21.6745C58.3133 22.4268 57.0487 22.9642 55.6036 22.9642C51.4125 22.9642 49.7867 21.1012 49.7867 18.271C49.7867 15.0826 52.388 12.8972 56.6152 12.8972H58.9998C58.9998 11.7508 58.1326 11.0343 56.832 11.0343C55.4952 11.0343 54.8448 11.285 54.1584 12.0016L50.7261 10.067C52.4242 8.16823 54.7365 7.27259 57.121 7.27259C61.7095 7.27259 63.5882 9.78037 63.5882 12.109V22.7492H63.6244ZM59.0359 16.3723H56.3262C55.0977 16.3723 54.2306 17.1963 54.4113 18.3785C54.5197 19.2025 55.2784 19.5607 56.3262 19.5607C58.3494 19.5607 59.0359 18.4143 59.0359 17.7336V16.3723ZM49.606 11.1776C48.4499 10.676 48.2331 10.7835 47.7273 10.7835C45.8486 10.7835 44.7647 11.7508 44.7647 14.1869V22.7492H40.1762V7.52337H44.7647V8.88474C45.3427 7.84579 46.9686 7.30841 47.9802 7.30841C48.9557 7.30841 49.4977 7.34424 50.2202 7.73832L49.606 11.1776ZM36.491 10.7477C34.6122 10.7477 33.5283 11.715 33.5283 14.1511V22.7134H28.976V7.52337H33.5645V8.88474C34.1425 7.84579 35.7684 7.30841 36.78 7.30841C37.7555 7.30841 38.2975 7.34424 39.02 7.73832L38.4058 11.1417C37.2497 10.676 37.0329 10.7477 36.491 10.7477ZM19.4016 19.2383C20.8829 19.2383 22.2559 18.6651 22.9785 17.3754L26.0495 20.1698C24.8211 21.8178 22.9062 23 19.4016 23C14.3796 23 11.3086 19.6682 11.3086 15.19C11.3086 10.7118 14.2712 7.34424 19.1487 7.34424C24.0262 7.34424 26.9889 10.6402 26.9889 15.19V16.1931H16.0777C16.0777 17.9844 17.8842 19.2383 19.4016 19.2383ZM22.1836 13.2913C21.9307 11.8583 20.8829 11.0701 19.1487 11.0701C17.4868 11.0701 16.439 11.9657 16.1861 13.2913H22.1836ZM6.28656 16.2648C6.28656 17.3754 6.25043 19.2025 7.94853 19.2025C8.85177 19.2025 9.93566 19.0234 9.93566 19.0234V22.2118C9.21307 22.6059 8.34595 22.9642 7.40658 22.9642C3.46845 22.9642 1.69809 21.3162 1.69809 16.2648V11.285H0V7.52337H1.69809V3.15265H6.28656V7.52337H10.297V11.285H6.28656V16.2648ZM71.1755 0H75.6555V22.6776H71.1755V0Z" fill="white"/>
</svg>
