<svg width="182" height="77" viewBox="0 0 182 77" fill="none" xmlns="http://www.w3.org/2000/svg">
<path opacity="0.1" fill-rule="evenodd" clip-rule="evenodd" d="M55.6648 1.42972V75.9379H50.1559V1.42972H55.6648ZM41.8514 75.8971H47.3603V1.42972H41.8514V75.8971ZM33.588 75.8971H39.0558V1.42972H33.588V75.8971ZM25.2835 75.8971H30.7924V1.42972H25.2835V75.8971ZM16.979 75.8971H22.4879V1.42972H16.979V75.8971ZM8.71563 75.8971H14.2245V1.42972H8.71563V75.8971ZM0.411133 75.8971H5.92005V1.42972H0.411133V75.8971Z" fill="white"/>
<path fill-rule="evenodd" clip-rule="evenodd" d="M170.694 73.6096V76.2647H169.749V73.7321C169.749 72.7926 169.461 72.3841 168.68 72.3841C167.776 72.3841 167.406 72.9968 167.406 73.8138V76.2647H166.46V69.3204H167.406V72.4249C167.529 72.0164 168.104 71.6488 168.68 71.608C169.913 71.4854 170.694 72.0981 170.694 73.6096ZM131.844 72.4658C131.762 72.4249 131.556 72.3841 131.392 72.3841C130.611 72.3841 130.241 73.1194 130.241 74.0589V76.2647H129.295V71.6897H130.241V72.3432C130.364 71.9348 130.858 71.608 131.392 71.608C131.639 71.608 131.926 71.6897 132.05 71.7305L131.844 72.4658ZM123.869 71.1995C123.869 70.4642 123.869 70.3008 124.156 69.8515C124.444 69.3613 124.938 69.1979 125.472 69.1979C125.719 69.1979 125.883 69.2796 126.006 69.3204V70.0557C125.883 69.974 125.636 69.8923 125.349 70.0149C124.896 70.2191 124.814 70.4233 124.814 71.1586V71.608H126.006V72.3841H124.814V76.183H123.869V72.3841H123.293V71.608H123.869V71.1995ZM73.3017 76.2239H72.2739V70.1374H70.095V69.2796H75.4394V70.1374H73.2605V76.2239H73.3017ZM77.0428 72.3841C77.1661 71.9756 77.7417 71.608 78.3172 71.5671C79.5506 71.4854 80.3728 72.0573 80.3728 73.5687V76.2239H79.4272V73.6912C79.4272 72.7517 79.1395 72.3432 78.3584 72.3432C77.4539 72.3432 77.0839 72.956 77.0839 73.7729V76.2239H76.1383V69.2796H77.0839V72.3841H77.0428ZM83.5795 71.5671C85.0184 71.5671 85.6351 72.3432 85.8406 73.487C85.8817 73.6504 85.8817 73.7729 85.8817 73.9363V74.2631H82.2639C82.2639 75.121 83.0862 75.5294 83.6617 75.5294C84.1139 75.5294 84.5662 75.2844 84.8539 74.9167L85.5117 75.4886C85.224 75.8971 84.6895 76.2647 83.6617 76.2647C82.1817 76.2647 81.2773 75.2435 81.2773 73.8955C81.2773 72.5883 82.1817 71.5671 83.5795 71.5671ZM84.8951 73.5279C84.8951 72.7926 84.3195 72.3841 83.5795 72.3841C82.8806 72.3841 82.305 72.8743 82.305 73.5279H84.8951ZM91.2262 74.835L92.1718 72.0164L92.2951 71.6488H92.994L93.1173 72.0164L94.0629 74.835L95.1318 71.6488H96.0774L94.3096 76.2239H93.734L92.5829 73.2828L91.4318 76.2239H90.8562L89.0884 71.6488H90.0751L91.2262 74.835ZM98.9963 71.5671C100.312 71.5671 101.381 72.5883 101.381 73.9363C101.381 75.2844 100.312 76.3056 98.9963 76.3056C97.6807 76.3056 96.6118 75.2844 96.6118 73.9363C96.5707 72.5883 97.6396 71.5671 98.9963 71.5671ZM98.9963 75.5294C99.7774 75.5294 100.435 74.8759 100.435 73.9363C100.435 72.9968 99.7774 72.3432 98.9963 72.3432C98.2151 72.3432 97.5574 72.9968 97.5574 73.9363C97.5574 74.8759 98.174 75.5294 98.9963 75.5294ZM103.354 72.3024C103.477 71.8939 103.971 71.5671 104.505 71.5671C104.752 71.5671 105.04 71.6488 105.163 71.6897L104.957 72.4249C104.875 72.3841 104.67 72.3432 104.505 72.3432C103.724 72.3432 103.354 73.0785 103.354 74.018V76.2239H102.409V71.6488H103.354V72.3024ZM106.766 76.2239H105.78V69.1162H106.766V76.2239ZM110.302 71.5671C110.754 71.5671 111.33 71.7714 111.617 72.0164V69.2796H112.604V76.2239H111.617V75.8971C111.247 76.183 110.754 76.3464 110.302 76.3464C108.986 76.3464 108 75.3252 108 73.9772C108 72.5883 108.986 71.5671 110.302 71.5671ZM110.384 75.5294C110.919 75.5294 111.371 75.2844 111.617 74.7942C111.741 74.5491 111.823 74.2631 111.823 73.9363C111.823 73.6096 111.741 73.3236 111.617 73.0785C111.371 72.5883 110.919 72.3432 110.384 72.3432C109.603 72.3432 108.945 72.9968 108.945 73.9363C108.945 74.8759 109.603 75.5294 110.384 75.5294ZM113.879 70.3008C113.879 69.9332 114.166 69.6472 114.536 69.6472C114.906 69.6472 115.194 69.9332 115.194 70.3008C115.194 70.4642 115.153 70.5867 115.071 70.6684L114.207 71.9348H113.879L114.207 70.8727C114.043 70.791 113.879 70.5459 113.879 70.3008ZM117.743 75.5294C118.195 75.5294 118.565 75.366 118.689 75.121C118.771 74.9576 118.689 74.7942 118.689 74.7533C118.565 74.4674 118.154 74.4265 117.702 74.304C117.085 74.1814 116.469 74.018 116.222 73.3645C116.099 73.0377 116.14 72.6292 116.304 72.3024C116.674 71.608 117.62 71.5671 117.743 71.5671C118.401 71.5671 118.976 71.8122 119.429 72.2615L118.812 72.8743C118.565 72.5475 118.154 72.3841 117.743 72.3841C117.743 72.3841 117.167 72.3841 117.044 72.7109C117.003 72.7926 116.962 72.956 117.003 73.0785C117.085 73.3236 117.496 73.4053 117.949 73.5279C118.565 73.6504 119.223 73.8138 119.47 74.4674C119.47 74.5082 119.634 74.9576 119.47 75.4477C119.223 75.9788 118.565 76.3464 117.784 76.3464C117.126 76.3464 116.551 76.0605 116.099 75.652L116.715 75.0393C116.962 75.3252 117.332 75.5294 117.743 75.5294ZM127.445 69.4838C127.733 69.4838 127.98 69.7289 127.98 70.0149C127.98 70.3008 127.733 70.5459 127.445 70.5459C127.158 70.5459 126.911 70.3008 126.911 70.0149C126.952 69.6881 127.158 69.4838 127.445 69.4838ZM127.939 76.2239H126.993V71.6488H127.939V76.2239ZM134.146 75.5294C134.599 75.5294 134.969 75.366 135.092 75.121C135.174 74.9576 135.092 74.7942 135.092 74.7533C134.969 74.4674 134.558 74.4265 134.105 74.304C133.489 74.1814 132.872 74.018 132.625 73.3645C132.502 73.0377 132.543 72.6292 132.708 72.3024C133.078 71.608 134.023 71.5671 134.146 71.5671C134.804 71.5671 135.38 71.8122 135.832 72.2615L135.215 72.8743C134.969 72.5475 134.558 72.3841 134.146 72.3841C134.146 72.3841 133.571 72.3841 133.448 72.7109C133.406 72.7926 133.365 72.956 133.406 73.0785C133.489 73.3236 133.9 73.4053 134.352 73.5279C134.969 73.6504 135.626 73.8138 135.873 74.4674C135.873 74.5082 136.038 74.9576 135.873 75.4477C135.626 75.9788 134.969 76.3464 134.188 76.3464C133.53 76.3464 132.954 76.0605 132.502 75.652L133.119 75.0393C133.365 75.3252 133.735 75.5294 134.146 75.5294ZM137.271 70.2191H138.216V71.6488H139.409V72.4249H138.216V74.2223C138.216 74.9984 138.299 75.2435 138.751 75.4477C139.039 75.5703 139.285 75.4886 139.409 75.4069V76.1422C139.285 76.2239 139.121 76.2647 138.874 76.2647C138.34 76.2647 137.846 76.1013 137.559 75.6111C137.271 75.1618 137.271 74.9167 137.271 74.1814V72.3841H136.695V71.608H137.271V70.2191ZM146.809 69.1979C147.837 69.1979 148.741 69.5655 149.399 70.2599L148.7 70.9544C148.289 70.3825 147.549 70.0557 146.809 70.0557C145.37 70.0557 144.301 71.322 144.301 72.7517C144.301 74.0589 145.288 75.4477 146.809 75.4477C147.467 75.4477 148.33 75.2027 148.7 74.5491L149.399 75.2435C148.741 75.9379 147.837 76.3056 146.809 76.3056C144.835 76.3056 143.273 74.7533 143.273 72.7517C143.273 70.7501 144.835 69.1979 146.809 69.1979ZM155.977 71.8531C155.977 73.2419 154.867 74.3857 153.51 74.3857H151.824V76.2239H150.797V69.2796H153.51C154.867 69.3204 155.977 70.4233 155.977 71.8531ZM151.824 70.1374V73.5279H153.469C154.25 73.5279 154.908 72.7517 154.908 71.8122C154.908 70.8727 154.25 70.0966 153.469 70.0966H151.824V70.1374ZM160.006 69.2796L162.883 76.2239H161.773L161.074 74.4265H158.32L157.621 76.2239H156.511L159.389 69.2796H160.006ZM160.746 73.5687L159.718 70.8318L158.649 73.5687H160.746ZM172.791 74.2223C172.791 75.1618 173.079 75.5703 173.86 75.5703C174.764 75.5703 175.134 74.9576 175.134 74.1406V71.6897H176.08V76.2647H175.134V75.5294C175.011 75.9379 174.436 76.3056 173.86 76.3464C172.627 76.4281 171.804 75.8562 171.804 74.3448V71.6897H172.75V74.2223H172.791ZM178.382 72.0164C178.67 71.7714 179.246 71.5671 179.698 71.5671C181.013 71.5671 182 72.5883 182 73.9363C182 75.2844 181.013 76.3056 179.698 76.3056C179.246 76.3056 178.752 76.1422 178.382 75.8562V76.183H177.437V69.2387H178.382V72.0164ZM178.382 74.835C178.629 75.3252 179.081 75.5703 179.616 75.5703C180.397 75.5703 181.055 74.9167 181.055 73.9772C181.055 73.0377 180.397 72.3841 179.616 72.3841C179.081 72.3841 178.629 72.6292 178.382 73.1194C178.259 73.3645 178.177 73.6913 178.177 73.9772C178.177 74.2631 178.259 74.5491 178.382 74.835Z" fill="white"/>
<path fill-rule="evenodd" clip-rule="evenodd" d="M156.264 39.991C156.305 40.0727 156.346 40.2361 156.346 40.3995V40.5629C156.346 40.6854 156.346 40.7671 156.346 40.808C156.346 40.8897 156.388 40.9305 156.429 40.9714V41.0531H155.812C155.812 41.0122 155.771 40.9305 155.771 40.9305C155.771 40.8488 155.73 40.7671 155.73 40.6854V40.4403C155.73 40.2769 155.689 40.1544 155.648 40.1135C155.606 40.0727 155.483 40.0318 155.319 40.0318H154.784V41.0531H154.25V38.3979H155.524C155.689 38.3979 155.853 38.4387 155.935 38.4796C156.018 38.5204 156.1 38.6021 156.182 38.643C156.223 38.7247 156.264 38.7655 156.305 38.8472C156.346 38.9289 156.346 39.0106 156.346 39.1332C156.346 39.2557 156.305 39.3783 156.264 39.5008C156.182 39.6233 156.1 39.7051 155.935 39.7459C156.141 39.8276 156.223 39.9093 156.264 39.991ZM155.73 38.9289C155.689 38.8881 155.606 38.8881 155.483 38.8881H154.866V39.5825H155.442C155.565 39.5825 155.648 39.5825 155.689 39.5417C155.812 39.5008 155.853 39.3783 155.853 39.2557C155.894 39.0923 155.812 38.9698 155.73 38.9289ZM153.016 39.8276C153.016 41.0531 154.044 42.0743 155.278 42.0743V42.8913C153.592 42.8913 152.194 41.5024 152.194 39.8276C152.194 38.1528 153.592 36.7639 155.278 36.7639V37.5809C154.003 37.5809 153.016 38.6021 153.016 39.8276ZM148.659 49.2637C148.659 52.8584 145.493 54.86 141.505 54.86C138.997 54.86 136.49 53.6345 134.516 51.6737L137.929 48.2833C138.915 49.4679 140.313 50.4074 141.505 50.4891C142.656 50.6117 143.643 50.1215 143.849 49.5905C144.26 48.2424 141.834 48.2016 141.094 47.9565C138.299 47.0987 135.051 45.9549 135.051 42.5236C135.051 38.3979 139.367 37.009 141.505 37.009C143.972 37.009 146.48 38.1119 148.494 40.1544L145.123 43.504C144.219 42.3194 142.615 41.3799 141.505 41.3799C140.93 41.3799 139.82 41.5841 139.82 42.7279C139.861 44.7703 148.659 43.7899 148.659 49.2637ZM128.144 53.3894C127.527 54.2064 125.718 54.8191 124.526 54.8191C119.387 54.8191 115.646 51.0202 115.646 45.9141C115.646 40.808 119.017 36.9682 124.156 36.9682C125.266 36.9682 127.527 37.5809 128.103 38.3979V29.0844H132.954V54.574H128.103V53.3894H128.144ZM124.896 40.8897C122.717 40.8897 120.95 43.1363 120.95 45.9141C120.95 48.6509 122.717 50.8976 124.896 50.8976C127.281 50.8976 128.843 48.2424 128.843 45.9141C128.843 43.5857 127.322 40.8897 124.896 40.8897ZM108.616 53.3077C107.794 54.1655 106.355 54.7783 104.711 54.7783C99.9416 54.7783 98.0916 52.6541 98.0916 49.4271C98.0916 45.7915 101.052 43.2997 105.862 43.2997H108.575C108.575 41.9926 107.588 41.1756 106.108 41.1756C104.587 41.1756 103.847 41.4615 103.066 42.2785L99.1605 40.0727C101.093 37.9077 103.724 36.8865 106.437 36.8865C111.658 36.8865 113.796 39.7459 113.796 42.4011V54.4923H108.575V53.3077H108.616ZM108.616 47.3029H105.533C104.135 47.3029 103.148 48.2424 103.354 49.5905C103.477 50.53 104.341 50.9385 105.533 50.9385C107.835 50.9385 108.616 49.6313 108.616 48.8552V47.3029ZM96.5294 47.0578H84.1137C84.1137 49.1003 86.2104 50.53 87.9371 50.53C89.6227 50.53 91.1849 49.8764 92.0071 48.4058L95.5016 51.5921C94.1038 53.4711 91.9249 54.8191 87.9371 54.8191C82.2226 54.8191 78.7282 51.0202 78.7282 45.9141C78.7282 40.808 82.0993 36.9682 87.6493 36.9682C93.1582 36.9682 96.5705 40.7263 96.5705 45.9141V47.0578H96.5294ZM87.5671 41.2573C85.676 41.2573 84.4837 42.2785 84.196 43.7899H91.0616C90.7738 42.1151 89.5404 41.2573 87.5671 41.2573ZM141.259 23.6106H136.037V22.3852C135.215 23.243 133.776 23.8557 132.132 23.8557C127.363 23.8557 125.513 21.7316 125.513 18.5045C125.513 14.869 128.473 12.3772 133.283 12.3772H135.996C135.996 11.07 135.01 10.2531 133.53 10.2531C132.008 10.2531 131.268 10.539 130.487 11.356L126.582 9.15015C128.514 6.98516 131.145 5.96394 133.858 5.96394C139.08 5.96394 141.217 8.82336 141.217 11.4785V23.6106H141.259ZM136.037 16.3395H132.954C131.556 16.3395 130.57 17.2791 130.775 18.6271C130.898 19.5666 131.762 19.9751 132.954 19.9751C135.256 19.9751 136.037 18.6679 136.037 17.8918V16.3395ZM125.307 10.4165C123.992 9.84457 123.745 9.96712 123.17 9.96712C121.032 9.96712 119.798 11.07 119.798 13.8478V23.6106H114.577V6.24988H119.798V7.80213C120.456 6.61752 122.306 6.00479 123.457 6.00479C124.567 6.00479 125.184 6.04564 126.006 6.49497L125.307 10.4165ZM110.384 9.92627C108.246 9.92627 107.013 11.0292 107.013 13.8069V23.5698H101.792V6.24988H107.013V7.80213C107.671 6.61752 109.521 6.00479 110.672 6.00479C111.782 6.00479 112.398 6.04564 113.221 6.49497L112.522 10.3756C111.247 9.84457 111.001 9.92627 110.384 9.92627ZM90.9382 19.6074C92.6238 19.6074 94.186 18.9539 95.0083 17.4833L98.5027 20.6695C97.1049 22.5486 94.926 23.8966 90.9382 23.8966C85.2237 23.8966 81.7293 20.0976 81.7293 14.9915C81.7293 9.88542 85.1004 6.04564 90.6504 6.04564C96.1594 6.04564 99.5716 9.80373 99.5716 14.9915V16.1353H87.156C87.156 18.1369 89.2116 19.6074 90.9382 19.6074ZM94.1038 12.8265C93.816 11.1926 92.6238 10.2939 90.6504 10.2939C88.7593 10.2939 87.5671 11.3151 87.2793 12.8265H94.1038ZM76.0148 16.217C76.0148 17.4833 75.9737 19.5666 77.9059 19.5666C78.9337 19.5666 80.1671 19.3623 80.1671 19.3623L80.1259 22.957C79.3037 23.4064 78.317 23.8149 77.2481 23.8149C72.767 23.8149 70.7526 21.9358 70.7526 16.1761V10.539H68.8203V6.24988H70.7526V1.26633H75.9737V6.24988H80.5782V10.539H76.0148V16.217ZM71.3281 28.7167H76.4259V54.574H71.3281V28.7167Z" fill="white"/>
<path d="M31.039 61.4774H24.6667V77H31.039V61.4774Z" fill="white"/>
<path d="M31.039 18.9947H24.6667V34.5172H31.039V18.9947Z" fill="white"/>
<path d="M6.37226 18.9947H0V34.5172H6.37226V18.9947Z" fill="white"/>
<path d="M39.549 18.9947H33.1768V34.5172H39.549V18.9947Z" fill="white"/>
<path d="M47.8124 0H41.4402V77H47.8124V0Z" fill="white"/>
<path d="M56.487 0H50.1147V77H56.487V0Z" fill="white"/>
<path d="M14.5124 0H8.14014V68.9119H14.5124V0Z" fill="white"/>
<path d="M23.1867 0H16.8145V77H23.1867V0Z" fill="white"/>
</svg>
